<svg xmlns="http://www.w3.org/2000/svg" width="400" height="38" viewBox="0 0 400 38">
  <g fill="#F7F7F7" fill-rule="evenodd">
    <path d="M113.73154,28.6376119 L113.73154,36.4656716 L83.1091181,36.4656716 L83.1091181,28.9528358 L101.57728,9.61910448 L83.3721973,9.61910448 L83.3721973,1.79104478 L113.152765,1.79104478 L113.152765,9.3038806 L94.7372197,28.6376119 L113.73154,28.6376119 Z M162.611657,28.4274627 L162.611657,36.4656716 L133.936021,36.4656716 L133.936021,1.79104478 L161.927651,1.79104478 L161.927651,9.82925373 L144.669654,9.82925373 L144.669654,15.4507463 L158.455005,15.4507463 L158.455005,22.9110448 L144.669654,22.9110448 L144.669654,28.4274627 L162.611657,28.4274627 Z M210.01853,28.4274627 L210.01853,36.4656716 L182.763523,36.4656716 L182.763523,1.79104478 L193.497155,1.79104478 L193.497155,28.4274627 L210.01853,28.4274627 Z M256.267855,4.20776119 L243.587436,4.20776119 L243.587436,36.4656716 L240.956644,36.4656716 L240.956644,4.20776119 L228.276226,4.20776119 L228.276226,1.79104478 L256.267855,1.79104478 L256.267855,4.20776119 Z M301.675326,36.4656716 L291.730932,21.44 L281.312994,21.44 L281.312994,36.4656716 L278.682202,36.4656716 L278.682202,1.79104478 L291.573084,1.79104478 C295.045747,1.79104478 297.808051,2.66665791 299.86008,4.41791045 C301.912108,6.16916299 302.938107,8.56834297 302.938107,11.6155224 C302.938107,14.137326 302.201492,16.2300414 300.728241,17.8937313 C299.25499,19.5574213 297.23807,20.6344254 294.677419,21.1247761 L304.779661,36.4656716 L301.675326,36.4656716 Z M281.312994,18.9707463 L291.520468,18.9707463 C294.326661,18.9707463 296.47512,18.3403048 297.965909,17.079403 C299.456699,15.8185012 300.202083,13.9972258 300.202083,11.6155224 C300.202083,9.23381894 299.456699,7.40378749 297.965909,6.12537313 C296.47512,4.84695878 294.326661,4.20776119 291.520468,4.20776119 L281.312994,4.20776119 L281.312994,18.9707463 Z M352.712693,34.0489552 L352.712693,36.4656716 L328.141094,36.4656716 L328.141094,1.79104478 L351.870839,1.79104478 L351.870839,4.20776119 L330.771886,4.20776119 L330.771886,17.6047761 L347.451109,17.6047761 L347.451109,20.0740299 L330.771886,20.0740299 L330.771886,34.0489552 L352.712693,34.0489552 Z M399.751255,34.0489552 L399.751255,36.4656716 L372.917175,36.4656716 L372.917175,34.1540299 L395.805067,4.20776119 L373.390717,4.20776119 L373.390717,1.79104478 L398.909402,1.79104478 L398.909402,4.10268657 L376.02151,34.0489552 L399.751255,34.0489552 Z"/>
    <polygon points="10.167 14.328 0 20.218 0 32.308 10.167 38.209 20.329 32.308 20.329 20.218"/>
    <polygon points="44.918 14.328 34.679 20.231 34.679 32.29 44.918 38.209 55.007 32.29 55.007 20.231"/>
    <polygon points="14.35 7.785 14.35 12.123 24.004 17.681 24.004 29.03 27.481 31.045 31.084 29.03 31.084 17.681 40.658 12.123 40.658 7.785 27.504 0"/>
  </g>
</svg>
