<svg xmlns="http://www.w3.org/2000/svg" viewBox="0 0 2000 2000"><defs><style>.cls-1{fill:#5e6cb2;}.cls-2{fill:#5966a7;}.cls-3{fill:#3a416b;}.cls-4{fill:#1c3c4f;}.cls-5{fill:#a4d654;}.cls-6{fill:#1b564e;}.cls-7{fill:#0e2b27;}.cls-8{fill:#4eb39a;}.cls-9{fill:#2ea08a;}</style></defs><title>nodes</title><g id="Bamf"><polygon class="cls-1" points="744.31 310.45 1445.83 715.88 1690.81 574.43 989.3 169 744.31 310.45"/><polygon class="cls-2" points="1445.77 1307.34 1692.31 1165.01 1692.31 573.47 1445.77 715.83 1445.77 1307.34"/><polygon class="cls-3" points="744.45 901.95 1445.97 1307.36 1445.97 715.8 744.45 310.39 744.45 901.95"/><polygon class="cls-4" points="1445.77 859.14 1692.31 716.8 1692.31 709.39 1445.77 851.71 1445.77 859.14"/><polygon class="cls-4" points="1445.77 905.43 1692.31 763.09 1692.31 755.68 1445.77 897.99 1445.77 905.43"/><polygon class="cls-4" points="1445.77 951.72 1692.31 809.39 1692.31 801.97 1445.77 944.29 1445.77 951.72"/><polygon class="cls-4" points="1445.77 998 1692.31 855.67 1692.31 848.25 1445.77 990.58 1445.77 998"/><polygon class="cls-4" points="1445.77 1042.41 1692.31 900.09 1692.31 892.66 1445.77 1034.99 1445.77 1042.41"/><polygon class="cls-4" points="1445.77 1086.83 1692.31 944.5 1692.31 937.07 1445.77 1079.4 1445.77 1086.83"/><path class="cls-5" d="M1464.57,802c0,8.11,5.75,11.37,12.8,7.28s12.78-13.93,12.78-22-5.73-11.36-12.78-7.29-12.8,14-12.8,22"/><g id="Holes_kopia" data-name="Holes kopia"><path class="cls-6" d="M1602.43,544.06a9.45,9.45,0,0,0,8.51,0c2.34-1.37,2.31-3.54,0-4.89a9.33,9.33,0,0,0-8.5,0c-2.33,1.34-2.32,3.53,0,4.9"/><path class="cls-6" d="M1584.3,554.52a9.24,9.24,0,0,0,8.47,0c2.36-1.35,2.33-3.55,0-4.91a9.43,9.43,0,0,0-8.5,0c-2.34,1.35-2.32,3.53,0,4.89"/><path class="cls-6" d="M1566.15,565a9.39,9.39,0,0,0,8.5,0c2.33-1.33,2.32-3.52,0-4.89a9.25,9.25,0,0,0-8.49,0c-2.34,1.34-2.32,3.54,0,4.89"/><path class="cls-6" d="M1548,575.48a9.47,9.47,0,0,0,8.49,0c2.34-1.34,2.32-3.54,0-4.89a9.36,9.36,0,0,0-8.47,0c-2.35,1.35-2.35,3.52,0,4.91"/><path class="cls-6" d="M1529.88,586a9.41,9.41,0,0,0,8.49,0c2.34-1.36,2.32-3.54,0-4.88a9.42,9.42,0,0,0-8.48,0c-2.34,1.35-2.33,3.53,0,4.91"/><path class="cls-6" d="M1511.73,596.4a9.36,9.36,0,0,0,8.5,0c2.34-1.35,2.33-3.54,0-4.91a9.29,9.29,0,0,0-8.48,0c-2.34,1.34-2.33,3.54,0,4.88"/><path class="cls-6" d="M1493.6,606.89a9.29,9.29,0,0,0,8.48,0c2.35-1.34,2.35-3.52,0-4.9a9.43,9.43,0,0,0-8.5,0c-2.34,1.37-2.34,3.54,0,4.91"/><path class="cls-6" d="M1475.45,617.37a9.25,9.25,0,0,0,8.49,0c2.36-1.34,2.34-3.54,0-4.91a9.3,9.3,0,0,0-8.47,0c-2.34,1.35-2.33,3.53,0,4.9"/><path class="cls-6" d="M1457.31,627.84a9.42,9.42,0,0,0,8.51,0c2.33-1.35,2.31-3.54,0-4.9a9.38,9.38,0,0,0-8.51,0c-2.32,1.34-2.32,3.53,0,4.89"/><path class="cls-6" d="M1439.18,638.3a9.35,9.35,0,0,0,8.48.05c2.35-1.39,2.33-3.56,0-4.93a9.32,9.32,0,0,0-8.48,0c-2.34,1.33-2.32,3.54,0,4.88"/><path class="cls-6" d="M1421,648.79a9.36,9.36,0,0,0,8.5,0c2.32-1.35,2.32-3.53,0-4.89a9.38,9.38,0,0,0-8.48,0c-2.34,1.35-2.34,3.55,0,4.91"/><path class="cls-6" d="M1402.91,659.26a9.27,9.27,0,0,0,8.47,0c2.36-1.35,2.33-3.53,0-4.89a9.29,9.29,0,0,0-8.48,0c-2.35,1.36-2.34,3.55,0,4.91"/><path class="cls-6" d="M1384.77,669.74a9.31,9.31,0,0,0,8.49,0c2.32-1.36,2.31-3.56,0-4.89a9.2,9.2,0,0,0-8.48,0c-2.35,1.33-2.32,3.52,0,4.9"/><path class="cls-6" d="M1618.26,553.19a9.31,9.31,0,0,0,8.49,0c2.35-1.36,2.34-3.54,0-4.89a9.4,9.4,0,0,0-8.5,0c-2.36,1.35-2.33,3.54,0,4.91"/><path class="cls-6" d="M1600.13,563.67a9.37,9.37,0,0,0,8.49,0c2.34-1.36,2.32-3.54,0-4.91a9.34,9.34,0,0,0-8.49,0c-2.36,1.37-2.35,3.54,0,4.92"/><path class="cls-6" d="M1582,574.14a9.35,9.35,0,0,0,8.48,0c2.34-1.35,2.34-3.53,0-4.9a9.35,9.35,0,0,0-8.48,0c-2.34,1.35-2.32,3.54,0,4.9"/><path class="cls-6" d="M1563.82,584.6a9.35,9.35,0,0,0,8.51,0c2.35-1.34,2.32-3.55,0-4.91a9.34,9.34,0,0,0-8.49,0c-2.35,1.33-2.33,3.53,0,4.88"/><path class="cls-6" d="M1545.7,595.09a9.41,9.41,0,0,0,8.49,0c2.33-1.35,2.32-3.53,0-4.9a9.46,9.46,0,0,0-8.5,0c-2.32,1.35-2.32,3.54,0,4.91"/><path class="cls-6" d="M1527.56,605.56a9.35,9.35,0,0,0,8.48,0c2.34-1.35,2.33-3.53,0-4.9a9.4,9.4,0,0,0-8.5,0c-2.33,1.36-2.32,3.56,0,4.92"/><path class="cls-6" d="M1509.41,616a9.36,9.36,0,0,0,8.5,0c2.34-1.35,2.33-3.52,0-4.9a9.34,9.34,0,0,0-8.49,0c-2.33,1.35-2.33,3.56,0,4.92"/><path class="cls-6" d="M1491.28,626.5a9.3,9.3,0,0,0,8.5,0c2.33-1.33,2.32-3.51,0-4.88a9.22,9.22,0,0,0-8.49,0c-2.35,1.33-2.35,3.53,0,4.88"/><path class="cls-6" d="M1473.15,637a9.23,9.23,0,0,0,8.48,0c2.35-1.35,2.33-3.54,0-4.91a9.24,9.24,0,0,0-8.47,0c-2.36,1.34-2.34,3.52,0,4.88"/><path class="cls-6" d="M1455,647.44a9.46,9.46,0,0,0,8.5,0c2.34-1.36,2.33-3.55,0-4.9a9.3,9.3,0,0,0-8.5,0c-2.32,1.35-2.31,3.53,0,4.89"/><path class="cls-6" d="M1436.86,657.92a9.32,9.32,0,0,0,8.48,0c2.35-1.34,2.32-3.53,0-4.89a9.35,9.35,0,0,0-8.48,0c-2.35,1.38-2.32,3.55,0,4.92"/><path class="cls-6" d="M1418.71,668.39a9.4,9.4,0,0,0,8.5,0c2.33-1.34,2.33-3.52,0-4.91a9.45,9.45,0,0,0-8.48,0c-2.34,1.37-2.34,3.54,0,4.9"/><path class="cls-6" d="M1400.58,678.86a9.35,9.35,0,0,0,8.48,0c2.35-1.35,2.32-3.54,0-4.91a9.3,9.3,0,0,0-8.47,0c-2.36,1.35-2.34,3.55,0,4.9"/><path class="cls-6" d="M1634.07,562.32a9.37,9.37,0,0,0,8.49,0c2.35-1.36,2.32-3.54,0-4.9a9.32,9.32,0,0,0-8.48,0c-2.35,1.34-2.33,3.52,0,4.89"/><path class="cls-6" d="M1615.93,572.8a9.45,9.45,0,0,0,8.51,0c2.31-1.36,2.31-3.52,0-4.88a9.33,9.33,0,0,0-8.5,0c-2.31,1.36-2.31,3.54,0,4.91"/><path class="cls-6" d="M1597.81,583.27a9.36,9.36,0,0,0,8.47,0c2.36-1.35,2.34-3.54,0-4.91a9.38,9.38,0,0,0-8.48,0c-2.35,1.36-2.33,3.54,0,4.91"/><path class="cls-6" d="M1579.66,593.74a9.25,9.25,0,0,0,8.49,0c2.34-1.34,2.33-3.51,0-4.9a9.37,9.37,0,0,0-8.49,0c-2.34,1.35-2.33,3.54,0,4.9"/><path class="cls-6" d="M1561.53,604.22a9.42,9.42,0,0,0,8.48,0c2.35-1.36,2.32-3.54,0-4.9a9.31,9.31,0,0,0-8.49,0c-2.35,1.35-2.33,3.53,0,4.9"/><path class="cls-6" d="M1543.37,614.69a9.37,9.37,0,0,0,8.49,0c2.34-1.36,2.34-3.53,0-4.9a9.36,9.36,0,0,0-8.5,0c-2.33,1.34-2.33,3.53,0,4.89"/><path class="cls-6" d="M1525.23,625.17a9.41,9.41,0,0,0,8.49,0c2.35-1.37,2.32-3.55,0-4.91a9.44,9.44,0,0,0-8.49,0c-2.34,1.37-2.32,3.55,0,4.92"/><path class="cls-6" d="M1507.09,635.64a9.36,9.36,0,0,0,8.5,0c2.33-1.36,2.32-3.53,0-4.89a9.37,9.37,0,0,0-8.49,0c-2.34,1.34-2.32,3.54,0,4.9"/><path class="cls-6" d="M1489,646.11a9.3,9.3,0,0,0,8.5,0c2.34-1.33,2.33-3.53,0-4.89a9.28,9.28,0,0,0-8.49,0c-2.33,1.33-2.32,3.52,0,4.89"/><path class="cls-6" d="M1470.82,656.58a9.44,9.44,0,0,0,8.49,0c2.34-1.36,2.32-3.54,0-4.9a9.3,9.3,0,0,0-8.5,0c-2.33,1.34-2.32,3.51,0,4.89"/><path class="cls-6" d="M1452.68,667.06a9.53,9.53,0,0,0,8.49,0c2.34-1.36,2.33-3.56,0-4.9a9.35,9.35,0,0,0-8.48,0c-2.35,1.34-2.34,3.53,0,4.91"/><path class="cls-6" d="M1434.54,677.52a9.34,9.34,0,0,0,8.49,0c2.34-1.35,2.34-3.53,0-4.91a9.45,9.45,0,0,0-8.48,0c-2.34,1.35-2.32,3.53,0,4.89"/><path class="cls-6" d="M1416.41,688a9.35,9.35,0,0,0,8.48,0c2.35-1.35,2.32-3.53,0-4.91a9.51,9.51,0,0,0-8.48,0c-2.36,1.35-2.36,3.55,0,4.9"/><path class="cls-6" d="M1649.9,571.44a9.25,9.25,0,0,0,8.49,0c2.34-1.34,2.34-3.55,0-4.89a9.35,9.35,0,0,0-8.48,0c-2.34,1.35-2.34,3.56,0,4.89"/><path class="cls-6" d="M1631.77,581.94a9.36,9.36,0,0,0,8.47,0c2.34-1.36,2.34-3.53,0-4.87a9.31,9.31,0,0,0-8.49-.05c-2.35,1.36-2.32,3.55,0,4.92"/><path class="cls-6" d="M1613.61,592.41a9.49,9.49,0,0,0,8.5,0c2.35-1.34,2.33-3.53,0-4.89a9.37,9.37,0,0,0-8.49,0c-2.33,1.36-2.33,3.55,0,4.92"/><path class="cls-6" d="M1595.48,602.87a9.26,9.26,0,0,0,8.48,0c2.35-1.34,2.32-3.53,0-4.9a9.35,9.35,0,0,0-8.48,0c-2.34,1.37-2.31,3.57,0,4.91"/><path class="cls-6" d="M1577.33,613.34a9.24,9.24,0,0,0,8.5,0c2.34-1.34,2.32-3.53,0-4.89a9.3,9.3,0,0,0-8.5,0c-2.32,1.35-2.32,3.53,0,4.89"/><path class="cls-6" d="M1559.2,623.82a9.31,9.31,0,0,0,8.49,0c2.35-1.34,2.32-3.53,0-4.91a9.47,9.47,0,0,0-8.49,0c-2.34,1.36-2.33,3.55,0,4.9"/><path class="cls-6" d="M1541.05,634.28a9.42,9.42,0,0,0,8.51,0c2.32-1.37,2.32-3.54,0-4.9a9.38,9.38,0,0,0-8.51,0c-2.35,1.34-2.34,3.51,0,4.87"/><path class="cls-6" d="M1522.92,644.78a9.45,9.45,0,0,0,8.48,0c2.35-1.35,2.34-3.55,0-4.89a9.3,9.3,0,0,0-8.47,0c-2.36,1.35-2.35,3.54,0,4.91"/><path class="cls-6" d="M1504.78,655.23a9.2,9.2,0,0,0,8.48,0c2.35-1.35,2.33-3.53,0-4.9a9.29,9.29,0,0,0-8.48,0c-2.35,1.35-2.34,3.53,0,4.89"/><path class="cls-6" d="M1486.63,665.72a9.43,9.43,0,0,0,8.5,0c2.34-1.35,2.33-3.56,0-4.92a9.26,9.26,0,0,0-8.48,0c-2.34,1.33-2.33,3.51,0,4.9"/><path class="cls-6" d="M1468.5,676.19a9.48,9.48,0,0,0,8.48,0c2.35-1.37,2.33-3.56,0-4.91a9.36,9.36,0,0,0-8.5,0c-2.33,1.34-2.33,3.53,0,4.9"/><path class="cls-6" d="M1450.36,686.64a9.29,9.29,0,0,0,8.48,0c2.34-1.34,2.33-3.54,0-4.9a9.32,9.32,0,0,0-8.48,0c-2.35,1.34-2.33,3.54,0,4.87"/><path class="cls-6" d="M1432.21,697.13a9.35,9.35,0,0,0,8.51,0c2.33-1.34,2.32-3.52,0-4.89a9.59,9.59,0,0,0-8.5,0c-2.33,1.37-2.33,3.56,0,4.91"/></g><g id="Holes2_kopia" data-name="Holes2 kopia"><path class="cls-7" d="M1533,1241.43a5.61,5.61,0,0,1-.68-2.86c-.06-2.47.79-5,1.93-5.62a1.07,1.07,0,0,1,1.48.51,5.73,5.73,0,0,1,.68,2.85c.06,2.49-.81,5-1.94,5.63A1.06,1.06,0,0,1,1533,1241.43Z"/><path class="cls-7" d="M1541.72,1236.54a5.63,5.63,0,0,1-.68-2.82c0-2.48.81-5,1.94-5.63a1,1,0,0,1,1.48.49,5.77,5.77,0,0,1,.68,2.86c.06,2.48-.8,5-1.94,5.61A1.06,1.06,0,0,1,1541.72,1236.54Z"/><path class="cls-7" d="M1550.5,1231.69a5.77,5.77,0,0,1-.68-2.86c0-2.49.81-5,1.94-5.62a1.05,1.05,0,0,1,1.48.51,5.55,5.55,0,0,1,.68,2.84c.06,2.47-.81,5-1.94,5.62A1,1,0,0,1,1550.5,1231.69Z"/><path class="cls-7" d="M1559.28,1226.8a5.73,5.73,0,0,1-.68-2.85c-.06-2.47.81-5,1.94-5.61a1.06,1.06,0,0,1,1.48.51,5.64,5.64,0,0,1,.68,2.83c0,2.51-.81,5-1.94,5.61A1,1,0,0,1,1559.28,1226.8Z"/><path class="cls-7" d="M1568.07,1221.91a5.76,5.76,0,0,1-.68-2.85c-.07-2.47.8-5,1.93-5.61a1.06,1.06,0,0,1,1.48.51,5.67,5.67,0,0,1,.68,2.83c.06,2.5-.81,5-1.94,5.64C1569,1222.73,1568.46,1222.51,1568.07,1221.91Z"/><path class="cls-7" d="M1576.84,1217.05a5.65,5.65,0,0,1-.68-2.84c-.05-2.5.82-5,1.94-5.64a1.06,1.06,0,0,1,1.47.51,5.55,5.55,0,0,1,.68,2.87c.07,2.46-.8,5-1.93,5.6C1577.75,1217.87,1577.23,1217.66,1576.84,1217.05Z"/><path class="cls-7" d="M1585.62,1212.17a5.71,5.71,0,0,1-.68-2.84c0-2.51.81-5,1.94-5.62a1,1,0,0,1,1.48.49,5.7,5.7,0,0,1,.68,2.85c.06,2.49-.8,5-1.94,5.63A1.06,1.06,0,0,1,1585.62,1212.17Z"/><path class="cls-7" d="M1594.4,1207.29a5.64,5.64,0,0,1-.68-2.83c-.06-2.5.81-5,2-5.64a1,1,0,0,1,1.48.48,5.66,5.66,0,0,1,.67,2.87c.06,2.48-.81,5-1.94,5.61C1595.31,1208.11,1594.79,1207.9,1594.4,1207.29Z"/><path class="cls-7" d="M1603.18,1202.41a5.68,5.68,0,0,1-.68-2.84c-.06-2.48.81-5,1.94-5.62.56-.32,1.08-.1,1.48.5a5.68,5.68,0,0,1,.68,2.84c.06,2.48-.81,5-1.93,5.62A1.06,1.06,0,0,1,1603.18,1202.41Z"/><path class="cls-7" d="M1612,1197.53a5.59,5.59,0,0,1-.67-2.84c-.06-2.48.79-5,1.94-5.64a1,1,0,0,1,1.46.5,5.64,5.64,0,0,1,.69,2.87c.06,2.47-.81,5-1.94,5.61C1612.88,1198.35,1612.35,1198.13,1612,1197.53Z"/><path class="cls-7" d="M1620.74,1192.66a5.68,5.68,0,0,1-.68-2.84c-.06-2.49.81-5,1.93-5.63a1.07,1.07,0,0,1,1.49.51,5.59,5.59,0,0,1,.68,2.83c.06,2.48-.81,5-1.94,5.63A1.06,1.06,0,0,1,1620.74,1192.66Z"/><path class="cls-7" d="M1629.53,1187.79a5.57,5.57,0,0,1-.68-2.87c-.06-2.47.8-5,1.93-5.6a1,1,0,0,1,1.48.49,5.68,5.68,0,0,1,.68,2.84c.06,2.49-.81,5-1.94,5.63A1,1,0,0,1,1629.53,1187.79Z"/><path class="cls-7" d="M1638.3,1182.92a5.79,5.79,0,0,1-.67-2.87c-.07-2.45.8-5,1.93-5.63a1.07,1.07,0,0,1,1.49.5,5.72,5.72,0,0,1,.67,2.84c.06,2.51-.81,5-1.94,5.64A1,1,0,0,1,1638.3,1182.92Z"/><path class="cls-7" d="M1532.54,1224.76a5.73,5.73,0,0,1-.68-2.85c-.07-2.48.8-5,1.93-5.61a1.06,1.06,0,0,1,1.49.5,5.65,5.65,0,0,1,.68,2.84c0,2.49-.81,5-1.94,5.63A1.07,1.07,0,0,1,1532.54,1224.76Z"/><path class="cls-7" d="M1541.31,1219.9a5.73,5.73,0,0,1-.68-2.85c-.05-2.49.81-5,1.95-5.65a1.06,1.06,0,0,1,1.48.51,5.68,5.68,0,0,1,.68,2.84c.06,2.51-.81,5-2,5.65A1.06,1.06,0,0,1,1541.31,1219.9Z"/><path class="cls-7" d="M1550.1,1215a5.54,5.54,0,0,1-.68-2.83c-.06-2.5.81-5,1.94-5.63a1.06,1.06,0,0,1,1.48.51,5.56,5.56,0,0,1,.67,2.84c.07,2.47-.8,5-1.93,5.61C1551,1215.82,1550.49,1215.6,1550.1,1215Z"/><path class="cls-7" d="M1558.88,1210.12a5.68,5.68,0,0,1-.68-2.84c-.06-2.47.81-5,1.94-5.63a1.06,1.06,0,0,1,1.48.5,5.78,5.78,0,0,1,.68,2.87c.06,2.47-.81,5-1.94,5.6C1559.79,1210.94,1559.27,1210.72,1558.88,1210.12Z"/><path class="cls-7" d="M1567.66,1205.25a5.59,5.59,0,0,1-.68-2.83c-.06-2.5.8-5,1.94-5.64a1.07,1.07,0,0,1,1.48.52,5.62,5.62,0,0,1,.68,2.81c.06,2.5-.81,5-1.94,5.65A1.06,1.06,0,0,1,1567.66,1205.25Z"/><path class="cls-7" d="M1576.44,1200.38a5.73,5.73,0,0,1-.68-2.85c-.06-2.49.81-5,1.94-5.62.56-.32,1.08-.1,1.47.5a5.67,5.67,0,0,1,.69,2.84c.06,2.48-.81,5-1.95,5.64C1577.35,1201.2,1576.83,1201,1576.44,1200.38Z"/><path class="cls-7" d="M1585.22,1195.51a5.7,5.7,0,0,1-.68-2.85c-.06-2.5.8-5,1.93-5.63a1.06,1.06,0,0,1,1.49.5,5.68,5.68,0,0,1,.68,2.84c.06,2.47-.82,5-2,5.64A1,1,0,0,1,1585.22,1195.51Z"/><path class="cls-7" d="M1594,1190.62a5.6,5.6,0,0,1-.67-2.85c-.06-2.49.81-5,1.93-5.61a1.05,1.05,0,0,1,1.49.5,5.65,5.65,0,0,1,.68,2.84c.06,2.48-.81,5-1.94,5.6A1,1,0,0,1,1594,1190.62Z"/><path class="cls-7" d="M1602.77,1185.74a5.66,5.66,0,0,1-.67-2.84c-.06-2.49.8-5,1.94-5.62a1,1,0,0,1,1.47.49,5.62,5.62,0,0,1,.68,2.87c.06,2.48-.8,5-1.93,5.59A1,1,0,0,1,1602.77,1185.74Z"/><path class="cls-7" d="M1611.56,1180.87a5.59,5.59,0,0,1-.68-2.85c-.06-2.48.81-5,1.94-5.64.56-.3,1.08-.08,1.47.52a5.72,5.72,0,0,1,.69,2.85c0,2.48-.81,5-1.94,5.62C1612.47,1181.69,1612,1181.48,1611.56,1180.87Z"/><path class="cls-7" d="M1620.34,1176a5.66,5.66,0,0,1-.68-2.86c-.06-2.46.8-5,1.93-5.6a1,1,0,0,1,1.49.49,5.68,5.68,0,0,1,.68,2.84c0,2.49-.8,5-2,5.64A1.06,1.06,0,0,1,1620.34,1176Z"/><path class="cls-7" d="M1629.12,1171.1a5.63,5.63,0,0,1-.68-2.82c-.06-2.52.81-5,1.93-5.63a1.07,1.07,0,0,1,1.49.5,5.84,5.84,0,0,1,.68,2.85c0,2.48-.81,5-2,5.62C1630,1171.92,1629.51,1171.7,1629.12,1171.1Z"/><path class="cls-7" d="M1637.9,1166.25a5.66,5.66,0,0,1-.68-2.86c0-2.48.81-5,1.94-5.63a1.06,1.06,0,0,1,1.47.51,5.62,5.62,0,0,1,.68,2.85c.07,2.46-.8,5-1.94,5.61C1638.81,1167.06,1638.29,1166.85,1637.9,1166.25Z"/><path class="cls-7" d="M1532.13,1208.09a5.64,5.64,0,0,1-.68-2.83c-.06-2.48.81-5,1.94-5.62a1,1,0,0,1,1.48.49,5.68,5.68,0,0,1,.68,2.84c0,2.49-.81,5-1.94,5.62C1533,1208.91,1532.52,1208.7,1532.13,1208.09Z"/><path class="cls-7" d="M1540.92,1203.23a5.68,5.68,0,0,1-.68-2.87c-.06-2.48.79-4.95,1.93-5.6a1.06,1.06,0,0,1,1.48.5,5.7,5.7,0,0,1,.68,2.83c.06,2.49-.81,5-1.94,5.64A1,1,0,0,1,1540.92,1203.23Z"/><path class="cls-7" d="M1549.7,1198.34a5.79,5.79,0,0,1-.69-2.85c0-2.48.81-5,1.94-5.62a1.05,1.05,0,0,1,1.48.5,5.68,5.68,0,0,1,.68,2.84c.05,2.49-.8,5-1.94,5.63C1550.61,1199.16,1550.09,1198.94,1549.7,1198.34Z"/><path class="cls-7" d="M1558.47,1193.47a5.73,5.73,0,0,1-.68-2.85c0-2.51.81-5,1.94-5.63a1,1,0,0,1,1.48.49,5.66,5.66,0,0,1,.68,2.86c.06,2.48-.81,5-1.94,5.63A1.05,1.05,0,0,1,1558.47,1193.47Z"/><path class="cls-7" d="M1567.25,1188.58a5.6,5.6,0,0,1-.67-2.85c-.07-2.47.8-5,1.93-5.61a1.06,1.06,0,0,1,1.48.51,5.64,5.64,0,0,1,.68,2.83c.06,2.49-.8,5-1.94,5.62C1568.17,1189.4,1567.64,1189.19,1567.25,1188.58Z"/><path class="cls-7" d="M1576,1183.7a5.62,5.62,0,0,1-.67-2.84c-.07-2.49.8-5,1.93-5.61a1,1,0,0,1,1.48.49,5.73,5.73,0,0,1,.68,2.85c.07,2.48-.81,5-1.93,5.6A1.05,1.05,0,0,1,1576,1183.7Z"/><path class="cls-7" d="M1584.81,1178.83a5.7,5.7,0,0,1-.68-2.85c-.05-2.47.8-5,1.95-5.63a1,1,0,0,1,1.47.5,5.87,5.87,0,0,1,.69,2.86c0,2.48-.81,5-2,5.63A1.06,1.06,0,0,1,1584.81,1178.83Z"/><path class="cls-7" d="M1593.59,1173.94a5.68,5.68,0,0,1-.68-2.84c-.05-2.48.81-5,1.94-5.6.57-.33,1.09-.11,1.48.49a5.58,5.58,0,0,1,.68,2.84c.06,2.47-.8,5-1.94,5.62C1594.51,1174.76,1594,1174.55,1593.59,1173.94Z"/><path class="cls-7" d="M1602.37,1169.08a5.7,5.7,0,0,1-.68-2.85c-.06-2.48.81-5,1.94-5.62a1.05,1.05,0,0,1,1.49.49,5.73,5.73,0,0,1,.68,2.85c0,2.49-.82,5-1.94,5.62A1.05,1.05,0,0,1,1602.37,1169.08Z"/><path class="cls-7" d="M1611.15,1164.21a5.77,5.77,0,0,1-.68-2.86c-.06-2.47.8-5,1.94-5.61a1.06,1.06,0,0,1,1.48.51,5.64,5.64,0,0,1,.68,2.83c0,2.5-.81,5-1.94,5.61A1,1,0,0,1,1611.15,1164.21Z"/><path class="cls-7" d="M1619.94,1159.32a5.77,5.77,0,0,1-.68-2.86c-.07-2.47.8-5,1.94-5.62a1.07,1.07,0,0,1,1.47.53,5.64,5.64,0,0,1,.68,2.83c.06,2.5-.81,5-1.94,5.61C1620.85,1160.13,1620.33,1159.92,1619.94,1159.32Z"/><path class="cls-7" d="M1628.71,1154.43a5.62,5.62,0,0,1-.68-2.81c-.06-2.51.81-5,1.94-5.65a1.06,1.06,0,0,1,1.48.51,5.7,5.7,0,0,1,.68,2.85c.06,2.47-.81,5-1.94,5.61A1.06,1.06,0,0,1,1628.71,1154.43Z"/><path class="cls-7" d="M1637.5,1149.55a5.69,5.69,0,0,1-.69-2.83c0-2.5.81-5,1.94-5.63a1.06,1.06,0,0,1,1.48.51,5.6,5.6,0,0,1,.67,2.85c.07,2.49-.8,5-1.94,5.62C1638.41,1150.37,1637.89,1150.15,1637.5,1149.55Z"/><path class="cls-7" d="M1531.73,1191.43a5.7,5.7,0,0,1-.68-2.85c-.07-2.48.81-5,1.93-5.62a1,1,0,0,1,1.48.49,5.65,5.65,0,0,1,.68,2.87c.07,2.46-.81,5-1.94,5.61A1,1,0,0,1,1531.73,1191.43Z"/><path class="cls-7" d="M1540.52,1186.55a5.55,5.55,0,0,1-.68-2.87c-.07-2.46.79-5,1.93-5.59a1.06,1.06,0,0,1,1.48.5,5.74,5.74,0,0,1,.68,2.82c0,2.5-.81,5-2,5.65A1,1,0,0,1,1540.52,1186.55Z"/><path class="cls-7" d="M1549.29,1181.68a5.7,5.7,0,0,1-.68-2.85c-.06-2.49.8-5,1.94-5.63.56-.31,1.08-.09,1.47.51a5.65,5.65,0,0,1,.69,2.82c0,2.51-.82,5-2,5.66C1550.2,1182.5,1549.68,1182.28,1549.29,1181.68Z"/><path class="cls-7" d="M1558.06,1176.8a5.71,5.71,0,0,1-.67-2.85c-.06-2.49.81-5,1.94-5.62a1,1,0,0,1,1.48.49,5.71,5.71,0,0,1,.67,2.85c.06,2.47-.8,5-1.94,5.63A1.06,1.06,0,0,1,1558.06,1176.8Z"/><path class="cls-7" d="M1566.84,1171.93a5.76,5.76,0,0,1-.67-2.87c-.06-2.48.81-5,1.94-5.62a1.06,1.06,0,0,1,1.48.5,5.62,5.62,0,0,1,.67,2.86c.06,2.49-.8,5-1.93,5.61A1,1,0,0,1,1566.84,1171.93Z"/><path class="cls-7" d="M1575.63,1167a5.73,5.73,0,0,1-.69-2.82c0-2.5.81-5,1.94-5.63a1.05,1.05,0,0,1,1.49.49,5.72,5.72,0,0,1,.67,2.86c.06,2.46-.8,5-1.94,5.61C1576.54,1167.85,1576,1167.63,1575.63,1167Z"/><path class="cls-7" d="M1584.41,1162.15a5.68,5.68,0,0,1-.68-2.84c-.06-2.48.8-5,1.93-5.62a1.07,1.07,0,0,1,1.48.51,5.66,5.66,0,0,1,.68,2.86c.06,2.48-.8,5-1.93,5.58A1,1,0,0,1,1584.41,1162.15Z"/><path class="cls-7" d="M1593.19,1157.29a5.7,5.7,0,0,1-.68-2.85c-.07-2.47.8-5,1.94-5.62a1.05,1.05,0,0,1,1.48.51,5.69,5.69,0,0,1,.68,2.81c.05,2.51-.81,5-1.95,5.65A1,1,0,0,1,1593.19,1157.29Z"/><path class="cls-7" d="M1602,1152.42a5.64,5.64,0,0,1-.67-2.86c-.06-2.49.8-5,1.94-5.61a1,1,0,0,1,1.48.49,5.62,5.62,0,0,1,.67,2.86c.06,2.48-.8,5-1.94,5.61A1,1,0,0,1,1602,1152.42Z"/><path class="cls-7" d="M1610.74,1147.54a5.74,5.74,0,0,1-.67-2.85c-.07-2.48.81-5,1.94-5.64a1.06,1.06,0,0,1,1.48.51,5.7,5.7,0,0,1,.68,2.85c0,2.5-.81,5-1.94,5.62A1.05,1.05,0,0,1,1610.74,1147.54Z"/><path class="cls-7" d="M1619.53,1142.65a5.71,5.71,0,0,1-.68-2.86c-.06-2.46.81-5,2-5.63.55-.3,1.07-.08,1.46.52a5.7,5.7,0,0,1,.69,2.84c.06,2.5-.82,5-1.94,5.63C1620.44,1143.47,1619.92,1143.25,1619.53,1142.65Z"/><path class="cls-7" d="M1628.31,1137.77a5.58,5.58,0,0,1-.68-2.84c-.06-2.48.81-5,1.94-5.62a1,1,0,0,1,1.47.5,5.75,5.75,0,0,1,.68,2.87c.06,2.45-.8,5-1.93,5.58A1,1,0,0,1,1628.31,1137.77Z"/><path class="cls-7" d="M1637.1,1132.88a5.67,5.67,0,0,1-.69-2.84c-.05-2.49.81-5,1.93-5.6a1.05,1.05,0,0,1,1.49.5,5.68,5.68,0,0,1,.68,2.84c.06,2.47-.81,5-2,5.63C1638,1133.7,1637.49,1133.48,1637.1,1132.88Z"/></g></g><g id="Super"><polygon class="cls-8" points="459.43 675.33 987.63 983.27 1232.61 841.82 704.42 533.88 459.43 675.33"/><polygon class="cls-9" points="987.57 1574.73 1234.1 1432.4 1234.1 840.86 987.57 983.22 987.57 1574.73"/><polygon class="cls-6" points="459.56 1266.83 987.77 1574.75 987.77 983.19 459.56 675.27 459.56 1266.83"/><polygon class="cls-4" points="987.57 1126.53 1234.1 984.2 1234.1 976.78 987.57 1119.1 987.57 1126.53"/><polygon class="cls-4" points="987.57 1172.83 1234.1 1030.48 1234.1 1023.07 987.57 1165.38 987.57 1172.83"/><polygon class="cls-4" points="987.57 1219.11 1234.1 1076.78 1234.1 1069.36 987.57 1211.68 987.57 1219.11"/><polygon class="cls-4" points="987.57 1265.39 1234.1 1123.06 1234.1 1115.64 987.57 1257.96 987.57 1265.39"/><polygon class="cls-4" points="987.57 1309.81 1234.1 1167.48 1234.1 1160.05 987.57 1302.38 987.57 1309.81"/><polygon class="cls-4" points="987.57 1354.22 1234.1 1211.89 1234.1 1204.46 987.57 1346.79 987.57 1354.22"/><path class="cls-5" d="M1006.37,1069.43c0,8.11,5.75,11.37,12.79,7.28s12.79-13.93,12.79-22-5.74-11.36-12.79-7.29-12.79,13.95-12.79,22"/><g id="Holes"><path class="cls-6" d="M1144.23,811.45a9.43,9.43,0,0,0,8.5,0c2.35-1.37,2.31-3.54,0-4.89a9.31,9.31,0,0,0-8.49,0c-2.33,1.34-2.33,3.53,0,4.9"/><path class="cls-6" d="M1126.1,821.91a9.24,9.24,0,0,0,8.47,0c2.36-1.35,2.33-3.55,0-4.91a9.41,9.41,0,0,0-8.49,0c-2.34,1.36-2.32,3.53,0,4.89"/><path class="cls-6" d="M1108,832.39a9.39,9.39,0,0,0,8.5,0c2.33-1.33,2.32-3.52,0-4.89a9.27,9.27,0,0,0-8.5,0c-2.33,1.34-2.31,3.54,0,4.89"/><path class="cls-6" d="M1089.81,842.87a9.49,9.49,0,0,0,8.5,0c2.33-1.34,2.32-3.54,0-4.89a9.36,9.36,0,0,0-8.47,0c-2.36,1.35-2.35,3.52,0,4.91"/><path class="cls-6" d="M1071.68,853.35a9.38,9.38,0,0,0,8.48,0c2.35-1.36,2.33-3.53,0-4.88a9.42,9.42,0,0,0-8.48,0c-2.34,1.35-2.34,3.53,0,4.91"/><path class="cls-6" d="M1053.52,863.79a9.39,9.39,0,0,0,8.51,0c2.34-1.35,2.32-3.54,0-4.91a9.29,9.29,0,0,0-8.48,0c-2.33,1.34-2.32,3.54,0,4.88"/><path class="cls-6" d="M1035.39,874.28a9.29,9.29,0,0,0,8.48,0c2.36-1.34,2.35-3.52,0-4.9a9.45,9.45,0,0,0-8.51,0c-2.33,1.37-2.33,3.55,0,4.91"/><path class="cls-6" d="M1017.25,884.76a9.25,9.25,0,0,0,8.49,0c2.35-1.34,2.34-3.54,0-4.91a9.32,9.32,0,0,0-8.48,0c-2.34,1.35-2.32,3.53,0,4.9"/><path class="cls-6" d="M999.1,895.23a9.42,9.42,0,0,0,8.51,0c2.34-1.35,2.32-3.54,0-4.9a9.39,9.39,0,0,0-8.51,0c-2.32,1.34-2.32,3.53,0,4.89"/><path class="cls-6" d="M981,905.69a9.33,9.33,0,0,0,8.47,0c2.36-1.39,2.34-3.56,0-4.93a9.32,9.32,0,0,0-8.48,0c-2.34,1.33-2.33,3.54,0,4.88"/><path class="cls-6" d="M962.83,916.18a9.38,9.38,0,0,0,8.51,0c2.31-1.35,2.31-3.53-.05-4.89a9.38,9.38,0,0,0-8.48,0c-2.33,1.35-2.33,3.55,0,4.91"/><path class="cls-6" d="M944.7,926.65a9.29,9.29,0,0,0,8.48,0c2.35-1.35,2.32-3.53,0-4.89a9.37,9.37,0,0,0-8.49,0c-2.34,1.36-2.34,3.55,0,4.91"/><path class="cls-6" d="M926.56,937.13a9.31,9.31,0,0,0,8.49,0c2.33-1.36,2.32-3.56,0-4.89a9.2,9.2,0,0,0-8.48,0c-2.35,1.33-2.33,3.52,0,4.9"/><path class="cls-6" d="M1160.06,820.58a9.31,9.31,0,0,0,8.49,0c2.34-1.36,2.33-3.54,0-4.89a9.4,9.4,0,0,0-8.5,0c-2.36,1.35-2.33,3.55,0,4.91"/><path class="cls-6" d="M1141.93,831.06a9.35,9.35,0,0,0,8.48,0c2.34-1.36,2.32-3.54,0-4.91a9.32,9.32,0,0,0-8.48,0c-2.36,1.37-2.35,3.54,0,4.92"/><path class="cls-6" d="M1123.78,841.53a9.33,9.33,0,0,0,8.47,0c2.35-1.35,2.35-3.53,0-4.9a9.35,9.35,0,0,0-8.48,0c-2.34,1.35-2.33,3.54,0,4.9"/><path class="cls-6" d="M1105.62,852a9.35,9.35,0,0,0,8.51,0c2.35-1.34,2.32-3.55,0-4.91a9.32,9.32,0,0,0-8.48,0c-2.35,1.33-2.33,3.53,0,4.88"/><path class="cls-6" d="M1087.5,862.48a9.38,9.38,0,0,0,8.48,0c2.34-1.35,2.33-3.53,0-4.9a9.44,9.44,0,0,0-8.49,0c-2.33,1.35-2.32,3.55,0,4.91"/><path class="cls-6" d="M1069.36,873a9.35,9.35,0,0,0,8.48,0c2.34-1.35,2.32-3.53,0-4.9a9.37,9.37,0,0,0-8.49,0c-2.33,1.36-2.33,3.56,0,4.92"/><path class="cls-6" d="M1051.21,883.43a9.36,9.36,0,0,0,8.5,0c2.33-1.35,2.32-3.52,0-4.9a9.34,9.34,0,0,0-8.49,0c-2.33,1.35-2.33,3.56,0,4.92"/><path class="cls-6" d="M1033.07,893.89a9.32,9.32,0,0,0,8.51,0c2.32-1.33,2.32-3.51,0-4.88a9.24,9.24,0,0,0-8.5,0c-2.35,1.33-2.35,3.53,0,4.88"/><path class="cls-6" d="M1014.94,904.35a9.23,9.23,0,0,0,8.48,0c2.35-1.35,2.34-3.54,0-4.91a9.32,9.32,0,0,0-8.48,0c-2.35,1.34-2.33,3.52,0,4.88"/><path class="cls-6" d="M996.78,914.83a9.48,9.48,0,0,0,8.51,0c2.34-1.35,2.33-3.55,0-4.9a9.32,9.32,0,0,0-8.51,0c-2.31,1.35-2.31,3.54,0,4.89"/><path class="cls-6" d="M978.65,925.31a9.34,9.34,0,0,0,8.49,0c2.34-1.34,2.31-3.53,0-4.89a9.4,9.4,0,0,0-8.49,0c-2.34,1.37-2.32,3.54,0,4.91"/><path class="cls-6" d="M960.51,935.78a9.37,9.37,0,0,0,8.49,0c2.34-1.34,2.34-3.52,0-4.91a9.51,9.51,0,0,0-8.48,0c-2.33,1.37-2.33,3.54,0,4.9"/><path class="cls-6" d="M942.38,946.26a9.38,9.38,0,0,0,8.48,0c2.35-1.35,2.32-3.54,0-4.91a9.3,9.3,0,0,0-8.47,0c-2.35,1.35-2.33,3.55,0,4.91"/><path class="cls-6" d="M1175.87,829.71a9.37,9.37,0,0,0,8.49,0c2.34-1.36,2.32-3.54,0-4.9a9.32,9.32,0,0,0-8.48,0c-2.34,1.34-2.32,3.52,0,4.89"/><path class="cls-6" d="M1157.73,840.19a9.43,9.43,0,0,0,8.5,0c2.32-1.36,2.32-3.52,0-4.88a9.33,9.33,0,0,0-8.5,0c-2.32,1.36-2.32,3.55,0,4.91"/><path class="cls-6" d="M1139.61,850.66a9.36,9.36,0,0,0,8.47,0c2.35-1.35,2.33-3.54,0-4.91a9.38,9.38,0,0,0-8.48,0c-2.36,1.36-2.33,3.54,0,4.91"/><path class="cls-6" d="M1121.46,861.13a9.25,9.25,0,0,0,8.49,0c2.33-1.34,2.33-3.51,0-4.9a9.39,9.39,0,0,0-8.5,0c-2.34,1.35-2.32,3.55,0,4.9"/><path class="cls-6" d="M1103.32,871.61a9.42,9.42,0,0,0,8.48,0c2.35-1.36,2.33-3.54,0-4.9a9.35,9.35,0,0,0-8.48,0c-2.35,1.35-2.33,3.53,0,4.9"/><path class="cls-6" d="M1085.17,882.08a9.37,9.37,0,0,0,8.49,0c2.34-1.36,2.34-3.53,0-4.9a9.36,9.36,0,0,0-8.5,0c-2.33,1.34-2.33,3.54,0,4.89"/><path class="cls-6" d="M1067,892.56a9.43,9.43,0,0,0,8.5,0c2.35-1.37,2.32-3.55,0-4.91a9.43,9.43,0,0,0-8.5,0c-2.33,1.36-2.32,3.54,0,4.91"/><path class="cls-6" d="M1048.89,903a9.34,9.34,0,0,0,8.49,0c2.34-1.35,2.33-3.53,0-4.89a9.39,9.39,0,0,0-8.5,0c-2.34,1.34-2.31,3.55,0,4.9"/><path class="cls-6" d="M1030.75,913.51a9.36,9.36,0,0,0,8.5,0c2.33-1.34,2.33-3.54,0-4.9a9.28,9.28,0,0,0-8.49,0c-2.34,1.33-2.32,3.52,0,4.9"/><path class="cls-6" d="M1012.62,924a9.44,9.44,0,0,0,8.49,0c2.34-1.35,2.31-3.54,0-4.9a9.28,9.28,0,0,0-8.49,0c-2.33,1.34-2.32,3.51,0,4.89"/><path class="cls-6" d="M994.47,934.45a9.55,9.55,0,0,0,8.5,0c2.34-1.36,2.33-3.56,0-4.9a9.32,9.32,0,0,0-8.48,0c-2.36,1.33-2.34,3.52,0,4.9"/><path class="cls-6" d="M976.33,944.92a9.37,9.37,0,0,0,8.49,0c2.35-1.35,2.34-3.53,0-4.91a9.45,9.45,0,0,0-8.48,0c-2.34,1.35-2.31,3.53,0,4.9"/><path class="cls-6" d="M958.2,955.38a9.35,9.35,0,0,0,8.48,0c2.35-1.34,2.32-3.53,0-4.91a9.51,9.51,0,0,0-8.48,0c-2.35,1.35-2.35,3.55,0,4.9"/><path class="cls-6" d="M1191.69,838.83a9.27,9.27,0,0,0,8.5,0c2.34-1.34,2.33-3.55,0-4.89a9.32,9.32,0,0,0-8.48,0c-2.34,1.34-2.34,3.55,0,4.88"/><path class="cls-6" d="M1173.56,849.33a9.38,9.38,0,0,0,8.48,0c2.34-1.35,2.34-3.53,0-4.87a9.29,9.29,0,0,0-8.48-.05c-2.35,1.36-2.32,3.55,0,4.92"/><path class="cls-6" d="M1155.41,859.8a9.49,9.49,0,0,0,8.5,0c2.34-1.34,2.32-3.53,0-4.89a9.4,9.4,0,0,0-8.5,0c-2.32,1.36-2.32,3.55,0,4.92"/><path class="cls-6" d="M1137.28,870.26a9.24,9.24,0,0,0,8.47,0c2.36-1.34,2.33-3.53,0-4.9a9.32,9.32,0,0,0-8.48,0c-2.35,1.36-2.32,3.56,0,4.9"/><path class="cls-6" d="M1119.13,880.73a9.24,9.24,0,0,0,8.5,0c2.33-1.34,2.32-3.53,0-4.89a9.27,9.27,0,0,0-8.5,0c-2.33,1.34-2.33,3.52,0,4.88"/><path class="cls-6" d="M1101,891.21a9.29,9.29,0,0,0,8.48,0c2.35-1.34,2.32-3.53,0-4.91a9.47,9.47,0,0,0-8.49,0c-2.34,1.36-2.32,3.55,0,4.9"/><path class="cls-6" d="M1082.85,901.68a9.36,9.36,0,0,0,8.5,0c2.33-1.37,2.33-3.54,0-4.9a9.36,9.36,0,0,0-8.5,0c-2.35,1.34-2.34,3.51,0,4.88"/><path class="cls-6" d="M1064.72,912.17a9.43,9.43,0,0,0,8.47,0c2.36-1.35,2.34-3.55,0-4.89a9.3,9.3,0,0,0-8.47,0c-2.36,1.35-2.35,3.54,0,4.91"/><path class="cls-6" d="M1046.58,922.63a9.23,9.23,0,0,0,8.48,0c2.35-1.35,2.33-3.53,0-4.89a9.26,9.26,0,0,0-8.48,0c-2.34,1.35-2.33,3.53,0,4.9"/><path class="cls-6" d="M1028.43,933.11a9.41,9.41,0,0,0,8.49,0c2.35-1.35,2.34-3.56,0-4.92a9.26,9.26,0,0,0-8.48,0c-2.34,1.34-2.34,3.51,0,4.9"/><path class="cls-6" d="M1010.29,943.58a9.5,9.5,0,0,0,8.49,0c2.35-1.37,2.33-3.56,0-4.91a9.34,9.34,0,0,0-8.49,0c-2.33,1.34-2.33,3.53,0,4.9"/><path class="cls-6" d="M992.15,954a9.32,9.32,0,0,0,8.48,0c2.34-1.35,2.34-3.55,0-4.91a9.32,9.32,0,0,0-8.48,0c-2.34,1.34-2.32,3.54,0,4.87"/><path class="cls-6" d="M974,964.52a9.35,9.35,0,0,0,8.51,0c2.32-1.34,2.32-3.52,0-4.89a9.59,9.59,0,0,0-8.5,0c-2.34,1.38-2.34,3.56,0,4.91"/></g><g id="Holes2"><path class="cls-7" d="M1074.74,1508.82a5.62,5.62,0,0,1-.67-2.86c-.06-2.47.79-5,1.93-5.62a1.07,1.07,0,0,1,1.48.51,5.73,5.73,0,0,1,.68,2.85c0,2.49-.81,5-1.94,5.63A1.07,1.07,0,0,1,1074.74,1508.82Z"/><path class="cls-7" d="M1083.52,1503.93a5.63,5.63,0,0,1-.68-2.82c-.06-2.48.81-5,1.94-5.63a1.06,1.06,0,0,1,1.48.5,5.6,5.6,0,0,1,.67,2.85c.06,2.47-.8,5-1.93,5.61A1.06,1.06,0,0,1,1083.52,1503.93Z"/><path class="cls-7" d="M1092.3,1499.08a5.77,5.77,0,0,1-.68-2.86c0-2.49.81-5,1.94-5.62a1.05,1.05,0,0,1,1.48.51,5.65,5.65,0,0,1,.68,2.84c.06,2.47-.81,5-1.94,5.62A1,1,0,0,1,1092.3,1499.08Z"/><path class="cls-7" d="M1101.08,1494.19a5.7,5.7,0,0,1-.68-2.85c-.06-2.47.81-5,1.93-5.61a1.06,1.06,0,0,1,1.48.51,5.63,5.63,0,0,1,.69,2.83c0,2.51-.81,5-2,5.61C1102,1495,1101.47,1494.79,1101.08,1494.19Z"/><path class="cls-7" d="M1109.87,1489.3a5.76,5.76,0,0,1-.68-2.85c-.07-2.46.79-5,1.93-5.6.56-.32,1.09-.1,1.48.5a5.7,5.7,0,0,1,.68,2.83c.06,2.5-.81,5-1.94,5.63A1.06,1.06,0,0,1,1109.87,1489.3Z"/><path class="cls-7" d="M1118.64,1484.45a5.73,5.73,0,0,1-.68-2.85c-.06-2.5.81-5,1.94-5.64a1.06,1.06,0,0,1,1.47.51,5.78,5.78,0,0,1,.68,2.87c.07,2.46-.8,5-1.93,5.6A1,1,0,0,1,1118.64,1484.45Z"/><path class="cls-7" d="M1127.42,1479.56a5.71,5.71,0,0,1-.68-2.84c-.06-2.51.81-5,1.94-5.62a1,1,0,0,1,1.48.49,5.7,5.7,0,0,1,.68,2.85c.06,2.49-.81,5-1.94,5.63A1.06,1.06,0,0,1,1127.42,1479.56Z"/><path class="cls-7" d="M1136.19,1474.68a5.65,5.65,0,0,1-.67-2.83c-.06-2.5.81-5,1.94-5.64a1,1,0,0,1,1.48.48,5.68,5.68,0,0,1,.68,2.87c.05,2.48-.81,5-1.94,5.61C1137.11,1475.5,1136.59,1475.29,1136.19,1474.68Z"/><path class="cls-7" d="M1145,1469.8a5.58,5.58,0,0,1-.68-2.84c-.06-2.48.81-5,1.93-5.62.57-.32,1.09-.1,1.48.5a5.6,5.6,0,0,1,.69,2.84c.06,2.49-.81,5-1.93,5.62A1.06,1.06,0,0,1,1145,1469.8Z"/><path class="cls-7" d="M1153.76,1464.92a5.68,5.68,0,0,1-.68-2.84c-.06-2.48.8-5,2-5.64.56-.31,1.07-.1,1.46.5a5.68,5.68,0,0,1,.68,2.87c.07,2.47-.81,5-1.93,5.61C1154.67,1465.74,1154.15,1465.52,1153.76,1464.92Z"/><path class="cls-7" d="M1162.54,1460.05a5.68,5.68,0,0,1-.68-2.84c-.06-2.49.81-5,1.93-5.63a1.07,1.07,0,0,1,1.49.51,5.66,5.66,0,0,1,.68,2.82c.06,2.49-.81,5-1.94,5.64A1.05,1.05,0,0,1,1162.54,1460.05Z"/><path class="cls-7" d="M1171.32,1455.18a5.78,5.78,0,0,1-.68-2.87c-.06-2.47.8-5,1.94-5.6a1,1,0,0,1,1.48.49,5.68,5.68,0,0,1,.68,2.84c.06,2.49-.81,5-2,5.64A1,1,0,0,1,1171.32,1455.18Z"/><path class="cls-7" d="M1180.1,1450.3a5.64,5.64,0,0,1-.67-2.86c-.08-2.45.8-5,1.93-5.63a1.05,1.05,0,0,1,1.48.5,5.71,5.71,0,0,1,.68,2.84c0,2.51-.81,5-1.94,5.64A1,1,0,0,1,1180.1,1450.3Z"/><path class="cls-7" d="M1074.34,1492.15a5.61,5.61,0,0,1-.69-2.85c-.06-2.48.8-5,1.94-5.62a1.05,1.05,0,0,1,1.48.51,5.55,5.55,0,0,1,.68,2.84c.06,2.49-.8,5-1.94,5.63A1.06,1.06,0,0,1,1074.34,1492.15Z"/><path class="cls-7" d="M1083.11,1487.29a5.73,5.73,0,0,1-.68-2.85c-.06-2.49.81-5,1.94-5.65a1.05,1.05,0,0,1,1.48.51,5.58,5.58,0,0,1,.68,2.84c.06,2.51-.8,5-2,5.65A1,1,0,0,1,1083.11,1487.29Z"/><path class="cls-7" d="M1091.89,1482.39a5.65,5.65,0,0,1-.67-2.83c-.06-2.5.8-5,1.94-5.62.56-.32,1.08-.1,1.47.5a5.65,5.65,0,0,1,.68,2.84c.06,2.47-.8,5-1.94,5.61C1092.81,1483.21,1092.28,1483,1091.89,1482.39Z"/><path class="cls-7" d="M1100.67,1477.51a5.69,5.69,0,0,1-.67-2.84c-.06-2.47.8-5,1.94-5.63a1,1,0,0,1,1.47.5,5.75,5.75,0,0,1,.68,2.87c.06,2.47-.81,5-1.93,5.6C1101.59,1478.33,1101.07,1478.11,1100.67,1477.51Z"/><path class="cls-7" d="M1109.45,1472.64a5.7,5.7,0,0,1-.68-2.83c0-2.5.81-5,2-5.64.56-.3,1.08-.09,1.47.52a5.61,5.61,0,0,1,.69,2.81c0,2.5-.82,5-1.94,5.65A1.07,1.07,0,0,1,1109.45,1472.64Z"/><path class="cls-7" d="M1118.24,1467.77a5.58,5.58,0,0,1-.69-2.85c0-2.49.81-5,2-5.62.56-.32,1.08-.1,1.47.5a5.65,5.65,0,0,1,.68,2.84c.06,2.48-.81,5-1.94,5.64C1119.15,1468.59,1118.63,1468.37,1118.24,1467.77Z"/><path class="cls-7" d="M1127,1462.9a5.74,5.74,0,0,1-.68-2.86c-.06-2.49.8-5,1.93-5.62a1.06,1.06,0,0,1,1.49.5,5.68,5.68,0,0,1,.68,2.84c.06,2.47-.82,5-2,5.64A1,1,0,0,1,1127,1462.9Z"/><path class="cls-7" d="M1135.79,1458a5.7,5.7,0,0,1-.68-2.85c0-2.49.81-5,1.94-5.61a1.05,1.05,0,0,1,1.49.5,5.59,5.59,0,0,1,.67,2.84c.07,2.48-.8,5-1.93,5.6A1,1,0,0,1,1135.79,1458Z"/><path class="cls-7" d="M1144.57,1453.14a5.74,5.74,0,0,1-.67-2.85c-.07-2.49.8-5,1.93-5.62a1,1,0,0,1,1.48.49,5.56,5.56,0,0,1,.67,2.87c.07,2.48-.79,5-1.92,5.59A1,1,0,0,1,1144.57,1453.14Z"/><path class="cls-7" d="M1153.35,1448.27a5.67,5.67,0,0,1-.67-2.86c-.07-2.48.8-5,1.94-5.63.56-.31,1.08-.09,1.47.51a5.77,5.77,0,0,1,.68,2.86c.06,2.46-.81,5-1.93,5.61A1.05,1.05,0,0,1,1153.35,1448.27Z"/><path class="cls-7" d="M1162.13,1443.39a5.63,5.63,0,0,1-.67-2.85c-.06-2.48.8-5,1.93-5.61a1,1,0,0,1,1.48.49,5.58,5.58,0,0,1,.68,2.84c.06,2.49-.8,5-1.94,5.64A1.07,1.07,0,0,1,1162.13,1443.39Z"/><path class="cls-7" d="M1170.92,1438.49a5.5,5.5,0,0,1-.69-2.81c0-2.52.81-5,1.94-5.64a1.05,1.05,0,0,1,1.48.5,5.73,5.73,0,0,1,.68,2.85c.06,2.48-.8,5-1.94,5.62C1171.83,1439.31,1171.31,1439.09,1170.92,1438.49Z"/><path class="cls-7" d="M1179.69,1433.64a5.77,5.77,0,0,1-.68-2.86c0-2.48.82-5,2-5.63.56-.31,1.08-.09,1.47.51a5.71,5.71,0,0,1,.68,2.84c.06,2.47-.81,5-1.94,5.63A1,1,0,0,1,1179.69,1433.64Z"/><path class="cls-7" d="M1073.92,1475.48a5.65,5.65,0,0,1-.67-2.83c-.06-2.48.8-5,1.94-5.62a1,1,0,0,1,1.48.49,5.7,5.7,0,0,1,.68,2.85c.05,2.48-.81,5-1.94,5.6A1,1,0,0,1,1073.92,1475.48Z"/><path class="cls-7" d="M1082.71,1470.62a5.78,5.78,0,0,1-.68-2.87c-.06-2.48.8-5,1.93-5.6.57-.32,1.09-.1,1.49.5a5.7,5.7,0,0,1,.68,2.83c0,2.49-.81,5-1.94,5.64A1.05,1.05,0,0,1,1082.71,1470.62Z"/><path class="cls-7" d="M1091.49,1465.73a5.7,5.7,0,0,1-.68-2.85c-.06-2.48.8-5,1.94-5.62.56-.32,1.09-.1,1.48.5a5.59,5.59,0,0,1,.67,2.84c.06,2.49-.8,5-1.94,5.63A1,1,0,0,1,1091.49,1465.73Z"/><path class="cls-7" d="M1100.27,1460.86a5.62,5.62,0,0,1-.68-2.85c-.06-2.51.81-5,1.94-5.63a1,1,0,0,1,1.48.49,5.67,5.67,0,0,1,.67,2.86c.07,2.48-.8,5-1.93,5.63A1.05,1.05,0,0,1,1100.27,1460.86Z"/><path class="cls-7" d="M1109.05,1456a5.7,5.7,0,0,1-.68-2.85c-.06-2.47.8-5,1.94-5.61.56-.31,1.08-.09,1.47.51a5.62,5.62,0,0,1,.69,2.82c0,2.5-.81,5-1.94,5.63C1110,1456.79,1109.44,1456.57,1109.05,1456Z"/><path class="cls-7" d="M1117.83,1451.09a5.71,5.71,0,0,1-.68-2.84c-.06-2.49.8-5,1.94-5.61a1,1,0,0,1,1.48.49,5.68,5.68,0,0,1,.68,2.84c.06,2.48-.81,5-1.93,5.61A1.05,1.05,0,0,1,1117.83,1451.09Z"/><path class="cls-7" d="M1126.61,1446.22a5.73,5.73,0,0,1-.68-2.85c-.06-2.47.8-5,1.94-5.63a1.05,1.05,0,0,1,1.48.5,5.73,5.73,0,0,1,.68,2.85c.06,2.48-.81,5-1.94,5.64A1.06,1.06,0,0,1,1126.61,1446.22Z"/><path class="cls-7" d="M1135.39,1441.33a5.68,5.68,0,0,1-.68-2.84c-.06-2.48.8-5,1.93-5.61a1.05,1.05,0,0,1,1.49.5,5.68,5.68,0,0,1,.68,2.84c.06,2.47-.81,5-1.94,5.62A1.05,1.05,0,0,1,1135.39,1441.33Z"/><path class="cls-7" d="M1144.16,1436.47a5.71,5.71,0,0,1-.67-2.85c-.06-2.48.81-5,1.94-5.62a1.06,1.06,0,0,1,1.49.49,5.71,5.71,0,0,1,.67,2.85c.05,2.49-.81,5-1.94,5.62A1.05,1.05,0,0,1,1144.16,1436.47Z"/><path class="cls-7" d="M1153,1431.6a5.66,5.66,0,0,1-.68-2.86c-.06-2.47.8-5,1.94-5.61.56-.31,1.08-.09,1.47.51a5.64,5.64,0,0,1,.68,2.83c.05,2.5-.8,5-1.93,5.61A1,1,0,0,1,1153,1431.6Z"/><path class="cls-7" d="M1161.74,1426.71a5.53,5.53,0,0,1-.68-2.86c-.07-2.47.8-5,1.93-5.62.56-.3,1.08-.07,1.47.53a5.73,5.73,0,0,1,.69,2.82c0,2.51-.81,5-1.94,5.62A1,1,0,0,1,1161.74,1426.71Z"/><path class="cls-7" d="M1170.51,1421.82a5.62,5.62,0,0,1-.68-2.81c-.06-2.51.81-5,1.94-5.65a1.05,1.05,0,0,1,1.48.51,5.68,5.68,0,0,1,.68,2.84c0,2.48-.81,5-1.94,5.63A1.07,1.07,0,0,1,1170.51,1421.82Z"/><path class="cls-7" d="M1179.3,1416.94a5.59,5.59,0,0,1-.69-2.83c0-2.5.81-5,1.94-5.63.56-.31,1.08-.09,1.47.51a5.59,5.59,0,0,1,.68,2.85c.07,2.48-.8,5-1.94,5.62C1180.21,1417.76,1179.69,1417.54,1179.3,1416.94Z"/><path class="cls-7" d="M1073.53,1458.82a5.59,5.59,0,0,1-.68-2.85c-.07-2.48.8-5,1.93-5.63a1,1,0,0,1,1.48.49,5.61,5.61,0,0,1,.67,2.89c.08,2.45-.8,5-1.93,5.6A1,1,0,0,1,1073.53,1458.82Z"/><path class="cls-7" d="M1082.31,1453.94a5.75,5.75,0,0,1-.68-2.87c-.07-2.47.8-5,1.93-5.59a1.05,1.05,0,0,1,1.48.5,5.63,5.63,0,0,1,.68,2.82c.06,2.5-.8,5-1.94,5.65A1.06,1.06,0,0,1,1082.31,1453.94Z"/><path class="cls-7" d="M1091.08,1449.07a5.7,5.7,0,0,1-.68-2.85c-.06-2.49.81-5,1.94-5.63a1.06,1.06,0,0,1,1.48.51,5.77,5.77,0,0,1,.69,2.83c0,2.5-.82,5-2,5.65A1.06,1.06,0,0,1,1091.08,1449.07Z"/><path class="cls-7" d="M1099.86,1444.19a5.7,5.7,0,0,1-.68-2.85c0-2.49.81-5,1.94-5.62a1,1,0,0,1,1.48.49,5.7,5.7,0,0,1,.68,2.85c.06,2.47-.8,5-1.94,5.64A1.07,1.07,0,0,1,1099.86,1444.19Z"/><path class="cls-7" d="M1108.64,1439.31a5.62,5.62,0,0,1-.67-2.86c-.06-2.48.8-5,1.93-5.62a1.05,1.05,0,0,1,1.48.5,5.61,5.61,0,0,1,.68,2.86c.06,2.49-.8,5-1.93,5.61A1,1,0,0,1,1108.64,1439.31Z"/><path class="cls-7" d="M1117.42,1434.42a5.63,5.63,0,0,1-.68-2.82c0-2.5.81-5,1.94-5.64a1.05,1.05,0,0,1,1.48.5,5.59,5.59,0,0,1,.68,2.85c.06,2.46-.81,5-1.94,5.62A1.06,1.06,0,0,1,1117.42,1434.42Z"/><path class="cls-7" d="M1126.2,1429.54a5.71,5.71,0,0,1-.68-2.84c-.06-2.48.8-5,1.94-5.62a1.07,1.07,0,0,1,1.48.51,5.73,5.73,0,0,1,.68,2.85c.06,2.49-.8,5-1.93,5.59A1.05,1.05,0,0,1,1126.2,1429.54Z"/><path class="cls-7" d="M1135,1424.68a5.67,5.67,0,0,1-.67-2.86c-.07-2.47.8-5,1.94-5.61.56-.31,1.08-.1,1.47.51a5.68,5.68,0,0,1,.69,2.81c0,2.51-.82,5-2,5.64A1,1,0,0,1,1135,1424.68Z"/><path class="cls-7" d="M1143.76,1419.81a5.77,5.77,0,0,1-.68-2.86c0-2.49.81-5,1.94-5.61.57-.33,1.09-.12,1.49.48a5.79,5.79,0,0,1,.67,2.87c.06,2.47-.8,5-1.94,5.61A1,1,0,0,1,1143.76,1419.81Z"/><path class="cls-7" d="M1152.54,1414.93a5.63,5.63,0,0,1-.67-2.85c-.07-2.48.8-5,1.94-5.64.56-.31,1.08-.09,1.47.51a5.7,5.7,0,0,1,.68,2.85c0,2.51-.81,5-1.94,5.62A1,1,0,0,1,1152.54,1414.93Z"/><path class="cls-7" d="M1161.33,1410a5.56,5.56,0,0,1-.68-2.86c-.06-2.46.8-5,1.94-5.63.56-.3,1.08-.08,1.47.52a5.71,5.71,0,0,1,.68,2.84c.06,2.5-.81,5-1.94,5.63A1,1,0,0,1,1161.33,1410Z"/><path class="cls-7" d="M1170.1,1405.16a5.59,5.59,0,0,1-.67-2.84c-.06-2.48.8-5,1.93-5.62a1,1,0,0,1,1.47.49,5.62,5.62,0,0,1,.68,2.88c.07,2.45-.79,5-1.92,5.58A1.05,1.05,0,0,1,1170.1,1405.16Z"/><path class="cls-7" d="M1178.9,1400.27a5.61,5.61,0,0,1-.69-2.85c-.06-2.48.8-5,1.93-5.59a1,1,0,0,1,1.48.49,5.65,5.65,0,0,1,.68,2.85c.07,2.47-.8,5-1.94,5.63A1.06,1.06,0,0,1,1178.9,1400.27Z"/></g></g><g id="Basic"><polygon class="cls-8" points="230.6 1078.86 578.86 1281.86 793.12 1158.15 444.86 955.15 230.6 1078.86"/><polygon class="cls-9" points="578.81 1799.13 794.42 1674.65 794.42 1157.32 578.81 1281.82 578.81 1799.13"/><polygon class="cls-6" points="230.72 1596.16 578.99 1799.14 578.99 1281.79 230.72 1078.81 230.72 1596.16"/><polygon class="cls-4" points="578.81 1407.15 794.42 1282.67 794.42 1276.18 578.81 1400.65 578.81 1407.15"/><polygon class="cls-4" points="578.81 1466.58 794.42 1342.1 794.42 1335.61 578.81 1460.08 578.81 1466.58"/><polygon class="cls-4" points="578.81 1526.01 794.42 1401.53 794.42 1395.04 578.81 1519.51 578.81 1526.01"/><polygon class="cls-4" points="578.81 1585.43 794.42 1460.96 794.42 1454.46 578.81 1578.94 578.81 1585.43"/><path class="cls-5" d="M595.25,1357.21c0,7.1,5,9.94,11.19,6.37s11.19-12.18,11.19-19.26-5-9.94-11.19-6.38-11.19,12.2-11.19,19.27"/><g id="Holes-2" data-name="Holes"><path class="cls-6" d="M715.82,1131.59a8.26,8.26,0,0,0,7.44,0c2-1.2,2-3.1,0-4.28a8.15,8.15,0,0,0-7.43,0c-2,1.18-2,3.09,0,4.29"/><path class="cls-6" d="M700,1140.74a8.14,8.14,0,0,0,7.41,0c2.06-1.18,2-3.11,0-4.3a8.3,8.3,0,0,0-7.43,0c-2.05,1.19-2,3.09,0,4.28"/><path class="cls-6" d="M684.09,1149.91a8.2,8.2,0,0,0,7.44,0c2-1.16,2-3.07,0-4.27a8.12,8.12,0,0,0-7.43,0c-2,1.18-2,3.1,0,4.29"/><path class="cls-6" d="M668.23,1159.07a8.24,8.24,0,0,0,7.43,0c2-1.17,2-3.09,0-4.28a8.17,8.17,0,0,0-7.41,0c-2.06,1.18-2.06,3.08,0,4.29"/><path class="cls-6" d="M652.37,1168.23a8.22,8.22,0,0,0,7.42,0c2.05-1.18,2-3.09,0-4.26a8.23,8.23,0,0,0-7.41,0c-2.05,1.19-2.05,3.09,0,4.29"/><path class="cls-6" d="M636.5,1177.37a8.21,8.21,0,0,0,7.43,0c2.05-1.18,2-3.09,0-4.29a8.11,8.11,0,0,0-7.41,0c-2,1.17-2,3.1,0,4.27"/><path class="cls-6" d="M620.64,1186.54a8.13,8.13,0,0,0,7.42,0c2.06-1.17,2.05-3.08,0-4.29a8.29,8.29,0,0,0-7.44,0c-2,1.2-2,3.1,0,4.29"/><path class="cls-6" d="M604.77,1195.71a8.07,8.07,0,0,0,7.42,0c2.06-1.18,2-3.1,0-4.3a8.14,8.14,0,0,0-7.41,0c-2,1.18-2,3.09,0,4.29"/><path class="cls-6" d="M588.9,1204.87a8.26,8.26,0,0,0,7.44,0c2-1.18,2-3.09,0-4.29a8.2,8.2,0,0,0-7.44,0c-2,1.18-2,3.1,0,4.29"/><path class="cls-6" d="M573.05,1214a8.14,8.14,0,0,0,7.41,0c2.06-1.21,2-3.11,0-4.3a8.11,8.11,0,0,0-7.41,0c-2,1.16-2,3.1,0,4.27"/><path class="cls-6" d="M557.18,1223.19a8.26,8.26,0,0,0,7.44,0c2-1.19,2-3.09,0-4.28a8.22,8.22,0,0,0-7.42,0c-2,1.18-2,3.11,0,4.3"/><path class="cls-6" d="M541.33,1232.34a8.09,8.09,0,0,0,7.4,0c2.07-1.18,2-3.09,0-4.28a8.16,8.16,0,0,0-7.42,0c-2,1.18-2,3.1,0,4.29"/><path class="cls-6" d="M525.46,1241.51a8.19,8.19,0,0,0,7.42,0c2-1.19,2-3.12,0-4.28a8.1,8.1,0,0,0-7.42,0c-2,1.17-2,3.08,0,4.29"/><path class="cls-6" d="M729.66,1139.58a8.21,8.21,0,0,0,7.43,0c2-1.19,2-3.1,0-4.28a8.18,8.18,0,0,0-7.43,0c-2.06,1.17-2,3.09,0,4.29"/><path class="cls-6" d="M713.81,1148.74a8.19,8.19,0,0,0,7.42,0c2-1.19,2-3.1,0-4.3a8.19,8.19,0,0,0-7.42,0c-2.06,1.2-2,3.1,0,4.3"/><path class="cls-6" d="M697.94,1157.9a8.17,8.17,0,0,0,7.41,0c2-1.18,2-3.09,0-4.29a8.19,8.19,0,0,0-7.42,0c-2,1.18-2,3.1,0,4.29"/><path class="cls-6" d="M682.06,1167.05a8.23,8.23,0,0,0,7.44,0c2-1.18,2-3.11,0-4.3a8.18,8.18,0,0,0-7.43,0c-2,1.16-2,3.09,0,4.27"/><path class="cls-6" d="M666.21,1176.22a8.22,8.22,0,0,0,7.42,0c2-1.18,2-3.09,0-4.28a8.21,8.21,0,0,0-7.43,0c-2,1.18-2,3.1,0,4.29"/><path class="cls-6" d="M650.34,1185.38a8.22,8.22,0,0,0,7.42,0c2-1.17,2-3.09,0-4.28a8.24,8.24,0,0,0-7.43,0c-2,1.18-2,3.11,0,4.3"/><path class="cls-6" d="M634.47,1194.54a8.18,8.18,0,0,0,7.43,0c2-1.18,2-3.08,0-4.28a8.18,8.18,0,0,0-7.43,0c-2,1.18-2,3.11,0,4.3"/><path class="cls-6" d="M618.61,1203.69a8.14,8.14,0,0,0,7.44,0c2-1.16,2-3.07,0-4.27a8.12,8.12,0,0,0-7.43,0c-2.05,1.16-2.05,3.09,0,4.27"/><path class="cls-6" d="M602.75,1212.84a8.1,8.1,0,0,0,7.42,0c2.05-1.18,2-3.09,0-4.29a8.14,8.14,0,0,0-7.41,0c-2.06,1.18-2,3.08,0,4.27"/><path class="cls-6" d="M586.87,1222a8.29,8.29,0,0,0,7.44,0c2.05-1.18,2-3.1,0-4.29a8.15,8.15,0,0,0-7.43,0c-2,1.18-2,3.09,0,4.27"/><path class="cls-6" d="M571,1231.17a8.16,8.16,0,0,0,7.42,0c2-1.17,2-3.09,0-4.27a8.19,8.19,0,0,0-7.42,0c-2,1.2-2,3.1,0,4.3"/><path class="cls-6" d="M555.15,1240.33a8.18,8.18,0,0,0,7.43,0c2-1.17,2-3.08,0-4.29a8.28,8.28,0,0,0-7.42,0c-2,1.2-2,3.09,0,4.29"/><path class="cls-6" d="M539.29,1249.49a8.22,8.22,0,0,0,7.42,0c2-1.18,2-3.1,0-4.3a8.11,8.11,0,0,0-7.41,0c-2.06,1.18-2,3.1,0,4.29"/><path class="cls-6" d="M743.49,1147.56a8.21,8.21,0,0,0,7.43,0c2.05-1.19,2-3.1,0-4.28a8.16,8.16,0,0,0-7.42,0c-2.05,1.16-2,3.08,0,4.27"/><path class="cls-6" d="M727.63,1156.73a8.26,8.26,0,0,0,7.44,0c2-1.19,2-3.08,0-4.27a8.15,8.15,0,0,0-7.43,0c-2,1.19-2,3.1,0,4.3"/><path class="cls-6" d="M711.78,1165.88a8.14,8.14,0,0,0,7.41,0c2.06-1.18,2-3.1,0-4.29a8.22,8.22,0,0,0-7.42,0c-2.06,1.19-2,3.1,0,4.29"/><path class="cls-6" d="M695.91,1175a8.13,8.13,0,0,0,7.42,0c2-1.17,2-3.07,0-4.29a8.21,8.21,0,0,0-7.43,0c-2,1.19-2,3.1,0,4.29"/><path class="cls-6" d="M680.05,1184.21a8.26,8.26,0,0,0,7.41,0c2.06-1.18,2-3.09,0-4.28a8.19,8.19,0,0,0-7.42,0c-2.06,1.18-2,3.09,0,4.29"/><path class="cls-6" d="M664.17,1193.36a8.19,8.19,0,0,0,7.42,0c2-1.19,2-3.09,0-4.28a8.18,8.18,0,0,0-7.43,0c-2,1.17-2,3.09,0,4.27"/><path class="cls-6" d="M648.3,1202.53a8.21,8.21,0,0,0,7.43,0c2.06-1.2,2-3.1,0-4.29a8.24,8.24,0,0,0-7.43,0c-2,1.19-2,3.1,0,4.3"/><path class="cls-6" d="M632.44,1211.68a8.18,8.18,0,0,0,7.43,0c2-1.18,2-3.08,0-4.27a8.21,8.21,0,0,0-7.43,0c-2,1.17-2,3.1,0,4.28"/><path class="cls-6" d="M616.58,1220.85a8.18,8.18,0,0,0,7.43,0c2-1.17,2-3.1,0-4.29a8.18,8.18,0,0,0-7.43,0c-2,1.17-2,3.08,0,4.29"/><path class="cls-6" d="M600.72,1230a8.25,8.25,0,0,0,7.42,0c2.05-1.19,2-3.1,0-4.29a8.12,8.12,0,0,0-7.43,0c-2,1.18-2,3.07,0,4.28"/><path class="cls-6" d="M584.85,1239.16a8.37,8.37,0,0,0,7.43,0c2.05-1.19,2-3.11,0-4.29a8.16,8.16,0,0,0-7.42,0c-2.06,1.17-2.05,3.09,0,4.29"/><path class="cls-6" d="M569,1248.31a8.16,8.16,0,0,0,7.42,0c2.06-1.18,2.05-3.09,0-4.3a8.28,8.28,0,0,0-7.42,0c-2,1.18-2,3.09,0,4.28"/><path class="cls-6" d="M553.13,1257.47a8.19,8.19,0,0,0,7.42,0c2.05-1.18,2-3.09,0-4.3a8.35,8.35,0,0,0-7.42,0c-2.06,1.19-2.06,3.1,0,4.29"/><path class="cls-6" d="M757.33,1155.54a8.06,8.06,0,0,0,7.43,0c2-1.17,2-3.1,0-4.28a8.22,8.22,0,0,0-7.42,0c-2,1.18-2,3.11,0,4.28"/><path class="cls-6" d="M741.48,1164.72a8.2,8.2,0,0,0,7.41,0c2.05-1.19,2.05-3.09,0-4.26a8.16,8.16,0,0,0-7.42,0c-2.06,1.19-2,3.1,0,4.3"/><path class="cls-6" d="M725.6,1173.88a8.3,8.3,0,0,0,7.43,0c2.06-1.18,2-3.09,0-4.28a8.21,8.21,0,0,0-7.43,0c-2,1.19-2,3.11,0,4.31"/><path class="cls-6" d="M709.75,1183a8.11,8.11,0,0,0,7.41,0c2.06-1.17,2-3.09,0-4.29a8.19,8.19,0,0,0-7.42,0c-2.05,1.19-2,3.11,0,4.29"/><path class="cls-6" d="M693.87,1192.18a8.14,8.14,0,0,0,7.44,0c2-1.18,2-3.09,0-4.28a8.11,8.11,0,0,0-7.44,0c-2,1.18-2,3.08,0,4.27"/><path class="cls-6" d="M678,1201.34a8.18,8.18,0,0,0,7.43,0c2-1.18,2-3.09,0-4.3a8.3,8.3,0,0,0-7.43,0c-2,1.19-2,3.11,0,4.28"/><path class="cls-6" d="M662.14,1210.5a8.2,8.2,0,0,0,7.44,0c2-1.2,2-3.1,0-4.28a8.2,8.2,0,0,0-7.44,0c-2,1.17-2,3.07,0,4.26"/><path class="cls-6" d="M646.29,1219.68a8.26,8.26,0,0,0,7.41,0c2.06-1.19,2-3.1,0-4.28a8.14,8.14,0,0,0-7.41,0c-2.06,1.18-2,3.1,0,4.3"/><path class="cls-6" d="M630.42,1228.82a8,8,0,0,0,7.41,0c2.06-1.17,2-3.08,0-4.28a8.13,8.13,0,0,0-7.42,0c-2,1.18-2,3.09,0,4.28"/><path class="cls-6" d="M614.55,1238a8.24,8.24,0,0,0,7.43,0c2-1.19,2-3.12,0-4.3a8.13,8.13,0,0,0-7.42,0c-2,1.17-2,3.08,0,4.29"/><path class="cls-6" d="M598.69,1247.15a8.31,8.31,0,0,0,7.42,0c2-1.2,2-3.12,0-4.3a8.18,8.18,0,0,0-7.43,0c-2,1.17-2,3.09,0,4.29"/><path class="cls-6" d="M582.82,1256.28a8.1,8.1,0,0,0,7.42,0c2-1.18,2-3.1,0-4.29a8.16,8.16,0,0,0-7.42,0c-2,1.17-2,3.09,0,4.25"/><path class="cls-6" d="M567,1265.46a8.19,8.19,0,0,0,7.45,0c2-1.17,2-3.08,0-4.27a8.36,8.36,0,0,0-7.44,0c-2,1.2-2,3.11,0,4.29"/></g></g></svg>