<?xml version="1.0" encoding="utf-8"?>
<!-- Generator: Adobe Illustrator 22.0.0, SVG Export Plug-In . SVG Version: 6.00 Build 0)  -->
<svg version="1.1" id="Lager_1" xmlns="http://www.w3.org/2000/svg" xmlns:xlink="http://www.w3.org/1999/xlink" x="0px" y="0px"
	 viewBox="0 0 490 490" style="enable-background:new 0 0 490 490;" xml:space="preserve">
<style type="text/css">
	.st0{fill:#5533A2;}
	.st1{display:none;}
	.st2{display:inline;fill:#FFFFFF;}
	.st3{fill:#FFFFFF;}
	.st4{fill:#F5F5F5;}
	.st5{fill:#CDCDCD;}
	.st6{fill:#C3C3C3;}
	.st7{fill:#B9B9B9;}
	.st8{fill:#AFAFAF;}
	.st9{fill:#D7D7D7;}
	.st10{fill:#E1E1E1;}
	.st11{fill:#EBEBEB;}
</style>
<ellipse class="st0" cx="245" cy="245" rx="245" ry="245"/>
<g id="Box_Left_1_" class="st1">
	<path id="Box_Left-2_1_" class="st2" d="M65.9,238.4l72.7-42.1l72.5,42.1v84.2l-72.5,42.1l-72.7-42.1V238.4z"/>
</g>
<g id="Box_Right_1_">
	<path id="Box_Left-3_1_" class="st3" d="M279.4,238.4l72.7-42.1l72.5,42.1v84.2l-72.5,42.1l-72.7-42.1V238.4z"/>
</g>
<g id="Box_Main_1_">
	<path id="Box_Main-2_1_" class="st3" d="M153.3,164.7l91.8-53.6l92.1,53.6v30.1L271.3,233v77.1l-26.2,15.2l-26-15.2V233l-65.9-38.2
		V164.7z"/>
</g>
<g id="Box_Left_6_">
	<path id="Box_Left-2_6_" class="st3" d="M124.4,203.7l14.7-8.5l14.6,8.5v17l-14.6,8.5l-14.7-8.5V203.7z"/>
</g>
<g id="Box_Left_7_">
	<path id="Box_Left-2_7_" class="st4" d="M124.4,220.7l14.7-8.5l14.6,8.5v17l-14.6,8.5l-14.7-8.5V220.7z"/>
</g>
<g id="Box_Left_23_">
	<path id="Box_Left-2_23_" class="st5" d="M109.8,280.1l14.7-8.5l14.6,8.5v17l-14.6,8.5l-14.7-8.5V280.1z"/>
</g>
<g id="Box_Left_27_">
	<path id="Box_Left-2_27_" class="st5" d="M168.4,297.1l-14.7,8.5l-14.6-8.5v-17l14.6-8.5l14.7,8.5V297.1z"/>
</g>
<g id="Box_Left_28_">
	<path id="Box_Left-2_28_" class="st6" d="M183,305.5l-14.7,8.5l-14.6-8.5v-17l14.6-8.5l14.7,8.5V305.5z"/>
</g>
<g id="Box_Left_25_">
	<path id="Box_Left-2_25_" class="st7" d="M80.5,297l14.7-8.5l14.6,8.5v17l-14.6,8.5L80.5,314V297z"/>
</g>
<g id="Box_Left_29_">
	<path id="Box_Left-2_29_" class="st7" d="M197.7,314l-14.7,8.5l-14.6-8.5v-17l14.6-8.5l14.7,8.5V314z"/>
</g>
<g id="Box_Left_26_">
	<path id="Box_Left-2_26_" class="st8" d="M65.9,305.5l14.7-8.5l14.6,8.5v17L80.5,331l-14.7-8.5V305.5z"/>
</g>
<g id="Box_Left_30_">
	<path id="Box_Left-2_30_" class="st8" d="M212.3,322.5l-14.7,8.5l-14.6-8.5v-17l14.6-8.5l14.7,8.5V322.5z"/>
</g>
<g id="Box_Left_18_">
	<path id="Box_Left-2_18_" class="st9" d="M109.8,263.1l14.7-8.5l14.6,8.5v17l-14.6,8.5l-14.7-8.5V263.1z"/>
</g>
<g id="Box_Left_31_">
	<path id="Box_Left-2_31_" class="st9" d="M168.4,280.1l-14.7,8.5l-14.6-8.5v-17l14.6-8.5l14.7,8.5V280.1z"/>
</g>
<g id="Box_Left_19_">
	<path id="Box_Left-2_19_" class="st5" d="M95.2,271.6l14.7-8.5l14.6,8.5v17l-14.6,8.5l-14.7-8.5V271.6z"/>
</g>
<g id="Box_Left_32_">
	<path id="Box_Left-2_32_" class="st5" d="M183,288.6l-14.7,8.5l-14.6-8.5v-17l14.6-8.5l14.7,8.5V288.6z"/>
</g>
<g id="Box_Left_20_">
	<path id="Box_Left-2_20_" class="st6" d="M80.5,280.1l14.7-8.5l14.6,8.5v17l-14.6,8.5L80.5,297V280.1z"/>
</g>
<g id="Box_Left_33_">
	<path id="Box_Left-2_33_" class="st6" d="M197.7,297.1l-14.7,8.5l-14.6-8.5v-17l14.6-8.5l14.7,8.5V297.1z"/>
</g>
<g id="Box_Left_21_">
	<path id="Box_Left-2_21_" class="st7" d="M65.9,288.5l14.7-8.5l14.6,8.5v17L80.5,314l-14.7-8.5V288.5z"/>
</g>
<g id="Box_Left_34_">
	<path id="Box_Left-2_34_" class="st7" d="M212.3,305.5l-14.7,8.5l-14.6-8.5v-17l14.6-8.5l14.7,8.5V305.5z"/>
</g>
<g id="Box_Left_13_">
	<path id="Box_Left-2_13_" class="st10" d="M109.8,246.1l14.7-8.5l14.6,8.5v17l-14.6,8.5l-14.7-8.5V246.1z"/>
</g>
<g id="Box_Left_35_">
	<path id="Box_Left-2_35_" class="st10" d="M168.4,263.1l-14.7,8.5l-14.6-8.5v-17l14.6-8.5l14.7,8.5V263.1z"/>
</g>
<g id="Box_Left_14_">
	<path id="Box_Left-2_14_" class="st9" d="M95.2,254.6l14.7-8.5l14.6,8.5v17l-14.6,8.5l-14.7-8.5V254.6z"/>
</g>
<g id="Box_Left_36_">
	<path id="Box_Left-2_36_" class="st9" d="M183,271.6l-14.7,8.5l-14.6-8.5v-17l14.6-8.5l14.7,8.5V271.6z"/>
</g>
<g id="Box_Left_15_">
	<path id="Box_Left-2_15_" class="st5" d="M80.5,263.1l14.7-8.5l14.6,8.5v17l-14.6,8.5l-14.7-8.5V263.1z"/>
</g>
<g id="Box_Left_37_">
	<path id="Box_Left-2_37_" class="st5" d="M197.7,280.1l-14.7,8.5l-14.6-8.5v-17l14.6-8.5l14.7,8.5V280.1z"/>
</g>
<g id="Box_Left_16_">
	<path id="Box_Left-2_16_" class="st6" d="M65.9,271.5l14.7-8.5l14.6,8.5v17L80.5,297l-14.7-8.5V271.5z"/>
</g>
<g id="Box_Left_38_">
	<path id="Box_Left-2_38_" class="st6" d="M212.3,288.5l-14.7,8.5l-14.6-8.5v-17l14.6-8.5l14.7,8.5V288.5z"/>
</g>
<g id="Box_Left_8_">
	<path id="Box_Left-2_8_" class="st11" d="M109.8,229.2l14.7-8.5l14.6,8.5v17l-14.6,8.5l-14.7-8.5V229.2z"/>
</g>
<g id="Box_Left_39_">
	<path id="Box_Left-2_39_" class="st11" d="M168.4,246.1l-14.7,8.5l-14.6-8.5v-17l14.6-8.5l14.7,8.5V246.1z"/>
</g>
<g id="Box_Left_9_">
	<path id="Box_Left-2_9_" class="st10" d="M95.2,237.6l14.7-8.5l14.6,8.5v17l-14.6,8.5l-14.7-8.5V237.6z"/>
</g>
<g id="Box_Left_40_">
	<path id="Box_Left-2_40_" class="st10" d="M183,254.6l-14.7,8.5l-14.6-8.5v-17l14.6-8.5l14.7,8.5V254.6z"/>
</g>
<g id="Box_Left_10_">
	<path id="Box_Left-2_10_" class="st9" d="M80.5,246.1l14.7-8.5l14.6,8.5v17l-14.6,8.5l-14.7-8.5V246.1z"/>
</g>
<g id="Box_Left_41_">
	<path id="Box_Left-2_41_" class="st9" d="M197.7,263.1l-14.7,8.5l-14.6-8.5v-17l14.6-8.5l14.7,8.5V263.1z"/>
</g>
<g id="Box_Left_11_">
	<path id="Box_Left-2_11_" class="st5" d="M65.9,254.6l14.7-8.5l14.6,8.5v17L80.5,280l-14.7-8.5V254.6z"/>
</g>
<g id="Box_Left_42_">
	<path id="Box_Left-2_42_" class="st5" d="M212.3,271.6l-14.7,8.5l-14.6-8.5v-17l14.6-8.5l14.7,8.5V271.6z"/>
</g>
<g id="Box_Left_5_">
	<path id="Box_Left-2_5_" class="st4" d="M109.8,212.2l14.7-8.5l14.6,8.5v17l-14.6,8.5l-14.7-8.5V212.2z"/>
</g>
<g id="Box_Left_43_">
	<path id="Box_Left-2_43_" class="st4" d="M168.4,229.2l-14.7,8.5l-14.6-8.5v-17l14.6-8.5l14.7,8.5V229.2z"/>
</g>
<g id="Box_Left_4_">
	<path id="Box_Left-2_4_" class="st11" d="M95.2,220.7l14.7-8.5l14.6,8.5v17l-14.6,8.5l-14.7-8.5V220.7z"/>
</g>
<g id="Box_Left_44_">
	<path id="Box_Left-2_44_" class="st11" d="M183,237.7l-14.7,8.5l-14.6-8.5v-17l14.6-8.5l14.7,8.5V237.7z"/>
</g>
<g id="Box_Left_3_">
	<path id="Box_Left-2_3_" class="st10" d="M80.5,229.2l14.7-8.5l14.6,8.5v17l-14.6,8.5l-14.7-8.5V229.2z"/>
</g>
<g id="Box_Left_45_">
	<path id="Box_Left-2_45_" class="st10" d="M197.7,246.2l-14.7,8.5l-14.6-8.5v-17l14.6-8.5l14.7,8.5V246.2z"/>
</g>
<g id="Box_Left_2_">
	<path id="Box_Left-2_2_" class="st9" d="M65.9,237.6l14.7-8.5l14.6,8.5v17l-14.6,8.5l-14.7-8.5V237.6z"/>
</g>
<g id="Box_Left_46_">
	<path id="Box_Left-2_46_" class="st9" d="M212.3,254.6l-14.7,8.5l-14.6-8.5v-17l14.6-8.5l14.7,8.5V254.6z"/>
</g>
<g id="Box_Left_17_">
	<path id="Box_Left-2_17_" class="st5" d="M124.5,288.6l14.7-8.5l14.6,8.5v17l-14.6,8.5l-14.7-8.5V288.6z"/>
</g>
<g id="Box_Left_24_">
	<path id="Box_Left-2_24_" class="st6" d="M109.6,297.1l14.7-8.5l14.6,8.5v17l-14.6,8.5l-14.7-8.5V297.1z"/>
</g>
<g id="Box_Left_22_">
	<path id="Box_Left-2_22_" class="st7" d="M95.2,305.6l14.7-8.5l14.6,8.5v17l-14.6,8.5l-14.7-8.5V305.6z"/>
</g>
<g id="Box_Left_47_">
	<path id="Box_Left-2_47_" class="st6" d="M139.1,297.1l14.7-8.5l14.6,8.5v17l-14.6,8.5l-14.7-8.5V297.1z"/>
</g>
<g id="Box_Left_12_">
	<path id="Box_Left-2_12_" class="st6" d="M124.4,305.6l14.7-8.5l14.6,8.5v17l-14.6,8.5l-14.7-8.5V305.6z"/>
</g>
<g id="Box_Left_48_">
	<path id="Box_Left-2_48_" class="st7" d="M153.7,305.6l14.7-8.5l14.6,8.5v17l-14.6,8.5l-14.7-8.5V305.6z"/>
</g>
</svg>
