<svg id="POOLS" xmlns="http://www.w3.org/2000/svg" viewBox="0 0 1000 1000"><defs><style>.cls-1{fill:#fff;}</style></defs><title>2miners</title><g id="_2miners" data-name="2miners"><g id="_2m_symbol" data-name="2m_symbol"><path id="Shape" class="cls-1" d="M440.29,606.35a32.62,32.62,0,0,1-18.71,6H277.31v22.51H421.58a53.45,53.45,0,0,0,31.73-10.3l24.94-17.63-13-18.17Zm241.62-4.61a44.93,44.93,0,0,1-3.52,5.15c-.82,1.36-1.63,2.71-2.17,3.53-1.9,2.71-3.26,4.88-4.61,6H568.29v22.51H673.23c6.78,0,11.39-4.07,14.1-6.51a56.8,56.8,0,0,0,7.33-9.22,27.15,27.15,0,0,0,2.71-4.34,35.39,35.39,0,0,1,2.71-4.06,31.61,31.61,0,0,1,2.17-2.72l.81-.81-11.12-9C689.5,599.57,683.54,599,681.91,601.74ZM548.22,470l.27.27C548.22,470.22,548.22,470.22,548.22,470ZM259.14,480.79h80V458.28h-80ZM828.89,439A71.59,71.59,0,0,0,798,387.51a71,71,0,0,0-19.8-75.12,73.38,73.38,0,0,0-77.29-13.56,73,73,0,0,0-134.5-17.36,73.37,73.37,0,0,0-74.85,14.65c-.81.54-1.35,1.35-2.17,1.9,32,20.61,51.8,47.72,64,71.05a144.52,144.52,0,0,1,74.3-20.61c32.82,0,68.88,11.66,96.54,37.42,24.41,22.51,42.85,56.4,46.65,104.13H552.56q-.81-10.17-2.44-20.34l-1.9.82H548l-.27.27c-.27,0-.55.27-1.09.54-.81.27-1.9.81-3.25,1.36-2.71,1.08-6.24,2.44-10.58,3.79a191.16,191.16,0,0,1-24.13,6.24c.81,5.7,1.08,11.66,1.35,17.63H225.24A142.54,142.54,0,0,1,297.11,378a148.87,148.87,0,0,1,40.4-15.72c11.66,22.5,31.73,48.81,66.17,65.89,65.08,32,126.37,3,126.37,3s-10-70.78-76.47-104.41a164.11,164.11,0,0,0-51.8-16l9.49-29.29s-131.52-40.4-202,63.46c-27.93,41.49-52.33,131.25-27.39,220.74v78.1c0,22.51,11.39,39.87,22.78,51.8,11.66,11.93,26.58,22,42.85,30.64,33.9,17.9,80,32.27,115.52,35.25l1.9.28h5.15l1.9-.28c35.53-3,81.9-17.35,115.52-35.25h0c16.28-8.68,31.19-18.44,42.85-30.37.81-.81,1.36-1.63,2.17-2.44,27.12,21.69,60.2,34.71,95.18,34.71,89.49,0,165.7-85.15,165.7-182V508.72A72.23,72.23,0,0,0,828.89,439ZM509.71,644c0,14.38-14.37,29-42.57,44.21-29.29,15.45-70,27.93-99,30.37h-1.62c-28.75-2.44-69.42-14.92-99-30.37C239.34,673.33,225,658.42,225,644V525.27c8.14,21.69,27.93,49.62,74.3,49.62,37.43,0,57.5-17.9,68.07-36.34,10.58,18.17,30.64,36.34,68.07,36.34,46.37,0,66.17-27.66,74.3-49.35ZM773,546.15c0,87.05-68.34,160.26-144,160.26-30.1,0-58.85-11.38-82.71-30.91a67.18,67.18,0,0,0,8.14-31.73V574.35c41.76-.27,63.45-22,74.57-43.39,11.39,21.42,33.08,43.39,75.12,43.39,35.52,0,56.4-15.73,68.88-33.36Z"/></g></g></svg>