<?xml version="1.0" encoding="utf-8"?>
<!-- Generator: Adobe Illustrator 22.0.0, SVG Export Plug-In . SVG Version: 6.00 Build 0)  -->
<svg version="1.1" id="图层_1" xmlns="http://www.w3.org/2000/svg" xmlns:xlink="http://www.w3.org/1999/xlink" x="0px" y="0px"
	 viewBox="0 0 500 500" style="enable-background:new 0 0 500 500;" xml:space="preserve">
<style type="text/css">
	.st0{fill-rule:evenodd;clip-rule:evenodd;fill:#364365;}
	.st1{fill-rule:evenodd;clip-rule:evenodd;fill:#E07241;}
	.st2{fill-rule:evenodd;clip-rule:evenodd;fill:#406CE9;}
</style>
<path class="st0" d="M133.7,303.8c19.7,0,35.6-15.9,35.6-35.6c0-19.7-15.9-35.6-35.6-35.6c-19.7,0-35.6,15.9-35.6,35.6
	C98.1,287.8,114.1,303.8,133.7,303.8z"/>
<path class="st0" d="M184.4,242.9c-3.5-7.3-8.6-13.9-14.9-19c-6.3-5.2-13.8-9-21.7-11.1c-4.1-1.1-8.4-1.3-12.6-1.9
	c-1.4-0.2-2.7-0.4-4-0.7c-4.5-1-8.9-2.7-13-4.7c-4.8-2.3-9.4-5.1-13.6-8.4c-2.7-2.1-6.5-0.1-6.5,3.2v36.1c0,3.3,4.1,5,6.4,2.7
	c8-8.1,19.4-12.9,31.9-12.2c21.1,1.2,38,18.5,38.8,39.6c0.9,23.6-17.9,42.9-41.3,42.9c-21.5,0-39.2-16.5-41.1-37.5l-0.2-3.9v-81.5
	c0,0,0,0,0,0c0,0,0,0,0-0.1c0-6.1-3.4-11.3-8.4-14l0,0c0,0,0,0,0,0c-1.6-0.9-3.4-1.4-5.3-1.7c0,0-0.1,0-0.1,0c-0.5,0-1,0.4-1,1
	c0,5.5,0,30.5,0,30.5l0,0c0.4,0,0.8-0.1,1.2-0.1c-0.4,0.1-0.8,0.1-1.2,0.1v64c0,30.1,23.4,55.5,53.6,56.9
	c32.2,1.4,58.7-24.2,58.7-56.1C189.9,258.8,188,250.5,184.4,242.9z"/>
<path class="st0" d="M295.9,273v-32.4c0-2.1-0.9-4-2.2-5.4l0,0c-1.4-1.4-3.3-2.2-5.4-2.2c-2.1,0-4,0.9-5.4,2.2
	c-1.4,1.4-2.2,3.3-2.2,5.4v56.1c0,2.1,0.9,4,2.2,5.4l0,0c1.4,1.4,3.3,2.2,5.4,2.2c0.6,0,1.1-0.1,1.6-0.2c0.5-0.1,1.1-0.3,1.5-0.5
	l0.1-0.1c0.5-0.2,1.1-0.5,1.6-0.8c0.5-0.3,1-0.7,1.4-1.2l19.6-21.2l19.6,21.2l0,0l0,0.1c1.4,1.5,3.3,2.3,5.3,2.4
	c1.9,0.1,3.9-0.6,5.4-2l0,0l0.1,0c1.5-1.4,2.3-3.3,2.4-5.3c0.1-2-0.6-3.9-2-5.5l-20.4-22.1l20.4-22.1c1.4-1.5,2.1-3.5,2-5.5
	c-0.1-1.9-0.9-3.9-2.4-5.3l-0.1,0l0,0c-1.5-1.4-3.5-2-5.4-2c-1.9,0.1-3.9,0.9-5.3,2.4l0,0.1l0,0l-37.8,40.9V273z"/>
<path class="st0" d="M439.7,270.4l-19.3,20.8c-1.4,1.5-2.1,3.5-2,5.5c0.1,1.9,0.9,3.9,2.4,5.3l0.1,0l0,0c1.5,1.4,3.5,2,5.4,2
	c1.9-0.1,3.9-0.9,5.3-2.4l0-0.1l0,0l19.6-21.2l19.6,21.2l0,0l0,0.1c1.4,1.5,3.3,2.3,5.3,2.4c1.9,0.1,3.9-0.6,5.4-2l0,0l0.1,0
	c1.5-1.4,2.3-3.3,2.4-5.3c0.1-2-0.6-3.9-2-5.5l-20.4-22.1l20.4-22.1c1.4-1.5,2.1-3.5,2-5.5c-0.1-1.9-0.9-3.9-2.4-5.3l-0.1,0l0,0
	c-1.5-1.4-3.5-2-5.4-2c-1.9,0.1-3.9,0.9-5.3,2.4l0,0.1l0,0L451.2,258l-19.6-21.2l0,0l0-0.1c-1.4-1.5-3.3-2.3-5.3-2.4
	c-1.9-0.1-3.9,0.6-5.4,2l0,0l-0.1,0c-1.5,1.4-2.3,3.3-2.4,5.3c-0.1,2,0.6,3.9,2,5.5l20.4,22.1L439.7,270.4z"/>
<path class="st1" d="M405.2,258.8h-45.1c-2.1,0-4,0.9-5.4,2.2c-1.4,1.4-2.2,3.3-2.2,5.4v30.3c0,2.1,0.9,4,2.2,5.4l0,0
	c1.4,1.4,3.3,2.2,5.4,2.2h45.1c2.1,0,4-0.9,5.4-2.2c1.4-1.4,2.2-3.3,2.2-5.4s-0.9-4-2.2-5.4l0,0c-1.4-1.4-3.3-2.2-5.4-2.2h-37.5
	v-15.1h37.5c2.1,0,4-0.9,5.4-2.2s2.2-3.3,2.2-5.4c0-2.1-0.9-4-2.2-5.4l0,0C409.2,259.6,407.3,258.8,405.2,258.8z"/>
<path class="st2" d="M405.2,233h-45.1c-2.1,0-4,0.9-5.4,2.2c-1.4,1.4-2.2,3.3-2.2,5.4c0,2.1,0.9,4,2.2,5.4l0,0
	c1.4,1.4,3.3,2.2,5.4,2.2h45.1c2.1,0,4-0.9,5.4-2.2c1.4-1.4,2.2-3.3,2.2-5.4c0-2.1-0.9-4-2.2-5.4l0,0
	C409.2,233.8,407.3,233,405.2,233z"/>
<path class="st0" d="M254.5,232.9l-40,0c-2.1,0-4,0.9-5.4,2.2c-1.4,1.4-2.2,3.3-2.2,5.4c0,11.3,0,20.3,0,31.8c0,2.1,0.9,4,2.2,5.4
	c1.4,1.4,3.3,2.2,5.4,2.2c2.1,0,4-0.9,5.4-2.2l0,0c1.4-1.4,2.2-3.3,2.2-5.4v-24.2l32.4,0h1.6c3.1,0,5.7,2.5,5.7,5.6l0,0
	c0,2.8-2.1,5.1-4.8,5.5l-17.7,0c-2.1,0-4,0.9-5.4,2.2c-1.4,1.4-2.2,3.3-2.2,5.4c0,2.1,0.9,4,2.2,5.4l0,0c1.4,1.4,3.3,2.2,5.4,2.2
	l14.8,0c2.6,0.2,7.7,1.6,7.7,8.4h0c0,0.2,0,0.4,0,0.5l0,0c0,3.1-2.6,5.6-5.7,5.6c-13.8,0-27.8-0.1-41.6-0.1c-2.1,0-4,0.9-5.4,2.2
	l0,0c-1.4,1.4-2.2,3.3-2.2,5.4c0,2.1,0.9,4,2.2,5.4c1.4,1.4,3.3,2.2,5.4,2.2l35.4,0v0h4.2l0,0l0.5,0v0c11.4-0.3,20.6-9.5,20.6-20.8
	l0,0c0-5.8-2.5-11.1-6.4-14.9c3.9-3.8,6.4-9.1,6.4-14.9l0,0C275.1,242.5,265.9,233.2,254.5,232.9L254.5,232.9z"/>
</svg>
