<svg id="Exchange" xmlns="http://www.w3.org/2000/svg" width="256" height="256" viewBox="0 0 512 512">
<defs>
    <style>
      .cls-1 {
        fill: #fff;
      }

      .cls-2, .cls-3 {
        fill: none;
        stroke: #232220;
        stroke-width: 10px;
      }

      .cls-2, .cls-4 {
        fill-rule: evenodd;
      }

      .cls-4 {
        fill: #232220;
      }
    </style>
  </defs>
  <circle id="Main" class="cls-1" cx="255.5" cy="255.5" r="228.5"/>
  <path id="BRing" class="cls-2" d="M206.546,304.946A91.249,91.249,0,1,1,304.865,205.6"/>
  <circle id="SRing" class="cls-3" cx="296" cy="296" r="91.25"/>
  <path id="Down" class="cls-4" d="M127.786,300.888c0,65.032,57.28,60.386,57.28,60.386L163.4,382.831h15.317L205.8,355.889l-27.086-26.944H163.4L185.066,350.5s-45.495,4.93-45.495-49.612C130.351,300.888,133.2,300.946,127.786,300.888Z"/>
  <path id="Top" class="cls-4" d="M382.776,209.673c0-65.031-57.28-60.386-57.28-60.386l21.667-21.556H331.846L304.76,154.673l27.086,26.943h15.317L325.5,160.061s45.494-4.93,45.494,49.612C380.21,209.673,377.361,209.615,382.776,209.673Z"/>
  <path id="_" data-name="$" class="cls-4" d="M277.638,330.954a25.4,25.4,0,0,0,14.072,6.93V300.4a96.015,96.015,0,0,1-12.941-4.031,33.042,33.042,0,0,1-9.051-5.233,18.117,18.117,0,0,1-5.3-7.425,32.472,32.472,0,0,1,.566-22.275A28.46,28.46,0,0,1,280.325,246.1a35.045,35.045,0,0,1,11.385-2.687v-9.334h7.779v9.476q11.455,1.415,18.244,8.485t9.617,19.518H315.329q-2.832-14-15.84-16.406v34.791l8.485,2.263a38.757,38.757,0,0,1,6.648,2.475,30.8,30.8,0,0,1,7.354,4.879,27.259,27.259,0,0,1,6.011,7.779,23.578,23.578,0,0,1,2.475,11.173,30.619,30.619,0,0,1-2.334,12.3,27.942,27.942,0,0,1-6.435,9.264,30.424,30.424,0,0,1-9.759,6.152,43,43,0,0,1-12.445,2.828v11.6H291.71v-11.6q-14.143-1.414-22.487-9.829t-9.476-23.265h12.022Q272.051,325.439,277.638,330.954Zm29.134,5.515a16.784,16.784,0,0,0,5.8-3.323,14.515,14.515,0,0,0,3.818-5.516,20.883,20.883,0,0,0,1.344-7.849,13.9,13.9,0,0,0-5.233-11.6,21.542,21.542,0,0,0-5.8-3.324q-3.394-1.343-7.213-2.475v35.5A28.849,28.849,0,0,0,306.772,336.469ZM280.184,259.6q-4.74,4.173-4.738,12.233a14.978,14.978,0,0,0,1.2,6.294,11.914,11.914,0,0,0,3.394,4.384,21.885,21.885,0,0,0,5.162,3.041,52.093,52.093,0,0,0,6.506,2.263V254.724A20.13,20.13,0,0,0,280.184,259.6Z"/>
  <path id="B" class="cls-4" d="M195,156h12v18h7V156h11v18c8.975,0,27,5.724,27,19,0,11.25-4.5,14.905-9,18,3.645,0,8,6,8,6l-13,9s-8.946-7-14-7H206v24h14l-7,13h-7v18H195V256H174V244h10c2.453,0,3-3,3-3V188c0-1.621-2-2-2-2H173V174h22V156Zm11,30v22h16c2.064,0,9-3.043,9-11,0-7.785-8.374-11-11-11H206Z"/>
</svg>
