<svg id="EXCHANGES" xmlns="http://www.w3.org/2000/svg" width="1000" height="1000" viewBox="0 0 1000 1000">
  <defs>
    <style>
      .cls-1, .cls-5, .cls-6 {
        fill: none;
        stroke-linecap: round;
      }

      .cls-1, .cls-6 {
        stroke: #fff;
      }

      .cls-1 {
        stroke-width: 60px;
      }

      .cls-2, .cls-4 {
        fill: #fff;
      }

      .cls-2, .cls-5, .cls-6 {
        fill-rule: evenodd;
      }

      .cls-3 {
        fill: #232220;
      }

      .cls-5 {
        stroke: #232220;
        stroke-width: 90px;
      }

      .cls-6 {
        stroke-width: 56px;
      }
    </style>
  </defs>
  <g id="Graviex">
    <circle id="Round" class="cls-1" cx="500.14" cy="500.14" r="329.14"/>
    <path id="Stripes" class="cls-2" d="M297.891,370.949l268.39-99.973s-75.626-24.663-151.5,4.614S297.891,370.949,297.891,370.949Zm-29.223,72.288L637.8,305.582s35.42,27.027,40.758,38.451c-35.477,13.824-394.68,147.718-418.349,156.112A180.477,180.477,0,0,1,268.668,443.237Zm0.769,116.891C280.943,555.4,695.278,399.8,712.4,394.019c5.846,3.266,18.457,46.911,18.457,46.911l-444.5,166.109S271.751,574.671,269.437,560.128Zm49.218,94.59c12.629-3.671,403-148.037,419.887-155.342,0.4,13.082-6.921,56.907-6.921,56.907L360.182,694.708S316.952,655.986,318.655,654.718Zm114.584,74.6L700.091,627.8s-35.066,60.417-113.047,93.821S433.239,729.314,433.239,729.314Z"/>
    <circle id="Dot_Black" data-name="Dot Black" class="cls-3" cx="401.703" cy="670.86" r="39.984"/>
    <circle id="Dot" class="cls-4" cx="401.703" cy="670.859" r="22.297"/>
    <path id="G_Black" data-name="G Black" class="cls-5" d="M525.522,525.522s-14.29,5.026-28.454,4.614c-168.413-11.967-135.333-224.431,0-219.171C597.45,319.13,603.963,409.4,603.963,409.4V577.047c-19.676,91.382-108.433,94.59-108.433,94.59"/>
    <path id="G" class="cls-6" d="M525.522,525.522s-14.29,5.026-28.454,4.614c-168.413-11.967-135.333-224.431,0-219.171C597.45,319.13,603.963,409.4,603.963,409.4V577.047c-19.676,91.382-108.433,94.59-108.433,94.59"/>
  </g>
</svg>
