<svg width="1000px" height="1000px" viewBox="0 0 1000 1000" version="1.1" xmlns="http://www.w3.org/2000/svg" xmlns:xlink="http://www.w3.org/1999/xlink">
    <defs></defs>
    <g id="Page-1" stroke="none" stroke-width="1" fill="none" fill-rule="evenodd">
        <g id="SafeTrade" transform="translate(146.000000, 146.000000)" fill="#FFFFFF">
            <path d="M354.2,0.064 C549.346,0.064 707.544,157.945 707.544,352.702 C707.544,547.459 549.343,705.339 354.2,705.339 C159.057,705.339 0.853,547.458 0.853,352.7 C0.853,157.942 159.051,0.064 354.2,0.064 Z M353.812,24.064 C535.463,24.064 682.721,171.027 682.721,352.315 C682.721,533.603 535.46,680.565 353.809,680.565 C172.158,680.565 24.9,533.6 24.9,352.315 C24.9,171.03 172.158,24.064 353.809,24.064 L353.812,24.064 Z M220.387,642.016963 L220.387,453.767523 L518.797834,625.712465 C470.735422,654.635538 414.414459,671.275 354.2,671.275 C306.416949,671.275 261.085483,660.796756 220.386989,642.016957 Z M200.992955,632.251866 C110.814345,582.922701 47.1027626,491.398568 36.5355921,384.299383 L200.993,289.540554 L200.993,632.251891 Z M220.387,278.365912 L352.443899,202.275956 L481.8,276.810448 L481.8,432.84491 L352.332071,507.444028 L220.387,431.417341 L220.387,278.365912 Z M537.038614,613.871849 L371.726571,518.619129 L673.316802,344.844313 C673.380146,347.455877 673.412,350.075226 673.412,352.702 C673.412,460.771254 619.492563,556.271668 537.038598,613.871861 Z M672.062903,323.21587 L501.2,421.666675 L501.2,69.8429528 C595.254945,118.626015 661.906097,212.762096 672.062903,323.21587 Z M481.8,60.5983566 L481.8,254.459383 L352.860471,180.165246 L352.652,179.805 L352.443627,179.925063 L184.223064,82.9974456 C233.439886,52.0393424 291.72367,34.128 354.2,34.128 C399.566196,34.128 442.721586,43.5723263 481.800009,60.5983605 Z M166.389262,95.0719827 L333.048503,191.100403 L35.1409131,362.752745 C35.0372261,359.414513 34.985,356.063343 34.985,352.7 C34.985,246.816015 86.7438375,152.998649 166.389274,95.0719735 Z M260.7,298.122 L353.813,243.93 L446.582,298.122 L446.582,414.249 L353.813,468.441 L260.7,414.249 L260.7,298.122 Z M326.718,421.99 L380.9,421.99 C380.9,421.99 369.32,354.025 369.32,352.315 C376.589,345.64 384.834,336.831 384.834,321.348 C384.834,305.865 369.32,290.38 353.805,290.38 C338.29,290.38 322.776,305.864 322.776,321.348 C322.776,336.832 328.601,342.854 338.291,352.315 C338.3,354.128 326.718,421.99 326.718,421.99 Z" id="SafeTrade_Shape_kopiera"></path>
        </g>
    </g>
</svg>