<svg id="EXCHANGES" xmlns="http://www.w3.org/2000/svg" width="1000" height="1000" viewBox="0 0 1000 1000">
  <defs>
    <style>
      .cls-1 {
        fill: #fff;
        fill-rule: evenodd;
      }
    </style>
  </defs>
  <g id="STEX">
    <path id="STEX-2" data-name="STEX" class="cls-1" d="M415.025,558.976H378.361V468.335h-51.63V441.023H465.008v27.312H415.025v90.641Zm229.02-27.462v27.462h-129V441.023h129v27.312H551.71v19.811h86.647v23.861H551.71v19.507h92.335Zm98.376,27.462H693.036l57.016-58.227-54.924-59.726h47.739l32.474,36.466,32.325-36.466h48.187l-55.52,59.726L858.4,558.976H809.162L775.789,523.56ZM279.215,441.023H157.481L141.6,456.9v54.44h94.514v21.927H141.6v25.708H261.824L277.7,543.1V487.146H185.457v-18.9h93.758v-27.22Z"/>
  </g>
</svg>
