<svg id="EXCHANGES" xmlns="http://www.w3.org/2000/svg" width="1000" height="1000" viewBox="0 0 1000 1000">
  <defs>
    <style>
      .cls-1 {
        fill: #fff;
        fill-rule: evenodd;
      }
    </style>
  </defs>
  <g id="Tokok">
    <path id="Tokok-2" data-name="Tokok" class="cls-1" d="M228.449,262.767s121.109-49.779,271.514-49.779S771.42,262.767,771.42,262.767H228.449ZM228.412,319.5H440.289L499.963,787,394.55,352.368Zm331.224,0L499.963,787l103.41-433.632L771.42,319.5H559.636ZM771.42,332.456L861,504.65s-7.984,53.8-92.508,53.8-103.349-53.8-103.349-53.8l70.584-130.457L683.956,504.65H841.1Zm-543.008,0L139.005,504.65s8.378,53.8,92.428,53.8,103.408-53.8,103.408-53.8l-69.58-130.457L315.97,504.65H157.836Z"/>
  </g>
</svg>
