<svg id="EXCHANGES" xmlns="http://www.w3.org/2000/svg" width="1000" height="1000" viewBox="0 0 1000 1000">
  <defs>
    <style>
      .cls-1 {
        fill: #fff;
        fill-rule: evenodd;
      }
    </style>
  </defs>
  <g id="TradeOgre">
    <path id="Ogre" class="cls-1" d="M350.131,625.451a58.216,58.216,0,0,1-12.546,18.37A60.474,60.474,0,0,1,319.1,656.254a56.385,56.385,0,0,1-44.581,0,58.914,58.914,0,0,1-30.8-30.691,54.611,54.611,0,0,1-4.593-22.291,55.418,55.418,0,0,1,4.593-22.4,60.468,60.468,0,0,1,12.433-18.482,58.607,58.607,0,0,1,18.258-12.545,54.677,54.677,0,0,1,22.291-4.593,55.476,55.476,0,0,1,22.4,4.593,60.6,60.6,0,0,1,18.482,12.433,58.3,58.3,0,0,1,12.546,18.37A56.945,56.945,0,0,1,350.131,625.451Zm22.851-54.439a84.53,84.53,0,0,0-44.022-44.021,80.686,80.686,0,0,0-63.959,0,83.9,83.9,0,0,0-44.133,44.133,80.407,80.407,0,0,0,0,63.848A83.9,83.9,0,0,0,265,679.105a78.907,78.907,0,0,0,31.924,6.609,78.121,78.121,0,0,0,31.811-6.609,85.363,85.363,0,0,0,44.246-44.245A80.417,80.417,0,0,0,372.982,571.012ZM532.6,607.753H472.336v24.866h34.948v5.825a57.117,57.117,0,0,1-19.6,16.354,57.7,57.7,0,0,1-48.278,1.456,58.6,58.6,0,0,1-30.8-30.8,55.393,55.393,0,0,1-4.593-22.4,56.027,56.027,0,0,1,4.481-22.179,57.97,57.97,0,0,1,12.433-18.482,59.221,59.221,0,0,1,18.594-12.545,57.922,57.922,0,0,1,23.187-4.593,56.488,56.488,0,0,1,11.2,1.233,66.327,66.327,0,0,1,14.562,5.264l13.441-20.61a63.378,63.378,0,0,0-19.266-8.177,86.68,86.68,0,0,0-20.61-2.576,78.906,78.906,0,0,0-31.924,6.608,86.328,86.328,0,0,0-26.435,17.81,83.93,83.93,0,0,0-17.922,26.323,80.407,80.407,0,0,0,0,63.848A83.9,83.9,0,0,0,403.672,661.3,86.583,86.583,0,0,0,430,679.105a79.737,79.737,0,0,0,55.783,2.912,91.5,91.5,0,0,0,21.506-10.193v42.341H532.6V607.753Zm2.237,75.048h25.091V632.619h34.052l46.149,81.546h27.779L620.638,632.4q49.062-4.253,49.062-54.886,0-54.438-58.247-54.438H534.836V682.8Zm79.753-75.048H559.927V547.938h54.662q30.916,0,30.916,29.795,0,30.023-30.916,30.02h0Zm86.248-7.617h60.935V575.269H700.837V547.938h60.935V523.071H675.747V682.8h97.9V657.934H700.837v-57.8Z"/>
    <path id="Trade" class="cls-1" d="M309.918,326.152V301.285H212.243V276.867H187.152v24.418H144.587v24.867h42.565V461.016h25.091V326.152h97.675Zm1.79,134.864H336.8V410.834h34.052L417,492.379h27.78L397.51,410.61q49.062-4.253,49.062-54.886,0-54.44-58.247-54.439H311.708V461.016Zm79.753-75.049H336.8V326.152h54.662q30.916,0,30.916,29.8,0,30.023-30.916,30.019h0ZM517.813,288.74l-85.8,172.276h28.451l12.1-25.091h92.075l28.9,56.454h28.451Zm0.9,50.406,34.051,71.688H484.434Zm84.007,121.87h57.8q39.2,0,58.7-20.611t19.49-60.711q0-39.652-19.378-59.03t-59.255-19.379h-57.35V461.016Zm99.019-39.429q-11.65,14.34-34.724,14.338H627.583V326.152h39.429q23.523,0,34.948,13.106t11.425,40.212Q713.385,407.251,701.736,421.587Zm67.431-43.237H830.1V353.483H769.167V326.152H830.1V301.285H744.076V461.016h97.9V436.149H769.167v-57.8Z"/>
  </g>
</svg>
