<svg id="EXCHANGES" xmlns="http://www.w3.org/2000/svg" width="1000" height="1000" viewBox="0 0 1000 1000">
  <defs>
    <style>
      .cls-1 {
        fill: #fff;
        fill-rule: evenodd;
      }
    </style>
  </defs>
  <g id="TradeSatoshi">
    <path id="Bottom" class="cls-1" d="M724.974,505.788S782.74,452.5,841.545,390.764A358.268,358.268,0,0,1,858.492,500c0,197.99-160.5,358.492-358.492,358.492-125.731,0-236.344-64.726-300.336-162.675,64.328-59.167,358.605-353.646,358.605-353.646Z"/>
    <path id="Top" class="cls-1" d="M500,141.508c144.083,0,268.314,85,325.281,207.593C767.139,403.857,724.2,443.274,724.2,443.274L559.813,283.515S235.585,604.107,178.946,659.679A357.009,357.009,0,0,1,141.508,500C141.508,302.01,302.01,141.508,500,141.508Z"/>
  </g>
</svg>
