<svg xmlns="http://www.w3.org/2000/svg" viewBox="0 0 1400 1400"><defs><style>.cls-1{fill:#f2f2f2;}.cls-2{fill:#f7f7f7;}.cls-3{fill:#325ba5;}.cls-4{fill:#132f69;}.cls-5{fill:#e8e8e8;}.cls-6{fill:#bb3c88;}.cls-7{fill:#fed22c;}.cls-8{fill:#3ae0c0;}.cls-9{fill:#183c87;}.cls-10{fill:#fff;}</style></defs><title>board</title><g id="Layer_1" data-name="Layer 1"><path class="cls-1" d="M522.22,1008.15l-1.49-649.46-14.1-8.19,1.5,649.46c0,6.82,2.42,11.62,6.3,13.87l14.1,8.19C524.65,1019.77,522.24,1015,522.22,1008.15Z"/><path class="cls-2" d="M520.73,358.69l.14,49.46L872.73,205l1.36,600c0,13.71-9.61,30.43-21.55,37.31L543.9,1020.52c-11.93,6.89-21.64,1.35-21.68-12.37Z"/><path class="cls-3" d="M858.64,196.81l-337.82,195-.09-33.16c0-13.72,9.6-30.43,21.54-37.32L850.91,143.18c6-3.47,11.44-3.79,15.37-1.5l-14.09-8.2c-3.93-2.28-9.37-2-15.38,1.51L528.17,313.18c-11.93,6.89-21.58,23.6-21.54,37.32l.14,49.46,14.1,8.19L872.73,205Z"/><path class="cls-4" d="M850.91,143.18c11.93-6.89,21.64-1.36,21.68,12.36l.14,49.47L520.87,408.15l-.14-49.46c0-13.72,9.6-30.43,21.54-37.32Z"/><polygon class="cls-5" points="683.82 549.7 684.24 699.76 553.65 775.16 553.23 625.1 683.82 549.7"/><polygon class="cls-5" points="683.29 363.88 683.72 513.94 553.13 589.34 552.7 439.28 683.29 363.88"/><polygon class="cls-5" points="842.98 271.69 843.41 421.74 712.82 497.14 712.39 347.08 842.98 271.69"/><polygon class="cls-5" points="843.51 457.5 843.93 607.56 713.35 682.96 712.92 532.9 843.51 457.5"/><polygon class="cls-5" points="684.34 735.52 684.77 885.58 554.18 960.97 553.75 810.92 684.34 735.52"/><polygon class="cls-5" points="844.03 643.33 844.46 793.38 713.87 868.77 713.45 718.72 844.03 643.33"/><polygon class="cls-6" points="594.54 852.39 594.74 922.74 583.63 929.15 583.43 858.81 594.54 852.39"/><polygon class="cls-7" points="613.43 796.5 613.76 911.76 603.31 917.79 602.99 802.53 613.43 796.5"/><polygon class="cls-8" points="636.67 799.18 636.95 898.37 624.65 905.47 624.37 806.28 636.67 799.18"/><polygon class="cls-9" points="654.97 845.44 655.09 887.9 643.98 894.31 643.86 851.86 654.97 845.44"/></g><g id="Lager_3" data-name="Lager 3"><polygon class="cls-10" points="749.35 216.58 754.95 213.35 755.06 253.67 749.47 256.9 749.35 216.58"/><path class="cls-10" d="M744.77,234.83a8.53,8.53,0,0,1,2.3,4.13,17.2,17.2,0,0,1,.39,6.14l-18.67,10.78a9.93,9.93,0,0,0,.42,3,4.34,4.34,0,0,0,1.26,2.05,3.15,3.15,0,0,0,2.12.67,6.71,6.71,0,0,0,3-1.06,12.23,12.23,0,0,0,4-3.5,14.48,14.48,0,0,0,2.23-4.93l5.31-3.06a21.86,21.86,0,0,1-1.52,5.11,25.44,25.44,0,0,1-2.59,4.64,24.81,24.81,0,0,1-3.41,3.89,23,23,0,0,1-4,2.94,13.48,13.48,0,0,1-5.32,1.93,5.8,5.8,0,0,1-3.91-.9,6.81,6.81,0,0,1-2.43-3.47,17.8,17.8,0,0,1-.82-5.75,25.15,25.15,0,0,1,.84-6.4,29.4,29.4,0,0,1,2.45-6.33,27.75,27.75,0,0,1,3.84-5.58,20.64,20.64,0,0,1,5.11-4.2,10.46,10.46,0,0,1,5.38-1.66A5.85,5.85,0,0,1,744.77,234.83Zm-16,16.82,13.07-7.54a8.4,8.4,0,0,0-.57-2.62,3.76,3.76,0,0,0-1.29-1.71,3.12,3.12,0,0,0-2-.56,5.4,5.4,0,0,0-2.59.84,11.28,11.28,0,0,0-2.67,2.13A14.37,14.37,0,0,0,730.7,245a16,16,0,0,0-1.37,3.25,12.83,12.83,0,0,0-.56,3.38"/><polygon class="cls-10" points="722.02 248.03 707.53 276.02 722.81 267.19 722.83 272.28 700.46 285.19 700.45 280.67 714.45 252.96 701.38 260.51 701.36 255.43 722 243.51 722.02 248.03"/><polygon class="cls-10" points="671.6 273.04 680.09 273.82 680.1 277 674.05 284.54 674.07 292.7 671.66 295.7 669.27 295.47 669.25 287.31 663.17 286.77 663.16 283.59 671.6 273.04"/><polygon class="cls-10" points="661.82 287.71 668.5 288.31 668.53 297.22 661.87 305.53 655.16 304.94 655.14 296.02 661.82 287.71"/><path class="cls-9" d="M671.57,261.37C684,254.2,694.1,260,694.14,274.23s-10,31.68-22.43,38.85-22.53,1.41-22.57-12.87S659.14,268.54,671.57,261.37Zm2.5,31.33,0-8.16L680.1,277v-3.18L671.6,273l-8.44,10.55v3.18l6.08.54,0,8.16,2.39.23,2.41-3m-5.54,4.52,0-8.91-6.68-.6L655.14,296l0,8.92,6.71.59,6.66-8.31m13-3,6.65-8.3,0-8.92-6.67-.6-6.69,8.32,0,8.91,6.71.59"/><polygon class="cls-10" points="681.48 276.36 688.15 276.96 688.18 285.88 681.53 294.18 674.82 293.59 674.79 284.68 681.48 276.36"/></g></svg>