<svg id="Layer_1" data-name="Layer 1" xmlns="http://www.w3.org/2000/svg" viewBox="0 0 1400 1400"><defs><style>.cls-1{fill:#e5e5e5;}.cls-2{fill:#325ba5;}.cls-3{fill:#fff;}</style></defs><title>chat</title><polygon class="cls-1" points="565.61 624.86 565.86 711.77 501.23 749.09 490.09 768.37 478.89 761.98 414.26 799.3 414.01 712.39 565.61 624.86"/><polygon class="cls-2" points="414.26 799.3 406.89 795.02 406.64 708.11 414.01 712.39 414.26 799.3"/><polygon class="cls-2" points="414.01 712.39 406.64 708.11 558.25 620.58 565.61 624.86 414.01 712.39"/><path class="cls-2" d="M433.33,740.45l113.19-64.76a5.58,5.58,0,0,0,2.51-4.34c0-1.61-1.13-2.26-2.52-1.47L433.34,734.63a5.59,5.59,0,0,0-2.53,4.35C430.81,740.59,431.94,741.24,433.33,740.45Z"/><path class="cls-3" d="M433.3,729.69l113.17-64.75a5.58,5.58,0,0,0,2.53-4.35c0-1.6-1.13-2.26-2.53-1.46L433.29,723.88a5.58,5.58,0,0,0-2.51,4.35C430.78,729.83,431.91,730.48,433.3,729.69Z"/><path class="cls-2" d="M433.36,751.21l113.17-64.75a5.59,5.59,0,0,0,2.53-4.35c0-1.61-1.13-2.26-2.52-1.47L433.37,745.39a5.58,5.58,0,0,0-2.53,4.35C430.84,751.35,432,752,433.36,751.21Z"/><path class="cls-2" d="M546.57,691.4,433.38,756.16a5.58,5.58,0,0,0-2.51,4.34c0,1.6,1.13,2.26,2.52,1.46l113.19-64.75a5.58,5.58,0,0,0,2.51-4.35C549.09,691.26,548,690.61,546.57,691.4Z"/></svg>