<svg id="Layer_1" data-name="Layer 1" xmlns="http://www.w3.org/2000/svg" viewBox="0 0 1400 1400"><defs><style>.cls-1{fill:#36c9a5;}.cls-2{fill:#fed22c;}.cls-3{fill:#bb3c88;}.cls-4{fill:#183c87;}</style></defs><title>circles</title><path class="cls-1" d="M578.2,490.32C576.44,521.09,555,557,528.63,572.18s-47.94,4.2-49.87-24.45L487,543c1.9,23.43,19.81,32.33,41.59,19.76s39.59-42.1,41.35-67.64Z"/><path class="cls-2" d="M528.3,457.61c26.33-15.19,48-4.19,49.88,24.45l-8.26,4.76c-1.89-23.43-19.81-32.33-41.59-19.76S488.75,509.16,487,534.7l-8.25,4.77C480.5,508.7,502,472.81,528.3,457.61Z"/><path class="cls-3" d="M662.81,380c8.7-5,16.88-7.18,24-6.79l-4.47,10.55c-5.82-.2-12.47,1.61-19.52,5.68-23,13.28-41.57,45.46-41.5,71.87,0,15.35,6.39,25.37,16.19,28.47l-4.46,10.56c-12.07-3.51-19.9-15.6-20-34.28C613,434.39,635.28,395.85,662.81,380Z"/><path class="cls-4" d="M692.87,374.18c12.07,3.51,19.9,15.6,20,34.28.09,31.63-22.15,70.16-49.68,86.06-8.71,5-16.89,7.18-24,6.79l4.46-10.55c5.83.2,12.47-1.61,19.53-5.69,23-13.27,41.57-45.45,41.49-71.87,0-15.35-6.38-25.36-16.19-28.46Z"/><path class="cls-3" d="M352.51,620.62c1.9,23.43,19.81,32.34,41.59,19.76,13-7.48,24.52-21,32.12-36l6.82,1.43c-9.1,18.42-23.14,35-38.91,44.07-26.33,15.2-47.95,4.2-49.87-24.44Z"/><path class="cls-4" d="M393.8,535.27c27.53-15.89,49.92-3.13,50,28.5,0,10.54-2.42,21.85-6.72,32.83l-6.82-1.43a75.36,75.36,0,0,0,5.32-26.65c-.07-26.42-18.77-37.08-41.76-23.8-21.78,12.57-39.59,42.1-41.34,67.64l-8.26,4.76C346,586.35,367.48,550.47,393.8,535.27Z"/></svg>