<svg xmlns="http://www.w3.org/2000/svg" viewBox="0 0 1600 1200"><defs><style>.cls-1{fill:#112956;}.cls-2{fill:#183c87;}.cls-3{fill:#fec377;}.cls-4{fill:#884d01;}.cls-5{fill:#57565c;}.cls-6{fill:#008778;}.cls-7{fill:#02665a;}.cls-8{fill:#ffb657;}.cls-9{fill:#00ab95;}.cls-10{fill:#806749;}.cls-11{fill:#fff;}</style></defs><title>man</title><g id="Man"><path class="cls-1" d="M925.51,512.83l.33,0a10,10,0,0,0-.06,1.36v14.72c0,2.42.24,2.84,2.32,4l33.46,19.31a10.31,10.31,0,0,0,1,.53l.09.54,1.22-.59-.38.22h0a2.89,2.89,0,0,0,.81-2.26V536c0-2.41-.25-2.83-2.33-4l-33.46-19.31c-1-.6-1.62-.87-1.94-.69l-1.13.57Z"/><path class="cls-1" d="M952.89,547.31c-2.19-1.26-4.43-1.84-5.81,2.72-1.31,4.32-1.59,17.7-2.21,18.88-.09.15-.71.37-.71.37-.66-1.93-.43-16.1-1.74-21.94-1.38-6.16-3.83-8.28-5.81-9.43l7.71-3.29Z"/><path class="cls-2" d="M925.08,514.53c0-2.41.25-2.55,2.34-1.35l33.45,19.32c2.09,1.21,2.33,1.62,2.33,4v14.73c0,2.41-.24,2.55-2.33,1.35l-33.45-19.32c-2.09-1.2-2.34-1.62-2.34-4Z"/><path class="cls-2" d="M952.28,547.61c-2.19-1.26-4.43-1.85-5.81,2.72s-1.57,19.38-2.33,18.94-.94-15.46-2.33-21.63-3.82-8.28-5.81-9.42l7.72-3.29Z"/><path class="cls-3" d="M971.57,493.21s-.43,4.11-.18,4.37a5.7,5.7,0,0,0,1.71,1c.29,0,2.34-.79,2.58-1.33a2.74,2.74,0,0,0-.53-2.34,3.74,3.74,0,0,1-.59-2.23Z"/><path class="cls-4" d="M976.32,539.17s-7,6.8-5.45,7.75c2.1,1.33,10.65-4.13,10.65-4.57s-.61-4.7-.61-4.7Z"/><path class="cls-4" d="M985.75,544.4S979,551.74,981,553s10-5,10-5.46-.6-4.69-.6-4.69Z"/><path class="cls-5" d="M974.83,497l-.16,42.91s-.1,1.25,3.26,1.25,3.53-1.6,3.53-1.6l.89-31.08.17,0,1.75,36.75s-.21,1,3.15,1,3.53-1.6,3.53-1.6l.33-46.17Z"/><path class="cls-3" d="M977.19,464.46c-.49-.06-3.41.51-4,5-.2,1.61-.6,7.32-.81,12.71-.24,6.17-.84,11-.84,11,0,1.41,2.47,2.46,3.51,1.43a61.91,61.91,0,0,0,2-13.88C977.16,472.7,980.62,464.82,977.19,464.46Z"/><path class="cls-6" d="M977.17,464.46c-.5-.06-3.51.37-4,5.05-.18,1.63-.61,7.42-.82,12.87v.07a5.42,5.42,0,0,0,4.62.8c.06-.77.09-1.54.1-2.29C977.14,472.81,980.64,464.82,977.17,464.46Z"/><path class="cls-6" d="M974.31,496.7s-.44-7.22-.33-13.87c.09-5.58-.46-11.09-.44-12.48.06-3.44,2.23-5.88,3.5-5.9a34,34,0,0,1,16.25,6.49s-.78,28.83-1.76,29.16C983.42,502.86,974.63,498.2,974.31,496.7Z"/><path class="cls-7" d="M991.27,491.86c0-.41,0-.8,0-1.18l-.13,0c-.11-5.28-.38-8.44-.59-10.72l-.37,20.57c.4-.1.8-.21,1.2-.34C991.35,498.26,991.32,495.52,991.27,491.86Z"/><path class="cls-8" d="M980.46,462.81s-.47,3.52-.69,5.46c-.17,1.43.75,2.41,2.73,2a8.13,8.13,0,0,0,4.28-2.29,30.82,30.82,0,0,1-.85-7.51Z"/><path class="cls-9" d="M986.53,467a.58.58,0,0,1-.13.55,10.39,10.39,0,0,1-4.53,2.77l.9,3s4.65-3.49,4.58-5.07a2.91,2.91,0,0,0-1-2Z"/><path class="cls-9" d="M979.93,466.89a6.69,6.69,0,0,0-1.08,2.21,6,6,0,0,0,.54,3.49l1.2-2.47a7,7,0,0,1-.76-1.56A10.52,10.52,0,0,1,979.93,466.89Z"/><path class="cls-3" d="M975.85,457s.45,6.61,2,7.79,6.57.05,9.34-4.67c2.31-3.94,1.35-11.66-3.62-12.48C977.8,446.72,975.51,451.11,975.85,457Z"/><path class="cls-10" d="M983.61,452.55a8.6,8.6,0,0,1-4.36.46,5.91,5.91,0,0,1-4.9-3.27c.43-.25,7.13-2.86,9.42-2.33,1.1.25,3.27,1,3,2.38C986.45,451,984.68,452.09,983.61,452.55Z"/><path class="cls-10" d="M984.53,451.56c-.49,1.43.22,3,.64,4.41a11.37,11.37,0,0,1,.13,3.82,9,9,0,0,1,.61-1.91c.26-.63.63-1.29,1.12-1.29s.54.65.54,1.19a7.88,7.88,0,0,1-1.33,4,8.63,8.63,0,0,0,3.21-5.11,9.36,9.36,0,0,0-1.17-5.9c-.44-.74-1-1.44-1.93-1.08A3.51,3.51,0,0,0,984.53,451.56Z"/><path class="cls-3" d="M991.42,503s-.08,2.52,0,3a2.06,2.06,0,0,0,.59,1s0,1.16.4,1.5,3.07-.93,3.47-1.35c.56-.57-.13-4.74-.13-4.74S992.07,500.92,991.42,503Z"/><path class="cls-3" d="M993.29,470.94a4,4,0,0,0-2.88,3.93c-.13,3.28.72,6.32.86,17,.11,7.93.11,11.55.11,11.55s1.26,1.35,4.36-1c0,0,.51-14.64.47-16.58C996,473.76,995.47,472.25,993.29,470.94Z"/><path class="cls-6" d="M996.26,490c0-1.65,0-3.17,0-3.66-.21-12.45-.27-14-3-15.36a4.18,4.18,0,0,0-3,4.06c-.13,3.25.67,5.65.87,15.65C992.4,491,996.29,491.42,996.26,490Z"/><path class="cls-3" d="M985.3,459.75s.52-3.65,1.6-3.69c.77,0,1.1,1.54.54,2.75a7.56,7.56,0,0,1-2.14,2.33v-1.39Z"/><polygon class="cls-11" points="934.01 523.72 934.02 524.24 930.9 527.79 930.9 527.83 934.14 529.62 934.16 530.34 929.93 528 929.92 527.5 933.06 523.93 933.06 523.9 930.12 522.27 930.11 521.56 934.01 523.72"/><path class="cls-11" d="M938.28,530a3.18,3.18,0,0,1,0,.38l-2.92-1.61a2.81,2.81,0,0,0,1.44,2.42,2.71,2.71,0,0,0,1.16.4l.13.69a3.28,3.28,0,0,1-1.38-.48,4.11,4.11,0,0,1-2.08-3.52c0-1.43.71-2.14,1.92-1.47A3.8,3.8,0,0,1,938.28,530Zm-2.95-1.85,2.21,1.23a2.3,2.3,0,0,0-1.07-2c-.76-.42-1.08.2-1.14.76"/><polygon class="cls-11" points="939.91 526.65 940.01 533.59 939.26 533.17 939.15 526.23 939.91 526.65"/><path class="cls-11" d="M942.91,528.55a4.56,4.56,0,0,1,1.29,1l-.2.58a4.07,4.07,0,0,0-1.1-.93c-.79-.43-1.09-.07-1.08.38,0,.62.37,1.12,1.17,1.92a4,4,0,0,1,1.51,2.74c0,1-.64,1.54-2,.78a5.42,5.42,0,0,1-1.48-1.24l.18-.61a4.8,4.8,0,0,0,1.35,1.17c.76.43,1.2.21,1.19-.45a2.77,2.77,0,0,0-1.11-1.91,4.07,4.07,0,0,1-1.55-2.72C941.05,528.28,941.79,527.93,942.91,528.55Z"/><path class="cls-11" d="M946.32,531l0,1.36,1.08.6v.65l-1.08-.6,0,2.56a1.28,1.28,0,0,0,.59,1.23,1.71,1.71,0,0,0,.43.18l0,.67a1.92,1.92,0,0,1-.66-.26,2,2,0,0,1-.82-.81,2.84,2.84,0,0,1-.32-1.4l0-2.58-.64-.35v-.65l.64.35,0-1.14Z"/><path class="cls-11" d="M950,534.31a4.22,4.22,0,0,1,2,3.55c0,1.74-1,1.92-2,1.36a4.26,4.26,0,0,1-2-3.54C947.93,534.1,948.83,533.67,950,534.31Zm0,4.28c.72.4,1.25-.07,1.24-1.13A3,3,0,0,0,950,535c-.9-.5-1.27.23-1.26,1.13a3,3,0,0,0,1.29,2.51"/><path class="cls-11" d="M954.78,537a1.21,1.21,0,0,1,.22.15v.81l-.26-.17c-.54-.29-.91,0-1,.54,0,.11,0,.24,0,.38l0,2.53-.75-.42,0-3.25c0-.56,0-1-.05-1.5l.66.37,0,.94,0,0A.72.72,0,0,1,954.78,537Z"/><path class="cls-11" d="M959.06,541.56a1.43,1.43,0,0,1,0,.39l-2.92-1.62a2.83,2.83,0,0,0,1.45,2.42,2.68,2.68,0,0,0,1.15.4l.14.69a3.23,3.23,0,0,1-1.38-.48,4.1,4.1,0,0,1-2.08-3.51c0-1.43.7-2.14,1.92-1.47A3.74,3.74,0,0,1,959.06,541.56Zm-2.94-1.84,2.21,1.22a2.28,2.28,0,0,0-1.07-2c-.76-.42-1.08.19-1.14.76"/></g></svg>