<svg xmlns="http://www.w3.org/2000/svg" viewBox="0 0 1600 1200"><defs><style>.cls-1{fill:#227761;}.cls-2{fill:#36c9a5;}.cls-3{fill:#fff;}</style></defs><title>nodes</title><g id="Nodes"><path class="cls-1" d="M945,752.14l.33,0a10,10,0,0,0-.06,1.36v14.73c0,2.41.24,2.83,2.32,4l33.46,19.32c.39.23.72.4,1,.53l.09.53,1.22-.58-.37.21h0a2.9,2.9,0,0,0,.81-2.27V775.29c0-2.41-.24-2.83-2.33-4L948,751.94c-1-.6-1.62-.86-1.94-.68l-1.13.57Z"/><path class="cls-1" d="M972.4,786.62c-2.19-1.26-4.43-1.84-5.81,2.72-1.31,4.33-1.58,17.7-2.21,18.88-.08.15-.71.37-.71.37-.66-1.93-.43-16.1-1.74-21.93-1.38-6.17-3.82-8.29-5.81-9.43l7.71-3.29Z"/><path class="cls-2" d="M944.6,753.84c0-2.41.24-2.55,2.33-1.34l33.45,19.31c2.09,1.21,2.33,1.62,2.33,4v14.73c0,2.41-.24,2.54-2.33,1.34l-33.45-19.31c-2.09-1.21-2.33-1.63-2.33-4Z"/><path class="cls-2" d="M971.79,786.93c-2.19-1.27-4.42-1.85-5.81,2.72s-1.57,19.37-2.32,18.94-.95-15.47-2.33-21.63-3.83-8.29-5.82-9.43l7.72-3.29Z"/><polygon class="cls-3" points="952.13 763.85 952.14 764.37 949.02 767.93 949.02 767.96 952.26 769.75 952.27 770.46 948.04 768.12 948.04 767.62 951.17 764.06 951.17 764.03 948.23 762.4 948.22 761.68 952.13 763.85"/><path class="cls-3" d="M956.39,770.16a1.43,1.43,0,0,1,0,.39l-2.92-1.62a2.85,2.85,0,0,0,1.46,2.43,2.6,2.6,0,0,0,1.14.39l.14.69a3.32,3.32,0,0,1-1.38-.47,4.11,4.11,0,0,1-2.08-3.52c0-1.43.7-2.15,1.92-1.47A3.74,3.74,0,0,1,956.39,770.16Zm-.73-.62a2.25,2.25,0,0,0-1.06-2c-.77-.42-1.09.2-1.14.76l2.2,1.22"/><polygon class="cls-3" points="958.03 766.77 958.13 773.71 957.37 773.29 957.27 766.35 958.03 766.77"/><path class="cls-3" d="M963.68,770.25l.1,6.59-.76-.42-1.88-4.36c-.42-1-.82-1.92-1.12-2.8h0c0,.85.09,1.65.1,2.74l0,2.82-.7-.39-.1-6.59.82.45,1.9,4.36c.45,1,.79,1.9,1.07,2.72h0c-.08-.91-.11-1.73-.12-2.75l0-2.76Z"/><path class="cls-3" d="M966.75,773.69a4.23,4.23,0,0,1,2,3.54c0,1.76-1,1.93-2,1.37a4.24,4.24,0,0,1-2-3.54C964.7,773.47,965.6,773.05,966.75,773.69Zm0,4.28c.72.4,1.25-.07,1.24-1.14a3.06,3.06,0,0,0-1.27-2.51c-.9-.49-1.27.23-1.26,1.13a3,3,0,0,0,1.29,2.52"/><path class="cls-3" d="M973.35,780.93c0,.43,0,.91,0,1.25l-.67-.38-.05-.84h0c-.22.4-.72.53-1.4.15a4.08,4.08,0,0,1-1.82-3.4c0-1.58.82-2.07,1.84-1.51a3.05,3.05,0,0,1,1.26,1.42l0,0,0-2.83.76.42Zm-.76-1.18v-.82a1.89,1.89,0,0,0-.05-.38,2.48,2.48,0,0,0-1.1-1.6c-.78-.43-1.24.09-1.22,1.14a2.8,2.8,0,0,0,1.26,2.43c.5.28,1,.16,1.08-.41a1.28,1.28,0,0,0,0-.36"/><path class="cls-3" d="M978,782.11a3.25,3.25,0,0,1,0,.39L975,780.88a2.88,2.88,0,0,0,1.46,2.44,2.55,2.55,0,0,0,1.14.38l.14.69a3.32,3.32,0,0,1-1.38-.47,4.11,4.11,0,0,1-2.08-3.52c0-1.42.71-2.14,1.92-1.47A3.78,3.78,0,0,1,978,782.11ZM975,780.27l2.2,1.22a2.29,2.29,0,0,0-1.06-2c-.77-.42-1.09.2-1.14.76"/><path class="cls-1" d="M582.86,325.47l.33,0a10,10,0,0,0-.06,1.36v14.73c0,2.41.24,2.83,2.32,4l33.46,19.32c.39.23.72.4,1,.53l.09.53,1.22-.58-.38.21h0a2.89,2.89,0,0,0,.8-2.26V348.62c0-2.41-.24-2.83-2.33-4l-33.45-19.31c-1-.6-1.62-.86-1.94-.68l-1.13.56Z"/><path class="cls-1" d="M610.24,360c-2.19-1.26-4.43-1.84-5.81,2.72-1.31,4.33-1.59,17.7-2.21,18.88-.09.15-.71.37-.71.37-.66-1.93-.43-16.1-1.74-21.93-1.38-6.17-3.83-8.29-5.81-9.43l7.71-3.29Z"/><path class="cls-2" d="M582.43,327.17c0-2.41.25-2.55,2.34-1.34l33.45,19.31c2.09,1.21,2.33,1.62,2.33,4v14.73c0,2.41-.24,2.54-2.33,1.34l-33.45-19.32c-2.09-1.2-2.34-1.62-2.34-4Z"/><path class="cls-2" d="M609.63,360.26c-2.19-1.27-4.43-1.85-5.81,2.71s-1.57,19.38-2.33,18.95-.94-15.47-2.33-21.63-3.82-8.29-5.81-9.43l7.72-3.29Z"/><polygon class="cls-3" points="589.97 337.18 589.98 337.7 586.86 341.25 586.86 341.28 590.1 343.08 590.11 343.79 585.88 341.45 585.88 340.95 589.01 337.38 589.01 337.36 586.07 335.73 586.06 335.01 589.97 337.18"/><path class="cls-3" d="M594.23,343.49a1.9,1.9,0,0,1,0,.38l-2.92-1.61a2.86,2.86,0,0,0,1.45,2.43,2.82,2.82,0,0,0,1.15.4l.14.68a3.17,3.17,0,0,1-1.38-.47,4.12,4.12,0,0,1-2.08-3.53c0-1.42.7-2.13,1.92-1.46A3.74,3.74,0,0,1,594.23,343.49Zm-2.94-1.85,2.21,1.23a2.27,2.27,0,0,0-1.07-2c-.76-.42-1.08.19-1.14.75"/><polygon class="cls-3" points="595.87 340.1 595.97 347.04 595.21 346.62 595.11 339.68 595.87 340.1"/><path class="cls-3" d="M601.52,343.58l.1,6.59-.76-.42L599,345.38c-.41-.95-.81-1.92-1.12-2.79h0c0,.86.09,1.66.1,2.75l0,2.82-.71-.39-.09-6.59.82.45,1.9,4.36c.45,1,.78,1.89,1.07,2.72h0c-.08-.92-.11-1.73-.13-2.75l0-2.76Z"/><path class="cls-3" d="M604.59,347a4.21,4.21,0,0,1,2,3.54c0,1.75-1,1.92-2,1.37a4.27,4.27,0,0,1-2-3.54C602.54,346.8,603.43,346.38,604.59,347Zm0,4.28c.72.4,1.25-.07,1.23-1.14a3,3,0,0,0-1.27-2.51c-.89-.49-1.26.23-1.25,1.13a3,3,0,0,0,1.29,2.52"/><path class="cls-3" d="M611.19,354.27c0,.42,0,.9,0,1.23l-.67-.37-.05-.84h0c-.22.4-.73.52-1.4.14a4,4,0,0,1-1.82-3.39c0-1.58.82-2.06,1.83-1.5a3,3,0,0,1,1.27,1.41h0l0-2.82.76.42Zm-.76-1.18v-.82a2.78,2.78,0,0,0,0-.39,2.46,2.46,0,0,0-1.1-1.6c-.78-.44-1.24.09-1.22,1.14a2.82,2.82,0,0,0,1.25,2.43c.51.28,1,.15,1.09-.42a1.18,1.18,0,0,0,0-.34"/><path class="cls-3" d="M615.8,355.44c0,.17,0,.3,0,.39l-2.93-1.62a3,3,0,0,0,2.6,2.83l.14.68a3.13,3.13,0,0,1-1.38-.47,4.11,4.11,0,0,1-2.08-3.52c0-1.43.71-2.14,1.92-1.47A3.78,3.78,0,0,1,615.8,355.44Zm-2.95-1.84,2.21,1.22a2.28,2.28,0,0,0-1.07-2c-.76-.42-1.08.2-1.14.76"/></g></svg>