<svg id="Layer_1" data-name="Layer 1" xmlns="http://www.w3.org/2000/svg" viewBox="0 0 1400 1400"><defs><style>.cls-1{fill:#e9b488;}.cls-2{fill:#fcf1e0;}.cls-3{fill:#fed22c;}.cls-4{fill:#713d22;}.cls-5{fill:#36c9a5;}.cls-6{fill:#2b2d27;}.cls-7{fill:#031e6c;}.cls-8{fill:#bb3c88;}.cls-9{fill:#562d1b;}.cls-10{isolation:isolate;}.cls-11{fill:#f7f7f7;}.cls-12{fill:#e8e8e8;}.cls-13{fill:#b8c4cb;}.cls-14{fill:#2cc4a7;}.cls-15{fill:#299176;}.cls-16{fill:#a88063;}.cls-17{fill:#713d23;}.cls-18{fill:#a78264;}.cls-19{fill:#ad9328;}.cls-20{fill:#a9d6ff;}.cls-21{fill:#325ba5;}</style></defs><title>people</title><path class="cls-1" d="M751.1,802.11a189.54,189.54,0,0,1-28.82-24.54s-9.08-.55-14.58-4.68-5.5-4.4-6.32-6.33-2.2-6.87-2.2-6.87-6.6-2.2-8.53-5.23,3.58-2.75,7.7-1.1S712.1,760,712.1,760s11,4.4,14.31,6.6,31.35,17.61,31.35,17.61Z"/><path class="cls-2" d="M789.61,974.77s-12-1.13-19.11-1.88c0,0-6-1-6.36,4.56s3,9.66,12.73,14.52l12.74,5.61s4.82,3.36,9.31,3.36,7.85-1.49,8.23-4.86v-28.8Z"/><path class="cls-2" d="M813.64,958s-12-1.14-19.11-1.88c0,0-6-1-6.35,4.55s3,9.66,12.73,14.52l12.73,5.61s4.83,3.36,9.32,3.36,7.85-1.49,8.22-4.86V950.46Z"/><path class="cls-3" d="M776.85,837.52l-3.74-.74S772,862.21,775,880.9s4.87,35.91,9.35,57.22a132.24,132.24,0,0,1,2.25,39.27,9.53,9.53,0,0,0,7.1,9.35c7.48,2.24,13.47-4.86,13.47-4.86s-1.13-58.72-1.5-66.2-4.11-20.19-4.11-20.19a87.92,87.92,0,0,1,7.1,21.69V964.3s.75,6,10.1,7.11,12.44-7.48,12.44-7.48v-40s-1.41-12.78-3-24.53a105,105,0,0,1,.13-29.47c2-13.32,4.13-32.33,2.88-43.23C829.21,826.3,776.85,837.52,776.85,837.52Z"/><path class="cls-1" d="M781,701.77V716s-1.5,13.09,6.73,13.09v11.22h20.57V728l-17.58-29.17-9.83-2.62Z"/><path class="cls-4" d="M781,701.77s1.12,0,2.61,2.25a27.62,27.62,0,0,1,2.62,6.73s2.25-.38,3.37,3l1.12,3.36s6.36,1.87,8.23,6,4.86,5.61,9.35,4.86c0,0,4.48-.75,7.48-7.85s4.86-17.58-1.87-25.43-10.85-9-21.69-9S777.24,697.37,781,701.77Z"/><path class="cls-5" d="M794.56,737.3s-8.73,2.24-21.07,12.71-22.44,34-22.44,34-4.86,9.35-2.24,15c0,0,3,5.61,7.1,5.61s12.82-9.72,15.39-13.08,4.43-5.61,4.43-5.61.75,11.21,0,18.69-2.62,32.17-2.62,32.17.16,16.82,7.75,23.93,19.93.37,29.65-3.74,16.46-10.84,18.7-14.58,3-22.44,0-32.91-5.24-23.19-3-34.78,7.48-25.43,2.24-37.4S808.82,729.85,794.56,737.3Z"/><path class="cls-1" d="M523.06,830l-1.45-.08v-6.14s0,1.08-4.33,5.24-4.35,10.83-4.35,10.83v23l7.89-1.63V835.55s3.37-.87,4.07-2.8l0-.06A2,2,0,0,0,523.06,830Z"/><path class="cls-6" d="M462.61,1054s-9.09,3.7-12.45,11.77c0,0-.73,10.43,9.9,22.21s15,14.92,18.86,12-1.85-24.42-1.85-24.42l-3-10.77Z"/><path class="cls-6" d="M492.66,1096l2.58,1.34s11.11,12.12,14.47,16.15,4.71,6.4,3.7,10.44c0,0-3,5-15.62,1.34s-23.41-19.85-23.41-19.85-2-3.7,4-8.08Z"/><path class="cls-7" d="M509,920.7s4,23.89,9.76,43.74,4.71,35.67,0,40.38-23.56,36.68-29.61,43.07-13.8,20.53-13.8,20.53-12.11-2-12.78-14.47c0,0,11.75-25.41,24.72-41S502,992.37,502,992.37s-17.28-27.72-19.85-43.74,5.21-24.23,5.21-24.23Z"/><path class="cls-7" d="M464.49,927.42s-6.26,15.49-3.9,32.65S473,1013,473,1013a116.73,116.73,0,0,0-2.36,35.92c1.95,18.69,7.74,48.45,7.74,48.45s9.76,5.72,16.82,0c0,0-4.71-65.95-5-73.69a43.28,43.28,0,0,1,2.46-15.14s6.29-39.7,4.94-45.76-8.41-42.06-8.41-42.06Z"/><path class="cls-8" d="M490.2,837.69s7.48-1.45,11,1.92,6.52,10.55,8.88,17.38,2.36,9.53,2.36,9.53v-7.4s5,1,8.41,1.35v24.22s-1,7.07-5.72,6.73-9.59-7.4-9.59-7.4.84,21.54,3.87,27.26a64.42,64.42,0,0,1,4,8.75s-6.39,14.8-19.51,14.8-31-8.08-31-8.08,6.26-11.44,6.83-18.84c0,0-1.78,2.69-6.83-3.7s-10.57-29.73-8.75-42.73c0,0,1.34-7.59,17.5-16.49C471.69,845,490.08,846.76,490.2,837.69Z"/><path class="cls-1" d="M499.62,896.79s7-5.77,10.27-7.94,8-2.54,10.93-9.58,10.19-8.13,9.65-11.93-10.84-2.16-14.27,0-5.06,10-11.57,13.59-8.67,4.12-8.67,4.12S493.16,892.45,499.62,896.79Z"/><path class="cls-1" d="M499.62,806.63s3.7,13.46,3,22.21-1.48,10.77-1.48,10.77a20.87,20.87,0,0,1-8.62,0v13.45s-3,5.05-8.75,3.71S471.69,845,471.69,845a15.63,15.63,0,0,0,5.05-13.18s-5.39,1.07-6.73-6,3.36-7.74,7.4-2.69C477.41,823.12,495.58,817.06,499.62,806.63Z"/><path class="cls-9" d="M499.57,806.84l.05-.21a10.94,10.94,0,0,0-6.73-9.42c-6.73-3-21.2-3.37-27.59,6s-2.69,17.39-3.37,28.55-3,15.87-10.77,19.91-7.73,26.92,3.37,28.26,31.14-14.13,31.72-32.64a55.29,55.29,0,0,1,7.21-25.22A59.42,59.42,0,0,0,499.57,806.84Z"/><path class="cls-1" d="M987.66,759s-8.23-.33-12.45-3.73-6.12-5.49-6.9-10.23,1.45-7.39,3.12-7.81,6,6.87,7.73,7.27-1.31-3.61.91-5.09,7.8,7.93,16.57,13.74S987.66,759,987.66,759Z"/><path class="cls-1" d="M939.21,777.24s-8.24-.34-12.46-3.74-6.12-5.49-6.9-10.23,1.45-7.39,3.12-7.8,6,6.86,7.73,7.26-1.31-3.61.91-5.09,7.8,7.93,16.57,13.75S939.21,777.24,939.21,777.24Z"/><path class="cls-3" d="M972.69,741s-3.28,8.41-5.21,22.87l-1.93,14.46-16.69-9.66s-10.3,2.47-10,11.58c0,0,18.09,13,24.06,16.6s9.72,7.79,14.81,2,9.34-25.1,9.22-27.46S972.69,741,972.69,741Z"/><g class="cls-10"><path class="cls-11" d="M1010.21,716.42c10.45,6,10.5,15.8.12,21.84L980.2,755.77c-10.38,6-27.25,6-37.7,0l-30.33-17.51c-10.44-6-10.5-15.81-.12-21.84l30.13-17.51c10.38-6,27.26-6,37.7,0Z"/><path class="cls-12" d="M1010.33,738.26,980.2,755.77c-10.38,6-27.25,6-37.7,0l-30.33-17.51c-5.25-3-7.88-7-7.87-11l-.06,22.06c0,4,2.61,8,7.87,11l30.33,17.51c10.44,6,27.32,6,37.7,0l30.13-17.51c5.16-3,7.74-6.92,7.75-10.85l.06-22.06C1018.07,731.34,1015.49,735.26,1010.33,738.26Z"/></g><path class="cls-13" d="M988.43,971.65l-4.88,1.08s-11.4-7.05-16.82-1.08c0,0-3.44,3.58,10.85,10.85,13.85,7,19.85,7,19.85,7s7.65-2.63,6.74-21.16h-11.4Z"/><polygon class="cls-14" points="993.96 700.51 989.38 703.17 989.34 716.78 993.92 714.12 993.96 700.51"/><polygon class="cls-15" points="936.41 703.17 931.8 700.51 931.76 714.12 936.37 716.78 936.41 703.17"/><path class="cls-15" d="M949.66,726.08a1.1,1.1,0,0,1,0-.18l0-.2c0-.05,0-.11,0-.17a1.05,1.05,0,0,1,0-.19,1.21,1.21,0,0,1,.05-.18l.06-.19a.87.87,0,0,1,.07-.17,1.19,1.19,0,0,1,.08-.2.89.89,0,0,1,.08-.17l.1-.2.09-.16.15-.24.09-.14.19-.26.08-.11c.11-.13.22-.27.34-.4a.94.94,0,0,0,.1-.1l.3-.3.15-.14.19-.16.18-.15.21-.17.2-.15.22-.15.21-.15.25-.15.3-.19.61-.33.18-.09.5-.23.16-.08.67-.27.11,0,.58-.2.24-.08.32-.1.28-.08.33-.08.28-.07.34-.08.28-.06.35-.07.26,0q.38-.08.75-.12l.11,0,.66-.08.26,0,.42,0h.27l.45,0h1.56c.42,0,.85,0,1.27.07h0c.42,0,.85.08,1.27.14l.11,0,.53.08.23,0,.41.08.21.05.45.1.24.06.41.11.22.06.63.2.11,0,.7.26.15.06.88.38.08,0,.88.46c2.61,1.51,3.92,3.5,3.91,5.48l0-13.61c0-2-1.3-4-3.92-5.48-.28-.16-.57-.31-.87-.46l-.08,0c-.29-.14-.58-.26-.88-.38l-.08,0-.07,0-.7-.26-.11,0-.63-.2-.1,0-.12,0-.41-.11-.24-.06-.45-.1-.17,0h0l-.41-.08-.23,0-.53-.08-.1,0h0c-.42-.06-.85-.11-1.28-.14h0c-.42,0-.84-.06-1.26-.07h-1.56l-.45,0h-.27l-.43,0h-.25l-.66.08-.11,0q-.37,0-.75.12H959l-.19,0-.35.06-.28.07-.34.07-.28.07-.33.09-.28.08-.32.1-.14,0-.1,0-.32.11,0-11.19,0-3.76L956,705v1.34l-.24.09-.12,0-.66.27-.17.08-.49.23-.18.09-.61.33-.16.1-.15.09-.24.15-.21.15-.22.15-.2.15-.21.16-.18.16-.19.16-.08.07a.46.46,0,0,0-.07.07l-.3.3-.1.1c-.12.13-.23.27-.34.4l0,0-.06.09-.19.26-.1.14-.14.24,0,.06s0,.07-.05.1a1.24,1.24,0,0,0-.1.2,1.19,1.19,0,0,0-.08.16l-.09.21,0,.09,0,.08-.06.19-.06.17c0,.07,0,.13,0,.2l0,.1s0,.05,0,.07l0,.2a1.1,1.1,0,0,0,0,.18c0,.06,0,.13,0,.2a.37.37,0,0,1,0,.11v.12l0,13.61c0-.08,0-.15,0-.23S949.65,726.14,949.66,726.08Z"/><path class="cls-15" d="M993.63,716.88c-.09.23-.19.46-.29.69l-.05.11c-.1.22-.21.44-.32.66a.75.75,0,0,0-.07.12c-.12.23-.25.45-.39.68v0c-.14.21-.28.43-.43.64l-.1.14c-.15.21-.3.42-.47.63l-.12.14-.43.51c-.05.07-.11.13-.17.2s-.31.34-.48.5l-.12.14c-.22.22-.45.44-.69.65l0,5.35-5,2.88-4.61-2.66c-.5.19-1,.36-1.51.52l-.48.16-.83.24a5.08,5.08,0,0,1-.52.15l-.86.23-.51.13-1,.23-.39.09-1.39.27-.86.14-.43.07-1.3.19v3.76H956.27l0-3.76-1-.14-.94-.15-.51-.08-1.09-.21-.34-.07c-.5-.1-1-.21-1.49-.33l-.4-.1-1.1-.29-.48-.14-1-.3-.43-.14c-.46-.15-.91-.3-1.36-.47l-4.58,2.66L936.5,728l0-5.3a16.43,16.43,0,0,1-3.5-4.32,12.12,12.12,0,0,1-.71-1.51h-6.49l-.05-7.88,0,13.61,0,7.88h6.14l0,8.5,9.64,5.56,4.58-2.66c.45.17.9.32,1.36.48l.44.13,1,.3.24.07.25.07,1.09.29.4.1,1.49.34h0l.29.05,1.09.21.51.08c.31.06.63.11.94.15l.26,0,.71.1,0,3.76h13.6V744.3l1.26-.17.43-.08.82-.13h0c.47-.08.93-.18,1.39-.27l.39-.09,1-.23.51-.13.86-.22.53-.15.82-.25.29-.09.19-.07c.51-.16,1-.33,1.51-.52l4.61,2.66,9.58-5.56,0-8.5h6l0-13.61Z"/><path class="cls-5" d="M993.63,716.88h6.49l0-7.88h-6.5a15.47,15.47,0,0,0-4.2-5.83l4.58-2.66-9.65-5.57-4.57,2.66a46.29,46.29,0,0,0-10.1-2.42l0-3.76H956l0,3.76A45.8,45.8,0,0,0,946,697.6l-4.61-2.66-9.58,5.57,4.61,2.66a15.06,15.06,0,0,0-4.14,5.83h-6.5l.05,7.88h6.49a15.4,15.4,0,0,0,4.21,5.83l-4.58,2.66,9.64,5.57,4.58-2.66a46.06,46.06,0,0,0,10.09,2.42l0,3.76h13.6l0-3.76a45.75,45.75,0,0,0,10.07-2.42l4.61,2.66,9.58-5.57-4.61-2.66A15.28,15.28,0,0,0,993.63,716.88Zm-21.26,1.5c-5.17,3-13.58,3-18.78,0s-5.23-7.87-.06-10.88,13.57-3,18.77,0S977.53,715.37,972.37,718.38Z"/><path class="cls-13" d="M1008.44,957.16l-4.88,1.09s-11.39-7-16.82-1.09c0,0-3.43,3.58,10.85,10.86,13.85,7.05,19.85,7.05,19.85,7.05s7.65-2.63,6.74-21.16h-11.39Z"/><path class="cls-7" d="M980.17,815.92l-6.93.54s-6.63,29.84,3.46,68.37,6.85,87.9,6.85,87.9,3.25,6,8.68,6,9.22-4.88,11.94-10.31V957.54s4.88,6,10.85,6a12.66,12.66,0,0,0,9.22-3.8V909.25s-1.62-16.82-3.79-28.22,7.59-39.61,5.42-57.52C1025.87,823.51,998,809.4,980.17,815.92Z"/><path class="cls-16" d="M981.38,690.57s-2.72,21.7,0,25.5,13.56,0,13.56,0V728s3.8,4.88,8.68,3.26,8.69-6.52,8.69-6.52V704.14Z"/><path class="cls-3" d="M994.94,728s-19,7-22.25,13-1.08,12.89,0,23.54,4.89,44.29.55,51.89c0,0,6.51,10.31,16.28,16.28s14.1,7,22.79,2.71a37.86,37.86,0,0,0,13.56-11.94s10.31-73.25,5.43-86.82-8.36-13.07-19-11.94A98.79,98.79,0,0,0,994.94,728Z"/><path class="cls-3" d="M1021.15,722.82s-3.29,8.41-5.21,22.87L1014,760.14l-16.69-9.65s-10.3,2.47-10,11.58c0,0,18.1,13,24.07,16.6s9.72,7.79,14.81,2,9.34-25.1,9.22-27.47S1021.15,722.82,1021.15,722.82Z"/><path class="cls-17" d="M989,697.62s-5.42-2.17-7.59-7-1.63-14.65,10.85-16.28,24.42,6,27.67,14.11,2.17,15.52,8.69,22.68,26,12.59,27.13,27.78-15.2,32-28.76,23.34-27.85-24.44-25-42.88S989,697.62,989,697.62Z"/><polygon class="cls-11" points="853.7 999.55 817.05 1019.41 857.81 1050.71 894.46 1030.84 853.7 999.55"/><path class="cls-1" d="M851.64,1054.07a64.47,64.47,0,0,1-8.87-2.18c-3.16-1.18-8.51-5.73-9.1-7.51s-1.39-9.11,0-10.69,6.52,4,8.6,5.74l2.08,1.78s-1.58-4.75-1.18-5.94,2.77-1.38,5.54,1.59,10.09,9.49,10.09,9.49Z"/><path class="cls-7" d="M899.9,1245.7,898,1247a28,28,0,0,1-9.64-.64c-5.14-1.29-10.92-1-10,3.85s9.32,8.68,12.85,10.28,10.6,3.86,11.57,5.14,2.57,3.22,8,1.93,5.7-3.53,5.7-3.53V1244.1Z"/><path class="cls-7" d="M931.39,1230.6s-6.43-3.21-8.68-2.89-4.81,3.86,0,9,6.75,7.39,8.68,11.24,3.21,6.75,7.71,6.43a13.07,13.07,0,0,0,3.72-.88,7.36,7.36,0,0,0,4.68-6.88v-10.26l-13.76-6.4Z"/><path class="cls-18" d="M887.05,1122l-1.48,4.89s.52,28.53,5,49.09,7.39,71,7.39,71,1,4.82,7.06,5.14,12.21-3.53,12.21-3.53,1-29.88,0-47.55-2-28.27.43-37.27c0,0,2.14,19.6,5.36,31.48s6.1,32.77,7.39,41.77c0,0,1.28,5.78,6.1,5.78s6.43-1,9.64-4.82c0,0,1.6-28.59,1.28-41.12s-7.07-29.88-7.07-29.88,1.61-45.27,1-57.51-22.17-20.88-22.17-20.88Z"/><path class="cls-1" d="M893.16,965.88v23.45s-.32,8,2.89,9.32,7.07,0,7.07,0v7.06s9.31,1.93,16.7-3.53v-7.39L908.26,971S896.37,963.63,893.16,965.88Z"/><path class="cls-7" d="M903.12,1005.71s-10.28,3.86-16.39,9.64-5.46,16.71-6.1,25.38a110.63,110.63,0,0,1-1.93,14.46s-16.71-10-18.63-10.6c0,0-10.61,2.25-8,12.53,0,0,12.86,9,19.92,13.81s13.5,9,18,9c0,0-1.6,9-4.49,19.92s-1.93,26-1.93,26,11.57,6.43,21.85,5.46,14.45-4.18,14.45-4.18l4.82-19.27v16.06s11.89-5.78,16.71-14.46c0,0-.64-18-1.93-24.09s7.39-28.92,10-37.91-3.53-37.59-6.1-43.37-12.85-11.25-23.46-6.11Z"/><path class="cls-19" d="M893.16,965.88a9.46,9.46,0,0,1,4.5-8.68c5.14-3.21,14.45-3.53,20.88,0s11.24,8.68,10.6,19.6-9.32,19.6-9.32,19.6-3.53,1-10.92-6.75-9.15-17.71-10.92-20.88A5.25,5.25,0,0,0,893.16,965.88Z"/><polygon class="cls-12" points="607.73 1078.46 607.61 1079.1 665.11 1045.91 748.76 1094.52 752.78 1091.19 755.11 1090.56 755.11 1098.21 688.84 1136.47 598.84 1084.17 598.84 1076.81 607.73 1078.46"/><polygon class="cls-11" points="598.84 1076.81 688.84 1129.11 755.11 1090.85 665.11 1038.55 598.84 1076.81"/><polygon class="cls-20" points="681.46 1119.07 737.79 1086.55 741.83 1088.89 685.5 1121.41 681.46 1119.07"/><polygon class="cls-20" points="672.8 1114.03 729.13 1081.51 733.16 1083.85 676.83 1116.38 672.8 1114.03"/><polygon class="cls-20" points="664.13 1108.99 720.46 1076.47 724.49 1078.82 668.16 1111.34 664.13 1108.99"/><polygon class="cls-20" points="655.46 1103.96 711.79 1071.43 715.82 1073.78 659.49 1106.3 655.46 1103.96"/><polygon class="cls-20" points="646.79 1098.92 703.12 1066.4 707.16 1068.74 650.83 1101.26 646.79 1098.92"/><polygon class="cls-20" points="638.13 1093.88 694.45 1061.36 698.49 1063.7 642.16 1096.23 638.13 1093.88"/><polygon class="cls-20" points="629.46 1088.84 685.78 1056.32 689.82 1058.67 633.49 1091.19 629.46 1088.84"/><polygon class="cls-20" points="620.79 1083.81 677.12 1051.29 681.15 1053.63 624.82 1086.15 620.79 1083.81"/><polygon class="cls-20" points="616.15 1081.12 612.12 1078.77 668.45 1046.25 672.48 1048.59 616.15 1081.12"/><polygon class="cls-12" points="607.73 1066.91 607.61 1067.56 665.11 1034.36 748.76 1082.97 752.78 1079.64 755.11 1079.02 755.11 1086.66 688.84 1124.93 598.84 1072.62 598.84 1065.26 607.73 1066.91"/><polygon class="cls-11" points="598.84 1065.26 688.84 1117.57 755.11 1079.3 665.11 1027 598.84 1065.26"/><polygon class="cls-20" points="681.46 1107.52 737.79 1075 741.83 1077.34 685.5 1109.87 681.46 1107.52"/><polygon class="cls-20" points="672.8 1102.48 729.13 1069.96 733.16 1072.31 676.83 1104.83 672.8 1102.48"/><polygon class="cls-20" points="664.13 1097.45 720.46 1064.92 724.49 1067.27 668.16 1099.79 664.13 1097.45"/><polygon class="cls-20" points="655.46 1092.41 711.79 1059.89 715.82 1062.23 659.49 1094.75 655.46 1092.41"/><polygon class="cls-20" points="646.79 1087.37 703.12 1054.85 707.16 1057.2 650.83 1089.72 646.79 1087.37"/><polygon class="cls-20" points="638.13 1082.34 694.45 1049.81 698.49 1052.16 642.16 1084.68 638.13 1082.34"/><polygon class="cls-20" points="629.46 1077.3 685.78 1044.78 689.82 1047.12 633.49 1079.64 629.46 1077.3"/><polygon class="cls-20" points="620.79 1072.26 677.12 1039.74 681.15 1042.08 624.82 1074.61 620.79 1072.26"/><polygon class="cls-20" points="616.15 1069.57 612.12 1067.22 668.45 1034.7 672.48 1037.05 616.15 1069.57"/><polygon class="cls-12" points="607.73 1055.36 607.61 1056.01 665.11 1022.81 748.76 1071.42 752.78 1068.1 755.11 1067.47 755.11 1075.12 688.84 1113.38 598.84 1061.08 598.84 1053.72 607.73 1055.36"/><polygon class="cls-11" points="598.84 1053.72 688.84 1106.02 755.11 1067.76 665.11 1015.46 598.84 1053.72"/><polygon class="cls-20" points="681.46 1095.97 737.79 1063.45 741.83 1065.8 685.5 1098.32 681.46 1095.97"/><polygon class="cls-20" points="672.8 1090.94 729.13 1058.42 733.16 1060.76 676.83 1093.28 672.8 1090.94"/><polygon class="cls-20" points="664.13 1085.9 720.46 1053.38 724.49 1055.72 668.16 1088.25 664.13 1085.9"/><polygon class="cls-20" points="655.46 1080.86 711.79 1048.34 715.82 1050.68 659.49 1083.21 655.46 1080.86"/><polygon class="cls-20" points="646.79 1075.83 703.12 1043.3 707.16 1045.65 650.83 1078.17 646.79 1075.83"/><polygon class="cls-20" points="638.13 1070.79 694.45 1038.27 698.49 1040.61 642.16 1073.13 638.13 1070.79"/><polygon class="cls-20" points="629.46 1065.75 685.78 1033.23 689.82 1035.58 633.49 1068.1 629.46 1065.75"/><polygon class="cls-20" points="620.79 1060.71 677.12 1028.19 681.15 1030.54 624.82 1063.06 620.79 1060.71"/><polygon class="cls-20" points="616.15 1058.02 612.12 1055.68 668.45 1023.15 672.48 1025.5 616.15 1058.02"/><polygon class="cls-12" points="607.73 1043.82 607.61 1044.46 665.11 1011.27 748.76 1059.88 752.78 1056.55 755.11 1055.92 755.11 1063.57 688.84 1101.83 598.84 1049.53 598.84 1042.17 607.73 1043.82"/><polygon class="cls-11" points="598.84 1042.17 688.84 1094.47 755.11 1056.21 665.11 1003.91 598.84 1042.17"/><polygon class="cls-20" points="681.46 1084.43 737.79 1051.91 741.83 1054.25 685.5 1086.77 681.46 1084.43"/><polygon class="cls-20" points="672.8 1079.39 729.13 1046.87 733.16 1049.21 676.83 1081.73 672.8 1079.39"/><polygon class="cls-20" points="664.13 1074.35 720.46 1041.83 724.49 1044.18 668.16 1076.7 664.13 1074.35"/><polygon class="cls-20" points="655.46 1069.32 711.79 1036.8 715.82 1039.14 659.49 1071.66 655.46 1069.32"/><polygon class="cls-20" points="646.79 1064.28 703.12 1031.76 707.16 1034.1 650.83 1066.62 646.79 1064.28"/><polygon class="cls-20" points="638.13 1059.24 694.45 1026.72 698.49 1029.06 642.16 1061.59 638.13 1059.24"/><polygon class="cls-20" points="629.46 1054.2 685.78 1021.68 689.82 1024.03 633.49 1056.55 629.46 1054.2"/><polygon class="cls-20" points="620.79 1049.17 677.12 1016.65 681.15 1018.99 624.82 1051.51 620.79 1049.17"/><polygon class="cls-20" points="616.15 1046.47 612.12 1044.13 668.45 1011.61 672.48 1013.95 616.15 1046.47"/><polygon class="cls-12" points="607.73 1032.27 607.61 1032.92 665.11 999.72 748.76 1048.33 752.78 1045 755.11 1044.38 755.11 1052.02 688.84 1090.29 598.84 1037.98 598.84 1030.62 607.73 1032.27"/><polygon class="cls-11" points="598.84 1030.62 688.84 1082.93 755.11 1044.66 665.11 992.36 598.84 1030.62"/><polygon class="cls-20" points="681.46 1072.88 737.79 1040.36 741.83 1042.7 685.5 1075.22 681.46 1072.88"/><polygon class="cls-20" points="672.8 1067.85 729.13 1035.32 733.16 1037.67 676.83 1070.19 672.8 1067.85"/><polygon class="cls-20" points="664.13 1062.81 720.46 1030.29 724.49 1032.63 668.16 1065.15 664.13 1062.81"/><polygon class="cls-20" points="655.46 1057.77 711.79 1025.25 715.82 1027.59 659.49 1060.11 655.46 1057.77"/><polygon class="cls-20" points="646.79 1052.73 703.12 1020.21 707.16 1022.56 650.83 1055.08 646.79 1052.73"/><polygon class="cls-20" points="638.13 1047.7 694.45 1015.17 698.49 1017.52 642.16 1050.04 638.13 1047.7"/><polygon class="cls-20" points="629.46 1042.66 685.78 1010.14 689.82 1012.48 633.49 1045 629.46 1042.66"/><polygon class="cls-20" points="620.79 1037.62 677.12 1005.1 681.15 1007.44 624.82 1039.96 620.79 1037.62"/><polygon class="cls-20" points="616.15 1034.93 612.12 1032.58 668.45 1000.06 672.48 1002.41 616.15 1034.93"/><polygon class="cls-12" points="607.73 1020.72 607.61 1021.37 665.11 988.17 748.76 1036.79 752.78 1033.46 755.11 1032.83 755.11 1040.48 688.84 1078.74 598.84 1026.44 598.84 1019.08 607.73 1020.72"/><polygon class="cls-11" points="598.84 1019.08 688.84 1071.38 755.11 1033.12 665.11 980.82 598.84 1019.08"/><polygon class="cls-21" points="681.46 1061.34 737.79 1028.81 741.83 1031.16 685.5 1063.68 681.46 1061.34"/><polygon class="cls-21" points="672.8 1056.3 729.13 1023.78 733.16 1026.12 676.83 1058.64 672.8 1056.3"/><polygon class="cls-21" points="664.13 1051.26 720.46 1018.74 724.49 1021.08 668.16 1053.61 664.13 1051.26"/><polygon class="cls-21" points="655.46 1046.22 711.79 1013.7 715.82 1016.05 659.49 1048.57 655.46 1046.22"/><polygon class="cls-21" points="646.79 1041.19 703.12 1008.66 707.16 1011.01 650.83 1043.53 646.79 1041.19"/><polygon class="cls-21" points="638.13 1036.15 694.45 1003.63 698.49 1005.97 642.16 1038.49 638.13 1036.15"/><polygon class="cls-21" points="629.46 1031.11 685.78 998.59 689.82 1000.93 633.49 1033.46 629.46 1031.11"/><polygon class="cls-21" points="620.79 1026.08 677.12 993.55 681.15 995.9 624.82 1028.42 620.79 1026.08"/><polygon class="cls-21" points="616.15 1023.38 612.12 1021.04 668.45 988.51 672.48 990.86 616.15 1023.38"/></svg>