<svg xmlns="http://www.w3.org/2000/svg" viewBox="0 0 1400 1400"><defs><style>.cls-1{fill:#232220;}.cls-2{fill:#fff;}.cls-3{fill:#bb3c88;}.cls-4{fill:#183c87;}.cls-5{fill:#36c9a5;}.cls-6{fill:#fed22c;}.cls-7{fill:#d14b4b;}.cls-8{fill:#f7b92f;}.cls-9{fill:#8dea34;}.cls-10{isolation:isolate;}</style></defs><title>terminal-01</title><g id="Layer_1" data-name="Layer 1"><path class="cls-1" d="M902.23,441.49c5.53-3.19,10-.63,10,5.71l.58,205.26c0,6.35-4.45,14.09-10,17.28L663.24,808.09c-5.52,3.19-10,.63-10-5.72l-.58-205.26c0-6.34,4.44-14.07,10-17.26Z"/><path class="cls-2" d="M907.27,447.22a4.07,4.07,0,0,0-.4-2.09h-.15a4.28,4.28,0,0,0-2,.7L665.09,584.18c-4,2.3-7.48,8.34-7.46,12.92l.07,25.83L907.36,478.79Z"/><path class="cls-2" d="M887.89,570c1.45-.84,2.62-.17,2.62,1.49a5.75,5.75,0,0,1-2.6,4.52l-67,38.67c-1.44.83-2.61.16-2.62-1.5a5.73,5.73,0,0,1,2.61-4.51Z"/><path class="cls-2" d="M887.81,543.42c1.45-.84,2.62-.16,2.63,1.49a5.75,5.75,0,0,1-2.61,4.52l-67,38.68c-1.44.83-2.62.15-2.62-1.5a5.74,5.74,0,0,1,2.6-4.52Z"/><path class="cls-2" d="M810.39,614.69c1.44-.83,2.62-.17,2.63,1.5a5.79,5.79,0,0,1-2.61,4.51l-32.28,18.63c-1.44.83-2.61.17-2.62-1.49a5.75,5.75,0,0,1,2.61-4.52Z"/><path class="cls-3" d="M835.76,586.09c1.45-.84,2.62-.16,2.63,1.49a5.75,5.75,0,0,1-2.61,4.52l-57.69,33.31c-1.44.83-2.61.15-2.62-1.5a5.75,5.75,0,0,1,2.61-4.52Z"/><path class="cls-2" d="M767.77,639.29c1.45-.83,2.63-.16,2.63,1.5a5.73,5.73,0,0,1-2.61,4.51l-13.76,8c-1.45.83-2.62.17-2.62-1.49a5.74,5.74,0,0,1,2.6-4.52Z"/><path class="cls-4" d="M888.55,647.68c1.44-.83,2.62-.17,2.63,1.5a5.79,5.79,0,0,1-2.61,4.51L683.29,772.2c-1.44.83-2.61.17-2.62-1.49a5.75,5.75,0,0,1,2.61-4.52Z"/><path class="cls-4" d="M888.51,634.91c1.45-.84,2.63-.17,2.63,1.49a5.76,5.76,0,0,1-2.61,4.51L683.26,759.43c-1.45.83-2.62.16-2.62-1.49a5.72,5.72,0,0,1,2.6-4.52Z"/><path class="cls-4" d="M888.48,622.13c1.44-.83,2.62-.17,2.62,1.49a5.71,5.71,0,0,1-2.61,4.52L683.22,746.66c-1.44.83-2.61.16-2.62-1.5a5.75,5.75,0,0,1,2.6-4.51Z"/><path class="cls-5" d="M768,651.81c1.44-.83,2.61-.16,2.62,1.5a5.75,5.75,0,0,1-2.6,4.51l-51.71,29.85c-1.45.84-2.62.17-2.62-1.49a5.75,5.75,0,0,1,2.6-4.52Z"/><path class="cls-4" d="M888.44,609.36c1.44-.83,2.62-.17,2.63,1.49a5.76,5.76,0,0,1-2.61,4.52L683.19,733.88c-1.45.84-2.62.17-2.62-1.5a5.75,5.75,0,0,1,2.6-4.51Z"/><path class="cls-4" d="M888.4,596.59c1.45-.84,2.63-.17,2.63,1.49a5.78,5.78,0,0,1-2.61,4.52L683.15,721.11c-1.44.83-2.62.16-2.62-1.5a5.74,5.74,0,0,1,2.6-4.51Z"/><path class="cls-6" d="M767.87,625.28c1.45-.83,2.62-.16,2.62,1.5a5.75,5.75,0,0,1-2.6,4.52l-51.71,29.85c-1.44.83-2.61.16-2.62-1.5a5.73,5.73,0,0,1,2.61-4.51Z"/><path class="cls-5" d="M706.68,687.18c1.45-.83,2.62-.17,2.63,1.5a5.75,5.75,0,0,1-2.61,4.51l-23.59,13.62c-1.44.84-2.62.17-2.62-1.49a5.74,5.74,0,0,1,2.6-4.52Z"/><path class="cls-2" d="M744.67,652.64c1.44-.84,2.61-.17,2.62,1.5a5.73,5.73,0,0,1-2.61,4.5l-61.61,35.58c-1.44.83-2.61.16-2.62-1.5a5.73,5.73,0,0,1,2.61-4.51Z"/><path class="cls-6" d="M706.61,660.65c1.45-.83,2.62-.16,2.62,1.5a5.74,5.74,0,0,1-2.61,4.52L683,680.29c-1.44.83-2.61.16-2.62-1.5a5.76,5.76,0,0,1,2.61-4.52Z"/><path class="cls-5" d="M744.59,626.11c1.45-.84,2.62-.16,2.62,1.5a5.74,5.74,0,0,1-2.6,4.51L683,667.69c-1.45.84-2.62.16-2.62-1.5a5.74,5.74,0,0,1,2.6-4.51Z"/><path class="cls-2" d="M810.32,588.16c1.44-.83,2.62-.16,2.62,1.5a5.74,5.74,0,0,1-2.61,4.52l-32.27,18.63c-1.44.83-2.62.16-2.62-1.5a5.75,5.75,0,0,1,2.6-4.52Z"/><path class="cls-3" d="M888.37,555.71c1.16-.66,2.1-.12,2.1,1.21v1.19a4.64,4.64,0,0,1-2.09,3.63L846.18,586.1c-1.16.68-2.1.14-2.11-1.2v-1.19a4.63,4.63,0,0,1,2.09-3.63Z"/><path class="cls-7" d="M675.38,590.23c2.42-1.39,4.39-.27,4.4,2.52a9.64,9.64,0,0,1-4.37,7.57c-2.43,1.4-4.4.28-4.41-2.5A9.64,9.64,0,0,1,675.38,590.23Z"/><path class="cls-8" d="M690.34,581.6c2.43-1.4,4.4-.28,4.41,2.51a9.65,9.65,0,0,1-4.38,7.57c-2.42,1.4-4.4.28-4.4-2.5A9.62,9.62,0,0,1,690.34,581.6Z"/><path class="cls-9" d="M705.31,573c2.42-1.4,4.4-.28,4.4,2.51a9.62,9.62,0,0,1-4.37,7.57c-2.43,1.4-4.4.28-4.41-2.5A9.61,9.61,0,0,1,705.31,573Z"/></g><g id="Lager_2" data-name="Lager 2"><path class="cls-2" d="M826.47,543.34c-.16.07-.34.16-.52.26a9.63,9.63,0,0,0-1.46,1.09,10.92,10.92,0,0,0-2.12,2.69c-.25.45-.49.91-.71,1.37a9,9,0,0,0-.5,1.33,9.84,9.84,0,0,0-.32,1.44,16.8,16.8,0,0,0-.14,1.75l0,9.34-1.1.64,0-17.1,1.1-.63v3.79l.09,0a8.07,8.07,0,0,1,.73-2,12.35,12.35,0,0,1,1.3-2,12.79,12.79,0,0,1,1.71-1.8,10.48,10.48,0,0,1,1.7-1.24l.25-.14Z"/><path class="cls-2" d="M837.9,540.33a9.53,9.53,0,0,1,.43,3c0,.11,0,.25,0,.39a2.77,2.77,0,0,0,0,.37l-12,6.95v.19a9.27,9.27,0,0,0,.36,2.67,4,4,0,0,0,1,1.79,2.36,2.36,0,0,0,1.71.64,4.79,4.79,0,0,0,2.4-.78,9.82,9.82,0,0,0,3.53-3.39,13.44,13.44,0,0,0,1.79-4.78l1.1-.64a14.44,14.44,0,0,1-2.11,5.82,12.34,12.34,0,0,1-4.33,4.1,6.15,6.15,0,0,1-2.88,1,2.91,2.91,0,0,1-2-.68,4.1,4.1,0,0,1-1.24-2.08,11.53,11.53,0,0,1-.42-3.24,17.44,17.44,0,0,1,.41-3.69,16.76,16.76,0,0,1,1.25-3.61,14.57,14.57,0,0,1,2.1-3.21,11.23,11.23,0,0,1,3-2.47,6,6,0,0,1,2.76-.93,2.89,2.89,0,0,1,2,.66A4.24,4.24,0,0,1,837.9,540.33Zm-11.61,9.58,10.91-6.3a9,9,0,0,0-.42-2.41,3.35,3.35,0,0,0-1-1.6,2.7,2.7,0,0,0-1.66-.56,4.56,4.56,0,0,0-2.22.72,9,9,0,0,0-2.35,1.94,12.56,12.56,0,0,0-1.71,2.52,13.41,13.41,0,0,0-1.07,2.83,15.83,15.83,0,0,0-.45,2.86"/><path class="cls-2" d="M816.69,550.08a4.63,4.63,0,0,1,1.33,2.09,10.17,10.17,0,0,1,.45,3.18,15.92,15.92,0,0,1-.43,3.72,16.65,16.65,0,0,1-1.31,3.6,14.94,14.94,0,0,1-2.14,3.17,11.38,11.38,0,0,1-2.92,2.4,6.11,6.11,0,0,1-2.92,1,3.14,3.14,0,0,1-2.15-.69,4.39,4.39,0,0,1-1.33-2.08,10.26,10.26,0,0,1-.45-3.2,15.76,15.76,0,0,1,.43-3.7,17.33,17.33,0,0,1,1.31-3.61,15.15,15.15,0,0,1,2.14-3.18,11.59,11.59,0,0,1,2.92-2.4,6.22,6.22,0,0,1,2.92-1A3.18,3.18,0,0,1,816.69,550.08Zm.32,9.07a11.56,11.56,0,0,0,0-5.89,4.35,4.35,0,0,0-1.1-1.87,2.66,2.66,0,0,0-1.8-.71,4.78,4.78,0,0,0-2.46.76,9.25,9.25,0,0,0-2.47,2.08,13,13,0,0,0-1.79,2.78,16,16,0,0,0-1.09,3.14,11.56,11.56,0,0,0,0,5.89,4.24,4.24,0,0,0,1.11,1.88,2.66,2.66,0,0,0,1.79.71,4.79,4.79,0,0,0,2.47-.78,9.28,9.28,0,0,0,2.46-2.06,13.21,13.21,0,0,0,1.79-2.78,15.87,15.87,0,0,0,1.09-3.15"/><path class="cls-2" d="M802.72,569.13a11.69,11.69,0,0,0,.57-2.47l1.1-.64a12.7,12.7,0,0,1-.72,3.14,13.59,13.59,0,0,1-3.29,5.17,11.75,11.75,0,0,1-2.25,1.74,6.44,6.44,0,0,1-3.12,1,3,3,0,0,1-2.11-.79,4.59,4.59,0,0,1-1.23-2.21,12,12,0,0,1-.4-3.21,16,16,0,0,1,.44-3.66,15.62,15.62,0,0,1,1.31-3.55,14.89,14.89,0,0,1,2.13-3.13,12,12,0,0,1,2.93-2.39,8.68,8.68,0,0,1,2.27-1,3.69,3.69,0,0,1,1.89,0,2.31,2.31,0,0,1,1.34,1,4.48,4.48,0,0,1,.65,2.14l-1.1.63a3.56,3.56,0,0,0-.52-1.7,1.94,1.94,0,0,0-1.08-.81,3.27,3.27,0,0,0-1.55,0,7,7,0,0,0-1.9.8,9.17,9.17,0,0,0-2.46,2.07,12.65,12.65,0,0,0-1.79,2.77,14.44,14.44,0,0,0-1.09,3.09,12.9,12.9,0,0,0-.37,3.06,11.39,11.39,0,0,0,.36,3,3.92,3.92,0,0,0,1.08,1.93,2.46,2.46,0,0,0,1.8.64,5.44,5.44,0,0,0,2.51-.85,8.94,8.94,0,0,0,1.92-1.51,11.4,11.4,0,0,0,1.56-2A12.15,12.15,0,0,0,802.72,569.13Z"/><polygon class="cls-2" points="786.63 582.3 786.57 558.56 789.87 556.65 789.93 580.39 786.63 582.3"/><path class="cls-2" d="M783.87,569.31a5,5,0,0,1,1.36,2.42,10.34,10.34,0,0,1,.23,3.62l-11,6.35a5.91,5.91,0,0,0,.25,1.79,2.48,2.48,0,0,0,.74,1.2,1.76,1.76,0,0,0,1.25.39,3.83,3.83,0,0,0,1.8-.61,7.55,7.55,0,0,0,2.33-2.07,8.67,8.67,0,0,0,1.31-2.9l3.12-1.8a13,13,0,0,1-.89,3,14.83,14.83,0,0,1-1.53,2.72,14.06,14.06,0,0,1-2,2.3,13.23,13.23,0,0,1-2.33,1.73,8,8,0,0,1-3.13,1.14,3.39,3.39,0,0,1-2.31-.54,3.88,3.88,0,0,1-1.42-2,10.1,10.1,0,0,1-.49-3.38,15.08,15.08,0,0,1,.49-3.77,17.9,17.9,0,0,1,1.44-3.72,16.36,16.36,0,0,1,2.27-3.3,12.21,12.21,0,0,1,3-2.47,6.14,6.14,0,0,1,3.16-1A3.39,3.39,0,0,1,783.87,569.31Zm-9.42,9.89,7.7-4.44a4.9,4.9,0,0,0-.34-1.54,2.24,2.24,0,0,0-.76-1,1.93,1.93,0,0,0-1.16-.33,3.22,3.22,0,0,0-1.52.5,6.49,6.49,0,0,0-1.57,1.26,7.78,7.78,0,0,0-1.21,1.66,9.76,9.76,0,0,0-.81,1.91,7.73,7.73,0,0,0-.33,2"/><polygon class="cls-2" points="770.48 577.07 761.94 593.56 770.94 588.36 770.95 591.35 757.78 598.96 757.77 596.3 766.01 579.98 758.32 584.42 758.31 581.43 770.47 574.41 770.48 577.07"/><g class="cls-10"><polygon class="cls-2" points="746.59 593.76 750.53 594.12 750.55 599.36 746.62 604.25 742.68 603.91 742.66 598.66 746.59 593.76"/><polygon class="cls-2" points="740.78 591.8 745.78 592.26 745.79 594.13 742.23 598.57 742.24 603.38 740.82 605.14 739.41 605.01 739.4 600.21 735.82 599.88 735.82 598.01 740.78 591.8"/><polygon class="cls-2" points="735.02 600.44 738.96 600.8 738.97 606.04 735.05 610.93 731.1 610.59 731.09 605.34 735.02 600.44"/><path class="cls-1" d="M740.76,585.68c7-4,12.62-.78,12.64,7.21s-5.61,17.73-12.55,21.74-12.62.78-12.64-7.2S733.82,589.69,740.76,585.68Zm1.48,17.7v-4.81l3.56-4.44v-1.87l-5-.46-5,6.21v1.87l3.58.33V605l1.41.13,1.42-1.76m4.38.87,3.93-4.89,0-5.24-3.94-.36-3.93,4.9,0,5.25,3.94.34M739,606V600.8l-3.94-.36-3.93,4.9v5.25l3.95.34L739,606"/><path class="cls-2" d="M740.76,584.87c7.34-4.24,13.33-.82,13.35,7.61s-5.93,18.73-13.26,23-13.33.82-13.35-7.61S733.43,589.11,740.76,584.87Zm.09,29.76c6.94-4,12.57-13.77,12.55-21.74s-5.69-11.22-12.64-7.21-12.58,13.77-12.55,21.75,5.69,11.21,12.64,7.2"/></g></g></svg>