<svg id="Layer_1" data-name="Layer 1" xmlns="http://www.w3.org/2000/svg" viewBox="0 0 1400 1400"><defs><style>.cls-1{fill:#44318d;}.cls-2{fill:#f7f7f7;}.cls-3{fill:#bb3c88;}.cls-4{fill:#fff;}.cls-5{fill:#e8e8e8;}</style></defs><title>video</title><path class="cls-1" d="M997.27,162.41c3.52-2,6.37-.4,6.38,3.64l.51,181.12a14,14,0,0,1-6.34,11L750.9,500.71c-3.51,2-6.36.4-6.38-3.64L744,316a14,14,0,0,1,6.34-11Z"/><path class="cls-2" d="M749,315.94a9.18,9.18,0,0,1,3.84-6.64l245.8-141.91.51,179.8a9,9,0,0,1-3.84,6.63L749.52,495.74Z"/><path class="cls-3" d="M749.41,455.59l.11,40.15,245.8-141.92a9,9,0,0,0,3.84-6.63l-.1-35.73Z"/><path class="cls-3" d="M857,288.08a4.24,4.24,0,0,1,3.19-.61l34.53,9.37c2.93.79,2.94,5.81,0,10L860.41,356a10.35,10.35,0,0,1-3.19,3.06c-2.79,1.62-5.42.59-5.43-3.08l-.08-29.26-.08-29.26A11.88,11.88,0,0,1,857,288.08Z"/><path class="cls-1" d="M975.82,341.81c2.31-1.33,4.18-.26,4.18,2.39a9.15,9.15,0,0,1-4.15,7.19L772.75,468.65c-2.3,1.33-4.18.27-4.19-2.38a9.19,9.19,0,0,1,4.16-7.2Z"/><path class="cls-4" d="M883.53,400.68a3.23,3.23,0,0,0-4.84-2.79l-106,61.18a9.19,9.19,0,0,0-4.16,7.2c0,2.65,1.89,3.71,4.19,2.38l107.3-61.95a7,7,0,0,0,3.48-6Z"/><path class="cls-5" d="M879.53,393.7c4.13-2.39,7.49-.48,7.5,4.27a16.39,16.39,0,0,1-7.45,12.91c-4.13,2.39-7.49.47-7.5-4.27A16.39,16.39,0,0,1,879.53,393.7Z"/></svg>