<svg xmlns="http://www.w3.org/2000/svg" viewBox="0 0 1600 1200"><defs><style>.cls-1{fill:#227761;}.cls-2{fill:#36c9a5;}.cls-3{fill:#a66206;}.cls-4{fill:#cd2a01;}.cls-5{fill:#2e2e30;}.cls-6{fill:#fff;}</style></defs><title>woman</title><g id="Woman"><path class="cls-1" d="M526.85,473l.33,0a9.71,9.71,0,0,0-.06,1.35v14.73c0,2.42.24,2.83,2.32,4L562.9,512.4a10.31,10.31,0,0,0,1,.53l.09.54,1.22-.59-.37.22h0a2.85,2.85,0,0,0,.81-2.26V496.1c0-2.42-.25-2.83-2.33-4l-33.46-19.31c-1-.6-1.62-.87-1.94-.69l-1.13.57Z"/><path class="cls-1" d="M554.23,507.43c-2.19-1.26-4.43-1.85-5.81,2.72-1.31,4.32-1.58,17.7-2.21,18.87-.08.16-.71.38-.71.38-.66-1.93-.43-16.11-1.74-21.94-1.38-6.16-3.82-8.28-5.81-9.43l7.71-3.29Z"/><path class="cls-2" d="M526.43,474.65c0-2.42.24-2.55,2.33-1.35l33.45,19.32c2.09,1.2,2.33,1.62,2.33,4v14.73c0,2.41-.24,2.55-2.33,1.35l-33.45-19.32c-2.09-1.2-2.33-1.62-2.33-4Z"/><path class="cls-2" d="M553.62,507.73c-2.19-1.27-4.42-1.85-5.81,2.72s-1.57,19.38-2.32,18.94-1-15.46-2.33-21.63-3.83-8.28-5.82-9.43l7.72-3.29Z"/><path class="cls-3" d="M521.92,546.35l-.07,0,.07,0a4,4,0,0,1-1-1.56c-.5-1.92-1.11-4.46-1.11-4.46A2.79,2.79,0,0,0,518,539a4.57,4.57,0,0,0-1.58.23s-1.33,3.6-.14,4.7c1,.9.9,3.89,2.64,4.92a2.9,2.9,0,0,0,3.66-.89A1.75,1.75,0,0,0,521.92,546.35Z"/><path class="cls-3" d="M503.86,493.51l.19,3.74s1.25.83,1.39,1,3.21-1,3.21-1.34S508,494.35,508,494s-.23-2-.23-2Z"/><path class="cls-3" d="M509.63,462.43c-.87-.77-5.67-.72-6.28,7a112.07,112.07,0,0,0-.42,12.47c.25,6.25.93,11.63.93,11.63s.56,1.63,3.76.12c-.52-9.11-.87-9.24-.66-16.11C507.21,469.54,512.22,464.74,509.63,462.43Z"/><path class="cls-3" d="M506.06,490.91a23.09,23.09,0,0,0-2.2,11c.27,4.37,4,16.56,4,16.56-1.05,10.07.45,16,.45,16s.08,1.25,1.86,1.69a1.58,1.58,0,0,0,1.57-.24l.87-25.14c1.16,5.28,3.27,12.15,3.27,12.15-1,10.07.46,16,.46,16s.08,1.25,1.85,1.68a1.56,1.56,0,0,0,1.57-.24l1.51-43.75Z"/><path class="cls-4" d="M504.68,494.44s-1.8,3.93-.63,10.19c.78,4.15,1.67,7.87,1.67,7.87A14.91,14.91,0,0,0,521.25,515l.46-18.39Z"/><path class="cls-4" d="M504.68,494.44a101.84,101.84,0,0,0,2.38-10.9c.87-5.15-2.62-11.21-2.62-13.91,0-6.07,2.61-7.53,4.58-7.49a41.86,41.86,0,0,1,14,7.74s1.4,4.88,1.09,6.63c-.35,2-3.8,4.8-3.8,6.94,0,2.8,1.92,13.35,1.92,13.35C519.53,501.75,509.44,500.92,504.68,494.44Z"/><path class="cls-3" d="M521.17,455.15s.19,5.79-1.34,7-9.35.41-11.51-3.5-1-11.32,3.83-12.13C517.77,445.53,521.51,449.33,521.17,455.15Z"/><path class="cls-3" d="M510,459.74l-1.16,5.89s-1.25,4.41,6.12,1.46a43.7,43.7,0,0,1,.75-5.92C516.08,460.38,510,459.74,510,459.74Z"/><path class="cls-3" d="M520.23,502.13s.09,3.19.11,3.59-.39.69-.06,1.5a4.85,4.85,0,0,0,1.34.9c.36.12,2.64-1.44,3-1.69s0-2.23,0-2.71c0-.14-.06-2.48-.35-2.58A35.37,35.37,0,0,0,520.23,502.13Z"/><path class="cls-3" d="M523.36,470.16c-.66-1-3.06-2-4.29,2.17s1.16,29.8,1.16,29.8,1.92,2.28,4-1c0,0-.42-9.45-.42-15.74S524.6,472,523.36,470.16Z"/><path class="cls-3" d="M513.9,541.93l-.07,0,.07,0a3.86,3.86,0,0,1-1-1.56c-.51-1.92-1.11-4.45-1.11-4.45a2.83,2.83,0,0,0-1.77-1.39,4.63,4.63,0,0,0-1.59.23s-1.32,3.6-.14,4.7c1,.9.91,3.9,2.64,4.92a2.9,2.9,0,0,0,3.67-.89A1.75,1.75,0,0,0,513.9,541.93Z"/><path class="cls-4" d="M521.92,546.35a1.51,1.51,0,0,1-.61.2c-.24,0-.6-.69-1-1.59a43.18,43.18,0,0,1-1.52-4.24,1.86,1.86,0,0,0-2.39-1.54s-1.33,3.6-.14,4.7a1.56,1.56,0,0,1,.28.37v4.53h.38s.14-1.35.25-2.88a4.76,4.76,0,0,0,1.73,2.9,2.9,2.9,0,0,0,3.66-.89A1.75,1.75,0,0,0,521.92,546.35Z"/><path class="cls-4" d="M513.9,541.93c-.16.09-1.22-.49-1.6-1.39a44,44,0,0,1-1.51-4.24,1.87,1.87,0,0,0-2.4-1.54s-1.16,3.17-.33,4.47v5.13h.39s.2-2.12.31-4.07c.52,1.27.77,3.29,2.13,4.09a2.91,2.91,0,0,0,3.67-.88A1.76,1.76,0,0,0,513.9,541.93Z"/><path class="cls-5" d="M520.1,447.5a6.15,6.15,0,0,0-4.24-2.12c-6.39-.29-8.27,3.9-9.22,8A44.52,44.52,0,0,0,506,466c.45,3.54,3.28,14.93,3.28,14.93s8.63-5.48,10.6-20.81a49.34,49.34,0,0,1,1.67-7.61A6.36,6.36,0,0,0,520.1,447.5Z"/><polygon class="cls-6" points="533.96 484.65 533.97 485.17 530.85 488.73 530.85 488.76 534.1 490.55 534.11 491.27 529.88 488.92 529.87 488.42 533 484.86 533 484.82 530.07 483.2 530.06 482.49 533.96 484.65"/><path class="cls-6" d="M538.23,491c0,.18,0,.3,0,.39l-2.92-1.62a2.82,2.82,0,0,0,1.44,2.43,2.71,2.71,0,0,0,1.16.4l.13.69a3.39,3.39,0,0,1-1.38-.48,4.1,4.1,0,0,1-2.08-3.52c0-1.42.71-2.14,1.92-1.46A3.77,3.77,0,0,1,538.23,491Zm-3-1.84,2.21,1.22a2.27,2.27,0,0,0-1.07-2c-.76-.43-1.08.19-1.14.75"/><polygon class="cls-6" points="539.86 487.57 539.96 494.51 539.21 494.09 539.11 487.15 539.86 487.57"/><path class="cls-6" d="M545.51,491.05l.1,6.59-.76-.42L543,492.86c-.41-.95-.81-1.92-1.11-2.8h0c.06.85.09,1.65.1,2.75l.05,2.81-.71-.39-.1-6.59.82.46,1.9,4.36c.44,1,.79,1.88,1.07,2.71h0c-.08-.92-.11-1.73-.13-2.76l0-2.76Z"/><path class="cls-6" d="M548.58,494.49a4.24,4.24,0,0,1,2,3.54c0,1.75-1,1.93-2,1.37a4.23,4.23,0,0,1-2-3.54C546.53,494.28,547.43,493.86,548.58,494.49Zm0,4.29c.72.39,1.25-.08,1.23-1.15a3,3,0,0,0-1.27-2.5c-.89-.49-1.26.22-1.25,1.13a3.07,3.07,0,0,0,1.29,2.52"/><path class="cls-6" d="M555.19,501.74c0,.42,0,.9,0,1.24l-.68-.38,0-.84c-.24.39-.74.51-1.42.14a4.07,4.07,0,0,1-1.81-3.39c0-1.58.81-2.07,1.82-1.51a2.94,2.94,0,0,1,1.27,1.42l0-2.82.76.42Zm-.78-1.18v-.82a1.84,1.84,0,0,0,0-.39,2.4,2.4,0,0,0-1.1-1.59c-.78-.43-1.23.09-1.22,1.13a2.83,2.83,0,0,0,1.25,2.43c.51.28,1,.16,1.1-.41a1.32,1.32,0,0,0,0-.35"/><path class="cls-6" d="M559.79,502.91c0,.18,0,.31,0,.39l-2.92-1.62a2.79,2.79,0,0,0,1.45,2.43,2.54,2.54,0,0,0,1.15.4l.14.69a3.51,3.51,0,0,1-1.39-.47,4.17,4.17,0,0,1-2.08-3.53c0-1.42.71-2.13,1.92-1.46A3.73,3.73,0,0,1,559.79,502.91Zm-2.94-1.84,2.21,1.23a2.27,2.27,0,0,0-1.07-2c-.77-.42-1.09.19-1.14.75"/></g></svg>