<svg xmlns="http://www.w3.org/2000/svg" xmlns:xlink="http://www.w3.org/1999/xlink" viewBox="0 0 750 500"><defs><style>.a{isolation:isolate;}.b{mix-blend-mode:overlay;}.c,.d{fill:none;stroke-linecap:round;stroke-linejoin:round;}.c{stroke:#003047;stroke-width:2px;}.d{stroke:#232220;stroke-width:2.03px;}.e{fill:#44318d;}.f{fill:#45318d;}.g{fill:#46318d;}.h{fill:#47318d;}.i{fill:#48318d;}.j{fill:#49318d;}.k{fill:#4a328d;}.l{fill:#4b328d;}.m{fill:#4c328d;}.n{fill:#4d328d;}.o{fill:#4e328d;}.p{fill:#4f328d;}.q{fill:#50328d;}.r{fill:#51328c;}.s{fill:#52328c;}.t{fill:#53328c;}.u{fill:#54338c;}.v{fill:#55338c;}.w{fill:#56338c;}.x{fill:#57338c;}.y{fill:#58338c;}.z{fill:#59338c;}.aa{fill:#5a338c;}.ab{fill:#5b338c;}.ac{fill:#5c338c;}.ad{fill:#5d338c;}.ae{fill:#5e338c;}.af{fill:#5f348c;}.ag{fill:#60348c;}.ah{fill:#61348c;}.ai{fill:#62348c;}.aj{fill:#63348c;}.ak{fill:#64348c;}.al{fill:#65348c;}.am{fill:#66348c;}.an{fill:#67348c;}.ao{fill:#68348c;}.ap{fill:#69358b;}.aq{fill:#6a358b;}.ar{fill:#6b358b;}.as{fill:#6c358b;}.at{fill:#6d358b;}.au{fill:#6e358b;}.av{fill:#6f358b;}.aw{fill:#70358b;}.ax{fill:#71358b;}.ay{fill:#72358b;}.az{fill:#73358b;}.ba{fill:#74368b;}.bb{fill:#75368b;}.bc{fill:#76368b;}.bd{fill:#77368b;}.be{fill:#78368b;}.bf{fill:#79368b;}.bg{fill:#7a368b;}.bh{fill:#7b368b;}.bi{fill:#7c368b;}.bj{fill:#7d368b;}.bk{fill:#7e368b;}.bl{fill:#7f378b;}.bm{fill:#80378b;}.bn{fill:#81378b;}.bo{fill:#82378a;}.bp{fill:#83378a;}.bq{fill:#84378a;}.br{fill:#85378a;}.bs{fill:#86378a;}.bt{fill:#87378a;}.bu{fill:#88378a;}.bv{fill:#89388a;}.bw{fill:#8a388a;}.bx{fill:#8b388a;}.by{fill:#8c388a;}.bz{fill:#8d388a;}.ca{fill:#8e388a;}.cb{fill:#8f388a;}.cc{fill:#90388a;}.cd{fill:#91388a;}.ce{fill:#92388a;}.cf{fill:#93388a;}.cg{fill:#94398a;}.ch{fill:#95398a;}.ci{fill:#96398a;}.cj{fill:#97398a;}.ck{fill:#98398a;}.cl{fill:#99398a;}.cm{fill:#9a398a;}.cn{fill:#9b3989;}.co{fill:#9c3989;}.cp{fill:#9d3989;}.cq{fill:#9e3a89;}.cr{fill:#9f3a89;}.cs{fill:#a03a89;}.ct{fill:#a13a89;}.cu{fill:#a23a89;}.cv{fill:#a33a89;}.cw{fill:#a43a89;}.cx{fill:#a53a89;}.cy{fill:#a63a89;}.cz{fill:#a73a89;}.da{fill:#a83a89;}.db{fill:#a93b89;}.dc{fill:#aa3b89;}.dd{fill:#ab3b89;}.de{fill:#ac3b89;}.df{fill:#ad3b89;}.dg{fill:#ae3b89;}.dh{fill:#af3b89;}.di{fill:#b03b89;}.dj{fill:#b13b89;}.dk{fill:#b23b89;}.dl{fill:#b33b89;}.dm{fill:#b43c88;}.dn{fill:#b53c88;}.do{fill:#b63c88;}.dp{fill:#b73c88;}.dq{fill:#b83c88;}.dr{fill:#b93c88;}.ds{fill:#ba3c88;}.dt{fill:#bb3c88;}.du{fill:#bc3c88;}.dv{fill:#bd3c88;}.dw{fill:#be3d88;}.dx{fill:#bf3d88;}.dy{fill:#c03d88;}.dz{fill:#c13d88;}.ea{fill:#c23d88;}.eb{fill:#c33d88;}.ec{fill:#c43d88;}.ed{fill:#c53d88;}.ee{fill:#c63d88;}.ef{fill:#c73d88;}.eg{fill:#c83d88;}.eh{fill:#c93e88;}.ei{fill:#ca3e88;}.ej{fill:#cb3e88;}.ek{fill:#cc3e87;}.el{fill:#cd3e87;}.em{fill:#ce3e87;}.en{fill:#cf3e87;}.eo{fill:#d03e87;}.ep{fill:#d13e87;}.eq{fill:#d23e87;}.er{fill:#d33f87;}.es{fill:#d43f87;}.et{fill:#d53f87;}.eu{fill:#d63f87;}.ev{fill:#d73f87;}.ew{fill:#d83f87;}.ex{fill:#141414;}.ey{fill:url(#a);}.ez{fill:#171415;}.fa,.fb{mix-blend-mode:multiply;}.fa{fill:url(#b);}.fc{fill:#001611;}.fd{fill:#0c0816;opacity:0.38;}.fe{fill:#a43476;}.ff,.fj{fill:#fff;}.ff{opacity:0.5;}.fg{opacity:0.3;mix-blend-mode:screen;fill:url(#c);}.fh{fill:#f2f2f2;}.fi{fill:#a83679;}.fk{fill:#232220;}.fl{fill:#d14b4b;}.fm{fill:#f7b92f;}.fn{fill:#8dea34;}</style><linearGradient id="a" x1="-599.49" y1="1919.63" x2="-602.36" y2="1916.76" gradientTransform="matrix(1, 0.58, 0, 1, 880.65, -1435.53)" gradientUnits="userSpaceOnUse"><stop offset="0" stop-color="#616161"/><stop offset="0.58"/></linearGradient><linearGradient id="b" x1="457.68" y1="345.44" x2="564.21" y2="345.44" gradientTransform="matrix(-1, 0, 0, 1, 666.01, 0)" gradientUnits="userSpaceOnUse"><stop offset="0"/><stop offset="0.13" stop-color="#050207"/><stop offset="0.32" stop-color="#13081b"/><stop offset="0.54" stop-color="#29123b"/><stop offset="0.79" stop-color="#482067"/><stop offset="1" stop-color="#662d91"/></linearGradient><linearGradient id="c" x1="323.75" y1="184.76" x2="567.15" y2="184.76" gradientTransform="matrix(-1, 0, 0, 1, 666.01, 0)" gradientUnits="userSpaceOnUse"><stop offset="0.42" stop-color="#c0f0ff"/><stop offset="0.44" stop-color="#c5f1ff"/><stop offset="0.47" stop-color="#d5f5ff"/><stop offset="0.5" stop-color="#eefbff"/><stop offset="0.51" stop-color="#fff"/></linearGradient></defs><title>zelid</title><g class="a"><g class="b"><line class="c" x1="579.88" y1="271.82" x2="579.88" y2="201.76"/><path class="c" d="M673.26,324.32v-43A43.58,43.58,0,0,0,652,243.88l-72.15-42.47,0-31.91"/></g><path class="d" d="M316.3,365.28l2.24,49.21a21,21,0,0,0,9.78,16.84l61.23,39.31A40.38,40.38,0,0,0,434,469.8l149.59-86.56c11.69-8,19.68-11.3,19.68-25.48V320.11"/><path class="e" d="M396.36,201V333.81c0,3.92-3.2,5.27-7.11,3l-73-42.17L174.6,212.9c-3.91-2.26-7.11-7.31-7.11-11.23V68.86c0-3.91,3.2-5.27,7.11-3l101.89,58.83,112.76,65.1C393.16,192,396.36,197.08,396.36,201Z"/><path class="f" d="M396.35,201V333.82c0,3.92-3.2,5.27-7.12,3l-73-42.17-141.6-81.76c-3.91-2.26-7.12-7.3-7.12-11.22V68.87c0-3.91,3.21-5.27,7.12-3l101.89,58.82,112.75,65.1C393.15,192.05,396.35,197.1,396.35,201Z"/><path class="g" d="M396.33,201V333.84c0,3.92-3.2,5.26-7.11,3l-73-42.17L174.57,212.92c-3.91-2.26-7.11-7.3-7.11-11.22V68.88c0-3.91,3.2-5.26,7.11-3l101.89,58.83L389.22,189.8C393.13,192.06,396.33,197.11,396.33,201Z"/><path class="h" d="M396.32,201V333.85c0,3.92-3.2,5.27-7.12,3l-73-42.17-141.6-81.75c-3.91-2.27-7.12-7.31-7.12-11.23V68.89c0-3.91,3.21-5.26,7.12-3l101.89,58.83,112.75,65.1C393.12,192.07,396.32,197.12,396.32,201Z"/><path class="i" d="M396.3,201.05V333.86c0,3.92-3.2,5.27-7.11,3l-73-42.17L174.54,213c-3.91-2.26-7.11-7.31-7.11-11.23V68.91c0-3.92,3.2-5.27,7.11-3l101.89,58.83,112.76,65.1C393.1,192.08,396.3,197.13,396.3,201.05Z"/><path class="j" d="M396.29,201.06V333.87c0,3.92-3.2,5.27-7.12,3l-73-42.17L174.53,213c-3.91-2.26-7.11-7.31-7.11-11.23V68.92c0-3.91,3.2-5.27,7.11-3l101.89,58.83,112.75,65.1C393.09,192.09,396.29,197.15,396.29,201.06Z"/><path class="k" d="M396.27,201.07V333.89c0,3.92-3.2,5.26-7.11,3l-73-42.17L174.51,213c-3.91-2.26-7.11-7.3-7.11-11.22V68.93c0-3.91,3.2-5.27,7.11-3L276.4,124.75l112.76,65.1C393.07,192.11,396.27,197.16,396.27,201.07Z"/><path class="l" d="M396.26,201.08V333.9c0,3.92-3.2,5.26-7.12,3l-73-42.17L174.5,213c-3.91-2.26-7.11-7.3-7.11-11.22V68.94c0-3.91,3.2-5.26,7.11-3l101.89,58.83,112.75,65.09C393.06,192.12,396.26,197.17,396.26,201.08Z"/><path class="m" d="M396.24,201.09V333.91c0,3.92-3.2,5.27-7.11,3l-73-42.17L174.49,213c-3.92-2.27-7.12-7.31-7.12-11.23V69c0-3.91,3.2-5.26,7.12-3l101.88,58.83,112.76,65.1C393,192.13,396.24,197.18,396.24,201.09Z"/><path class="n" d="M396.23,201.11V333.92c0,3.92-3.2,5.27-7.12,3l-73-42.16L174.47,213c-3.91-2.26-7.11-7.31-7.11-11.23V69c0-3.91,3.2-5.27,7.11-3l101.89,58.83,112.75,65.1C393,192.14,396.23,197.19,396.23,201.11Z"/><path class="o" d="M396.21,201.12V333.94c0,3.91-3.2,5.26-7.11,3l-73-42.17L174.46,213c-3.92-2.26-7.12-7.3-7.12-11.22V69c0-3.91,3.2-5.27,7.12-3L276.34,124.8,389.1,189.9C393,192.16,396.21,197.21,396.21,201.12Z"/><path class="p" d="M396.2,201.13V334c0,3.92-3.2,5.26-7.12,3l-73-42.17L174.44,213c-3.91-2.26-7.11-7.3-7.11-11.22V69c0-3.91,3.2-5.26,7.11-3l101.89,58.83,112.75,65.09C393,192.17,396.2,197.22,396.2,201.13Z"/><path class="q" d="M396.18,201.14V334c0,3.92-3.2,5.27-7.11,3L316,294.8l-141.6-81.75c-3.92-2.27-7.12-7.31-7.12-11.23V69c0-3.91,3.2-5.26,7.12-3l101.88,58.83,112.76,65.1C393,192.18,396.18,197.23,396.18,201.14Z"/><path class="r" d="M396.17,201.16V334c0,3.92-3.2,5.27-7.11,3L316,294.81l-141.6-81.75c-3.91-2.26-7.11-7.31-7.11-11.23V69c0-3.92,3.2-5.27,7.11-3L276.3,124.84l112.76,65.1C393,192.19,396.17,197.24,396.17,201.16Z"/><path class="s" d="M396.15,201.17V334c0,3.92-3.2,5.27-7.11,3l-73-42.17L174.4,213.07c-3.92-2.26-7.12-7.31-7.12-11.22V69c0-3.91,3.2-5.27,7.12-3l101.88,58.82L389,190C393,192.21,396.15,197.26,396.15,201.17Z"/><path class="t" d="M396.14,201.18V334c0,3.92-3.2,5.26-7.11,3l-73-42.17-141.6-81.76c-3.91-2.26-7.11-7.3-7.11-11.22V69c0-3.91,3.2-5.27,7.11-3l101.89,58.83L389,190C392.94,192.22,396.14,197.27,396.14,201.18Z"/><path class="u" d="M396.12,201.19V334c0,3.92-3.2,5.27-7.11,3l-73-42.17L174.37,213.1c-3.92-2.27-7.12-7.31-7.12-11.23V69.05c0-3.91,3.2-5.26,7.12-3l101.88,58.83L389,190C392.92,192.23,396.12,197.28,396.12,201.19Z"/><path class="v" d="M396.11,201.2V334c0,3.92-3.2,5.27-7.11,3L316,294.86l-141.6-81.75c-3.91-2.27-7.11-7.31-7.11-11.23V69.07c0-3.92,3.2-5.27,7.11-3l101.89,58.83L389,190C392.91,192.24,396.11,197.29,396.11,201.2Z"/><path class="w" d="M396.09,201.22V334c0,3.92-3.2,5.27-7.11,3l-73-42.17-141.6-81.76c-3.92-2.26-7.12-7.31-7.12-11.23V69.08c0-3.91,3.2-5.27,7.12-3L276.22,124.9,389,190C392.89,192.25,396.09,197.31,396.09,201.22Z"/><path class="x" d="M396.08,201.23V334.05c0,3.92-3.2,5.26-7.11,3l-73.05-42.17-141.6-81.76c-3.91-2.26-7.11-7.3-7.11-11.22V69.09c0-3.91,3.2-5.27,7.11-3l101.89,58.82L389,190C392.88,192.27,396.08,197.32,396.08,201.23Z"/><path class="y" d="M396.07,201.24V334.06c0,3.92-3.21,5.26-7.12,3l-73-42.17-141.6-81.76c-3.92-2.26-7.12-7.3-7.12-11.22V69.1c0-3.91,3.2-5.26,7.12-3l101.88,58.83L389,190C392.86,192.28,396.07,197.33,396.07,201.24Z"/><path class="z" d="M396.05,201.25V334.07c0,3.92-3.2,5.27-7.11,3l-73-42.17L174.29,213.16c-3.91-2.27-7.11-7.31-7.11-11.23V69.11c0-3.91,3.2-5.26,7.11-3l101.89,58.83L388.94,190C392.85,192.29,396.05,197.34,396.05,201.25Z"/><path class="aa" d="M396,201.27V334.08c0,3.92-3.21,5.27-7.12,3l-73-42.16-141.6-81.76c-3.92-2.26-7.12-7.31-7.12-11.23V69.13c0-3.91,3.2-5.27,7.12-3L276.17,125l112.75,65.1C392.83,192.3,396,197.35,396,201.27Z"/><path class="ab" d="M396,201.28V334.09c0,3.92-3.2,5.27-7.11,3l-73-42.17L174.26,213.18c-3.91-2.26-7.11-7.3-7.11-11.22V69.14c0-3.91,3.2-5.27,7.11-3L276.15,125l112.76,65.1C392.82,192.32,396,197.37,396,201.28Z"/><path class="ac" d="M396,201.29V334.11c0,3.92-3.21,5.26-7.12,3l-73-42.17-141.6-81.76c-3.92-2.26-7.12-7.3-7.12-11.22V69.15c0-3.91,3.2-5.26,7.12-3L276.14,125l112.75,65.09C392.8,192.33,396,197.38,396,201.29Z"/><path class="ad" d="M396,201.3V334.12c0,3.92-3.2,5.27-7.11,3l-73-42.17L174.23,213.21c-3.91-2.27-7.11-7.31-7.11-11.23V69.16c0-3.91,3.2-5.26,7.11-3L276.12,125l112.76,65.1C392.79,192.34,396,197.39,396,201.3Z"/><path class="ae" d="M396,201.32V334.13c0,3.92-3.21,5.27-7.12,3l-73-42.17-141.6-81.75c-3.92-2.26-7.12-7.31-7.12-11.23V69.18c0-3.92,3.2-5.27,7.12-3L276.11,125l112.75,65.1C392.77,192.35,396,197.4,396,201.32Z"/><path class="af" d="M396,201.33V334.14c0,3.92-3.2,5.27-7.11,3l-73-42.17L174.2,213.23c-3.91-2.26-7.11-7.31-7.11-11.23V69.19c0-3.91,3.2-5.27,7.11-3L276.09,125l112.76,65.1C392.76,192.36,396,197.42,396,201.33Z"/><path class="ag" d="M396,201.34V334.16c0,3.92-3.21,5.26-7.12,3l-73-42.17-141.6-81.76c-3.91-2.26-7.12-7.3-7.12-11.22V69.2c0-3.91,3.21-5.27,7.12-3L276.08,125l112.75,65.1C392.74,192.38,396,197.43,396,201.34Z"/><path class="ah" d="M395.93,201.35V334.17c0,3.92-3.2,5.26-7.11,3l-73-42.17L174.17,213.25c-3.91-2.26-7.11-7.3-7.11-11.22V69.21c0-3.91,3.2-5.26,7.11-3L276.06,125l112.76,65.09C392.73,192.39,395.93,197.44,395.93,201.35Z"/><path class="ai" d="M395.92,201.36V334.18c0,3.92-3.21,5.27-7.12,3l-73-42.17-141.6-81.75C170.25,211,167,206,167,202V69.23c0-3.92,3.21-5.27,7.12-3l101.89,58.83,112.75,65.1C392.71,192.4,395.92,197.45,395.92,201.36Z"/><path class="aj" d="M395.9,201.38V334.19c0,3.92-3.2,5.27-7.11,3l-73-42.16L174.14,213.28C170.23,211,167,206,167,202.05V69.24c0-3.91,3.2-5.27,7.11-3L276,125.06l112.76,65.1C392.7,192.41,395.9,197.47,395.9,201.38Z"/><path class="ak" d="M395.89,201.39V334.21c0,3.92-3.21,5.26-7.12,3l-73-42.17-141.6-81.76C170.22,211,167,206,167,202.07V69.25c0-3.91,3.21-5.27,7.12-3L276,125.07l112.75,65.1C392.68,192.43,395.89,197.48,395.89,201.39Z"/><path class="al" d="M395.87,201.4V334.22c0,3.92-3.2,5.26-7.11,3l-73-42.17L174.11,213.3C170.2,211,167,206,167,202.08V69.26c0-3.91,3.2-5.26,7.11-3L276,125.09l112.76,65.09C392.67,192.44,395.87,197.49,395.87,201.4Z"/><path class="am" d="M395.86,201.41V334.23c0,3.92-3.21,5.27-7.12,3l-73-42.17L174.1,213.32c-3.91-2.27-7.12-7.31-7.12-11.23V69.27c0-3.91,3.21-5.26,7.12-3L276,125.1l112.75,65.1C392.65,192.45,395.86,197.5,395.86,201.41Z"/><path class="an" d="M395.84,201.43V334.24c0,3.92-3.2,5.27-7.11,3l-73-42.17L174.08,213.33C170.17,211.07,167,206,167,202.1V69.29c0-3.92,3.2-5.27,7.11-3L276,125.11l112.76,65.1C392.64,192.46,395.84,197.51,395.84,201.43Z"/><path class="ao" d="M395.83,201.44V334.25c0,3.92-3.21,5.27-7.12,3l-73-42.17-141.6-81.76c-3.91-2.26-7.12-7.31-7.12-11.22V69.3c0-3.91,3.21-5.27,7.12-3L276,125.12l112.75,65.1C392.62,192.48,395.83,197.53,395.83,201.44Z"/><path class="ap" d="M395.81,201.45V334.27c0,3.92-3.2,5.26-7.11,3l-73-42.17L174.05,213.35c-3.91-2.26-7.11-7.3-7.11-11.22V69.31c0-3.91,3.2-5.27,7.11-3l101.89,58.83L388.7,190.23C392.61,192.49,395.81,197.54,395.81,201.45Z"/><path class="aq" d="M395.8,201.46V334.28c0,3.92-3.21,5.27-7.12,3l-73-42.17L174,213.37c-3.91-2.27-7.12-7.31-7.12-11.23V69.32c0-3.91,3.21-5.26,7.12-3l101.89,58.83,112.75,65.1C392.59,192.5,395.8,197.55,395.8,201.46Z"/><path class="ar" d="M395.78,201.47V334.29c0,3.92-3.2,5.27-7.11,3l-73-42.17L174,213.38c-3.91-2.26-7.11-7.31-7.11-11.23V69.34c0-3.92,3.2-5.27,7.11-3l101.89,58.83,112.76,65.1C392.58,192.51,395.78,197.56,395.78,201.47Z"/><path class="as" d="M395.77,201.49V334.3c0,3.92-3.21,5.27-7.12,3l-73-42.17L174,213.39c-3.91-2.26-7.12-7.31-7.12-11.23V69.35c0-3.91,3.21-5.27,7.12-3L275.9,125.17l112.75,65.1C392.56,192.52,395.77,197.58,395.77,201.49Z"/><path class="at" d="M395.75,201.5V334.32c0,3.92-3.2,5.26-7.11,3l-73-42.17L174,213.4c-3.91-2.26-7.11-7.3-7.11-11.22V69.36c0-3.91,3.2-5.27,7.11-3l101.89,58.82,112.76,65.1C392.55,192.54,395.75,197.59,395.75,201.5Z"/><path class="au" d="M395.74,201.51V334.33c0,3.92-3.21,5.26-7.12,3l-73-42.17L174,213.41c-3.91-2.26-7.12-7.3-7.12-11.22V69.37c0-3.91,3.21-5.26,7.12-3L275.87,125.2l112.75,65.09C392.53,192.55,395.74,197.6,395.74,201.51Z"/><path class="av" d="M395.72,201.52V334.34c0,3.92-3.2,5.27-7.11,3l-73-42.17L174,213.43c-3.91-2.27-7.11-7.31-7.11-11.23V69.38c0-3.91,3.2-5.26,7.11-3l101.89,58.83,112.76,65.1C392.52,192.56,395.72,197.61,395.72,201.52Z"/><path class="aw" d="M395.71,201.54V334.35c0,3.92-3.21,5.27-7.12,3l-73-42.16L174,213.44c-3.91-2.26-7.12-7.31-7.12-11.23V69.4c0-3.91,3.21-5.27,7.12-3l101.89,58.83,112.75,65.1C392.5,192.57,395.71,197.62,395.71,201.54Z"/><path class="ax" d="M395.69,201.55V334.36c0,3.92-3.2,5.27-7.11,3l-73-42.17L173.93,213.45c-3.91-2.26-7.11-7.3-7.11-11.22V69.41c0-3.91,3.2-5.27,7.11-3l101.89,58.82,112.76,65.1C392.49,192.59,395.69,197.64,395.69,201.55Z"/><path class="ay" d="M395.68,201.56V334.38c0,3.92-3.21,5.26-7.12,3l-73-42.17-141.6-81.76c-3.91-2.26-7.12-7.3-7.12-11.22V69.42c0-3.91,3.21-5.26,7.12-3l101.89,58.83,112.75,65.09C392.47,192.6,395.68,197.65,395.68,201.56Z"/><path class="az" d="M395.66,201.57V334.39c0,3.92-3.2,5.27-7.11,3l-73-42.17L173.9,213.48c-3.91-2.27-7.11-7.31-7.11-11.23V69.43c0-3.91,3.2-5.26,7.11-3l101.89,58.83,112.76,65.1C392.46,192.61,395.66,197.66,395.66,201.57Z"/><path class="ba" d="M395.65,201.59V334.4c0,3.92-3.2,5.27-7.12,3l-73-42.17-141.6-81.75c-3.91-2.26-7.12-7.31-7.12-11.23V69.45c0-3.92,3.21-5.27,7.12-3l101.89,58.83,112.75,65.1C392.45,192.62,395.65,197.67,395.65,201.59Z"/><path class="bb" d="M395.63,201.6V334.41c0,3.92-3.2,5.27-7.11,3l-73-42.17L173.87,213.5c-3.91-2.26-7.11-7.31-7.11-11.23V69.46c0-3.91,3.2-5.27,7.11-3l101.89,58.83,112.76,65.1C392.43,192.63,395.63,197.69,395.63,201.6Z"/><path class="bc" d="M395.62,201.61V334.43c0,3.92-3.2,5.26-7.12,3l-73-42.17-141.6-81.76c-3.91-2.26-7.12-7.3-7.12-11.22V69.47c0-3.91,3.21-5.27,7.12-3l101.89,58.82,112.75,65.1C392.42,192.65,395.62,197.7,395.62,201.61Z"/><path class="bd" d="M395.6,201.62V334.44c0,3.92-3.2,5.26-7.11,3l-73-42.17L173.84,213.52c-3.91-2.26-7.11-7.3-7.11-11.22V69.48c0-3.91,3.2-5.26,7.11-3l101.89,58.83L388.49,190.4C392.4,192.66,395.6,197.71,395.6,201.62Z"/><path class="be" d="M395.59,201.63V334.45c0,3.92-3.2,5.27-7.12,3l-73-42.17-141.6-81.75c-3.91-2.27-7.12-7.31-7.12-11.23V69.5c0-3.92,3.21-5.27,7.12-3l101.89,58.83,112.75,65.1C392.39,192.67,395.59,197.72,395.59,201.63Z"/><path class="bf" d="M395.57,201.65V334.46c0,3.92-3.2,5.27-7.11,3l-73-42.16L173.81,213.55c-3.91-2.26-7.11-7.31-7.11-11.23V69.51c0-3.91,3.2-5.27,7.11-3L275.7,125.33l112.76,65.1C392.37,192.68,395.57,197.74,395.57,201.65Z"/><path class="bg" d="M395.56,201.66V334.48c0,3.92-3.2,5.26-7.12,3l-73-42.17L173.8,213.56c-3.91-2.26-7.12-7.3-7.12-11.22V69.52c0-3.91,3.21-5.27,7.12-3l101.89,58.82,112.75,65.1C392.36,192.7,395.56,197.75,395.56,201.66Z"/><path class="bh" d="M395.54,201.67V334.49c0,3.92-3.2,5.26-7.11,3l-73-42.17L173.78,213.57c-3.91-2.26-7.11-7.3-7.11-11.22V69.53c0-3.91,3.2-5.26,7.11-3l101.89,58.83,112.76,65.09C392.34,192.71,395.54,197.76,395.54,201.67Z"/><path class="bi" d="M395.53,201.68V334.5c0,3.92-3.2,5.27-7.12,3l-73-42.17-141.6-81.75c-3.91-2.27-7.12-7.31-7.12-11.23V69.54c0-3.91,3.21-5.26,7.12-3l101.89,58.83,112.75,65.1C392.33,192.72,395.53,197.77,395.53,201.68Z"/><path class="bj" d="M395.51,201.7V334.51c0,3.92-3.2,5.27-7.11,3l-73-42.17L173.75,213.6c-3.91-2.26-7.11-7.31-7.11-11.23V69.56c0-3.92,3.2-5.27,7.11-3l101.89,58.83,112.76,65.1C392.31,192.73,395.51,197.78,395.51,201.7Z"/><path class="bk" d="M395.5,201.71V334.52c0,3.92-3.2,5.27-7.12,3l-73-42.17-141.6-81.76c-3.91-2.26-7.11-7.3-7.11-11.22V69.57c0-3.91,3.2-5.27,7.11-3l101.89,58.82,112.75,65.1C392.3,192.75,395.5,197.8,395.5,201.71Z"/><path class="bl" d="M395.48,201.72V334.54c0,3.92-3.2,5.26-7.11,3l-73-42.17L173.72,213.62c-3.91-2.26-7.11-7.3-7.11-11.22V69.58c0-3.91,3.2-5.26,7.11-3l101.89,58.83L388.37,190.5C392.28,192.76,395.48,197.81,395.48,201.72Z"/><path class="bm" d="M395.47,201.73V334.55c0,3.92-3.2,5.27-7.12,3l-73-42.17-141.6-81.75c-3.91-2.27-7.11-7.31-7.11-11.23V69.59c0-3.91,3.2-5.26,7.11-3L275.6,125.42l112.75,65.1C392.27,192.77,395.47,197.82,395.47,201.73Z"/><path class="bn" d="M395.45,201.74V334.56c0,3.92-3.2,5.27-7.11,3l-73-42.17L173.69,213.65c-3.91-2.26-7.11-7.31-7.11-11.23V69.61c0-3.92,3.2-5.27,7.11-3l101.89,58.83,112.76,65.1C392.25,192.78,395.45,197.83,395.45,201.74Z"/><path class="bo" d="M395.44,201.76V334.57c0,3.92-3.2,5.27-7.12,3l-73-42.17-141.6-81.76c-3.91-2.26-7.11-7.31-7.11-11.23V69.62c0-3.91,3.2-5.27,7.11-3l101.89,58.83,112.75,65.1C392.24,192.79,395.44,197.85,395.44,201.76Z"/><path class="bp" d="M395.42,201.77V334.59c0,3.92-3.2,5.26-7.11,3l-73-42.17-141.6-81.76c-3.92-2.26-7.12-7.3-7.12-11.22V69.63c0-3.91,3.2-5.27,7.12-3l101.88,58.82,112.76,65.1C392.22,192.81,395.42,197.86,395.42,201.77Z"/><path class="bq" d="M395.41,201.78V334.6c0,3.92-3.2,5.26-7.12,3l-73-42.17-141.6-81.76c-3.91-2.26-7.11-7.3-7.11-11.22V69.64c0-3.91,3.2-5.26,7.11-3l101.89,58.83,112.75,65.09C392.21,192.82,395.41,197.87,395.41,201.78Z"/><path class="br" d="M395.39,201.79V334.61c0,3.92-3.2,5.27-7.11,3l-73-42.17L173.64,213.7c-3.92-2.27-7.12-7.31-7.12-11.23V69.65c0-3.91,3.2-5.26,7.12-3l101.88,58.83,112.76,65.1C392.19,192.83,395.39,197.88,395.39,201.79Z"/><path class="bs" d="M395.38,201.81V334.62c0,3.92-3.2,5.27-7.12,3l-73-42.16-141.6-81.76c-3.91-2.26-7.11-7.31-7.11-11.23V69.67c0-3.91,3.2-5.27,7.11-3l101.89,58.83,112.75,65.1C392.18,192.84,395.38,197.89,395.38,201.81Z"/><path class="bt" d="M395.36,201.82V334.64c0,3.91-3.2,5.26-7.11,3l-73-42.17-141.6-81.76c-3.92-2.26-7.12-7.3-7.12-11.22V69.68c0-3.91,3.2-5.27,7.12-3L275.49,125.5l112.76,65.1C392.16,192.86,395.36,197.91,395.36,201.82Z"/><path class="bu" d="M395.35,201.83V334.65c0,3.92-3.2,5.26-7.11,3l-73.05-42.17-141.6-81.76c-3.91-2.26-7.11-7.3-7.11-11.22V69.69c0-3.91,3.2-5.26,7.11-3l101.89,58.83,112.76,65.09C392.15,192.87,395.35,197.92,395.35,201.83Z"/><path class="bv" d="M395.33,201.84V334.66c0,3.92-3.2,5.27-7.11,3l-73-42.17-141.6-81.75c-3.92-2.27-7.12-7.31-7.12-11.23V69.7c0-3.91,3.2-5.26,7.12-3l101.88,58.83,112.76,65.1C392.13,192.88,395.33,197.93,395.33,201.84Z"/><path class="bw" d="M395.32,201.86V334.67c0,3.92-3.2,5.27-7.11,3l-73-42.17-141.6-81.75c-3.91-2.26-7.11-7.31-7.11-11.23V69.72c0-3.92,3.2-5.27,7.11-3l101.89,58.83,112.76,65.1C392.12,192.89,395.32,197.94,395.32,201.86Z"/><path class="bx" d="M395.3,201.87V334.68c0,3.92-3.2,5.27-7.11,3l-73-42.17-141.6-81.76c-3.92-2.26-7.12-7.31-7.12-11.22V69.73c0-3.91,3.2-5.27,7.12-3l101.88,58.82,112.76,65.1C392.1,192.91,395.3,198,395.3,201.87Z"/><path class="by" d="M395.29,201.88V334.7c0,3.92-3.2,5.26-7.11,3l-73.05-42.17-141.6-81.76c-3.91-2.26-7.11-7.3-7.11-11.22V69.74c0-3.91,3.2-5.27,7.11-3l101.89,58.83,112.76,65.09C392.09,192.92,395.29,198,395.29,201.88Z"/><path class="bz" d="M395.27,201.89V334.71c0,3.92-3.2,5.27-7.11,3l-73-42.17L173.52,213.8c-3.92-2.27-7.12-7.31-7.12-11.23V69.75c0-3.91,3.2-5.26,7.12-3L275.4,125.58l112.76,65.09C392.07,192.93,395.27,198,395.27,201.89Z"/><path class="ca" d="M395.26,201.9V334.72c0,3.92-3.2,5.27-7.11,3l-73-42.17L173.5,213.81c-3.91-2.27-7.11-7.31-7.11-11.23V69.77c0-3.92,3.2-5.27,7.11-3l101.89,58.83,112.76,65.1C392.06,192.94,395.26,198,395.26,201.9Z"/><path class="cb" d="M395.25,201.92V334.73c0,3.92-3.21,5.27-7.12,3l-73-42.16-141.6-81.76c-3.92-2.26-7.12-7.31-7.12-11.23V69.78c0-3.91,3.2-5.27,7.12-3L275.38,125.6l112.75,65.1C392,193,395.25,198,395.25,201.92Z"/><path class="cc" d="M395.23,201.93V334.75c0,3.92-3.2,5.26-7.11,3l-73-42.17L173.47,213.83c-3.91-2.26-7.11-7.3-7.11-11.22V69.79c0-3.91,3.2-5.27,7.11-3l101.89,58.82,112.76,65.1C392,193,395.23,198,395.23,201.93Z"/><path class="cd" d="M395.22,201.94V334.76c0,3.92-3.21,5.26-7.12,3l-73-42.17-141.6-81.76c-3.92-2.26-7.12-7.3-7.12-11.22V69.8c0-3.91,3.2-5.26,7.12-3l101.89,58.83L388.1,190.72C392,193,395.22,198,395.22,201.94Z"/><path class="ce" d="M395.2,202V334.77c0,3.92-3.2,5.27-7.11,3l-73-42.17L173.44,213.86c-3.91-2.27-7.11-7.31-7.11-11.23V69.81c0-3.91,3.2-5.26,7.11-3l101.89,58.83,112.76,65.1C392,193,395.2,198,395.2,202Z"/><path class="cf" d="M395.19,202V334.78c0,3.92-3.21,5.27-7.12,3l-73-42.16-141.6-81.76c-3.92-2.26-7.12-7.31-7.12-11.23V69.83c0-3.92,3.2-5.27,7.12-3l101.89,58.83,112.75,65.1C392,193,395.19,198.05,395.19,202Z"/><path class="cg" d="M395.17,202V334.79c0,3.92-3.2,5.27-7.11,3l-73-42.17L173.41,213.88c-3.91-2.26-7.11-7.3-7.11-11.22V69.84c0-3.91,3.2-5.27,7.11-3L275.3,125.66l112.76,65.1C392,193,395.17,198.07,395.17,202Z"/><path class="ch" d="M395.16,202V334.81c0,3.92-3.21,5.26-7.12,3l-73-42.17L173.4,213.89c-3.92-2.26-7.12-7.3-7.12-11.22V69.85c0-3.91,3.2-5.26,7.12-3l101.89,58.83L388,190.77C392,193,395.16,198.08,395.16,202Z"/><path class="ci" d="M395.14,202V334.82c0,3.92-3.2,5.27-7.11,3l-73-42.17L173.38,213.91c-3.91-2.27-7.11-7.31-7.11-11.23V69.86c0-3.91,3.2-5.26,7.11-3l101.89,58.83L388,190.79C391.94,193,395.14,198.09,395.14,202Z"/><path class="cj" d="M395.13,202V334.83c0,3.92-3.21,5.27-7.12,3l-73-42.17-141.6-81.75c-3.91-2.26-7.12-7.31-7.12-11.23V69.88c0-3.92,3.21-5.27,7.12-3L275.26,125.7,388,190.8C391.92,193.05,395.13,198.1,395.13,202Z"/><path class="ck" d="M395.11,202V334.84c0,3.92-3.2,5.27-7.11,3l-73-42.17L173.35,213.93c-3.91-2.26-7.11-7.31-7.11-11.23V69.89c0-3.91,3.2-5.27,7.11-3l101.89,58.83L388,190.81C391.91,193.06,395.11,198.12,395.11,202Z"/><path class="cl" d="M395.1,202V334.86c0,3.92-3.21,5.26-7.12,3l-73-42.17-141.6-81.76c-3.91-2.26-7.12-7.3-7.12-11.22V69.9c0-3.91,3.21-5.27,7.12-3l101.89,58.82L388,190.82C391.89,193.08,395.1,198.13,395.1,202Z"/><path class="cm" d="M395.08,202.05V334.87c0,3.92-3.2,5.26-7.11,3l-73-42.17L173.32,214c-3.91-2.26-7.11-7.3-7.11-11.22V69.91c0-3.91,3.2-5.26,7.11-3l101.89,58.83L388,190.83C391.88,193.09,395.08,198.14,395.08,202.05Z"/><path class="cn" d="M395.07,202.06V334.88c0,3.92-3.21,5.27-7.12,3l-73-42.17L173.31,214c-3.91-2.27-7.12-7.31-7.12-11.23V69.93c0-3.92,3.21-5.27,7.12-3L275.2,125.75,388,190.85C391.86,193.1,395.07,198.15,395.07,202.06Z"/><path class="co" d="M395.05,202.08V334.89c0,3.92-3.2,5.27-7.11,3l-73-42.16L173.29,214c-3.91-2.26-7.11-7.31-7.11-11.23V69.94c0-3.91,3.2-5.27,7.11-3l101.89,58.83,112.76,65.1C391.85,193.11,395.05,198.16,395.05,202.08Z"/><path class="cp" d="M395,202.09V334.91c0,3.91-3.21,5.26-7.12,3l-73-42.17L173.28,214c-3.91-2.26-7.12-7.3-7.12-11.22V70c0-3.91,3.21-5.27,7.12-3l101.89,58.82,112.75,65.1C391.83,193.13,395,198.18,395,202.09Z"/><path class="cq" d="M395,202.1V334.92c0,3.92-3.2,5.26-7.11,3l-73-42.17L173.26,214c-3.91-2.26-7.11-7.3-7.11-11.22V70c0-3.91,3.2-5.26,7.11-3l101.89,58.83,112.76,65.09C391.82,193.14,395,198.19,395,202.1Z"/><path class="cr" d="M395,202.11V334.93c0,3.92-3.21,5.27-7.12,3l-73-42.17L173.25,214c-3.91-2.27-7.12-7.31-7.12-11.23V70c0-3.91,3.21-5.26,7.12-3L275.14,125.8l112.75,65.1C391.8,193.15,395,198.2,395,202.11Z"/><path class="cs" d="M395,202.13V334.94c0,3.92-3.2,5.27-7.11,3l-73-42.17L173.23,214c-3.91-2.26-7.11-7.31-7.11-11.23V70c0-3.92,3.2-5.27,7.11-3l101.89,58.83,112.76,65.1C391.79,193.16,395,198.21,395,202.13Z"/><path class="ct" d="M395,202.14V335c0,3.92-3.21,5.27-7.12,3l-73-42.17L173.22,214c-3.91-2.26-7.12-7.31-7.12-11.22V70c0-3.91,3.21-5.27,7.12-3l101.89,58.82,112.75,65.1C391.77,193.18,395,198.23,395,202.14Z"/><path class="cu" d="M395,202.15V335c0,3.92-3.2,5.26-7.11,3l-73-42.17L173.2,214.05c-3.91-2.26-7.11-7.3-7.11-11.22V70c0-3.91,3.2-5.27,7.11-3l101.89,58.83,112.76,65.09C391.76,193.19,395,198.24,395,202.15Z"/><path class="cv" d="M395,202.16V335c0,3.92-3.21,5.27-7.12,3l-73-42.17-141.6-81.75c-3.91-2.27-7.12-7.31-7.12-11.23V70c0-3.91,3.21-5.26,7.12-3l101.89,58.83,112.75,65.09C391.74,193.2,395,198.25,395,202.16Z"/><path class="cw" d="M394.93,202.17V335c0,3.92-3.2,5.27-7.11,3l-73-42.17L173.17,214.08c-3.91-2.27-7.11-7.31-7.11-11.23V70c0-3.92,3.2-5.27,7.11-3l101.89,58.83L387.82,191C391.73,193.21,394.93,198.26,394.93,202.17Z"/><path class="cx" d="M394.92,202.19V335c0,3.92-3.21,5.27-7.12,3l-73-42.16-141.6-81.76c-3.91-2.26-7.12-7.31-7.12-11.23V70.05c0-3.91,3.21-5.27,7.12-3l101.89,58.83L387.8,191C391.71,193.22,394.92,198.28,394.92,202.19Z"/><path class="cy" d="M394.9,202.2V335c0,3.92-3.2,5.26-7.11,3l-73-42.17L173.14,214.1c-3.91-2.26-7.11-7.3-7.11-11.22V70.06c0-3.91,3.2-5.27,7.11-3L275,125.88,387.79,191C391.7,193.24,394.9,198.29,394.9,202.2Z"/><path class="cz" d="M394.89,202.21V335c0,3.92-3.21,5.26-7.12,3l-73-42.17-141.6-81.76c-3.91-2.26-7.12-7.3-7.12-11.22V70.07c0-3.91,3.21-5.26,7.12-3L275,125.9,387.77,191C391.68,193.25,394.89,198.3,394.89,202.21Z"/><path class="da" d="M394.87,202.22V335c0,3.92-3.2,5.27-7.11,3l-73-42.17L173.11,214.13c-3.91-2.27-7.11-7.31-7.11-11.23V70.08c0-3.91,3.2-5.26,7.11-3L275,125.91,387.76,191C391.67,193.26,394.87,198.31,394.87,202.22Z"/><path class="db" d="M394.86,202.24V335.05c0,3.92-3.21,5.27-7.12,3l-73-42.16L173.1,214.14c-3.91-2.26-7.12-7.31-7.12-11.23V70.1c0-3.91,3.21-5.27,7.12-3L275,125.92,387.74,191C391.65,193.27,394.86,198.32,394.86,202.24Z"/><path class="dc" d="M394.84,202.25V335.06c0,3.92-3.2,5.27-7.11,3l-73-42.17L173.08,214.15c-3.91-2.26-7.11-7.3-7.11-11.22V70.11c0-3.91,3.2-5.27,7.11-3L275,125.93,387.73,191C391.64,193.29,394.84,198.34,394.84,202.25Z"/><path class="dd" d="M394.83,202.26V335.08c0,3.92-3.2,5.26-7.12,3l-73-42.17-141.6-81.76c-3.91-2.26-7.12-7.3-7.12-11.22V70.12c0-3.91,3.21-5.26,7.12-3L275,126,387.71,191C391.63,193.3,394.83,198.35,394.83,202.26Z"/><path class="de" d="M394.81,202.27V335.09c0,3.92-3.2,5.27-7.11,3l-73-42.17L173.05,214.18c-3.91-2.27-7.11-7.31-7.11-11.23V70.13c0-3.91,3.2-5.26,7.11-3L274.94,126l112.76,65.1C391.61,193.31,394.81,198.36,394.81,202.27Z"/><path class="df" d="M394.8,202.29V335.1c0,3.92-3.2,5.27-7.12,3l-73-42.17L173,214.19c-3.91-2.26-7.12-7.31-7.12-11.23V70.15c0-3.92,3.21-5.27,7.12-3L274.93,126l112.75,65.1C391.6,193.32,394.8,198.37,394.8,202.29Z"/><path class="dg" d="M394.78,202.3V335.11c0,3.92-3.2,5.27-7.11,3l-73-42.17L173,214.2c-3.91-2.26-7.11-7.31-7.11-11.23V70.16c0-3.91,3.2-5.27,7.11-3L274.91,126l112.76,65.1C391.58,193.33,394.78,198.39,394.78,202.3Z"/><path class="dh" d="M394.77,202.31V335.13c0,3.92-3.2,5.26-7.12,3l-73-42.17L173,214.21c-3.91-2.26-7.12-7.3-7.12-11.22V70.17c0-3.91,3.21-5.27,7.12-3L274.9,126l112.75,65.1C391.57,193.35,394.77,198.4,394.77,202.31Z"/><path class="di" d="M394.75,202.32V335.14c0,3.92-3.2,5.26-7.11,3L314.6,296,173,214.22c-3.91-2.26-7.11-7.3-7.11-11.22V70.18c0-3.91,3.2-5.26,7.11-3L274.88,126,387.64,191.1C391.55,193.36,394.75,198.41,394.75,202.32Z"/><path class="dj" d="M394.74,202.33V335.15c0,3.92-3.2,5.27-7.12,3l-73-42.17L173,214.24c-3.91-2.27-7.12-7.31-7.12-11.23V70.2c0-3.92,3.21-5.27,7.12-3L274.87,126l112.75,65.1C391.54,193.37,394.74,198.42,394.74,202.33Z"/><path class="dk" d="M394.72,202.35V335.16c0,3.92-3.2,5.27-7.11,3l-73-42.16L173,214.25c-3.91-2.26-7.11-7.31-7.11-11.23V70.21c0-3.91,3.2-5.27,7.11-3L274.85,126l112.76,65.1C391.52,193.38,394.72,198.43,394.72,202.35Z"/><path class="dl" d="M394.71,202.36V335.18c0,3.91-3.2,5.26-7.12,3l-73-42.17L173,214.26C169,212,165.83,207,165.83,203V70.22c0-3.91,3.21-5.27,7.12-3L274.84,126l112.75,65.1C391.51,193.4,394.71,198.45,394.71,202.36Z"/><path class="dm" d="M394.69,202.37V335.19c0,3.92-3.2,5.26-7.11,3l-73-42.17L172.93,214.27c-3.91-2.26-7.11-7.3-7.11-11.22V70.23c0-3.91,3.2-5.26,7.11-3l101.89,58.83,112.76,65.09C391.49,193.41,394.69,198.46,394.69,202.37Z"/><path class="dn" d="M394.68,202.38V335.2c0,3.92-3.2,5.27-7.12,3l-73-42.17-141.6-81.75c-3.91-2.27-7.11-7.31-7.11-11.23V70.24c0-3.91,3.2-5.26,7.11-3l101.89,58.83,112.75,65.1C391.48,193.42,394.68,198.47,394.68,202.38Z"/><path class="do" d="M394.66,202.4V335.21c0,3.92-3.2,5.27-7.11,3l-73-42.17L172.9,214.3c-3.91-2.26-7.11-7.31-7.11-11.23V70.26c0-3.92,3.2-5.27,7.11-3l101.89,58.83,112.76,65.1C391.46,193.43,394.66,198.48,394.66,202.4Z"/><path class="dp" d="M394.65,202.41V335.22c0,3.92-3.2,5.27-7.12,3l-73-42.17-141.6-81.76c-3.91-2.26-7.11-7.31-7.11-11.22V70.27c0-3.91,3.2-5.27,7.11-3l101.89,58.82,112.75,65.1C391.45,193.45,394.65,198.5,394.65,202.41Z"/><path class="dq" d="M394.63,202.42V335.24c0,3.92-3.2,5.26-7.11,3l-73-42.17L172.87,214.32c-3.91-2.26-7.11-7.3-7.11-11.22V70.28c0-3.91,3.2-5.27,7.11-3l101.89,58.83L387.52,191.2C391.43,193.46,394.63,198.51,394.63,202.42Z"/><path class="dr" d="M394.62,202.43V335.25c0,3.92-3.2,5.27-7.12,3l-73-42.17-141.6-81.75c-3.91-2.27-7.11-7.31-7.11-11.23V70.29c0-3.91,3.2-5.26,7.11-3l101.89,58.83,112.75,65.1C391.42,193.47,394.62,198.52,394.62,202.43Z"/><path class="ds" d="M394.6,202.44V335.26c0,3.92-3.2,5.27-7.11,3l-73-42.17-141.6-81.75c-3.92-2.26-7.12-7.31-7.12-11.23V70.31c0-3.92,3.2-5.27,7.12-3l101.88,58.83,112.76,65.1C391.4,193.48,394.6,198.53,394.6,202.44Z"/><path class="dt" d="M394.59,202.46V335.27c0,3.92-3.2,5.27-7.12,3l-73-42.17-141.6-81.76c-3.91-2.26-7.11-7.31-7.11-11.23V70.32c0-3.91,3.2-5.27,7.11-3l101.89,58.83,112.75,65.1C391.39,193.49,394.59,198.55,394.59,202.46Z"/><path class="du" d="M394.57,202.47V335.29c0,3.92-3.2,5.26-7.11,3l-73-42.17-141.6-81.76c-3.92-2.26-7.12-7.3-7.12-11.22V70.33c0-3.91,3.2-5.27,7.12-3L274.7,126.15l112.76,65.1C391.37,193.51,394.57,198.56,394.57,202.47Z"/><path class="dv" d="M394.56,202.48V335.3c0,3.92-3.2,5.26-7.12,3l-73-42.17L172.8,214.38c-3.91-2.26-7.11-7.3-7.11-11.22V70.34c0-3.91,3.2-5.26,7.11-3l101.89,58.83,112.75,65.09C391.36,193.52,394.56,198.57,394.56,202.48Z"/><path class="dw" d="M394.54,202.49V335.31c0,3.92-3.2,5.27-7.11,3l-73-42.17L172.79,214.4c-3.92-2.27-7.12-7.31-7.12-11.23V70.35c0-3.91,3.2-5.26,7.12-3l101.88,58.83,112.76,65.1C391.34,193.53,394.54,198.58,394.54,202.49Z"/><path class="dx" d="M394.53,202.51V335.32c0,3.92-3.2,5.27-7.11,3l-73.05-42.16-141.6-81.76c-3.91-2.26-7.11-7.31-7.11-11.23V70.37c0-3.91,3.2-5.27,7.11-3l101.89,58.83,112.76,65.1C391.33,193.54,394.53,198.59,394.53,202.51Z"/><path class="dy" d="M394.51,202.52V335.33c0,3.92-3.2,5.27-7.11,3l-73-42.17-141.6-81.76c-3.92-2.26-7.12-7.3-7.12-11.22V70.38c0-3.91,3.2-5.27,7.12-3L274.64,126.2,387.4,191.3C391.31,193.56,394.51,198.61,394.51,202.52Z"/><path class="dz" d="M394.5,202.53V335.35c0,3.92-3.2,5.26-7.11,3l-73.05-42.17-141.6-81.76c-3.91-2.26-7.11-7.3-7.11-11.22V70.39c0-3.91,3.2-5.26,7.11-3l101.89,58.83,112.76,65.09C391.3,193.57,394.5,198.62,394.5,202.53Z"/><path class="ea" d="M394.48,202.54V335.36c0,3.92-3.2,5.27-7.11,3l-73-42.17-141.6-81.75c-3.92-2.27-7.12-7.31-7.12-11.23V70.4c0-3.91,3.2-5.26,7.12-3l101.88,58.83,112.76,65.1C391.28,193.58,394.48,198.63,394.48,202.54Z"/><path class="eb" d="M394.47,202.56V335.37c0,3.92-3.2,5.27-7.11,3l-73.05-42.17-141.6-81.75c-3.91-2.26-7.11-7.31-7.11-11.23V70.42c0-3.92,3.2-5.27,7.11-3L274.6,126.24l112.76,65.1C391.27,193.59,394.47,198.64,394.47,202.56Z"/><path class="ec" d="M394.45,202.57V335.38c0,3.92-3.2,5.27-7.11,3l-73-42.17L172.7,214.47c-3.92-2.26-7.12-7.31-7.12-11.23V70.43c0-3.91,3.2-5.27,7.12-3l101.89,58.83,112.75,65.1C391.25,193.6,394.45,198.66,394.45,202.57Z"/><path class="ed" d="M394.44,202.58V335.4c0,3.92-3.2,5.26-7.11,3l-73-42.17L172.68,214.48c-3.91-2.26-7.11-7.3-7.11-11.22V70.44c0-3.91,3.2-5.27,7.11-3l101.89,58.82,112.76,65.1C391.24,193.62,394.44,198.67,394.44,202.58Z"/><path class="ee" d="M394.43,202.59V335.41c0,3.92-3.21,5.26-7.12,3l-73-42.17-141.6-81.76c-3.92-2.26-7.12-7.3-7.12-11.22V70.45c0-3.91,3.2-5.26,7.12-3l101.89,58.83,112.75,65.09C391.22,193.63,394.43,198.68,394.43,202.59Z"/><path class="ef" d="M394.41,202.6V335.42c0,3.92-3.2,5.27-7.11,3l-73-42.17L172.65,214.51c-3.91-2.27-7.11-7.31-7.11-11.23V70.47c0-3.92,3.2-5.27,7.11-3l101.89,58.83,112.76,65.1C391.21,193.64,394.41,198.69,394.41,202.6Z"/><path class="eg" d="M394.4,202.62V335.43c0,3.92-3.21,5.27-7.12,3l-73-42.16-141.6-81.76c-3.92-2.26-7.12-7.31-7.12-11.23V70.48c0-3.91,3.2-5.27,7.12-3L274.53,126.3l112.75,65.1C391.19,193.65,394.4,198.71,394.4,202.62Z"/><path class="eh" d="M394.38,202.63V335.45c0,3.92-3.2,5.26-7.11,3l-73-42.17L172.62,214.53c-3.91-2.26-7.11-7.3-7.11-11.22V70.49c0-3.91,3.2-5.27,7.11-3l101.89,58.82,112.76,65.1C391.18,193.67,394.38,198.72,394.38,202.63Z"/><path class="ei" d="M394.37,202.64V335.46c0,3.92-3.21,5.26-7.12,3l-73-42.17-141.6-81.76c-3.92-2.26-7.12-7.3-7.12-11.22V70.5c0-3.91,3.2-5.26,7.12-3L274.5,126.33l112.75,65.09C391.16,193.68,394.37,198.73,394.37,202.64Z"/><path class="ej" d="M394.35,202.65V335.47c0,3.92-3.2,5.27-7.11,3l-73-42.17L172.59,214.56c-3.91-2.27-7.11-7.31-7.11-11.23V70.51c0-3.91,3.2-5.26,7.11-3l101.89,58.83,112.76,65.1C391.15,193.69,394.35,198.74,394.35,202.65Z"/><path class="ek" d="M394.34,202.67V335.48c0,3.92-3.21,5.27-7.12,3l-73-42.17-141.6-81.75c-3.91-2.26-7.12-7.31-7.12-11.23V70.53c0-3.92,3.21-5.27,7.12-3l101.89,58.83,112.75,65.1C391.13,193.7,394.34,198.75,394.34,202.67Z"/><path class="el" d="M394.32,202.68V335.49c0,3.92-3.2,5.27-7.11,3l-73-42.17L172.56,214.58c-3.91-2.26-7.11-7.3-7.11-11.22V70.54c0-3.91,3.2-5.27,7.11-3l101.89,58.82,112.76,65.1C391.12,193.72,394.32,198.77,394.32,202.68Z"/><path class="em" d="M394.31,202.69V335.51c0,3.92-3.21,5.26-7.12,3l-73-42.17-141.6-81.76c-3.91-2.26-7.12-7.3-7.12-11.22V70.55c0-3.91,3.21-5.26,7.12-3l101.89,58.83,112.75,65.09C391.1,193.73,394.31,198.78,394.31,202.69Z"/><path class="en" d="M394.29,202.7V335.52c0,3.92-3.2,5.27-7.11,3l-73-42.17L172.53,214.61c-3.91-2.27-7.11-7.31-7.11-11.23V70.56c0-3.91,3.2-5.26,7.11-3l101.89,58.83,112.76,65.1C391.09,193.74,394.29,198.79,394.29,202.7Z"/><path class="eo" d="M394.28,202.71V335.53c0,3.92-3.21,5.27-7.12,3l-73-42.17-141.6-81.75c-3.91-2.26-7.12-7.31-7.12-11.23V70.58c0-3.92,3.21-5.27,7.12-3L274.41,126.4l112.75,65.1C391.07,193.75,394.28,198.8,394.28,202.71Z"/><path class="ep" d="M394.26,202.73V335.54c0,3.92-3.2,5.27-7.11,3l-73-42.17L172.5,214.63c-3.91-2.26-7.11-7.31-7.11-11.23V70.59c0-3.91,3.2-5.27,7.11-3l101.89,58.83,112.76,65.1C391.06,193.76,394.26,198.82,394.26,202.73Z"/><path class="eq" d="M394.25,202.74V335.56c0,3.92-3.21,5.26-7.12,3l-73-42.17-141.6-81.76c-3.91-2.26-7.12-7.3-7.12-11.22V70.6c0-3.91,3.21-5.27,7.12-3l101.89,58.82,112.75,65.1C391,193.78,394.25,198.83,394.25,202.74Z"/><path class="er" d="M394.23,202.75V335.57c0,3.92-3.2,5.26-7.11,3l-73-42.17L172.47,214.65c-3.91-2.26-7.11-7.3-7.11-11.22V70.61c0-3.91,3.2-5.26,7.11-3l101.89,58.83,112.76,65.09C391,193.79,394.23,198.84,394.23,202.75Z"/><path class="es" d="M394.22,202.76V335.58c0,3.92-3.21,5.27-7.12,3l-73-42.17-141.6-81.75c-3.91-2.27-7.12-7.31-7.12-11.23V70.62c0-3.91,3.21-5.26,7.12-3l101.89,58.83,112.75,65.1C391,193.8,394.22,198.85,394.22,202.76Z"/><path class="et" d="M394.2,202.78V335.59c0,3.92-3.2,5.27-7.11,3l-73-42.16L172.44,214.68c-3.91-2.26-7.11-7.31-7.11-11.23V70.64c0-3.91,3.2-5.27,7.11-3l101.89,58.83,112.76,65.1C391,193.81,394.2,198.86,394.2,202.78Z"/><path class="eu" d="M394.19,202.79V335.61c0,3.91-3.21,5.26-7.12,3l-73-42.17-141.6-81.76c-3.91-2.26-7.12-7.3-7.12-11.22V70.65c0-3.91,3.21-5.27,7.12-3l101.89,58.82,112.75,65.1C391,193.83,394.19,198.88,394.19,202.79Z"/><path class="ev" d="M394.17,202.8V335.62c0,3.92-3.2,5.26-7.11,3l-73-42.17L172.41,214.7c-3.91-2.26-7.11-7.3-7.11-11.22V70.66c0-3.91,3.2-5.26,7.11-3L274.3,126.49l112.76,65.09C391,193.84,394.17,198.89,394.17,202.8Z"/><path class="ew" d="M394.16,202.81V335.63c0,3.92-3.21,5.27-7.12,3l-73-42.17L172.4,214.72c-3.91-2.27-7.12-7.31-7.12-11.23V70.67c0-3.91,3.21-5.26,7.12-3L274.29,126.5,387,191.6C391,193.85,394.16,198.9,394.16,202.81Z"/><polygon class="ex" points="387.72 203.56 387.72 331.62 170.58 205.32 170.49 78.01 387.72 203.56"/><path class="e" d="M386.8,203.12a3.38,3.38,0,0,1,1.53,2.65L388,330c0,1-.7,1.37-1.54.88L170.92,206.49a3.36,3.36,0,0,1-1.53-2.66l.35-124.26c0-1,.69-1.37,1.54-.88Z"/><path class="ey" d="M281.75,136.86a4.22,4.22,0,0,0-2-3.2c-1.12-.64-2-.26-2,.86a4.18,4.18,0,0,0,2,3.19C280.84,138.36,281.75,138,281.75,136.86Z"/><path class="ez" d="M281.51,136.34a2.38,2.38,0,0,0-1.14-1.79c-.62-.36-1.13-.14-1.13.48a2.36,2.36,0,0,0,1.13,1.79C281,137.18,281.51,137,281.51,136.34Z"/><path class="dt" d="M388.52,341.82v.4c-.07,1.68-1.21,3.33-3.41,4.62L252.7,423.28c-4.57,2.63-12,2.63-16.55,0l-214-123.54c-2.21-1.28-3.35-2.94-3.41-4.61v-.37c.08-1.66,1.22-3.32,3.41-4.58l132.41-76.44c4.56-2.64,12-2.64,16.54,0l214,123.54C387.28,338.53,388.42,340.17,388.52,341.82Z"/><path class="ew" d="M359.79,340.38a3.72,3.72,0,0,1-2,2.3l-75.6,43.64a10.68,10.68,0,0,1-9.69,0L83.38,277.1a3.68,3.68,0,0,1-1.95-2.29c-.26-1.17.38-2.4,1.95-3.3L159,227.86a10.76,10.76,0,0,1,9.7,0L357.84,337.08C359.41,338,360.05,339.21,359.79,340.38Z"/><path class="fa" d="M208.29,352.63a1.81,1.81,0,0,1-.87,1l-38.21,22.06a4.89,4.89,0,0,1-4.41,0l-62.1-35.86a1.66,1.66,0,0,1-.86-1c-.17-.55.13-1.13.86-1.56l38.21-22.06a4.87,4.87,0,0,1,4.4,0l62.11,35.85A1.42,1.42,0,0,1,208.29,352.63Z"/><path class="ew" d="M208.29,352.63a1.81,1.81,0,0,1-.87,1l-38.21,22.06a4.89,4.89,0,0,1-4.41,0l-62.1-35.86a1.66,1.66,0,0,1-.86-1,1.7,1.7,0,0,1,.86-1l38.21-22.06a4.87,4.87,0,0,1,4.4,0l62.11,35.85A1.74,1.74,0,0,1,208.29,352.63Z"/><g class="fb"><path class="fc" d="M332.83,353.5a2.41,2.41,0,0,0,2.16,0l9.22-5.32c.6-.35.6-.91,0-1.25l-11.31-6.54a2.44,2.44,0,0,0-2.17,0l-9.22,5.33a.66.66,0,0,0,0,1.25Z"/><path class="fc" d="M164.93,256.56a2.37,2.37,0,0,0,2.17,0l9.21-5.32a.66.66,0,0,0,0-1.25l-24.14-13.94a2.41,2.41,0,0,0-2.16,0l-9.22,5.32c-.6.35-.6.91,0,1.25Z"/><path class="fc" d="M146,260.18a2.35,2.35,0,0,0,2.16,0l9.22-5.32c.6-.34.6-.9,0-1.25l-17.8-10.28a2.44,2.44,0,0,0-2.17,0l-9.22,5.33a.66.66,0,0,0,0,1.25Z"/><path class="fc" d="M142.53,273.28a2.41,2.41,0,0,0,2.16,0l9.22-5.33c.6-.34.6-.9,0-1.25L126.5,250.88a2.37,2.37,0,0,0-2.17,0l-9.22,5.32a.66.66,0,0,0,0,1.25Z"/><path class="fc" d="M135.88,284.52a2.37,2.37,0,0,0,2.17,0l9.22-5.32a.66.66,0,0,0,0-1.25l-33.84-19.53a2.35,2.35,0,0,0-2.16,0l-9.22,5.32a.66.66,0,0,0,0,1.25Z"/><path class="fc" d="M320.22,360.78a2.41,2.41,0,0,0,2.16,0l9.22-5.32c.6-.35.6-.91,0-1.25L313.83,344a2.41,2.41,0,0,0-2.16,0l-9.22,5.32c-.6.35-.6.91,0,1.25Z"/><path class="fc" d="M307.61,368.06a2.35,2.35,0,0,0,2.16,0l9.22-5.32a.66.66,0,0,0,0-1.25l-21-12.12a2.44,2.44,0,0,0-2.17,0l-9.22,5.32a.66.66,0,0,0,0,1.25Z"/><path class="fc" d="M295,375.34a2.37,2.37,0,0,0,2.17,0l9.22-5.32a.66.66,0,0,0,0-1.25L279.09,353a2.35,2.35,0,0,0-2.16,0l-9.22,5.32a.66.66,0,0,0,0,1.25Z"/><path class="fc" d="M282.38,382.62a2.37,2.37,0,0,0,2.17,0l9.22-5.32a.66.66,0,0,0,0-1.25l-14.44-8.33a2.35,2.35,0,0,0-2.16,0L268,373a.66.66,0,0,0,0,1.25Z"/><path class="fc" d="M226.55,350.39a2.41,2.41,0,0,0,2.16,0l9.22-5.32c.6-.35.6-.91,0-1.25L177.63,309a2.44,2.44,0,0,0-2.17,0l-9.21,5.32c-.6.35-.6.91,0,1.25Z"/><path class="fc" d="M345.44,346.22a2.44,2.44,0,0,0,2.17,0l6.93-4a.66.66,0,0,0,0-1.25L346,336a2.37,2.37,0,0,0-2.17,0l-6.92,4c-.6.34-.6.9,0,1.25Z"/><path class="fc" d="M333.48,339.31a2.37,2.37,0,0,0,2.17,0l6.93-4a.66.66,0,0,0,0-1.25L334,329.11a2.41,2.41,0,0,0-2.16,0l-6.93,4c-.6.35-.6.91,0,1.25Z"/><path class="fc" d="M322.11,332.75a2.44,2.44,0,0,0,2.17,0l6.93-4a.66.66,0,0,0,0-1.25l-8.58-4.95a2.35,2.35,0,0,0-2.16,0l-6.93,4a.66.66,0,0,0,0,1.25Z"/><path class="fc" d="M310.74,326.18a2.37,2.37,0,0,0,2.17,0l6.93-4a.66.66,0,0,0,0-1.25L311.26,316a2.41,2.41,0,0,0-2.16,0l-6.93,4c-.6.35-.6.91,0,1.25Z"/><path class="fc" d="M299.37,319.62a2.44,2.44,0,0,0,2.17,0l6.93-4a.66.66,0,0,0,0-1.25l-8.58-4.95a2.35,2.35,0,0,0-2.16,0l-6.93,4a.66.66,0,0,0,0,1.25Z"/><path class="fc" d="M288,313.06a2.44,2.44,0,0,0,2.17,0l6.92-4c.6-.34.6-.9,0-1.25l-8.57-4.95a2.44,2.44,0,0,0-2.17,0l-6.92,4c-.6.35-.6.91,0,1.25Z"/><path class="fc" d="M276.63,306.49a2.44,2.44,0,0,0,2.17,0l6.92-4a.66.66,0,0,0,0-1.25l-8.57-4.95a2.37,2.37,0,0,0-2.17,0l-6.93,4a.66.66,0,0,0,0,1.25Z"/><path class="fc" d="M265.26,299.93a2.41,2.41,0,0,0,2.16,0l6.93-4c.6-.34.6-.9,0-1.25l-8.57-4.95a2.44,2.44,0,0,0-2.17,0l-6.93,4a.66.66,0,0,0,0,1.25Z"/><path class="fc" d="M253.89,293.36a2.41,2.41,0,0,0,2.16,0l6.93-4a.66.66,0,0,0,0-1.25l-8.57-4.95a2.44,2.44,0,0,0-2.17,0l-6.93,4a.66.66,0,0,0,0,1.25Z"/><path class="fc" d="M242.52,286.8a2.41,2.41,0,0,0,2.16,0l6.93-4a.67.67,0,0,0,0-1.26l-8.57-5a2.44,2.44,0,0,0-2.17,0l-6.93,4a.67.67,0,0,0,0,1.26Z"/><path class="fc" d="M231.15,280.23a2.41,2.41,0,0,0,2.16,0l6.93-4a.66.66,0,0,0,0-1.25l-8.57-5a2.44,2.44,0,0,0-2.17,0l-6.93,4a.66.66,0,0,0,0,1.25Z"/><path class="fc" d="M219.78,273.67a2.41,2.41,0,0,0,2.16,0l6.93-4a.67.67,0,0,0,0-1.26l-8.57-5a2.44,2.44,0,0,0-2.17,0l-6.93,4a.67.67,0,0,0,0,1.26Z"/><path class="fc" d="M208.4,267.1a2.44,2.44,0,0,0,2.17,0l6.93-4a.66.66,0,0,0,0-1.25l-8.58-5a2.41,2.41,0,0,0-2.16,0l-6.93,4a.66.66,0,0,0,0,1.25Z"/><path class="fc" d="M196.09,260a2.41,2.41,0,0,0,2.16,0l6.93-4c.6-.35.6-.91,0-1.25l-8.57-5a2.37,2.37,0,0,0-2.17,0l-6.93,4a.66.66,0,0,0,0,1.25Z"/><path class="fc" d="M184.71,253.42a2.37,2.37,0,0,0,2.17,0l6.93-4c.6-.34.6-.9,0-1.25l-8.58-4.95a2.41,2.41,0,0,0-2.16,0l-6.93,4c-.6.35-.6.91,0,1.25Z"/><path class="fc" d="M173.34,246.86a2.44,2.44,0,0,0,2.17,0l6.93-4a.66.66,0,0,0,0-1.25l-8.58-5a2.35,2.35,0,0,0-2.16,0l-6.93,4c-.6.34-.6.9,0,1.25Z"/><path class="fc" d="M162,240.29a2.37,2.37,0,0,0,2.17,0l6.93-4a.66.66,0,0,0,0-1.25l-8.58-4.95a2.41,2.41,0,0,0-2.16,0l-6.93,4c-.6.35-.6.91,0,1.25Z"/><path class="fc" d="M318.07,345a2.44,2.44,0,0,0,2.17,0l9.22-5.32a.66.66,0,0,0,0-1.25l-9.22-5.32a2.37,2.37,0,0,0-2.17,0l-9.21,5.32c-.6.34-.6.9,0,1.25Z"/><path class="fc" d="M292.49,330.21a2.44,2.44,0,0,0,2.17,0l9.21-5.32c.6-.35.6-.91,0-1.25l-9.21-5.33a2.44,2.44,0,0,0-2.17,0l-9.22,5.33a.66.66,0,0,0,0,1.25Z"/><path class="fc" d="M305.28,337.59a2.37,2.37,0,0,0,2.17,0l9.22-5.32a.66.66,0,0,0,0-1.25l-9.22-5.32a2.44,2.44,0,0,0-2.17,0L296.06,331a.66.66,0,0,0,0,1.25Z"/><path class="fc" d="M279.7,322.82a2.35,2.35,0,0,0,2.16,0l9.22-5.32c.6-.34.6-.9,0-1.25l-9.22-5.32a2.41,2.41,0,0,0-2.16,0l-9.22,5.32c-.6.35-.6.91,0,1.25Z"/><path class="fc" d="M266.91,315.44a2.41,2.41,0,0,0,2.16,0l9.22-5.32c.6-.35.6-.91,0-1.25l-9.22-5.33a2.41,2.41,0,0,0-2.16,0l-9.22,5.33c-.6.34-.6.9,0,1.25Z"/><path class="fc" d="M254.11,308.05a2.37,2.37,0,0,0,2.17,0l9.22-5.32a.66.66,0,0,0,0-1.25l-9.22-5.32a2.37,2.37,0,0,0-2.17,0l-9.22,5.32a.66.66,0,0,0,0,1.25Z"/><path class="fc" d="M241.32,300.67a2.44,2.44,0,0,0,2.17,0l9.22-5.32a.67.67,0,0,0,0-1.26l-9.22-5.32a2.44,2.44,0,0,0-2.17,0l-9.22,5.32a.67.67,0,0,0,0,1.26Z"/><path class="fc" d="M228.53,293.28a2.35,2.35,0,0,0,2.16,0l9.22-5.32a.66.66,0,0,0,0-1.25l-9.22-5.32a2.35,2.35,0,0,0-2.16,0l-9.22,5.32a.66.66,0,0,0,0,1.25Z"/><path class="fc" d="M215.74,285.9a2.41,2.41,0,0,0,2.16,0l9.22-5.33c.6-.34.6-.9,0-1.25L217.9,274a2.41,2.41,0,0,0-2.16,0l-9.22,5.32c-.6.35-.6.91,0,1.25Z"/><path class="fc" d="M202.94,278.51a2.37,2.37,0,0,0,2.17,0l9.22-5.32a.66.66,0,0,0,0-1.25l-9.22-5.32a2.37,2.37,0,0,0-2.17,0l-9.21,5.32c-.6.34-.6.9,0,1.25Z"/><path class="fc" d="M190.15,271.13a2.44,2.44,0,0,0,2.17,0l9.22-5.33a.66.66,0,0,0,0-1.25l-9.22-5.32a2.44,2.44,0,0,0-2.17,0l-9.22,5.32a.66.66,0,0,0,0,1.25Z"/><path class="fc" d="M177.36,263.74a2.44,2.44,0,0,0,2.17,0l9.21-5.32c.6-.35.6-.91,0-1.25l-9.21-5.33a2.44,2.44,0,0,0-2.17,0l-9.22,5.33a.66.66,0,0,0,0,1.25Z"/><path class="fc" d="M299.14,348.61a2.37,2.37,0,0,0,2.17,0l9.22-5.32c.6-.34.6-.9,0-1.25l-9.22-5.32a2.41,2.41,0,0,0-2.16,0L289.93,342c-.6.35-.6.91,0,1.25Z"/><path class="fc" d="M286.35,341.23a2.44,2.44,0,0,0,2.17,0l9.22-5.32a.66.66,0,0,0,0-1.25l-9.22-5.33a2.44,2.44,0,0,0-2.17,0l-9.22,5.33a.66.66,0,0,0,0,1.25Z"/><path class="fc" d="M273.56,333.84a2.37,2.37,0,0,0,2.17,0l9.22-5.32a.66.66,0,0,0,0-1.25L275.73,322a2.37,2.37,0,0,0-2.17,0l-9.22,5.32a.66.66,0,0,0,0,1.25Z"/><path class="fc" d="M260.77,326.46a2.41,2.41,0,0,0,2.16,0l9.22-5.32c.6-.35.6-.91,0-1.25l-9.22-5.33a2.41,2.41,0,0,0-2.16,0l-9.22,5.33c-.6.34-.6.9,0,1.25Z"/><path class="fc" d="M248,319.07a2.35,2.35,0,0,0,2.16,0l9.22-5.32a.66.66,0,0,0,0-1.25l-9.22-5.32a2.35,2.35,0,0,0-2.16,0l-9.22,5.32a.66.66,0,0,0,0,1.25Z"/><path class="fc" d="M235.18,311.69a2.44,2.44,0,0,0,2.17,0l9.22-5.33a.66.66,0,0,0,0-1.25l-9.22-5.32a2.44,2.44,0,0,0-2.17,0L226,305.11c-.6.35-.6.91,0,1.25Z"/><path class="fc" d="M222.39,304.3a2.37,2.37,0,0,0,2.17,0l9.22-5.32a.66.66,0,0,0,0-1.25l-9.22-5.32a2.37,2.37,0,0,0-2.17,0l-9.22,5.32a.66.66,0,0,0,0,1.25Z"/><path class="fc" d="M209.6,296.92a2.44,2.44,0,0,0,2.17,0l9.21-5.33c.6-.34.6-.9,0-1.25L211.77,285a2.44,2.44,0,0,0-2.17,0l-9.22,5.32a.66.66,0,0,0,0,1.25Z"/><path class="fc" d="M196.81,289.53a2.41,2.41,0,0,0,2.16,0l9.22-5.32c.6-.35.6-.91,0-1.25L199,277.64a2.35,2.35,0,0,0-2.16,0L187.59,283c-.6.34-.6.9,0,1.25Z"/><path class="fc" d="M184,282.15a2.41,2.41,0,0,0,2.16,0l9.22-5.33c.6-.34.6-.9,0-1.25l-9.22-5.32a2.41,2.41,0,0,0-2.16,0l-9.22,5.32c-.6.35-.6.91,0,1.25Z"/><path class="fc" d="M171.22,274.76a2.44,2.44,0,0,0,2.17,0l9.22-5.32a.66.66,0,0,0,0-1.25l-9.22-5.33a2.44,2.44,0,0,0-2.17,0L162,268.19a.66.66,0,0,0,0,1.25Z"/><path class="fc" d="M158.43,267.37a2.37,2.37,0,0,0,2.17,0l9.22-5.32a.66.66,0,0,0,0-1.25l-9.22-5.32a2.37,2.37,0,0,0-2.17,0l-9.22,5.32a.66.66,0,0,0,0,1.25Z"/><path class="fc" d="M283.37,354.59a2.37,2.37,0,0,0,2.17,0l9.22-5.32a.66.66,0,0,0,0-1.25l-9.22-5.32a2.37,2.37,0,0,0-2.17,0L274.16,348a.66.66,0,0,0,0,1.25Z"/><path class="fc" d="M270.58,347.21a2.44,2.44,0,0,0,2.17,0l9.22-5.32a.66.66,0,0,0,0-1.25l-9.22-5.33a2.44,2.44,0,0,0-2.17,0l-9.22,5.33a.66.66,0,0,0,0,1.25Z"/><path class="fc" d="M257.79,339.82a2.37,2.37,0,0,0,2.17,0l9.21-5.32a.66.66,0,0,0,0-1.25L260,327.93a2.37,2.37,0,0,0-2.17,0l-9.22,5.32a.66.66,0,0,0,0,1.25Z"/><path class="fc" d="M245,332.44a2.41,2.41,0,0,0,2.16,0l9.22-5.33c.6-.34.6-.9,0-1.25l-9.22-5.32a2.41,2.41,0,0,0-2.16,0l-9.22,5.32c-.6.35-.6.91,0,1.25Z"/><path class="fc" d="M232.21,325.05a2.35,2.35,0,0,0,2.16,0l9.22-5.32a.66.66,0,0,0,0-1.25l-9.22-5.32a2.35,2.35,0,0,0-2.16,0L223,318.48a.66.66,0,0,0,0,1.25Z"/><path class="fc" d="M219.41,317.67a2.44,2.44,0,0,0,2.17,0l9.22-5.33a.66.66,0,0,0,0-1.25l-9.22-5.32a2.44,2.44,0,0,0-2.17,0l-9.22,5.32a.66.66,0,0,0,0,1.25Z"/><path class="fc" d="M206.62,310.28a2.44,2.44,0,0,0,2.17,0L218,305a.66.66,0,0,0,0-1.25l-9.22-5.32a2.37,2.37,0,0,0-2.17,0l-9.22,5.32a.66.66,0,0,0,0,1.25Z"/><path class="fc" d="M193.83,302.9a2.44,2.44,0,0,0,2.17,0l9.21-5.33c.6-.34.6-.9,0-1.25L196,291a2.44,2.44,0,0,0-2.17,0l-9.22,5.32a.66.66,0,0,0,0,1.25Z"/><path class="fc" d="M181,295.51a2.41,2.41,0,0,0,2.16,0l9.22-5.32c.6-.35.6-.91,0-1.25l-9.22-5.33a2.41,2.41,0,0,0-2.16,0l-9.22,5.33c-.6.34-.6.9,0,1.25Z"/><path class="fc" d="M168.25,288.12a2.35,2.35,0,0,0,2.16,0l9.22-5.32c.6-.34.6-.9,0-1.25l-9.22-5.32a2.35,2.35,0,0,0-2.16,0L159,281.55c-.6.35-.6.91,0,1.25Z"/><path class="fc" d="M155.45,280.74a2.44,2.44,0,0,0,2.17,0l9.22-5.32a.66.66,0,0,0,0-1.25l-9.22-5.33a2.44,2.44,0,0,0-2.17,0l-9.22,5.33a.66.66,0,0,0,0,1.25Z"/><path class="fc" d="M251.47,350.22a2.44,2.44,0,0,0,2.17,0l9.22-5.33a.66.66,0,0,0,0-1.25l-9.22-5.32a2.44,2.44,0,0,0-2.17,0l-9.22,5.32a.66.66,0,0,0,0,1.25Z"/><path class="fc" d="M238.68,342.83a2.37,2.37,0,0,0,2.17,0l9.22-5.32a.66.66,0,0,0,0-1.25l-9.22-5.32a2.37,2.37,0,0,0-2.17,0l-9.22,5.32a.66.66,0,0,0,0,1.25Z"/><path class="fc" d="M264.92,372.54a2.37,2.37,0,0,0,2.17,0l9.21-5.32a.66.66,0,0,0,0-1.25l-9.21-5.32a2.37,2.37,0,0,0-2.17,0L255.7,366a.66.66,0,0,0,0,1.25Z"/><path class="fc" d="M252.13,365.16a2.41,2.41,0,0,0,2.16,0l9.22-5.32a.67.67,0,0,0,0-1.26l-9.22-5.32a2.41,2.41,0,0,0-2.16,0l-9.22,5.32a.67.67,0,0,0,0,1.26Z"/><path class="fc" d="M239.34,357.77a2.35,2.35,0,0,0,2.16,0l9.22-5.32a.66.66,0,0,0,0-1.25l-9.22-5.32a2.35,2.35,0,0,0-2.16,0l-9.22,5.32a.66.66,0,0,0,0,1.25Z"/><path class="fc" d="M162.11,313.19a2.41,2.41,0,0,0,2.16,0l9.22-5.33c.6-.34.6-.9,0-1.25l-9.22-5.32a2.41,2.41,0,0,0-2.16,0l-9.22,5.32c-.6.35-.6.91,0,1.25Z"/><path class="fc" d="M149.32,305.8a2.41,2.41,0,0,0,2.16,0l9.22-5.32c.6-.35.6-.91,0-1.25l-9.22-5.33a2.41,2.41,0,0,0-2.16,0l-9.22,5.33c-.6.34-.6.9,0,1.25Z"/><path class="fc" d="M136.52,298.41a2.37,2.37,0,0,0,2.17,0l9.22-5.32a.66.66,0,0,0,0-1.25l-9.22-5.32a2.44,2.44,0,0,0-2.17,0l-9.21,5.32c-.6.35-.6.91,0,1.25Z"/><path class="fc" d="M114.08,282.9a2.35,2.35,0,0,0,2.16,0l7-4c.6-.35.6-.91,0-1.25L114,272.28a2.44,2.44,0,0,0-2.17,0l-7,4.05a.66.66,0,0,0,0,1.25Z"/><path class="fc" d="M105.66,287.76a2.37,2.37,0,0,0,2.17,0l7-4a.66.66,0,0,0,0-1.25l-9.23-5.33a2.41,2.41,0,0,0-2.16,0l-7,4.05a.66.66,0,0,0,0,1.25Z"/><path class="fc" d="M118,294.88a2.41,2.41,0,0,0,2.16,0l7-4.05c.6-.34.6-.9,0-1.25l-9.22-5.32a2.41,2.41,0,0,0-2.16,0l-7,4.05c-.6.34-.6.9,0,1.25Z"/><path class="fc" d="M93.35,280.66a2.44,2.44,0,0,0,2.17,0l7-4.05a.66.66,0,0,0,0-1.25L93.31,270a2.37,2.37,0,0,0-2.17,0l-7,4a.66.66,0,0,0,0,1.25Z"/><path class="fc" d="M225.89,335.45a2.41,2.41,0,0,0,2.16,0l9.22-5.33c.6-.34.6-.9,0-1.25l-9.22-5.32a2.41,2.41,0,0,0-2.16,0l-9.22,5.32c-.6.35-.6.91,0,1.25Z"/><path class="fc" d="M213.1,328.06a2.41,2.41,0,0,0,2.16,0l9.22-5.32c.6-.35.6-.91,0-1.25l-9.22-5.32a2.35,2.35,0,0,0-2.16,0l-9.22,5.32c-.6.34-.6.9,0,1.25Z"/><path class="fc" d="M200.3,320.67a2.37,2.37,0,0,0,2.17,0l9.22-5.32a.66.66,0,0,0,0-1.25l-9.22-5.32a2.44,2.44,0,0,0-2.17,0l-9.21,5.32c-.6.35-.6.91,0,1.25Z"/><path class="fc" d="M187.51,313.29a2.44,2.44,0,0,0,2.17,0L198.9,308a.66.66,0,0,0,0-1.25l-9.22-5.33a2.44,2.44,0,0,0-2.17,0l-9.22,5.33a.66.66,0,0,0,0,1.25Z"/><path class="fc" d="M174.72,305.9a2.37,2.37,0,0,0,2.17,0l9.21-5.32a.66.66,0,0,0,0-1.25L176.89,294a2.37,2.37,0,0,0-2.17,0l-9.22,5.32a.66.66,0,0,0,0,1.25Z"/><path class="fc" d="M161.93,298.52a2.41,2.41,0,0,0,2.16,0l9.22-5.32c.6-.35.6-.91,0-1.25l-9.22-5.33a2.41,2.41,0,0,0-2.16,0L152.71,292c-.6.34-.6.9,0,1.25Z"/><path class="fc" d="M149.14,291.13a2.35,2.35,0,0,0,2.16,0l9.22-5.32a.66.66,0,0,0,0-1.25l-9.22-5.32a2.35,2.35,0,0,0-2.16,0l-9.22,5.32a.66.66,0,0,0,0,1.25Z"/><path class="fc" d="M264.27,357.6a2.35,2.35,0,0,0,2.16,0l9.22-5.32a.66.66,0,0,0,0-1.25l-9.22-5.32a2.35,2.35,0,0,0-2.16,0L255.05,351a.66.66,0,0,0,0,1.25Z"/></g><path class="e" d="M322.27,345.3a.67.67,0,0,0,0,1.26l10.56,6.09a2.37,2.37,0,0,0,2.17,0l8.46-4.88a.66.66,0,0,0,0-1.25l-10.56-6.1a2.44,2.44,0,0,0-2.17,0Z"/><path class="e" d="M141.54,241a.66.66,0,0,0,0,1.25l23.39,13.51a2.44,2.44,0,0,0,2.17,0l8.46-4.89a.66.66,0,0,0,0-1.25l-23.39-13.5a2.41,2.41,0,0,0-2.16,0Z"/><path class="e" d="M128.93,248.25a.66.66,0,0,0,0,1.25l17,9.84a2.41,2.41,0,0,0,2.16,0l8.46-4.89a.66.66,0,0,0,0-1.25l-17-9.84a2.44,2.44,0,0,0-2.17,0Z"/><path class="e" d="M115.87,255.79c-.6.34-.6.9,0,1.25l26.66,15.39a2.41,2.41,0,0,0,2.16,0l8.46-4.89c.6-.34.6-.9,0-1.25L126.5,250.9a2.44,2.44,0,0,0-2.17,0Z"/><path class="e" d="M102.81,263.33a.66.66,0,0,0,0,1.25l33.07,19.1a2.44,2.44,0,0,0,2.17,0l8.46-4.89c.6-.34.6-.9,0-1.25l-33.08-19.1a2.41,2.41,0,0,0-2.16,0Z"/><path class="e" d="M303.21,348.86c-.6.35-.6.91,0,1.25l17,9.82a2.35,2.35,0,0,0,2.16,0l8.46-4.88c.6-.35.6-.91,0-1.25l-17-9.82a2.35,2.35,0,0,0-2.16,0Z"/><path class="e" d="M287.37,354.28a.66.66,0,0,0,0,1.25l20.24,11.68a2.35,2.35,0,0,0,2.16,0l8.46-4.88a.66.66,0,0,0,0-1.25L298,349.4a2.37,2.37,0,0,0-2.17,0Z"/><path class="e" d="M268.47,357.93a.66.66,0,0,0,0,1.25L295,374.5a2.44,2.44,0,0,0,2.17,0l8.46-4.89a.66.66,0,0,0,0-1.25L279.09,353a2.41,2.41,0,0,0-2.16,0Z"/><path class="e" d="M268.71,372.63a.66.66,0,0,0,0,1.25l13.67,7.9a2.44,2.44,0,0,0,2.17,0l8.46-4.89a.66.66,0,0,0,0-1.25l-13.68-7.89a2.35,2.35,0,0,0-2.16,0Z"/><path class="e" d="M167,313.91a.66.66,0,0,0,0,1.25l59.55,34.38a2.41,2.41,0,0,0,2.16,0l8.46-4.88a.67.67,0,0,0,0-1.26L177.63,309a2.37,2.37,0,0,0-2.17,0Z"/><path class="e" d="M337.62,339.61a.66.66,0,0,0,0,1.25l7.82,4.51a2.44,2.44,0,0,0,2.17,0l6.17-3.56a.66.66,0,0,0,0-1.25L346,336a2.44,2.44,0,0,0-2.17,0Z"/><path class="e" d="M325.67,332.7c-.6.35-.6.91,0,1.25l7.81,4.52a2.44,2.44,0,0,0,2.17,0l6.17-3.57c.6-.34.6-.9,0-1.25L334,329.14a2.41,2.41,0,0,0-2.16,0Z"/><path class="e" d="M314.3,326.14c-.6.34-.6.9,0,1.25l7.81,4.51a2.37,2.37,0,0,0,2.17,0l6.17-3.56a.66.66,0,0,0,0-1.25l-7.82-4.51a2.35,2.35,0,0,0-2.16,0Z"/><path class="e" d="M302.93,319.57c-.6.35-.6.91,0,1.25l7.81,4.52a2.44,2.44,0,0,0,2.17,0l6.17-3.57a.66.66,0,0,0,0-1.25L311.26,316a2.41,2.41,0,0,0-2.16,0Z"/><path class="e" d="M291.55,313a.66.66,0,0,0,0,1.25l7.82,4.51a2.37,2.37,0,0,0,2.17,0l6.17-3.56a.66.66,0,0,0,0-1.25l-7.82-4.51a2.37,2.37,0,0,0-2.17,0Z"/><path class="e" d="M280.18,306.44a.66.66,0,0,0,0,1.25l7.82,4.52a2.44,2.44,0,0,0,2.17,0l6.17-3.57a.66.66,0,0,0,0-1.25l-7.82-4.51a2.44,2.44,0,0,0-2.17,0Z"/><path class="e" d="M268.81,299.88a.66.66,0,0,0,0,1.25l7.82,4.51a2.37,2.37,0,0,0,2.17,0l6.17-3.56a.66.66,0,0,0,0-1.25l-7.82-4.51a2.37,2.37,0,0,0-2.17,0Z"/><path class="e" d="M257.44,293.31a.66.66,0,0,0,0,1.25l7.82,4.52a2.41,2.41,0,0,0,2.16,0l6.17-3.57c.6-.34.6-.9,0-1.25l-7.81-4.51a2.44,2.44,0,0,0-2.17,0Z"/><path class="e" d="M246.07,286.75a.66.66,0,0,0,0,1.25l7.82,4.51a2.35,2.35,0,0,0,2.16,0l6.17-3.56a.66.66,0,0,0,0-1.25l-7.81-4.51a2.37,2.37,0,0,0-2.17,0Z"/><path class="e" d="M234.7,280.18c-.6.35-.6.91,0,1.25l7.82,4.52a2.41,2.41,0,0,0,2.16,0l6.17-3.57c.6-.34.6-.9,0-1.25L243,276.62a2.44,2.44,0,0,0-2.17,0Z"/><path class="e" d="M223.33,273.62a.66.66,0,0,0,0,1.25l7.82,4.51a2.35,2.35,0,0,0,2.16,0l6.17-3.56a.66.66,0,0,0,0-1.25l-7.81-4.51a2.37,2.37,0,0,0-2.17,0Z"/><path class="e" d="M212,267.05c-.6.35-.6.91,0,1.25l7.82,4.52a2.41,2.41,0,0,0,2.16,0l6.17-3.56a.67.67,0,0,0,0-1.26l-7.81-4.51a2.44,2.44,0,0,0-2.17,0Z"/><path class="e" d="M200.59,260.49a.66.66,0,0,0,0,1.25l7.81,4.51a2.37,2.37,0,0,0,2.17,0l6.17-3.56a.66.66,0,0,0,0-1.25l-7.82-4.51a2.35,2.35,0,0,0-2.16,0Z"/><path class="e" d="M188.27,253.38c-.6.34-.6.9,0,1.25l7.82,4.51a2.41,2.41,0,0,0,2.16,0l6.17-3.56c.6-.35.6-.91,0-1.25l-7.81-4.51a2.37,2.37,0,0,0-2.17,0Z"/><path class="e" d="M176.9,246.81c-.6.35-.6.91,0,1.25l7.81,4.52a2.44,2.44,0,0,0,2.17,0l6.17-3.57c.6-.34.6-.9,0-1.25l-7.82-4.51a2.41,2.41,0,0,0-2.16,0Z"/><path class="e" d="M165.53,240.25c-.6.34-.6.9,0,1.25l7.81,4.51a2.44,2.44,0,0,0,2.17,0l6.17-3.56c.6-.35.6-.91,0-1.25l-7.82-4.51a2.35,2.35,0,0,0-2.16,0Z"/><path class="e" d="M154.16,233.68c-.6.35-.6.91,0,1.25l7.81,4.52a2.44,2.44,0,0,0,2.17,0l6.17-3.57a.66.66,0,0,0,0-1.25l-7.82-4.51a2.41,2.41,0,0,0-2.16,0Z"/><path class="e" d="M309.61,338a.66.66,0,0,0,0,1.25l8.46,4.88a2.37,2.37,0,0,0,2.17,0l8.46-4.88c.6-.35.6-.91,0-1.25l-8.46-4.89a2.44,2.44,0,0,0-2.17,0Z"/><path class="e" d="M284,323.23c-.6.34-.6.9,0,1.25l8.46,4.88a2.37,2.37,0,0,0,2.17,0l8.46-4.88a.66.66,0,0,0,0-1.25l-8.46-4.89a2.44,2.44,0,0,0-2.17,0Z"/><path class="e" d="M296.82,330.61a.66.66,0,0,0,0,1.25l8.46,4.89a2.44,2.44,0,0,0,2.17,0l8.46-4.89a.66.66,0,0,0,0-1.25l-8.46-4.88a2.37,2.37,0,0,0-2.17,0Z"/><path class="e" d="M271.24,315.84a.66.66,0,0,0,0,1.25L279.7,322a2.41,2.41,0,0,0,2.16,0l8.46-4.89a.66.66,0,0,0,0-1.25L281.86,311a2.35,2.35,0,0,0-2.16,0Z"/><path class="e" d="M258.44,308.46a.66.66,0,0,0,0,1.25l8.47,4.88a2.41,2.41,0,0,0,2.16,0l8.46-4.88c.6-.35.6-.91,0-1.25l-8.46-4.89a2.41,2.41,0,0,0-2.16,0Z"/><path class="e" d="M245.65,301.07a.66.66,0,0,0,0,1.25l8.46,4.89a2.44,2.44,0,0,0,2.17,0l8.46-4.89a.66.66,0,0,0,0-1.25l-8.46-4.88a2.37,2.37,0,0,0-2.17,0Z"/><path class="e" d="M232.86,293.68c-.6.35-.6.91,0,1.25l8.46,4.89a2.44,2.44,0,0,0,2.17,0l8.46-4.89a.66.66,0,0,0,0-1.25l-8.46-4.88a2.44,2.44,0,0,0-2.17,0Z"/><path class="e" d="M220.07,286.3a.66.66,0,0,0,0,1.25l8.46,4.88a2.35,2.35,0,0,0,2.16,0l8.47-4.88a.66.66,0,0,0,0-1.25l-8.47-4.89a2.41,2.41,0,0,0-2.16,0Z"/><path class="e" d="M207.28,278.91c-.6.35-.6.91,0,1.25l8.46,4.89a2.41,2.41,0,0,0,2.16,0l8.46-4.89c.6-.34.6-.9,0-1.25L217.9,274a2.35,2.35,0,0,0-2.16,0Z"/><path class="e" d="M194.48,271.53a.66.66,0,0,0,0,1.25l8.46,4.88a2.37,2.37,0,0,0,2.17,0l8.46-4.88c.6-.35.6-.91,0-1.25l-8.46-4.89a2.44,2.44,0,0,0-2.17,0Z"/><path class="e" d="M181.69,264.14a.66.66,0,0,0,0,1.25l8.46,4.89a2.44,2.44,0,0,0,2.17,0l8.46-4.89a.66.66,0,0,0,0-1.25l-8.46-4.88a2.37,2.37,0,0,0-2.17,0Z"/><path class="e" d="M168.9,256.76c-.6.34-.6.9,0,1.25l8.46,4.88a2.37,2.37,0,0,0,2.17,0L188,258a.66.66,0,0,0,0-1.25l-8.46-4.89a2.44,2.44,0,0,0-2.17,0Z"/><path class="e" d="M290.68,341.63a.66.66,0,0,0,0,1.25l8.47,4.89a2.41,2.41,0,0,0,2.16,0l8.46-4.89c.6-.34.6-.9,0-1.25l-8.46-4.88a2.35,2.35,0,0,0-2.16,0Z"/><path class="e" d="M277.89,334.25a.66.66,0,0,0,0,1.25l8.46,4.88a2.37,2.37,0,0,0,2.17,0L297,335.5c.6-.35.6-.91,0-1.25l-8.46-4.89a2.44,2.44,0,0,0-2.17,0Z"/><path class="e" d="M265.1,326.86a.66.66,0,0,0,0,1.25l8.46,4.89a2.44,2.44,0,0,0,2.17,0l8.46-4.89a.66.66,0,0,0,0-1.25L275.73,322a2.37,2.37,0,0,0-2.17,0Z"/><path class="e" d="M252.31,319.48c-.6.34-.6.9,0,1.25l8.46,4.88a2.41,2.41,0,0,0,2.16,0l8.47-4.88a.66.66,0,0,0,0-1.25l-8.47-4.89a2.41,2.41,0,0,0-2.16,0Z"/><path class="e" d="M239.52,312.09a.66.66,0,0,0,0,1.25l8.46,4.88a2.35,2.35,0,0,0,2.16,0l8.46-4.88a.66.66,0,0,0,0-1.25l-8.46-4.88a2.35,2.35,0,0,0-2.16,0Z"/><path class="e" d="M226.72,304.7a.66.66,0,0,0,0,1.25l8.46,4.89a2.44,2.44,0,0,0,2.17,0l8.46-4.89c.6-.34.6-.9,0-1.25l-8.46-4.88a2.44,2.44,0,0,0-2.17,0Z"/><path class="e" d="M213.93,297.32a.66.66,0,0,0,0,1.25l8.46,4.88a2.37,2.37,0,0,0,2.17,0l8.46-4.88a.66.66,0,0,0,0-1.25l-8.46-4.89a2.44,2.44,0,0,0-2.17,0Z"/><path class="e" d="M201.14,289.93c-.6.35-.6.91,0,1.25l8.46,4.89a2.44,2.44,0,0,0,2.17,0l8.46-4.89a.66.66,0,0,0,0-1.25l-8.46-4.88a2.37,2.37,0,0,0-2.17,0Z"/><path class="e" d="M188.35,282.55c-.6.34-.6.9,0,1.25l8.46,4.88a2.35,2.35,0,0,0,2.16,0l8.46-4.88c.6-.35.6-.91,0-1.25L199,277.66a2.41,2.41,0,0,0-2.16,0Z"/><path class="e" d="M175.56,275.16c-.6.35-.6.91,0,1.25L184,281.3a2.41,2.41,0,0,0,2.16,0l8.46-4.89c.6-.34.6-.9,0-1.25l-8.46-4.88a2.35,2.35,0,0,0-2.16,0Z"/><path class="e" d="M162.76,267.78a.66.66,0,0,0,0,1.25l8.46,4.88a2.37,2.37,0,0,0,2.17,0l8.46-4.88c.6-.35.6-.91,0-1.25l-8.46-4.89a2.44,2.44,0,0,0-2.17,0Z"/><path class="e" d="M150,260.39a.66.66,0,0,0,0,1.25l8.46,4.89a2.44,2.44,0,0,0,2.17,0l8.46-4.89a.66.66,0,0,0,0-1.25l-8.46-4.88a2.37,2.37,0,0,0-2.17,0Z"/><path class="e" d="M274.91,347.61a.66.66,0,0,0,0,1.25l8.47,4.89a2.41,2.41,0,0,0,2.16,0l8.46-4.89a.66.66,0,0,0,0-1.25l-8.46-4.88a2.35,2.35,0,0,0-2.16,0Z"/><path class="e" d="M262.12,340.22a.67.67,0,0,0,0,1.26l8.46,4.88a2.44,2.44,0,0,0,2.17,0l8.46-4.88a.67.67,0,0,0,0-1.26l-8.46-4.88a2.44,2.44,0,0,0-2.17,0Z"/><path class="e" d="M249.33,332.84a.66.66,0,0,0,0,1.25l8.46,4.88a2.37,2.37,0,0,0,2.17,0l8.46-4.88a.66.66,0,0,0,0-1.25L260,328a2.44,2.44,0,0,0-2.17,0Z"/><path class="e" d="M236.54,325.45c-.6.35-.6.91,0,1.25l8.46,4.89a2.41,2.41,0,0,0,2.16,0l8.47-4.89a.66.66,0,0,0,0-1.25l-8.47-4.88a2.41,2.41,0,0,0-2.16,0Z"/><path class="e" d="M223.75,318.07a.66.66,0,0,0,0,1.25l8.46,4.88a2.35,2.35,0,0,0,2.16,0l8.46-4.88a.66.66,0,0,0,0-1.25l-8.46-4.89a2.41,2.41,0,0,0-2.16,0Z"/><path class="e" d="M211,310.68a.66.66,0,0,0,0,1.25l8.46,4.89a2.44,2.44,0,0,0,2.17,0l8.46-4.89c.6-.34.6-.9,0-1.25l-8.46-4.88a2.37,2.37,0,0,0-2.17,0Z"/><path class="e" d="M198.16,303.3a.66.66,0,0,0,0,1.25l8.46,4.88a2.37,2.37,0,0,0,2.17,0l8.46-4.88a.66.66,0,0,0,0-1.25l-8.46-4.89a2.44,2.44,0,0,0-2.17,0Z"/><path class="e" d="M185.37,295.91c-.6.35-.6.91,0,1.25l8.46,4.89a2.44,2.44,0,0,0,2.17,0l8.46-4.89a.66.66,0,0,0,0-1.25L196,291a2.37,2.37,0,0,0-2.17,0Z"/><path class="e" d="M172.58,288.53c-.6.34-.6.9,0,1.25l8.46,4.88a2.35,2.35,0,0,0,2.16,0l8.46-4.88c.6-.35.6-.91,0-1.25l-8.46-4.89a2.41,2.41,0,0,0-2.16,0Z"/><path class="e" d="M159.78,281.14a.66.66,0,0,0,0,1.25l8.47,4.89a2.41,2.41,0,0,0,2.16,0l8.46-4.89a.66.66,0,0,0,0-1.25l-8.46-4.88a2.35,2.35,0,0,0-2.16,0Z"/><path class="e" d="M147,273.76a.66.66,0,0,0,0,1.25l8.46,4.88a2.44,2.44,0,0,0,2.17,0l8.46-4.88a.66.66,0,0,0,0-1.25l-8.46-4.89a2.44,2.44,0,0,0-2.17,0Z"/><path class="e" d="M243,343.23a.66.66,0,0,0,0,1.25l8.46,4.89a2.44,2.44,0,0,0,2.17,0l8.46-4.89c.6-.34.6-.9,0-1.25l-8.46-4.88a2.44,2.44,0,0,0-2.17,0Z"/><path class="e" d="M230.22,335.85a.66.66,0,0,0,0,1.25l8.46,4.88a2.37,2.37,0,0,0,2.17,0l8.46-4.88a.66.66,0,0,0,0-1.25L240.85,331a2.44,2.44,0,0,0-2.17,0Z"/><path class="e" d="M256.46,365.56a.66.66,0,0,0,0,1.25l8.46,4.88a2.37,2.37,0,0,0,2.17,0l8.46-4.88a.66.66,0,0,0,0-1.25l-8.46-4.88a2.37,2.37,0,0,0-2.17,0Z"/><path class="e" d="M243.67,358.17c-.6.35-.6.91,0,1.25l8.46,4.89a2.41,2.41,0,0,0,2.16,0l8.46-4.89c.6-.34.6-.9,0-1.25l-8.46-4.88a2.41,2.41,0,0,0-2.16,0Z"/><path class="e" d="M230.88,350.79a.66.66,0,0,0,0,1.25l8.46,4.88a2.35,2.35,0,0,0,2.16,0L250,352a.66.66,0,0,0,0-1.25l-8.46-4.89a2.41,2.41,0,0,0-2.16,0Z"/><path class="e" d="M153.65,306.2c-.6.35-.6.91,0,1.25l8.46,4.89a2.41,2.41,0,0,0,2.16,0l8.46-4.89c.6-.34.6-.9,0-1.25l-8.46-4.88a2.35,2.35,0,0,0-2.16,0Z"/><path class="e" d="M140.86,298.82c-.6.34-.6.9,0,1.25l8.46,4.88a2.35,2.35,0,0,0,2.16,0l8.46-4.88c.6-.35.6-.91,0-1.25l-8.46-4.89a2.41,2.41,0,0,0-2.16,0Z"/><path class="e" d="M128.06,291.43a.66.66,0,0,0,0,1.25l8.46,4.89a2.44,2.44,0,0,0,2.17,0l8.46-4.89a.66.66,0,0,0,0-1.25l-8.46-4.88a2.37,2.37,0,0,0-2.17,0Z"/><path class="e" d="M114,272.31a2.44,2.44,0,0,0-2.17,0l-6.25,3.61a.66.66,0,0,0,0,1.25l8.47,4.89a2.41,2.41,0,0,0,2.16,0l6.25-3.61c.6-.35.6-.91,0-1.25Z"/><path class="e" d="M105.61,277.17a2.41,2.41,0,0,0-2.16,0l-6.25,3.61c-.6.34-.6.9,0,1.25l8.46,4.88a2.37,2.37,0,0,0,2.17,0l6.25-3.6a.66.66,0,0,0,0-1.25Z"/><path class="e" d="M109.53,287.9c-.6.34-.6.9,0,1.25L118,294a2.35,2.35,0,0,0,2.16,0l6.26-3.61a.66.66,0,0,0,0-1.25l-8.47-4.88a2.35,2.35,0,0,0-2.16,0Z"/><path class="e" d="M84.89,273.67a.66.66,0,0,0,0,1.25l8.46,4.89a2.44,2.44,0,0,0,2.17,0l6.25-3.61a.66.66,0,0,0,0-1.25l-8.46-4.89a2.44,2.44,0,0,0-2.17,0Z"/><path class="e" d="M217.43,328.46c-.6.35-.6.91,0,1.25l8.46,4.89a2.44,2.44,0,0,0,2.17,0l8.46-4.89a.66.66,0,0,0,0-1.25l-8.46-4.88a2.37,2.37,0,0,0-2.17,0Z"/><path class="e" d="M204.64,321.08c-.6.34-.6.9,0,1.25l8.46,4.88a2.35,2.35,0,0,0,2.16,0l8.46-4.88c.6-.35.6-.91,0-1.25l-8.46-4.89a2.41,2.41,0,0,0-2.16,0Z"/><path class="e" d="M191.84,313.69a.66.66,0,0,0,0,1.25l8.46,4.89a2.44,2.44,0,0,0,2.17,0l8.46-4.89c.6-.34.6-.9,0-1.25l-8.46-4.88a2.37,2.37,0,0,0-2.17,0Z"/><path class="e" d="M179.05,306.31a.66.66,0,0,0,0,1.25l8.46,4.88a2.37,2.37,0,0,0,2.17,0l8.46-4.88a.66.66,0,0,0,0-1.25l-8.46-4.89a2.44,2.44,0,0,0-2.17,0Z"/><path class="e" d="M166.26,298.92a.66.66,0,0,0,0,1.25l8.46,4.89a2.44,2.44,0,0,0,2.17,0l8.46-4.89a.66.66,0,0,0,0-1.25L176.89,294a2.37,2.37,0,0,0-2.17,0Z"/><path class="e" d="M153.47,291.54c-.6.34-.6.9,0,1.25l8.46,4.88a2.41,2.41,0,0,0,2.16,0l8.46-4.88c.6-.35.6-.91,0-1.25l-8.46-4.89a2.41,2.41,0,0,0-2.16,0Z"/><path class="e" d="M140.68,284.15a.66.66,0,0,0,0,1.25l8.46,4.88a2.35,2.35,0,0,0,2.16,0l8.46-4.88a.66.66,0,0,0,0-1.25l-8.46-4.88a2.35,2.35,0,0,0-2.16,0Z"/><path class="e" d="M255.81,350.62a.66.66,0,0,0,0,1.25l8.46,4.88a2.35,2.35,0,0,0,2.16,0l8.46-4.88a.66.66,0,0,0,0-1.25l-8.46-4.89a2.41,2.41,0,0,0-2.16,0Z"/><path class="fd" d="M164.41,220.94c0,1.53,2.18,2.77,4.87,2.77s4.86-1.24,4.86-2.77-2.18-2.78-4.86-2.78S164.41,219.41,164.41,220.94Z"/><path class="fe" d="M165.11,220.92c0,1.31,1.86,2.37,4.16,2.37s4.16-1.06,4.16-2.37-1.86-2.38-4.16-2.38S165.11,219.61,165.11,220.92Z"/><path class="e" d="M388.52,342v4.58c.1,1.81-1,3.63-3.41,5L252.7,428c-4.57,2.64-12,2.64-16.55,0l-214-123.53a7.4,7.4,0,0,1-2.83-2.66c-.28-.81-.46-1.35-.54-1.56v0l0-.1v-5.25c.06,1.68,1.2,3.33,3.41,4.61L236.15,423c4.56,2.64,12,2.64,16.55,0L385.11,346.6C387.31,345.32,388.45,343.66,388.52,342Z"/><path class="ff" d="M341.89,183.49,99.89,43.86s2.38-1.8,3.6-1.18l241.1,139.15a.73.73,0,0,1,.35.61V322.63c0,1-2.7,2.56-2.7,2.56V184.1A.73.73,0,0,0,341.89,183.49Z"/><path class="fg" d="M342.25,184.13V325a.7.7,0,0,1-1.05.61l-242-139.87a.71.71,0,0,1-.35-.61l.19-140.51a.69.69,0,0,1,1-.6L341.9,183.52A.71.71,0,0,1,342.25,184.13Z"/><path class="dt" d="M295.07,214.2a44.61,44.61,0,0,1,.79,8.33,27.22,27.22,0,0,1-1,7.86,9.46,9.46,0,0,1-3.16,5,7.66,7.66,0,0,1-5.39,1.4,18.72,18.72,0,0,1-7.73-2.82l-12.05-7,.12-42.58,12.16,7a32.7,32.7,0,0,1,13.55,14.39A34.27,34.27,0,0,1,295.07,214.2Zm-2.85,15.46a21.26,21.26,0,0,0,1.34-8.45,37.56,37.56,0,0,0-.73-7.89,33.42,33.42,0,0,0-2-6.35,24.13,24.13,0,0,0-2.79-5,30,30,0,0,0-3.27-3.77,27.88,27.88,0,0,0-3.37-2.81c-1-.71-2-1.37-3-2L268.9,188,268.79,226l10,5.76a18.46,18.46,0,0,0,5.22,2.09,7.48,7.48,0,0,0,4.76-.35,7.35,7.35,0,0,0,3.48-3.86"/><polygon class="dt" points="260.26 223.37 260.38 180.79 262.68 182.11 262.56 224.69 260.26 223.37"/><polygon class="dt" points="250.35 217.65 250.47 175.06 256.38 178.48 256.26 221.06 250.35 217.65"/><path class="dt" d="M245.56,188.72a30.18,30.18,0,0,1,2.4,7.16,22,22,0,0,1,.37,6.93l-19.72-11.38a16.56,16.56,0,0,0,.44,3.71,16,16,0,0,0,1.31,3.68,14.91,14.91,0,0,0,2.23,3.29,12.59,12.59,0,0,0,3.21,2.6c1.73,1,3.13,1.38,4.18,1.13a3.45,3.45,0,0,0,2.38-2.46l5.6,3.23a7.76,7.76,0,0,1-1.63,3.54,5.46,5.46,0,0,1-2.76,1.72,7.5,7.5,0,0,1-3.61-.06,15.35,15.35,0,0,1-4.11-1.69,24.58,24.58,0,0,1-5.67-4.46,27.17,27.17,0,0,1-4.11-5.73,27.47,27.47,0,0,1-2.53-6.6,29.84,29.84,0,0,1-.84-7.06,16.14,16.14,0,0,1,.93-5.7,8,8,0,0,1,2.6-3.7,6.41,6.41,0,0,1,4.09-1.2,11.75,11.75,0,0,1,5.4,1.81,21.45,21.45,0,0,1,5.68,4.8A29.77,29.77,0,0,1,245.56,188.72Zm-16.94-1.78,13.81,8a17,17,0,0,0-.59-3.44,16,16,0,0,0-3.41-6.36,10.49,10.49,0,0,0-2.72-2.25,6.94,6.94,0,0,0-2.83-1,3.41,3.41,0,0,0-2.19.47,4,4,0,0,0-1.46,1.76,7.35,7.35,0,0,0-.61,2.86"/><polygon class="dt" points="221.52 174.9 206.1 186.72 222.25 196.04 222.23 201.41 198.61 187.77 198.62 183 213.54 170.9 199.73 162.93 199.75 157.55 221.53 170.13 221.52 174.9"/><ellipse class="fh" cx="163.78" cy="153.76" rx="19.47" ry="33.61" transform="translate(-55.08 103.11) rotate(-30.16)"/><path class="dt" d="M173.92,149.27a1.39,1.39,0,0,1,.5.54A28.12,28.12,0,0,1,178.18,163v3.14c0,.56-.13,1-.7.7a1.58,1.58,0,0,1-.68-1.49v-3.15a25.35,25.35,0,0,0-3.39-11.91c-.26-.47-.25-1,0-1.11A.5.5,0,0,1,173.92,149.27Z"/><path class="dt" d="M148.7,133c-.3-.45-.35-1-.11-1.19a10.28,10.28,0,0,1,8.08-2.4.62.62,0,0,1,.26.09,1.53,1.53,0,0,1,.64.87c.15.49,0,.86-.37.83a9.57,9.57,0,0,0-7.53,2.22.46.46,0,0,1-.55,0A1.25,1.25,0,0,1,148.7,133Z"/><g class="a"><path class="dt" d="M154.56,152.49a4.28,4.28,0,0,1-1.52,3.64l-1.74,1.22a.48.48,0,0,1-.51,0,1.5,1.5,0,0,1-.47-.47c-.28-.46-.3-1,0-1.16l1.74-1.21a3.24,3.24,0,0,0,1.16-2.78c0-.43.31-.6.69-.39A1.56,1.56,0,0,1,154.56,152.49Z"/><path class="dt" d="M154.81,143.72a1.2,1.2,0,0,1,.26.21,1.31,1.31,0,0,1,.38,1.26,11.57,11.57,0,0,0-.92,4.15.46.46,0,0,1-.14.36.43.43,0,0,1-.54,0l0,0a1.48,1.48,0,0,1-.66-1.2,13,13,0,0,1,1-4.62C154.27,143.6,154.54,143.57,154.81,143.72Z"/><path class="dt" d="M151.6,150.79a2.09,2.09,0,0,1-.75,1.8l-.85.6a.47.47,0,0,1-.52,0,1.42,1.42,0,0,1-.46-.48c-.29-.45-.31-1-.06-1.15l.86-.59a1.13,1.13,0,0,0,.4-.95v-3.15c0-4.09,1.39-7.25,3.85-8.8a.46.46,0,0,1,.5,0,1.35,1.35,0,0,1,.47.48c.28.46.3,1,0,1.14-2.21,1.41-3.45,4.25-3.46,7.94Z"/><path class="dt" d="M166.37,159.65c0,5.06-1.66,9-4.64,11l-3,2a.46.46,0,0,1-.51,0,1.42,1.42,0,0,1-.46-.48c-.28-.46-.3-1-.05-1.15l3-2c2.74-1.87,4.27-5.49,4.27-10.15v-3.48a1.77,1.77,0,0,0-.77-1.35c-.44-.25-.79-.06-.8.44v3.15c0,4.18-1.36,7.43-3.81,9.13l-3,2.09a.47.47,0,0,1-.52,0,1.46,1.46,0,0,1-.45-.47c-.29-.45-.31-1-.06-1.16l3-2.09c2.21-1.53,3.44-4.48,3.45-8.27v-3.15c0-1.36,1-1.91,2.17-1.23a4.78,4.78,0,0,1,2.17,3.74Z"/><path class="dt" d="M169.32,161.36c0,5.9-1.94,10.48-5.41,12.84l-2.51,1.72a.5.5,0,0,1-.52,0,1.33,1.33,0,0,1-.46-.48c-.28-.45-.3-1,0-1.14l2.51-1.72c3.24-2.2,5-6.48,5.05-12v-3.49a8.23,8.23,0,0,0-3.73-6.45c-2.06-1.19-3.74-.23-3.75,2.14v3.14c0,3.34-1.09,5.95-3,7.31l-2.53,1.71a.48.48,0,0,1-.51,0,1.3,1.3,0,0,1-.46-.47c-.29-.45-.31-1-.06-1.15l2.53-1.71c1.72-1.21,2.68-3.5,2.69-6.45V152c0-3.23,2.3-4.53,5.12-2.92a11.25,11.25,0,0,1,5.12,8.83Z"/><path class="dt" d="M172.28,159.58v3.48c0,6.75-2.22,12-6.18,14.69l-1.23.84a.48.48,0,0,1-.51,0,1.3,1.3,0,0,1-.46-.47c-.28-.46-.3-1,0-1.15l1.23-.85c3.73-2.54,5.81-7.47,5.82-13.82v-3.48a14.72,14.72,0,0,0-6.67-11.55c-3.69-2.13-6.7-.41-6.71,3.82v3.15c0,2.5-.82,4.45-2.28,5.46l-2.08,1.44a.5.5,0,0,1-.52,0,1.38,1.38,0,0,1-.46-.47c-.28-.47-.3-1,0-1.15L154.2,158a5.4,5.4,0,0,0,1.92-4.61v-3.15c0-5.11,3.65-7.18,8.1-4.61S172.3,154.46,172.28,159.58Z"/><path class="dt" d="M153.49,135.82c-2.91,1.52-4.62,4.83-4.81,9.32,0,.41-.33.57-.7.36a1.58,1.58,0,0,1-.69-1.24c.21-4.88,2.08-8.49,5.25-10.14s7.35-1.18,11.72,1.34a25.51,25.51,0,0,1,2.43,1.61,1.47,1.47,0,0,1,.59,1.25c-.05.36-.35.47-.68.27l-.11-.07a25.9,25.9,0,0,0-2.23-1.47C160.25,134.73,156.39,134.29,153.49,135.82Z"/><path class="dt" d="M159.84,131.7a1.56,1.56,0,0,1-.67-1c-.09-.47.15-.77.52-.65a21.72,21.72,0,0,1,4.58,2c5.42,3.12,10.59,8.66,14.32,15.31.28.49.25,1,0,1.12a.5.5,0,0,1-.48-.06,1.43,1.43,0,0,1-.5-.53c-3.52-6.26-8.25-11.32-13.32-14.25a20.84,20.84,0,0,0-4.27-1.89Z"/></g><path class="dt" d="M180.28,158c.12.48-.07.82-.44.75a.6.6,0,0,1-.21-.08,1.59,1.59,0,0,1-.66-.92,35.29,35.29,0,0,0-3.27-8.29c-.27-.48-.25-1,0-1.11a.52.52,0,0,1,.46.06,1.4,1.4,0,0,1,.51.56A37.3,37.3,0,0,1,180.28,158Z"/><path class="dt" d="M173.85,170.75a1.4,1.4,0,0,1,.49,1.25,19.66,19.66,0,0,1-1,2.92c-.1.25-.37.29-.64.13a1.2,1.2,0,0,1-.26-.21,1.29,1.29,0,0,1-.38-1.25,19.18,19.18,0,0,0,.95-2.77c.09-.3.36-.38.67-.21A1.1,1.1,0,0,1,173.85,170.75Z"/><path class="dt" d="M171.6,149.75a22.83,22.83,0,0,1,3.64,11.53v3.49a30.94,30.94,0,0,1-.26,4c-.05.36-.35.48-.69.28l-.1-.06a1.46,1.46,0,0,1-.58-1.24,31.2,31.2,0,0,0,.24-3.82v-3.49a19.93,19.93,0,0,0-3.18-10.09c-.28-.46-.31-1,0-1.16a.5.5,0,0,1,.52,0A1.42,1.42,0,0,1,171.6,149.75Z"/><path class="dt" d="M169.73,139.67a36.52,36.52,0,0,1,4.63,5.48c.31.45.37,1,.14,1.2a.46.46,0,0,1-.56,0,1.29,1.29,0,0,1-.41-.4,34.5,34.5,0,0,0-4.25-5,1.35,1.35,0,0,1-.43-1.27c.1-.27.36-.32.65-.15A.9.9,0,0,1,169.73,139.67Z"/><path class="dt" d="M170.45,144.49a6.4,6.4,0,0,1,.1,1.13,3.6,3.6,0,0,1-.14,1.07,1.27,1.27,0,0,1-.42.67,1.05,1.05,0,0,1-.74.19,2.64,2.64,0,0,1-1.05-.38l-1.63-.95v-5.78l1.66,1a4.39,4.39,0,0,1,1.83,1.95A4.63,4.63,0,0,1,170.45,144.49Zm-.21.95a4.49,4.49,0,0,0-.1-1.07,4.15,4.15,0,0,0-.27-.87,3.41,3.41,0,0,0-.37-.67,5.47,5.47,0,0,0-.45-.51,4.31,4.31,0,0,0-.46-.39,4.37,4.37,0,0,0-.4-.25l-1.29-.75,0,5.17,1.35.78a2.75,2.75,0,0,0,.71.28,1,1,0,0,0,.65,0,1,1,0,0,0,.47-.52,2.87,2.87,0,0,0,.18-1.15"/><polygon class="dt" points="165.62 145.68 165.63 139.89 165.94 140.07 165.93 145.86 165.62 145.68"/><polygon class="dt" points="164.17 144.84 164.18 139.06 164.99 139.52 164.97 145.3 164.17 144.84"/><path class="dt" d="M163.4,140.84a3.78,3.78,0,0,1,.33,1,2.76,2.76,0,0,1,.05.94l-2.67-1.55a3.14,3.14,0,0,0,0,.51,2.43,2.43,0,0,0,.18.49,1.8,1.8,0,0,0,.31.45,1.76,1.76,0,0,0,.39.34l0,0a.88.88,0,0,0,.57.15.5.5,0,0,0,.32-.34l.76.44a.85.85,0,0,1-.59.72,1.16,1.16,0,0,1-.49,0,2.31,2.31,0,0,1-.57-.24l-.05,0a3.41,3.41,0,0,1-.71-.58,3.36,3.36,0,0,1-.56-.78,4,4,0,0,1-.46-1.85,2.07,2.07,0,0,1,.13-.77,1,1,0,0,1,.35-.5,1.11,1.11,0,0,1,1.25.06l0,0,0,0a3.23,3.23,0,0,1,.73.63A3.8,3.8,0,0,1,163.4,140.84Zm-2.29-.24,1.87,1.08a2,2,0,0,0-.08-.46,2,2,0,0,0-.18-.46,2.37,2.37,0,0,0-.28-.4,1.33,1.33,0,0,0-.37-.31,1,1,0,0,0-.39-.14.41.41,0,0,0-.29.07.48.48,0,0,0-.2.24.92.92,0,0,0-.08.38"/><polygon class="dt" points="160.04 138.91 157.94 140.52 160.13 141.78 160.13 142.51 156.93 140.66 156.93 140.01 158.95 138.37 157.08 137.28 157.08 136.55 160.04 138.26 160.04 138.91"/><g class="a"><path class="fi" d="M309.86,386.61a17.83,17.83,0,0,0,8-9.41l.06,21.23C317.14,398.27,309.89,396.54,309.86,386.61Zm6.13,1.12v-2.81l-.39.22v1h0l-.11-.08h-.15l-.16,0-.17.08a1.13,1.13,0,0,0-.28.22,1.16,1.16,0,0,0-.24.34,1.78,1.78,0,0,0-.18.43,1.51,1.51,0,0,0-.06.51,1.68,1.68,0,0,0,.05.4.38.38,0,0,0,.16.24.28.28,0,0,0,.25.09.84.84,0,0,0,.33-.1l0,0a1.26,1.26,0,0,0,.32-.26,1.15,1.15,0,0,0,.23-.39v.28l.37-.21m1.29-3.46a.85.85,0,0,0-.28.12,1.36,1.36,0,0,0-.55.54,1.94,1.94,0,0,0-.2.85l.13-.08a1.5,1.5,0,0,1,0-.35,1.1,1.1,0,0,1,.12-.33,1.45,1.45,0,0,1,.19-.29,1.35,1.35,0,0,1,.28-.22.57.57,0,0,1,.22-.09.3.3,0,0,1,.19,0l.13.11a.51.51,0,0,1,.05.22,1,1,0,0,1-.06.34,2.17,2.17,0,0,1-.15.35l-.22.34-.25.34c-.09.12-.18.23-.26.36a2.56,2.56,0,0,0-.22.35,1.84,1.84,0,0,0-.17.38,1.33,1.33,0,0,0-.07.38l1.57-.91v-.15l-1.41.81a1,1,0,0,1,.12-.38,3.54,3.54,0,0,1,.26-.41l.32-.45a4.84,4.84,0,0,0,.33-.46,3,3,0,0,0,.24-.47,1.26,1.26,0,0,0,.09-.48.56.56,0,0,0-.05-.3.27.27,0,0,0-.16-.14.36.36,0,0,0-.23,0"/><path class="fi" d="M315.14,386.48a.3.3,0,0,1,.34,0,.59.59,0,0,1,.13.45,1.5,1.5,0,0,1,0,.29,1.13,1.13,0,0,1-.09.28l-.15.25a.77.77,0,0,1-.22.19.51.51,0,0,1-.22.07l-.15-.07a.46.46,0,0,1-.09-.17,1.5,1.5,0,0,1,0-.24,2.66,2.66,0,0,1,0-.28,1.14,1.14,0,0,1,.09-.3l.15-.25a.67.67,0,0,1,.2-.18h0Z"/><path class="fj" d="M315.6,386.18v-1l.39-.22v2.81l-.37.21v-.28a1.15,1.15,0,0,1-.23.39,1.26,1.26,0,0,1-.32.26l0,0a.84.84,0,0,1-.33.1.28.28,0,0,1-.25-.09.38.38,0,0,1-.16-.24,1.68,1.68,0,0,1-.05-.4,1.51,1.51,0,0,1,.06-.51,1.78,1.78,0,0,1,.18-.43,1.16,1.16,0,0,1,.24-.34,1.13,1.13,0,0,1,.28-.22l.17-.08.16,0h.15l.11.08Zm0,1a1.5,1.5,0,0,0,0-.29.59.59,0,0,0-.13-.45.3.3,0,0,0-.34,0l0,0h0a.67.67,0,0,0-.2.18l-.15.25a1.14,1.14,0,0,0-.09.3,2.66,2.66,0,0,0,0,.28,1.5,1.5,0,0,0,0,.24.46.46,0,0,0,.09.17l.15.07a.51.51,0,0,0,.22-.07.77.77,0,0,0,.22-.19l.15-.25a1.13,1.13,0,0,0,.09-.28"/></g><g class="a"><polygon class="dt" points="320.19 382.66 320.19 382.66 320.72 383.95 319.65 384.56 320.19 382.66"/><polygon class="fj" points="319.38 384.24 319.38 384.38 318.13 385.1 318.14 386.49 317.99 386.58 317.98 383.77 319.51 382.88 319.51 383.04 318.13 383.83 318.13 384.95 319.38 384.24"/><path class="dt" d="M318,377.15c.37.69,2.29,3.46,8,.14,0,9.94-7.19,20-8,21.1l-.07,0-.06-21.23V377l0,.08Zm2.82,6.91.31.73.16-.09-1-2.26-.17.1-1,3.38.16-.1.31-1.08,1.17-.68m-2.63,2.43V385.1l1.24-.72v-.14l-1.25.71v-1.12l1.38-.79v-.16l-1.53.89v2.81l.15-.09"/><path class="fj" d="M320.27,382.44l1,2.26-.16.09-.31-.73-1.17.68-.31,1.08-.16.1,1-3.38Zm-.62,2.13,1.07-.62-.53-1.29h0l-.54,1.91"/></g><path class="fi" d="M317.91,377.09l0-.12v.18Z"/><path class="fi" d="M318,398.45h0l0-.05Z"/><path class="fj" d="M316.48,387a1,1,0,0,0-.12.38l1.41-.81v.15l-1.57.91a1.33,1.33,0,0,1,.07-.38,1.84,1.84,0,0,1,.17-.38,2.56,2.56,0,0,1,.22-.35c.08-.13.17-.24.26-.36l.25-.34.22-.34a2.17,2.17,0,0,0,.15-.35,1,1,0,0,0,.06-.34.51.51,0,0,0-.05-.22l-.13-.11a.3.3,0,0,0-.19,0,.57.57,0,0,0-.22.09,1.35,1.35,0,0,0-.28.22,1.45,1.45,0,0,0-.19.29,1.1,1.1,0,0,0-.12.33,1.5,1.5,0,0,0,0,.35l-.13.08a1.94,1.94,0,0,1,.2-.85,1.36,1.36,0,0,1,.55-.54.85.85,0,0,1,.28-.12.36.36,0,0,1,.23,0,.27.27,0,0,1,.16.14.56.56,0,0,1,.05.3,1.26,1.26,0,0,1-.09.48,3,3,0,0,1-.24.47,4.84,4.84,0,0,1-.33.46l-.32.45A3.54,3.54,0,0,0,316.48,387Z"/><path class="fh" d="M317.91,372.71c7.21-4.16,13.08-.82,13.1,7.47s-5.8,18.39-13,22.56-13.08.81-13.1-7.48S310.69,376.88,317.91,372.71Zm0,25.72c.86-1.11,8.08-11.2,8.05-21.14-5.75,3.32-7.67.55-8-.14V377l0,.12,0-.08v.19a17.83,17.83,0,0,1-8,9.41c0,9.93,7.28,11.66,8.08,11.82"/><path class="fk" d="M469.75,20c-5.52-3.19-10-.64-10,5.71L459.13,231c0,6.34,4.45,14.08,10,17.27L708.74,386.59c5.53,3.19,10,.62,10-5.73l.58-205.25c0-6.35-4.45-14.08-10-17.27Z"/><path class="fl" d="M471.84,31.73c-2.42-1.4-4.39-.27-4.4,2.51a9.64,9.64,0,0,0,4.37,7.58c2.43,1.4,4.4.28,4.41-2.51A9.64,9.64,0,0,0,471.84,31.73Z"/><path class="fm" d="M486.88,40.09c-2.43-1.4-4.4-.27-4.4,2.51a9.61,9.61,0,0,0,4.37,7.58c2.42,1.4,4.4.28,4.41-2.51A9.69,9.69,0,0,0,486.88,40.09Z"/><path class="fn" d="M502.91,49.45c-2.42-1.4-4.4-.28-4.4,2.51a9.64,9.64,0,0,0,4.37,7.58c2.43,1.4,4.4.28,4.41-2.51A9.64,9.64,0,0,0,502.91,49.45Z"/><path class="dt" d="M478.14,439.74a.33.33,0,0,1,.11.2.59.59,0,0,1,0,.3l-.92.53,0,.15.07.11.1,0,.15-.05a.65.65,0,0,0,.2-.17l.1-.24.27-.15a1.33,1.33,0,0,1-.2.48l-.17.19a1.21,1.21,0,0,1-.2.14.64.64,0,0,1-.26.1.29.29,0,0,1-.2-.05.27.27,0,0,1-.11-.16.92.92,0,0,1,0-.29,1.22,1.22,0,0,1,0-.32,1.51,1.51,0,0,1,.12-.31,1.21,1.21,0,0,1,.44-.48.56.56,0,0,1,.27-.08A.27.27,0,0,1,478.14,439.74Zm-.79.83.65-.38,0-.12-.06-.1-.1,0-.13.05-.13.09-.1.15-.07.16,0,.17"/><g class="a"><path class="dt" d="M483.94,438.86a.49.49,0,0,1-.16.43.2.2,0,0,1-.07.06c-.1.06-.19,0-.23-.05a3,3,0,0,0-1.13-1.55c-.09-.06-.09-.24,0-.4a.58.58,0,0,1,.15-.16.21.21,0,0,1,.19,0A3.34,3.34,0,0,1,483.94,438.86Z"/><path class="dt" d="M481.73,438.39a.17.17,0,0,1,.18,0,3.45,3.45,0,0,1,1.31,3v1.08a.57.57,0,0,1-.23.52c-.12.05-.24.06-.24-.25v-1.08a3.11,3.11,0,0,0-1.19-2.74c-.09-.06-.08-.23,0-.39A.43.43,0,0,1,481.73,438.39Z"/><path class="dt" d="M480.18,444.36a14.12,14.12,0,0,1-1.82,6.54l-.86,1.58a.46.46,0,0,1-.17.19.21.21,0,0,1-.17,0c-.09,0-.1-.21,0-.37l.86-1.59a13,13,0,0,0,1.71-6.1v-1.2c0-.81-.58-1.13-1.29-.73a2.82,2.82,0,0,0-1.28,2.22V446a8,8,0,0,1-1,3.7l-.86,1.59a.59.59,0,0,1-.18.2.17.17,0,0,1-.15,0c-.11-.05-.11-.21,0-.38l.86-1.59a7.11,7.11,0,0,0,.91-3.27v-1.08a3.87,3.87,0,0,1,1.75-3c1-.56,1.77-.11,1.77,1Z"/><path class="dt" d="M475.11,447.17a4.11,4.11,0,0,1-.51,1.85l-.6,1.1a.46.46,0,0,1-.17.19.18.18,0,0,1-.16,0c-.1,0-.11-.21,0-.37l.59-1.11a3,3,0,0,0,.4-1.41.53.53,0,0,1,.23-.41C475,447,475.11,447,475.11,447.17Z"/><path class="dt" d="M480.28,436.76a3.56,3.56,0,0,1,1.6.05c.11,0,.13.19.05.35a.52.52,0,0,1-.19.22.19.19,0,0,1-.14,0,3.28,3.28,0,0,0-1.47,0h0c-.12,0-.19-.1-.15-.27a.53.53,0,0,1,.23-.31A.11.11,0,0,1,480.28,436.76Z"/><polygon class="fh" points="477.91 439.98 477.97 440.07 478 440.19 477.35 440.57 477.38 440.4 477.45 440.24 477.55 440.09 477.68 440 477.81 439.95 477.91 439.98"/><path class="dt" d="M481.2,442.57v1.2a16,16,0,0,1-2.09,7.48l-.42.77a.42.42,0,0,1-.18.19.17.17,0,0,1-.15,0c-.1-.05-.11-.22,0-.38l.42-.78a15.28,15.28,0,0,0,2-7v-1.19c0-1.46-1-2.05-2.3-1.32a5.08,5.08,0,0,0-2.3,4v1.08a6,6,0,0,1-.76,2.77l-.71,1.32a.47.47,0,0,1-.18.19.14.14,0,0,1-.16,0c-.1,0-.11-.21,0-.37l.71-1.31a5.15,5.15,0,0,0,.65-2.34v-1.08a6.08,6.08,0,0,1,2.76-4.79C479.94,440.1,481.19,440.81,481.2,442.57Z"/><polygon class="dt" points="476.98 440.41 476.27 441.79 477.02 441.35 477.02 441.6 475.92 442.24 475.92 442.01 476.61 440.65 475.97 441.02 475.97 440.77 476.98 440.19 476.98 440.41"/><path class="dt" d="M474.09,447.75a1.93,1.93,0,0,1-.25.92l-.29.55a.55.55,0,0,1-.18.19.17.17,0,0,1-.15,0c-.1-.05-.11-.22,0-.38l.29-.54a1.15,1.15,0,0,0,.13-.48V447a9.51,9.51,0,0,1,1.3-4.54.46.46,0,0,1,.17-.19.16.16,0,0,1,.16,0c.1.05.1.22,0,.38a8.72,8.72,0,0,0-1.17,4.1Z"/><path class="dt" d="M473.06,442.82c-.1,0-.12-.2,0-.37a16.51,16.51,0,0,1,2.77-4,.32.32,0,0,1,.09-.08.16.16,0,0,1,.23,0,.48.48,0,0,1-.14.44,15.42,15.42,0,0,0-2.57,3.74.6.6,0,0,1-.19.22A.27.27,0,0,1,473.06,442.82Z"/><path class="fh" d="M478.25,434.6c-4.53,2.61-8.18,8.94-8.16,14.15s3.69,7.29,8.21,4.68,8.19-8.95,8.18-14.15S482.78,432,478.25,434.6Zm-1.42,2.84a9.81,9.81,0,0,1,1.57-1.11l0,0c1.86-1.07,3.63-1.22,4.91-.42.09.06.09.23,0,.4a.49.49,0,0,1-.16.16.17.17,0,0,1-.18,0c-1.21-.75-2.84-.61-4.59.4a9.56,9.56,0,0,0-1.47,1.05l-.05,0c-.11.06-.21,0-.23-.09a.49.49,0,0,1,.18-.43m3.3-.07h0c-.12,0-.19-.1-.15-.27a.53.53,0,0,1,.23-.31.11.11,0,0,1,.07,0,3.56,3.56,0,0,1,1.6.05c.11,0,.13.19.05.35a.52.52,0,0,1-.19.22.19.19,0,0,1-.14,0,3.28,3.28,0,0,0-1.47,0m.47,1.17a2.18,2.18,0,0,1-.05.42,1.59,1.59,0,0,1-.14.4,1.83,1.83,0,0,1-.25.35,1.53,1.53,0,0,1-.36.29l-.57.33v-2l.57-.33a.81.81,0,0,1,.39-.14.35.35,0,0,1,.24.08.46.46,0,0,1,.13.25,1.76,1.76,0,0,1,0,.34M473,442.45a16.77,16.77,0,0,1,2.77-4l.09-.07a.16.16,0,0,1,.23,0,.48.48,0,0,1-.14.44,15.42,15.42,0,0,0-2.57,3.74.6.6,0,0,1-.19.22.27.27,0,0,1-.15,0c-.1,0-.12-.2,0-.37m-.19,4.93c-.12.07-.23,0-.22-.16a12.87,12.87,0,0,1,5.79-9.73,6.58,6.58,0,0,1,.84-.42c.13-.05.22,0,.2.2a.52.52,0,0,1-.23.37l0,0a6.08,6.08,0,0,0-.77.38,10.65,10.65,0,0,0-3.68,3.84,11,11,0,0,0-1.64,5.1.5.5,0,0,1-.25.4m6.19-6.93-.11.06v-2l.11-.07v2m-.34.19-.27.16v-2l.28-.15v2m-1.31.28.07.11.1,0,.15-.05a.65.65,0,0,0,.2-.17l.1-.24.27-.15a1.33,1.33,0,0,1-.2.48l-.17.19a1.21,1.21,0,0,1-.2.14.64.64,0,0,1-.26.1.29.29,0,0,1-.2-.05.27.27,0,0,1-.11-.16.92.92,0,0,1,0-.29,1.22,1.22,0,0,1,0-.32,1.51,1.51,0,0,1,.12-.31,1.21,1.21,0,0,1,.44-.48.56.56,0,0,1,.27-.08.27.27,0,0,1,.19.08.33.33,0,0,1,.11.2.59.59,0,0,1,0,.3l-.92.53,0,.15m-1.4.1v-.25l1-.58v.22l-.71,1.38.75-.44v.25l-1.1.64V442l.69-1.36L476,441m-.57,3.29a7.8,7.8,0,0,0-.3,1.78l-.05.19a.48.48,0,0,1-.2.22c-.13.07-.24,0-.23-.15a8.48,8.48,0,0,1,.34-2,.46.46,0,0,1,.22-.3l.09,0c.12,0,.18.1.13.27m-2,5.1a.17.17,0,0,1-.15,0c-.1-.05-.11-.22,0-.38l.29-.54a1.15,1.15,0,0,0,.13-.48V447a9.51,9.51,0,0,1,1.3-4.54.46.46,0,0,1,.17-.19.16.16,0,0,1,.16,0c.1.05.1.22,0,.38a8.72,8.72,0,0,0-1.17,4.1v1.07a1.93,1.93,0,0,1-.25.92l-.29.55a.55.55,0,0,1-.18.19m.46.9a.18.18,0,0,1-.16,0c-.1,0-.11-.21,0-.37l.59-1.11a3,3,0,0,0,.4-1.41.53.53,0,0,1,.23-.41c.14-.07.24,0,.24.14a4.11,4.11,0,0,1-.51,1.85l-.6,1.1a.46.46,0,0,1-.17.19m2.58,2.3a.17.17,0,0,1-.15,0c-.11,0-.11-.2,0-.37l1-1.88a11.27,11.27,0,0,0,1.45-5.17V444c0-.17-.12-.24-.27-.15a.57.57,0,0,0-.27.46v1.08a10,10,0,0,1-1.28,4.64l-1,1.9a.47.47,0,0,1-.18.19.16.16,0,0,1-.16,0c-.1-.05-.11-.22,0-.38l1-1.9a9,9,0,0,0,1.17-4.21V444.6a1.62,1.62,0,0,1,.74-1.28c.41-.24.75-.05.75.43v1.19a12.19,12.19,0,0,1-1.56,5.61l-1,1.87a.47.47,0,0,1-.18.19m.92.06a.21.21,0,0,1-.17,0c-.09,0-.1-.21,0-.37l.86-1.59a13,13,0,0,0,1.71-6.1v-1.2c0-.81-.58-1.13-1.29-.73a2.82,2.82,0,0,0-1.28,2.22V446a8,8,0,0,1-1,3.7l-.86,1.59a.59.59,0,0,1-.18.2.17.17,0,0,1-.15,0c-.11-.05-.11-.21,0-.38l.86-1.59a7.11,7.11,0,0,0,.91-3.27v-1.08a3.87,3.87,0,0,1,1.75-3c1-.56,1.77-.11,1.77,1v1.2a14.12,14.12,0,0,1-1.82,6.54l-.86,1.58a.46.46,0,0,1-.17.19m1.78-1.42-.42.77a.42.42,0,0,1-.18.19.17.17,0,0,1-.15,0c-.1-.05-.11-.22,0-.38l.42-.78a15.28,15.28,0,0,0,2-7v-1.19c0-1.46-1-2.05-2.3-1.32a5.08,5.08,0,0,0-2.3,4v1.08a6,6,0,0,1-.76,2.77l-.71,1.32a.47.47,0,0,1-.18.19.14.14,0,0,1-.16,0c-.1,0-.11-.21,0-.37l.71-1.31a5.15,5.15,0,0,0,.65-2.34v-1.08a6.08,6.08,0,0,1,2.76-4.79c1.53-.89,2.78-.18,2.79,1.58v1.2a16,16,0,0,1-2.09,7.48m2.81-5.24c-.09.46-.2.93-.33,1.4a.51.51,0,0,1-.23.3l-.08,0c-.13,0-.18-.11-.13-.28.12-.45.23-.89.31-1.33a.51.51,0,0,1,.23-.33.09.09,0,0,1,.07,0c.12,0,.2.06.16.23m.22-1.34a.51.51,0,0,1-.24.36l0,0c-.14.06-.23,0-.21-.19a13.6,13.6,0,0,0,.08-1.4v-1.2a2.22,2.22,0,0,0-1.1-2.19c-.1-.05-.11-.21,0-.38a.37.37,0,0,1,.18-.19.15.15,0,0,1,.15,0,2.57,2.57,0,0,1,1.27,2.52v1.19c0,.48,0,1-.08,1.49M483,443c-.12.05-.24.06-.24-.25v-1.08a3.11,3.11,0,0,0-1.19-2.74c-.09-.06-.08-.23,0-.39a.43.43,0,0,1,.15-.17.17.17,0,0,1,.18,0,3.45,3.45,0,0,1,1.31,3v1.08a.57.57,0,0,1-.23.52m.79-3.73a.2.2,0,0,1-.07.06c-.1.06-.19,0-.23-.05a3,3,0,0,0-1.14-1.55c-.08-.06-.08-.24,0-.4a.58.58,0,0,1,.15-.16.21.21,0,0,1,.19,0,3.34,3.34,0,0,1,1.24,1.68.49.49,0,0,1-.16.43"/><path class="dt" d="M480.94,439.47a2.57,2.57,0,0,1,1.27,2.52v1.19c0,.48,0,1-.08,1.49a.51.51,0,0,1-.24.36l0,0c-.14.06-.23,0-.21-.19a13.6,13.6,0,0,0,.08-1.4v-1.2a2.22,2.22,0,0,0-1.1-2.19c-.1-.05-.11-.21,0-.38a.37.37,0,0,1,.18-.19A.15.15,0,0,1,480.94,439.47Z"/><path class="dt" d="M479.17,444.94a12.19,12.19,0,0,1-1.56,5.61l-1,1.87a.47.47,0,0,1-.18.19.17.17,0,0,1-.15,0c-.11,0-.11-.2,0-.37l1-1.88a11.27,11.27,0,0,0,1.45-5.17V444c0-.17-.12-.24-.27-.15a.57.57,0,0,0-.27.46v1.08a10,10,0,0,1-1.28,4.64l-1,1.9a.47.47,0,0,1-.18.19.16.16,0,0,1-.16,0c-.1-.05-.11-.22,0-.38l1-1.9a9,9,0,0,0,1.17-4.21V444.6a1.62,1.62,0,0,1,.74-1.28c.41-.24.75-.05.75.43Z"/><path class="fh" d="M480.23,438l.14.08a.93.93,0,0,1,.09.2,1.51,1.51,0,0,1,0,.32,1.38,1.38,0,0,1-.06.47,1.65,1.65,0,0,1-.16.36,1,1,0,0,1-.22.27,1.25,1.25,0,0,1-.24.18l-.47.27v-1.77l.44-.26.14-.07.16-.05Z"/><path class="dt" d="M480.56,438.2a1.76,1.76,0,0,1,0,.34,2.18,2.18,0,0,1-.05.42,1.59,1.59,0,0,1-.14.4,1.83,1.83,0,0,1-.25.35,1.53,1.53,0,0,1-.36.29l-.57.33v-2l.57-.33a.81.81,0,0,1,.39-.14.35.35,0,0,1,.24.08A.46.46,0,0,1,480.56,438.2Zm-.13.87a1.38,1.38,0,0,0,.06-.47,1.51,1.51,0,0,0,0-.32.93.93,0,0,0-.09-.2l-.14-.08h-.15l-.16.05-.14.07-.44.26v1.77l.47-.27a1.25,1.25,0,0,0,.24-.18,1,1,0,0,0,.22-.27,1.65,1.65,0,0,0,.16-.36"/><polygon class="dt" points="478.91 440.51 478.9 438.53 479.01 438.46 479.02 440.45 478.91 440.51"/><polygon class="dt" points="478.41 440.8 478.4 438.81 478.68 438.66 478.68 440.64 478.41 440.8"/><path class="dt" d="M475.18,444.07l.09,0c.12,0,.18.1.13.27a7.8,7.8,0,0,0-.3,1.78l-.05.19a.48.48,0,0,1-.2.22c-.13.07-.24,0-.23-.15a8.48,8.48,0,0,1,.34-2A.46.46,0,0,1,475.18,444.07Z"/><path class="dt" d="M476.88,438c-.11.06-.21,0-.23-.09a.49.49,0,0,1,.18-.43,9.81,9.81,0,0,1,1.57-1.11l0,0c1.86-1.07,3.63-1.22,4.91-.42.09.06.09.23,0,.4a.49.49,0,0,1-.16.16.17.17,0,0,1-.18,0c-1.21-.75-2.84-.61-4.59.4a9.6,9.6,0,0,0-1.46,1Z"/><path class="dt" d="M474.72,441.88a11,11,0,0,0-1.64,5.1.5.5,0,0,1-.23.39c-.14.08-.25,0-.24-.15a12.87,12.87,0,0,1,5.79-9.73,5.41,5.41,0,0,1,.84-.41c.13-.06.22,0,.2.19a.52.52,0,0,1-.23.37l0,0a6.08,6.08,0,0,0-.77.38A10.65,10.65,0,0,0,474.72,441.88Z"/></g><path class="dt" d="M481.76,445.78c.12,0,.2.06.16.23-.09.46-.2.93-.33,1.4a.51.51,0,0,1-.23.3l-.08,0c-.13,0-.18-.11-.13-.28.12-.45.23-.89.31-1.33a.51.51,0,0,1,.23-.33A.09.09,0,0,1,481.76,445.78Z"/><path class="dt" d="M598.81,322.68a.75.75,0,0,1-.25.62l-.3.21a.17.17,0,0,1-.18,0,.6.6,0,0,1-.16-.16c-.09-.16-.1-.34,0-.4l.29-.2a.38.38,0,0,0,.14-.33v-1.08a3.44,3.44,0,0,1,1.32-3,.16.16,0,0,1,.17,0,.46.46,0,0,1,.17.17c.09.16.1.33,0,.39a3.09,3.09,0,0,0-1.19,2.73Z"/><polygon class="dt" points="603.65 321.01 603.66 319.02 603.76 319.08 603.76 321.07 603.65 321.01"/><g class="a"><path class="dt" d="M599.83,323.26a1.46,1.46,0,0,1-.52,1.25l-.6.42c-.05,0-.11,0-.18,0a.6.6,0,0,1-.16-.16c-.09-.16-.1-.34,0-.4l.59-.42a1.08,1.08,0,0,0,.4-.95c0-.15.11-.21.24-.14A.55.55,0,0,1,599.83,323.26Z"/><path class="dt" d="M599.92,320.25a.27.27,0,0,1,.08.07.46.46,0,0,1,.14.43,4,4,0,0,0-.32,1.43l-.05.13a.17.17,0,0,1-.2,0,.51.51,0,0,1-.22-.42,4.53,4.53,0,0,1,.34-1.58C599.73,320.21,599.82,320.2,599.92,320.25Z"/><path class="dt" d="M606.46,329.54a.51.51,0,0,1,.17.43,9.79,9.79,0,0,1-.35,1c0,.09-.13.1-.22,0A.24.24,0,0,1,606,331a.46.46,0,0,1-.13-.44,6.23,6.23,0,0,0,.33-.95c0-.1.12-.13.22-.07Z"/><path class="dt" d="M603.89,325.73a4.36,4.36,0,0,1-1.6,3.78l-1,.7a.17.17,0,0,1-.18,0,.47.47,0,0,1-.15-.16c-.1-.16-.11-.33,0-.4l1-.69a4,4,0,0,0,1.47-3.49v-1.2a.58.58,0,0,0-.26-.46c-.15-.08-.27,0-.27.15V325a3.69,3.69,0,0,1-1.32,3.14l-1,.72a.17.17,0,0,1-.18,0,.49.49,0,0,1-.16-.16c-.1-.16-.11-.34,0-.4l1-.72a3.36,3.36,0,0,0,1.19-2.84v-1.08c0-.48.33-.67.75-.43a1.64,1.64,0,0,1,.74,1.29Z"/><path class="dt" d="M604.91,326.31a5.15,5.15,0,0,1-1.87,4.42l-.86.59a.15.15,0,0,1-.17,0,.41.41,0,0,1-.16-.16c-.1-.15-.11-.34,0-.39l.86-.59a4.83,4.83,0,0,0,1.74-4.12v-1.2a2.84,2.84,0,0,0-1.27-2.21c-.71-.41-1.29-.09-1.3.73v1.08a2.94,2.94,0,0,1-1.05,2.51l-.86.58a.17.17,0,0,1-.19,0,.47.47,0,0,1-.15-.16c-.1-.16-.1-.33,0-.4l.87-.58a2.62,2.62,0,0,0,.92-2.22v-1.08c0-1.11.8-1.57,1.77-1a3.9,3.9,0,0,1,1.76,3.05Z"/><polygon class="fh" points="602.65 319.32 602.72 319.48 602.74 319.64 602.1 319.27 602.13 319.13 602.2 319.05 602.3 319.03 602.43 319.08 602.56 319.18 602.65 319.32"/><path class="dt" d="M605.68,322.32a7.65,7.65,0,0,1,1.25,4v1.19a10.36,10.36,0,0,1-.09,1.39c0,.13-.12.16-.24.1l0,0a.53.53,0,0,1-.2-.43,9.29,9.29,0,0,0,.09-1.31V326a6.89,6.89,0,0,0-1.09-3.46c-.1-.17-.11-.34,0-.4a.17.17,0,0,1,.18,0A.47.47,0,0,1,605.68,322.32Z"/><path class="fh" d="M605,320l.12.23a1.86,1.86,0,0,1,.1.31,2.19,2.19,0,0,1,0,.36,1,1,0,0,1-.06.39.3.3,0,0,1-.17.18.32.32,0,0,1-.22,0,.82.82,0,0,1-.24-.1l-.47-.27v-1.78l.44.26.14.1.16.13Z"/><path class="dt" d="M605.31,320.6a1.78,1.78,0,0,1,0,.39,1.5,1.5,0,0,1-.05.37.46.46,0,0,1-.15.23.35.35,0,0,1-.25.06.87.87,0,0,1-.36-.13l-.56-.32v-2l.56.33a1.75,1.75,0,0,1,.39.3,2.35,2.35,0,0,1,.24.37A1.49,1.49,0,0,1,605.31,320.6Zm-.13.72a1,1,0,0,0,.06-.39,2.19,2.19,0,0,0,0-.36,1.86,1.86,0,0,0-.1-.31L605,320l-.16-.17-.16-.13-.14-.1-.44-.26v1.78l.47.27a.82.82,0,0,0,.24.1.32.32,0,0,0,.22,0,.3.3,0,0,0,.17-.18"/><path class="dt" d="M599.46,317.53a3.53,3.53,0,0,0-1.65,3.21c0,.14-.12.19-.24.12a.53.53,0,0,1-.24-.43c.16-3.48,2.73-4.81,5.84-3a9.75,9.75,0,0,1,.83.54.54.54,0,0,1,.21.43c0,.13-.13.17-.25.1l0,0a8.53,8.53,0,0,0-.77-.51A3.85,3.85,0,0,0,599.46,317.53Z"/><path class="dt" d="M605.92,325.7v1.19c0,2.33-.76,4.12-2.12,5.05l-.42.29a.15.15,0,0,1-.17,0,.49.49,0,0,1-.16-.16c-.1-.16-.11-.34,0-.4l.42-.29c1.28-.87,2-2.57,2-4.75v-1.19a5,5,0,0,0-2.29-4c-1.27-.74-2.3-.15-2.3,1.31v1.08a2.2,2.2,0,0,1-.78,1.88l-.71.49a.17.17,0,0,1-.18,0,.41.41,0,0,1-.16-.16c-.1-.16-.1-.33,0-.4l.72-.49a1.9,1.9,0,0,0,.66-1.59V322.5c0-1.77,1.25-2.48,2.79-1.59A6.1,6.1,0,0,1,605.92,325.7Z"/><path class="dt" d="M605,318.85a12.23,12.23,0,0,1,1.59,1.89c.11.15.13.34,0,.41s-.12,0-.19,0a.43.43,0,0,1-.14-.13,11.9,11.9,0,0,0-1.46-1.74.46.46,0,0,1-.15-.43c0-.09.13-.11.23-.05Z"/><path class="fh" d="M603,314.36c-4.52-2.62-8.21-.52-8.22,4.68s3.64,11.54,8.17,14.15,8.2.51,8.22-4.68S607.56,317,603,314.36Zm-1.44,1.18a7.55,7.55,0,0,1,1.58.71,14,14,0,0,1,4.92,5.26c.09.16.08.33,0,.38a.14.14,0,0,1-.16,0,.47.47,0,0,1-.18-.19,13,13,0,0,0-4.57-4.89,7.51,7.51,0,0,0-1.47-.65l-.06,0a.59.59,0,0,1-.23-.35c0-.16.05-.26.18-.23m3.3,3.74a.46.46,0,0,1-.15-.43c0-.09.13-.11.23-.05l.07.05a12.23,12.23,0,0,1,1.59,1.89c.11.15.13.34,0,.41s-.12,0-.19,0a.43.43,0,0,1-.14-.13,11.9,11.9,0,0,0-1.46-1.74m.46,1.71a1.5,1.5,0,0,1-.05.37.46.46,0,0,1-.15.23.35.35,0,0,1-.25.06.87.87,0,0,1-.36-.13l-.56-.32v-2l.56.33a1.75,1.75,0,0,1,.39.3,2.35,2.35,0,0,1,.24.37,1.49,1.49,0,0,1,.13.39,1.78,1.78,0,0,1,0,.39m-7.57-4.83a3.51,3.51,0,0,1,2.78-.82.16.16,0,0,1,.09,0,.55.55,0,0,1,.22.29c0,.17,0,.3-.13.29a3.3,3.3,0,0,0-2.59.76.16.16,0,0,1-.19,0,.41.41,0,0,1-.14-.15c-.11-.15-.13-.33,0-.4m-.22,4.69a.52.52,0,0,1-.23-.42c.16-3.48,2.73-4.81,5.84-3a9.75,9.75,0,0,1,.83.54.5.5,0,0,1,.2.43c0,.13-.12.17-.24.1l0,0a8.53,8.53,0,0,0-.77-.51,3.85,3.85,0,0,0-3.7-.43,3.53,3.53,0,0,0-1.65,3.21c0,.14-.12.19-.25.11m6.2-1.77v2l-.11-.06v-2l.1.06m-.32-.19v2l-.28-.16v-2l.28.16m-1.32.76.06.17.11.15.15.13a.32.32,0,0,0,.19,0l.11-.12.26.15a.3.3,0,0,1-.2.25h-.17l-.2-.09a1.4,1.4,0,0,1-.26-.2,1.31,1.31,0,0,1-.19-.27,1.88,1.88,0,0,1-.12-.3,2.11,2.11,0,0,1,0-.33.72.72,0,0,1,0-.27.27.27,0,0,1,.12-.17.38.38,0,0,1,.44,0,1.14,1.14,0,0,1,.27.23,1.28,1.28,0,0,1,.19.3,2.19,2.19,0,0,1,.12.33,1.87,1.87,0,0,1,0,.33l-.92-.54,0,.18m-1.41-1.53v-.25l1,.59v.22l-.73.56.75.43v.25l-1.09-.63v-.23l.69-.56-.65-.38m-2.63,5.37a.6.6,0,0,1-.16-.16c-.09-.16-.1-.34,0-.4l.29-.2a.38.38,0,0,0,.14-.33v-1.08a3.44,3.44,0,0,1,1.32-3,.16.16,0,0,1,.17,0,.46.46,0,0,1,.17.17c.09.16.1.33,0,.39a3.09,3.09,0,0,0-1.19,2.73v1.08a.75.75,0,0,1-.25.62l-.3.21a.17.17,0,0,1-.18,0m2.06-2.74a4,4,0,0,0-.32,1.43l-.05.13a.17.17,0,0,1-.2,0,.51.51,0,0,1-.22-.42,4.53,4.53,0,0,1,.34-1.58c0-.09.13-.1.23-.05a.27.27,0,0,1,.08.07.46.46,0,0,1,.14.43m-1.61,4.17a.6.6,0,0,1-.16-.16c-.09-.16-.1-.34,0-.4l.59-.42a1.08,1.08,0,0,0,.4-.95c0-.15.11-.21.24-.14a.55.55,0,0,1,.24.41,1.46,1.46,0,0,1-.52,1.25l-.6.42c-.05,0-.11,0-.18,0m2.56,5.27a.47.47,0,0,1-.15-.16c-.1-.16-.11-.33,0-.4l1-.69a4,4,0,0,0,1.47-3.49v-1.2a.58.58,0,0,0-.26-.46c-.15-.08-.27,0-.27.15V325a3.69,3.69,0,0,1-1.32,3.14l-1,.72a.17.17,0,0,1-.18,0,.49.49,0,0,1-.16-.16c-.1-.16-.11-.34,0-.4l1-.72a3.36,3.36,0,0,0,1.19-2.84v-1.08c0-.48.33-.67.75-.43a1.64,1.64,0,0,1,.74,1.29v1.2a4.36,4.36,0,0,1-1.6,3.78l-1,.7a.17.17,0,0,1-.18,0m.92,1.11a.41.41,0,0,1-.16-.16c-.1-.15-.11-.34,0-.39l.86-.59a4.83,4.83,0,0,0,1.74-4.12v-1.2a2.84,2.84,0,0,0-1.27-2.21c-.71-.41-1.29-.09-1.3.73v1.08a2.94,2.94,0,0,1-1.05,2.51l-.86.58a.17.17,0,0,1-.19,0,.47.47,0,0,1-.15-.16c-.1-.16-.1-.33,0-.4l.87-.58a2.62,2.62,0,0,0,.92-2.22v-1.08c0-1.11.8-1.57,1.77-1a3.9,3.9,0,0,1,1.76,3.05v1.19a5.15,5.15,0,0,1-1.87,4.42l-.86.59a.15.15,0,0,1-.17,0m1.78.64-.42.29a.15.15,0,0,1-.17,0,.49.49,0,0,1-.16-.16c-.1-.16-.11-.34,0-.4l.42-.29c1.28-.87,2-2.57,2-4.75v-1.19a5,5,0,0,0-2.29-4c-1.27-.74-2.3-.15-2.3,1.31v1.08a2.2,2.2,0,0,1-.78,1.88l-.71.49a.17.17,0,0,1-.18,0,.41.41,0,0,1-.16-.16c-.1-.16-.1-.33,0-.4l.72-.49a1.9,1.9,0,0,0,.66-1.59V322.5c0-1.77,1.25-2.48,2.79-1.59a6.1,6.1,0,0,1,2.76,4.79v1.19c0,2.33-.76,4.12-2.12,5.05m2.84-2a9.79,9.79,0,0,1-.35,1c0,.09-.13.1-.22,0A.24.24,0,0,1,606,331a.46.46,0,0,1-.13-.44,6.23,6.23,0,0,0,.33-.95c0-.1.12-.13.22-.07l.07.05a.51.51,0,0,1,.17.43m.3-2.49a10.36,10.36,0,0,1-.09,1.39c0,.13-.12.16-.24.1l0,0a.53.53,0,0,1-.2-.43,9.29,9.29,0,0,0,.09-1.31V326a6.89,6.89,0,0,0-1.09-3.46c-.1-.17-.11-.34,0-.4a.17.17,0,0,1,.18,0,.47.47,0,0,1,.15.16,7.65,7.65,0,0,1,1.25,4v1.19m1,.48c0,.2,0,.35-.24.25a.55.55,0,0,1-.23-.52v-1.08a8.77,8.77,0,0,0-1.17-4.09c-.09-.17-.09-.33,0-.39a.17.17,0,0,1,.16,0,.44.44,0,0,1,.18.18,9.79,9.79,0,0,1,1.29,4.55V328m.58-2.54-.07,0a.51.51,0,0,1-.23-.32,11.84,11.84,0,0,0-1.13-2.85c-.09-.16-.08-.34,0-.38a.21.21,0,0,1,.17,0,.53.53,0,0,1,.17.19,12.91,12.91,0,0,1,1.23,3.11c0,.16,0,.28-.15.26"/><polygon class="dt" points="601.74 318.69 601.01 319.24 601.76 319.67 601.76 319.92 600.67 319.29 600.67 319.06 601.36 318.5 600.71 318.12 600.72 317.88 601.74 318.46 601.74 318.69"/><path class="dt" d="M602.89,319.35a2.19,2.19,0,0,1,.12.33,1.87,1.87,0,0,1,0,.33l-.92-.54,0,.18.06.17.11.15.15.13a.32.32,0,0,0,.19,0l.11-.12.26.15a.3.3,0,0,1-.2.25h-.17l-.2-.09a1.4,1.4,0,0,1-.26-.2,1.31,1.31,0,0,1-.19-.27,1.88,1.88,0,0,1-.12-.3,2.11,2.11,0,0,1,0-.33.72.72,0,0,1,0-.27.27.27,0,0,1,.12-.17.38.38,0,0,1,.44,0,1.14,1.14,0,0,1,.27.23A1.28,1.28,0,0,1,602.89,319.35Zm-.79-.08.64.37,0-.16-.07-.16-.09-.14-.13-.1-.13-.05-.1,0-.07.08,0,.14"/><path class="dt" d="M597.82,316.56c-.11-.15-.13-.33,0-.4a3.51,3.51,0,0,1,2.78-.82.16.16,0,0,1,.09,0,.55.55,0,0,1,.22.29c0,.17,0,.3-.13.29a3.3,3.3,0,0,0-2.59.76.16.16,0,0,1-.19,0A.41.41,0,0,1,597.82,316.56Z"/><polygon class="dt" points="603.15 320.72 603.15 318.73 603.44 318.89 603.43 320.88 603.15 320.72"/><path class="dt" d="M606.48,322.16a.44.44,0,0,1,.18.18,9.79,9.79,0,0,1,1.29,4.55V328c0,.2,0,.35-.24.25a.55.55,0,0,1-.23-.52v-1.08a8.77,8.77,0,0,0-1.17-4.09c-.09-.17-.09-.33,0-.38A.14.14,0,0,1,606.48,322.16Z"/><path class="dt" d="M608.67,325.16c0,.16,0,.28-.15.26l-.07,0a.51.51,0,0,1-.23-.32,11.84,11.84,0,0,0-1.13-2.85c-.09-.16-.08-.34,0-.38a.19.19,0,0,1,.16,0,.53.53,0,0,1,.17.19A12.91,12.91,0,0,1,608.67,325.16Z"/><path class="dt" d="M601.64,316.12a.59.59,0,0,1-.23-.35c0-.16.05-.26.18-.23a7.55,7.55,0,0,1,1.58.71,14,14,0,0,1,4.92,5.26c.09.16.08.33,0,.38a.14.14,0,0,1-.16,0,.47.47,0,0,1-.18-.19,13,13,0,0,0-4.57-4.89,7.51,7.51,0,0,0-1.47-.65Z"/></g><polygon class="fj" points="601.85 198.74 618.73 219.79 618.67 242.38 601.73 243.91 584.79 222.82 584.85 200.23 601.85 198.74"/><polygon class="fj" points="576.95 161.47 598.39 188.25 598.37 196.33 582.96 197.69 582.91 218.37 576.78 218.92 570.74 211.35 570.79 190.67 555.46 171.55 555.48 163.47 576.95 161.47"/><polygon class="fj" points="552.03 169.97 568.91 191.02 568.84 213.61 551.9 215.14 534.95 194.05 535.02 171.46 552.03 169.97"/><path class="fj" d="M577,131.76c31.52,18.2,57.09,62.47,57,98.7s-25.83,50.88-57.35,32.68-57.09-62.48-57-98.7S545.5,113.56,577,131.76Zm-.36,128.12c30,17.29,54.4,3.36,54.5-31.06S607,152.31,577,135s-54.41-3.37-54.51,31.06,24.19,76.5,54.16,93.8"/><path class="fk" d="M577,135c30,17.29,54.25,59.37,54.15,93.8s-24.55,48.35-54.5,31.06-54.26-59.38-54.16-93.8S547.06,117.72,577,135Zm5.89,83.35.05-20.68,15.41-1.36,0-8.08L577,161.47l-21.47,2,0,8.08,15.34,19.12-.06,20.68,6,7.57,6.13-.55m-14.07-4.76.07-22.59L552,170l-17,1.49L535,194.05l16.95,21.09,16.94-1.53m32.88,30.3,16.95-1.53.06-22.59-16.88-21-17,1.49-.06,22.59,16.93,21.09"/></g></svg>