<svg xmlns="http://www.w3.org/2000/svg" xmlns:xlink="http://www.w3.org/1999/xlink" viewBox="0 0 750 500"><defs><style>.cls-1{isolation:isolate;}.cls-2{fill:#183c87;}.cls-3{fill:#f1f2f2;}.cls-4{fill:#337e54;}.cls-5{fill:#414042;}.cls-6{fill:#565656;}.cls-7{fill:#f3fcff;}.cls-8{fill:#3e7245;}.cls-9{fill:#3b7245;}.cls-10{fill:#d88b25;}.cls-11{fill:#ffdaa9;}.cls-12{fill:#fbb040;}.cls-13{fill:#ba7820;}.cls-14{fill:#939296;}.cls-15{fill:#e4e4e6;}.cls-16{fill:#333230;}.cls-17{fill:#b2b1b5;}.cls-18{fill:#686474;}.cls-19{opacity:0.35;}.cls-20{fill:#fff;}.cls-21{fill:#949397;}.cls-22{fill:#959498;}.cls-23{fill:#969599;}.cls-24{fill:#97969a;}.cls-25{fill:#98979b;}.cls-26{fill:#99989c;}.cls-27{fill:#9a999d;}.cls-28{fill:#9b9a9e;}.cls-29{fill:#9c9b9e;}.cls-30{fill:#9d9c9f;}.cls-31{fill:#9e9da0;}.cls-32{fill:#9e9ea1;}.cls-33{fill:#9f9fa2;}.cls-34{fill:#a0a0a3;}.cls-35{fill:#a1a1a4;}.cls-36{fill:#a2a2a5;}.cls-37{fill:#a3a3a6;}.cls-38{fill:#a4a4a7;}.cls-39{fill:#a5a5a8;}.cls-40{fill:#a6a6a9;}.cls-41{fill:#a7a7aa;}.cls-42{fill:#a8a8ab;}.cls-43{fill:#a9a9ac;}.cls-44{fill:#aaaaad;}.cls-45{fill:#ababae;}.cls-46{fill:#acacae;}.cls-47{fill:#adadaf;}.cls-48{fill:#aeaeb0;}.cls-49{fill:#afafb1;}.cls-50{fill:#b0b0b2;}.cls-51{fill:#b1b1b3;}.cls-52{fill:#b2b2b4;}.cls-53{fill:#b3b3b5;}.cls-54{fill:#b3b3b6;}.cls-55{fill:#b4b4b7;}.cls-56{fill:#b5b5b8;}.cls-57{fill:#b6b6b9;}.cls-58{fill:#b7b7ba;}.cls-59{fill:#b8b8bb;}.cls-60{fill:#b9b9bc;}.cls-61{fill:#bababd;}.cls-62{fill:#bbbbbd;}.cls-63{fill:#bcbcbe;}.cls-64{fill:#bdbdbf;}.cls-65{fill:#bebec0;}.cls-66{fill:#bfbfc1;}.cls-67{fill:#c0c0c2;}.cls-68{fill:#c1c1c3;}.cls-69{fill:#c2c2c4;}.cls-70{fill:#c3c3c5;}.cls-71{fill:#c4c4c6;}.cls-72{fill:#c5c5c7;}.cls-73{fill:#c6c6c8;}.cls-74{fill:#c7c7c9;}.cls-75{fill:#c8c8ca;}.cls-76{fill:#c8c9cb;}.cls-77{fill:#c9cacc;}.cls-78{fill:#cacbcd;}.cls-79{fill:#cbcccd;}.cls-80{fill:#cccdce;}.cls-81{fill:#cdcecf;}.cls-82{fill:#cecfd0;}.cls-83{fill:#cfd0d1;}.cls-84{fill:#d0d1d2;}.cls-85{fill:#d1d2d3;}.cls-86{fill:#d2d3d4;}.cls-87{fill:#d3d4d5;}.cls-88{fill:#141414;}.cls-89{fill:url(#linear-gradient);}.cls-90{fill:#171415;}.cls-91{fill:#bcbbbf;}.cls-92,.cls-93{mix-blend-mode:multiply;}.cls-92{fill:url(#linear-gradient-2);}.cls-94{fill:#001611;}.cls-95{fill:#0c0816;opacity:0.38;}.cls-96{fill:#707b9e;}.cls-97{fill:#010101;}.cls-98{fill:#2e2e30;}.cls-99{fill:#1d1d1f;}.cls-100{fill:#e0e0e2;}.cls-101{fill:#3e3d43;}.cls-102{fill:#57565c;}.cls-103{fill:#77767e;}.cls-104{fill:#a66206;}.cls-105{fill:#acabb1;}.cls-106{fill:#d8d8da;}.cls-107{fill:#c6c5cb;}</style><linearGradient id="linear-gradient" x1="-699.11" y1="1943.72" x2="-702.89" y2="1939.94" gradientTransform="matrix(1, 0.58, 0, 1, 1276.29, -1435.53)" gradientUnits="userSpaceOnUse"><stop offset="0" stop-color="#616161"/><stop offset="0.58"/></linearGradient><linearGradient id="linear-gradient-2" x1="580.51" y1="378.16" x2="721.01" y2="378.16" gradientTransform="matrix(-1, 0, 0, 1, 1061.65, 0)" gradientUnits="userSpaceOnUse"><stop offset="0"/><stop offset="0.13" stop-color="#050207"/><stop offset="0.32" stop-color="#13081b"/><stop offset="0.54" stop-color="#29123b"/><stop offset="0.79" stop-color="#482067"/><stop offset="1" stop-color="#662d91"/></linearGradient></defs><title>Zel</title><g class="cls-1"><g id="Background"><rect class="cls-2" width="750" height="500"/></g><g id="Cards"><polygon class="cls-3" points="172.27 274.76 177.16 277.61 209.62 258.87 204.73 256.02 172.27 274.76"/><polygon class="cls-4" points="129.97 286.39 138.31 291.23 207.83 251.09 199.49 246.25 129.97 286.39"/><polygon class="cls-4" points="129.97 286.39 129.98 287.93 138.31 292.77 138.31 291.23 129.97 286.39"/><polygon class="cls-3" points="162.11 290.99 164.88 292.6 216.44 262.83 213.68 261.22 162.11 290.99"/><path class="cls-5" d="M124.86,279.3l62.26-35.94a8,8,0,0,1,7.24,0l4.55,2.65-69.52,40.14-4.55-2.65C122.85,282.33,122.86,280.46,124.86,279.3Z" transform="translate(0.58 0.25)"/><path class="cls-5" d="M207.25,250.84,137.73,291l22.81,13.26a8,8,0,0,0,7.23,0L230,268.29c2-1.15,2-3,0-4.19Zm-39.31,43.63,51.57-29.77,2.76,1.61-51.56,29.77Zm-6.41-3.73L213.09,261l2.77,1.61L164.3,292.35Zm42.62-35,4.89,2.85-32.46,18.74-4.89-2.85Z" transform="translate(0.58 0.25)"/><polygon class="cls-5" points="168.53 294.72 171.29 296.33 222.85 266.56 220.09 264.95 168.53 294.72"/><path class="cls-6" d="M124.84,283.49l4.55,2.65v1.54L124.84,285a2.51,2.51,0,0,1-1.48-2.08v-1.54A2.54,2.54,0,0,0,124.84,283.49Z" transform="translate(0.58 0.25)"/><path class="cls-6" d="M167.77,304.24,230,268.29a2.53,2.53,0,0,0,1.51-2.11v1.54a2.58,2.58,0,0,1-1.51,2.12l-62.26,35.94a8,8,0,0,1-7.24,0l-22.81-13.26V291l22.81,13.26A8,8,0,0,0,167.77,304.24Z" transform="translate(0.58 0.25)"/><polygon class="cls-5" points="183.79 267.69 178.9 270.53 146.44 251.79 151.34 248.95 183.79 267.69"/><polygon class="cls-7" points="226.09 279.31 217.75 284.15 148.24 244.02 156.57 239.17 226.09 279.31"/><polygon class="cls-7" points="226.09 279.31 226.09 280.85 217.75 285.7 217.75 284.15 226.09 279.31"/><polygon class="cls-5" points="193.95 283.92 191.18 285.52 139.62 255.75 142.39 254.15 193.95 283.92"/><path class="cls-4" d="M230,272.22l-62.26-35.94a8,8,0,0,0-7.24,0L156,238.92l69.52,40.14,4.55-2.65C232.05,275.26,232,273.38,230,272.22Z" transform="translate(0.58 0.25)"/><path class="cls-4" d="M124.84,257c-2,1.16-2,3,0,4.2l62.26,35.94a8,8,0,0,0,7.23,0l22.81-13.26-69.52-40.13Zm59.35,32-51.56-29.77,2.76-1.61L187,287.39Zm6.41-3.73L139,255.5l2.77-1.6,51.56,29.77Zm-7.39-17.83-4.89,2.84-32.46-18.74,4.89-2.84Z" transform="translate(0.58 0.25)"/><polygon class="cls-5" points="187.54 287.64 184.77 289.25 133.21 259.48 135.98 257.87 187.54 287.64"/><path class="cls-8" d="M230.06,276.41l-4.55,2.65v1.54l4.56-2.64a2.54,2.54,0,0,0,1.48-2.08v-1.55A2.52,2.52,0,0,1,230.06,276.41Z" transform="translate(0.58 0.25)"/><path class="cls-9" d="M187.13,297.16l-62.26-35.94a2.56,2.56,0,0,1-1.51-2.12v1.55a2.58,2.58,0,0,0,1.51,2.11l62.26,35.94a8,8,0,0,0,7.24,0l22.81-13.25V283.9l-22.81,13.26A8,8,0,0,1,187.13,297.16Z" transform="translate(0.58 0.25)"/></g><g id="Money"><g class="cls-1"><path class="cls-3" d="M296.9,453h0c0,1.37,0,2.74,0,4.1C296.89,455.71,296.89,454.34,296.9,453Z" transform="translate(0.58 0.25)"/><polygon class="cls-3" points="305.49 452.8 305.48 458.2 304.31 458.88 304.32 453.48 305.49 452.8"/><polygon class="cls-3" points="307.27 453.82 307.26 459.23 305.48 458.2 305.49 452.8 307.27 453.82"/><polygon points="307.27 453.82 307.26 459.23 306.1 459.9 306.12 454.5 307.27 453.82"/><path class="cls-3" d="M295.64,459.45a1.5,1.5,0,0,0-.2.75v-5.4a1.51,1.51,0,0,1,.21-.75c0,1.8,0,3.6,0,5.4,0-1.8,0-3.6,0-5.4A3.33,3.33,0,0,1,296.9,453h0c0,1.8,0,3.6,0,5.4,0-1.8,0-3.6,0-5.4a5.65,5.65,0,0,1,3.12-.75c0,1.8,0,3.6,0,5.4,0-1.8,0-3.6,0-5.4a9.68,9.68,0,0,1,3.72,1l0,5.4a9.63,9.63,0,0,0-3.72-1,5.65,5.65,0,0,0-3.12.76A3.24,3.24,0,0,0,295.64,459.45Z" transform="translate(0.58 0.25)"/><path class="cls-3" d="M300.06,460.66v-5.4c0,1.59,0,3.18,0,4.77Z" transform="translate(0.58 0.25)"/><path class="cls-3" d="M308.13,462.13a9,9,0,0,0-2.61-2.48c0-1.59,0-3.18,0-4.77v-.63a9,9,0,0,1,2.62,2.48C308.15,458.35,308.14,460.51,308.13,462.13Z" transform="translate(0.58 0.25)"/><path d="M300.06,460.64v-5.4c0-.14.09-.26.27-.37a1.15,1.15,0,0,1,.77-.12,3.25,3.25,0,0,1,1.14.46,7.44,7.44,0,0,1,2.44,2.34l0,5.4a7.35,7.35,0,0,0-2.44-2.34,3.5,3.5,0,0,0-1.13-.46,1.25,1.25,0,0,0-.78.12A.44.44,0,0,0,300.06,460.64Z" transform="translate(0.58 0.25)"/><path class="cls-3" d="M300.06,460.66c0-.19,0-.44,0-.63v-4.77a1.64,1.64,0,0,0,.3.64,13,13,0,0,0,.85,1.11h0c0,1.8,0,3.6,0,5.4h0a11.67,11.67,0,0,1-.86-1.1A1.61,1.61,0,0,1,300.06,460.66Z" transform="translate(0.58 0.25)"/><polygon class="cls-3" points="292.83 455.95 292.81 461.35 289.97 463 289.99 457.6 292.83 455.95"/><polygon points="308.73 456.98 308.72 462.38 305.26 463.2 305.27 457.8 308.73 456.98"/><path d="M297.7,458.85v5.4a.2.2,0,0,0,0-.07,2.13,2.13,0,0,0-.37-.73c-.22-.32-.53-.73-.95-1.24a4.42,4.42,0,0,1-.86-1.54,2,2,0,0,1-.06-.47v-5.4a1.88,1.88,0,0,0,.06.46,4.5,4.5,0,0,0,.87,1.55c.41.51.73.92.94,1.23a2.23,2.23,0,0,1,.38.74Z" transform="translate(0.58 0.25)"/><path class="cls-3" d="M302.35,464.7a4,4,0,0,0-1.14-2.29c0-1.8,0-3.6,0-5.4a4,4,0,0,1,1.14,2.29C302.36,460.92,302.36,463.08,302.35,464.7Z" transform="translate(0.58 0.25)"/><path class="cls-3" d="M293.56,462.84a8.76,8.76,0,0,1-1.33-1.74l0-5.4a8.69,8.69,0,0,0,1.32,1.74,7.89,7.89,0,0,0,1.72,1.38,4.06,4.06,0,0,0,1.25.52,1.36,1.36,0,0,0,.92-.14.41.41,0,0,0,.24-.35v5.4a.4.4,0,0,1-.24.35,1.29,1.29,0,0,1-.93.14,4.1,4.1,0,0,1-1.25-.51A8,8,0,0,1,293.56,462.84Z" transform="translate(0.58 0.25)"/><path d="M292.2,459.93l0,5.4a9.32,9.32,0,0,1-2.79-2.58l0-5.4A9.45,9.45,0,0,0,292.2,459.93Z" transform="translate(0.58 0.25)"/><polygon class="cls-3" points="292.78 460.18 292.77 465.58 291.17 466.51 291.18 461.11 292.78 460.18"/><path d="M302.37,459.3l0,5.4v0c0,.61-.45,1.17-1.3,1.66a6.19,6.19,0,0,1-3.25.83,9.22,9.22,0,0,1-3.78-.9v-5.4a9.47,9.47,0,0,0,3.79.9,6.31,6.31,0,0,0,3.25-.83c.85-.49,1.28-1.05,1.3-1.66Z" transform="translate(0.58 0.25)"/><polygon points="294.62 461.18 294.6 466.58 292.95 467.54 292.96 462.14 294.62 461.18"/><polygon points="292.96 462.14 292.95 467.54 291.17 466.51 291.18 461.11 292.96 462.14"/><path class="cls-10" d="M321.41,457.27v5.4c0,3.36-2.22,6.71-6.63,9.27-8.87,5.16-23.31,5.16-32.24,0-4.5-2.59-6.74-6-6.73-9.4l0-5.4c0,3.4,2.23,6.8,6.72,9.4,8.94,5.16,23.37,5.16,32.25,0C319.2,464,321.4,460.62,321.41,457.27Z" transform="translate(0.58 0.25)"/><ellipse class="cls-11" cx="298.61" cy="457.2" rx="13.21" ry="22.8" transform="translate(-158.85 754.77) rotate(-89.84)"/><path class="cls-12" d="M298.69,469.21a31.62,31.62,0,0,1-15.55-3.71c-3.95-2.28-6.12-5.24-6.13-8.33s2.14-6,6-8.27a34.32,34.32,0,0,1,31,0c3.95,2.28,6.13,5.24,6.14,8.33s-2.14,6-6,8.27a31.39,31.39,0,0,1-15.5,3.71Z" transform="translate(0.58 0.25)"/></g><g class="cls-1"><path class="cls-3" d="M308.92,446.31h0c0,1.37,0,2.74,0,4.1C308.92,449.05,308.92,447.68,308.92,446.31Z" transform="translate(0.58 0.25)"/><polygon class="cls-3" points="317.52 446.13 317.5 451.54 316.33 452.22 316.35 446.82 317.52 446.13"/><polygon class="cls-3" points="319.3 447.16 319.29 452.57 317.5 451.54 317.52 446.13 319.3 447.16"/><polygon points="319.3 447.16 319.29 452.57 318.13 453.24 318.15 447.84 319.3 447.16"/><path class="cls-3" d="M307.67,452.79a1.5,1.5,0,0,0-.2.75v-5.4a1.42,1.42,0,0,1,.21-.75l0,5.4c0-1.8,0-3.6,0-5.4a3.37,3.37,0,0,1,1.23-1.08h0c0,1.8,0,3.6,0,5.4,0-1.8,0-3.6,0-5.4a5.67,5.67,0,0,1,3.12-.75c0,1.8,0,3.6,0,5.4,0-1.8,0-3.6,0-5.4a9.64,9.64,0,0,1,3.71,1V452a9.63,9.63,0,0,0-3.72-1,5.65,5.65,0,0,0-3.12.76A3.24,3.24,0,0,0,307.67,452.79Z" transform="translate(0.58 0.25)"/><path class="cls-3" d="M312.09,454v-5.4c0,1.59,0,3.18,0,4.77Z" transform="translate(0.58 0.25)"/><path class="cls-3" d="M320.16,455.47a9,9,0,0,0-2.61-2.48c0-1.59,0-3.18,0-4.77v-.63a9,9,0,0,1,2.62,2.48C320.17,451.69,320.17,453.85,320.16,455.47Z" transform="translate(0.58 0.25)"/><path d="M312.09,454v-5.4c0-.14.09-.26.27-.37a1.14,1.14,0,0,1,.77-.12,3.14,3.14,0,0,1,1.13.46,7.38,7.38,0,0,1,2.45,2.34l0,5.4a7.35,7.35,0,0,0-2.44-2.34,3.45,3.45,0,0,0-1.14-.46,1.23,1.23,0,0,0-.77.12A.44.44,0,0,0,312.09,454Z" transform="translate(0.58 0.25)"/><path class="cls-3" d="M312.09,454c0-.19,0-.44,0-.63V451.3c0-.9,0-1.8,0-2.7a1.64,1.64,0,0,0,.3.64,11.14,11.14,0,0,0,.85,1.11h0c0,1.8,0,3.6,0,5.4h0a11.67,11.67,0,0,1-.86-1.1A1.61,1.61,0,0,1,312.09,454Z" transform="translate(0.58 0.25)"/><polygon class="cls-3" points="304.86 449.29 304.84 454.69 302 456.34 302.02 450.94 304.86 449.29"/><polygon points="320.76 450.32 320.75 455.72 317.29 456.54 317.3 451.14 320.76 450.32"/><path d="M309.73,452.19v5.4s0,0,0-.07a2.23,2.23,0,0,0-.37-.73c-.22-.32-.53-.73-.95-1.24a4.22,4.22,0,0,1-.86-1.55,1.88,1.88,0,0,1-.06-.46v-5.4a1.88,1.88,0,0,0,.06.46,4.5,4.5,0,0,0,.87,1.55c.41.51.73.92.94,1.23a2.15,2.15,0,0,1,.37.74A.17.17,0,0,1,309.73,452.19Z" transform="translate(0.58 0.25)"/><path class="cls-3" d="M314.38,458a4,4,0,0,0-1.14-2.29c0-1.8,0-3.6,0-5.4a4,4,0,0,1,1.15,2.29C314.39,454.26,314.39,456.42,314.38,458Z" transform="translate(0.58 0.25)"/><path class="cls-3" d="M305.58,456.18a9.09,9.09,0,0,1-1.32-1.74V449a8.76,8.76,0,0,0,1.33,1.74,7.67,7.67,0,0,0,1.72,1.38,4,4,0,0,0,1.25.52,1.36,1.36,0,0,0,.92-.14.41.41,0,0,0,.24-.35v5.4a.4.4,0,0,1-.25.35,1.26,1.26,0,0,1-.92.14,4.1,4.1,0,0,1-1.25-.51A8.27,8.27,0,0,1,305.58,456.18Z" transform="translate(0.58 0.25)"/><path d="M304.23,453.27l0,5.4a9.32,9.32,0,0,1-2.79-2.58v-5.4A9.49,9.49,0,0,0,304.23,453.27Z" transform="translate(0.58 0.25)"/><polygon class="cls-3" points="304.81 453.52 304.8 458.92 303.19 459.85 303.21 454.45 304.81 453.52"/><path d="M314.4,452.64l0,5.4v0c0,.61-.45,1.17-1.3,1.66a6.22,6.22,0,0,1-3.25.83,9.3,9.3,0,0,1-3.79-.9l0-5.4a9.42,9.42,0,0,0,3.78.9,6.35,6.35,0,0,0,3.26-.83c.85-.49,1.28-1,1.3-1.66Z" transform="translate(0.58 0.25)"/><polygon points="306.64 454.52 306.63 459.92 304.98 460.88 304.99 455.48 306.64 454.52"/><polygon points="304.99 455.48 304.98 460.88 303.19 459.85 303.21 454.45 304.99 455.48"/><path class="cls-10" d="M333.44,450.61V456c0,3.36-2.22,6.71-6.63,9.27-8.87,5.16-23.31,5.16-32.24,0-4.5-2.59-6.74-6-6.73-9.4v-5.4c0,3.4,2.24,6.8,6.73,9.4,8.94,5.16,23.37,5.15,32.25,0C331.22,457.32,333.43,454,333.44,450.61Z" transform="translate(0.58 0.25)"/><ellipse class="cls-11" cx="310.64" cy="450.54" rx="13.21" ry="22.8" transform="translate(-140.19 760.15) rotate(-89.84)"/><path class="cls-12" d="M310.72,462.55a31.62,31.62,0,0,1-15.55-3.71c-3.95-2.28-6.13-5.24-6.13-8.33s2.14-6,6-8.27a34.32,34.32,0,0,1,31,0c3.95,2.28,6.13,5.24,6.13,8.33s-2.13,6-6,8.27a31.33,31.33,0,0,1-15.49,3.71Z" transform="translate(0.58 0.25)"/></g><g id="Zel2"><polygon class="cls-13" points="328.18 450.84 328.2 455.2 321.74 457.38 315.24 455.19 315.21 450.84 321.69 448.66 328.18 450.84"/><polygon class="cls-13" points="320.35 447.03 320.36 448.58 314.49 450.56 314.51 454.55 312.18 455.34 309.86 454.55 309.83 450.56 303.94 448.58 303.93 447.03 312.11 444.25 320.35 447.03"/><polygon class="cls-13" points="309.11 450.84 309.13 455.2 302.67 457.38 296.18 455.2 296.15 450.84 302.63 448.66 309.11 450.84"/></g><g class="cls-1"><path class="cls-3" d="M297.07,435.17h0l0,4.1C297.06,437.91,297.06,436.54,297.07,435.17Z" transform="translate(0.58 0.25)"/><polygon class="cls-3" points="305.66 434.99 305.65 440.4 304.48 441.08 304.49 435.68 305.66 434.99"/><polygon class="cls-3" points="307.44 436.02 307.43 441.43 305.65 440.4 305.66 434.99 307.44 436.02"/><polygon points="307.44 436.02 307.43 441.43 306.27 442.1 306.29 436.69 307.44 436.02"/><path class="cls-3" d="M295.81,441.65a1.5,1.5,0,0,0-.2.75l0-5.4a1.47,1.47,0,0,1,.2-.76c0,1.81,0,3.61,0,5.41,0-1.8,0-3.6,0-5.41a3.41,3.41,0,0,1,1.24-1.07h0c0,1.8,0,3.6,0,5.4,0-1.8,0-3.6,0-5.4a5.56,5.56,0,0,1,3.12-.75c0,1.8,0,3.6,0,5.4,0-1.8,0-3.6,0-5.4a9.83,9.83,0,0,1,3.72,1l0,5.41a9.63,9.63,0,0,0-3.72-1,5.73,5.73,0,0,0-3.12.75A3.33,3.33,0,0,0,295.81,441.65Z" transform="translate(0.58 0.25)"/><path class="cls-3" d="M300.23,442.86v-5.4c0,1.59,0,3.18,0,4.77Z" transform="translate(0.58 0.25)"/><path class="cls-3" d="M308.31,444.33a9.16,9.16,0,0,0-2.62-2.48c0-1.59,0-3.18,0-4.77v-.64a9.16,9.16,0,0,1,2.61,2.49C308.32,440.55,308.31,442.71,308.31,444.33Z" transform="translate(0.58 0.25)"/><path d="M300.23,442.84v-5.41a.43.43,0,0,1,.27-.36,1.1,1.1,0,0,1,.77-.12,3.25,3.25,0,0,1,1.14.46,7.25,7.25,0,0,1,2.44,2.34l0,5.4a7.26,7.26,0,0,0-2.44-2.34,3.5,3.5,0,0,0-1.13-.46,1.25,1.25,0,0,0-.78.12A.46.46,0,0,0,300.23,442.84Z" transform="translate(0.58 0.25)"/><path class="cls-3" d="M300.23,442.86c0-.19,0-.44,0-.63v-.67c0-.35,0-.7,0-1.05v-3.05a1.64,1.64,0,0,0,.3.64,11.55,11.55,0,0,0,.86,1.11h0c0,1.8,0,3.6,0,5.4h0a11.55,11.55,0,0,1-.86-1.11A1.58,1.58,0,0,1,300.23,442.86Z" transform="translate(0.58 0.25)"/><polygon class="cls-3" points="293 438.14 292.98 443.55 290.14 445.2 290.16 439.8 293 438.14"/><polygon points="308.9 439.18 308.89 444.58 305.43 445.4 305.44 440 308.9 439.18"/><path d="M297.88,441.05l0,5.4a.17.17,0,0,0,0-.07,2,2,0,0,0-.37-.73c-.22-.32-.53-.73-1-1.24a4.37,4.37,0,0,1-.86-1.55,1.88,1.88,0,0,1-.06-.46l0-5.4a1.49,1.49,0,0,0,.06.46,4.19,4.19,0,0,0,.86,1.54c.41.51.73.93.95,1.24a2.44,2.44,0,0,1,.37.73S297.88,441,297.88,441.05Z" transform="translate(0.58 0.25)"/><path class="cls-3" d="M302.52,446.9a3.88,3.88,0,0,0-1.14-2.29c0-1.8,0-3.6,0-5.4a4,4,0,0,1,1.14,2.29C302.53,443.12,302.53,445.28,302.52,446.9Z" transform="translate(0.58 0.25)"/><path class="cls-3" d="M293.73,445a8.76,8.76,0,0,1-1.33-1.74l0-5.4a9.41,9.41,0,0,0,1.32,1.74,7.89,7.89,0,0,0,1.72,1.38,4.06,4.06,0,0,0,1.25.52,1.31,1.31,0,0,0,.92-.15.42.42,0,0,0,.25-.34l0,5.4a.41.41,0,0,1-.24.35,1.34,1.34,0,0,1-.93.14,4,4,0,0,1-1.24-.51A7.78,7.78,0,0,1,293.73,445Z" transform="translate(0.58 0.25)"/><path d="M292.37,442.13l0,5.4a9.45,9.45,0,0,1-2.79-2.58l0-5.4A9.45,9.45,0,0,0,292.37,442.13Z" transform="translate(0.58 0.25)"/><polygon class="cls-3" points="292.95 442.38 292.94 447.78 291.34 448.71 291.35 443.31 292.95 442.38"/><path d="M302.54,441.5l0,5.4v0c0,.61-.45,1.17-1.29,1.66a6.35,6.35,0,0,1-3.26.83,9.38,9.38,0,0,1-3.78-.9v-5.4a9.47,9.47,0,0,0,3.79.9,6.41,6.41,0,0,0,3.25-.83c.85-.49,1.28-1.05,1.3-1.66Z" transform="translate(0.58 0.25)"/><polygon points="294.79 443.38 294.77 448.78 293.12 449.74 293.13 444.34 294.79 443.38"/><polygon points="293.13 444.34 293.12 449.74 291.34 448.71 291.35 443.31 293.13 444.34"/><path class="cls-10" d="M321.58,439.46v5.41c0,3.35-2.22,6.71-6.63,9.27-8.87,5.16-23.31,5.16-32.24,0-4.49-2.59-6.74-6-6.73-9.4l0-5.41c0,3.41,2.23,6.81,6.73,9.41,8.93,5.15,23.37,5.15,32.24,0C319.37,446.17,321.57,442.82,321.58,439.46Z" transform="translate(0.58 0.25)"/><ellipse class="cls-11" cx="298.78" cy="439.4" rx="13.21" ry="22.8" transform="translate(-140.88 737.19) rotate(-89.84)"/><path class="cls-12" d="M298.86,451.41a31.65,31.65,0,0,1-15.55-3.71c-3.95-2.28-6.12-5.24-6.13-8.33s2.14-6,6-8.27a34.32,34.32,0,0,1,31,0c3.95,2.28,6.13,5.24,6.14,8.33s-2.14,6-6,8.27a31.39,31.39,0,0,1-15.5,3.71Z" transform="translate(0.58 0.25)"/></g><g class="cls-1"><path class="cls-3" d="M302.52,424.68h0l0,4.1C302.51,427.42,302.51,426.05,302.52,424.68Z" transform="translate(0.58 0.25)"/><polygon class="cls-3" points="311.11 424.5 311.1 429.91 309.93 430.59 309.94 425.19 311.11 424.5"/><polygon class="cls-3" points="312.89 425.53 312.88 430.94 311.1 429.91 311.11 424.5 312.89 425.53"/><polygon points="312.89 425.53 312.88 430.94 311.72 431.61 311.74 426.2 312.89 425.53"/><path class="cls-3" d="M301.26,431.16a1.5,1.5,0,0,0-.2.75v-5.4a1.58,1.58,0,0,1,.21-.76c0,1.81,0,3.61,0,5.41,0-1.8,0-3.6,0-5.41a3.41,3.41,0,0,1,1.24-1.07h0c0,1.8,0,3.6,0,5.4,0-1.8,0-3.6,0-5.4a5.56,5.56,0,0,1,3.12-.75c0,1.8,0,3.6,0,5.4,0-1.8,0-3.6,0-5.4a9.83,9.83,0,0,1,3.72,1l0,5.41a9.63,9.63,0,0,0-3.72-1,5.73,5.73,0,0,0-3.12.75A3.33,3.33,0,0,0,301.26,431.16Z" transform="translate(0.58 0.25)"/><path class="cls-3" d="M305.68,432.37V427c0,1.59,0,3.18,0,4.77Z" transform="translate(0.58 0.25)"/><path class="cls-3" d="M313.75,433.84a9,9,0,0,0-2.61-2.48c0-1.59,0-3.18,0-4.77V426a9.29,9.29,0,0,1,2.61,2.49C313.77,430.06,313.76,432.22,313.75,433.84Z" transform="translate(0.58 0.25)"/><path d="M305.68,432.35v-5.41a.43.43,0,0,1,.27-.36,1.1,1.1,0,0,1,.77-.12,3.25,3.25,0,0,1,1.14.46,7.25,7.25,0,0,1,2.44,2.34l0,5.4a7.35,7.35,0,0,0-2.44-2.34,3.5,3.5,0,0,0-1.13-.46,1.25,1.25,0,0,0-.78.12A.46.46,0,0,0,305.68,432.35Z" transform="translate(0.58 0.25)"/><path class="cls-3" d="M305.68,432.37c0-.19,0-.44,0-.63V427a1.64,1.64,0,0,0,.3.64,11.55,11.55,0,0,0,.86,1.11h0c0,1.8,0,3.6,0,5.4h0A11.55,11.55,0,0,1,306,433,1.58,1.58,0,0,1,305.68,432.37Z" transform="translate(0.58 0.25)"/><polygon class="cls-3" points="298.45 427.65 298.43 433.06 295.59 434.71 295.61 429.31 298.45 427.65"/><polygon points="314.35 428.69 314.34 434.09 310.88 434.91 310.89 429.51 314.35 428.69"/><path d="M303.32,430.56V436a.17.17,0,0,0,0-.07,2,2,0,0,0-.37-.73c-.22-.32-.53-.73-.95-1.24a4.37,4.37,0,0,1-.86-1.55,1.88,1.88,0,0,1-.06-.46v-5.4a1.88,1.88,0,0,0,.06.46,4.39,4.39,0,0,0,.87,1.54c.41.51.73.93.94,1.24a2.3,2.3,0,0,1,.38.73Z" transform="translate(0.58 0.25)"/><path class="cls-3" d="M308,436.41a3.94,3.94,0,0,0-1.14-2.29c0-1.8,0-3.6,0-5.4A4,4,0,0,1,308,431C308,432.63,308,434.79,308,436.41Z" transform="translate(0.58 0.25)"/><path class="cls-3" d="M299.18,434.55a8.76,8.76,0,0,1-1.33-1.74l0-5.4a9,9,0,0,0,1.32,1.74,7.89,7.89,0,0,0,1.72,1.38,4.06,4.06,0,0,0,1.25.52,1.31,1.31,0,0,0,.92-.15.39.39,0,0,0,.24-.34V436a.41.41,0,0,1-.24.35,1.34,1.34,0,0,1-.93.14,4,4,0,0,1-1.24-.51A7.78,7.78,0,0,1,299.18,434.55Z" transform="translate(0.58 0.25)"/><path d="M297.82,431.64l0,5.4a9.45,9.45,0,0,1-2.79-2.58l0-5.4A9.45,9.45,0,0,0,297.82,431.64Z" transform="translate(0.58 0.25)"/><polygon class="cls-3" points="298.4 431.89 298.39 437.29 296.79 438.22 296.8 432.82 298.4 431.89"/><path d="M308,431l0,5.4v0c0,.61-.45,1.17-1.3,1.66a6.29,6.29,0,0,1-3.25.83,9.38,9.38,0,0,1-3.78-.9v-5.4a9.47,9.47,0,0,0,3.79.9,6.41,6.41,0,0,0,3.25-.83c.85-.49,1.28-1,1.3-1.66Z" transform="translate(0.58 0.25)"/><polygon points="300.24 432.89 300.22 438.29 298.57 439.25 298.58 433.85 300.24 432.89"/><polygon points="298.58 433.85 298.57 439.25 296.79 438.22 296.8 432.82 298.58 433.85"/><path class="cls-10" d="M327,429v5.41c0,3.35-2.22,6.71-6.63,9.27-8.87,5.16-23.31,5.16-32.24,0-4.49-2.59-6.74-6-6.73-9.4l0-5.41c0,3.41,2.23,6.81,6.72,9.41,8.94,5.15,23.37,5.15,32.25,0C324.82,435.68,327,432.33,327,429Z" transform="translate(0.58 0.25)"/><ellipse class="cls-11" cx="304.23" cy="428.91" rx="13.21" ry="22.8" transform="translate(-124.95 732.18) rotate(-89.84)"/><path class="cls-12" d="M304.31,440.92a31.62,31.62,0,0,1-15.55-3.71c-3.95-2.28-6.12-5.24-6.13-8.33s2.14-6,6-8.27a34.32,34.32,0,0,1,31,0c3.95,2.28,6.13,5.24,6.14,8.33s-2.14,6-6,8.27a31.39,31.39,0,0,1-15.5,3.71Z" transform="translate(0.58 0.25)"/></g><g class="cls-1"><path class="cls-3" d="M308.8,417.82h0c0,1.36,0,2.73,0,4.1C308.79,420.55,308.8,419.19,308.8,417.82Z" transform="translate(0.58 0.25)"/><polygon class="cls-3" points="317.4 417.64 317.38 423.04 316.21 423.72 316.23 418.32 317.4 417.64"/><polygon class="cls-3" points="319.18 418.67 319.17 424.07 317.38 423.04 317.4 417.64 319.18 418.67"/><polygon points="319.18 418.67 319.17 424.07 318.01 424.74 318.03 419.34 319.18 418.67"/><path class="cls-3" d="M307.55,424.29a1.41,1.41,0,0,0-.2.75v-5.4a1.5,1.5,0,0,1,.2-.75c0,1.8,0,3.6,0,5.4,0-1.8,0-3.6,0-5.4a3.49,3.49,0,0,1,1.24-1.07h0c0,1.8,0,3.6,0,5.4,0-1.8,0-3.6,0-5.4a5.68,5.68,0,0,1,3.12-.76c0,1.8,0,3.6,0,5.4,0-1.8,0-3.6,0-5.4a9.63,9.63,0,0,1,3.72,1v5.4a9.79,9.79,0,0,0-3.72-1,5.56,5.56,0,0,0-3.12.75A3.41,3.41,0,0,0,307.55,424.29Z" transform="translate(0.58 0.25)"/><path class="cls-3" d="M312,425.51V420.1c0,1.59,0,3.19,0,4.78Z" transform="translate(0.58 0.25)"/><path class="cls-3" d="M320,427a9.26,9.26,0,0,0-2.61-2.48c0-1.59,0-3.18,0-4.77v-.63a9.17,9.17,0,0,1,2.62,2.48C320.05,423.19,320.05,425.35,320,427Z" transform="translate(0.58 0.25)"/><path d="M312,425.48v-5.4a.43.43,0,0,1,.27-.36,1.14,1.14,0,0,1,.77-.13,3.65,3.65,0,0,1,1.13.46,7.31,7.31,0,0,1,2.45,2.35l0,5.4a7.16,7.16,0,0,0-2.44-2.34A3.52,3.52,0,0,0,313,425a1.17,1.17,0,0,0-.77.13A.41.41,0,0,0,312,425.48Z" transform="translate(0.58 0.25)"/><path class="cls-3" d="M312,425.51c0-.19,0-.44,0-.63v-2.07c0-.9,0-1.81,0-2.71a1.66,1.66,0,0,0,.3.65,10.16,10.16,0,0,0,.85,1.1h0c0,1.8,0,3.61,0,5.41h0a11.55,11.55,0,0,1-.86-1.11A1.58,1.58,0,0,1,312,425.51Z" transform="translate(0.58 0.25)"/><polygon class="cls-3" points="304.74 420.79 304.72 426.19 301.88 427.84 301.9 422.44 304.74 420.79"/><polygon points="320.64 421.82 320.63 427.22 317.16 428.05 317.18 422.64 320.64 421.82"/><path d="M309.61,423.7v5.4s0-.05,0-.08a2.33,2.33,0,0,0-.37-.73c-.22-.31-.53-.73-1-1.24a4.19,4.19,0,0,1-.86-1.54,2,2,0,0,1-.06-.47v-5.4a2,2,0,0,0,.06.47,4.47,4.47,0,0,0,.87,1.54c.41.51.72.92.94,1.24a2.13,2.13,0,0,1,.37.73A.22.22,0,0,1,309.61,423.7Z" transform="translate(0.58 0.25)"/><path class="cls-3" d="M314.26,429.55a4,4,0,0,0-1.14-2.29c0-1.8,0-3.61,0-5.41a4,4,0,0,1,1.15,2.3C314.27,425.77,314.26,427.93,314.26,429.55Z" transform="translate(0.58 0.25)"/><path class="cls-3" d="M305.46,427.69a9.13,9.13,0,0,1-1.32-1.75v-5.4a8.76,8.76,0,0,0,1.33,1.74,7.45,7.45,0,0,0,1.72,1.39,4.29,4.29,0,0,0,1.24.52,1.33,1.33,0,0,0,.93-.15.4.4,0,0,0,.24-.34v5.4a.4.4,0,0,1-.25.34,1.31,1.31,0,0,1-.92.15,4.33,4.33,0,0,1-1.25-.52A7.89,7.89,0,0,1,305.46,427.69Z" transform="translate(0.58 0.25)"/><path d="M304.11,424.78l0,5.4a9.34,9.34,0,0,1-2.79-2.59v-5.4A9.27,9.27,0,0,0,304.11,424.78Z" transform="translate(0.58 0.25)"/><polygon class="cls-3" points="304.69 425.03 304.67 430.43 303.07 431.36 303.09 425.96 304.69 425.03"/><path d="M314.28,424.15l0,5.4v0c0,.61-.45,1.16-1.3,1.66a6.31,6.31,0,0,1-3.25.82,9.28,9.28,0,0,1-3.79-.89l0-5.4a9.24,9.24,0,0,0,3.78.89,6.26,6.26,0,0,0,3.26-.83c.84-.49,1.28-1,1.29-1.66Z" transform="translate(0.58 0.25)"/><polygon points="306.52 426.02 306.51 431.43 304.86 432.39 304.87 426.99 306.52 426.02"/><polygon points="304.87 426.99 304.86 432.39 303.07 431.36 303.09 425.96 304.87 426.99"/><path class="cls-10" d="M333.32,422.11v5.4c0,3.36-2.22,6.71-6.63,9.28-8.87,5.15-23.31,5.15-32.24,0-4.5-2.6-6.74-6-6.73-9.41V422c0,3.4,2.24,6.81,6.73,9.4,8.94,5.16,23.37,5.16,32.24,0C331.1,428.82,333.31,425.47,333.32,422.11Z" transform="translate(0.58 0.25)"/><ellipse class="cls-11" cx="310.52" cy="422.05" rx="13.21" ry="22.8" transform="translate(-111.82 731.62) rotate(-89.84)"/><path class="cls-12" d="M310.59,434.05a31.61,31.61,0,0,1-15.54-3.7c-3.95-2.28-6.13-5.24-6.13-8.34s2.14-6,6-8.27a34.4,34.4,0,0,1,31,0c3.95,2.28,6.13,5.24,6.13,8.34s-2.13,6-6,8.27a31.33,31.33,0,0,1-15.49,3.7Z" transform="translate(0.58 0.25)"/></g><g id="Zel"><polygon class="cls-10" points="319.97 416.42 322.43 421.75 320.54 422.85 313.96 421.83 309.1 424.66 306.49 424.25 305.8 422.75 310.66 419.93 308.88 416.12 310.77 415.02 319.97 416.42"/><polygon class="cls-10" points="321.39 423.45 323.33 427.64 318.03 430.72 310.79 429.61 308.83 425.41 314.13 422.33 321.39 423.45"/><polygon class="cls-10" points="307.86 415.64 309.8 419.83 304.51 422.91 297.26 421.8 295.31 417.6 300.6 414.52 307.86 415.64"/></g></g><g id="Phone"><path class="cls-14" d="M64,417.88v-.16h0c0,.06,0,.11,0,.17" transform="translate(0.58 0.25)"/><path class="cls-14" d="M64,417.92A2.61,2.61,0,0,0,65.5,420l55,31.75a8.14,8.14,0,0,0,7.34,0l108.05-62.38a4.21,4.21,0,0,0,2-2.05c.32,2.32-.47,6.85-2,7.75l-108,62.38a8.14,8.14,0,0,1-7.34,0l-55-31.75c-1.83-1.05-1.59-6.72-1.53-7.81" transform="translate(0.58 0.25)"/><path class="cls-15" d="M65.5,420l55,31.74a8.14,8.14,0,0,0,7.34,0l108.05-62.38c2-1.16,2.75-2.64,1.47-3.38l-53.49-30.88c-5-2.9-8.33-2.91-10.34-1.74l-108,62.38c-2,1.16-2,3.07,0,4.24" transform="translate(0.58 0.25)"/><path class="cls-16" d="M138,442.92l92.32-53.29c.63-.37.7-.93.16-1.24l-55.15-31.84a2.35,2.35,0,0,0-2.14.09l-92.32,53.3c-.63.36-.7.92-.16,1.24L135.82,443a2.35,2.35,0,0,0,2.14-.09" transform="translate(0.58 0.25)"/><path class="cls-17" d="M100.36,435.91a9.57,9.57,0,0,1-4.73-1.14,3.32,3.32,0,0,1,0-6.21,10.63,10.63,0,0,1,9.4,0,3.32,3.32,0,0,1,0,6.21,9.57,9.57,0,0,1-4.67,1.12m-.08-7.12a8.1,8.1,0,0,0-4,.94,2.42,2.42,0,0,0-1.46,1.92,2.46,2.46,0,0,0,1.48,2,9.28,9.28,0,0,0,8,0,2.41,2.41,0,0,0,1.46-1.92,2.44,2.44,0,0,0-1.48-1.95,8.25,8.25,0,0,0-4-1" transform="translate(0.58 0.25)"/><path class="cls-18" d="M200.78,369.29l9.05,5.23a2.33,2.33,0,0,0,2.13-.09c.62-.36.69-.91.14-1.22l-9-5.23a2.38,2.38,0,0,0-2.12.09c-.62.36-.69.91-.15,1.22" transform="translate(0.58 0.25)"/></g><g id="Zel-2" data-name="Zel"><path class="cls-2" d="M173.63,389c8,4.61,8,12.08.09,16.69s-20.84,4.61-28.82,0-8-12.08-.08-16.69S165.65,384.37,173.63,389ZM157,400.44l4.51-2.62,6.12.94,1.77-1-2.28-5-8.56-1.3-1.77,1,1.65,3.55-4.52,2.63.64,1.4,2.44.37m1.56,4.61,6.75,1,4.93-2.87-1.81-3.91-6.76-1-4.93,2.87,1.82,3.91m-5.85-6.24,4.94-2.86-1.81-3.9L149.09,391l-4.93,2.87,1.82,3.91,6.74,1" transform="translate(0.58 0.25)"/><polygon class="cls-20" points="169.03 399.56 170.84 403.47 165.9 406.34 159.15 405.3 157.33 401.39 162.27 398.52 169.03 399.56"/><polygon class="cls-20" points="167.71 393.02 170 397.98 168.23 399.01 162.11 398.07 157.59 400.69 155.16 400.32 154.51 398.92 159.03 396.29 157.38 392.75 159.15 391.72 167.71 393.02"/><polygon class="cls-20" points="156.44 392.3 158.24 396.19 153.3 399.06 146.56 398.04 144.74 394.12 149.68 391.25 156.44 392.3"/></g><g id="Laptop"><path class="cls-14" d="M729.11,187.67V362.83c0,5.17-4.22,6.94-9.38,4l-96.32-55.61L436.66,203.37c-5.16-3-9.38-9.64-9.38-14.81V13.41c0-5.16,4.22-6.95,9.38-4L571,87l148.7,85.85C724.89,175.85,729.11,182.51,729.11,187.67Z" transform="translate(0.58 0.25)"/><path class="cls-21" d="M729.07,187.71V362.86c0,5.17-4.22,6.95-9.38,4l-96.33-55.62L436.62,203.4c-5.16-3-9.39-9.63-9.39-14.8V13.44c0-5.16,4.23-6.94,9.39-4L571,87.06l148.7,85.85C724.85,175.89,729.07,182.55,729.07,187.71Z" transform="translate(0.58 0.25)"/><path class="cls-22" d="M729,187.74V362.9c0,5.17-4.23,7-9.39,4l-96.32-55.61L436.57,203.44c-5.16-3-9.38-9.63-9.38-14.8V13.48c0-5.16,4.22-6.95,9.38-4L570.94,87.1,719.64,173C724.8,175.92,729,182.58,729,187.74Z" transform="translate(0.58 0.25)"/><path class="cls-23" d="M729,187.78V362.94c0,5.17-4.22,6.94-9.38,4L623.28,311.3,436.53,203.48c-5.16-3-9.38-9.64-9.38-14.81V13.51c0-5.15,4.22-6.94,9.38-4L570.9,87.13,719.6,173C724.76,176,729,182.62,729,187.78Z" transform="translate(0.58 0.25)"/><path class="cls-24" d="M728.94,187.81V363c0,5.17-4.22,6.95-9.38,4l-96.33-55.61L436.49,203.51c-5.16-3-9.39-9.63-9.39-14.8V13.55c0-5.16,4.23-6.94,9.39-4L570.86,87.17,719.56,173C724.72,176,728.94,182.66,728.94,187.81Z" transform="translate(0.58 0.25)"/><path class="cls-25" d="M728.9,187.85V363c0,5.17-4.23,6.94-9.39,4l-96.32-55.61L436.44,203.55c-5.16-3-9.38-9.64-9.38-14.81V13.59c0-5.16,4.22-6.95,9.38-4L570.81,87.21l148.7,85.85C724.67,176,728.9,182.69,728.9,187.85Z" transform="translate(0.58 0.25)"/><path class="cls-26" d="M728.85,187.89V363c0,5.17-4.22,6.95-9.38,4L623.15,311.4,436.4,203.58c-5.16-3-9.38-9.63-9.38-14.8V13.62c0-5.16,4.22-6.94,9.38-4L570.77,87.24l148.7,85.85C724.63,176.07,728.85,182.73,728.85,187.89Z" transform="translate(0.58 0.25)"/><path class="cls-27" d="M728.81,187.92V363.08c0,5.17-4.22,6.94-9.38,4L623.1,311.44,436.36,203.62c-5.16-3-9.39-9.64-9.39-14.81V13.66c0-5.16,4.23-6.95,9.39-4L570.73,87.28l148.7,85.85C724.59,176.1,728.81,182.76,728.81,187.92Z" transform="translate(0.58 0.25)"/><path class="cls-28" d="M728.77,188V363.11c0,5.17-4.23,6.95-9.39,4l-96.32-55.62L436.31,203.65c-5.16-3-9.38-9.63-9.38-14.8V13.69c0-5.16,4.22-6.94,9.38-4L570.68,87.31l148.7,85.85C724.54,176.14,728.77,182.8,728.77,188Z" transform="translate(0.58 0.25)"/><path class="cls-29" d="M728.72,188V363.15c0,5.17-4.22,7-9.38,4L623,311.51,436.27,203.69c-5.16-3-9.38-9.63-9.38-14.8V13.73c0-5.16,4.22-6.95,9.38-4L570.64,87.35l148.7,85.85C724.5,176.17,728.72,182.83,728.72,188Z" transform="translate(0.58 0.25)"/><path class="cls-30" d="M728.68,188V363.19c0,5.17-4.22,6.94-9.38,4L623,311.55,436.23,203.73c-5.16-3-9.39-9.64-9.39-14.81V13.76c0-5.15,4.23-6.94,9.39-4L570.6,87.39l148.7,85.85C724.46,176.21,728.68,182.87,728.68,188Z" transform="translate(0.58 0.25)"/><path class="cls-31" d="M728.64,188.06V363.22c0,5.17-4.23,6.95-9.39,4l-96.32-55.61L436.18,203.76c-5.16-3-9.38-9.63-9.38-14.8V13.8c0-5.16,4.22-6.94,9.38-4L570.55,87.42l148.7,85.85C724.41,176.24,728.64,182.91,728.64,188.06Z" transform="translate(0.58 0.25)"/><path class="cls-32" d="M728.59,188.1V363.26c0,5.17-4.22,6.94-9.38,4l-96.33-55.61L436.14,203.8c-5.16-3-9.38-9.64-9.38-14.81V13.84c0-5.16,4.22-6.95,9.38-4L570.51,87.46l148.7,85.85C724.37,176.28,728.59,182.94,728.59,188.1Z" transform="translate(0.58 0.25)"/><path class="cls-33" d="M728.55,188.14V363.29c0,5.17-4.22,6.95-9.38,4l-96.33-55.62L436.1,203.83c-5.16-3-9.39-9.63-9.39-14.8V13.87c0-5.16,4.23-6.94,9.39-4L570.47,87.49l148.7,85.85C724.33,176.32,728.55,183,728.55,188.14Z" transform="translate(0.58 0.25)"/><path class="cls-34" d="M728.51,188.17V363.33c0,5.17-4.23,6.94-9.39,4L622.8,311.69,436.05,203.87c-5.16-3-9.38-9.64-9.38-14.8V13.91c0-5.16,4.22-6.95,9.38-4L570.42,87.53l148.7,85.85C724.28,176.35,728.51,183,728.51,188.17Z" transform="translate(0.58 0.25)"/><path class="cls-35" d="M728.46,188.21V363.36c0,5.17-4.22,6.95-9.38,4l-96.33-55.62L436,203.9c-5.16-3-9.38-9.63-9.38-14.8V13.94c0-5.16,4.22-6.94,9.38-4L570.38,87.56l148.7,85.85C724.24,176.39,728.46,183.05,728.46,188.21Z" transform="translate(0.58 0.25)"/><path class="cls-36" d="M728.42,188.24V363.4c0,5.17-4.22,7-9.38,4l-96.33-55.61L436,203.94c-5.15-3-9.38-9.63-9.38-14.8V14c0-5.16,4.23-6.95,9.38-4L570.34,87.6,719,173.45C724.2,176.42,728.42,183.08,728.42,188.24Z" transform="translate(0.58 0.25)"/><path class="cls-37" d="M728.38,188.28V363.44c0,5.17-4.23,6.94-9.39,4L622.67,311.8,435.92,204c-5.16-3-9.38-9.64-9.38-14.81V14c0-5.15,4.22-6.94,9.38-4L570.29,87.64,719,173.49C724.15,176.46,728.38,183.12,728.38,188.28Z" transform="translate(0.58 0.25)"/><path class="cls-38" d="M728.33,188.31V363.47c0,5.17-4.22,6.95-9.38,4l-96.33-55.61L435.88,204c-5.16-3-9.38-9.63-9.38-14.8V14.05c0-5.16,4.22-6.94,9.38-4L570.25,87.67,719,173.52C724.11,176.49,728.33,183.16,728.33,188.31Z" transform="translate(0.58 0.25)"/><path class="cls-39" d="M728.29,188.35V363.51c0,5.17-4.23,6.94-9.38,4l-96.33-55.61L435.83,204.05c-5.15-3-9.38-9.64-9.38-14.81V14.09c0-5.16,4.23-6.95,9.38-4L570.2,87.71l148.71,85.85C724.06,176.53,728.29,183.19,728.29,188.35Z" transform="translate(0.58 0.25)"/><path class="cls-40" d="M728.25,188.39V363.54c0,5.17-4.23,6.95-9.39,4L622.54,311.9,435.79,204.08c-5.16-3-9.38-9.63-9.38-14.8V14.12c0-5.16,4.22-6.94,9.38-4L570.16,87.74l148.7,85.85C724,176.57,728.25,183.23,728.25,188.39Z" transform="translate(0.58 0.25)"/><path class="cls-41" d="M728.2,188.42V363.58c0,5.17-4.22,6.94-9.38,4l-96.33-55.61L435.75,204.12c-5.16-3-9.39-9.64-9.39-14.8V14.16c0-5.16,4.23-6.95,9.39-4L570.12,87.78l148.7,85.85C724,176.6,728.2,183.26,728.2,188.42Z" transform="translate(0.58 0.25)"/><path class="cls-42" d="M728.16,188.46V363.62c0,5.16-4.23,6.94-9.38,4L622.45,312,435.7,204.16c-5.15-3-9.38-9.64-9.38-14.81V14.19c0-5.15,4.23-6.94,9.38-4L570.07,87.81l148.71,85.85C723.93,176.64,728.16,183.3,728.16,188.46Z" transform="translate(0.58 0.25)"/><path class="cls-43" d="M728.11,188.49V363.65c0,5.17-4.22,7-9.38,4L622.41,312,435.66,204.19c-5.16-3-9.38-9.63-9.38-14.8V14.23c0-5.16,4.22-6.95,9.38-4L570,87.85l148.7,85.85C723.89,176.67,728.11,183.34,728.11,188.49Z" transform="translate(0.58 0.25)"/><path class="cls-44" d="M728.07,188.53V363.69c0,5.17-4.22,6.94-9.38,4l-96.33-55.61L435.62,204.23c-5.16-3-9.39-9.64-9.39-14.81V14.27c0-5.16,4.23-6.95,9.39-4L570,87.89l148.7,85.85C723.85,176.71,728.07,183.37,728.07,188.53Z" transform="translate(0.58 0.25)"/><path class="cls-45" d="M728,188.57V363.72c0,5.17-4.23,6.95-9.38,4l-96.33-55.61L435.57,204.26c-5.15-3-9.38-9.63-9.38-14.8V14.3c0-5.16,4.23-6.94,9.38-4L569.94,87.92l148.71,85.85C723.8,176.75,728,183.41,728,188.57Z" transform="translate(0.58 0.25)"/><path class="cls-46" d="M728,188.6V363.76c0,5.17-4.22,6.94-9.38,4l-96.32-55.61L435.53,204.3c-5.16-3-9.38-9.64-9.38-14.81V14.34c0-5.16,4.22-6.95,9.38-4L569.9,88l148.7,85.85C723.76,176.78,728,183.44,728,188.6Z" transform="translate(0.58 0.25)"/><path class="cls-47" d="M727.94,188.64V363.79c0,5.17-4.22,6.95-9.38,4l-96.33-55.62L435.49,204.33c-5.16-3-9.39-9.63-9.39-14.8V14.37c0-5.16,4.23-6.94,9.39-4L569.86,88l148.7,85.85C723.72,176.82,727.94,183.48,727.94,188.64Z" transform="translate(0.58 0.25)"/><path class="cls-48" d="M727.9,188.67V363.83c0,5.17-4.23,6.95-9.38,4l-96.33-55.61L435.44,204.37c-5.16-3-9.38-9.63-9.38-14.8V14.41c0-5.16,4.22-6.95,9.38-4L569.81,88l148.71,85.85C723.67,176.85,727.9,183.51,727.9,188.67Z" transform="translate(0.58 0.25)"/><path class="cls-49" d="M727.85,188.71V363.87c0,5.16-4.22,6.94-9.38,4l-96.32-55.61L435.4,204.41c-5.16-3-9.38-9.64-9.38-14.81V14.44c0-5.15,4.22-6.94,9.38-4L569.77,88.06l148.7,85.85C723.63,176.89,727.85,183.55,727.85,188.71Z" transform="translate(0.58 0.25)"/><path class="cls-50" d="M727.81,188.74V363.9c0,5.17-4.22,7-9.38,4L622.1,312.26,435.36,204.44c-5.16-3-9.39-9.63-9.39-14.8V14.48c0-5.16,4.23-6.94,9.39-4L569.73,88.1,718.43,174C723.59,176.92,727.81,183.59,727.81,188.74Z" transform="translate(0.58 0.25)"/><path class="cls-51" d="M727.77,188.78V363.94c0,5.17-4.23,6.94-9.38,4L622.06,312.3,435.31,204.48c-5.16-3-9.38-9.64-9.38-14.81V14.52c0-5.16,4.22-6.95,9.38-4L569.68,88.14,718.39,174C723.54,177,727.77,183.62,727.77,188.78Z" transform="translate(0.58 0.25)"/><path class="cls-52" d="M727.72,188.82V364c0,5.17-4.22,6.95-9.38,4L622,312.33,435.27,204.51c-5.16-3-9.38-9.63-9.38-14.8V14.55c0-5.16,4.22-6.94,9.38-4L569.64,88.17,718.34,174C723.5,177,727.72,183.66,727.72,188.82Z" transform="translate(0.58 0.25)"/><path class="cls-53" d="M727.68,188.85V364c0,5.17-4.22,6.94-9.38,4L622,312.37,435.23,204.55c-5.16-3-9.39-9.64-9.39-14.81V14.59c0-5.16,4.23-6.95,9.39-4L569.6,88.21l148.7,85.85C723.46,177,727.68,183.69,727.68,188.85Z" transform="translate(0.58 0.25)"/><path class="cls-54" d="M727.64,188.89V364c0,5.17-4.23,6.95-9.39,4L621.93,312.4,435.18,204.58c-5.16-3-9.38-9.63-9.38-14.8V14.62c0-5.16,4.22-6.94,9.38-4L569.55,88.24l148.7,85.85C723.41,177.07,727.64,183.73,727.64,188.89Z" transform="translate(0.58 0.25)"/><path class="cls-55" d="M727.59,188.92V364.08c0,5.17-4.22,6.95-9.38,4l-96.32-55.61L435.14,204.62c-5.16-3-9.38-9.63-9.38-14.8V14.66c0-5.16,4.22-6.95,9.38-4L569.51,88.28l148.7,85.85C723.37,177.1,727.59,183.76,727.59,188.92Z" transform="translate(0.58 0.25)"/><path class="cls-56" d="M727.55,189V364.12c0,5.17-4.22,6.94-9.38,4l-96.33-55.61L435.1,204.66c-5.16-3-9.39-9.64-9.39-14.81V14.69c0-5.15,4.23-6.94,9.39-4L569.47,88.32l148.7,85.85C723.33,177.14,727.55,183.8,727.55,189Z" transform="translate(0.58 0.25)"/><path class="cls-57" d="M727.51,189V364.15c0,5.17-4.23,7-9.39,4L621.8,312.51,435.05,204.69c-5.16-3-9.38-9.63-9.38-14.8V14.73c0-5.16,4.22-6.94,9.38-4L569.42,88.35l148.7,85.85C723.28,177.17,727.51,183.84,727.51,189Z" transform="translate(0.58 0.25)"/><path class="cls-58" d="M727.46,189V364.19c0,5.17-4.22,6.94-9.38,4l-96.32-55.61L435,204.73c-5.16-3-9.38-9.64-9.38-14.81V14.77c0-5.16,4.22-6.95,9.38-4L569.38,88.39l148.7,85.85C723.24,177.21,727.46,183.87,727.46,189Z" transform="translate(0.58 0.25)"/><path class="cls-59" d="M727.42,189.07V364.22c0,5.17-4.22,6.95-9.38,4l-96.33-55.62L435,204.76c-5.16-3-9.39-9.63-9.39-14.8V14.8c0-5.16,4.23-6.94,9.39-4L569.34,88.42,718,174.27C723.2,177.25,727.42,183.91,727.42,189.07Z" transform="translate(0.58 0.25)"/><path class="cls-60" d="M727.38,189.1V364.26c0,5.17-4.23,6.94-9.39,4l-96.32-55.61L434.92,204.8c-5.16-3-9.38-9.64-9.38-14.8V14.84c0-5.16,4.22-6.95,9.38-4L569.29,88.46,718,174.31C723.15,177.28,727.38,183.94,727.38,189.1Z" transform="translate(0.58 0.25)"/><path class="cls-61" d="M727.33,189.14V364.29c0,5.17-4.22,6.95-9.38,4l-96.32-55.62L434.88,204.83c-5.16-3-9.38-9.63-9.38-14.8V14.87c0-5.16,4.22-6.94,9.38-4L569.25,88.49,718,174.34C723.11,177.32,727.33,184,727.33,189.14Z" transform="translate(0.58 0.25)"/><path class="cls-62" d="M727.29,189.17V364.33c0,5.17-4.22,6.95-9.38,4l-96.33-55.61L434.84,204.87c-5.16-3-9.39-9.63-9.39-14.8V14.91c0-5.16,4.23-6.95,9.39-4L569.21,88.53l148.7,85.85C723.07,177.35,727.29,184,727.29,189.17Z" transform="translate(0.58 0.25)"/><path class="cls-63" d="M727.25,189.21V364.37c0,5.17-4.23,6.94-9.39,4l-96.32-55.61L434.79,204.91c-5.16-3-9.38-9.64-9.38-14.81V14.94c0-5.15,4.22-6.94,9.38-4L569.16,88.57l148.7,85.85C723,177.39,727.25,184.05,727.25,189.21Z" transform="translate(0.58 0.25)"/><path class="cls-64" d="M727.2,189.24V364.4c0,5.17-4.22,7-9.38,4l-96.33-55.61L434.75,204.94c-5.16-3-9.38-9.63-9.38-14.8V15c0-5.16,4.22-6.94,9.38-4L569.12,88.6l148.7,85.85C723,177.42,727.2,184.09,727.2,189.24Z" transform="translate(0.58 0.25)"/><path class="cls-65" d="M727.16,189.28V364.44c0,5.17-4.22,6.94-9.38,4L621.45,312.8,434.71,205c-5.16-3-9.39-9.64-9.39-14.81V15c0-5.16,4.23-6.95,9.39-4L569.08,88.64l148.7,85.85C722.94,177.46,727.16,184.12,727.16,189.28Z" transform="translate(0.58 0.25)"/><path class="cls-66" d="M727.12,189.32V364.47c0,5.17-4.23,6.95-9.39,4l-96.32-55.62L434.66,205c-5.16-3-9.38-9.63-9.38-14.8V15.05c0-5.16,4.22-6.94,9.38-4L569,88.67l148.7,85.85C722.89,177.5,727.12,184.16,727.12,189.32Z" transform="translate(0.58 0.25)"/><path class="cls-67" d="M727.07,189.35V364.51c0,5.17-4.22,6.94-9.38,4l-96.33-55.61L434.62,205.05c-5.16-3-9.38-9.64-9.38-14.8V15.09c0-5.16,4.22-6.95,9.38-4L569,88.71l148.7,85.85C722.85,177.53,727.07,184.19,727.07,189.35Z" transform="translate(0.58 0.25)"/><path class="cls-68" d="M727,189.39V364.55c0,5.16-4.22,6.94-9.38,4L621.32,312.9,434.58,205.09c-5.16-3-9.39-9.64-9.39-14.81V15.12c0-5.16,4.23-6.94,9.39-4L569,88.74l148.7,85.85C722.81,177.57,727,184.23,727,189.39Z" transform="translate(0.58 0.25)"/><path class="cls-69" d="M727,189.42V364.58c0,5.17-4.23,6.95-9.39,4l-96.32-55.61L434.53,205.12c-5.16-3-9.38-9.63-9.38-14.8V15.16c0-5.16,4.22-6.95,9.38-4L568.9,88.78l148.7,85.85C722.76,177.6,727,184.27,727,189.42Z" transform="translate(0.58 0.25)"/><path class="cls-70" d="M726.94,189.46V364.62c0,5.17-4.22,6.94-9.38,4L621.23,313,434.49,205.16c-5.16-3-9.38-9.64-9.38-14.81V15.2c0-5.16,4.22-6.95,9.38-4L568.86,88.82l148.7,85.85C722.72,177.64,726.94,184.3,726.94,189.46Z" transform="translate(0.58 0.25)"/><path class="cls-71" d="M726.9,189.5V364.65c0,5.17-4.22,7-9.38,4L621.19,313,434.44,205.19c-5.15-3-9.38-9.63-9.38-14.8V15.23c0-5.16,4.23-6.94,9.38-4L568.82,88.85l148.7,85.85C722.68,177.68,726.9,184.34,726.9,189.5Z" transform="translate(0.58 0.25)"/><path class="cls-72" d="M726.86,189.53V364.69c0,5.17-4.23,6.94-9.39,4l-96.32-55.61L434.4,205.23c-5.16-3-9.38-9.64-9.38-14.81V15.27c0-5.16,4.22-6.95,9.38-4L568.77,88.89l148.7,85.85C722.63,177.71,726.86,184.37,726.86,189.53Z" transform="translate(0.58 0.25)"/><path class="cls-73" d="M726.81,189.57V364.72c0,5.17-4.22,6.95-9.38,4L621.1,313.08,434.36,205.26c-5.16-3-9.38-9.63-9.38-14.8V15.3c0-5.16,4.22-6.94,9.38-4L568.73,88.92l148.7,85.85C722.59,177.75,726.81,184.41,726.81,189.57Z" transform="translate(0.58 0.25)"/><path class="cls-74" d="M726.77,189.6V364.76c0,5.17-4.22,6.95-9.38,4l-96.33-55.61L434.31,205.3c-5.15-3-9.38-9.63-9.38-14.8V15.34c0-5.16,4.23-6.95,9.38-4L568.68,89l148.71,85.85C722.55,177.78,726.77,184.44,726.77,189.6Z" transform="translate(0.58 0.25)"/><path class="cls-75" d="M726.73,189.64V364.8c0,5.16-4.23,6.94-9.39,4L621,313.16,434.27,205.34c-5.16-3-9.38-9.64-9.38-14.81V15.37c0-5.15,4.22-6.94,9.38-4L568.64,89l148.7,85.85C722.5,177.82,726.73,184.48,726.73,189.64Z" transform="translate(0.58 0.25)"/><path class="cls-76" d="M726.68,189.67V364.83c0,5.17-4.22,6.95-9.38,4L621,313.19,434.23,205.37c-5.16-3-9.39-9.63-9.39-14.8V15.41c0-5.16,4.23-6.95,9.39-4L568.6,89l148.7,85.85C722.46,177.85,726.68,184.52,726.68,189.67Z" transform="translate(0.58 0.25)"/><path class="cls-77" d="M726.64,189.71V364.87c0,5.17-4.23,6.94-9.38,4l-96.33-55.61L434.18,205.41c-5.15-3-9.38-9.64-9.38-14.81V15.45c0-5.16,4.23-6.95,9.38-4L568.55,89.07l148.71,85.85C722.41,177.89,726.64,184.55,726.64,189.71Z" transform="translate(0.58 0.25)"/><path class="cls-78" d="M726.59,189.75V364.9c0,5.17-4.22,7-9.38,4l-96.32-55.61L434.14,205.44c-5.16-3-9.38-9.63-9.38-14.8V15.48c0-5.16,4.22-6.94,9.38-4L568.51,89.1,717.21,175C722.37,177.93,726.59,184.59,726.59,189.75Z" transform="translate(0.58 0.25)"/><path class="cls-79" d="M726.55,189.78V364.94c0,5.17-4.22,6.94-9.38,4L620.84,313.3,434.1,205.48c-5.16-3-9.39-9.64-9.39-14.81V15.52c0-5.16,4.23-6.95,9.39-4L568.47,89.14,717.17,175C722.33,178,726.55,184.62,726.55,189.78Z" transform="translate(0.58 0.25)"/><path class="cls-80" d="M726.51,189.82V365c0,5.17-4.23,6.95-9.38,4L620.8,313.33,434.05,205.51c-5.15-3-9.38-9.63-9.38-14.8V15.55c0-5.16,4.23-6.94,9.38-4L568.42,89.17,717.13,175C722.28,178,726.51,184.66,726.51,189.82Z" transform="translate(0.58 0.25)"/><path class="cls-81" d="M726.46,189.85V365c0,5.17-4.22,6.95-9.38,4l-96.32-55.61L434,205.55c-5.16-3-9.38-9.63-9.38-14.8V15.59c0-5.16,4.22-6.95,9.38-4L568.38,89.21l148.7,85.85C722.24,178,726.46,184.69,726.46,189.85Z" transform="translate(0.58 0.25)"/><path class="cls-82" d="M726.42,189.89V365.05c0,5.17-4.22,6.94-9.38,4l-96.33-55.61L434,205.59c-5.16-3-9.39-9.64-9.39-14.81V15.62c0-5.15,4.23-6.94,9.39-4L568.34,89.25,717,175.1C722.2,178.07,726.42,184.73,726.42,189.89Z" transform="translate(0.58 0.25)"/><path class="cls-83" d="M726.38,189.92V365.08c0,5.17-4.23,6.95-9.38,4l-96.33-55.61L433.92,205.62c-5.16-3-9.38-9.63-9.38-14.8V15.66c0-5.16,4.22-6.94,9.38-4L568.29,89.28,717,175.13C722.15,178.1,726.38,184.77,726.38,189.92Z" transform="translate(0.58 0.25)"/><path class="cls-84" d="M726.33,190V365.12c0,5.17-4.22,6.94-9.38,4l-96.32-55.61L433.88,205.66c-5.16-3-9.38-9.64-9.38-14.81V15.7c0-5.16,4.22-6.95,9.38-4L568.25,89.32,717,175.17C722.11,178.14,726.33,184.8,726.33,190Z" transform="translate(0.58 0.25)"/><path class="cls-85" d="M726.29,190V365.15c0,5.17-4.22,7-9.38,4l-96.33-55.61L433.84,205.69c-5.16-3-9.39-9.63-9.39-14.8V15.73c0-5.16,4.23-6.94,9.39-4L568.21,89.35l148.7,85.85C722.07,178.18,726.29,184.84,726.29,190Z" transform="translate(0.58 0.25)"/><path class="cls-86" d="M726.25,190V365.19c0,5.17-4.23,6.94-9.38,4l-96.33-55.61L433.79,205.73c-5.16-3-9.38-9.64-9.38-14.81V15.77c0-5.16,4.22-6.95,9.38-4L568.16,89.39l148.71,85.85C722,178.21,726.25,184.87,726.25,190Z" transform="translate(0.58 0.25)"/><path class="cls-87" d="M726.2,190.07V365.22c0,5.17-4.22,6.95-9.38,4L620.5,313.58,433.75,205.76c-5.16-3-9.38-9.63-9.38-14.8V15.8c0-5.16,4.22-6.94,9.38-4L568.12,89.42l148.7,85.85C722,178.25,726.2,184.91,726.2,190.07Z" transform="translate(0.58 0.25)"/><polygon class="cls-88" points="718.29 191.3 718.29 360.19 431.94 193.62 431.81 25.73 718.29 191.3"/><path class="cls-16" d="M716.5,190.47a4.46,4.46,0,0,1,2,3.5l-.46,163.88c0,1.28-.92,1.8-2,1.16L431.8,194.91a4.46,4.46,0,0,1-2-3.5l.47-163.88c0-1.28.91-1.8,2-1.16Z" transform="translate(0.58 0.25)"/><path class="cls-89" d="M578,103.09a5.55,5.55,0,0,0-2.67-4.22c-1.48-.85-2.68-.35-2.68,1.13a5.52,5.52,0,0,0,2.68,4.21C576.76,105.07,578,104.56,578,103.09Z" transform="translate(0.58 0.25)"/><path class="cls-90" d="M577.64,102.41a3.09,3.09,0,0,0-1.49-2.36c-.83-.48-1.5-.2-1.5.63a3.1,3.1,0,0,0,1.5,2.36C577,103.52,577.64,103.23,577.64,102.41Z" transform="translate(0.58 0.25)"/><path class="cls-15" d="M718.77,373.38v.54c-.09,2.21-1.59,4.39-4.5,6.08L539.65,480.81c-6,3.48-15.82,3.48-21.83,0L235.62,317.89c-2.91-1.68-4.41-3.87-4.49-6.08v-.49c.11-2.18,1.61-4.37,4.49-6L410.25,204.48c6-3.48,15.81-3.48,21.82,0L714.27,367.4C717.14,369.05,718.64,371.21,718.77,373.38Z" transform="translate(0.58 0.25)"/><path class="cls-91" d="M680.88,371.49a4.85,4.85,0,0,1-2.57,3l-99.7,57.56a14.11,14.11,0,0,1-12.78,0L316.35,288a4.92,4.92,0,0,1-2.57-3c-.34-1.55.51-3.17,2.57-4.35l99.7-57.57a14.11,14.11,0,0,1,12.78,0l249.48,144C680.37,368.32,681.23,369.94,680.88,371.49Z" transform="translate(0.58 0.25)"/><path class="cls-92" d="M481.08,387.65a2.38,2.38,0,0,1-1.15,1.28L429.54,418a6.4,6.4,0,0,1-5.81,0l-81.9-47.28a2.21,2.21,0,0,1-1.13-1.29c-.22-.72.17-1.5,1.13-2.06l50.39-29.09a6.4,6.4,0,0,1,5.81,0l81.9,47.28C480.91,386.15,481.29,386.91,481.08,387.65Z" transform="translate(0.58 0.25)"/><path class="cls-91" d="M481.08,387.65a2.38,2.38,0,0,1-1.15,1.28L429.54,418a6.4,6.4,0,0,1-5.81,0l-81.9-47.28a2.21,2.21,0,0,1-1.13-1.29,2.25,2.25,0,0,1,1.13-1.28l50.39-29.09a6.4,6.4,0,0,1,5.81,0l81.9,47.28A2.29,2.29,0,0,1,481.08,387.65Z" transform="translate(0.58 0.25)"/><g class="cls-93"><path class="cls-94" d="M645.33,388.79a3.12,3.12,0,0,0,2.85,0l12.16-7a.87.87,0,0,0,0-1.65l-14.93-8.61a3.12,3.12,0,0,0-2.85,0l-12.16,7a.87.87,0,0,0,0,1.64Z" transform="translate(0.58 0.25)"/><path class="cls-94" d="M423.9,261a3.14,3.14,0,0,0,2.86,0l12.16-7a.87.87,0,0,0,0-1.64L407.08,233.9a3.2,3.2,0,0,0-2.86,0l-12.16,7a.87.87,0,0,0,0,1.65Z" transform="translate(0.58 0.25)"/><path class="cls-94" d="M398.91,265.73a3.18,3.18,0,0,0,2.85,0l12.16-7a.87.87,0,0,0,0-1.65L390.44,243.5a3.18,3.18,0,0,0-2.85,0l-12.16,7a.87.87,0,0,0,0,1.65Z" transform="translate(0.58 0.25)"/><path class="cls-94" d="M394.35,283a3.14,3.14,0,0,0,2.86,0l12.16-7a.87.87,0,0,0,0-1.65l-36.15-20.87a3.2,3.2,0,0,0-2.86,0l-12.16,7a.87.87,0,0,0,0,1.65Z" transform="translate(0.58 0.25)"/><path class="cls-94" d="M385.6,297.83a3.18,3.18,0,0,0,2.85,0l12.16-7a.87.87,0,0,0,0-1.65L356,263.4a3.14,3.14,0,0,0-2.86,0l-12.16,7a.87.87,0,0,0,0,1.65Z" transform="translate(0.58 0.25)"/><path class="cls-94" d="M628.69,398.39a3.14,3.14,0,0,0,2.86,0l12.16-7a.87.87,0,0,0,0-1.64L620.28,376.2a3.14,3.14,0,0,0-2.86,0l-12.16,7a.87.87,0,0,0,0,1.65Z" transform="translate(0.58 0.25)"/><path class="cls-94" d="M612.06,408a3.2,3.2,0,0,0,2.86,0l12.16-7a.87.87,0,0,0,0-1.65l-27.69-16a3.12,3.12,0,0,0-2.85,0l-12.16,7a.87.87,0,0,0,0,1.65Z" transform="translate(0.58 0.25)"/><path class="cls-94" d="M595.43,417.6a3.2,3.2,0,0,0,2.86,0l12.15-7a.87.87,0,0,0,0-1.65l-36-20.78a3.2,3.2,0,0,0-2.86,0l-12.16,7a.87.87,0,0,0,0,1.65Z" transform="translate(0.58 0.25)"/><path class="cls-94" d="M578.8,427.2a3.12,3.12,0,0,0,2.85,0l12.16-7a.87.87,0,0,0,0-1.65l-19-11a3.18,3.18,0,0,0-2.85,0l-12.16,7a.87.87,0,0,0,0,1.65Z" transform="translate(0.58 0.25)"/><path class="cls-94" d="M505.16,384.69a3.2,3.2,0,0,0,2.86,0l12.15-7a.87.87,0,0,0,0-1.65l-79.52-45.91a3.14,3.14,0,0,0-2.86,0l-12.15,7a.87.87,0,0,0,0,1.65Z" transform="translate(0.58 0.25)"/><path class="cls-94" d="M662,379.19a3.18,3.18,0,0,0,2.85,0l9.14-5.28a.87.87,0,0,0,0-1.65l-11.31-6.52a3.12,3.12,0,0,0-2.85,0L650.65,371a.87.87,0,0,0,0,1.65Z" transform="translate(0.58 0.25)"/><path class="cls-94" d="M646.19,370.08a3.12,3.12,0,0,0,2.85,0l9.14-5.27a.87.87,0,0,0,0-1.65l-11.31-6.53a3.18,3.18,0,0,0-2.85,0l-9.14,5.28a.87.87,0,0,0,0,1.65Z" transform="translate(0.58 0.25)"/><path class="cls-94" d="M631.19,361.43a3.2,3.2,0,0,0,2.86,0l9.14-5.28a.87.87,0,0,0,0-1.65L631.88,348a3.2,3.2,0,0,0-2.86,0l-9.14,5.28a.87.87,0,0,0,0,1.65Z" transform="translate(0.58 0.25)"/><path class="cls-94" d="M616.2,352.77a3.18,3.18,0,0,0,2.85,0l9.14-5.28a.87.87,0,0,0,0-1.65l-11.31-6.52a3.12,3.12,0,0,0-2.85,0l-9.14,5.27a.87.87,0,0,0,0,1.65Z" transform="translate(0.58 0.25)"/><path class="cls-94" d="M601.2,344.11a3.14,3.14,0,0,0,2.86,0l9.14-5.27a.87.87,0,0,0,0-1.65l-11.31-6.53a3.14,3.14,0,0,0-2.86,0l-9.14,5.27a.87.87,0,0,0,0,1.65Z" transform="translate(0.58 0.25)"/><path class="cls-94" d="M586.21,335.45a3.12,3.12,0,0,0,2.85,0l9.14-5.27a.87.87,0,0,0,0-1.65L586.89,322a3.2,3.2,0,0,0-2.86,0l-9.13,5.28a.87.87,0,0,0,0,1.65Z" transform="translate(0.58 0.25)"/><path class="cls-94" d="M571.21,326.8a3.2,3.2,0,0,0,2.86,0l9.13-5.28a.87.87,0,0,0,0-1.65l-11.3-6.53a3.2,3.2,0,0,0-2.86,0l-9.14,5.28a.87.87,0,0,0,0,1.65Z" transform="translate(0.58 0.25)"/><path class="cls-94" d="M556.21,318.14a3.2,3.2,0,0,0,2.86,0l9.14-5.28a.87.87,0,0,0,0-1.65l-11.31-6.52a3.14,3.14,0,0,0-2.86,0L544.91,310a.87.87,0,0,0,0,1.65Z" transform="translate(0.58 0.25)"/><path class="cls-94" d="M541.22,309.48a3.18,3.18,0,0,0,2.85,0l9.14-5.27a.87.87,0,0,0,0-1.65L541.9,296a3.12,3.12,0,0,0-2.85,0l-9.14,5.27a.87.87,0,0,0,0,1.65Z" transform="translate(0.58 0.25)"/><path class="cls-94" d="M526.22,300.82a3.14,3.14,0,0,0,2.86,0l9.14-5.27a.87.87,0,0,0,0-1.65l-11.31-6.53a3.2,3.2,0,0,0-2.86,0l-9.14,5.27a.87.87,0,0,0,0,1.65Z" transform="translate(0.58 0.25)"/><path class="cls-94" d="M511.23,292.17a3.18,3.18,0,0,0,2.85,0l9.14-5.28a.87.87,0,0,0,0-1.65l-11.31-6.53a3.18,3.18,0,0,0-2.85,0L499.92,284a.87.87,0,0,0,0,1.65Z" transform="translate(0.58 0.25)"/><path class="cls-94" d="M496.23,283.51a3.2,3.2,0,0,0,2.86,0l9.13-5.28a.87.87,0,0,0,0-1.65l-11.3-6.53a3.2,3.2,0,0,0-2.86,0l-9.14,5.28a.87.87,0,0,0,0,1.65Z" transform="translate(0.58 0.25)"/><path class="cls-94" d="M481.23,274.85a3.2,3.2,0,0,0,2.86,0l9.14-5.28a.87.87,0,0,0,0-1.65l-11.31-6.52a3.14,3.14,0,0,0-2.86,0l-9.13,5.27a.87.87,0,0,0,0,1.65Z" transform="translate(0.58 0.25)"/><path class="cls-94" d="M465,265.47a3.2,3.2,0,0,0,2.86,0l9.13-5.28a.86.86,0,0,0,0-1.64L465.68,252a3.14,3.14,0,0,0-2.86,0l-9.14,5.27a.87.87,0,0,0,0,1.65Z" transform="translate(0.58 0.25)"/><path class="cls-94" d="M450,256.81a3.14,3.14,0,0,0,2.86,0l9.14-5.27a.87.87,0,0,0,0-1.65l-11.31-6.53a3.2,3.2,0,0,0-2.86,0l-9.13,5.27a.87.87,0,0,0,0,1.65Z" transform="translate(0.58 0.25)"/><path class="cls-94" d="M435,248.16a3.18,3.18,0,0,0,2.85,0l9.14-5.28a.87.87,0,0,0,0-1.65l-11.31-6.53a3.18,3.18,0,0,0-2.85,0L423.69,240a.87.87,0,0,0,0,1.65Z" transform="translate(0.58 0.25)"/><path class="cls-94" d="M420,239.5a3.2,3.2,0,0,0,2.86,0l9.14-5.28a.87.87,0,0,0,0-1.65L420.69,226a3.2,3.2,0,0,0-2.86,0l-9.14,5.28a.87.87,0,0,0,0,1.65Z" transform="translate(0.58 0.25)"/><path class="cls-94" d="M625.87,377.56a3.18,3.18,0,0,0,2.85,0l12.16-7a.87.87,0,0,0,0-1.65l-12.16-7a3.18,3.18,0,0,0-2.85,0l-12.16,7a.87.87,0,0,0,0,1.65Z" transform="translate(0.58 0.25)"/><path class="cls-94" d="M592.13,358.08a3.18,3.18,0,0,0,2.85,0l12.16-7a.87.87,0,0,0,0-1.65l-12.16-7a3.18,3.18,0,0,0-2.85,0l-12.16,7a.87.87,0,0,0,0,1.65Z" transform="translate(0.58 0.25)"/><path class="cls-94" d="M609,367.82a3.18,3.18,0,0,0,2.85,0l12.16-7a.87.87,0,0,0,0-1.65l-12.16-7a3.18,3.18,0,0,0-2.85,0l-12.16,7a.87.87,0,0,0,0,1.65Z" transform="translate(0.58 0.25)"/><path class="cls-94" d="M575.26,348.34a3.18,3.18,0,0,0,2.85,0l12.16-7a.87.87,0,0,0,0-1.65l-12.16-7a3.18,3.18,0,0,0-2.85,0l-12.16,7a.87.87,0,0,0,0,1.65Z" transform="translate(0.58 0.25)"/><path class="cls-94" d="M558.39,338.6a3.18,3.18,0,0,0,2.85,0l12.16-7a.87.87,0,0,0,0-1.65l-12.16-7a3.18,3.18,0,0,0-2.85,0l-12.16,7a.87.87,0,0,0,0,1.65Z" transform="translate(0.58 0.25)"/><path class="cls-94" d="M541.52,328.86a3.18,3.18,0,0,0,2.85,0l12.16-7a.87.87,0,0,0,0-1.65l-12.16-7a3.18,3.18,0,0,0-2.85,0l-12.16,7a.87.87,0,0,0,0,1.65Z" transform="translate(0.58 0.25)"/><path class="cls-94" d="M524.65,319.12a3.18,3.18,0,0,0,2.85,0l12.16-7a.87.87,0,0,0,0-1.65l-12.16-7a3.18,3.18,0,0,0-2.85,0l-12.16,7a.87.87,0,0,0,0,1.65Z" transform="translate(0.58 0.25)"/><path class="cls-94" d="M507.77,309.38a3.2,3.2,0,0,0,2.86,0l12.16-7a.87.87,0,0,0,0-1.65l-12.16-7a3.2,3.2,0,0,0-2.86,0l-12.15,7a.87.87,0,0,0,0,1.65Z" transform="translate(0.58 0.25)"/><path class="cls-94" d="M490.9,299.64a3.2,3.2,0,0,0,2.86,0l12.16-7a.87.87,0,0,0,0-1.65l-12.16-7a3.2,3.2,0,0,0-2.86,0l-12.15,7a.87.87,0,0,0,0,1.65Z" transform="translate(0.58 0.25)"/><path class="cls-94" d="M474,289.9a3.2,3.2,0,0,0,2.86,0l12.16-7a.87.87,0,0,0,0-1.65l-12.16-7a3.2,3.2,0,0,0-2.86,0l-12.15,7a.87.87,0,0,0,0,1.65Z" transform="translate(0.58 0.25)"/><path class="cls-94" d="M457.16,280.16a3.2,3.2,0,0,0,2.86,0l12.16-7a.87.87,0,0,0,0-1.65l-12.16-7a3.2,3.2,0,0,0-2.86,0l-12.15,7a.87.87,0,0,0,0,1.65Z" transform="translate(0.58 0.25)"/><path class="cls-94" d="M440.29,270.42a3.2,3.2,0,0,0,2.86,0l12.16-7a.87.87,0,0,0,0-1.65l-12.16-7a3.2,3.2,0,0,0-2.86,0l-12.15,7a.87.87,0,0,0,0,1.65Z" transform="translate(0.58 0.25)"/><path class="cls-94" d="M600.9,382.35a3.2,3.2,0,0,0,2.86,0l12.16-7a.87.87,0,0,0,0-1.65l-12.16-7a3.2,3.2,0,0,0-2.86,0l-12.15,7a.87.87,0,0,0,0,1.65Z" transform="translate(0.58 0.25)"/><path class="cls-94" d="M584,372.61a3.2,3.2,0,0,0,2.86,0l12.16-7a.87.87,0,0,0,0-1.65l-12.16-7a3.2,3.2,0,0,0-2.86,0l-12.15,7a.87.87,0,0,0,0,1.65Z" transform="translate(0.58 0.25)"/><path class="cls-94" d="M567.16,362.87a3.2,3.2,0,0,0,2.86,0l12.16-7a.87.87,0,0,0,0-1.65l-12.16-7a3.2,3.2,0,0,0-2.86,0l-12.16,7a.87.87,0,0,0,0,1.65Z" transform="translate(0.58 0.25)"/><path class="cls-94" d="M550.29,353.13a3.2,3.2,0,0,0,2.86,0l12.16-7a.87.87,0,0,0,0-1.65l-12.16-7a3.2,3.2,0,0,0-2.86,0l-12.16,7a.87.87,0,0,0,0,1.65Z" transform="translate(0.58 0.25)"/><path class="cls-94" d="M533.42,343.39a3.2,3.2,0,0,0,2.86,0l12.16-7a.87.87,0,0,0,0-1.65l-12.16-7a3.2,3.2,0,0,0-2.86,0l-12.16,7a.87.87,0,0,0,0,1.65Z" transform="translate(0.58 0.25)"/><path class="cls-94" d="M516.55,333.65a3.2,3.2,0,0,0,2.86,0l12.16-7a.87.87,0,0,0,0-1.65l-12.16-7a3.2,3.2,0,0,0-2.86,0l-12.16,7a.87.87,0,0,0,0,1.65Z" transform="translate(0.58 0.25)"/><path class="cls-94" d="M499.68,323.91a3.2,3.2,0,0,0,2.86,0l12.16-7a.87.87,0,0,0,0-1.65l-12.16-7a3.2,3.2,0,0,0-2.86,0l-12.16,7a.87.87,0,0,0,0,1.65Z" transform="translate(0.58 0.25)"/><path class="cls-94" d="M482.81,314.17a3.2,3.2,0,0,0,2.86,0l12.16-7a.87.87,0,0,0,0-1.65l-12.16-7a3.2,3.2,0,0,0-2.86,0l-12.16,7a.87.87,0,0,0,0,1.65Z" transform="translate(0.58 0.25)"/><path class="cls-94" d="M465.94,304.43a3.2,3.2,0,0,0,2.86,0l12.16-7a.87.87,0,0,0,0-1.65l-12.16-7a3.2,3.2,0,0,0-2.86,0l-12.16,7a.87.87,0,0,0,0,1.65Z" transform="translate(0.58 0.25)"/><path class="cls-94" d="M449.07,294.69a3.2,3.2,0,0,0,2.86,0l12.15-7a.87.87,0,0,0,0-1.65l-12.15-7a3.2,3.2,0,0,0-2.86,0l-12.16,7a.87.87,0,0,0,0,1.65Z" transform="translate(0.58 0.25)"/><path class="cls-94" d="M432.2,285a3.2,3.2,0,0,0,2.86,0l12.15-7a.87.87,0,0,0,0-1.65l-12.15-7a3.2,3.2,0,0,0-2.86,0l-12.16,7a.87.87,0,0,0,0,1.65Z" transform="translate(0.58 0.25)"/><path class="cls-94" d="M415.33,275.21a3.2,3.2,0,0,0,2.86,0l12.15-7a.87.87,0,0,0,0-1.65l-12.15-7a3.2,3.2,0,0,0-2.86,0l-12.16,7a.87.87,0,0,0,0,1.65Z" transform="translate(0.58 0.25)"/><path class="cls-94" d="M580.11,390.23a3.12,3.12,0,0,0,2.85,0l12.16-7a.87.87,0,0,0,0-1.65l-12.16-7a3.12,3.12,0,0,0-2.85,0l-12.16,7a.87.87,0,0,0,0,1.65Z" transform="translate(0.58 0.25)"/><path class="cls-94" d="M563.24,380.49a3.12,3.12,0,0,0,2.85,0l12.16-7a.87.87,0,0,0,0-1.65l-12.16-7a3.12,3.12,0,0,0-2.85,0l-12.16,7a.87.87,0,0,0,0,1.65Z" transform="translate(0.58 0.25)"/><path class="cls-94" d="M546.36,370.75a3.14,3.14,0,0,0,2.86,0l12.16-7a.87.87,0,0,0,0-1.65l-12.16-7a3.14,3.14,0,0,0-2.86,0l-12.15,7a.87.87,0,0,0,0,1.65Z" transform="translate(0.58 0.25)"/><path class="cls-94" d="M529.49,361a3.14,3.14,0,0,0,2.86,0l12.16-7a.87.87,0,0,0,0-1.65l-12.16-7a3.14,3.14,0,0,0-2.86,0l-12.15,7a.87.87,0,0,0,0,1.65Z" transform="translate(0.58 0.25)"/><path class="cls-94" d="M512.62,351.27a3.14,3.14,0,0,0,2.86,0l12.16-7a.87.87,0,0,0,0-1.65l-12.16-7a3.14,3.14,0,0,0-2.86,0l-12.15,7a.87.87,0,0,0,0,1.65Z" transform="translate(0.58 0.25)"/><path class="cls-94" d="M495.75,341.53a3.14,3.14,0,0,0,2.86,0l12.16-7a.87.87,0,0,0,0-1.65l-12.16-7a3.14,3.14,0,0,0-2.86,0l-12.15,7a.87.87,0,0,0,0,1.65Z" transform="translate(0.58 0.25)"/><path class="cls-94" d="M478.88,331.8a3.2,3.2,0,0,0,2.86,0l12.16-7a.87.87,0,0,0,0-1.65l-12.16-7a3.14,3.14,0,0,0-2.86,0l-12.15,7a.87.87,0,0,0,0,1.65Z" transform="translate(0.58 0.25)"/><path class="cls-94" d="M462,322.05a3.14,3.14,0,0,0,2.86,0L477,315a.87.87,0,0,0,0-1.65l-12.16-7a3.14,3.14,0,0,0-2.86,0l-12.15,7a.87.87,0,0,0,0,1.65Z" transform="translate(0.58 0.25)"/><path class="cls-94" d="M445.14,312.31a3.14,3.14,0,0,0,2.86,0l12.16-7a.87.87,0,0,0,0-1.65l-12.16-7a3.14,3.14,0,0,0-2.86,0l-12.15,7a.87.87,0,0,0,0,1.65Z" transform="translate(0.58 0.25)"/><path class="cls-94" d="M428.27,302.57a3.14,3.14,0,0,0,2.86,0l12.16-7a.87.87,0,0,0,0-1.65l-12.16-7a3.14,3.14,0,0,0-2.86,0l-12.15,7a.87.87,0,0,0,0,1.65Z" transform="translate(0.58 0.25)"/><path class="cls-94" d="M411.4,292.83a3.14,3.14,0,0,0,2.86,0l12.16-7a.87.87,0,0,0,0-1.65l-12.16-7a3.14,3.14,0,0,0-2.86,0l-12.16,7a.87.87,0,0,0,0,1.65Z" transform="translate(0.58 0.25)"/><path class="cls-94" d="M538,384.46a3.14,3.14,0,0,0,2.86,0l12.16-7a.87.87,0,0,0,0-1.65l-12.16-7a3.14,3.14,0,0,0-2.86,0l-12.15,7a.87.87,0,0,0,0,1.65Z" transform="translate(0.58 0.25)"/><path class="cls-94" d="M521.16,374.72a3.14,3.14,0,0,0,2.86,0l12.16-7a.87.87,0,0,0,0-1.65L524,359a3.14,3.14,0,0,0-2.86,0l-12.15,7a.87.87,0,0,0,0,1.65Z" transform="translate(0.58 0.25)"/><path class="cls-94" d="M555.77,413.91a3.18,3.18,0,0,0,2.85,0l12.16-7a.87.87,0,0,0,0-1.65l-12.16-7a3.18,3.18,0,0,0-2.85,0l-12.16,7a.87.87,0,0,0,0,1.65Z" transform="translate(0.58 0.25)"/><path class="cls-94" d="M538.9,404.17a3.18,3.18,0,0,0,2.85,0l12.16-7a.87.87,0,0,0,0-1.65l-12.16-7a3.18,3.18,0,0,0-2.85,0l-12.16,7a.87.87,0,0,0,0,1.65Z" transform="translate(0.58 0.25)"/><path class="cls-94" d="M522,394.43a3.18,3.18,0,0,0,2.85,0l12.16-7a.87.87,0,0,0,0-1.65l-12.16-7a3.18,3.18,0,0,0-2.85,0l-12.16,7a.87.87,0,0,0,0,1.65Z" transform="translate(0.58 0.25)"/><path class="cls-94" d="M420.18,335.63a3.2,3.2,0,0,0,2.86,0l12.15-7a.87.87,0,0,0,0-1.65l-12.15-7a3.14,3.14,0,0,0-2.86,0L408,327a.87.87,0,0,0,0,1.65Z" transform="translate(0.58 0.25)"/><path class="cls-94" d="M403.31,325.89a3.2,3.2,0,0,0,2.86,0l12.15-7a.87.87,0,0,0,0-1.65l-12.15-7a3.14,3.14,0,0,0-2.86,0l-12.16,7a.87.87,0,0,0,0,1.65Z" transform="translate(0.58 0.25)"/><path class="cls-94" d="M386.44,316.15a3.2,3.2,0,0,0,2.86,0l12.15-7a.87.87,0,0,0,0-1.65l-12.15-7a3.14,3.14,0,0,0-2.86,0l-12.16,7a.87.87,0,0,0,0,1.65Z" transform="translate(0.58 0.25)"/><path class="cls-94" d="M356.84,295.69a3.18,3.18,0,0,0,2.85,0l9.24-5.34a.86.86,0,0,0,0-1.64l-12.16-7a3.18,3.18,0,0,0-2.85,0L344.68,287a.87.87,0,0,0,0,1.65Z" transform="translate(0.58 0.25)"/><path class="cls-94" d="M345.74,302.1a3.2,3.2,0,0,0,2.86,0l9.24-5.34a.87.87,0,0,0,0-1.65l-12.16-7a3.2,3.2,0,0,0-2.86,0l-9.24,5.34a.87.87,0,0,0,0,1.65Z" transform="translate(0.58 0.25)"/><path class="cls-94" d="M362,311.48a3.12,3.12,0,0,0,2.85,0l9.25-5.33a.87.87,0,0,0,0-1.65l-12.16-7a3.2,3.2,0,0,0-2.86,0l-9.24,5.34a.87.87,0,0,0,0,1.65Z" transform="translate(0.58 0.25)"/><path class="cls-94" d="M329.5,292.73a3.2,3.2,0,0,0,2.86,0l9.24-5.34a.87.87,0,0,0,0-1.65l-12.15-7a3.2,3.2,0,0,0-2.86,0l-9.24,5.34a.87.87,0,0,0,0,1.65Z" transform="translate(0.58 0.25)"/><path class="cls-94" d="M504.29,365a3.14,3.14,0,0,0,2.86,0l12.16-7a.87.87,0,0,0,0-1.65l-12.16-7a3.14,3.14,0,0,0-2.86,0l-12.15,7a.87.87,0,0,0,0,1.65Z" transform="translate(0.58 0.25)"/><path class="cls-94" d="M487.42,355.24a3.14,3.14,0,0,0,2.86,0l12.16-7a.87.87,0,0,0,0-1.65l-12.16-7a3.14,3.14,0,0,0-2.86,0l-12.15,7a.87.87,0,0,0,0,1.65Z" transform="translate(0.58 0.25)"/><path class="cls-94" d="M470.55,345.5a3.14,3.14,0,0,0,2.86,0l12.16-7a.87.87,0,0,0,0-1.65l-12.16-7a3.14,3.14,0,0,0-2.86,0l-12.15,7a.87.87,0,0,0,0,1.65Z" transform="translate(0.58 0.25)"/><path class="cls-94" d="M453.68,335.76a3.14,3.14,0,0,0,2.86,0l12.16-7a.87.87,0,0,0,0-1.65l-12.16-7a3.14,3.14,0,0,0-2.86,0l-12.15,7a.87.87,0,0,0,0,1.65Z" transform="translate(0.58 0.25)"/><path class="cls-94" d="M436.81,326a3.14,3.14,0,0,0,2.86,0l12.16-7a.87.87,0,0,0,0-1.65l-12.16-7a3.14,3.14,0,0,0-2.86,0l-12.15,7a.87.87,0,0,0,0,1.65Z" transform="translate(0.58 0.25)"/><path class="cls-94" d="M419.94,316.28a3.14,3.14,0,0,0,2.86,0l12.16-7a.87.87,0,0,0,0-1.65l-12.16-7a3.14,3.14,0,0,0-2.86,0l-12.16,7a.87.87,0,0,0,0,1.65Z" transform="translate(0.58 0.25)"/><path class="cls-94" d="M403.07,306.54a3.14,3.14,0,0,0,2.86,0l12.16-7a.87.87,0,0,0,0-1.65l-12.16-7a3.14,3.14,0,0,0-2.86,0l-12.16,7a.87.87,0,0,0,0,1.65Z" transform="translate(0.58 0.25)"/><path class="cls-94" d="M554.9,394.2a3.14,3.14,0,0,0,2.86,0l12.16-7a.87.87,0,0,0,0-1.65l-12.16-7a3.14,3.14,0,0,0-2.86,0l-12.15,7a.87.87,0,0,0,0,1.65Z" transform="translate(0.58 0.25)"/></g><path class="cls-16" d="M631.4,378a.87.87,0,0,0,0,1.65l13.93,8a3.12,3.12,0,0,0,2.85,0l11.16-6.44a.87.87,0,0,0,0-1.65l-13.93-8a3.18,3.18,0,0,0-2.85,0Z" transform="translate(0.58 0.25)"/><path class="cls-16" d="M393.06,240.38a.87.87,0,0,0,0,1.65l30.84,17.8a3.14,3.14,0,0,0,2.86,0l11.16-6.44a.87.87,0,0,0,0-1.65l-30.84-17.8a3.2,3.2,0,0,0-2.86,0Z" transform="translate(0.58 0.25)"/><path class="cls-16" d="M376.43,250a.87.87,0,0,0,0,1.65l22.48,13a3.18,3.18,0,0,0,2.85,0l11.16-6.44a.87.87,0,0,0,0-1.65l-22.48-13a3.18,3.18,0,0,0-2.85,0Z" transform="translate(0.58 0.25)"/><path class="cls-16" d="M359.2,259.93a.87.87,0,0,0,0,1.65l35.15,20.29a3.14,3.14,0,0,0,2.86,0l11.16-6.44a.87.87,0,0,0,0-1.65l-35.15-20.29a3.14,3.14,0,0,0-2.86,0Z" transform="translate(0.58 0.25)"/><path class="cls-16" d="M342,269.88a.87.87,0,0,0,0,1.64l43.63,25.19a3.18,3.18,0,0,0,2.85,0l11.16-6.44a.87.87,0,0,0,0-1.65L356,263.43a3.2,3.2,0,0,0-2.86,0Z" transform="translate(0.58 0.25)"/><path class="cls-16" d="M606.26,382.68a.87.87,0,0,0,0,1.65l22.43,12.95a3.2,3.2,0,0,0,2.86,0l11.16-6.45a.87.87,0,0,0,0-1.65l-22.43-12.95a3.2,3.2,0,0,0-2.86,0Z" transform="translate(0.58 0.25)"/><path class="cls-16" d="M585.38,389.82a.87.87,0,0,0,0,1.65l26.68,15.41a3.2,3.2,0,0,0,2.86,0l11.16-6.44a.87.87,0,0,0,0-1.65l-26.69-15.41a3.18,3.18,0,0,0-2.85,0Z" transform="translate(0.58 0.25)"/><path class="cls-16" d="M560.44,394.63a.87.87,0,0,0,0,1.65l35,20.2a3.2,3.2,0,0,0,2.86,0L609.44,410a.87.87,0,0,0,0-1.65l-35-20.2a3.2,3.2,0,0,0-2.86,0Z" transform="translate(0.58 0.25)"/><path class="cls-16" d="M560.76,414a.87.87,0,0,0,0,1.65l18,10.41a3.12,3.12,0,0,0,2.85,0l11.16-6.44a.87.87,0,0,0,0-1.65l-18-10.41a3.12,3.12,0,0,0-2.85,0Z" transform="translate(0.58 0.25)"/><path class="cls-16" d="M426.64,336.59a.86.86,0,0,0,0,1.64l78.52,45.34a3.2,3.2,0,0,0,2.86,0l11.15-6.44a.87.87,0,0,0,0-1.65l-78.52-45.34a3.2,3.2,0,0,0-2.86,0Z" transform="translate(0.58 0.25)"/><path class="cls-16" d="M651.65,370.47a.87.87,0,0,0,0,1.65L662,378.07a3.18,3.18,0,0,0,2.85,0l8.14-4.7a.87.87,0,0,0,0-1.65l-10.31-6a3.18,3.18,0,0,0-2.85,0Z" transform="translate(0.58 0.25)"/><path class="cls-16" d="M635.88,361.37a.86.86,0,0,0,0,1.64l10.31,6a3.18,3.18,0,0,0,2.85,0l8.14-4.7a.87.87,0,0,0,0-1.65l-10.31-5.95a3.12,3.12,0,0,0-2.85,0Z" transform="translate(0.58 0.25)"/><path class="cls-16" d="M620.88,352.71a.87.87,0,0,0,0,1.65l10.31,5.95a3.2,3.2,0,0,0,2.86,0l8.14-4.7a.87.87,0,0,0,0-1.65L631.88,348a3.2,3.2,0,0,0-2.86,0Z" transform="translate(0.58 0.25)"/><path class="cls-16" d="M605.89,344.05a.87.87,0,0,0,0,1.65l10.31,5.95a3.18,3.18,0,0,0,2.85,0l8.14-4.7a.87.87,0,0,0,0-1.65l-10.31-5.95a3.18,3.18,0,0,0-2.85,0Z" transform="translate(0.58 0.25)"/><path class="cls-16" d="M590.89,335.39a.87.87,0,0,0,0,1.65L601.2,343a3.14,3.14,0,0,0,2.86,0l8.14-4.7a.87.87,0,0,0,0-1.64l-10.31-6a3.2,3.2,0,0,0-2.86,0Z" transform="translate(0.58 0.25)"/><path class="cls-16" d="M575.9,326.73a.87.87,0,0,0,0,1.65l10.31,5.95a3.12,3.12,0,0,0,2.85,0l8.14-4.69a.87.87,0,0,0,0-1.65L586.89,322a3.14,3.14,0,0,0-2.86,0Z" transform="translate(0.58 0.25)"/><path class="cls-16" d="M560.9,318.08a.87.87,0,0,0,0,1.65l10.31,5.95a3.2,3.2,0,0,0,2.86,0l8.13-4.7a.87.87,0,0,0,0-1.65l-10.31-5.95a3.18,3.18,0,0,0-2.85,0Z" transform="translate(0.58 0.25)"/><path class="cls-16" d="M545.91,309.42a.87.87,0,0,0,0,1.65l10.3,5.95a3.2,3.2,0,0,0,2.86,0l8.14-4.7a.87.87,0,0,0,0-1.65l-10.31-5.95a3.2,3.2,0,0,0-2.86,0Z" transform="translate(0.58 0.25)"/><path class="cls-16" d="M530.91,300.76a.87.87,0,0,0,0,1.65l10.31,5.95a3.12,3.12,0,0,0,2.85,0l8.14-4.7a.87.87,0,0,0,0-1.65l-10.31-5.95a3.18,3.18,0,0,0-2.85,0Z" transform="translate(0.58 0.25)"/><path class="cls-16" d="M515.91,292.1a.87.87,0,0,0,0,1.65l10.31,5.95a3.14,3.14,0,0,0,2.86,0l8.14-4.69a.87.87,0,0,0,0-1.65l-10.31-5.95a3.14,3.14,0,0,0-2.86,0Z" transform="translate(0.58 0.25)"/><path class="cls-16" d="M500.92,283.45a.86.86,0,0,0,0,1.64l10.31,6a3.18,3.18,0,0,0,2.85,0l8.14-4.7a.87.87,0,0,0,0-1.65l-10.31-5.95a3.12,3.12,0,0,0-2.85,0Z" transform="translate(0.58 0.25)"/><path class="cls-16" d="M485.92,274.79a.87.87,0,0,0,0,1.65l10.31,5.95a3.2,3.2,0,0,0,2.86,0l8.13-4.7a.87.87,0,0,0,0-1.65l-10.3-6a3.2,3.2,0,0,0-2.86,0Z" transform="translate(0.58 0.25)"/><path class="cls-16" d="M470.93,266.13a.87.87,0,0,0,0,1.65l10.3,6a3.2,3.2,0,0,0,2.86,0l8.14-4.7a.87.87,0,0,0,0-1.65l-10.31-5.95a3.2,3.2,0,0,0-2.86,0Z" transform="translate(0.58 0.25)"/><path class="cls-16" d="M454.68,256.75a.87.87,0,0,0,0,1.65l10.31,6a3.14,3.14,0,0,0,2.86,0l8.13-4.7a.87.87,0,0,0,0-1.65l-10.3-5.95a3.2,3.2,0,0,0-2.86,0Z" transform="translate(0.58 0.25)"/><path class="cls-16" d="M439.69,248.09a.87.87,0,0,0,0,1.65l10.3,5.95a3.14,3.14,0,0,0,2.86,0L461,251a.87.87,0,0,0,0-1.65l-10.31-5.95a3.14,3.14,0,0,0-2.86,0Z" transform="translate(0.58 0.25)"/><path class="cls-16" d="M424.69,239.44a.87.87,0,0,0,0,1.65L435,247a3.18,3.18,0,0,0,2.85,0l8.14-4.7a.87.87,0,0,0,0-1.65l-10.31-5.95a3.12,3.12,0,0,0-2.85,0Z" transform="translate(0.58 0.25)"/><path class="cls-16" d="M409.69,230.78a.87.87,0,0,0,0,1.65L420,238.38a3.2,3.2,0,0,0,2.86,0l8.14-4.7a.87.87,0,0,0,0-1.65l-10.31-5.95a3.2,3.2,0,0,0-2.86,0Z" transform="translate(0.58 0.25)"/><path class="cls-16" d="M614.71,368.35a.87.87,0,0,0,0,1.65l11.16,6.44a3.18,3.18,0,0,0,2.85,0L639.88,370a.87.87,0,0,0,0-1.65l-11.16-6.44a3.12,3.12,0,0,0-2.85,0Z" transform="translate(0.58 0.25)"/><path id="_Bana_" data-name="&lt;Bana&gt;" class="cls-16" d="M581,348.87a.87.87,0,0,0,0,1.65L592.13,357a3.18,3.18,0,0,0,2.85,0l11.16-6.44a.87.87,0,0,0,0-1.65L595,342.43a3.12,3.12,0,0,0-2.85,0Z" transform="translate(0.58 0.25)"/><path id="_Bana_2" data-name="&lt;Bana&gt;" class="cls-16" d="M597.84,358.61a.87.87,0,0,0,0,1.65L609,366.7a3.18,3.18,0,0,0,2.85,0L623,360.26a.87.87,0,0,0,0-1.65l-11.16-6.44a3.12,3.12,0,0,0-2.85,0Z" transform="translate(0.58 0.25)"/><path id="_Bana_3" data-name="&lt;Bana&gt;" class="cls-16" d="M564.1,339.13a.87.87,0,0,0,0,1.65l11.16,6.44a3.18,3.18,0,0,0,2.85,0l11.16-6.44a.87.87,0,0,0,0-1.65l-11.16-6.44a3.12,3.12,0,0,0-2.85,0Z" transform="translate(0.58 0.25)"/><path id="_Bana_4" data-name="&lt;Bana&gt;" class="cls-16" d="M547.23,329.39a.87.87,0,0,0,0,1.65l11.16,6.44a3.18,3.18,0,0,0,2.85,0L572.4,331a.87.87,0,0,0,0-1.65L561.24,323a3.12,3.12,0,0,0-2.85,0Z" transform="translate(0.58 0.25)"/><path id="_Bana_5" data-name="&lt;Bana&gt;" class="cls-16" d="M530.36,319.65a.87.87,0,0,0,0,1.65l11.16,6.44a3.18,3.18,0,0,0,2.85,0l11.16-6.44a.87.87,0,0,0,0-1.65l-11.16-6.44a3.12,3.12,0,0,0-2.85,0Z" transform="translate(0.58 0.25)"/><path id="_Bana_6" data-name="&lt;Bana&gt;" class="cls-16" d="M513.49,309.91a.87.87,0,0,0,0,1.65L524.65,318a3.18,3.18,0,0,0,2.85,0l11.16-6.44a.87.87,0,0,0,0-1.65l-11.16-6.44a3.12,3.12,0,0,0-2.85,0Z" transform="translate(0.58 0.25)"/><path id="_Bana_7" data-name="&lt;Bana&gt;" class="cls-16" d="M496.62,300.17a.87.87,0,0,0,0,1.65l11.15,6.44a3.2,3.2,0,0,0,2.86,0l11.16-6.44a.87.87,0,0,0,0-1.65l-11.16-6.44a3.14,3.14,0,0,0-2.86,0Z" transform="translate(0.58 0.25)"/><path id="_Bana_8" data-name="&lt;Bana&gt;" class="cls-16" d="M479.75,290.43a.87.87,0,0,0,0,1.65l11.15,6.44a3.2,3.2,0,0,0,2.86,0l11.16-6.44a.87.87,0,0,0,0-1.65L493.76,284a3.14,3.14,0,0,0-2.86,0Z" transform="translate(0.58 0.25)"/><path id="_Bana_9" data-name="&lt;Bana&gt;" class="cls-16" d="M462.88,280.69a.87.87,0,0,0,0,1.65L474,288.78a3.2,3.2,0,0,0,2.86,0l11.16-6.44a.87.87,0,0,0,0-1.65l-11.16-6.44a3.14,3.14,0,0,0-2.86,0Z" transform="translate(0.58 0.25)"/><path id="_Bana_10" data-name="&lt;Bana&gt;" class="cls-16" d="M446,271a.87.87,0,0,0,0,1.65L457.16,279a3.2,3.2,0,0,0,2.86,0l11.16-6.44a.87.87,0,0,0,0-1.65L460,264.51a3.14,3.14,0,0,0-2.86,0Z" transform="translate(0.58 0.25)"/><path id="_Bana_11" data-name="&lt;Bana&gt;" class="cls-16" d="M429.14,261.21a.87.87,0,0,0,0,1.65l11.15,6.44a3.2,3.2,0,0,0,2.86,0l11.16-6.44a.87.87,0,0,0,0-1.65l-11.16-6.44a3.14,3.14,0,0,0-2.86,0Z" transform="translate(0.58 0.25)"/><path class="cls-16" d="M589.75,373.14a.87.87,0,0,0,0,1.65l11.15,6.44a3.14,3.14,0,0,0,2.86,0l11.16-6.44a.87.87,0,0,0,0-1.65l-11.16-6.44a3.2,3.2,0,0,0-2.86,0Z" transform="translate(0.58 0.25)"/><path id="_Bana_12" data-name="&lt;Bana&gt;" class="cls-16" d="M572.88,363.4a.87.87,0,0,0,0,1.65L584,371.49a3.14,3.14,0,0,0,2.86,0l11.16-6.44a.87.87,0,0,0,0-1.65L586.89,357a3.2,3.2,0,0,0-2.86,0Z" transform="translate(0.58 0.25)"/><path id="_Bana_13" data-name="&lt;Bana&gt;" class="cls-16" d="M556,353.66a.87.87,0,0,0,0,1.65l11.15,6.44a3.14,3.14,0,0,0,2.86,0l11.16-6.44a.87.87,0,0,0,0-1.65L570,347.22a3.2,3.2,0,0,0-2.86,0Z" transform="translate(0.58 0.25)"/><path id="_Bana_14" data-name="&lt;Bana&gt;" class="cls-16" d="M539.14,343.92a.87.87,0,0,0,0,1.65L550.29,352a3.2,3.2,0,0,0,2.86,0l11.16-6.44a.87.87,0,0,0,0-1.65l-11.16-6.44a3.2,3.2,0,0,0-2.86,0Z" transform="translate(0.58 0.25)"/><path id="_Bana_15" data-name="&lt;Bana&gt;" class="cls-16" d="M522.26,334.18a.87.87,0,0,0,0,1.65l11.16,6.44a3.2,3.2,0,0,0,2.86,0l11.16-6.44a.87.87,0,0,0,0-1.65l-11.16-6.44a3.2,3.2,0,0,0-2.86,0Z" transform="translate(0.58 0.25)"/><path id="_Bana_16" data-name="&lt;Bana&gt;" class="cls-16" d="M505.39,324.44a.87.87,0,0,0,0,1.65l11.16,6.44a3.2,3.2,0,0,0,2.86,0l11.16-6.44a.87.87,0,0,0,0-1.65L519.41,318a3.2,3.2,0,0,0-2.86,0Z" transform="translate(0.58 0.25)"/><path id="_Bana_17" data-name="&lt;Bana&gt;" class="cls-16" d="M488.52,314.7a.87.87,0,0,0,0,1.65l11.16,6.44a3.2,3.2,0,0,0,2.86,0l11.16-6.44a.87.87,0,0,0,0-1.65l-11.16-6.44a3.2,3.2,0,0,0-2.86,0Z" transform="translate(0.58 0.25)"/><path id="_Bana_18" data-name="&lt;Bana&gt;" class="cls-16" d="M471.65,305a.87.87,0,0,0,0,1.65l11.16,6.44a3.2,3.2,0,0,0,2.86,0l11.16-6.44a.87.87,0,0,0,0-1.65l-11.16-6.44a3.2,3.2,0,0,0-2.86,0Z" transform="translate(0.58 0.25)"/><path id="_Bana_19" data-name="&lt;Bana&gt;" class="cls-16" d="M454.78,295.22a.87.87,0,0,0,0,1.65l11.16,6.44a3.2,3.2,0,0,0,2.86,0L480,296.87a.87.87,0,0,0,0-1.65l-11.16-6.44a3.2,3.2,0,0,0-2.86,0Z" transform="translate(0.58 0.25)"/><path id="_Bana_20" data-name="&lt;Bana&gt;" class="cls-16" d="M437.91,285.48a.87.87,0,0,0,0,1.65l11.16,6.44a3.2,3.2,0,0,0,2.86,0l11.16-6.44a.87.87,0,0,0,0-1.65L451.93,279a3.2,3.2,0,0,0-2.86,0Z" transform="translate(0.58 0.25)"/><path id="_Bana_21" data-name="&lt;Bana&gt;" class="cls-16" d="M421,275.74a.87.87,0,0,0,0,1.65l11.16,6.44a3.2,3.2,0,0,0,2.86,0l11.15-6.44a.87.87,0,0,0,0-1.65l-11.15-6.44a3.2,3.2,0,0,0-2.86,0Z" transform="translate(0.58 0.25)"/><path id="_Bana_22" data-name="&lt;Bana&gt;" class="cls-16" d="M404.17,266a.87.87,0,0,0,0,1.65l11.16,6.44a3.14,3.14,0,0,0,2.86,0l11.15-6.44a.87.87,0,0,0,0-1.65l-11.15-6.44a3.2,3.2,0,0,0-2.86,0Z" transform="translate(0.58 0.25)"/><path class="cls-16" d="M569,381a.86.86,0,0,0,0,1.64l11.16,6.45a3.18,3.18,0,0,0,2.85,0l11.16-6.45a.86.86,0,0,0,0-1.64L583,374.58a3.18,3.18,0,0,0-2.85,0Z" transform="translate(0.58 0.25)"/><path id="_Bana_23" data-name="&lt;Bana&gt;" class="cls-16" d="M552.08,371.29a.86.86,0,0,0,0,1.64l11.16,6.45a3.18,3.18,0,0,0,2.85,0l11.16-6.45a.86.86,0,0,0,0-1.64l-11.16-6.45a3.18,3.18,0,0,0-2.85,0Z" transform="translate(0.58 0.25)"/><path id="_Bana_24" data-name="&lt;Bana&gt;" class="cls-16" d="M535.21,361.55a.86.86,0,0,0,0,1.64l11.16,6.45a3.18,3.18,0,0,0,2.85,0l11.16-6.45a.87.87,0,0,0,0-1.64l-11.16-6.45a3.18,3.18,0,0,0-2.85,0Z" transform="translate(0.58 0.25)"/><path id="_Bana_25" data-name="&lt;Bana&gt;" class="cls-16" d="M518.34,351.81a.86.86,0,0,0,0,1.64l11.16,6.45a3.18,3.18,0,0,0,2.85,0l11.16-6.45a.87.87,0,0,0,0-1.64l-11.16-6.45a3.18,3.18,0,0,0-2.85,0Z" transform="translate(0.58 0.25)"/><path id="_Bana_26" data-name="&lt;Bana&gt;" class="cls-16" d="M501.47,342.07a.86.86,0,0,0,0,1.64l11.16,6.45a3.18,3.18,0,0,0,2.85,0l11.16-6.45a.87.87,0,0,0,0-1.64l-11.16-6.45a3.18,3.18,0,0,0-2.85,0Z" transform="translate(0.58 0.25)"/><path id="_Bana_27" data-name="&lt;Bana&gt;" class="cls-16" d="M484.6,332.33a.86.86,0,0,0,0,1.64l11.15,6.45a3.2,3.2,0,0,0,2.86,0L509.77,334a.87.87,0,0,0,0-1.64l-11.16-6.45a3.2,3.2,0,0,0-2.86,0Z" transform="translate(0.58 0.25)"/><path id="_Bana_28" data-name="&lt;Bana&gt;" class="cls-16" d="M467.73,322.59a.86.86,0,0,0,0,1.64l11.15,6.45a3.2,3.2,0,0,0,2.86,0l11.16-6.45a.87.87,0,0,0,0-1.64l-11.16-6.45a3.2,3.2,0,0,0-2.86,0Z" transform="translate(0.58 0.25)"/><path id="_Bana_29" data-name="&lt;Bana&gt;" class="cls-16" d="M450.86,312.85a.86.86,0,0,0,0,1.64L462,320.94a3.2,3.2,0,0,0,2.86,0L476,314.49a.87.87,0,0,0,0-1.64l-11.16-6.45a3.2,3.2,0,0,0-2.86,0Z" transform="translate(0.58 0.25)"/><path id="_Bana_30" data-name="&lt;Bana&gt;" class="cls-16" d="M434,303.11a.86.86,0,0,0,0,1.64l11.15,6.45a3.2,3.2,0,0,0,2.86,0l11.16-6.45a.87.87,0,0,0,0-1.64L448,296.66a3.2,3.2,0,0,0-2.86,0Z" transform="translate(0.58 0.25)"/><path id="_Bana_31" data-name="&lt;Bana&gt;" class="cls-16" d="M417.12,293.37a.86.86,0,0,0,0,1.64l11.15,6.45a3.2,3.2,0,0,0,2.86,0L442.29,295a.87.87,0,0,0,0-1.64l-11.16-6.45a3.2,3.2,0,0,0-2.86,0Z" transform="translate(0.58 0.25)"/><path id="_Bana_32" data-name="&lt;Bana&gt;" class="cls-16" d="M400.25,283.63a.86.86,0,0,0,0,1.64l11.15,6.45a3.2,3.2,0,0,0,2.86,0l11.16-6.45a.87.87,0,0,0,0-1.64l-11.16-6.45a3.2,3.2,0,0,0-2.86,0Z" transform="translate(0.58 0.25)"/><path id="_Bana_33" data-name="&lt;Bana&gt;" class="cls-16" d="M526.88,375.25a.87.87,0,0,0,0,1.65L538,383.34a3.14,3.14,0,0,0,2.86,0l11.16-6.44a.87.87,0,0,0,0-1.65l-11.16-6.44a3.2,3.2,0,0,0-2.86,0Z" transform="translate(0.58 0.25)"/><path id="_Bana_34" data-name="&lt;Bana&gt;" class="cls-16" d="M510,365.51a.87.87,0,0,0,0,1.65l11.15,6.44a3.14,3.14,0,0,0,2.86,0l11.16-6.44a.87.87,0,0,0,0-1.65L524,359.07a3.2,3.2,0,0,0-2.86,0Z" transform="translate(0.58 0.25)"/><path class="cls-16" d="M544.61,404.7a.87.87,0,0,0,0,1.65l11.16,6.44a3.18,3.18,0,0,0,2.85,0l11.16-6.44a.87.87,0,0,0,0-1.65l-11.16-6.45a3.18,3.18,0,0,0-2.85,0Z" transform="translate(0.58 0.25)"/><path id="_Bana_35" data-name="&lt;Bana&gt;" class="cls-16" d="M527.74,395a.87.87,0,0,0,0,1.65l11.16,6.44a3.18,3.18,0,0,0,2.85,0l11.16-6.44a.87.87,0,0,0,0-1.65l-11.16-6.45a3.18,3.18,0,0,0-2.85,0Z" transform="translate(0.58 0.25)"/><path id="_Bana_36" data-name="&lt;Bana&gt;" class="cls-16" d="M510.87,385.22a.87.87,0,0,0,0,1.65L522,393.31a3.18,3.18,0,0,0,2.85,0L536,386.87a.87.87,0,0,0,0-1.65l-11.16-6.45a3.18,3.18,0,0,0-2.85,0Z" transform="translate(0.58 0.25)"/><path class="cls-16" d="M409,326.42a.87.87,0,0,0,0,1.65l11.16,6.44a3.2,3.2,0,0,0,2.86,0l11.15-6.44a.87.87,0,0,0,0-1.65L423,320a3.2,3.2,0,0,0-2.86,0Z" transform="translate(0.58 0.25)"/><path id="_Bana_37" data-name="&lt;Bana&gt;" class="cls-16" d="M392.15,316.68a.87.87,0,0,0,0,1.65l11.16,6.44a3.2,3.2,0,0,0,2.86,0l11.15-6.44a.87.87,0,0,0,0-1.65l-11.15-6.45a3.2,3.2,0,0,0-2.86,0Z" transform="translate(0.58 0.25)"/><path id="_Bana_38" data-name="&lt;Bana&gt;" class="cls-16" d="M375.28,306.94a.87.87,0,0,0,0,1.65L386.44,315a3.2,3.2,0,0,0,2.86,0l11.15-6.44a.87.87,0,0,0,0-1.65l-11.15-6.45a3.2,3.2,0,0,0-2.86,0Z" transform="translate(0.58 0.25)"/><path class="cls-16" d="M356.77,281.72a3.18,3.18,0,0,0-2.85,0l-8.24,4.76a.87.87,0,0,0,0,1.65l11.16,6.44a3.18,3.18,0,0,0,2.85,0l8.24-4.76a.87.87,0,0,0,0-1.65Z" transform="translate(0.58 0.25)"/><path class="cls-16" d="M345.68,288.13a3.14,3.14,0,0,0-2.86,0l-8.24,4.75a.87.87,0,0,0,0,1.65L345.74,301a3.2,3.2,0,0,0,2.86,0l8.24-4.76a.87.87,0,0,0,0-1.65Z" transform="translate(0.58 0.25)"/><path id="_Bana_39" data-name="&lt;Bana&gt;" class="cls-16" d="M350.84,302.28a.86.86,0,0,0,0,1.64L362,310.37a3.18,3.18,0,0,0,2.85,0l8.25-4.76a.87.87,0,0,0,0-1.65l-11.16-6.44a3.14,3.14,0,0,0-2.86,0Z" transform="translate(0.58 0.25)"/><path id="_Bana_40" data-name="&lt;Bana&gt;" class="cls-16" d="M318.35,283.52a.87.87,0,0,0,0,1.65l11.15,6.44a3.2,3.2,0,0,0,2.86,0l8.24-4.76a.87.87,0,0,0,0-1.65l-11.15-6.44a3.14,3.14,0,0,0-2.86,0Z" transform="translate(0.58 0.25)"/><path id="_Bana_41" data-name="&lt;Bana&gt;" class="cls-16" d="M493.14,355.77a.87.87,0,0,0,0,1.65l11.15,6.44a3.14,3.14,0,0,0,2.86,0l11.16-6.44a.87.87,0,0,0,0-1.65l-11.16-6.44a3.2,3.2,0,0,0-2.86,0Z" transform="translate(0.58 0.25)"/><path id="_Bana_42" data-name="&lt;Bana&gt;" class="cls-16" d="M476.27,346a.87.87,0,0,0,0,1.65l11.15,6.44a3.14,3.14,0,0,0,2.86,0l11.16-6.44a.87.87,0,0,0,0-1.65l-11.16-6.44a3.2,3.2,0,0,0-2.86,0Z" transform="translate(0.58 0.25)"/><path id="_Bana_43" data-name="&lt;Bana&gt;" class="cls-16" d="M459.4,336.29a.87.87,0,0,0,0,1.65l11.15,6.44a3.14,3.14,0,0,0,2.86,0l11.16-6.44a.87.87,0,0,0,0-1.65l-11.16-6.44a3.2,3.2,0,0,0-2.86,0Z" transform="translate(0.58 0.25)"/><path id="_Bana_44" data-name="&lt;Bana&gt;" class="cls-16" d="M442.53,326.55a.87.87,0,0,0,0,1.65l11.15,6.44a3.14,3.14,0,0,0,2.86,0l11.16-6.44a.87.87,0,0,0,0-1.65l-11.16-6.44a3.2,3.2,0,0,0-2.86,0Z" transform="translate(0.58 0.25)"/><path id="_Bana_45" data-name="&lt;Bana&gt;" class="cls-16" d="M425.66,316.81a.87.87,0,0,0,0,1.65l11.15,6.44a3.14,3.14,0,0,0,2.86,0l11.16-6.44a.87.87,0,0,0,0-1.65l-11.16-6.44a3.2,3.2,0,0,0-2.86,0Z" transform="translate(0.58 0.25)"/><path id="_Bana_46" data-name="&lt;Bana&gt;" class="cls-16" d="M408.78,307.07a.87.87,0,0,0,0,1.65l11.16,6.44a3.14,3.14,0,0,0,2.86,0L434,308.72a.87.87,0,0,0,0-1.65l-11.16-6.44a3.2,3.2,0,0,0-2.86,0Z" transform="translate(0.58 0.25)"/><path id="_Bana_47" data-name="&lt;Bana&gt;" class="cls-16" d="M391.91,297.33a.87.87,0,0,0,0,1.65l11.16,6.44a3.14,3.14,0,0,0,2.86,0L417.09,299a.87.87,0,0,0,0-1.65l-11.16-6.44a3.2,3.2,0,0,0-2.86,0Z" transform="translate(0.58 0.25)"/><path class="cls-16" d="M543.75,385a.87.87,0,0,0,0,1.65l11.15,6.44a3.14,3.14,0,0,0,2.86,0l11.16-6.44a.87.87,0,0,0,0-1.65l-11.16-6.44a3.2,3.2,0,0,0-2.86,0Z" transform="translate(0.58 0.25)"/><path class="cls-95" d="M423.22,214c0,2,2.87,3.66,6.41,3.66s6.42-1.64,6.42-3.66-2.87-3.66-6.42-3.66S423.22,212,423.22,214Z" transform="translate(0.58 0.25)"/><path class="cls-16" d="M424.14,213.94c0,1.73,2.45,3.14,5.48,3.14s5.49-1.41,5.49-3.14-2.46-3.13-5.49-3.13S424.14,212.22,424.14,213.94Z" transform="translate(0.58 0.25)"/><path class="cls-14" d="M718.77,373.61v6c.13,2.39-1.37,4.79-4.5,6.6L539.65,487.06c-6,3.48-15.82,3.48-21.83,0L235.62,324.14a9.69,9.69,0,0,1-3.72-3.51c-.37-1.07-.61-1.77-.72-2.05,0,0,0,0,0,0a.63.63,0,0,0,0-.13V311.5c.08,2.21,1.58,4.4,4.49,6.08L517.82,480.5c6,3.48,15.81,3.48,21.83,0L714.27,379.69C717.18,378,718.68,375.82,718.77,373.61Z" transform="translate(0.58 0.25)"/></g><g id="Web"><path class="cls-20" d="M676.71,177.3a12.66,12.66,0,0,1,5.74,9.94l-.38,134.05c0,3.66-2.6,5.13-5.78,3.3L463,201.46a12.64,12.64,0,0,1-5.74-10l.38-134c0-3.65,2.59-5.13,5.78-3.29Z" transform="translate(0.58 0.25)"/><g id="Camera"><path class="cls-96" d="M526.53,106a12.26,12.26,0,0,1,5.57,9.65l-.13,46c0,3.55-2.52,5-5.61,3.2l-53.72-31a12.28,12.28,0,0,1-5.58-9.66l.13-46c0-3.55,2.53-5,5.62-3.2Z" transform="translate(0.58 0.25)"/><path class="cls-97" d="M518.41,115.75a3,3,0,0,0-1.77-2.55L486.49,95.79a9.38,9.38,0,0,0-8.48,0l-1,.58a3,3,0,0,0-1.74,2.45h0l-.07,27a3,3,0,0,0,1.77,2.47l30.15,17.41a9.32,9.32,0,0,0,8.48,0l1-.58a3,3,0,0,0,1.74-2.44l.07-27Z" transform="translate(0.58 0.25)"/><path class="cls-98" d="M475.2,125.77l.07-27a3,3,0,0,0,1.77,2.48l-.07,27A3,3,0,0,1,475.2,125.77Z" transform="translate(0.58 0.25)"/><polygon class="cls-99" points="507.77 118.94 507.7 145.9 477.55 128.49 477.63 101.54 507.77 118.94"/><path class="cls-100" d="M483.8,112.39l-5.08-2.93a.23.23,0,0,1-.11-.2v-3.78a.13.13,0,0,1,.19-.12l5.08,2.93a.23.23,0,0,1,.11.2v3.79A.13.13,0,0,1,483.8,112.39Z" transform="translate(0.58 0.25)"/><path class="cls-97" d="M516.67,118.11l-1,.58a9.32,9.32,0,0,1-8.48,0l-.07,27a9.32,9.32,0,0,0,8.48,0l1-.58a3,3,0,0,0,1.74-2.44l.07-27A3,3,0,0,1,516.67,118.11Z" transform="translate(0.58 0.25)"/><path class="cls-101" d="M516.64,113.2c2.35,1.36,2.37,3.56,0,4.91l-1,.58a9.32,9.32,0,0,1-8.48,0L477,101.29c-2.35-1.36-2.36-3.56,0-4.92l1-.58a9.38,9.38,0,0,1,8.48,0Z" transform="translate(0.58 0.25)"/><path class="cls-99" d="M511.44,118.39a7.5,7.5,0,0,1-3.59-.84L477.7,100.14c-.69-.4-1.1-.89-1.11-1.32s.41-.91,1.09-1.3l1-.58a7.22,7.22,0,0,1,3.57-.84,7.43,7.43,0,0,1,3.58.84L516,114.35c.7.4,1.11.89,1.11,1.32s-.4.91-1.08,1.3l-1,.58A7.39,7.39,0,0,1,511.44,118.39Z" transform="translate(0.58 0.25)"/><path class="cls-102" d="M515.72,113.81a2,2,0,0,0-1.18-1.7,6.21,6.21,0,0,0-5.66,0,2,2,0,0,0-1.16,1.63h0l0,1.47a2,2,0,0,0,1.19,1.65,6.25,6.25,0,0,0,5.65,0,2,2,0,0,0,1.16-1.63S515.72,113.79,515.72,113.81Z" transform="translate(0.58 0.25)"/><path class="cls-103" d="M514.54,112.11c1.56.9,1.57,2.37,0,3.28a6.27,6.27,0,0,1-5.66,0c-1.57-.91-1.58-2.38,0-3.28A6.21,6.21,0,0,1,514.54,112.11Z" transform="translate(0.58 0.25)"/><path class="cls-101" d="M486.57,112.71c1.65-1,3.95-.83,6.48.63,5,2.91,9.1,10,9.08,15.74,0,2.87-1,4.89-2.65,5.84l-4.63,2.7c1.63-1,2.65-3,2.66-5.84,0-5.79-4.05-12.83-9.09-15.74-2.53-1.46-4.83-1.6-6.48-.63Z" transform="translate(0.58 0.25)"/><path class="cls-98" d="M488.42,116c-5-2.9-9.12-.57-9.14,5.21s4.05,12.83,9.08,15.74,9.13.57,9.15-5.21S493.46,119,488.42,116Z" transform="translate(0.58 0.25)"/><path class="cls-100" d="M488.41,118.77c-3.72-2.15-6.75-.42-6.76,3.85a14.82,14.82,0,0,0,6.72,11.64c3.72,2.15,6.75.42,6.76-3.85A14.8,14.8,0,0,0,488.41,118.77Z" transform="translate(0.58 0.25)"/></g></g><g id="Lager_14" data-name="Lager 14"><path d="M571.48,152.8a7.73,7.73,0,0,1,.23,1.8,4.84,4.84,0,0,1-.24,1.52,1.78,1.78,0,0,1-2,1.27,5.06,5.06,0,0,1-1.94-.74L564.68,155l0,5L562,158.49l0-14,5.48,3.16a8.42,8.42,0,0,1,3.24,3.26A7.34,7.34,0,0,1,571.48,152.8Zm-2.56,1.26a1.74,1.74,0,0,0,.2-.95,3.43,3.43,0,0,0-.2-1.2,3.24,3.24,0,0,0-.51-.93,4.77,4.77,0,0,0-.75-.74,10.38,10.38,0,0,0-.88-.59l-2.09-1.2v4.19l2.08,1.2a6,6,0,0,0,.89.43,1.53,1.53,0,0,0,.75.13.66.66,0,0,0,.52-.34" transform="translate(0.58 0.25)"/><path d="M581.06,168.56a3.86,3.86,0,0,0,.24,1.08l-2.45-1.41a5.35,5.35,0,0,1-.11-.55,4.78,4.78,0,0,1-.06-.53,1.84,1.84,0,0,1-1.36.17,5.67,5.67,0,0,1-1.61-.65,6.47,6.47,0,0,1-1.17-.85,6.21,6.21,0,0,1-.95-1.1,5.89,5.89,0,0,1-.64-1.31,4.82,4.82,0,0,1-.22-1.48,2.36,2.36,0,0,1,.26-1.27,1.1,1.1,0,0,1,.69-.5,2.09,2.09,0,0,1,1,.05q.54.15,1.08.36c.37.15.72.3,1.07.47a6.47,6.47,0,0,0,.94.36,1.05,1.05,0,0,0,.65,0c.16-.05.24-.23.22-.52a2.15,2.15,0,0,0-.12-.79,2.08,2.08,0,0,0-.34-.6,2.12,2.12,0,0,0-.5-.49,5.68,5.68,0,0,0-.6-.4,1.55,1.55,0,0,0-1.12-.29c-.28.07-.44.38-.48.89L573,157.84a2.3,2.3,0,0,1,.43-1.38,1.35,1.35,0,0,1,.95-.48,3,3,0,0,1,1.31.19,7.82,7.82,0,0,1,1.45.67,13.06,13.06,0,0,1,1.35.89,7.43,7.43,0,0,1,1.24,1.14,6,6,0,0,1,.92,1.4A3.86,3.86,0,0,1,581,162l0,5.26Q581,167.9,581.06,168.56Zm-2.47-4.4v-1a.7.7,0,0,1-.39,0l-.49-.13-.55-.23-.58-.24-.54-.15a.89.89,0,0,0-.46,0,.62.62,0,0,0-.32.24,1.15,1.15,0,0,0-.12.57,2,2,0,0,0,.12.7,2.25,2.25,0,0,0,.32.59,3.11,3.11,0,0,0,.48.48,5,5,0,0,0,.56.38,2,2,0,0,0,1.11.37.77.77,0,0,0,.58-.33,1.29,1.29,0,0,0,.23-.64c0-.24,0-.44.05-.59" transform="translate(0.58 0.25)"/><path d="M590.91,165.06l-3.71,9.25c-.26.67-.63,1-1.09,1.13a3.2,3.2,0,0,1-2-.6c-.25-.14-.49-.29-.74-.45l-.74-.5V171.6l.7.48.54.34.18.1c.31.13.55.13.7,0a1,1,0,0,0,.23-.69,2.33,2.33,0,0,0-.1-.68l-3.05-11.27,2.57,1.48,2,8.08,0,0,1.94-5.82Z" transform="translate(0.58 0.25)"/><polygon points="609.88 175.92 607.08 184.44 604.59 183 603.05 175.31 603.01 175.29 601.5 181.22 599 179.77 596.23 168.04 598.78 169.51 600.38 177.32 601.9 171.31 604.25 172.67 605.73 180.39 607.4 174.49 609.88 175.92"/><polygon points="610.99 172.7 613.4 174.1 613.39 176.38 610.98 174.99 610.99 172.7"/><polygon points="610.95 186.67 610.98 176.55 613.39 177.95 613.36 188.06 610.95 186.67"/><path d="M617.79,177.54v3l1.77,1v1.86l-1.77-1v5a2.19,2.19,0,0,0,.2,1.05,2.13,2.13,0,0,0,.82.71c.13.08.27.15.39.21l.36.15v2.15a6.43,6.43,0,0,1-.68-.31l-.73-.41a9.92,9.92,0,0,1-1.07-.71,5.39,5.39,0,0,1-.88-.84,3.93,3.93,0,0,1-.6-1.08,3.84,3.84,0,0,1-.22-1.36v-6l-1.46-.85v-1.86l1.46.84v-3Z" transform="translate(0.58 0.25)"/><path d="M623.13,179.8v5.26l0,0a1.42,1.42,0,0,1,1.18-.6,2.93,2.93,0,0,1,1.4.41,7.09,7.09,0,0,1,1.59,1.22,5.68,5.68,0,0,1,1,1.41,5.85,5.85,0,0,1,.49,1.6,9.48,9.48,0,0,1,.14,1.79v6.22l-2.42-1.39V190a5.17,5.17,0,0,0-.33-2.06,2.72,2.72,0,0,0-1.21-1.31c-.65-.38-1.13-.44-1.43-.15a2.83,2.83,0,0,0-.45,2l0,5.3-2.41-1.39,0-14Z" transform="translate(0.58 0.25)"/></g><g id="Zel-3" data-name="Zel"><polygon class="cls-2" points="609.21 222.22 615.37 225.78 615.24 270.06 609.09 266.51 609.21 222.22"/><path class="cls-2" d="M603.51,236.16A31.77,31.77,0,0,1,606,243.6a22.7,22.7,0,0,1,.38,7.21L585.87,239a17.85,17.85,0,0,0,.45,3.87,17.1,17.1,0,0,0,1.37,3.83,15.56,15.56,0,0,0,2.31,3.42,13.5,13.5,0,0,0,3.35,2.71q2.7,1.56,4.35,1.17a3.63,3.63,0,0,0,2.47-2.58l5.83,3.37a8,8,0,0,1-1.69,3.68,5.52,5.52,0,0,1-2.87,1.79,7.86,7.86,0,0,1-3.76-.05,16,16,0,0,1-4.28-1.76,25.27,25.27,0,0,1-5.89-4.64,28.19,28.19,0,0,1-4.29-6A28.6,28.6,0,0,1,580.6,241a30.18,30.18,0,0,1-.87-7.33,16.82,16.82,0,0,1,1-5.94,8.25,8.25,0,0,1,2.71-3.84,6.56,6.56,0,0,1,4.25-1.24,12.19,12.19,0,0,1,5.62,1.87,22.28,22.28,0,0,1,5.9,5A31.3,31.3,0,0,1,603.51,236.16Zm-17.63-1.85,14.36,8.29a17,17,0,0,0-.61-3.58,17.2,17.2,0,0,0-1.39-3.51,16.73,16.73,0,0,0-2.16-3.11,11.25,11.25,0,0,0-2.83-2.35,7.35,7.35,0,0,0-2.94-1,3.62,3.62,0,0,0-2.28.49,4.18,4.18,0,0,0-1.51,1.83,7.74,7.74,0,0,0-.64,3" transform="translate(0.58 0.25)"/><polygon class="cls-2" points="579.1 222.05 563.06 234.34 579.85 244.03 579.83 249.62 555.27 235.44 555.28 230.47 570.78 217.86 556.42 209.57 556.44 203.99 579.11 217.08 579.1 222.05"/><polygon class="cls-20" points="534.54 201.73 541.85 210.85 541.82 220.64 534.48 221.29 527.15 212.16 527.17 202.38 534.54 201.73"/><g class="cls-1"><polygon class="cls-20" points="512.95 189.26 520.26 198.39 520.24 208.18 512.89 208.83 505.56 199.7 505.59 189.91 512.95 189.26"/><polygon class="cls-20" points="523.75 185.59 533.03 197.19 533.02 200.69 526.35 201.27 526.33 210.24 523.68 210.47 521.06 207.2 521.09 198.23 514.44 189.96 514.45 186.46 523.75 185.59"/><path class="cls-2" d="M523.2,172.53c13.65,7.87,24.67,27,24.63,42.65s-11.15,22-24.79,14.14-24.68-27-24.63-42.67S509.55,164.65,523.2,172.53ZM525.74,210l0-9,6.67-.58v-3.5l-9.28-11.6-9.31.87v3.49L520.5,198l0,9,2.61,3.27,2.65-.23m8.16,11,7.34-.65,0-9.79L534,201.48l-7.36.65,0,9.79L533.9,221m-14.25-13.11,0-9.79L512.37,189l-7.37.66,0,9.78,7.33,9.13,7.34-.65" transform="translate(0.58 0.25)"/></g></g><g id="Coffee"><path class="cls-104" d="M313.28,101.88h0s0,.08,0,.12v.11a15.66,15.66,0,0,0-3.61-10c-.22-5.33-3.86-10.63-10.91-14.7-14.5-8.37-37.93-8.37-52.34,0-6.94,4-10.51,9.27-10.74,14.56a15.73,15.73,0,0,0-3.62,9.73v-.06h0l0,6.67c0,.38,0,.76.05,1.14a15.27,15.27,0,0,0,2.24,6.7l.1.17,8.39,77.2h0c0,4.42,3,8.85,8.81,12.22,11.69,6.75,30.59,6.75,42.21,0,5.81-3.37,8.69-7.8,8.67-12.22h0l8.37-77.07c.26-.41.5-.83.72-1.25.09-.19.18-.37.26-.55a14.57,14.57,0,0,0,1.41-6.11l0-6.67Z" transform="translate(0.58 0.25)"/><path class="cls-102" d="M313.27,102.11c.12-6.14-3.88-12.3-12-17-15.91-9.19-41.63-9.19-57.44,0-7.87,4.58-11.8,10.58-11.8,16.58v-.06l0,6.67c0,6.06,4,12.13,12,16.75,15.91,9.19,41.63,9.19,57.43,0,7.86-4.56,11.79-10.53,11.81-16.52l0-6.67C313.28,102,313.27,102,313.27,102.11Z" transform="translate(0.58 0.25)"/><path class="cls-101" d="M313.28,101.88l0,6.67c0,6-3.95,12-11.81,16.52-15.8,9.19-41.52,9.19-57.43,0-8-4.62-12-10.69-12-16.75l0-6.67c0,6.06,4,12.13,12,16.75,15.91,9.18,41.63,9.18,57.43,0C309.33,113.83,313.26,107.86,313.28,101.88Z" transform="translate(0.58 0.25)"/><path class="cls-98" d="M295.46,88.52c12.66,7.31,12.73,19.17.14,26.49s-33.06,7.31-45.73,0-12.73-19.18-.15-26.49S282.79,81.2,295.46,88.52Z" transform="translate(0.58 0.25)"/><g class="cls-1"><path class="cls-98" d="M301.37,92.66l0,8c0-4.28-2.81-8.57-8.47-11.83-11.24-6.5-29.42-6.5-40.59,0-5.55,3.22-8.33,7.44-8.34,11.67l0-8c0-4.23,2.79-8.45,8.34-11.67,11.17-6.5,29.34-6.5,40.58,0C298.55,84.09,301.38,88.38,301.37,92.66Z" transform="translate(0.58 0.25)"/><path class="cls-97" d="M250.92,102.14l0-8c0-3.2,2.12-6.4,6.32-8.84l0,8C253,95.74,250.93,98.94,250.92,102.14Z" transform="translate(0.58 0.25)"/><polygon class="cls-99" points="288.66 103.34 288.64 111.34 257.82 93.55 257.84 85.54 288.66 103.34"/><path class="cls-101" d="M292.41,82.72c11,6.33,11,16.6.13,22.94s-28.64,6.34-39.62,0-11-16.61-.13-22.94S281.43,76.38,292.41,82.72Zm-35.05,20.37c8.51,4.91,22.26,4.91,30.72,0l-30.82-17.8c-8.46,4.92-8.42,12.88.1,17.8" transform="translate(0.58 0.25)"/><path class="cls-101" d="M309.67,92.69l0,8c0,5.45-3.6,10.89-10.75,15-14.41,8.37-37.84,8.37-52.34,0-7.3-4.21-10.94-9.74-10.93-15.26l0-8c0,5.52,3.63,11,10.92,15.26,14.5,8.37,37.94,8.37,52.34,0C306.08,103.58,309.66,98.14,309.67,92.69Z" transform="translate(0.58 0.25)"/><path class="cls-102" d="M298.75,77.42c14.5,8.38,14.58,22,.17,30.32s-37.84,8.37-52.34,0S232,85.8,246.41,77.42,284.25,69.05,298.75,77.42Zm-46.31,26.92c11.24,6.49,29.42,6.49,40.59,0s11.11-17-.14-23.51-29.41-6.5-40.58,0-11.12,17,.13,23.51" transform="translate(0.58 0.25)"/></g><path class="cls-98" d="M255.67,107.33a1.66,1.66,0,0,0-.33-.15,29.05,29.05,0,0,1-4.32-2,20.22,20.22,0,0,1-3.51-2.5,2.4,2.4,0,0,0-.26-.18,3,3,0,0,0-2.74,0c-.65.38-.75,1-.25,1.41a23.77,23.77,0,0,0,4,2.87,33.67,33.67,0,0,0,5,2.32,3.09,3.09,0,0,0,2.43-.14.84.84,0,0,0,0-1.59" transform="translate(0.58 0.25)"/><path class="cls-105" d="M251.08,82.39v0a.2.2,0,0,0,0-.11s0,0,0,0a.21.21,0,0,0-.06-.1.4.4,0,0,0-.12-.1L249,81a1.06,1.06,0,0,0-1,0,.39.39,0,0,0-.15.13.23.23,0,0,0-.05.15v0h0l-.08,25.1.21.12a3.79,3.79,0,0,0,.34.2c.5.29,1,.56,1.53.83l1.19.56.07-25.76Z" transform="translate(0.58 0.25)"/><g class="cls-1"><path class="cls-100" d="M248,81.57l-.07,25-.21-.12.08-25.1h0v0a.13.13,0,0,0,0,.06.14.14,0,0,0,0,.06l0,.06h0a.23.23,0,0,0,.07.07Z" transform="translate(0.58 0.25)"/><path class="cls-106" d="M249.89,82.65l-.07,24.92c-.52-.26-1-.54-1.53-.83a3.79,3.79,0,0,1-.34-.2l.07-25Z" transform="translate(0.58 0.25)"/><path class="cls-107" d="M251.08,82.37,251,108.13l-1.19-.56.07-24.92a1.08,1.08,0,0,0,1,0,.49.49,0,0,0,.15-.13.61.61,0,0,0,.05-.12h0Z" transform="translate(0.58 0.25)"/><path class="cls-105" d="M250.87,82.08c.28.16.28.41,0,.57a1.08,1.08,0,0,1-1,0L248,81.57a.3.3,0,0,1,0-.57,1.06,1.06,0,0,1,1,0Z" transform="translate(0.58 0.25)"/></g></g></g></svg>