<?xml version="1.0" encoding="utf-8"?>
<!-- Generator: Adobe Illustrator 22.0.0, SVG Export Plug-In . SVG Version: 6.00 Build 0)  -->
<svg version="1.1" id="Lager_1" xmlns="http://www.w3.org/2000/svg" xmlns:xlink="http://www.w3.org/1999/xlink" x="0px" y="0px"
	 viewBox="0 0 750 500" style="enable-background:new 0 0 750 500;" xml:space="preserve">
<style type="text/css">
	.st0{fill:none;stroke:#000000;stroke-width:2.03;stroke-linecap:round;stroke-linejoin:round;}
	.st1{fill:#979699;}
	.st2{fill:#BCBBBF;}
	.st3{fill:#333230;}
	.st4{fill:#232220;}
	.st5{fill:#737174;}
	.st6{fill:#939296;}
	.st7{fill:#E4E4E6;}
	.st8{fill:#B2B1B5;}
	.st9{fill:#686474;}
	.st10{fill:#FFFFFF;}
	.st11{fill:#BB3C88;}
	.st12{fill:#36C9A5;}
	.st13{fill:#FED22C;}
	.st14{fill:#D14B4B;}
	.st15{fill:#F7B92F;}
	.st16{fill:#8DEA34;}
	.st17{fill:#949397;}
	.st18{fill:#959498;}
	.st19{fill:#969599;}
	.st20{fill:#97969A;}
	.st21{fill:#98979B;}
	.st22{fill:#99989C;}
	.st23{fill:#9A999D;}
	.st24{fill:#9B9A9E;}
	.st25{fill:#9C9B9E;}
	.st26{fill:#9D9C9F;}
	.st27{fill:#9E9DA0;}
	.st28{fill:#9E9EA1;}
	.st29{fill:#9F9FA2;}
	.st30{fill:#A0A0A3;}
	.st31{fill:#A1A1A4;}
	.st32{fill:#A2A2A5;}
	.st33{fill:#A3A3A6;}
	.st34{fill:#A4A4A7;}
	.st35{fill:#A5A5A8;}
	.st36{fill:#A6A6A9;}
	.st37{fill:#A7A7AA;}
	.st38{fill:#A8A8AB;}
	.st39{fill:#A9A9AC;}
	.st40{fill:#AAAAAD;}
	.st41{fill:#ABABAE;}
	.st42{fill:#ACACAE;}
	.st43{fill:#ADADAF;}
	.st44{fill:#AEAEB0;}
	.st45{fill:#AFAFB1;}
	.st46{fill:#B0B0B2;}
	.st47{fill:#B1B1B3;}
	.st48{fill:#B2B2B4;}
	.st49{fill:#B3B3B5;}
	.st50{fill:#B3B3B6;}
	.st51{fill:#B4B4B7;}
	.st52{fill:#B5B5B8;}
	.st53{fill:#B6B6B9;}
	.st54{fill:#B7B7BA;}
	.st55{fill:#B8B8BB;}
	.st56{fill:#B9B9BC;}
	.st57{fill:#BABABD;}
	.st58{fill:#BBBBBD;}
	.st59{fill:#BCBCBE;}
	.st60{fill:#BDBDBF;}
	.st61{fill:#BEBEC0;}
	.st62{fill:#BFBFC1;}
	.st63{fill:#C0C0C2;}
	.st64{fill:#C1C1C3;}
	.st65{fill:#C2C2C4;}
	.st66{fill:#C3C3C5;}
	.st67{fill:#C4C4C6;}
	.st68{fill:#C5C5C7;}
	.st69{fill:#C6C6C8;}
	.st70{fill:#C7C7C9;}
	.st71{fill:#C8C8CA;}
	.st72{fill:#C8C9CB;}
	.st73{fill:#C9CACC;}
	.st74{fill:#CACBCD;}
	.st75{fill:#CBCCCD;}
	.st76{fill:#CCCDCE;}
	.st77{fill:#CDCECF;}
	.st78{fill:#CECFD0;}
	.st79{fill:#CFD0D1;}
	.st80{fill:#D0D1D2;}
	.st81{fill:#D1D2D3;}
	.st82{fill:#D2D3D4;}
	.st83{fill:#D3D4D5;}
	.st84{fill:#141414;}
	.st85{fill:url(#SVGID_1_);}
	.st86{fill:#171415;}
	.st87{fill:url(#SVGID_2_);}
	.st88{fill:#001611;}
	.st89{opacity:0.38;fill:#0C0816;enable-background:new    ;}
	.st90{fill:#FFB657;}
	.st91{fill:#CD2A01;}
	.st92{fill:#FEC377;}
	.st93{fill:#898890;}
	.st94{fill:#1D81CD;}
	.st95{fill:#77767E;}
	.st96{fill:#891D00;}
</style>
<title>ZelCore</title>
<g>
	<g id="Lines">
		<path class="st0" d="M208.1,292.5v22.1c0,3.7-1.9,7.1-5,9.1l-41.3,24.8c-3.6,2.5-3.3,6.3-0.3,8.5l83,54.6"/>
		<path class="st0" d="M527.1,424.9L315.6,296.6c-8.6-5.1-13.2-3.3-18.3-0.2l-28.8,18.4c-8.8,5.5-20,5.3-28.6-0.5l-90.4-62.1
			c-7.5-5.2-12-13.7-12-22.8v-14.6"/>
		<path class="st0" d="M208.1,292.5l54.5-31.3c7-4.5,13.9-3.9,20.3,0.4l129.8,80.3c6.8,3.8,14.8,2.5,21-1.1l29.4-17.8"/>
	</g>
	<g id="Tablet">
		<path class="st1" d="M358.5,395.4c0.1,1.6-0.7,3.1-2.7,4.3l-123,71c-4,2.3-11.1,2-15.7-0.6l-71.3-41.2c-2.6-1.5-3.9-3.4-3.9-5.2
			c0,3.1,1.6,5.9,4.2,7.5l71.3,41.2c4.7,2.7,11.7,3,15.7,0.6l123-71C359.2,400.2,359,397.4,358.5,395.4"/>
		<path class="st1" d="M358.1,393.9L358.1,393.9L358.1,393.9L358.1,393.9"/>
		<path class="st2" d="M217.1,470l-71.4-41.2c-4.7-2.7-5.2-6.8-1.1-9.1l123-71c4-2.3,11.1-2,15.7,0.6l71.3,41.2
			c4.7,2.7,5.2,6.8,1.1,9.1l-123,71C228.8,473,221.8,472.7,217.1,470"/>
		<path class="st3" d="M354.3,398.9l-122.7,70.9c-3.3,1.9-9.1,1.7-12.9-0.5L147.1,428c-3.8-2.2-4.2-5.5-0.9-7.5l122.8-70.9
			c3.3-1.9,9.1-1.7,12.9,0.5l71.6,41.3C357.2,393.7,357.6,397,354.3,398.9"/>
		<polygon class="st4" points="340.9,395.6 225.8,462 157.2,422.4 272.2,356 		"/>
		<path class="st5" d="M239.7,460.5l-6,3.5c-0.6,0.3-1.3,0.2-1.9-0.1c-0.6-0.3-0.6-0.8-0.1-1.1l6-3.5c0.6-0.3,1.3-0.3,1.9,0.1
			C240.1,459.7,240.2,460.2,239.7,460.5"/>
		<path class="st5" d="M250.5,454.2l-6,3.5c-0.6,0.3-1.3,0.2-1.9-0.1c-0.6-0.3-0.6-0.8-0.1-1.1l6-3.5c0.6-0.3,1.3-0.2,1.9,0.1
			C250.9,453.5,251,454,250.5,454.2"/>
		<path class="st5" d="M261.3,448l-6,3.5c-0.6,0.3-1.3,0.2-1.9-0.1c-0.6-0.3-0.6-0.8-0.1-1.1l6-3.5c0.6-0.3,1.3-0.2,1.9,0.1
			C261.7,447.2,261.8,447.7,261.3,448"/>
		<path class="st5" d="M272,441.8l-6,3.5c-0.6,0.3-1.3,0.3-1.9-0.1c-0.5-0.3-0.6-0.8-0.1-1.1l6-3.5c0.6-0.3,1.3-0.2,1.9,0.1
			C272.5,441,272.5,441.5,272,441.8"/>
	</g>
	<g id="Phone">
		<path class="st6" d="M651.8,446.5v-0.1l0,0C651.8,446.4,651.8,446.5,651.8,446.5"/>
		<path class="st6" d="M651.8,446.5c-0.1,0.7-0.5,1.4-1.2,1.7l-43.8,25.3c-1.8,0.9-4,0.9-5.8,0l-86.1-49.7c-0.7-0.3-1.3-0.9-1.6-1.6
			c-0.3,1.9,0.4,5.5,1.6,6.2l86.1,49.7c1.8,0.9,4,0.9,5.8,0l43.8-25.3C652,451.9,651.8,447.4,651.8,446.5"/>
		<path class="st7" d="M650.6,448.2l-43.8,25.3c-1.8,0.9-4,0.9-5.8,0l-86.1-49.7c-1.6-0.9-2.2-2.1-1.2-2.7l42.6-24.6
			c4-2.3,6.6-2.3,8.2-1.4l86,49.7C652.2,445.8,652.2,447.3,650.6,448.2"/>
		<path class="st3" d="M592.8,466.5L519.3,424c-0.5-0.3-0.6-0.7-0.1-1l43.9-25.4c0.5-0.2,1.2-0.2,1.7,0.1l73.5,42.5
			c0.5,0.3,0.6,0.7,0.1,1l-43.9,25.4C594,466.8,593.4,466.7,592.8,466.5"/>
		<path class="st8" d="M622.8,460.9c-1.3,0-2.6-0.3-3.7-0.9c-1-0.4-1.6-1.4-1.7-2.5c0.1-1.1,0.7-2,1.7-2.5c2.4-1.2,5.1-1.2,7.5,0
			c1.4,0.5,2.1,2,1.6,3.4c-0.3,0.7-0.8,1.3-1.6,1.6C625.4,460.6,624.1,460.9,622.8,460.9 M622.9,455.2c-1.1,0-2.2,0.2-3.2,0.8
			c-0.6,0.3-1.1,0.9-1.2,1.5c0.1,0.7,0.5,1.3,1.2,1.5c2,1,4.4,1,6.4,0c0.9-0.3,1.3-1.1,1.1-2c-0.2-0.5-0.6-0.9-1.1-1.1
			C625,455.5,623.9,455.2,622.9,455.2"/>
		<path class="st9" d="M542.8,407.8l-7.2,4.2c-0.5,0.2-1.2,0.2-1.7-0.1c-0.5-0.3-0.5-0.7-0.1-1l7.2-4.2c0.5-0.2,1.2-0.2,1.7,0.1
			C543.2,407.1,543.2,407.5,542.8,407.8"/>
	</g>
	<g id="Console">
		<path class="st3" d="M218.1,15.8c4-2.3,7.2-0.4,7.2,4.1l0.4,147.2c-0.3,5-2.9,9.6-7.2,12.4L46.7,278.8c-4,2.3-7.2,0.5-7.2-4.1
			l-0.4-147.2c0.3-5,2.9-9.6,7.2-12.4L218.1,15.8z"/>
		<path class="st10" d="M221.7,20c0-0.5-0.1-1-0.3-1.5h-0.1c-0.5,0-1,0.2-1.4,0.5L48,118.2c-3.1,2.1-5.1,5.5-5.4,9.3v18.5
			L221.8,42.7L221.7,20z"/>
		<path class="st10" d="M207.8,108c1-0.6,1.9-0.1,1.9,1.1c-0.1,1.3-0.8,2.5-1.9,3.2L159.8,140c-1,0.6-1.9,0.1-1.9-1.1
			c0.1-1.3,0.8-2.5,1.9-3.2L207.8,108z"/>
		<path class="st10" d="M207.8,89c1-0.6,1.9-0.1,1.9,1.1c-0.1,1.3-0.8,2.5-1.9,3.2L159.7,121c-1,0.6-1.9,0.1-1.9-1.1
			c0.1-1.3,0.8-2.5,1.9-3.2L207.8,89z"/>
		<path class="st10" d="M152.2,140.1c1-0.6,1.9-0.1,1.9,1.1c-0.1,1.3-0.8,2.5-1.9,3.2l-23.1,13.4c-1,0.6-1.9,0.1-1.9-1.1
			c0.1-1.3,0.8-2.5,1.9-3.2L152.2,140.1z"/>
		<path class="st11" d="M170.4,119.6c1-0.6,1.9-0.1,1.9,1.1c-0.1,1.3-0.8,2.5-1.9,3.2l-41.4,23.9c-1,0.6-1.9,0.1-1.9-1.1
			c0.1-1.3,0.8-2.5,1.9-3.2L170.4,119.6z"/>
		<path class="st10" d="M121.7,157.7c1-0.6,1.9-0.1,1.9,1.1c-0.1,1.3-0.8,2.5-1.9,3.2l-9.9,5.7c-1,0.6-1.9,0.1-1.9-1.1
			c0.1-1.3,0.8-2.5,1.9-3.2L121.7,157.7z"/>
		<path class="st12" d="M121.8,166.7c1-0.6,1.9-0.1,1.9,1.1c-0.1,1.3-0.8,2.5-1.9,3.2l-37.1,21.4c-1,0.6-1.9,0.1-1.9-1.1
			c0.1-1.3,0.8-2.5,1.9-3.2L121.8,166.7z"/>
		<path class="st13" d="M121.7,147.7c1-0.6,1.9-0.1,1.9,1.1c-0.1,1.3-0.8,2.5-1.9,3.2l-37.1,21.4c-1,0.6-1.9,0.1-1.9-1.1
			c0.1-1.3,0.8-2.5,1.9-3.2L121.7,147.7z"/>
		<path class="st12" d="M77.8,192.1c1-0.6,1.9-0.1,1.9,1.1c-0.1,1.3-0.8,2.5-1.9,3.2l-16.9,9.8c-1,0.6-1.9,0.1-1.9-1.1
			c0.1-1.3,0.8-2.5,1.9-3.2L77.8,192.1z"/>
		<path class="st10" d="M105.1,167.3c1-0.6,1.9-0.1,1.9,1.1c-0.1,1.3-0.8,2.5-1.9,3.2l-44.2,25.5c-1,0.6-1.9,0.1-1.9-1.1
			c0.1-1.3,0.8-2.5,1.9-3.2L105.1,167.3z"/>
		<path class="st13" d="M77.8,173.1c1-0.6,1.9-0.1,1.9,1.1c-0.1,1.3-0.8,2.5-1.9,3.2l-16.9,9.8c-1,0.6-1.9,0.1-1.9-1.1
			c0.1-1.3,0.8-2.5,1.9-3.2L77.8,173.1z"/>
		<path class="st12" d="M105,148.2c1-0.6,1.9-0.1,1.9,1.1c-0.1,1.3-0.8,2.5-1.9,3.2l-44.2,25.5c-1,0.6-1.9,0.1-1.9-1.1
			c0.1-1.3,0.8-2.5,1.9-3.2L105,148.2z"/>
		<path class="st10" d="M152.2,121.1c1-0.6,1.9-0.1,1.9,1.1c-0.1,1.3-0.8,2.5-1.9,3.2l-23.1,13.4c-1,0.6-1.9,0.1-1.9-1.1
			c0.1-1.3,0.8-2.5,1.9-3.2L152.2,121.1z"/>
		<path class="st11" d="M208.2,97.8c0.8-0.5,1.5-0.1,1.5,0.9v0.9c-0.1,1.1-0.6,2-1.5,2.6l-30.3,17.5c-0.8,0.5-1.5,0.1-1.5-0.9v-0.9
			c0.1-1.1,0.6-2,1.5-2.6L208.2,97.8z"/>
		<path class="st14" d="M55.4,122.6c1.7-1,3.2-0.2,3.2,1.8c-0.1,2.2-1.3,4.2-3.1,5.4c-1.7,1-3.2,0.2-3.2-1.8
			C52.4,125.8,53.5,123.8,55.4,122.6z"/>
		<path class="st15" d="M66.1,116.3c1.7-1,3.2-0.2,3.2,1.8c-0.1,2.2-1.3,4.2-3.1,5.4c-1.7,1-3.2,0.2-3.2-1.8
			C63.1,119.6,64.3,117.6,66.1,116.3z"/>
		<path class="st16" d="M76.9,110.2c1.7-1,3.2-0.2,3.2,1.8c-0.1,2.2-1.3,4.2-3.1,5.4c-1.7,1-3.2,0.2-3.2-1.8
			C73.8,113.4,75,111.4,76.9,110.2z"/>
		<g id="ZelCore">
			<g>
				<polygon class="st10" points="106.4,125 109.3,125.3 109.3,129.1 106.5,132.6 103.7,132.3 103.6,128.6 				"/>
				<polygon class="st10" points="102.3,123.6 105.9,124 105.9,125.3 103.3,128.5 103.3,131.9 102.3,133.2 101.3,133.1 101.3,129.7
					98.7,129.4 98.7,128.1 				"/>
			</g>
			<polygon class="st10" points="98.2,129.8 101,130.1 101,133.9 98.2,137.4 95.3,137.1 95.3,133.4 			"/>
			<path class="st10" d="M102.3,118.6c5.3-3.1,9.7-0.6,9.7,5.5c0,6.1-4.3,13.6-9.6,16.7s-9.7,0.6-9.7-5.5S97,121.6,102.3,118.6z
				 M102.3,139.9c4.9-2.8,8.9-9.8,8.9-15.4s-4-8-9-5.1s-8.9,9.8-8.9,15.4S97.3,142.8,102.3,139.9"/>
			<path class="st4" d="M102.3,119.4c4.9-2.8,9-0.6,9,5.1c0,5.6-4,12.6-8.9,15.4s-9,0.6-9-5.1S97.3,122.2,102.3,119.4z M103.3,131.9
				v-3.4l2.6-3.2V124l-3.6-0.3l-3.6,4.5v1.3l2.6,0.2v3.4l1,0.1L103.3,131.9 M100.9,133.9v-3.8l-2.8-0.3l-2.8,3.5v3.8l2.8,0.2
				L100.9,133.9 M106.4,132.6l2.8-3.5v-3.8l-2.8-0.3l-2.8,3.5v3.8L106.4,132.6"/>
			<path class="st10" d="M163.8,88.9c-0.1,0.1-0.2,0.1-0.4,0.2c-0.4,0.2-0.7,0.5-1.1,0.8c-0.6,0.6-1.1,1.2-1.5,1.9
				c-0.2,0.3-0.4,0.7-0.5,1c-0.1,0.3-0.3,0.7-0.4,1c-0.1,0.3-0.2,0.7-0.2,1c0,0.4-0.1,0.8-0.1,1.2v6.7l-0.8,0.5V90.9l0.8-0.5v2.7
				h0.1c0.1-0.5,0.3-1,0.5-1.4c0.3-0.5,0.6-1,0.9-1.4c0.4-0.5,0.8-0.9,1.2-1.3c0.4-0.3,0.8-0.6,1.2-0.9l0.2-0.1L163.8,88.9z"/>
			<path class="st10" d="M171.9,86.7c0.2,0.7,0.3,1.4,0.3,2.2c0,0.1,0,0.2,0,0.3s0,0.2,0,0.3l-8.6,5v0.1c0,0.6,0.1,1.3,0.3,1.9
				c0.1,0.5,0.4,0.9,0.7,1.3c0.3,0.3,0.8,0.5,1.2,0.5c0.6,0,1.2-0.2,1.7-0.6c1-0.6,1.9-1.4,2.5-2.4c0.6-1.1,1.1-2.2,1.3-3.4l0.8-0.4
				c-0.2,1.5-0.7,2.9-1.5,4.2c-0.8,1.2-1.8,2.2-3.1,2.9c-0.6,0.4-1.3,0.6-2.1,0.7c-0.5,0-1.1-0.1-1.5-0.5c-0.4-0.4-0.7-0.9-0.9-1.5
				c-0.2-0.8-0.3-1.5-0.3-2.3c0-1.8,0.4-3.6,1.2-5.2c0.4-0.8,0.9-1.6,1.5-2.3c0.6-0.7,1.3-1.3,2.1-1.8c0.6-0.4,1.3-0.6,2-0.7
				c0.5,0,1,0.1,1.4,0.5C171.5,85.7,171.8,86.2,171.9,86.7z M163.6,93.6l7.8-4.5c0-0.6-0.1-1.2-0.3-1.7c-0.1-0.4-0.4-0.8-0.7-1.2
				c-0.3-0.3-0.8-0.4-1.2-0.4c-0.6,0-1.1,0.2-1.6,0.5c-0.6,0.4-1.2,0.8-1.7,1.4c-1,1.1-1.7,2.4-2,3.8
				C163.7,92.2,163.6,92.9,163.6,93.6"/>
			<path class="st10" d="M156.7,93.7c0.5,0.4,0.8,0.9,1,1.5c0.2,0.7,0.3,1.5,0.3,2.3c0,0.9-0.1,1.8-0.3,2.7
				c-0.2,0.9-0.5,1.8-0.9,2.6c-0.4,0.8-0.9,1.6-1.5,2.3c-0.6,0.7-1.3,1.3-2.1,1.7c-0.6,0.4-1.4,0.6-2.1,0.7c-0.6,0-1.1-0.2-1.5-0.5
				c-0.5-0.4-0.8-0.9-0.9-1.5c-0.2-0.7-0.3-1.5-0.3-2.3c0-0.9,0.1-1.8,0.3-2.7c0.2-0.9,0.5-1.8,0.9-2.6c0.4-0.8,0.9-1.6,1.5-2.3
				c0.6-0.7,1.3-1.3,2.1-1.7c0.6-0.4,1.4-0.6,2.1-0.7C155.8,93.2,156.3,93.4,156.7,93.7z M157,100.2c0.4-1.4,0.4-2.8,0-4.2
				c-0.1-0.5-0.4-1-0.8-1.3c-0.3-0.3-0.8-0.5-1.3-0.5c-0.6,0-1.2,0.2-1.8,0.6c-0.7,0.4-1.3,0.9-1.8,1.5c-0.5,0.6-0.9,1.3-1.3,2
				c-0.3,0.7-0.6,1.5-0.8,2.2c-0.4,1.4-0.4,2.8,0,4.2c0.1,0.5,0.4,1,0.8,1.3c0.4,0.3,0.8,0.5,1.3,0.5c0.6,0,1.2-0.2,1.8-0.6
				c0.7-0.4,1.3-0.9,1.8-1.5c0.5-0.6,0.9-1.3,1.3-2C156.5,101.7,156.8,101,157,100.2"/>
			<path class="st10" d="M146.7,107.4c0.2-0.6,0.3-1.2,0.4-1.8l0.8-0.5c-0.1,0.8-0.2,1.5-0.5,2.3c-0.5,1.4-1.3,2.7-2.4,3.7
				c-0.5,0.5-1,0.9-1.6,1.2c-0.7,0.4-1.4,0.7-2.2,0.8c-0.6,0-1.1-0.2-1.5-0.6c-0.4-0.4-0.7-1-0.9-1.6c-0.2-0.8-0.3-1.5-0.3-2.3
				c0-1.8,0.4-3.6,1.2-5.2c0.4-0.8,0.9-1.6,1.5-2.2c0.6-0.7,1.3-1.3,2.1-1.7c0.5-0.3,1.1-0.5,1.6-0.7c0.4-0.1,0.9-0.1,1.4,0
				c0.4,0.1,0.8,0.4,1,0.7c0.3,0.5,0.4,1,0.5,1.5l-0.8,0.5c0-0.4-0.1-0.9-0.4-1.2c-0.2-0.3-0.5-0.5-0.8-0.6c-0.4-0.1-0.8-0.1-1.1,0
				c-0.5,0.1-0.9,0.3-1.3,0.5h-0.1c-0.7,0.4-1.3,0.9-1.8,1.5c-0.5,0.6-0.9,1.3-1.3,2c-0.3,0.7-0.6,1.5-0.8,2.2
				c-0.2,0.7-0.3,1.5-0.3,2.2c0,0.7,0.1,1.4,0.3,2.2c0.1,0.5,0.4,1,0.8,1.4c0.3,0.3,0.8,0.5,1.3,0.5c0.6-0.1,1.3-0.3,1.8-0.6
				c0.5-0.3,1-0.7,1.4-1.1C145.7,109.6,146.3,108.5,146.7,107.4L146.7,107.4z"/>
			<polygon class="st10" points="135.2,116.8 135.1,99.8 137.5,98.4 137.6,115.5 			"/>
			<path class="st10" d="M133.2,107.5c0.5,0.5,0.8,1.1,1,1.8c0.2,0.8,0.3,1.7,0.2,2.6l-7.9,4.6c0,0.4,0.1,0.9,0.2,1.3
				c0.1,0.3,0.3,0.6,0.5,0.9c0.3,0.2,0.6,0.3,0.9,0.3c0.5,0,0.9-0.2,1.3-0.4c0.7-0.4,1.2-0.9,1.7-1.5c0.5-0.6,0.8-1.3,1-2.1l2.2-1.3
				c-0.1,0.7-0.3,1.5-0.6,2.2c-0.3,0.7-0.7,1.4-1.1,2c-0.4,0.6-0.9,1.1-1.4,1.6c-0.5,0.5-1.1,0.9-1.7,1.2c-0.7,0.4-1.5,0.7-2.2,0.8
				c-0.6,0.1-1.2-0.1-1.7-0.4c-0.5-0.4-0.8-0.9-1-1.5c-0.3-0.8-0.4-1.6-0.4-2.4c0-0.9,0.1-1.8,0.4-2.7c0.2-0.9,0.6-1.8,1-2.7
				c0.4-0.9,1-1.6,1.6-2.4c0.6-0.7,1.3-1.3,2.2-1.8c0.7-0.4,1.5-0.7,2.3-0.7C132.2,106.9,132.8,107.1,133.2,107.5z M126.4,114.6
				l5.5-3.2c0-0.4-0.1-0.7-0.2-1.1c-0.1-0.3-0.3-0.5-0.5-0.7c-0.2-0.2-0.5-0.3-0.8-0.2c-0.4,0-0.8,0.1-1.1,0.4
				c-0.4,0.2-0.8,0.5-1.1,0.9c-0.3,0.4-0.6,0.8-0.9,1.2c-0.2,0.4-0.4,0.9-0.6,1.4C126.5,113.6,126.5,114.1,126.4,114.6"/>
			<polygon class="st10" points="123.6,113.1 117.5,124.9 123.9,121.2 123.9,123.3 114.5,128.8 114.5,126.9 120.4,115.2
				114.9,118.3 114.9,116.2 123.6,111.2 			"/>
		</g>
	</g>
	<g id="Laptop">
		<path class="st6" d="M373.3,146.1v123.1c0,3.6,3,4.9,6.6,2.8l67.7-39.1l131.3-75.8c3.6-2.1,6.6-6.8,6.6-10.4V23.6
			c0-3.6-3-4.9-6.6-2.8l-94.5,54.5l-104.5,60.3C376.3,137.8,373.3,142.5,373.3,146.1z"/>
		<path class="st17" d="M373.4,146.2v123.1c0,3.6,3,4.9,6.6,2.8l67.7-39.1l131.3-75.8c3.6-2.1,6.6-6.8,6.6-10.4V23.7
			c0-3.6-3-4.9-6.6-2.8l-94.5,54.5l-104.5,60.3C376.3,137.9,373.4,142.5,373.4,146.2z"/>
		<path class="st18" d="M373.4,146.2v123.1c0,3.6,3,4.9,6.6,2.8l67.7-39.1L579,157.2c3.6-2.1,6.6-6.8,6.6-10.4V23.7
			c0-3.6-3-4.9-6.6-2.8l-94.5,54.5L380,135.8C376.4,137.9,373.4,142.6,373.4,146.2z"/>
		<path class="st19" d="M373.4,146.2v123.1c0,3.6,3,4.9,6.6,2.8l67.7-39.1L579,157.2c3.6-2.1,6.6-6.8,6.6-10.4V23.7
			c0-3.6-3-4.9-6.6-2.8l-94.4,54.5L380,135.8C376.4,137.9,373.4,142.6,373.4,146.2z"/>
		<path class="st20" d="M373.4,146.2v123.1c0,3.6,3,4.9,6.6,2.8l67.7-39.1L579,157.2c3.6-2.1,6.6-6.8,6.6-10.4V23.7
			c0-3.6-3-4.9-6.6-2.8l-94.4,54.5L380,135.8C376.4,137.9,373.4,142.6,373.4,146.2z"/>
		<path class="st21" d="M373.5,146.2v123.1c0,3.6,3,4.9,6.6,2.8l67.7-39.1L579,157.2c3.6-2.1,6.6-6.8,6.6-10.4V23.8
			c0-3.6-3-4.9-6.6-2.8l-94.5,54.5l-104.5,60.3C376.4,137.9,373.5,142.6,373.5,146.2z"/>
		<path class="st22" d="M373.5,146.2v123.1c0,3.6,3,4.9,6.6,2.8l67.7-39.1l131.3-75.8c3.6-2.1,6.6-6.8,6.6-10.4V23.8
			c0-3.6-3-4.9-6.6-2.8l-94.5,54.5l-104.5,60.3C376.5,138,373.5,142.7,373.5,146.2z"/>
		<path class="st23" d="M373.6,146.3v123.1c0,3.6,3,4.9,6.6,2.8l67.7-39.1l131.3-75.8c3.6-2.1,6.6-6.8,6.6-10.4V23.8
			c0-3.6-3-4.9-6.6-2.8l-94.5,54.5l-104.5,60.4C376.5,138,373.6,142.7,373.6,146.3z"/>
		<path class="st24" d="M373.6,146.3v123.1c0,3.6,3,4.9,6.6,2.8l67.7-39.1l131.3-75.8c3.6-2.1,6.6-6.8,6.6-10.4V23.8
			c0-3.6-3-4.9-6.6-2.8l-94.5,54.5l-104.5,60.3C376.6,138,373.6,142.7,373.6,146.3z"/>
		<path class="st25" d="M373.6,146.4v123.1c0,3.6,3,4.9,6.6,2.8l67.7-39.1l131.3-75.8c3.6-2.1,6.6-6.8,6.6-10.4V23.9
			c0-3.6-3-4.9-6.6-2.8l-94.5,54.5L380.2,136C376.6,138.1,373.6,142.7,373.6,146.4z"/>
		<path class="st26" d="M373.6,146.4v123.1c0,3.6,3,4.9,6.6,2.8l67.7-39l131.3-75.8c3.6-2.1,6.6-6.8,6.6-10.4V23.9
			c0-3.6-3-4.9-6.6-2.8l-94.5,54.5L380.2,136C376.6,138.1,373.6,142.8,373.6,146.4z"/>
		<path class="st27" d="M373.7,146.4v123.1c0,3.6,3,4.9,6.6,2.8l67.7-39.1l131.3-75.8c3.6-2.1,6.6-6.8,6.6-10.4V23.9
			c0-3.6-3-4.9-6.6-2.8l-94.5,54.5L380.3,136C376.6,138.1,373.7,142.8,373.7,146.4z"/>
		<path class="st28" d="M373.7,146.4v123.1c0,3.6,3,4.9,6.6,2.8l67.7-39.1l131.3-75.8c3.6-2.1,6.6-6.8,6.6-10.4V23.9
			c0-3.6-3-4.9-6.6-2.8l-94.5,54.5L380.3,136C376.7,138.1,373.7,142.8,373.7,146.4z"/>
		<path class="st29" d="M373.7,146.5v123.1c0,3.6,3,4.9,6.6,2.8l67.7-39.1l131.3-75.8c3.6-2.1,6.6-6.8,6.6-10.4V24
			c0-3.6-3-4.9-6.6-2.8l-94.5,54.5l-104.5,60.3C376.7,138.1,373.7,142.8,373.7,146.5z"/>
		<path class="st30" d="M373.8,146.5v123.1c0,3.6,3,4.9,6.6,2.8l67.7-39.1l131.3-75.8c3.6-2.1,6.6-6.8,6.6-10.4V24
			c0-3.6-3-4.9-6.6-2.8l-94.5,54.5l-104.5,60.3C376.7,138.2,373.8,142.9,373.8,146.5z"/>
		<path class="st31" d="M373.8,146.5v123.1c0,3.6,3,4.9,6.6,2.8l67.7-39.1l131.3-75.8c3.6-2.1,6.6-6.8,6.6-10.4V24
			c0-3.6-3-4.9-6.6-2.8l-94.5,54.5l-104.5,60.3C376.8,138.2,373.8,142.9,373.8,146.5z"/>
		<path class="st32" d="M373.8,146.5v123.1c0,3.6,3,4.9,6.6,2.8l67.7-39.1l131.3-75.8c3.6-2.1,6.6-6.8,6.6-10.4V24
			c0-3.6-3-4.9-6.6-2.8l-94.5,54.5l-104.5,60.3C376.8,138.2,373.8,142.9,373.8,146.5z"/>
		<path class="st33" d="M373.8,146.6v123.1c0,3.6,3,4.9,6.6,2.8l67.7-39.1l131.3-75.8c3.6-2.1,6.6-6.8,6.6-10.4V24.1
			c0-3.6-3-4.9-6.6-2.8L485,75.8l-104.5,60.4C376.8,138.2,373.8,142.9,373.8,146.6z"/>
		<path class="st34" d="M373.9,146.6v123.1c0,3.6,3,4.9,6.6,2.8l67.7-39.1l131.3-75.8c3.6-2.1,6.6-6.8,6.6-10.4V24.1
			c0-3.6-3-4.9-6.6-2.8L485,75.8l-104.5,60.4C376.8,138.2,373.9,143,373.9,146.6z"/>
		<path class="st35" d="M373.9,146.6v123.1c0,3.6,3,4.9,6.6,2.8l67.7-39.1l131.3-75.8c3.6-2.1,6.6-6.8,6.6-10.4V24.1
			c0-3.6-3-4.9-6.6-2.8L485,75.9l-104.5,60.4C376.9,138.3,373.9,143,373.9,146.6z"/>
		<path class="st36" d="M373.9,146.6v123.1c0,3.6,3,4.9,6.6,2.8l67.7-39.1l131.3-75.8c3.6-2.1,6.6-6.8,6.6-10.4V24.1
			c0-3.6-3-4.9-6.6-2.8l-94.5,54.5l-104.5,60.4C376.9,138.3,373.9,143,373.9,146.6z"/>
		<path class="st37" d="M374,146.7v123.1c0,3.6,3,4.9,6.6,2.8l67.7-39.1l131.3-75.8c3.6-2.1,6.6-6.8,6.6-10.4V24.2
			c0-3.6-3-4.9-6.6-2.8l-94.5,54.5l-104.5,60.3C376.9,138.4,374,143,374,146.7z"/>
		<path class="st38" d="M374,146.7v123.1c0,3.6,3,4.9,6.6,2.8l67.7-39.1l131.3-75.8c3.6-2.1,6.6-6.8,6.6-10.4V24.2
			c0-3.6-3-4.9-6.6-2.8l-94.5,54.5l-104.5,60.3C377,138.4,374,143.1,374,146.7z"/>
		<path class="st39" d="M374,146.7v123.1c0,3.6,3,4.9,6.6,2.8l67.7-39.1l131.2-75.8c3.6-2.1,6.6-6.8,6.6-10.4V24.2
			c0-3.6-3-4.9-6.6-2.8L485.1,76l-104.5,60.3C377,138.4,374,143.1,374,146.7z"/>
		<path class="st40" d="M374.1,146.7v123.1c0,3.6,3,4.9,6.6,2.8l67.7-39.1l131.3-75.8c3.6-2.1,6.6-6.8,6.6-10.4V24.2
			c0-3.6-3-4.9-6.6-2.8L485.2,76l-104.5,60.3C377,138.4,374.1,143.1,374.1,146.7z"/>
		<path class="st41" d="M374.1,146.8v123.1c0,3.6,3,4.9,6.6,2.8l67.7-39.1l131.3-75.8c3.6-2.1,6.6-6.8,6.6-10.4V24.2
			c0-3.6-3-4.9-6.6-2.8L485.2,76l-104.5,60.3C377.1,138.4,374.1,143.1,374.1,146.8z"/>
		<path class="st42" d="M374.1,146.8v123.1c0,3.6,3,4.9,6.6,2.8l67.7-39.1l131.3-75.8c3.6-2.1,6.6-6.8,6.6-10.4V24.2
			c0-3.6-3-4.9-6.6-2.8L485.2,76l-104.5,60.3C377.1,138.5,374.1,143.2,374.1,146.8z"/>
		<path class="st43" d="M374.1,146.8v123.1c0,3.6,3,4.9,6.6,2.8l67.7-39.1l131.3-75.8c3.6-2.1,6.6-6.8,6.6-10.4V24.3
			c0-3.6-3-4.9-6.6-2.8l-94.5,54.5l-104.5,60.3C377.1,138.5,374.1,143.2,374.1,146.8z"/>
		<path class="st44" d="M374.2,146.8V270c0,3.6,3,4.9,6.6,2.8l67.7-39.1l131.3-75.8c3.6-2.1,6.6-6.8,6.6-10.4V24.3
			c0-3.6-3-4.9-6.6-2.8l-94.5,54.5l-104.5,60.4C377.1,138.5,374.2,143.2,374.2,146.8z"/>
		<path class="st45" d="M374.2,146.9V270c0,3.6,3,4.9,6.6,2.8l67.7-39.1l131.3-75.8c3.6-2.1,6.6-6.8,6.6-10.4V24.4
			c0-3.6-3-4.9-6.6-2.8l-94.5,54.5l-104.5,60.3C377.2,138.6,374.2,143.2,374.2,146.9z"/>
		<path class="st46" d="M374.2,146.9V270c0,3.6,3,4.9,6.6,2.8l67.7-39.1l131.3-75.8c3.6-2.1,6.6-6.8,6.6-10.4V24.4
			c0-3.6-3-4.9-6.6-2.8l-94.5,54.5l-104.5,60.4C377.2,138.6,374.2,143.2,374.2,146.9z"/>
		<path class="st47" d="M374.3,146.9V270c0,3.6,3,4.9,6.6,2.8l67.7-39.1l131.3-75.8c3.6-2.1,6.6-6.8,6.6-10.4V24.4
			c0-3.6-3-4.9-6.6-2.8l-94.5,54.5l-104.5,60.3C377.2,138.6,374.3,143.2,374.3,146.9z"/>
		<path class="st48" d="M374.3,146.9v123.1c0,3.6,3,4.9,6.6,2.8l67.7-39.1L579.9,158c3.6-2.1,6.6-6.8,6.6-10.4V24.4
			c0-3.6-3-4.9-6.6-2.8l-94.5,54.5l-104.5,60.3C377.3,138.6,374.3,143.3,374.3,146.9z"/>
		<path class="st49" d="M374.3,147v123.1c0,3.6,3,4.9,6.6,2.8l67.7-39.1L579.9,158c3.6-2.1,6.6-6.8,6.6-10.4V24.5
			c0-3.6-3-4.9-6.6-2.8l-94.5,54.6l-104.5,60.3C377.3,138.6,374.3,143.3,374.3,147z"/>
		<path class="st50" d="M374.4,147v123.1c0,3.6,3,4.9,6.6,2.8l67.7-39.1L579.9,158c3.6-2.1,6.6-6.8,6.6-10.4V24.5
			c0-3.6-3-4.9-6.6-2.8l-94.5,54.5L381,136.6C377.3,138.7,374.4,143.4,374.4,147z"/>
		<path class="st51" d="M374.4,147v123.1c0,3.6,3,4.9,6.6,2.8l67.7-39.1L580,158.1c3.6-2.1,6.6-6.8,6.6-10.4V24.5
			c0-3.6-3-4.9-6.6-2.8l-94.5,54.5L381,136.6C377.4,138.7,374.4,143.4,374.4,147z"/>
		<path class="st52" d="M374.4,147v123.1c0,3.6,3,4.9,6.6,2.8l67.7-39.1L580,158.1c3.6-2.1,6.6-6.8,6.6-10.4V24.5
			c0-3.6-3-4.9-6.6-2.8l-94.4,54.5L381,136.6C377.4,138.7,374.4,143.4,374.4,147z"/>
		<path class="st53" d="M374.5,147.1v123.1c0,3.6,3,4.9,6.6,2.8l67.7-39.1L580,158.1c3.6-2.1,6.6-6.8,6.6-10.4V24.6
			c0-3.6-3-4.9-6.6-2.8l-94.5,54.5L381,136.7C377.4,138.8,374.5,143.4,374.5,147.1z"/>
		<path class="st54" d="M374.5,147.1v123.2c0,3.6,3,4.9,6.6,2.8l67.7-39.1l131.3-75.8c3.6-2.1,6.6-6.8,6.6-10.4V24.6
			c0-3.6-3-4.9-6.6-2.8l-94.5,54.5l-104.5,60.4C377.5,138.8,374.5,143.5,374.5,147.1z"/>
		<path class="st55" d="M374.5,147.1v123.1c0,3.6,3,4.9,6.6,2.8l67.7-39.1l131.3-75.8c3.6-2.1,6.6-6.8,6.6-10.4V24.6
			c0-3.6-3-4.9-6.6-2.8l-94.5,54.5l-104.5,60.3C377.5,138.8,374.5,143.5,374.5,147.1z"/>
		<path class="st56" d="M374.6,147.1v123.1c0,3.6,3,4.9,6.6,2.8l67.7-39.1l131.3-75.8c3.6-2.1,6.6-6.8,6.6-10.4V24.6
			c0-3.6-3-4.9-6.6-2.8l-94.5,54.5l-104.5,60.4C377.5,138.8,374.6,143.5,374.6,147.1z"/>
		<path class="st57" d="M374.6,147.2v123.1c0,3.6,3,4.9,6.6,2.8l67.7-39.1l131.3-75.7c3.6-2.1,6.6-6.8,6.6-10.4V24.7
			c0-3.6-3-4.9-6.6-2.8l-94.5,54.5l-104.5,60.3C377.6,138.9,374.6,143.5,374.6,147.2z"/>
		<path class="st58" d="M374.6,147.2v123.1c0,3.6,3,4.9,6.6,2.8l67.7-39.1l131.3-75.8c3.6-2.1,6.6-6.8,6.6-10.4V24.7
			c0-3.6-3-4.9-6.6-2.8l-94.5,54.5l-104.5,60.3C377.6,138.9,374.6,143.6,374.6,147.2z"/>
		<path class="st59" d="M374.6,147.2v123.1c0,3.6,3,4.9,6.6,2.8l67.7-39.1l131.3-75.8c3.6-2.1,6.6-6.8,6.6-10.4V24.7
			c0-3.6-3-4.9-6.6-2.8l-94.5,54.5l-104.5,60.3C377.6,138.9,374.6,143.6,374.6,147.2z"/>
		<path class="st60" d="M374.7,147.2v123.1c0,3.6,3,4.9,6.6,2.8l67.7-39.1l131.3-75.8c3.6-2.1,6.6-6.8,6.6-10.4V24.7
			c0-3.6-3-4.9-6.6-2.8l-94.5,54.5l-104.5,60.3C377.6,138.9,374.7,143.6,374.7,147.2z"/>
		<path class="st61" d="M374.7,147.2v123.1c0,3.6,3,4.9,6.6,2.8l67.7-39.1l131.3-75.8c3.6-2.1,6.6-6.8,6.6-10.4V24.8
			c0-3.6-3-4.9-6.6-2.8l-94.5,54.5l-104.5,60.3C377.7,138.9,374.7,143.6,374.7,147.2z"/>
		<path class="st62" d="M374.7,147.2v123.2c0,3.6,3,4.9,6.6,2.8l67.7-39.1l131.3-75.8c3.6-2.1,6.6-6.8,6.6-10.4V24.8
			c0-3.6-3-4.9-6.6-2.8l-94.5,54.5l-104.5,60.3C377.7,139,374.7,143.7,374.7,147.2z"/>
		<path class="st63" d="M374.8,147.3v123.1c0,3.6,3,4.9,6.6,2.8l67.7-39.1l131.3-75.8c3.6-2.1,6.6-6.8,6.6-10.4V24.8
			c0-3.6-3-4.9-6.6-2.8l-94.5,54.5l-104.5,60.3C377.7,139,374.8,143.7,374.8,147.3z"/>
		<path class="st64" d="M374.8,147.3v123.1c0,3.6,3,4.9,6.6,2.8l67.7-39.1l131.3-75.8c3.6-2.1,6.6-6.8,6.6-10.4V24.8
			c0-3.6-3-4.9-6.6-2.8l-94.5,54.5l-104.5,60.4C377.8,139,374.8,143.7,374.8,147.3z"/>
		<path class="st65" d="M374.8,147.4v123.1c0,3.6,3,4.9,6.6,2.8l67.7-39.1l131.3-75.8c3.6-2.1,6.6-6.8,6.6-10.4V24.9
			c0-3.6-3-4.9-6.6-2.8l-94.5,54.5L381.4,137C377.8,139.1,374.8,143.7,374.8,147.4z"/>
		<path class="st66" d="M374.8,147.4v123.1c0,3.6,3,4.9,6.6,2.8l67.7-39.1l131.3-75.8c3.6-2.1,6.6-6.8,6.6-10.4V24.9
			c0-3.6-3-4.9-6.6-2.8L486,76.6L381.4,137C377.8,139.1,374.8,143.8,374.8,147.4z"/>
		<path class="st67" d="M374.9,147.4v123.1c0,3.6,3,4.9,6.6,2.8l67.7-39.1l131.3-75.8c3.6-2.1,6.6-6.8,6.6-10.4V24.9
			c0-3.6-3-4.9-6.6-2.8L486,76.7L381.5,137C377.8,139.1,374.9,143.8,374.9,147.4z"/>
		<path class="st68" d="M374.9,147.4v123.1c0,3.6,3,4.9,6.6,2.8l67.7-39.1l131.3-75.8c3.6-2.1,6.6-6.8,6.6-10.4V24.9
			c0-3.6-3-4.9-6.6-2.8L486,76.7L381.5,137C377.9,139.1,374.9,143.8,374.9,147.4z"/>
		<path class="st69" d="M374.9,147.5v123.1c0,3.6,3,4.9,6.6,2.8l67.7-39.1l131.3-75.8c3.6-2.1,6.6-6.8,6.6-10.4V25
			c0-3.6-3-4.9-6.6-2.8l-94.5,54.5l-104.5,60.4C377.9,139.2,374.9,143.8,374.9,147.5z"/>
		<path class="st70" d="M375,147.5v123.1c0,3.6,3,4.9,6.6,2.8l67.7-39.1l131.3-75.8c3.6-2.1,6.6-6.8,6.6-10.4V25
			c0-3.6-3-4.9-6.6-2.8l-94.5,54.5l-104.5,60.3C377.9,139.2,375,143.9,375,147.5z"/>
		<path class="st71" d="M375,147.5v123.1c0,3.6,3,4.9,6.6,2.8l67.7-39.1l131.3-75.8c3.6-2.1,6.6-6.8,6.6-10.4V25
			c0-3.6-3-4.9-6.6-2.8l-94.5,54.5l-104.5,60.3C378,139.2,375,143.9,375,147.5z"/>
		<path class="st72" d="M375,147.5v123.1c0,3.6,3,4.9,6.6,2.8l67.7-39.1l131.2-75.8c3.6-2.1,6.6-6.8,6.6-10.4V25
			c0-3.6-3-4.9-6.6-2.8l-94.4,54.5l-104.5,60.3C378,139.2,375,143.9,375,147.5z"/>
		<path class="st73" d="M375.1,147.6v123.1c0,3.6,3,4.9,6.6,2.8l67.7-39.1l131.3-75.8c3.6-2.1,6.6-6.8,6.6-10.4V25.1
			c0-3.6-3-4.9-6.6-2.8l-94.5,54.5l-104.5,60.3C378,139.2,375.1,143.9,375.1,147.6z"/>
		<path class="st74" d="M375.1,147.6v123.1c0,3.6,3,4.9,6.6,2.8l67.7-39.1l131.3-75.8c3.6-2.1,6.6-6.8,6.6-10.4V25.1
			c0-3.6-3-4.9-6.6-2.8l-94.4,54.5l-104.5,60.4C378.1,139.2,375.1,144,375.1,147.6z"/>
		<path class="st75" d="M375.1,147.6v123.1c0,3.6,3,4.9,6.6,2.8l67.7-39.1l131.3-75.8c3.6-2.1,6.6-6.8,6.6-10.4V25.1
			c0-3.6-3-4.9-6.6-2.8l-94.5,54.5l-104.5,60.4C378.1,139.3,375.1,144,375.1,147.6z"/>
		<path class="st76" d="M375.2,147.6v123.1c0,3.6,3,4.9,6.6,2.8l67.7-39.1l131.3-75.8c3.6-2.1,6.6-6.8,6.6-10.4V25.1
			c0-3.6-3-4.9-6.6-2.8l-94.5,54.5l-104.5,60.3C378.1,139.3,375.2,144,375.2,147.6z"/>
		<path class="st77" d="M375.2,147.7v123.1c0,3.6,3,4.9,6.6,2.8l67.7-39.1l131.3-75.8c3.6-2.1,6.6-6.8,6.6-10.4V25.2
			c0-3.6-3-4.9-6.6-2.8l-94.5,54.5l-104.5,60.3C378.2,139.4,375.2,144,375.2,147.7z"/>
		<path class="st78" d="M375.2,147.7v123.1c0,3.6,3,4.9,6.6,2.8l67.8-39.1l131.3-75.8c3.6-2.1,6.6-6.8,6.6-10.4V25.2
			c0-3.6-3-4.9-6.6-2.8l-94.5,54.5l-104.5,60.3C378.2,139.4,375.2,144.1,375.2,147.7z"/>
		<path class="st79" d="M375.2,147.7v123.1c0,3.6,3,4.9,6.6,2.8l67.7-39.1l131.2-75.8c3.6-2.1,6.6-6.8,6.6-10.4V25.2
			c0-3.6-3-4.9-6.6-2.8L486.4,77l-104.5,60.4C378.2,139.4,375.2,144.1,375.2,147.7z"/>
		<path class="st80" d="M375.3,147.7v123.1c0,3.6,3,4.9,6.6,2.8l67.7-39.1l131.3-75.8c3.6-2.1,6.6-6.8,6.6-10.4V25.2
			c0-3.6-3-4.9-6.6-2.8L486.4,77l-104.5,60.3C378.2,139.4,375.3,144.1,375.3,147.7z"/>
		<path class="st81" d="M375.3,147.8v123.1c0,3.6,3,4.9,6.6,2.8l67.7-39.1l131.3-75.8c3.6-2.1,6.6-6.8,6.6-10.4V25.2
			c0-3.6-3-4.9-6.6-2.8L486.4,77l-104.5,60.3C378.3,139.5,375.3,144.1,375.3,147.8z"/>
		<path class="st82" d="M375.3,147.8v123.1c0,3.6,3,4.9,6.6,2.8l67.7-39.1l131.3-75.8c3.6-2.1,6.6-6.8,6.6-10.4V25.3
			c0-3.6-3-4.9-6.6-2.8l-94.5,54.5l-104.5,60.3C378.3,139.5,375.3,144.2,375.3,147.8z"/>
		<path class="st83" d="M375.4,147.8v123.1c0,3.6,3,4.9,6.6,2.8l67.7-39.1L581,158.9c3.6-2.1,6.6-6.8,6.6-10.4V25.3
			c0-3.6-3-4.9-6.6-2.8l-94.5,54.5L382,137.4C378.3,139.5,375.4,144.2,375.4,147.8z"/>
		<polygon class="st84" points="381.4,148.5 381.4,267.2 582.6,150.1 582.7,32.1 		"/>
		<path class="st3" d="M582,32.8c0.8-0.5,1.4-0.1,1.4,0.8l0.3,115.2c-0.1,1-0.6,1.9-1.4,2.5L382.6,266.6c-0.8,0.5-1.4,0.1-1.4-0.8
			l-0.3-115.2c0-1,0.6-1.9,1.4-2.5L582,32.8z"/>

			<linearGradient id="SVGID_1_" gradientUnits="userSpaceOnUse" x1="-1943.0858" y1="-1784.6058" x2="-1945.7457" y2="-1781.9458" gradientTransform="matrix(-1 0.58 0 -1 -1462.0601 -571.36)">
			<stop  offset="0" style="stop-color:#616161"/>
			<stop  offset="0.58" style="stop-color:#000000"/>
		</linearGradient>
		<path class="st85" d="M479.6,86.7c0.1-1.2,0.8-2.4,1.9-3c1-0.6,1.9-0.2,1.9,0.8c-0.1,1.2-0.8,2.4-1.9,3
			C480.4,88.1,479.6,87.7,479.6,86.7z"/>
		<path class="st86" d="M479.8,86.2c0.1-0.7,0.4-1.3,1-1.7c0.6-0.3,1-0.1,1,0.4c-0.1,0.7-0.5,1.3-1,1.7
			C480.3,87,479.8,86.8,479.8,86.2z"/>
		<path class="st7" d="M380.6,276.7v0.4c0.1,1.5,1.1,3.1,3.2,4.3l122.8,70.9c4.8,2.4,10.5,2.4,15.3,0l198.4-114.5
			c2-1.2,3.1-2.7,3.2-4.3v-0.3c-0.1-1.5-1.1-3.1-3.2-4.2l-122.7-70.9c-4.8-2.4-10.5-2.4-15.3,0L383.8,272.5
			C381.8,273.6,380.7,275.1,380.6,276.7z"/>
		<path class="st2" d="M407.2,275.3c0.3,0.9,0.9,1.7,1.8,2.1l70.1,40.5c2.8,1.4,6.2,1.4,9,0l175.4-101.2c0.9-0.4,1.5-1.2,1.8-2.1
			c0.2-1.1-0.3-2.2-1.8-3.1L593.4,171c-2.8-1.4-6.2-1.4-9,0L409,272.2C407.6,273.1,407,274.2,407.2,275.3z"/>

			<linearGradient id="SVGID_2_" gradientUnits="userSpaceOnUse" x1="547.077" y1="222.22" x2="645.8348" y2="222.22" gradientTransform="matrix(1 0 0 -1 0.58 502.25)">
			<stop  offset="0" style="stop-color:#000000"/>
			<stop  offset="0.13" style="stop-color:#050207"/>
			<stop  offset="0.32" style="stop-color:#13081B"/>
			<stop  offset="0.54" style="stop-color:#29123B"/>
			<stop  offset="0.79" style="stop-color:#482067"/>
			<stop  offset="1" style="stop-color:#662D91"/>
		</linearGradient>
		<path class="st87" d="M547.7,286.7c0.1,0.4,0.4,0.7,0.8,0.9l35.4,20.5c1.3,0.7,2.8,0.7,4.1,0l57.6-33.2c0.4-0.2,0.7-0.5,0.8-0.9
			c0.2-0.5-0.1-1.1-0.8-1.5L610.2,252c-1.3-0.7-2.8-0.7-4.1,0l-57.6,33.2C547.8,285.6,547.6,286.2,547.7,286.7z"/>
		<path class="st2" d="M547.7,286.7c0.1,0.4,0.4,0.7,0.8,0.9l35.4,20.5c1.3,0.7,2.8,0.7,4.1,0l57.6-33.2c0.5-0.1,0.9-0.5,0.8-1
			c0-0.4-0.4-0.8-0.8-0.8l-35.4-20.4c-1.3-0.7-2.8-0.7-4.1,0l-57.6,33.2C548.1,286,547.8,286.3,547.7,286.7z"/>
		<g>
			<path class="st88" d="M432.2,287.5c-0.6,0.3-1.4,0.3-2,0l-8.5-4.9c-0.3-0.1-0.5-0.4-0.4-0.8c0.1-0.2,0.2-0.3,0.4-0.4l10.5-6.1
				c0.6-0.3,1.4-0.3,2,0l8.5,4.9c0.3,0.1,0.5,0.4,0.4,0.8c-0.1,0.2-0.2,0.3-0.4,0.4L432.2,287.5z"/>
			<path class="st88" d="M587.9,197.6c-0.6,0.3-1.4,0.3-2,0l-8.5-4.9c-0.3-0.1-0.5-0.4-0.4-0.8c0.1-0.2,0.2-0.3,0.4-0.4l22.4-12.9
				c0.6-0.3,1.4-0.3,2,0l8.5,4.9c0.3,0.1,0.5,0.4,0.4,0.8c-0.1,0.2-0.2,0.3-0.4,0.4L587.9,197.6z"/>
			<path class="st88" d="M605.4,201c-0.6,0.3-1.4,0.3-2,0l-8.5-4.9c-0.3-0.1-0.5-0.4-0.4-0.8c0.1-0.2,0.2-0.3,0.4-0.4l16.5-9.5
				c0.6-0.3,1.4-0.3,2,0l8.5,4.9c0.3,0.1,0.5,0.4,0.4,0.8c-0.1,0.2-0.2,0.3-0.4,0.4L605.4,201z"/>
			<path class="st88" d="M608.6,213.1c-0.6,0.3-1.4,0.3-2,0l-8.6-4.9c-0.3-0.1-0.5-0.4-0.4-0.8c0.1-0.2,0.2-0.3,0.4-0.4l25.4-14.7
				c0.6-0.3,1.4-0.3,2,0l8.5,4.9c0.3,0.1,0.5,0.4,0.4,0.8c-0.1,0.2-0.2,0.3-0.4,0.4L608.6,213.1z"/>
			<path class="st88" d="M614.8,223.6c-0.6,0.3-1.4,0.3-2,0l-8.5-4.9c-0.3-0.1-0.5-0.4-0.4-0.8c0.1-0.2,0.2-0.3,0.4-0.4l31.3-18.1
				c0.6-0.3,1.4-0.3,2,0l8.5,4.9c0.3,0.1,0.5,0.5,0.4,0.8c-0.1,0.2-0.2,0.3-0.4,0.4L614.8,223.6z"/>
			<path class="st88" d="M443.9,294.2c-0.6,0.3-1.4,0.3-2,0l-8.5-4.9c-0.3-0.1-0.5-0.4-0.4-0.8c0.1-0.2,0.2-0.3,0.4-0.4l16.5-9.5
				c0.6-0.3,1.4-0.3,2,0l8.5,4.9c0.3,0.1,0.5,0.4,0.4,0.8c-0.1,0.2-0.2,0.3-0.4,0.4L443.9,294.2z"/>
			<path class="st88" d="M455.6,301c-0.6,0.3-1.4,0.3-2,0l-8.5-4.9c-0.3-0.1-0.5-0.4-0.4-0.8c0.1-0.2,0.2-0.3,0.4-0.4l19.5-11.2
				c0.6-0.3,1.4-0.3,2,0l8.5,4.9c0.3,0.1,0.5,0.4,0.4,0.8c-0.1,0.2-0.2,0.3-0.4,0.4L455.6,301z"/>
			<path class="st88" d="M467.3,307.8c-0.6,0.3-1.4,0.3-2,0l-8.5-4.9c-0.3-0.1-0.5-0.4-0.4-0.8c0.1-0.2,0.2-0.3,0.4-0.4l25.3-14.6
				c0.6-0.3,1.4-0.3,2,0l8.5,4.9c0.3,0.1,0.5,0.4,0.4,0.8c-0.1,0.2-0.2,0.3-0.4,0.4L467.3,307.8z"/>
			<path class="st88" d="M479,314.5c-0.6,0.3-1.4,0.3-2,0l-8.5-4.9c-0.3-0.1-0.5-0.4-0.4-0.8c0.1-0.2,0.2-0.3,0.4-0.4l13.4-7.7
				c0.6-0.3,1.4-0.3,2,0l8.5,4.9c0.3,0.1,0.5,0.4,0.4,0.8c-0.1,0.2-0.2,0.3-0.4,0.4L479,314.5z"/>
			<path class="st88" d="M530.8,284.6c-0.6,0.3-1.4,0.3-2,0l-8.5-4.9c-0.3-0.1-0.5-0.4-0.4-0.7c0.1-0.2,0.2-0.3,0.4-0.4l55.9-32.3
				c0.6-0.3,1.4-0.3,2,0l8.5,4.9c0.3,0.1,0.5,0.4,0.4,0.8c-0.1,0.2-0.2,0.3-0.4,0.4L530.8,284.6z"/>
			<path class="st88" d="M420.6,280.8c-0.6,0.3-1.4,0.3-2,0l-6.4-3.7c-0.3-0.1-0.5-0.4-0.4-0.8c0.1-0.2,0.2-0.3,0.4-0.4l8-4.6
				c0.6-0.3,1.4-0.3,2,0l6.4,3.7c0.3,0.1,0.5,0.5,0.4,0.8c-0.1,0.2-0.2,0.3-0.4,0.4L420.6,280.8z"/>
			<path class="st88" d="M431.6,274.4c-0.6,0.3-1.4,0.3-2,0l-6.4-3.7c-0.3-0.1-0.5-0.4-0.4-0.8c0.1-0.2,0.2-0.3,0.4-0.4l8-4.6
				c0.6-0.3,1.4-0.3,2,0l6.4,3.7c0.3,0.1,0.5,0.5,0.4,0.8c-0.1,0.2-0.2,0.3-0.4,0.4L431.6,274.4z"/>
			<path class="st88" d="M442.2,268.2c-0.6,0.3-1.4,0.3-2,0l-6.4-3.7c-0.3-0.1-0.5-0.4-0.4-0.8c0.1-0.2,0.2-0.3,0.4-0.4l8-4.6
				c0.6-0.3,1.4-0.3,2,0l6.4,3.7c0.3,0.1,0.5,0.4,0.4,0.8c-0.1,0.2-0.2,0.3-0.4,0.4L442.2,268.2z"/>
			<path class="st88" d="M452.7,262.2c-0.6,0.3-1.4,0.3-2,0l-6.4-3.7c-0.3-0.1-0.5-0.5-0.4-0.8c0.1-0.2,0.2-0.3,0.4-0.4l8-4.6
				c0.6-0.3,1.4-0.3,2,0l6.4,3.7c0.3,0.1,0.5,0.4,0.4,0.8c-0.1,0.2-0.2,0.3-0.4,0.4L452.7,262.2z"/>
			<path class="st88" d="M463.2,256.1c-0.6,0.3-1.4,0.3-2,0l-6.4-3.7c-0.3-0.1-0.5-0.4-0.4-0.8c0.1-0.2,0.2-0.3,0.4-0.4l8-4.6
				c0.6-0.3,1.4-0.3,2,0l6.4,3.7c0.3,0.1,0.5,0.4,0.4,0.8c-0.1,0.2-0.2,0.3-0.4,0.4L463.2,256.1z"/>
			<path class="st88" d="M473.8,250c-0.6,0.3-1.4,0.3-2,0l-6.4-3.7c-0.3-0.1-0.5-0.4-0.4-0.8c0.1-0.2,0.2-0.3,0.4-0.4l8-4.6
				c0.6-0.3,1.4-0.3,2,0l6.4,3.7c0.3,0.1,0.5,0.4,0.4,0.8c-0.1,0.2-0.2,0.3-0.4,0.4L473.8,250z"/>
			<path class="st88" d="M484.3,243.9c-0.6,0.3-1.4,0.3-2,0l-6.4-3.7c-0.3-0.1-0.5-0.4-0.4-0.8c0.1-0.2,0.2-0.3,0.4-0.4l8-4.6
				c0.6-0.3,1.4-0.3,2,0l6.4,3.7c0.3,0.1,0.5,0.4,0.4,0.8c-0.1,0.2-0.2,0.3-0.4,0.4L484.3,243.9z"/>
			<path class="st88" d="M494.9,237.8c-0.6,0.3-1.4,0.3-2,0l-6.4-3.7c-0.3-0.1-0.5-0.4-0.4-0.8c0.1-0.2,0.2-0.3,0.4-0.4l8-4.6
				c0.6-0.3,1.4-0.3,2,0l6.4,3.7c0.3,0.1,0.5,0.4,0.4,0.8c-0.1,0.2-0.2,0.3-0.4,0.4L494.9,237.8z"/>
			<path class="st88" d="M505.4,231.8c-0.6,0.3-1.4,0.3-2,0l-6.4-3.7c-0.3-0.1-0.5-0.4-0.4-0.8c0.1-0.2,0.2-0.3,0.4-0.4l8-4.6
				c0.6-0.3,1.4-0.3,2,0l6.4,3.7c0.3,0.1,0.5,0.4,0.4,0.7c-0.1,0.2-0.2,0.3-0.4,0.4L505.4,231.8z"/>
			<path class="st88" d="M516,225.7c-0.6,0.3-1.4,0.3-2,0l-6.4-3.7c-0.3-0.1-0.5-0.4-0.4-0.8c0.1-0.2,0.2-0.3,0.4-0.4l8-4.6
				c0.6-0.3,1.4-0.3,2,0l6.4,3.7c0.3,0.1,0.5,0.4,0.4,0.8c-0.1,0.2-0.2,0.3-0.4,0.4L516,225.7z"/>
			<path class="st88" d="M526.5,219.6c-0.6,0.3-1.4,0.3-2,0l-6.4-3.7c-0.3-0.1-0.5-0.4-0.4-0.8c0.1-0.2,0.2-0.3,0.4-0.4l7.9-4.6
				c0.6-0.3,1.4-0.3,2,0l6.4,3.7c0.3,0.1,0.5,0.4,0.4,0.8c-0.1,0.2-0.2,0.3-0.4,0.4L526.5,219.6z"/>
			<path class="st88" d="M537,213.5c-0.6,0.3-1.4,0.3-2,0l-6.5-3.7c-0.3-0.1-0.5-0.4-0.4-0.8c0.1-0.2,0.2-0.3,0.4-0.4l7.9-4.6
				c0.6-0.3,1.4-0.3,2,0l6.4,3.7c0.3,0.1,0.5,0.4,0.4,0.8c-0.1,0.2-0.2,0.3-0.4,0.4L537,213.5z"/>
			<path class="st88" d="M547.6,207.4c-0.6,0.3-1.4,0.3-2,0l-6.4-3.7c-0.3-0.1-0.5-0.4-0.4-0.8c0.1-0.2,0.2-0.3,0.4-0.4l8-4.6
				c0.6-0.3,1.4-0.3,2,0l6.4,3.7c0.3,0.1,0.5,0.4,0.4,0.8c-0.1,0.2-0.2,0.3-0.4,0.4L547.6,207.4z"/>
			<path class="st88" d="M559,200.8c-0.6,0.3-1.4,0.3-2,0l-6.4-3.7c-0.3-0.1-0.5-0.4-0.4-0.8c0.1-0.2,0.2-0.3,0.4-0.4l8-4.6
				c0.6-0.3,1.4-0.3,2,0l6.4,3.7c0.3,0.1,0.5,0.4,0.4,0.8c-0.1,0.2-0.2,0.3-0.4,0.4L559,200.8z"/>
			<path class="st88" d="M569.6,194.7c-0.6,0.3-1.4,0.3-2,0l-6.4-3.7c-0.3-0.1-0.5-0.4-0.4-0.8c0.1-0.2,0.2-0.3,0.4-0.4l8-4.6
				c0.6-0.3,1.4-0.3,2,0l6.4,3.7c0.3,0.1,0.5,0.4,0.4,0.8c-0.1,0.2-0.2,0.3-0.4,0.4L569.6,194.7z"/>
			<path class="st88" d="M580.1,188.6c-0.6,0.3-1.4,0.3-2,0l-6.4-3.7c-0.3-0.1-0.5-0.4-0.4-0.8c0.1-0.2,0.2-0.3,0.4-0.4l8-4.6
				c0.6-0.3,1.4-0.3,2,0l6.4,3.7c0.3,0.1,0.5,0.4,0.4,0.8c-0.1,0.2-0.2,0.3-0.4,0.4L580.1,188.6z"/>
			<path class="st88" d="M590.6,182.6c-0.6,0.3-1.4,0.3-2,0l-6.4-3.7c-0.3-0.1-0.5-0.4-0.4-0.8c0.1-0.2,0.2-0.3,0.4-0.4l8-4.6
				c0.6-0.3,1.4-0.3,2,0l6.4,3.7c0.3,0.1,0.5,0.4,0.4,0.8c-0.1,0.2-0.2,0.3-0.4,0.4L590.6,182.6z"/>
			<path class="st88" d="M445.9,279.6c-0.6,0.3-1.4,0.3-2,0l-8.5-4.9c-0.3-0.1-0.5-0.4-0.4-0.8c0.1-0.2,0.2-0.3,0.4-0.4l8.5-4.9
				c0.6-0.3,1.4-0.3,2,0l8.5,4.9c0.3,0.1,0.5,0.4,0.4,0.8c-0.1,0.2-0.2,0.3-0.4,0.4L445.9,279.6z"/>
			<path class="st88" d="M469.6,265.9c-0.6,0.3-1.4,0.3-2,0L459,261c-0.3-0.1-0.5-0.4-0.4-0.8c0.1-0.2,0.2-0.3,0.4-0.4l8.5-4.9
				c0.6-0.3,1.4-0.3,2,0l8.5,4.9c0.3,0.1,0.5,0.4,0.4,0.8c-0.1,0.2-0.2,0.3-0.4,0.4L469.6,265.9z"/>
			<path class="st88" d="M457.8,272.8c-0.6,0.3-1.4,0.3-2,0l-8.5-4.9c-0.3-0.1-0.5-0.4-0.4-0.8c0.1-0.2,0.2-0.3,0.4-0.4l8.5-4.9
				c0.6-0.3,1.4-0.3,2,0l8.5,4.9c0.3,0.1,0.5,0.4,0.4,0.8c-0.1,0.2-0.2,0.3-0.4,0.4L457.8,272.8z"/>
			<path class="st88" d="M481.5,259.1c-0.6,0.3-1.4,0.3-2,0l-8.5-4.9c-0.3-0.1-0.5-0.4-0.4-0.8c0.1-0.2,0.2-0.3,0.4-0.4l8.5-4.9
				c0.6-0.3,1.4-0.3,2,0l8.5,4.9c0.3,0.1,0.5,0.4,0.4,0.8c-0.1,0.2-0.2,0.3-0.4,0.4L481.5,259.1z"/>
			<path class="st88" d="M493.3,252.2c-0.6,0.3-1.4,0.3-2,0l-8.6-5c-0.3-0.1-0.5-0.4-0.4-0.8c0.1-0.2,0.2-0.3,0.4-0.4l8.5-4.9
				c0.6-0.3,1.4-0.3,2,0l8.5,4.9c0.3,0.1,0.5,0.4,0.4,0.8c-0.1,0.2-0.2,0.3-0.4,0.4L493.3,252.2z"/>
			<path class="st88" d="M505.2,245.4c-0.6,0.3-1.4,0.3-2,0l-8.5-4.9c-0.3-0.1-0.5-0.4-0.4-0.8c0.1-0.2,0.2-0.3,0.4-0.4l8.5-4.9
				c0.6-0.3,1.4-0.3,2,0l8.5,4.9c0.3,0.1,0.5,0.4,0.4,0.8c-0.1,0.2-0.2,0.3-0.4,0.4L505.2,245.4z"/>
			<path class="st88" d="M517,238.5c-0.6,0.3-1.4,0.3-2,0l-8.6-4.9c-0.3-0.1-0.5-0.4-0.4-0.8c0.1-0.2,0.2-0.3,0.4-0.4l8.6-4.9
				c0.6-0.3,1.4-0.3,2,0l8.5,4.9c0.3,0.1,0.5,0.4,0.4,0.8c-0.1,0.2-0.2,0.3-0.4,0.4L517,238.5z"/>
			<path class="st88" d="M528.9,231.7c-0.6,0.3-1.4,0.3-2,0l-8.5-4.9c-0.3-0.1-0.5-0.4-0.4-0.8c0.1-0.2,0.2-0.3,0.4-0.4l8.5-4.9
				c0.6-0.3,1.4-0.3,2,0l8.5,4.9c0.3,0.1,0.5,0.4,0.4,0.8c-0.1,0.2-0.2,0.3-0.4,0.4L528.9,231.7z"/>
			<path class="st88" d="M540.8,224.8c-0.6,0.3-1.4,0.3-2,0l-8.5-4.9c-0.3-0.1-0.5-0.4-0.4-0.8c0.1-0.2,0.2-0.3,0.4-0.4l8.5-4.9
				c0.6-0.3,1.4-0.3,2,0l8.5,4.9c0.3,0.1,0.5,0.4,0.4,0.8c-0.1,0.2-0.2,0.3-0.4,0.4L540.8,224.8z"/>
			<path class="st88" d="M552.6,218c-0.6,0.3-1.4,0.3-2,0l-8.5-4.9c-0.3-0.1-0.5-0.4-0.4-0.7c0.1-0.2,0.2-0.3,0.4-0.4l8.5-4.9
				c0.6-0.3,1.4-0.3,2,0l8.5,4.9c0.3,0.1,0.5,0.5,0.4,0.8c-0.1,0.2-0.2,0.3-0.4,0.4L552.6,218z"/>
			<path class="st88" d="M564.5,211.1c-0.6,0.3-1.4,0.3-2,0l-8.6-4.9c-0.3-0.1-0.5-0.4-0.4-0.8c0.1-0.2,0.2-0.3,0.4-0.4l8.5-4.9
				c0.6-0.3,1.4-0.3,2,0l8.5,4.9c0.3,0.1,0.5,0.4,0.4,0.8c-0.1,0.2-0.2,0.3-0.4,0.4L564.5,211.1z"/>
			<path class="st88" d="M576.4,204.3c-0.6,0.3-1.4,0.3-2,0l-8.5-4.9c-0.3-0.1-0.5-0.4-0.4-0.8c0.1-0.2,0.2-0.3,0.4-0.4l8.5-4.9
				c0.6-0.3,1.4-0.3,2,0l8.5,4.9c0.3,0.1,0.5,0.4,0.4,0.8c-0.1,0.2-0.2,0.3-0.4,0.4L576.4,204.3z"/>
			<path class="st88" d="M463.4,283c-0.6,0.3-1.4,0.3-2,0l-8.5-4.9c-0.3-0.1-0.5-0.4-0.4-0.8c0.1-0.2,0.2-0.3,0.4-0.4l8.5-4.9
				c0.6-0.3,1.4-0.3,2,0l8.5,4.9c0.3,0.1,0.5,0.4,0.4,0.8c-0.1,0.2-0.2,0.3-0.4,0.4L463.4,283z"/>
			<path class="st88" d="M475.3,276.1c-0.6,0.3-1.4,0.3-2,0l-8.5-4.9c-0.3-0.1-0.5-0.4-0.4-0.7c0.1-0.2,0.2-0.3,0.4-0.4l8.5-4.9
				c0.6-0.3,1.4-0.3,2,0l8.5,4.9c0.3,0.1,0.5,0.4,0.4,0.7c-0.1,0.2-0.2,0.3-0.4,0.4L475.3,276.1z"/>
			<path class="st88" d="M487.2,269.2c-0.6,0.3-1.4,0.3-2,0l-8.6-4.9c-0.3-0.1-0.5-0.4-0.4-0.8c0.1-0.2,0.2-0.3,0.4-0.4l8.5-4.9
				c0.6-0.3,1.4-0.3,2,0l8.5,4.9c0.3,0.1,0.5,0.4,0.4,0.8c-0.1,0.2-0.2,0.3-0.4,0.4L487.2,269.2z"/>
			<path class="st88" d="M499,262.4c-0.6,0.3-1.4,0.3-2,0l-8.5-4.9c-0.3-0.1-0.5-0.4-0.4-0.8c0.1-0.2,0.2-0.3,0.4-0.4l8.5-4.9
				c0.6-0.3,1.4-0.3,2,0l8.5,4.9c0.3,0.1,0.5,0.4,0.4,0.8c-0.1,0.2-0.2,0.3-0.4,0.4L499,262.4z"/>
			<path class="st88" d="M510.9,255.6c-0.6,0.3-1.4,0.3-2,0l-8.5-4.9c-0.3-0.1-0.5-0.4-0.4-0.8c0.1-0.2,0.2-0.3,0.4-0.4l8.5-4.9
				c0.6-0.3,1.4-0.3,2,0l8.6,4.9c0.3,0.1,0.5,0.4,0.4,0.8c-0.1,0.2-0.2,0.3-0.4,0.4L510.9,255.6z"/>
			<path class="st88" d="M522.7,248.7c-0.6,0.3-1.4,0.3-2,0l-8.5-4.9c-0.3-0.1-0.5-0.4-0.4-0.8c0.1-0.2,0.2-0.3,0.4-0.4l8.5-4.9
				c0.6-0.3,1.4-0.3,2,0l8.5,4.9c0.3,0.1,0.5,0.4,0.4,0.8c-0.1,0.2-0.2,0.3-0.4,0.4L522.7,248.7z"/>
			<path class="st88" d="M534.6,241.9c-0.6,0.3-1.4,0.3-2,0L524,237c-0.3-0.1-0.5-0.4-0.4-0.8c0.1-0.2,0.2-0.3,0.4-0.4l8.5-4.9
				c0.6-0.3,1.4-0.3,2,0l8.5,4.9c0.3,0.1,0.5,0.4,0.4,0.8c-0.1,0.2-0.2,0.3-0.4,0.4L534.6,241.9z"/>
			<path class="st88" d="M546.5,235.1c-0.6,0.3-1.4,0.3-2,0l-8.5-4.9c-0.3-0.1-0.5-0.4-0.4-0.8c0.1-0.2,0.2-0.3,0.4-0.4l8.5-4.9
				c0.6-0.3,1.4-0.3,2,0l8.5,4.9c0.3,0.1,0.5,0.4,0.4,0.8c-0.1,0.2-0.2,0.3-0.4,0.4L546.5,235.1z"/>
			<path class="st88" d="M558.3,228.2c-0.6,0.3-1.4,0.3-2,0l-8.6-5c-0.3-0.1-0.5-0.4-0.4-0.8c0.1-0.2,0.2-0.3,0.4-0.4l8.5-4.9
				c0.6-0.3,1.4-0.3,2,0l8.5,4.9c0.3,0.1,0.5,0.4,0.4,0.8c-0.1,0.2-0.2,0.3-0.4,0.4L558.3,228.2z"/>
			<path class="st88" d="M570.2,221.4c-0.6,0.3-1.4,0.3-2,0l-8.6-4.9c-0.3-0.1-0.5-0.4-0.4-0.8c0.1-0.2,0.2-0.3,0.4-0.4l8.5-4.9
				c0.6-0.3,1.4-0.3,2,0l8.5,4.9c0.3,0.1,0.5,0.4,0.4,0.8c-0.1,0.2-0.2,0.3-0.4,0.4L570.2,221.4z"/>
			<path class="st88" d="M582,214.5c-0.6,0.3-1.4,0.3-2,0l-8.5-4.9c-0.3-0.1-0.5-0.4-0.4-0.8c0.1-0.2,0.2-0.3,0.4-0.4l8.5-4.9
				c0.6-0.3,1.4-0.3,2,0l8.5,4.9c0.3,0.1,0.5,0.4,0.4,0.8c-0.1,0.2-0.2,0.3-0.4,0.4L582,214.5z"/>
			<path class="st88" d="M593.9,207.7c-0.6,0.3-1.4,0.3-2,0l-8.5-4.9c-0.3-0.1-0.5-0.4-0.4-0.8c0.1-0.2,0.2-0.3,0.4-0.4l8.5-4.9
				c0.6-0.3,1.4-0.3,2,0l8.5,4.9c0.3,0.1,0.5,0.4,0.4,0.8c-0.1,0.2-0.2,0.3-0.4,0.4L593.9,207.7z"/>
			<path class="st88" d="M478.1,288.5c-0.6,0.3-1.4,0.3-2,0l-8.5-4.9c-0.3-0.1-0.5-0.4-0.4-0.8c0.1-0.2,0.2-0.3,0.4-0.4l8.5-4.9
				c0.6-0.3,1.4-0.3,2,0l8.5,4.9c0.3,0.1,0.5,0.4,0.4,0.8c-0.1,0.2-0.2,0.3-0.4,0.4L478.1,288.5z"/>
			<path class="st88" d="M489.9,281.7c-0.6,0.3-1.4,0.3-2,0l-8.5-4.9c-0.3-0.1-0.5-0.4-0.4-0.8c0.1-0.2,0.2-0.3,0.4-0.4l8.5-4.9
				c0.6-0.3,1.4-0.3,2,0l8.5,4.9c0.3,0.1,0.5,0.4,0.4,0.8c-0.1,0.2-0.2,0.3-0.4,0.4L489.9,281.7z"/>
			<path class="st88" d="M501.8,274.8c-0.6,0.3-1.4,0.3-2,0l-8.5-4.9c-0.3-0.1-0.5-0.4-0.4-0.8c0.1-0.2,0.2-0.3,0.4-0.4l8.5-4.9
				c0.6-0.3,1.4-0.3,2,0l8.5,4.9c0.3,0.1,0.5,0.4,0.4,0.8c-0.1,0.2-0.2,0.3-0.4,0.4L501.8,274.8z"/>
			<path class="st88" d="M513.7,268c-0.6,0.3-1.4,0.3-2,0l-8.5-4.9c-0.3-0.1-0.5-0.5-0.4-0.8c0.1-0.2,0.2-0.3,0.4-0.4l8.5-4.9
				c0.6-0.3,1.4-0.3,2,0l8.5,4.9c0.3,0.1,0.5,0.5,0.4,0.8c-0.1,0.2-0.2,0.3-0.4,0.4L513.7,268z"/>
			<path class="st88" d="M525.5,261.1c-0.6,0.3-1.4,0.3-2,0l-8.5-4.9c-0.3-0.1-0.5-0.4-0.4-0.8c0.1-0.2,0.2-0.3,0.4-0.4l8.5-4.9
				c0.6-0.3,1.4-0.3,2,0l8.5,4.9c0.3,0.1,0.5,0.4,0.4,0.8c-0.1,0.2-0.2,0.3-0.4,0.4L525.5,261.1z"/>
			<path class="st88" d="M537.4,254.2c-0.6,0.3-1.4,0.3-2,0l-8.5-4.9c-0.3-0.1-0.5-0.4-0.4-0.8c0.1-0.2,0.2-0.3,0.4-0.4l8.5-4.9
				c0.6-0.3,1.4-0.3,2,0l8.5,4.9c0.3,0.1,0.5,0.4,0.4,0.8c-0.1,0.2-0.2,0.3-0.4,0.4L537.4,254.2z"/>
			<path class="st88" d="M549.2,247.4c-0.6,0.3-1.4,0.3-2,0l-8.5-4.9c-0.3-0.1-0.5-0.4-0.4-0.8c0.1-0.2,0.2-0.3,0.4-0.4l8.5-4.9
				c0.6-0.3,1.4-0.3,2,0l8.5,4.9c0.3,0.1,0.5,0.4,0.4,0.8c-0.1,0.2-0.2,0.3-0.4,0.4L549.2,247.4z"/>
			<path class="st88" d="M561.1,240.6c-0.6,0.3-1.4,0.3-2,0l-8.5-4.9c-0.3-0.1-0.5-0.4-0.4-0.8c0.1-0.2,0.2-0.3,0.4-0.4l8.5-4.9
				c0.6-0.3,1.4-0.3,2,0l8.5,4.9c0.3,0.1,0.5,0.4,0.4,0.8c-0.1,0.2-0.2,0.3-0.4,0.4L561.1,240.6z"/>
			<path class="st88" d="M572.9,233.8c-0.6,0.3-1.4,0.3-2,0l-8.5-4.9c-0.3-0.1-0.5-0.4-0.4-0.8c0.1-0.2,0.2-0.3,0.4-0.4l8.5-4.9
				c0.6-0.3,1.4-0.3,2,0l8.5,4.9c0.3,0.1,0.5,0.4,0.4,0.8c-0.1,0.2-0.2,0.3-0.4,0.4L572.9,233.8z"/>
			<path class="st88" d="M584.8,226.9c-0.6,0.3-1.4,0.3-2,0l-8.5-4.9c-0.3-0.1-0.5-0.4-0.4-0.8c0.1-0.2,0.2-0.3,0.4-0.4l8.5-4.9
				c0.6-0.3,1.4-0.3,2,0l8.5,4.9c0.3,0.1,0.5,0.4,0.4,0.8c-0.1,0.2-0.2,0.3-0.4,0.4L584.8,226.9z"/>
			<path class="st88" d="M596.7,220.1c-0.6,0.3-1.4,0.3-2,0l-8.5-4.9c-0.3-0.1-0.5-0.4-0.4-0.8c0.1-0.2,0.2-0.3,0.4-0.4l8.5-4.9
				c0.6-0.3,1.4-0.3,2,0l8.5,4.9c0.3,0.1,0.5,0.4,0.4,0.8c-0.1,0.2-0.2,0.3-0.4,0.4L596.7,220.1z"/>
			<path class="st88" d="M507.6,284.5c-0.6,0.3-1.4,0.3-2,0l-8.5-4.9c-0.3-0.1-0.5-0.4-0.4-0.8c0.1-0.2,0.2-0.3,0.4-0.4l8.5-4.9
				c0.6-0.3,1.4-0.3,2,0l8.6,4.9c0.3,0.1,0.5,0.4,0.4,0.8c-0.1,0.2-0.2,0.3-0.4,0.4L507.6,284.5z"/>
			<path class="st88" d="M519.5,277.6c-0.6,0.3-1.4,0.3-2,0l-8.5-4.9c-0.3-0.1-0.5-0.4-0.4-0.8c0.1-0.2,0.2-0.3,0.4-0.4l8.5-4.9
				c0.6-0.3,1.4-0.3,2,0l8.5,4.9c0.3,0.1,0.5,0.4,0.4,0.8c-0.1,0.2-0.2,0.3-0.4,0.4L519.5,277.6z"/>
			<path class="st88" d="M495.2,305.2c-0.6,0.3-1.4,0.3-2,0l-8.6-4.9c-0.3-0.1-0.5-0.4-0.4-0.8c0.1-0.2,0.2-0.3,0.4-0.4l8.5-4.9
				c0.6-0.3,1.4-0.3,2,0l8.5,4.9c0.3,0.1,0.5,0.4,0.4,0.8c-0.1,0.2-0.2,0.3-0.4,0.4L495.2,305.2z"/>
			<path class="st88" d="M507,298.3c-0.6,0.3-1.4,0.3-2,0l-8.5-4.9c-0.3-0.1-0.5-0.4-0.4-0.8c0.1-0.2,0.2-0.3,0.4-0.4l8.5-4.9
				c0.6-0.3,1.4-0.3,2,0l8.5,5c0.3,0.1,0.5,0.4,0.4,0.8c-0.1,0.2-0.2,0.3-0.4,0.4L507,298.3z"/>
			<path class="st88" d="M518.9,291.5c-0.6,0.3-1.4,0.3-2,0l-8.6-4.9c-0.3-0.1-0.5-0.4-0.4-0.8c0.1-0.2,0.2-0.3,0.4-0.4l8.6-4.9
				c0.6-0.3,1.4-0.3,2,0l8.5,4.9c0.3,0.1,0.5,0.4,0.4,0.8c-0.1,0.2-0.2,0.3-0.4,0.4L518.9,291.5z"/>
			<path class="st88" d="M590.5,250.1c-0.6,0.3-1.4,0.3-2,0l-8.6-4.9c-0.3-0.1-0.5-0.4-0.4-0.8c0.1-0.2,0.2-0.3,0.4-0.4l8.5-4.9
				c0.6-0.3,1.4-0.3,2,0l8.5,4.9c0.3,0.1,0.5,0.4,0.4,0.8c-0.1,0.2-0.2,0.3-0.4,0.4L590.5,250.1z"/>
			<path class="st88" d="M602.3,243.2c-0.6,0.3-1.4,0.3-2,0l-8.5-4.9c-0.3-0.1-0.5-0.4-0.4-0.8c0.1-0.2,0.2-0.3,0.4-0.4l8.5-4.9
				c0.6-0.3,1.4-0.3,2,0l8.5,4.9c0.3,0.1,0.5,0.4,0.4,0.8c-0.1,0.2-0.2,0.3-0.4,0.4L602.3,243.2z"/>
			<path class="st88" d="M614.2,236.4c-0.6,0.3-1.4,0.3-2,0l-8.5-4.9c-0.3-0.1-0.5-0.4-0.4-0.8c0.1-0.2,0.2-0.3,0.4-0.4l8.5-4.9
				c0.6-0.3,1.4-0.3,2,0l8.5,4.9c0.3,0.1,0.5,0.4,0.4,0.8c-0.1,0.2-0.2,0.3-0.4,0.4L614.2,236.4z"/>
			<path class="st88" d="M635,222.1c-0.6,0.3-1.4,0.3-2,0l-6.5-3.8c-0.3-0.1-0.5-0.4-0.4-0.8c0.1-0.2,0.2-0.3,0.4-0.4l8.5-4.9
				c0.6-0.3,1.4-0.3,2,0l6.5,3.8c0.3,0.1,0.5,0.5,0.4,0.8c-0.1,0.2-0.2,0.3-0.4,0.4L635,222.1z"/>
			<path class="st88" d="M642.8,226.6c-0.6,0.3-1.4,0.3-2,0l-6.5-3.8c-0.3-0.1-0.5-0.4-0.4-0.8c0.1-0.2,0.2-0.3,0.4-0.4l8.5-4.9
				c0.6-0.3,1.4-0.3,2,0l6.5,3.8c0.3,0.1,0.5,0.4,0.4,0.8c-0.1,0.2-0.2,0.3-0.4,0.4L642.8,226.6z"/>
			<path class="st88" d="M631.4,233.2c-0.6,0.3-1.4,0.3-2,0l-6.5-3.8c-0.3-0.1-0.5-0.4-0.4-0.8c0.1-0.2,0.2-0.3,0.4-0.4l8.5-4.9
				c0.6-0.3,1.4-0.3,2,0l6.5,3.8c0.3,0.1,0.5,0.4,0.4,0.8c-0.1,0.2-0.2,0.3-0.4,0.4L631.4,233.2z"/>
			<path class="st88" d="M654.2,220c-0.6,0.3-1.4,0.3-2,0l-6.5-3.7c-0.3-0.1-0.5-0.4-0.4-0.8c0.1-0.2,0.2-0.3,0.4-0.4l8.5-4.9
				c0.6-0.3,1.4-0.3,2,0l6.5,3.8c0.3,0.1,0.5,0.4,0.4,0.8c-0.1,0.2-0.2,0.3-0.4,0.4L654.2,220z"/>
			<path class="st88" d="M531.4,270.8c-0.6,0.3-1.4,0.3-2,0l-8.5-4.9c-0.3-0.1-0.5-0.4-0.4-0.8c0.1-0.2,0.2-0.3,0.4-0.4l8.5-4.9
				c0.6-0.3,1.4-0.3,2,0l8.5,4.9c0.3,0.1,0.5,0.4,0.4,0.8c-0.1,0.2-0.2,0.3-0.4,0.4L531.4,270.8z"/>
			<path class="st88" d="M543.2,263.9c-0.6,0.3-1.4,0.3-2,0l-8.5-4.9c-0.3-0.1-0.5-0.4-0.4-0.8c0.1-0.2,0.2-0.3,0.4-0.4l8.5-4.9
				c0.6-0.3,1.4-0.3,2,0l8.5,4.9c0.3,0.1,0.5,0.4,0.4,0.8c-0.1,0.2-0.2,0.3-0.4,0.4L543.2,263.9z"/>
			<path class="st88" d="M555.1,257.1c-0.6,0.3-1.4,0.3-2,0l-8.5-4.9c-0.3-0.1-0.5-0.4-0.4-0.8c0.1-0.2,0.2-0.3,0.4-0.4l8.5-4.9
				c0.6-0.3,1.4-0.3,2,0l8.5,4.9c0.3,0.1,0.5,0.4,0.4,0.8c-0.1,0.2-0.2,0.3-0.4,0.4L555.1,257.1z"/>
			<path class="st88" d="M566.9,250.2c-0.6,0.3-1.4,0.3-2,0l-8.5-5c-0.3-0.1-0.5-0.5-0.4-0.8c0.1-0.2,0.2-0.3,0.4-0.4l8.5-4.9
				c0.6-0.3,1.4-0.3,2,0l8.5,4.9c0.3,0.1,0.5,0.5,0.4,0.8c-0.1,0.2-0.2,0.3-0.4,0.4L566.9,250.2z"/>
			<path class="st88" d="M578.8,243.4c-0.6,0.3-1.4,0.3-2,0l-8.5-4.9c-0.3-0.1-0.5-0.4-0.4-0.8c0.1-0.2,0.2-0.3,0.4-0.4l8.5-4.9
				c0.6-0.3,1.4-0.3,2,0l8.5,4.9c0.3,0.1,0.5,0.4,0.4,0.8c-0.1,0.2-0.2,0.3-0.4,0.4L578.8,243.4z"/>
			<path class="st88" d="M590.7,236.5c-0.6,0.3-1.4,0.3-2,0l-8.5-4.9c-0.3-0.1-0.5-0.4-0.4-0.8c0.1-0.2,0.2-0.3,0.4-0.4l8.5-4.9
				c0.6-0.3,1.4-0.3,2,0l8.5,4.9c0.3,0.1,0.5,0.4,0.4,0.8c-0.1,0.2-0.2,0.3-0.4,0.4L590.7,236.5z"/>
			<path class="st88" d="M602.5,229.7c-0.6,0.3-1.4,0.3-2,0l-8.5-4.9c-0.3-0.1-0.5-0.4-0.4-0.8c0.1-0.2,0.2-0.3,0.4-0.4l8.5-4.9
				c0.6-0.3,1.4-0.3,2,0l8.5,4.9c0.3,0.1,0.5,0.4,0.4,0.8c-0.1,0.2-0.2,0.3-0.4,0.4L602.5,229.7z"/>
			<path class="st88" d="M495.8,291.3c-0.6,0.3-1.4,0.3-2,0l-8.5-4.9c-0.3-0.1-0.5-0.4-0.4-0.8c0.1-0.2,0.2-0.3,0.4-0.4l8.5-5
				c0.6-0.3,1.4-0.3,2,0l8.5,4.9c0.3,0.1,0.5,0.4,0.4,0.8c-0.1,0.2-0.2,0.3-0.4,0.4L495.8,291.3z"/>
		</g>
		<path class="st3" d="M442,279.9c0.3,0.1,0.5,0.4,0.4,0.8c-0.1,0.2-0.2,0.3-0.4,0.4l-9.8,5.6c-0.6,0.3-1.4,0.3-2,0l-7.9-4.5
			c-0.3-0.1-0.5-0.4-0.4-0.8c0.1-0.2,0.2-0.3,0.4-0.4l9.8-5.6c0.6-0.3,1.4-0.3,2,0L442,279.9z"/>
		<path class="st3" d="M609.6,183.2c0.3,0.1,0.5,0.4,0.4,0.8c-0.1,0.2-0.2,0.3-0.4,0.4l-21.7,12.5c-0.6,0.3-1.4,0.3-2,0l-7.8-4.5
			c-0.3-0.1-0.5-0.4-0.4-0.8c0.1-0.2,0.2-0.3,0.4-0.4l21.7-12.5c0.6-0.3,1.4-0.3,2,0L609.6,183.2z"/>
		<path class="st3" d="M621.2,189.9c0.3,0.1,0.5,0.4,0.4,0.8c-0.1,0.2-0.2,0.3-0.4,0.4l-15.8,9.2c-0.6,0.3-1.4,0.3-2,0l-7.9-4.6
			c-0.3-0.1-0.5-0.4-0.4-0.8c0.1-0.2,0.2-0.3,0.4-0.4l15.8-9.1c0.6-0.3,1.4-0.3,2,0L621.2,189.9z"/>
		<path class="st3" d="M633.4,196.9c0.3,0.1,0.5,0.4,0.4,0.8c-0.1,0.2-0.2,0.3-0.4,0.4l-24.7,14.3c-0.6,0.3-1.4,0.3-2,0l-7.8-4.5
			c-0.3-0.1-0.5-0.4-0.4-0.8c0.1-0.2,0.2-0.3,0.4-0.4l24.7-14.3c0.6-0.3,1.4-0.3,2,0L633.4,196.9z"/>
		<path class="st3" d="M645.5,203.9c0.3,0.1,0.5,0.4,0.4,0.8c-0.1,0.2-0.2,0.3-0.4,0.4l-30.7,17.7c-0.6,0.3-1.4,0.3-2,0l-7.9-4.5
			c-0.3-0.1-0.5-0.4-0.4-0.8c0.1-0.2,0.2-0.3,0.4-0.4l30.6-17.7c0.6-0.3,1.4-0.3,2,0L645.5,203.9z"/>
		<path class="st3" d="M459.7,283.2c0.3,0.1,0.5,0.4,0.4,0.8c-0.1,0.2-0.2,0.3-0.4,0.4l-15.8,9.1c-0.6,0.3-1.4,0.3-2,0l-7.8-4.5
			c-0.3-0.1-0.5-0.4-0.4-0.8c0.1-0.2,0.2-0.3,0.4-0.4l15.8-9.1c0.6-0.3,1.4-0.3,2,0L459.7,283.2z"/>
		<path class="st3" d="M474.4,288.2c0.3,0.1,0.5,0.4,0.4,0.8c-0.1,0.2-0.2,0.3-0.4,0.4l-18.8,10.8c-0.6,0.3-1.4,0.3-2,0l-7.8-4.5
			c-0.3-0.1-0.5-0.4-0.4-0.8c0.1-0.2,0.2-0.3,0.4-0.4l18.8-10.8c0.6-0.3,1.4-0.3,2,0L474.4,288.2z"/>
		<path class="st3" d="M491.9,291.6c0.3,0.1,0.5,0.4,0.4,0.8c-0.1,0.2-0.2,0.3-0.4,0.4L467.3,307c-0.6,0.3-1.4,0.3-2,0l-7.8-4.5
			c-0.3-0.1-0.5-0.4-0.4-0.8c0.1-0.2,0.2-0.3,0.4-0.4l24.6-14.2c0.6-0.3,1.4-0.3,2,0L491.9,291.6z"/>
		<path class="st3" d="M491.7,305.2c0.3,0.1,0.5,0.4,0.4,0.8c-0.1,0.2-0.2,0.3-0.4,0.4l-12.7,7.3c-0.6,0.3-1.4,0.3-2,0l-7.8-4.5
			c-0.3-0.1-0.5-0.4-0.4-0.8c0.1-0.2,0.2-0.3,0.4-0.4l12.7-7.3c0.6-0.3,1.4-0.3,2,0L491.7,305.2z"/>
		<path class="st3" d="M586,250.8c0.3,0.1,0.5,0.4,0.4,0.8c-0.1,0.2-0.2,0.3-0.4,0.4l-55.2,31.9c-0.6,0.3-1.4,0.3-2,0l-7.8-4.5
			c-0.3-0.1-0.5-0.5-0.4-0.8c0.1-0.2,0.2-0.3,0.4-0.4l55.2-31.9c0.6-0.3,1.4-0.3,2,0L586,250.8z"/>
		<path class="st3" d="M427.8,274.6c0.3,0.1,0.5,0.4,0.4,0.8c-0.1,0.2-0.2,0.3-0.4,0.4l-7.2,4.2c-0.6,0.3-1.4,0.3-2,0l-5.7-3.3
			c-0.3-0.1-0.5-0.4-0.4-0.7c0.1-0.2,0.2-0.3,0.4-0.4l7.2-4.2c0.6-0.3,1.4-0.3,2,0L427.8,274.6z"/>
		<path class="st3" d="M438.9,268.2c0.3,0.1,0.5,0.4,0.4,0.7c-0.1,0.2-0.2,0.3-0.4,0.4l-7.3,4.2c-0.6,0.3-1.4,0.3-2,0l-5.7-3.3
			c-0.3-0.1-0.5-0.4-0.4-0.8c0.1-0.2,0.2-0.3,0.4-0.4l7.2-4.2c0.6-0.3,1.4-0.3,2,0L438.9,268.2z"/>
		<path class="st3" d="M449.4,262.1c0.3,0.1,0.5,0.4,0.4,0.8c-0.1,0.2-0.2,0.3-0.4,0.4l-7.2,4.2c-0.6,0.3-1.4,0.3-2,0l-5.7-3.3
			c-0.3-0.1-0.5-0.4-0.4-0.8c0.1-0.2,0.2-0.3,0.4-0.4l7.2-4.2c0.6-0.3,1.4-0.3,2,0L449.4,262.1z"/>
		<path class="st3" d="M459.9,256c0.3,0.1,0.5,0.4,0.4,0.8c-0.1,0.2-0.2,0.3-0.4,0.4l-7.2,4.2c-0.6,0.3-1.4,0.3-2,0l-5.7-3.3
			c-0.3-0.1-0.5-0.4-0.4-0.8c0.1-0.2,0.2-0.3,0.4-0.4l7.2-4.2c0.6-0.3,1.4-0.3,2,0L459.9,256z"/>
		<path class="st3" d="M470.5,250c0.3,0.1,0.5,0.4,0.4,0.8c-0.1,0.2-0.2,0.3-0.4,0.4l-7.2,4.2c-0.6,0.3-1.4,0.3-2,0l-5.7-3.3
			c-0.3-0.1-0.5-0.4-0.4-0.8c0.1-0.2,0.2-0.3,0.4-0.4l7.2-4.2c0.6-0.3,1.4-0.3,2,0L470.5,250z"/>
		<path class="st3" d="M481,243.9c0.3,0.1,0.5,0.4,0.4,0.8c-0.1,0.2-0.2,0.3-0.4,0.4l-7.2,4.2c-0.6,0.3-1.4,0.3-2,0l-5.7-3.3
			c-0.3-0.1-0.5-0.4-0.4-0.8c0.1-0.2,0.2-0.3,0.4-0.4l7.2-4.2c0.6-0.3,1.4-0.3,2,0L481,243.9z"/>
		<path class="st3" d="M491.6,237.8c0.3,0.1,0.5,0.4,0.4,0.8c-0.1,0.2-0.2,0.3-0.4,0.4l-7.2,4.2c-0.6,0.3-1.4,0.3-2,0l-5.7-3.3
			c-0.3-0.1-0.5-0.4-0.4-0.8c0.1-0.2,0.2-0.3,0.4-0.4l7.2-4.2c0.6-0.3,1.4-0.3,2,0L491.6,237.8z"/>
		<path class="st3" d="M502.1,231.7c0.3,0.1,0.5,0.4,0.4,0.8c-0.1,0.2-0.2,0.3-0.4,0.4l-7.2,4.2c-0.6,0.3-1.4,0.3-2,0l-5.7-3.3
			c-0.3-0.1-0.5-0.4-0.4-0.8c0.1-0.2,0.2-0.3,0.4-0.4l7.2-4.2c0.6-0.3,1.4-0.3,2,0L502.1,231.7z"/>
		<path class="st3" d="M512.7,225.6c0.3,0.1,0.5,0.5,0.4,0.8c-0.1,0.2-0.2,0.3-0.4,0.4l-7.3,4.2c-0.6,0.3-1.4,0.3-2,0l-5.7-3.3
			c-0.3-0.1-0.5-0.4-0.4-0.8c0.1-0.2,0.2-0.3,0.4-0.4l7.2-4.2c0.6-0.3,1.4-0.3,2,0L512.7,225.6z"/>
		<path class="st3" d="M523.2,219.5c0.3,0.1,0.5,0.4,0.4,0.8c-0.1,0.2-0.2,0.3-0.4,0.4l-7.2,4.2c-0.6,0.3-1.4,0.3-2,0l-5.7-3.3
			c-0.3-0.1-0.5-0.4-0.4-0.8c0.1-0.2,0.2-0.3,0.4-0.4l7.2-4.2c0.6-0.3,1.4-0.3,2,0L523.2,219.5z"/>
		<path class="st3" d="M533.7,213.4c0.3,0.1,0.5,0.4,0.4,0.8c-0.1,0.2-0.2,0.3-0.4,0.4l-7.2,4.2c-0.6,0.3-1.4,0.3-2,0l-5.7-3.3
			c-0.3-0.1-0.5-0.4-0.4-0.8c0.1-0.2,0.2-0.3,0.4-0.4l7.2-4.2c0.6-0.3,1.4-0.3,2,0L533.7,213.4z"/>
		<path class="st3" d="M544.3,207.4c0.3,0.1,0.5,0.4,0.4,0.8c-0.1,0.2-0.2,0.3-0.4,0.4l-7.2,4.2c-0.6,0.3-1.4,0.3-2,0l-5.7-3.3
			c-0.3-0.1-0.5-0.4-0.4-0.8c0.1-0.2,0.2-0.3,0.4-0.4l7.2-4.2c0.6-0.3,1.4-0.3,2,0L544.3,207.4z"/>
		<path class="st3" d="M554.8,201.2c0.3,0.1,0.5,0.4,0.4,0.8c-0.1,0.2-0.2,0.3-0.4,0.4l-7.2,4.2c-0.6,0.3-1.4,0.3-2,0l-5.7-3.3
			c-0.3-0.1-0.5-0.4-0.4-0.8c0.1-0.2,0.2-0.3,0.4-0.4l7.2-4.2c0.6-0.3,1.4-0.3,2,0L554.8,201.2z"/>
		<path class="st3" d="M566.2,194.7c0.3,0.1,0.5,0.4,0.4,0.8c-0.1,0.2-0.2,0.3-0.4,0.4L559,200c-0.6,0.3-1.4,0.3-2,0l-5.7-3.3
			c-0.3-0.1-0.5-0.4-0.4-0.8c0.1-0.2,0.2-0.3,0.4-0.4l7.2-4.2c0.6-0.3,1.4-0.3,2,0L566.2,194.7z"/>
		<path class="st3" d="M576.8,188.6c0.3,0.1,0.5,0.4,0.4,0.8c-0.1,0.2-0.2,0.3-0.4,0.4l-7.2,4.2c-0.6,0.3-1.4,0.3-2,0l-5.7-3.3
			c-0.3-0.1-0.5-0.4-0.4-0.8c0.1-0.2,0.2-0.3,0.4-0.4l7.2-4.2c0.6-0.3,1.4-0.3,2,0L576.8,188.6z"/>
		<path class="st3" d="M587.3,182.5c0.3,0.1,0.5,0.4,0.4,0.8c-0.1,0.2-0.2,0.3-0.4,0.4l-7.2,4.2c-0.6,0.3-1.4,0.3-2,0l-5.7-3.3
			c-0.3-0.1-0.5-0.4-0.4-0.8c0.1-0.2,0.2-0.3,0.4-0.4l7.2-4.1c0.6-0.3,1.4-0.3,2,0L587.3,182.5z"/>
		<path class="st3" d="M597.9,176.4c0.3,0.1,0.5,0.4,0.4,0.8c-0.1,0.2-0.2,0.3-0.4,0.4l-7.3,4.2c-0.6,0.3-1.4,0.3-2,0l-5.7-3.3
			c-0.3-0.1-0.5-0.4-0.4-0.8c0.1-0.2,0.2-0.3,0.4-0.4l7.2-4.2c0.6-0.3,1.4-0.3,2,0L597.9,176.4z"/>
		<path class="st3" d="M453.8,273.1c0.3,0.1,0.5,0.4,0.4,0.8c-0.1,0.2-0.2,0.3-0.4,0.4l-7.9,4.5c-0.6,0.3-1.4,0.3-2,0l-7.9-4.6
			c-0.3-0.1-0.5-0.4-0.4-0.8c0.1-0.2,0.2-0.3,0.4-0.4l7.9-4.5c0.6-0.3,1.4-0.3,2,0L453.8,273.1z"/>
		<path id="_Bana_" class="st3" d="M477.5,259.4c0.3,0.1,0.5,0.4,0.4,0.8c-0.1,0.2-0.2,0.3-0.4,0.4l-7.9,4.5c-0.6,0.3-1.4,0.3-2,0
			l-7.8-4.5c-0.3-0.1-0.5-0.4-0.4-0.8c0.1-0.2,0.2-0.3,0.4-0.4l7.8-4.5c0.6-0.3,1.4-0.3,2,0L477.5,259.4z"/>
		<path id="_Bana_2" class="st3" d="M465.6,266.2c0.3,0.1,0.5,0.4,0.4,0.8c-0.1,0.2-0.2,0.3-0.4,0.4l-7.8,4.5c-0.6,0.3-1.4,0.3-2,0
			l-7.8-4.5c-0.3-0.1-0.5-0.4-0.4-0.8c0.1-0.2,0.2-0.3,0.4-0.4l7.8-4.5c0.6-0.3,1.4-0.3,2,0L465.6,266.2z"/>
		<path id="_Bana_3" class="st3" d="M489.3,252.6c0.3,0.1,0.5,0.4,0.4,0.8c-0.1,0.2-0.2,0.3-0.4,0.4l-7.8,4.5c-0.6,0.3-1.4,0.3-2,0
			l-7.8-4.5c-0.3-0.1-0.5-0.4-0.4-0.8c0.1-0.2,0.2-0.3,0.4-0.4l7.8-4.5c0.6-0.3,1.4-0.3,2,0L489.3,252.6z"/>
		<path id="_Bana_4" class="st3" d="M501.2,245.8c0.3,0.1,0.5,0.4,0.4,0.8c-0.1,0.2-0.2,0.3-0.4,0.4l-7.8,4.5c-0.6,0.3-1.4,0.3-2,0
			l-7.8-4.5c-0.3-0.1-0.5-0.4-0.4-0.8c0.1-0.2,0.2-0.3,0.4-0.4l7.8-4.5c0.6-0.3,1.4-0.3,2,0L501.2,245.8z"/>
		<path id="_Bana_5" class="st3" d="M513,238.9c0.3,0.1,0.5,0.4,0.4,0.8c-0.1,0.2-0.2,0.3-0.4,0.4l-7.8,4.5c-0.6,0.3-1.4,0.3-2,0
			l-7.9-4.5c-0.3-0.1-0.5-0.4-0.4-0.8c0.1-0.2,0.2-0.3,0.4-0.4l7.9-4.5c0.6-0.3,1.4-0.3,2,0L513,238.9z"/>
		<path id="_Bana_6" class="st3" d="M524.9,232.1c0.3,0.1,0.5,0.4,0.4,0.8c-0.1,0.2-0.2,0.3-0.4,0.4l-7.8,4.5c-0.6,0.3-1.4,0.3-2,0
			l-7.9-4.5c-0.3-0.1-0.5-0.4-0.4-0.8c0.1-0.2,0.2-0.3,0.4-0.4l7.9-4.5c0.6-0.3,1.4-0.3,2,0L524.9,232.1z"/>
		<path id="_Bana_7" class="st3" d="M536.8,225.2c0.3,0.1,0.5,0.4,0.4,0.8c-0.1,0.2-0.2,0.3-0.4,0.4l-7.8,4.5c-0.6,0.3-1.4,0.3-2,0
			l-7.8-4.5c-0.3-0.1-0.5-0.4-0.4-0.8c0.1-0.2,0.2-0.3,0.4-0.4l7.8-4.5c0.6-0.3,1.4-0.3,2,0L536.8,225.2z"/>
		<path id="_Bana_8" class="st3" d="M548.6,218.4c0.3,0.1,0.5,0.4,0.4,0.8c-0.1,0.2-0.2,0.3-0.4,0.4l-7.8,4.5c-0.6,0.3-1.4,0.3-2,0
			l-7.8-4.5c-0.3-0.1-0.5-0.4-0.4-0.8c0.1-0.2,0.2-0.3,0.4-0.4l7.8-4.5c0.6-0.3,1.4-0.3,2,0L548.6,218.4z"/>
		<path id="_Bana_9" class="st3" d="M560.5,211.5c0.3,0.1,0.5,0.5,0.4,0.8c-0.1,0.2-0.2,0.3-0.4,0.4l-7.8,4.6c-0.6,0.3-1.4,0.3-2,0
			l-7.8-4.5c-0.3-0.1-0.5-0.5-0.4-0.8c0.1-0.2,0.2-0.3,0.4-0.4l7.8-4.5c0.6-0.3,1.4-0.3,2,0L560.5,211.5z"/>
		<path id="_Bana_10" class="st3" d="M572.3,204.7c0.3,0.1,0.5,0.4,0.4,0.8c-0.1,0.2-0.2,0.3-0.4,0.4l-7.8,4.5c-0.6,0.3-1.4,0.3-2,0
			l-7.8-4.5c-0.3-0.1-0.5-0.4-0.4-0.8c0.1-0.2,0.2-0.3,0.4-0.4l7.8-4.5c0.6-0.3,1.4-0.3,2,0L572.3,204.7z"/>
		<path id="_Bana_11" class="st3" d="M584.2,197.8c0.3,0.1,0.5,0.4,0.4,0.8c-0.1,0.2-0.2,0.3-0.4,0.4l-7.8,4.5c-0.6,0.3-1.4,0.3-2,0
			l-7.8-4.5c-0.3-0.1-0.5-0.4-0.4-0.8c0.1-0.2,0.2-0.3,0.4-0.4l7.8-4.5c0.6-0.3,1.4-0.3,2,0L584.2,197.8z"/>
		<path class="st3" d="M471.3,276.5c0.3,0.1,0.5,0.4,0.4,0.8c-0.1,0.2-0.2,0.3-0.4,0.4l-7.8,4.5c-0.6,0.3-1.4,0.3-2,0l-7.9-4.5
			c-0.3-0.1-0.5-0.4-0.4-0.8c0.1-0.2,0.2-0.3,0.4-0.4l7.8-4.5c0.6-0.3,1.4-0.3,2,0L471.3,276.5z"/>
		<path id="_Bana_12" class="st3" d="M483.1,269.7c0.3,0.1,0.5,0.5,0.4,0.8c-0.1,0.2-0.2,0.3-0.4,0.4l-7.8,4.5c-0.6,0.3-1.4,0.3-2,0
			l-7.8-4.5c-0.3-0.1-0.5-0.5-0.4-0.8c0.1-0.2,0.2-0.3,0.4-0.4l7.8-4.5c0.6-0.3,1.4-0.3,2,0L483.1,269.7z"/>
		<path id="_Bana_13" class="st3" d="M495,262.8c0.3,0.1,0.5,0.4,0.4,0.8c-0.1,0.2-0.2,0.3-0.4,0.4l-7.8,4.5c-0.6,0.3-1.4,0.3-2,0
			l-7.8-4.5c-0.3-0.1-0.5-0.4-0.4-0.8c0.1-0.2,0.2-0.3,0.4-0.4l7.8-4.5c0.6-0.3,1.4-0.3,2,0L495,262.8z"/>
		<path id="_Bana_14" class="st3" d="M506.9,256c0.3,0.1,0.5,0.4,0.4,0.8c-0.1,0.2-0.2,0.3-0.4,0.4l-7.8,4.5c-0.6,0.3-1.4,0.3-2,0
			l-7.9-4.5c-0.3-0.1-0.5-0.4-0.4-0.8c0.1-0.2,0.2-0.3,0.4-0.4l7.9-4.5c0.6-0.3,1.4-0.3,2,0L506.9,256z"/>
		<path id="_Bana_15" class="st3" d="M518.7,249.1c0.3,0.1,0.5,0.4,0.4,0.8c-0.1,0.2-0.2,0.3-0.4,0.4l-7.9,4.5c-0.6,0.3-1.4,0.3-2,0
			l-7.9-4.6c-0.3-0.1-0.5-0.4-0.4-0.8c0.1-0.2,0.2-0.3,0.4-0.4l7.9-4.5c0.6-0.3,1.4-0.3,2,0L518.7,249.1z"/>
		<path id="_Bana_16" class="st3" d="M530.6,242.2c0.3,0.1,0.5,0.4,0.4,0.8c-0.1,0.2-0.2,0.3-0.4,0.4l-7.8,4.5c-0.6,0.3-1.4,0.3-2,0
			l-7.8-4.5c-0.3-0.1-0.5-0.4-0.4-0.8c0.1-0.2,0.2-0.3,0.4-0.4l7.8-4.5c0.6-0.3,1.4-0.3,2,0L530.6,242.2z"/>
		<path id="_Bana_17" class="st3" d="M542.4,235.4c0.3,0.1,0.5,0.4,0.4,0.8c-0.1,0.2-0.2,0.3-0.4,0.4l-7.9,4.5c-0.6,0.3-1.4,0.3-2,0
			l-7.8-4.5c-0.3-0.1-0.5-0.4-0.4-0.8c0.1-0.2,0.2-0.3,0.4-0.4l7.8-4.5c0.6-0.3,1.4-0.3,2,0L542.4,235.4z"/>
		<path id="_Bana_18" class="st3" d="M554.3,228.6c0.3,0.1,0.5,0.4,0.4,0.8c-0.1,0.2-0.2,0.3-0.4,0.4l-7.8,4.5c-0.6,0.3-1.4,0.3-2,0
			l-7.9-4.5c-0.3-0.1-0.5-0.4-0.4-0.8c0.1-0.2,0.2-0.3,0.4-0.4l7.8-4.5c0.6-0.3,1.4-0.3,2,0L554.3,228.6z"/>
		<path id="_Bana_19" class="st3" d="M566.2,221.7c0.3,0.1,0.5,0.4,0.4,0.8c-0.1,0.2-0.2,0.3-0.4,0.4l-7.8,4.5c-0.6,0.3-1.4,0.3-2,0
			l-7.8-4.5c-0.3-0.1-0.5-0.4-0.4-0.8c0.1-0.2,0.2-0.3,0.4-0.4l7.8-4.5c0.6-0.3,1.4-0.3,2,0L566.2,221.7z"/>
		<path id="_Bana_20" class="st3" d="M578,214.9c0.3,0.1,0.5,0.4,0.4,0.8c-0.1,0.2-0.2,0.3-0.4,0.4l-7.8,4.5c-0.6,0.3-1.4,0.3-2,0
			l-7.8-4.5c-0.3-0.1-0.5-0.4-0.4-0.8c0.1-0.2,0.2-0.3,0.4-0.4l7.8-4.5c0.6-0.3,1.4-0.3,2,0L578,214.9z"/>
		<path id="_Bana_21" class="st3" d="M589.9,208c0.3,0.1,0.5,0.4,0.4,0.8c-0.1,0.2-0.2,0.3-0.4,0.4l-7.8,4.5c-0.6,0.3-1.4,0.3-2,0
			l-7.9-4.5c-0.3-0.1-0.5-0.4-0.4-0.8c0.1-0.2,0.2-0.3,0.4-0.4l7.8-4.5c0.6-0.3,1.4-0.3,2,0L589.9,208z"/>
		<path id="_Bana_22" class="st3" d="M601.7,201.2c0.3,0.1,0.5,0.4,0.4,0.8c-0.1,0.2-0.2,0.3-0.4,0.4l-7.8,4.5c-0.6,0.3-1.4,0.3-2,0
			l-7.8-4.5c-0.3-0.1-0.5-0.4-0.4-0.8c0.1-0.2,0.2-0.3,0.4-0.4l7.8-4.5c0.6-0.3,1.4-0.3,2,0L601.7,201.2z"/>
		<path class="st3" d="M485.9,282c0.3,0.1,0.5,0.4,0.4,0.8c-0.1,0.2-0.2,0.3-0.4,0.4l-7.8,4.5c-0.6,0.3-1.4,0.3-2,0l-7.8-4.5
			c-0.3-0.1-0.5-0.4-0.4-0.8c0.1-0.2,0.2-0.3,0.4-0.4l7.8-4.5c0.6-0.3,1.4-0.3,2,0L485.9,282z"/>
		<path id="_Bana_23" class="st3" d="M497.8,275.2c0.3,0.1,0.5,0.4,0.4,0.8c-0.1,0.2-0.2,0.3-0.4,0.4l-7.8,4.5c-0.6,0.3-1.4,0.3-2,0
			l-7.8-4.5c-0.3-0.1-0.5-0.4-0.4-0.8c0.1-0.2,0.2-0.3,0.4-0.4l7.8-4.5c0.6-0.3,1.4-0.3,2,0L497.8,275.2z"/>
		<path id="_Bana_24" class="st3" d="M509.6,268.4c0.3,0.1,0.5,0.4,0.4,0.8c-0.1,0.2-0.2,0.3-0.4,0.4l-7.8,4.5c-0.6,0.3-1.4,0.3-2,0
			l-7.8-4.5c-0.3-0.1-0.5-0.4-0.4-0.8c0.1-0.2,0.2-0.3,0.4-0.4l7.8-4.5c0.6-0.3,1.4-0.3,2,0L509.6,268.4z"/>
		<path id="_Bana_25" class="st3" d="M521.5,261.5c0.3,0.1,0.5,0.4,0.4,0.8c-0.1,0.2-0.2,0.3-0.4,0.4l-7.8,4.5c-0.6,0.3-1.4,0.3-2,0
			l-7.9-4.5c-0.3-0.1-0.5-0.4-0.4-0.8c0.1-0.2,0.2-0.3,0.4-0.4l7.9-4.5c0.6-0.3,1.4-0.3,2,0L521.5,261.5z"/>
		<path id="_Bana_26" class="st3" d="M533.4,254.7c0.3,0.1,0.5,0.4,0.4,0.8c-0.1,0.2-0.2,0.3-0.4,0.4l-7.8,4.5c-0.6,0.3-1.4,0.3-2,0
			l-7.8-4.5c-0.3-0.1-0.5-0.4-0.4-0.8c0.1-0.2,0.2-0.3,0.4-0.4l7.8-4.5c0.6-0.3,1.4-0.3,2,0L533.4,254.7z"/>
		<path id="_Bana_27" class="st3" d="M545.2,247.8c0.3,0.1,0.5,0.4,0.4,0.8c-0.1,0.2-0.2,0.3-0.4,0.4l-7.8,4.5c-0.6,0.3-1.4,0.3-2,0
			l-7.8-4.5c-0.3-0.1-0.5-0.4-0.4-0.8c0.1-0.2,0.2-0.3,0.4-0.4l7.8-4.5c0.6-0.3,1.4-0.3,2,0L545.2,247.8z"/>
		<path id="_Bana_28" class="st3" d="M557.1,241c0.3,0.1,0.5,0.4,0.4,0.7c-0.1,0.2-0.2,0.3-0.4,0.4l-7.8,4.5c-0.6,0.3-1.4,0.3-2,0
			l-7.8-4.5c-0.3-0.1-0.5-0.5-0.4-0.8c0.1-0.2,0.2-0.3,0.4-0.4l7.8-4.5c0.6-0.3,1.4-0.3,2,0L557.1,241z"/>
		<path id="_Bana_29" class="st3" d="M568.9,234.1c0.3,0.1,0.5,0.4,0.4,0.8c-0.1,0.2-0.2,0.3-0.4,0.4l-7.8,4.5c-0.6,0.3-1.4,0.3-2,0
			l-7.8-4.6c-0.3-0.1-0.5-0.4-0.4-0.8c0.1-0.2,0.2-0.3,0.4-0.4l7.8-4.5c0.6-0.3,1.4-0.3,2,0L568.9,234.1z"/>
		<path id="_Bana_30" class="st3" d="M580.8,227.2c0.3,0.1,0.5,0.4,0.4,0.8c-0.1,0.2-0.2,0.3-0.4,0.4l-7.8,4.5c-0.6,0.3-1.4,0.3-2,0
			l-7.8-4.5c-0.3-0.1-0.5-0.4-0.4-0.8c0.1-0.2,0.2-0.3,0.4-0.4l7.8-4.5c0.6-0.3,1.4-0.3,2,0L580.8,227.2z"/>
		<path id="_Bana_31" class="st3" d="M592.6,220.4c0.3,0.1,0.5,0.4,0.4,0.8c-0.1,0.2-0.2,0.3-0.4,0.4l-7.8,4.5c-0.6,0.3-1.4,0.3-2,0
			l-7.8-4.5c-0.3-0.1-0.5-0.4-0.4-0.8c0.1-0.2,0.2-0.3,0.4-0.4l7.8-4.5c0.6-0.3,1.4-0.3,2,0L592.6,220.4z"/>
		<path id="_Bana_32" class="st3" d="M604.5,213.6c0.3,0.1,0.5,0.4,0.4,0.8c-0.1,0.2-0.2,0.3-0.4,0.4l-7.8,4.5c-0.6,0.3-1.4,0.3-2,0
			l-7.8-4.5c-0.3-0.1-0.5-0.4-0.4-0.8c0.1-0.2,0.2-0.3,0.4-0.4l7.8-4.5c0.6-0.3,1.4-0.3,2,0L604.5,213.6z"/>
		<path id="_Bana_33" class="st3" d="M515.5,278c0.3,0.1,0.5,0.4,0.4,0.8c-0.1,0.2-0.2,0.3-0.4,0.4l-7.9,4.5c-0.6,0.3-1.4,0.3-2,0
			l-7.8-4.5c-0.3-0.1-0.5-0.4-0.4-0.8c0.1-0.2,0.2-0.3,0.4-0.4l7.8-4.5c0.6-0.3,1.4-0.3,2,0L515.5,278z"/>
		<path id="_Bana_34" class="st3" d="M527.3,271.1c0.3,0.1,0.5,0.4,0.4,0.8c-0.1,0.2-0.2,0.3-0.4,0.4l-7.8,4.5c-0.6,0.3-1.4,0.3-2,0
			l-7.8-4.5c-0.3-0.1-0.5-0.4-0.4-0.8c0.1-0.2,0.2-0.3,0.4-0.4l7.8-4.5c0.6-0.3,1.4-0.3,2,0L527.3,271.1z"/>
		<path class="st3" d="M503,298.7c0.3,0.1,0.5,0.4,0.4,0.8c-0.1,0.2-0.2,0.3-0.4,0.4l-7.8,4.5c-0.6,0.3-1.4,0.3-2,0l-7.8-4.5
			c-0.3-0.1-0.5-0.4-0.4-0.8c0.1-0.2,0.2-0.3,0.4-0.4l7.8-4.5c0.6-0.3,1.4-0.3,2,0L503,298.7z"/>
		<path id="_Bana_35" class="st3" d="M514.9,291.8c0.3,0.1,0.5,0.4,0.4,0.8c-0.1,0.2-0.2,0.3-0.4,0.4l-7.8,4.5c-0.6,0.3-1.4,0.3-2,0
			l-7.8-4.5c-0.3-0.1-0.5-0.4-0.4-0.8c0.1-0.2,0.2-0.3,0.4-0.4l7.8-4.5c0.6-0.3,1.4-0.3,2,0L514.9,291.8z"/>
		<path id="_Bana_36" class="st3" d="M526.7,285c0.3,0.1,0.5,0.4,0.4,0.8c-0.1,0.2-0.2,0.3-0.4,0.4l-7.8,4.5c-0.6,0.3-1.4,0.3-2,0
			l-7.9-4.5c-0.3-0.1-0.5-0.4-0.4-0.8c0.1-0.2,0.2-0.3,0.4-0.4l7.9-4.5c0.6-0.3,1.4-0.3,2,0L526.7,285z"/>
		<path class="st3" d="M598.3,243.7c0.3,0.1,0.5,0.4,0.4,0.8c-0.1,0.2-0.2,0.3-0.4,0.4l-7.8,4.5c-0.6,0.3-1.4,0.3-2,0l-7.8-4.5
			c-0.3-0.1-0.5-0.4-0.4-0.8c0.1-0.2,0.2-0.3,0.4-0.4l7.8-4.5c0.6-0.3,1.4-0.3,2,0L598.3,243.7z"/>
		<path id="_Bana_37" class="st3" d="M610.2,236.8c0.3,0.1,0.5,0.4,0.4,0.8c-0.1,0.2-0.2,0.3-0.4,0.4l-7.8,4.5c-0.6,0.3-1.4,0.3-2,0
			l-7.8-4.5c-0.3-0.1-0.5-0.4-0.4-0.8c0.1-0.2,0.2-0.3,0.4-0.4l7.8-4.5c0.6-0.3,1.4-0.3,2,0L610.2,236.8z"/>
		<path id="_Bana_38" class="st3" d="M622,230c0.3,0.1,0.5,0.4,0.4,0.7c-0.1,0.2-0.2,0.3-0.4,0.4l-7.8,4.5c-0.6,0.3-1.4,0.3-2,0
			l-7.8-4.5c-0.3-0.1-0.5-0.5-0.4-0.8c0.1-0.2,0.2-0.3,0.4-0.4l7.8-4.5c0.6-0.3,1.4-0.3,2,0L622,230z"/>
		<path class="st3" d="M635.1,212.2c0.6-0.3,1.4-0.3,2,0l5.8,3.3c0.3,0.1,0.5,0.4,0.4,0.8c-0.1,0.2-0.2,0.3-0.4,0.4l-7.8,4.5
			c-0.6,0.3-1.4,0.3-2,0l-5.8-3.3c-0.3-0.1-0.5-0.4-0.4-0.8c0.1-0.2,0.2-0.3,0.4-0.4L635.1,212.2z"/>
		<path class="st3" d="M642.9,216.7c0.6-0.3,1.4-0.3,2,0l5.8,3.4c0.3,0.1,0.5,0.4,0.4,0.8c-0.1,0.2-0.2,0.3-0.4,0.4l-7.8,4.5
			c-0.6,0.3-1.4,0.3-2,0l-5.8-3.4c-0.3-0.1-0.5-0.4-0.4-0.8c0.1-0.2,0.2-0.3,0.4-0.4L642.9,216.7z"/>
		<path id="_Bana_39" class="st3" d="M639.2,226.7c0.3,0.1,0.5,0.4,0.4,0.8c-0.1,0.2-0.2,0.3-0.4,0.4l-7.8,4.5c-0.6,0.3-1.4,0.3-2,0
			l-5.8-3.4c-0.3-0.1-0.5-0.4-0.4-0.8c0.1-0.2,0.2-0.3,0.4-0.4l7.8-4.5c0.6-0.3,1.4-0.3,2,0L639.2,226.7z"/>
		<path id="_Bana_40" class="st3" d="M662.1,213.5c0.3,0.1,0.5,0.4,0.4,0.8c-0.1,0.2-0.2,0.3-0.4,0.4l-7.8,4.5c-0.6,0.3-1.4,0.3-2,0
			l-5.8-3.3c-0.3-0.1-0.5-0.4-0.4-0.8c0.1-0.2,0.2-0.3,0.4-0.4l7.8-4.5c0.6-0.3,1.4-0.3,2,0L662.1,213.5z"/>
		<path id="_Bana_41" class="st3" d="M539.2,264.2c0.3,0.1,0.5,0.4,0.4,0.8c-0.1,0.2-0.2,0.3-0.4,0.4l-7.8,4.5c-0.6,0.3-1.4,0.3-2,0
			l-7.8-4.5c-0.3-0.1-0.5-0.4-0.4-0.8c0.1-0.2,0.2-0.3,0.4-0.4l7.8-4.5c0.6-0.3,1.4-0.3,2,0L539.2,264.2z"/>
		<path id="_Bana_42" class="st3" d="M551.1,257.5c0.3,0.1,0.5,0.4,0.4,0.8c-0.1,0.2-0.2,0.3-0.4,0.4l-7.8,4.5c-0.6,0.3-1.4,0.3-2,0
			l-7.8-4.5c-0.3-0.1-0.5-0.4-0.4-0.8c0.1-0.2,0.2-0.3,0.4-0.4l7.8-4.5c0.6-0.3,1.4-0.3,2,0L551.1,257.5z"/>
		<path id="_Bana_43" class="st3" d="M562.9,250.6c0.3,0.1,0.5,0.4,0.4,0.8c-0.1,0.2-0.2,0.3-0.4,0.4l-7.8,4.5c-0.6,0.3-1.4,0.3-2,0
			l-7.8-4.5c-0.3-0.1-0.5-0.4-0.4-0.8c0.1-0.2,0.2-0.3,0.4-0.4l7.8-4.5c0.6-0.3,1.4-0.3,2,0L562.9,250.6z"/>
		<path id="_Bana_44" class="st3" d="M574.8,243.8c0.3,0.1,0.5,0.4,0.4,0.8c-0.1,0.2-0.2,0.3-0.4,0.4l-7.8,4.5c-0.6,0.3-1.4,0.3-2,0
			l-7.8-4.5c-0.3-0.1-0.5-0.4-0.4-0.8c0.1-0.2,0.2-0.3,0.4-0.4l7.8-4.5c0.6-0.3,1.4-0.3,2,0L574.8,243.8z"/>
		<path id="_Bana_45" class="st3" d="M586.6,236.9c0.3,0.1,0.5,0.4,0.4,0.8c-0.1,0.2-0.2,0.3-0.4,0.4l-7.8,4.5c-0.6,0.3-1.4,0.3-2,0
			l-7.8-4.5c-0.3-0.1-0.5-0.4-0.4-0.8c0.1-0.2,0.2-0.3,0.4-0.4l7.8-4.5c0.6-0.3,1.4-0.3,2,0L586.6,236.9z"/>
		<path id="_Bana_46" class="st3" d="M598.5,230.1c0.3,0.1,0.5,0.4,0.4,0.8c-0.1,0.2-0.2,0.3-0.4,0.4l-7.8,4.5c-0.6,0.3-1.4,0.3-2,0
			l-7.8-4.5c-0.3-0.1-0.5-0.4-0.4-0.8c0.1-0.2,0.2-0.3,0.4-0.4l7.8-4.5c0.6-0.3,1.4-0.3,2,0L598.5,230.1z"/>
		<path id="_Bana_47" class="st3" d="M610.4,223.2c0.3,0.1,0.5,0.4,0.4,0.7c-0.1,0.2-0.2,0.3-0.4,0.4l-7.8,4.5c-0.6,0.3-1.4,0.3-2,0
			l-7.8-4.5c-0.3-0.1-0.5-0.5-0.4-0.8c0.1-0.2,0.2-0.3,0.4-0.4l7.8-4.5c0.6-0.3,1.4-0.3,2,0L610.4,223.2z"/>
		<path class="st3" d="M503.6,284.8c0.3,0.1,0.5,0.4,0.4,0.8c-0.1,0.2-0.2,0.3-0.4,0.4l-7.9,4.5c-0.6,0.3-1.4,0.3-2,0l-7.9-4.5
			c-0.3-0.1-0.5-0.4-0.4-0.8c0.1-0.2,0.2-0.3,0.4-0.4l7.9-4.5c0.6-0.3,1.4-0.3,2,0L503.6,284.8z"/>
		<path class="st89" d="M588.4,164.6c0,1.4-2,2.6-4.5,2.6s-4.5-1.1-4.5-2.6s2-2.6,4.5-2.6S588.4,163.2,588.4,164.6z"/>
		<path class="st3" d="M587.7,164.6c0,1.2-1.7,2.2-3.8,2.2s-3.9-1-3.9-2.2s1.7-2.2,3.9-2.2S587.7,163.4,587.7,164.6z"/>
		<path class="st6" d="M380.6,276.8v4.2c-0.1,1.7,1,3.4,3.2,4.6l122.8,70.9c4.8,2.4,10.5,2.4,15.3,0l198.4-114.5
			c1.1-0.6,2-1.4,2.6-2.5c0.3-0.8,0.4-1.2,0.5-1.4l0,0v-0.1v-4.9c-0.1,1.6-1.1,3.1-3.2,4.3L521.9,352c-4.8,2.4-10.5,2.4-15.3,0
			l-122.8-70.9C381.7,279.9,380.7,278.4,380.6,276.8z"/>
	</g>
	<g id="Woman">
		<path class="st90" d="M153.9,297.2c0.1,0.5,3.3,3.5,6.5,1.6s3-7.1,4.7-8.7c2.1-1.9-0.2-8.3-0.2-8.3c-0.9-0.3-1.8-0.4-2.8-0.4
			c-1.3,0.3-2.5,1.2-3.1,2.5c0,0-1.1,4.5-2,7.9c-0.4,1.1-1,2-1.8,2.8l0.1,0.1l-0.1-0.1C154.3,295.2,153.7,296.1,153.9,297.2z"/>
		<path class="st91" d="M153.9,297.2c0.1,0.5,3.3,3.5,6.5,1.6s3-7.1,4.7-8.7c2.1-1.9-0.2-8.3-0.2-8.3c-1.7-0.5-3.6,0.4-4.1,2.2
			c-0.1,0.2-0.1,0.3-0.1,0.5c-0.8,2.5-1.7,5.1-2.7,7.5c-0.7,1.6-1.3,2.8-1.7,2.8c-0.4,0-0.8-0.2-1.1-0.4
			C154.3,295.2,153.7,296.1,153.9,297.2z"/>
		<path class="st92" d="M180.2,198.3c0,0-0.4,2.9-0.4,3.5s-1.2,4.4-1.2,5.1s5.4,2.6,5.7,2.4s2.4-1.7,2.4-1.7l0.4-6.6L180.2,198.3z"
			/>
		<path class="st93" d="M181.6,172.6c0.4,12.2-0.2,12.4-1.2,28.5c5.7,2.7,7.3,0.5,7.3,0.5s1-9.8,1.5-20.9c0.3-7.1-0.7-16.6-1.2-22.5
			c-1.1-13.6-9.6-13.7-11.1-12.4C172.3,149.9,181.1,158.5,181.6,172.6z"/>
		<path class="st94" d="M156.2,206.3l2.7,77.5c0,0,0.8,0.9,2.8,0.4c3.1-0.8,3.3-3,3.3-3s2.7-10.4,0.8-28.2c0,0,3.7-12.2,5.8-21.5
			l1.5,44.5c0,0,0.8,0.9,2.8,0.4c3.1-0.8,3.3-3,3.3-3s2.7-10.4,0.8-28.2c0,0,6.6-21.6,7.1-29.3c0.4-6.6-1-13.2-3.9-19.1L156.2,206.3
			z"/>
		<path class="st93" d="M154.6,206.7c0,0,3.4-18.7,3.4-23.6c0-3.8-6.1-8.8-6.7-12.3c-0.6-3.1,1.9-11.8,1.9-11.8
			c10.8-9.5,24.7-13.7,24.7-13.7c3.5-0.1,8.1,2.5,8.1,13.3c0,4.8-6.2,15.5-4.6,24.6c1.2,7.1,3.1,14.1,5.7,20.9
			C178.6,215.6,159.3,215.5,154.6,206.7z"/>
		<path class="st95" d="M182.5,184c-1.5-9.1,4.6-19.9,4.6-24.6c0-7.6-2.3-11.1-4.9-12.5c2.1,1.7,3.8,5.2,3.8,11.8
			c0,3.4-3.2,9.9-4.4,16.6c0.1,3.8,0,6.3-0.1,8.8c1.1,6.2,2.7,12.3,4.8,18.2c0.3-0.1,0.5-0.1,0.8-0.3
			C185.1,196.2,183.6,190.1,182.5,184z"/>
		<path class="st92" d="M172.4,117.6c8.5,1.4,10.6,14.5,6.8,21.5s-17.6,8.3-20.4,6.2s-2.4-12.3-2.4-12.3
			C155.8,122.7,162.4,115.9,172.4,117.6z"/>
		<path class="st92" d="M164.9,142.9c0.7,1.4,1.3,10.5,1.3,10.5c7,4.1,10.8-2.6,10.8-2.6l-2-10.4
			C175.1,140.4,164.3,141.5,164.9,142.9z"/>
		<path class="st92" d="M150.9,214.4c-0.5,0.2-0.6,4.3-0.6,4.6c0,0.8-0.5,4.4,0.1,4.8s4.6,3.2,5.3,3c0.9-0.4,1.7-0.9,2.4-1.6
			c0.6-1.4-0.1-1.9-0.1-2.7s0.2-6.4,0.2-6.4S151.4,214.2,150.9,214.4z"/>
		<path class="st93" d="M151.7,186.5c0,11.1-1.6,29.3-1.6,29.3c3.8,5.8,8.9,2,8.9,2s3.3-47.1,1.1-54.5s-6.4-5.6-7.6-3.8
			C150.3,162.9,151.7,175.4,151.7,186.5z"/>
		<path class="st95" d="M159.4,211.1c0.5,0.2,0.9,0.4,1.4,0.6c0.8-13,1.7-40.9,0-46.6c-0.3-1.1-0.7-2.2-1.2-3.2
			c0.2,0.4,0.3,0.9,0.5,1.4C161.8,169.1,160.2,197.9,159.4,211.1z"/>
		<path class="st90" d="M168.1,289.4c0.1,0.5,3.3,3.4,6.5,1.6s3-7.1,4.7-8.7c2.1-2-0.2-8.3-0.2-8.3c-0.9-0.3-1.9-0.4-2.8-0.4
			c-1.3,0.4-2.5,1.2-3.1,2.5c0,0-1.1,4.5-2,7.9c-0.4,1.1-1,2-1.8,2.8l0.1,0.1l-0.1-0.1C168.5,287.4,167.9,288.2,168.1,289.4z"/>
		<path class="st91" d="M168.1,289.4c0.1,0.5,3.3,3.4,6.5,1.6s3-7.1,4.7-8.7c2.1-2-0.2-8.3-0.2-8.3c-1.7-0.5-3.6,0.4-4.1,2.2
			c-0.1,0.2-0.1,0.4-0.1,0.5c-0.8,2.5-1.7,5.1-2.7,7.5c-0.7,1.6-2.5,2.6-2.8,2.5C168.5,287.4,167.9,288.2,168.1,289.4z"/>
		<path class="st91" d="M164.6,287.1v11.7h-0.7c0,0-0.7-7.2-0.7-10.8C163.2,286.7,164.6,287.1,164.6,287.1z"/>
		<path class="st91" d="M179.6,279.2v11.7h-0.7c0,0-0.7-7.2-0.7-10.8C178.2,278.9,179.6,279.2,179.6,279.2z"/>
		<path class="st96" d="M156.2,129c0.2,1.7,1.4,6,2.4,10.2c-0.3,11-0.1,28.9,1.1,33.6c0.6,2.1,6.1,8.8,18,6.3
			c5.2-1.1,7.9-5.9,8.8-12.1c0.3-2.3-2.1-27.6-4.2-36.4c-1.7-7.1-5-14.5-16.2-14c-2.9,0.2-5.6,1.5-7.5,3.7
			C156.6,122.5,155.9,125.9,156.2,129z"/>
	</g>
	<g id="ZelCorePlus">
		<path class="st10" d="M486.8,121c13.2-7.6,24-1.5,24,13.7S500.2,168.4,487,176s-24,1.5-24-13.7S473.6,128.6,486.8,121z
			 M489.7,154.7v-9.3l6.9-8.6v-3.6l-9.6-0.9l-9.6,12v3.6l6.9,0.6v9.3l2.7,0.2L489.7,154.7 M483.4,159.9v-10.1l-7.6-0.7l-7.6,9.4
			v10.1l7.6,0.7L483.4,159.9 M498.2,156.4l7.6-9.4v-10.1l-7.6-0.7l-7.6,9.5v10.1L498.2,156.4"/>
		<polygon class="st4" points="475.8,149 483.4,149.7 483.4,159.8 475.8,169.3 468.2,168.6 468.2,158.5 		"/>
		<polygon class="st10" points="499,140.9 499,144.7 502.3,142.8 502.4,144.9 499,146.8 499,150.6 497.2,151.6 497.2,147.8
			493.9,149.7 493.9,147.7 497.2,145.8 497.2,141.9 		"/>
		<polygon class="st4" points="486.9,132.4 496.5,133.2 496.5,136.9 489.7,145.4 489.7,154.7 487,158.1 484.2,157.9 484.2,148.6
			477.3,148 477.3,144.4 		"/>
		<path class="st4" d="M498.1,136.1l7.6,0.7v10.1l-7.6,9.4l-7.6-0.7v-10.1L498.1,136.1z M502.3,144.9v-2.1l-3.3,1.9v-3.8l-1.8,1v3.8
			l-3.3,1.9v2l3.3-1.9v3.8l1.8-1v-3.8L502.3,144.9"/>
		<path class="st4" d="M486.8,118.6c14.4-8.3,26.1-1.6,26.1,14.9s-11.6,36.7-26,45s-26.1,1.6-26.1-14.9S472.5,126.8,486.8,118.6z
			 M487,176c13.2-7.6,23.9-26.1,23.9-41.3s-10.8-21.3-24-13.7S463,147.1,463,162.3S473.8,183.6,487,176"/>
	</g>
	<g id="ZelCore-2">
		<polygon class="st10" points="250.4,403.6 248.6,407.5 253.6,410.4 252.9,411.9 250.2,412.3 245.3,409.4 238.6,410.5 236.6,409.3
			239,403.9 248.4,402.5 		"/>
		<polygon class="st10" points="264.3,405.1 262.3,409.4 254.9,410.5 249.5,407.4 251.4,403.1 258.8,402 		"/>
		<polygon class="st10" points="250.5,413.1 248.6,417.4 241.2,418.5 235.8,415.4 237.7,411.1 245.1,409.9 		"/>
		<path class="st10" d="M264.1,400.2c8.7,5,8.8,13.2,0.1,18.2c-8.7,5-22.8,5-31.5,0s-8.8-13.2-0.1-18.2S255.4,395.2,264.1,400.2z
			 M233.4,418.1c8.3,4.8,21.8,4.8,30.1,0c8.3-4.8,8.2-12.6-0.1-17.4c-8.3-4.8-21.8-4.8-30.1,0S225.1,413.3,233.4,418.1"/>
		<path class="st4" d="M263.4,400.6c8.3,4.8,8.4,12.6,0.1,17.4c-8.3,4.8-21.8,4.8-30.1,0s-8.4-12.6-0.1-17.4
			S255.1,395.8,263.4,400.6z M236.6,409.3l1.9,1.1l6.7-1l5,2.9l2.7-0.4l0.7-1.5l-5-2.9l1.8-3.9l-1.9-1.1l-9.4,1.4L236.6,409.3
			 M254.9,410.5l7.4-1.1l1.9-4.3l-5.5-3.1l-7.4,1.1l-1.9,4.3L254.9,410.5 M241.2,418.5l7.4-1.1l1.9-4.3l-5.5-3.1l-7.4,1.1l-2,4.3
			L241.2,418.5"/>
	</g>
	<g id="ZelCore2">
		<polygon class="st10" points="578.9,434.1 577,438.4 569.6,439.6 564.2,436.4 566.1,432.1 573.5,431 		"/>
		<path class="st4" d="M591.8,421.7c8.3,4.8,8.4,12.6,0.1,17.4s-21.8,4.8-30.1,0s-8.4-12.6-0.1-17.4S583.5,416.9,591.8,421.7z
			 M565,430.4l2,1.1l6.7-1l5,2.9l2.7-0.4l0.7-1.5l-5-2.9l1.8-3.9l-2-1.1l-9.4,1.4L565,430.4 M569.6,439.6l7.4-1.1l1.9-4.3l-5.4-3.1
			l-7.4,1.1l-2,4.3L569.6,439.6 M583.3,431.6l7.4-1.1l1.9-4.3l-5.5-3.1l-7.4,1.1l-2,4.3L583.3,431.6"/>
		<polygon class="st10" points="578.8,424.7 577,428.5 582,431.4 581.3,433 578.7,433.4 573.7,430.5 567,431.5 565,430.4 567.4,425
			576.8,423.5 		"/>
		<polygon class="st10" points="592.7,426.2 590.7,430.5 583.3,431.6 577.9,428.4 579.8,424.1 587.2,423 		"/>
		<path class="st10" d="M592.6,421.2c8.7,5,8.8,13.2,0.1,18.2s-22.8,5-31.5,0s-8.8-13.2-0.1-18.3S583.8,416.2,592.6,421.2z
			 M561.9,439.1c8.3,4.8,21.8,4.8,30.1,0s8.2-12.6-0.1-17.4s-21.8-4.8-30.1,0S553.6,434.3,561.9,439.1"/>
	</g>
</g>
</svg>
