<svg xmlns="http://www.w3.org/2000/svg" xmlns:xlink="http://www.w3.org/1999/xlink" viewBox="0 0 750 500"><defs><style>.cls-1{isolation:isolate;}.cls-2{fill:#232220;}.cls-3{fill:none;stroke:#fff;stroke-linecap:round;stroke-linejoin:round;stroke-width:2.03px;}.cls-4{fill:#979699;}.cls-5{fill:#bcbbbf;}.cls-6{fill:#333230;}.cls-7{fill:#737174;}.cls-8{opacity:0.42;}.cls-9{fill:#939296;}.cls-10{fill:#e4e4e6;}.cls-11{fill:#b2b1b5;}.cls-12{fill:#686474;}.cls-13{opacity:0.35;}.cls-14{fill:#fff;}.cls-15{fill:#bb3c88;}.cls-16{fill:#36c9a5;}.cls-17{fill:#fed22c;}.cls-18{fill:#d14b4b;}.cls-19{fill:#f7b92f;}.cls-20{fill:#8dea34;}.cls-21{fill:#949397;}.cls-22{fill:#959498;}.cls-23{fill:#969599;}.cls-24{fill:#97969a;}.cls-25{fill:#98979b;}.cls-26{fill:#99989c;}.cls-27{fill:#9a999d;}.cls-28{fill:#9b9a9e;}.cls-29{fill:#9c9b9e;}.cls-30{fill:#9d9c9f;}.cls-31{fill:#9e9da0;}.cls-32{fill:#9e9ea1;}.cls-33{fill:#9f9fa2;}.cls-34{fill:#a0a0a3;}.cls-35{fill:#a1a1a4;}.cls-36{fill:#a2a2a5;}.cls-37{fill:#a3a3a6;}.cls-38{fill:#a4a4a7;}.cls-39{fill:#a5a5a8;}.cls-40{fill:#a6a6a9;}.cls-41{fill:#a7a7aa;}.cls-42{fill:#a8a8ab;}.cls-43{fill:#a9a9ac;}.cls-44{fill:#aaaaad;}.cls-45{fill:#ababae;}.cls-46{fill:#acacae;}.cls-47{fill:#adadaf;}.cls-48{fill:#aeaeb0;}.cls-49{fill:#afafb1;}.cls-50{fill:#b0b0b2;}.cls-51{fill:#b1b1b3;}.cls-52{fill:#b2b2b4;}.cls-53{fill:#b3b3b5;}.cls-54{fill:#b3b3b6;}.cls-55{fill:#b4b4b7;}.cls-56{fill:#b5b5b8;}.cls-57{fill:#b6b6b9;}.cls-58{fill:#b7b7ba;}.cls-59{fill:#b8b8bb;}.cls-60{fill:#b9b9bc;}.cls-61{fill:#bababd;}.cls-62{fill:#bbbbbd;}.cls-63{fill:#bcbcbe;}.cls-64{fill:#bdbdbf;}.cls-65{fill:#bebec0;}.cls-66{fill:#bfbfc1;}.cls-67{fill:#c0c0c2;}.cls-68{fill:#c1c1c3;}.cls-69{fill:#c2c2c4;}.cls-70{fill:#c3c3c5;}.cls-71{fill:#c4c4c6;}.cls-72{fill:#c5c5c7;}.cls-73{fill:#c6c6c8;}.cls-74{fill:#c7c7c9;}.cls-75{fill:#c8c8ca;}.cls-76{fill:#c8c9cb;}.cls-77{fill:#c9cacc;}.cls-78{fill:#cacbcd;}.cls-79{fill:#cbcccd;}.cls-80{fill:#cccdce;}.cls-81{fill:#cdcecf;}.cls-82{fill:#cecfd0;}.cls-83{fill:#cfd0d1;}.cls-84{fill:#d0d1d2;}.cls-85{fill:#d1d2d3;}.cls-86{fill:#d2d3d4;}.cls-87{fill:#d3d4d5;}.cls-88{fill:#141414;}.cls-89{fill:url(#linear-gradient);}.cls-90{fill:#171415;}.cls-91,.cls-92{mix-blend-mode:multiply;}.cls-91{fill:url(#linear-gradient-2);}.cls-93{fill:#001611;}.cls-94{fill:#0c0816;opacity:0.38;}.cls-95{fill:#ffb657;}.cls-96{fill:#cd2a01;}.cls-97{fill:#fec377;}.cls-98{fill:#898890;}.cls-99{fill:#1d81cd;}.cls-100{fill:#77767e;}.cls-101{fill:#891d00;}</style><linearGradient id="linear-gradient" x1="-694.19" y1="1923.79" x2="-696.85" y2="1921.13" gradientTransform="matrix(-1, 0.58, 0, 1, -214.64, -1435.53)" gradientUnits="userSpaceOnUse"><stop offset="0" stop-color="#616161"/><stop offset="0.58"/></linearGradient><linearGradient id="linear-gradient-2" x1="547.06" y1="279.78" x2="645.82" y2="279.78" gradientUnits="userSpaceOnUse"><stop offset="0"/><stop offset="0.13" stop-color="#050207"/><stop offset="0.32" stop-color="#13081b"/><stop offset="0.54" stop-color="#29123b"/><stop offset="0.79" stop-color="#482067"/><stop offset="1" stop-color="#662d91"/></linearGradient></defs><title>ZelCore</title><g class="cls-1"><g id="Background"><rect class="cls-2" width="750" height="500"/></g><g id="Lines"><path class="cls-3" d="M207.52,292.26v22.06a10.77,10.77,0,0,1-5,9.06l-41.31,24.81c-3.64,2.5-3.26,6.29-.32,8.55l83,54.59" transform="translate(0.58 0.25)"/><path class="cls-3" d="M526.5,424.69,315.07,296.32c-8.57-5.13-13.19-3.32-18.29-.18L268,314.54a25.94,25.94,0,0,1-28.56-.54l-90.36-62.06a27.66,27.66,0,0,1-12-22.81V214.58" transform="translate(0.58 0.25)"/><path class="cls-3" d="M207.52,292.26,262.06,261c7-4.53,13.85-3.93,20.29.4l129.76,80.28c6.81,3.75,14.81,2.5,21-1.13l29.38-17.78" transform="translate(0.58 0.25)"/></g><g id="Tablet"><path class="cls-4" d="M357.93,395.15c.14,1.6-.74,3.14-2.7,4.27l-123,71c-4,2.33-11.08,2-15.73-.65l-71.35-41.19c-2.57-1.48-3.87-3.39-3.85-5.19a8.61,8.61,0,0,0,4.18,7.49l71.34,41.19c4.66,2.69,11.7,3,15.73.65l123-71c3.07-1.77,2.85-4.61,2.37-6.57" transform="translate(0.58 0.25)"/><path class="cls-4" d="M357.49,393.62h0l0,0v0" transform="translate(0.58 0.25)"/><path class="cls-5" d="M216.53,469.77l-71.35-41.19c-4.66-2.69-5.16-6.75-1.13-9.08l123-71c4-2.33,11.07-2,15.73.65l71.34,41.19c4.66,2.69,5.17,6.76,1.13,9.08l-123,71c-4,2.33-11.08,2-15.73-.65" transform="translate(0.58 0.25)"/><path class="cls-6" d="M353.72,398.67,231,469.55c-3.31,1.91-9.08,1.67-12.89-.53L146.49,427.7c-3.82-2.21-4.23-5.54-.93-7.45l122.77-70.88c3.31-1.91,9.08-1.67,12.89.54l71.57,41.31c3.82,2.21,4.23,5.54.93,7.45" transform="translate(0.58 0.25)"/><polygon class="cls-2" points="340.86 395.61 225.8 462.04 157.17 422.42 272.23 355.99 340.86 395.61"/><path class="cls-7" d="M239.15,460.21l-6,3.45a2.13,2.13,0,0,1-1.9-.08c-.55-.32-.62-.81-.13-1.09l6-3.45a2.11,2.11,0,0,1,1.89.07c.56.33.62.82.14,1.1" transform="translate(0.58 0.25)"/><path class="cls-7" d="M249.92,454l-6,3.45a2.1,2.1,0,0,1-1.9-.08c-.55-.32-.62-.81-.13-1.09l6-3.45a2.08,2.08,0,0,1,1.89.08c.56.32.62.81.14,1.09" transform="translate(0.58 0.25)"/><path class="cls-7" d="M260.69,447.77l-6,3.45a2.1,2.1,0,0,1-1.9-.08c-.55-.32-.62-.81-.13-1.09l6-3.45a2.08,2.08,0,0,1,1.89.08c.56.32.62.81.14,1.09" transform="translate(0.58 0.25)"/><path class="cls-7" d="M271.46,441.55l-6,3.45a2.1,2.1,0,0,1-1.9-.07c-.55-.33-.62-.82-.13-1.1l6-3.45a2.11,2.11,0,0,1,1.89.08c.56.32.62.81.14,1.09" transform="translate(0.58 0.25)"/></g><g id="Phone"><path class="cls-9" d="M651.17,446.25v-.12h0s0,.09,0,.13" transform="translate(0.58 0.25)"/><path class="cls-9" d="M651.17,446.28A2.1,2.1,0,0,1,650,448l-43.8,25.28a6.45,6.45,0,0,1-5.85,0l-86.06-49.68a3.33,3.33,0,0,1-1.62-1.64c-.26,1.85.37,5.46,1.62,6.18l86.06,49.69a6.51,6.51,0,0,0,5.85,0L650,452.51c1.45-.84,1.26-5.35,1.21-6.23" transform="translate(0.58 0.25)"/><path class="cls-10" d="M650,448l-43.8,25.28a6.48,6.48,0,0,1-5.85,0l-86.06-49.68c-1.61-.93-2.2-2.11-1.18-2.69l42.61-24.6c4-2.31,6.63-2.32,8.24-1.39L650,444.59c1.61.92,1.6,2.44,0,3.38" transform="translate(0.58 0.25)"/><path class="cls-6" d="M592.24,466.2,518.7,423.75c-.5-.29-.56-.73-.12-1L562.5,397.4a1.92,1.92,0,0,1,1.71.07l73.53,42.46c.51.29.56.73.13,1L594,466.28a1.89,1.89,0,0,1-1.71-.08" transform="translate(0.58 0.25)"/><path class="cls-11" d="M622.19,460.61a7.53,7.53,0,0,1-3.72-.89,2.93,2.93,0,0,1-1.7-2.46,3,3,0,0,1,1.72-2.48,8.46,8.46,0,0,1,7.49,0,2.64,2.64,0,0,1,0,4.95,7.69,7.69,0,0,1-3.76.9m.06-5.67a6.47,6.47,0,0,0-3.22.77,2,2,0,0,0-1.18,1.55,1.93,1.93,0,0,0,1.16,1.53,7.39,7.39,0,0,0,6.41,0,1.61,1.61,0,0,0,0-3.09,6.54,6.54,0,0,0-3.19-.75" transform="translate(0.58 0.25)"/><path class="cls-12" d="M542.2,407.55,535,411.72a1.88,1.88,0,0,1-1.69-.07c-.5-.29-.55-.73-.12-1l7.21-4.16a1.88,1.88,0,0,1,1.69.07c.5.29.55.73.12,1" transform="translate(0.58 0.25)"/></g><g id="Console"><path class="cls-6" d="M217.54,15.59c4-2.28,7.19-.45,7.2,4.1l.42,147.25A15.79,15.79,0,0,1,218,179.33L46.1,278.58c-4,2.29-7.19.45-7.2-4.11l-.42-147.24a15.76,15.76,0,0,1,7.15-12.38Z" transform="translate(0.58 0.25)"/><path class="cls-14" d="M221.16,19.7a3.09,3.09,0,0,0-.29-1.5h-.1a2.94,2.94,0,0,0-1.43.5L47.43,118a12.15,12.15,0,0,0-5.36,9.27l0,18.53,179.1-103.4Z" transform="translate(0.58 0.25)"/><path class="cls-14" d="M207.25,107.74c1-.6,1.88-.12,1.89,1.07a4.13,4.13,0,0,1-1.87,3.24l-48.05,27.74c-1,.6-1.88.12-1.88-1.07a4.12,4.12,0,0,1,1.86-3.24Z" transform="translate(0.58 0.25)"/><path class="cls-14" d="M207.2,88.71c1-.6,1.88-.12,1.88,1.07A4.12,4.12,0,0,1,207.21,93l-48.05,27.74c-1,.6-1.87.11-1.88-1.08a4.13,4.13,0,0,1,1.87-3.24Z" transform="translate(0.58 0.25)"/><path class="cls-14" d="M151.66,139.84c1-.6,1.88-.12,1.88,1.07a4.1,4.1,0,0,1-1.87,3.24l-23.15,13.37c-1,.59-1.88.11-1.88-1.08a4.09,4.09,0,0,1,1.87-3.23Z" transform="translate(0.58 0.25)"/><path class="cls-15" d="M169.86,119.32c1-.6,1.88-.12,1.88,1.07a4.13,4.13,0,0,1-1.87,3.25l-41.38,23.89c-1,.59-1.88.11-1.88-1.08a4.13,4.13,0,0,1,1.87-3.24Z" transform="translate(0.58 0.25)"/><path class="cls-14" d="M121.09,157.49c1-.6,1.88-.12,1.88,1.07a4.13,4.13,0,0,1-1.87,3.24l-9.88,5.7c-1,.6-1.87.12-1.87-1.07a4.12,4.12,0,0,1,1.86-3.24Z" transform="translate(0.58 0.25)"/><path class="cls-16" d="M121.21,166.47c1-.6,1.88-.12,1.88,1.07a4.12,4.12,0,0,1-1.86,3.24l-37.1,21.41c-1,.6-1.87.12-1.88-1.07a4.13,4.13,0,0,1,1.87-3.24Z" transform="translate(0.58 0.25)"/><path class="cls-17" d="M121.16,147.44c1-.6,1.88-.12,1.88,1.07a4.13,4.13,0,0,1-1.87,3.24L84.08,173.17c-1,.6-1.88.11-1.88-1.08a4.1,4.1,0,0,1,1.87-3.24Z" transform="translate(0.58 0.25)"/><path class="cls-16" d="M77.26,191.84c1-.6,1.88-.12,1.89,1.08a4.12,4.12,0,0,1-1.88,3.23l-16.92,9.77c-1,.6-1.87.12-1.88-1.07a4.13,4.13,0,0,1,1.87-3.24Z" transform="translate(0.58 0.25)"/><path class="cls-14" d="M104.51,167.06c1-.6,1.88-.12,1.88,1.08a4.12,4.12,0,0,1-1.87,3.23L60.33,196.89c-1,.59-1.88.12-1.88-1.07a4.08,4.08,0,0,1,1.86-3.24Z" transform="translate(0.58 0.25)"/><path class="cls-17" d="M77.21,172.81c1-.6,1.88-.11,1.88,1.08a4.11,4.11,0,0,1-1.87,3.24L60.3,186.9c-1,.6-1.88.11-1.88-1.08a4.1,4.1,0,0,1,1.87-3.24Z" transform="translate(0.58 0.25)"/><path class="cls-16" d="M104.46,148c1-.6,1.87-.11,1.88,1.07a4.11,4.11,0,0,1-1.87,3.24l-44.2,25.52c-1,.6-1.87.11-1.88-1.07a4.11,4.11,0,0,1,1.87-3.24Z" transform="translate(0.58 0.25)"/><path class="cls-14" d="M151.61,120.81c1-.6,1.88-.12,1.88,1.07a4.14,4.14,0,0,1-1.87,3.24l-23.15,13.37c-1,.6-1.88.11-1.88-1.08a4.12,4.12,0,0,1,1.86-3.24Z" transform="translate(0.58 0.25)"/><path class="cls-15" d="M207.6,97.53c.83-.48,1.5-.09,1.51.86v.86a3.31,3.31,0,0,1-1.5,2.6l-30.28,17.48c-.83.48-1.51.1-1.51-.86v-.86a3.33,3.33,0,0,1,1.5-2.6Z" transform="translate(0.58 0.25)"/><path class="cls-18" d="M54.81,122.3c1.74-1,3.15-.2,3.16,1.8a6.91,6.91,0,0,1-3.14,5.43c-1.74,1-3.16.2-3.16-1.8A6.9,6.9,0,0,1,54.81,122.3Z" transform="translate(0.58 0.25)"/><path class="cls-19" d="M65.54,116.1c1.74-1,3.15-.2,3.16,1.8a6.92,6.92,0,0,1-3.14,5.44c-1.74,1-3.15.2-3.16-1.8A6.93,6.93,0,0,1,65.54,116.1Z" transform="translate(0.58 0.25)"/><path class="cls-20" d="M76.28,109.9c1.74-1,3.15-.2,3.16,1.8a6.94,6.94,0,0,1-3.14,5.44c-1.74,1-3.16.2-3.16-1.8A6.9,6.9,0,0,1,76.28,109.9Z" transform="translate(0.58 0.25)"/><g id="ZelCore"><g class="cls-1"><polygon class="cls-14" points="106.45 125.04 109.28 125.3 109.29 129.06 106.48 132.57 103.65 132.32 103.64 128.56 106.45 125.04"/><polygon class="cls-14" points="102.29 123.64 105.88 123.97 105.88 125.31 103.32 128.5 103.33 131.95 102.31 133.21 101.3 133.12 101.29 129.67 98.73 129.44 98.72 128.09 102.29 123.64"/></g><polygon class="cls-14" points="98.16 129.84 100.98 130.1 100.99 133.86 98.18 137.36 95.34 137.12 95.33 133.35 98.16 129.84"/><path class="cls-14" d="M101.69,118.3c5.32-3.07,9.65-.6,9.67,5.51s-4.29,13.58-9.61,16.66-9.66.59-9.68-5.52S96.37,121.37,101.69,118.3Zm.06,21.35c4.92-2.84,8.92-9.76,8.9-15.43s-4-8-9-5.1-8.92,9.76-8.91,15.42,4,8,9,5.11" transform="translate(0.58 0.25)"/><path class="cls-2" d="M101.69,119.12c4.92-2.85,9-.55,9,5.1s-4,12.59-8.9,15.43-9,.55-9-5.11S96.76,122,101.69,119.12Zm1,12.58v-3.45l2.57-3.19v-1.34l-3.59-.33-3.56,4.46v1.34l2.56.23v3.45l1,.09,1-1.26m-2.34,1.91v-3.76l-2.82-.26-2.82,3.51v3.77l2.83.24,2.81-3.5m5.49-1.29,2.82-3.51v-3.76l-2.83-.26-2.82,3.52,0,3.76,2.82.25" transform="translate(0.58 0.25)"/><path class="cls-14" d="M163.17,88.63a4,4,0,0,0-.36.18,7.24,7.24,0,0,0-1.06.78,7.87,7.87,0,0,0-1.52,1.93c-.18.33-.35.65-.51,1a9.36,9.36,0,0,0-.36,1,7.75,7.75,0,0,0-.23,1c0,.36-.08.78-.1,1.25l0,6.7-.79.46,0-12.26.79-.46v2.72l.06,0a5.85,5.85,0,0,1,.53-1.43,9.08,9.08,0,0,1,.93-1.44,9.41,9.41,0,0,1,1.22-1.29,8,8,0,0,1,1.22-.89l.18-.1Z" transform="translate(0.58 0.25)"/><path class="cls-14" d="M171.37,86.46a6.94,6.94,0,0,1,.31,2.16c0,.08,0,.16,0,.27s0,.2,0,.27l-8.64,5v.14a6.68,6.68,0,0,0,.26,1.91,2.79,2.79,0,0,0,.74,1.29,1.71,1.71,0,0,0,1.24.46,3.55,3.55,0,0,0,1.72-.56A7.19,7.19,0,0,0,169.51,95a10.06,10.06,0,0,0,1.29-3.44l.78-.45a10.23,10.23,0,0,1-1.52,4.17A8.8,8.8,0,0,1,167,98.17a4.44,4.44,0,0,1-2.07.7,2.12,2.12,0,0,1-1.48-.48,3.16,3.16,0,0,1-.89-1.49,8.48,8.48,0,0,1-.29-2.33,12.28,12.28,0,0,1,1.18-5.24,10.88,10.88,0,0,1,1.51-2.3,8,8,0,0,1,2.12-1.76,4.18,4.18,0,0,1,2-.67,2.1,2.1,0,0,1,1.44.46A3,3,0,0,1,171.37,86.46ZM163,93.34l7.83-4.52a6.58,6.58,0,0,0-.3-1.73,2.52,2.52,0,0,0-.74-1.15,1.88,1.88,0,0,0-1.19-.4,3.18,3.18,0,0,0-1.59.52,6.64,6.64,0,0,0-1.69,1.39,9,9,0,0,0-2,3.84,10.92,10.92,0,0,0-.33,2" transform="translate(0.58 0.25)"/><path class="cls-14" d="M156.16,93.47a3.29,3.29,0,0,1,1,1.49,7.12,7.12,0,0,1,.33,2.28,11.26,11.26,0,0,1-.32,2.67,11.48,11.48,0,0,1-.94,2.59,10.33,10.33,0,0,1-1.53,2.26,8.24,8.24,0,0,1-2.09,1.73,4.55,4.55,0,0,1-2.1.7,2.32,2.32,0,0,1-1.54-.5,3.14,3.14,0,0,1-.95-1.5,7.14,7.14,0,0,1-.33-2.29,11.48,11.48,0,0,1,.31-2.65,12.54,12.54,0,0,1,.94-2.59,10.56,10.56,0,0,1,1.54-2.29,8.2,8.2,0,0,1,2.09-1.71,4.58,4.58,0,0,1,2.1-.71A2.23,2.23,0,0,1,156.16,93.47Zm.23,6.49a8.32,8.32,0,0,0,0-4.22,3.14,3.14,0,0,0-.79-1.34,1.9,1.9,0,0,0-1.29-.52,3.61,3.61,0,0,0-1.77.56,6.9,6.9,0,0,0-1.76,1.48,9.92,9.92,0,0,0-1.29,2,11.54,11.54,0,0,0-.78,2.25,8.24,8.24,0,0,0,0,4.23,3.08,3.08,0,0,0,.79,1.35,1.89,1.89,0,0,0,1.29.5,3.3,3.3,0,0,0,1.76-.55,6.42,6.42,0,0,0,1.77-1.49,9.32,9.32,0,0,0,1.28-2,11.52,11.52,0,0,0,.79-2.27" transform="translate(0.58 0.25)"/><path class="cls-14" d="M146.13,107.13a7.59,7.59,0,0,0,.41-1.78l.79-.46a9.62,9.62,0,0,1-.51,2.26,9.83,9.83,0,0,1-2.36,3.71,8.63,8.63,0,0,1-1.62,1.24,4.61,4.61,0,0,1-2.23.75,2.13,2.13,0,0,1-1.53-.57,3.38,3.38,0,0,1-.87-1.58,8.8,8.8,0,0,1-.29-2.31,11.4,11.4,0,0,1,1.25-5.17,11,11,0,0,1,1.54-2.24,8.17,8.17,0,0,1,2.09-1.71,6.4,6.4,0,0,1,1.64-.7,2.69,2.69,0,0,1,1.35,0,1.6,1.6,0,0,1,1,.72,3.26,3.26,0,0,1,.47,1.53l-.79.46a2.48,2.48,0,0,0-.37-1.22,1.37,1.37,0,0,0-.78-.58,2.51,2.51,0,0,0-1.12,0,4.56,4.56,0,0,0-1.29.54l-.07,0a6.9,6.9,0,0,0-1.76,1.48,9.65,9.65,0,0,0-1.28,2,10.52,10.52,0,0,0-.78,2.22,9.63,9.63,0,0,0-.27,2.19,8.38,8.38,0,0,0,.26,2.15,2.78,2.78,0,0,0,.77,1.38,1.77,1.77,0,0,0,1.29.47,4.11,4.11,0,0,0,1.81-.61,6.68,6.68,0,0,0,1.38-1.09,8.83,8.83,0,0,0,1.91-3.1Z" transform="translate(0.58 0.25)"/><polygon class="cls-14" points="135.18 116.82 135.13 99.79 137.5 98.42 137.55 115.46 135.18 116.82"/><path class="cls-14" d="M132.62,107.25a3.57,3.57,0,0,1,1,1.75,7.24,7.24,0,0,1,.16,2.59l-7.89,4.55a4.37,4.37,0,0,0,.18,1.29,1.83,1.83,0,0,0,.53.86,1.28,1.28,0,0,0,.9.28,2.94,2.94,0,0,0,1.29-.44,5.19,5.19,0,0,0,1.66-1.48,6.08,6.08,0,0,0,1-2.09l2.24-1.29a9.09,9.09,0,0,1-.64,2.16,10.62,10.62,0,0,1-1.1,2,10.38,10.38,0,0,1-1.44,1.64,10.23,10.23,0,0,1-1.66,1.24,5.7,5.7,0,0,1-2.25.82,2.47,2.47,0,0,1-1.65-.39,2.75,2.75,0,0,1-1-1.47,7.39,7.39,0,0,1-.36-2.42,10.59,10.59,0,0,1,.36-2.71,12.59,12.59,0,0,1,1-2.67,11.52,11.52,0,0,1,1.63-2.36,8.31,8.31,0,0,1,2.16-1.77,4.46,4.46,0,0,1,2.27-.71A2.52,2.52,0,0,1,132.62,107.25Zm-6.76,7.1,5.52-3.19a3.77,3.77,0,0,0-.24-1.1,1.62,1.62,0,0,0-.54-.72,1.34,1.34,0,0,0-.84-.24,2.18,2.18,0,0,0-1.09.36,4.57,4.57,0,0,0-1.13.9,6.18,6.18,0,0,0-.87,1.19,7.11,7.11,0,0,0-.58,1.38,5.31,5.31,0,0,0-.23,1.42" transform="translate(0.58 0.25)"/><polygon class="cls-14" points="123.58 113.07 117.47 124.89 123.92 121.17 123.93 123.32 114.48 128.77 114.47 126.87 120.39 115.16 114.86 118.35 114.86 116.2 123.58 111.17 123.58 113.07"/></g></g><g id="Laptop"><path class="cls-9" d="M372.75,145.88V269c0,3.64,3,4.89,6.59,2.8l67.71-39.1,131.27-75.78c3.63-2.1,6.6-6.78,6.6-10.41V23.39c0-3.63-3-4.88-6.6-2.79L483.87,75.14,379.34,135.48C375.72,137.57,372.75,142.26,372.75,145.88Z" transform="translate(0.58 0.25)"/><path class="cls-21" d="M372.78,145.91V269c0,3.63,3,4.88,6.59,2.79l67.71-39.09,131.27-75.79c3.63-2.1,6.6-6.77,6.6-10.41V23.41c0-3.62-3-4.88-6.6-2.78L483.9,75.16,379.37,135.51C375.75,137.6,372.78,142.28,372.78,145.91Z" transform="translate(0.58 0.25)"/><path class="cls-22" d="M372.81,145.93V269.05c0,3.64,3,4.89,6.59,2.8l67.71-39.1L578.38,157c3.63-2.1,6.6-6.78,6.6-10.41V23.44c0-3.63-3-4.88-6.6-2.79L483.93,75.19,379.4,135.53C375.78,137.62,372.81,142.31,372.81,145.93Z" transform="translate(0.58 0.25)"/><path class="cls-23" d="M372.84,146V269.08c0,3.63,3,4.88,6.6,2.79l67.7-39.09L578.41,157c3.63-2.1,6.6-6.77,6.6-10.41V23.46c0-3.62-3-4.88-6.6-2.78L484,75.21,379.44,135.56C375.81,137.65,372.84,142.33,372.84,146Z" transform="translate(0.58 0.25)"/><path class="cls-24" d="M372.87,146V269.1c0,3.64,3,4.89,6.6,2.8l67.71-39.1L578.44,157c3.63-2.1,6.6-6.78,6.6-10.41V23.49c0-3.63-3-4.88-6.6-2.79L484,75.24,379.47,135.58C375.84,137.67,372.87,142.36,372.87,146Z" transform="translate(0.58 0.25)"/><path class="cls-25" d="M372.9,146V269.13c0,3.63,3,4.88,6.6,2.79l67.71-39.09L578.47,157c3.63-2.1,6.6-6.77,6.6-10.41V23.51c0-3.62-3-4.88-6.6-2.78L484,75.26,379.5,135.61C375.87,137.7,372.9,142.38,372.9,146Z" transform="translate(0.58 0.25)"/><path class="cls-26" d="M372.93,146V269.15c0,3.64,3,4.89,6.6,2.8l67.71-39.1L578.5,157.07c3.63-2.1,6.6-6.78,6.6-10.41V23.54c0-3.63-3-4.88-6.6-2.79L484.05,75.29,379.53,135.63C375.9,137.72,372.93,142.41,372.93,146Z" transform="translate(0.58 0.25)"/><path class="cls-27" d="M373,146.06V269.18c0,3.63,3,4.88,6.6,2.79l67.71-39.09,131.26-75.79c3.63-2.1,6.6-6.77,6.6-10.4V23.56c0-3.62-3-4.88-6.6-2.78L484.08,75.31,379.56,135.66C375.93,137.75,373,142.43,373,146.06Z" transform="translate(0.58 0.25)"/><path class="cls-28" d="M373,146.08V269.2c0,3.64,3,4.89,6.6,2.8l67.71-39.09,131.26-75.79c3.63-2.1,6.6-6.78,6.6-10.41V23.59c0-3.63-3-4.88-6.6-2.79L484.11,75.34,379.59,135.68C376,137.77,373,142.46,373,146.08Z" transform="translate(0.58 0.25)"/><path class="cls-29" d="M373,146.11V269.23c0,3.63,3,4.88,6.6,2.79l67.71-39.09L578.6,157.14c3.62-2.1,6.59-6.77,6.59-10.4V23.61c0-3.62-3-4.88-6.59-2.78L484.14,75.36,379.62,135.71C376,137.8,373,142.48,373,146.11Z" transform="translate(0.58 0.25)"/><path class="cls-30" d="M373.05,146.13V269.25c0,3.64,3,4.89,6.6,2.8L447.36,233l131.27-75.79c3.62-2.1,6.59-6.78,6.59-10.41V23.64c0-3.63-3-4.88-6.59-2.79L484.17,75.39,379.65,135.73C376,137.82,373.05,142.51,373.05,146.13Z" transform="translate(0.58 0.25)"/><path class="cls-31" d="M373.08,146.16V269.28c0,3.63,3,4.88,6.6,2.79L447.39,233l131.27-75.79c3.62-2.1,6.59-6.77,6.59-10.4V23.66c0-3.62-3-4.88-6.59-2.78L484.2,75.41,379.68,135.76C376.05,137.85,373.08,142.53,373.08,146.16Z" transform="translate(0.58 0.25)"/><path class="cls-32" d="M373.11,146.18V269.3c0,3.64,3,4.89,6.6,2.8L447.42,233l131.27-75.79c3.62-2.1,6.59-6.78,6.59-10.41V23.69c0-3.63-3-4.88-6.59-2.79L484.24,75.44,379.71,135.78C376.08,137.87,373.11,142.56,373.11,146.18Z" transform="translate(0.58 0.25)"/><path class="cls-33" d="M373.15,146.21V269.33c0,3.63,3,4.88,6.59,2.79L447.45,233l131.27-75.79c3.62-2.1,6.59-6.77,6.59-10.4V23.71c0-3.62-3-4.88-6.59-2.78L484.27,75.46,379.74,135.81C376.11,137.9,373.15,142.58,373.15,146.21Z" transform="translate(0.58 0.25)"/><path class="cls-34" d="M373.18,146.23V269.36c0,3.63,3,4.88,6.59,2.79l67.71-39.09,131.27-75.79c3.62-2.1,6.59-6.78,6.59-10.41V23.74c0-3.63-3-4.88-6.59-2.78L484.3,75.49,379.77,135.83C376.14,137.92,373.18,142.61,373.18,146.23Z" transform="translate(0.58 0.25)"/><path class="cls-35" d="M373.21,146.26V269.38c0,3.63,3,4.88,6.59,2.79l67.71-39.09,131.27-75.79c3.62-2.1,6.59-6.77,6.59-10.4V23.76c0-3.62-3-4.88-6.59-2.78L484.33,75.51,379.8,135.86C376.18,138,373.21,142.63,373.21,146.26Z" transform="translate(0.58 0.25)"/><path class="cls-36" d="M373.24,146.28V269.41c0,3.63,3,4.88,6.59,2.79l67.71-39.09,131.27-75.79c3.63-2.1,6.59-6.77,6.59-10.41V23.79c0-3.63-3-4.88-6.59-2.78L484.36,75.54,379.83,135.88C376.21,138,373.24,142.66,373.24,146.28Z" transform="translate(0.58 0.25)"/><path class="cls-37" d="M373.27,146.31V269.43c0,3.63,3,4.88,6.59,2.79l67.71-39.09,131.27-75.79c3.63-2.09,6.6-6.77,6.6-10.4V23.81c0-3.62-3-4.88-6.6-2.78L484.39,75.56,379.86,135.91C376.24,138,373.27,142.68,373.27,146.31Z" transform="translate(0.58 0.25)"/><path class="cls-38" d="M373.3,146.33V269.46c0,3.63,3,4.88,6.59,2.79l67.71-39.09,131.27-75.79c3.63-2.1,6.6-6.77,6.6-10.41V23.84c0-3.63-3-4.88-6.6-2.78L484.42,75.59,379.89,135.94C376.27,138,373.3,142.71,373.3,146.33Z" transform="translate(0.58 0.25)"/><path class="cls-39" d="M373.33,146.36V269.48c0,3.63,3,4.88,6.59,2.79l67.71-39.09L578.9,157.39c3.63-2.09,6.6-6.77,6.6-10.4V23.86c0-3.62-3-4.88-6.6-2.78L484.45,75.61,379.92,136C376.3,138.05,373.33,142.73,373.33,146.36Z" transform="translate(0.58 0.25)"/><path class="cls-40" d="M373.36,146.38V269.51c0,3.63,3,4.88,6.59,2.79l67.71-39.09,131.27-75.79c3.63-2.1,6.6-6.77,6.6-10.41V23.89c0-3.63-3-4.88-6.6-2.78L484.48,75.64,380,136C376.33,138.08,373.36,142.76,373.36,146.38Z" transform="translate(0.58 0.25)"/><path class="cls-41" d="M373.39,146.41V269.53c0,3.63,3,4.88,6.59,2.79l67.71-39.09L579,157.44c3.63-2.09,6.6-6.77,6.6-10.4V23.92c0-3.63-3-4.89-6.6-2.79L484.51,75.66,380,136C376.36,138.1,373.39,142.78,373.39,146.41Z" transform="translate(0.58 0.25)"/><path class="cls-42" d="M373.42,146.43V269.56c0,3.63,3,4.88,6.6,2.79l67.7-39.09L579,157.47c3.63-2.1,6.6-6.77,6.6-10.41V23.94c0-3.63-3-4.88-6.6-2.78L484.54,75.69,380,136C376.39,138.13,373.42,142.81,373.42,146.43Z" transform="translate(0.58 0.25)"/><path class="cls-43" d="M373.45,146.46V269.58c0,3.64,3,4.88,6.6,2.79l67.71-39.09L579,157.49c3.63-2.09,6.6-6.77,6.6-10.4V24c0-3.63-3-4.89-6.6-2.79L484.57,75.72,380.05,136.06C376.42,138.15,373.45,142.83,373.45,146.46Z" transform="translate(0.58 0.25)"/><path class="cls-44" d="M373.48,146.48V269.61c0,3.63,3,4.88,6.6,2.79l67.71-39.09,131.26-75.79c3.63-2.1,6.6-6.77,6.6-10.41V24c0-3.63-3-4.88-6.6-2.78L484.6,75.74,380.08,136.09C376.45,138.18,373.48,142.86,373.48,146.48Z" transform="translate(0.58 0.25)"/><path class="cls-45" d="M373.51,146.51V269.63c0,3.64,3,4.88,6.6,2.79l67.71-39.09,131.26-75.79c3.63-2.09,6.6-6.77,6.6-10.4V24c0-3.63-3-4.89-6.6-2.79L484.63,75.77,380.11,136.11C376.48,138.2,373.51,142.88,373.51,146.51Z" transform="translate(0.58 0.25)"/><path class="cls-46" d="M373.54,146.53V269.66c0,3.63,3,4.88,6.6,2.79l67.71-39.09,131.26-75.79c3.63-2.1,6.6-6.77,6.6-10.41V24c0-3.63-3-4.88-6.6-2.78L484.66,75.79,380.14,136.14C376.51,138.23,373.54,142.91,373.54,146.53Z" transform="translate(0.58 0.25)"/><path class="cls-47" d="M373.57,146.56V269.68c0,3.64,3,4.88,6.6,2.79l67.71-39.09,131.26-75.79c3.63-2.09,6.6-6.77,6.6-10.4V24.07c0-3.63-3-4.89-6.6-2.79L484.69,75.82,380.17,136.16C376.54,138.25,373.57,142.93,373.57,146.56Z" transform="translate(0.58 0.25)"/><path class="cls-48" d="M373.6,146.59V269.71c0,3.63,3,4.88,6.6,2.79l67.71-39.09,131.27-75.79c3.62-2.1,6.59-6.77,6.59-10.41V24.09c0-3.63-3-4.88-6.59-2.78L484.72,75.84,380.2,136.19C376.57,138.28,373.6,143,373.6,146.59Z" transform="translate(0.58 0.25)"/><path class="cls-49" d="M373.63,146.61V269.73c0,3.64,3,4.88,6.6,2.79l67.71-39.09,131.27-75.79c3.62-2.09,6.59-6.77,6.59-10.4V24.12c0-3.63-3-4.89-6.59-2.79L484.75,75.87,380.23,136.21C376.6,138.3,373.63,143,373.63,146.61Z" transform="translate(0.58 0.25)"/><path class="cls-50" d="M373.66,146.64V269.76c0,3.63,3,4.88,6.6,2.79L448,233.46l131.27-75.79c3.62-2.1,6.59-6.77,6.59-10.41V24.14c0-3.62-3-4.88-6.59-2.78L484.78,75.89,380.26,136.24C376.63,138.33,373.66,143,373.66,146.64Z" transform="translate(0.58 0.25)"/><path class="cls-51" d="M373.69,146.66V269.78c0,3.64,3,4.88,6.6,2.79L448,233.48l131.27-75.79c3.62-2.09,6.59-6.77,6.59-10.4V24.17c0-3.63-3-4.89-6.59-2.79L484.82,75.92,380.29,136.26C376.66,138.35,373.69,143,373.69,146.66Z" transform="translate(0.58 0.25)"/><path class="cls-52" d="M373.73,146.69V269.81c0,3.63,3,4.88,6.59,2.79L448,233.51,579.3,157.72c3.62-2.1,6.59-6.77,6.59-10.41V24.19c0-3.62-3-4.88-6.59-2.78L484.85,75.94,380.32,136.29C376.69,138.38,373.73,143.06,373.73,146.69Z" transform="translate(0.58 0.25)"/><path class="cls-53" d="M373.76,146.71V269.83c0,3.64,3,4.88,6.59,2.79l67.71-39.09,131.27-75.78c3.62-2.1,6.59-6.78,6.59-10.41V24.22c0-3.63-3-4.88-6.59-2.79L484.88,76,380.35,136.31C376.72,138.4,373.76,143.08,373.76,146.71Z" transform="translate(0.58 0.25)"/><path class="cls-54" d="M373.79,146.74V269.86c0,3.63,3,4.88,6.59,2.79l67.71-39.09,131.27-75.79C583,155.67,586,151,586,147.36V24.24c0-3.62-3-4.88-6.59-2.78L484.91,76,380.38,136.34C376.76,138.43,373.79,143.11,373.79,146.74Z" transform="translate(0.58 0.25)"/><path class="cls-55" d="M373.82,146.76V269.88c0,3.64,3,4.89,6.59,2.79l67.71-39.09L579.39,157.8C583,155.7,586,151,586,147.39V24.27c0-3.63-3-4.88-6.59-2.79L484.94,76,380.41,136.36C376.79,138.45,373.82,143.14,373.82,146.76Z" transform="translate(0.58 0.25)"/><path class="cls-56" d="M373.85,146.79V269.91c0,3.63,3,4.88,6.59,2.79l67.71-39.09,131.27-75.79c3.63-2.1,6.6-6.77,6.6-10.41V24.29c0-3.62-3-4.88-6.6-2.78L485,76,380.44,136.39C376.82,138.48,373.85,143.16,373.85,146.79Z" transform="translate(0.58 0.25)"/><path class="cls-57" d="M373.88,146.81V269.93c0,3.64,3,4.89,6.59,2.8l67.71-39.1,131.27-75.78c3.63-2.1,6.6-6.78,6.6-10.41V24.32c0-3.63-3-4.88-6.6-2.79L485,76.07,380.47,136.41C376.85,138.5,373.88,143.19,373.88,146.81Z" transform="translate(0.58 0.25)"/><path class="cls-58" d="M373.91,146.84V270c0,3.63,3,4.88,6.59,2.79l67.71-39.09,131.27-75.79c3.63-2.1,6.6-6.77,6.6-10.41V24.34c0-3.62-3-4.88-6.6-2.78L485,76.09,380.5,136.44C376.88,138.53,373.91,143.21,373.91,146.84Z" transform="translate(0.58 0.25)"/><path class="cls-59" d="M373.94,146.86V270c0,3.64,3,4.89,6.59,2.8l67.71-39.1L579.51,157.9c3.63-2.1,6.6-6.78,6.6-10.41V24.37c0-3.63-3-4.88-6.6-2.79L485.06,76.12,380.53,136.46C376.91,138.55,373.94,143.24,373.94,146.86Z" transform="translate(0.58 0.25)"/><path class="cls-60" d="M374,146.89V270c0,3.63,3,4.88,6.59,2.79l67.71-39.09,131.27-75.79c3.63-2.1,6.6-6.77,6.6-10.41V24.39c0-3.62-3-4.88-6.6-2.78L485.09,76.14,380.56,136.49C376.94,138.58,374,143.26,374,146.89Z" transform="translate(0.58 0.25)"/><path class="cls-61" d="M374,146.91V270c0,3.64,3,4.89,6.6,2.8l67.7-39.1L579.57,158c3.63-2.1,6.6-6.78,6.6-10.41V24.42c0-3.63-3-4.88-6.6-2.79L485.12,76.17,380.6,136.51C377,138.6,374,143.29,374,146.91Z" transform="translate(0.58 0.25)"/><path class="cls-62" d="M374,146.94V270.06c0,3.63,3,4.88,6.6,2.79l67.71-39.09L579.6,158c3.63-2.1,6.6-6.77,6.6-10.4V24.44c0-3.62-3-4.88-6.6-2.78L485.15,76.19,380.63,136.54C377,138.63,374,143.31,374,146.94Z" transform="translate(0.58 0.25)"/><path class="cls-63" d="M374.06,147V270.08c0,3.64,3,4.89,6.6,2.8l67.71-39.09L579.63,158c3.63-2.1,6.6-6.78,6.6-10.41V24.47c0-3.63-3-4.88-6.6-2.79L485.18,76.22,380.66,136.56C377,138.65,374.06,143.34,374.06,147Z" transform="translate(0.58 0.25)"/><path class="cls-64" d="M374.09,147V270.11c0,3.63,3,4.88,6.6,2.79l67.71-39.09L579.66,158c3.63-2.1,6.6-6.77,6.6-10.4V24.49c0-3.62-3-4.88-6.6-2.78L485.21,76.24,380.69,136.59C377.06,138.68,374.09,143.36,374.09,147Z" transform="translate(0.58 0.25)"/><path class="cls-65" d="M374.12,147V270.13c0,3.64,3,4.89,6.6,2.8l67.71-39.09,131.26-75.79c3.63-2.1,6.6-6.78,6.6-10.41V24.52c0-3.63-3-4.88-6.6-2.79L485.24,76.27,380.72,136.61C377.09,138.7,374.12,143.39,374.12,147Z" transform="translate(0.58 0.25)"/><path class="cls-66" d="M374.15,147V270.16c0,3.63,3,4.88,6.6,2.79l67.71-39.09,131.27-75.79c3.62-2.1,6.59-6.77,6.59-10.4V24.54c0-3.62-3-4.88-6.59-2.78L485.27,76.29,380.75,136.64C377.12,138.73,374.15,143.41,374.15,147Z" transform="translate(0.58 0.25)"/><path class="cls-67" d="M374.18,147.06V270.18c0,3.64,3,4.89,6.6,2.8l67.71-39.09L579.76,158.1c3.62-2.1,6.59-6.78,6.59-10.41V24.57c0-3.63-3-4.88-6.59-2.79L485.3,76.32,380.78,136.66C377.15,138.75,374.18,143.44,374.18,147.06Z" transform="translate(0.58 0.25)"/><path class="cls-68" d="M374.21,147.09V270.21c0,3.63,3,4.88,6.6,2.79l67.71-39.09,131.27-75.79c3.62-2.1,6.59-6.77,6.59-10.4V24.59c0-3.62-3-4.88-6.59-2.78L485.33,76.34,380.81,136.69C377.18,138.78,374.21,143.46,374.21,147.09Z" transform="translate(0.58 0.25)"/><path class="cls-69" d="M374.24,147.11V270.24c0,3.63,3,4.88,6.6,2.79l67.71-39.09,131.27-75.79c3.62-2.1,6.59-6.78,6.59-10.41V24.62c0-3.63-3-4.88-6.59-2.79L485.36,76.37,380.84,136.71C377.21,138.8,374.24,143.49,374.24,147.11Z" transform="translate(0.58 0.25)"/><path class="cls-70" d="M374.27,147.14V270.26c0,3.63,3,4.88,6.6,2.79L448.58,234l131.27-75.79c3.62-2.09,6.59-6.77,6.59-10.4V24.64c0-3.62-3-4.88-6.59-2.78L485.4,76.39,380.87,136.74C377.24,138.83,374.27,143.51,374.27,147.14Z" transform="translate(0.58 0.25)"/><path class="cls-71" d="M374.31,147.16V270.29c0,3.63,3,4.88,6.59,2.79L448.61,234,579.88,158.2c3.62-2.1,6.59-6.78,6.59-10.41V24.67c0-3.63-3-4.88-6.59-2.78L485.43,76.42,380.9,136.76C377.27,138.86,374.31,143.54,374.31,147.16Z" transform="translate(0.58 0.25)"/><path class="cls-72" d="M374.34,147.19V270.31c0,3.63,3,4.88,6.59,2.79L448.64,234l131.27-75.79c3.62-2.09,6.59-6.77,6.59-10.4V24.69c0-3.62-3-4.88-6.59-2.78L485.46,76.44,380.93,136.79C377.3,138.88,374.34,143.56,374.34,147.19Z" transform="translate(0.58 0.25)"/><path class="cls-73" d="M374.37,147.21V270.34c0,3.63,3,4.88,6.59,2.79L448.67,234l131.27-75.79c3.62-2.1,6.59-6.77,6.59-10.41V24.72c0-3.63-3-4.88-6.59-2.78L485.49,76.47,381,136.82C377.34,138.91,374.37,143.59,374.37,147.21Z" transform="translate(0.58 0.25)"/><path class="cls-74" d="M374.4,147.24V270.36c0,3.63,3,4.88,6.59,2.79l67.71-39.09L580,158.27c3.63-2.09,6.59-6.77,6.59-10.4V24.74c0-3.62-3-4.88-6.59-2.78L485.52,76.49,381,136.84C377.37,138.93,374.4,143.61,374.4,147.24Z" transform="translate(0.58 0.25)"/><path class="cls-75" d="M374.43,147.26V270.39c0,3.63,3,4.88,6.59,2.79l67.71-39.09L580,158.3c3.63-2.1,6.6-6.77,6.6-10.41V24.77c0-3.63-3-4.88-6.6-2.78L485.55,76.52,381,136.87C377.4,139,374.43,143.64,374.43,147.26Z" transform="translate(0.58 0.25)"/><path class="cls-76" d="M374.46,147.29V270.41c0,3.63,3,4.88,6.59,2.79l67.71-39.09L580,158.32c3.63-2.09,6.6-6.77,6.6-10.4V24.8c0-3.63-3-4.89-6.6-2.79L485.58,76.54,381.05,136.89C377.43,139,374.46,143.66,374.46,147.29Z" transform="translate(0.58 0.25)"/><path class="cls-77" d="M374.49,147.31V270.44c0,3.63,3,4.88,6.59,2.79l67.71-39.09,131.27-75.79c3.63-2.1,6.6-6.77,6.6-10.41V24.82c0-3.63-3-4.88-6.6-2.78L485.61,76.57,381.08,136.92C377.46,139,374.49,143.69,374.49,147.31Z" transform="translate(0.58 0.25)"/><path class="cls-78" d="M374.52,147.34V270.46c0,3.64,3,4.88,6.59,2.79l67.71-39.09,131.27-75.79c3.63-2.09,6.6-6.77,6.6-10.4V24.85c0-3.63-3-4.89-6.6-2.79L485.64,76.59,381.11,136.94C377.49,139,374.52,143.71,374.52,147.34Z" transform="translate(0.58 0.25)"/><path class="cls-79" d="M374.55,147.36V270.49c0,3.63,3,4.88,6.59,2.79l67.71-39.09L580.12,158.4c3.63-2.1,6.6-6.77,6.6-10.41V24.87c0-3.63-3-4.88-6.6-2.78L485.67,76.62,381.14,137C377.52,139.06,374.55,143.74,374.55,147.36Z" transform="translate(0.58 0.25)"/><path class="cls-80" d="M374.58,147.39V270.51c0,3.64,3,4.88,6.6,2.79l67.7-39.09,131.27-75.79c3.63-2.09,6.6-6.77,6.6-10.4V24.9c0-3.63-3-4.89-6.6-2.79L485.7,76.65,381.18,137C377.55,139.08,374.58,143.76,374.58,147.39Z" transform="translate(0.58 0.25)"/><path class="cls-81" d="M374.61,147.42V270.54c0,3.63,3,4.88,6.6,2.79l67.71-39.09,131.26-75.79c3.63-2.1,6.6-6.77,6.6-10.41V24.92c0-3.63-3-4.88-6.6-2.78L485.73,76.67,381.21,137C377.58,139.11,374.61,143.79,374.61,147.42Z" transform="translate(0.58 0.25)"/><path class="cls-82" d="M374.64,147.44V270.56c0,3.64,3,4.88,6.6,2.79L449,234.26l131.26-75.79c3.63-2.09,6.6-6.77,6.6-10.4V25c0-3.63-3-4.89-6.6-2.79L485.76,76.7,381.24,137C377.61,139.13,374.64,143.81,374.64,147.44Z" transform="translate(0.58 0.25)"/><path class="cls-83" d="M374.67,147.47V270.59c0,3.63,3,4.88,6.6,2.79L449,234.29,580.24,158.5c3.63-2.1,6.6-6.77,6.6-10.41V25c0-3.63-3-4.88-6.6-2.78L485.79,76.72,381.27,137.07C377.64,139.16,374.67,143.84,374.67,147.47Z" transform="translate(0.58 0.25)"/><path class="cls-84" d="M374.7,147.49V270.61c0,3.64,3,4.88,6.6,2.79L449,234.31l131.26-75.79c3.63-2.09,6.6-6.77,6.6-10.4V25c0-3.63-3-4.89-6.6-2.79L485.82,76.75,381.3,137.09C377.67,139.18,374.7,143.86,374.7,147.49Z" transform="translate(0.58 0.25)"/><path class="cls-85" d="M374.73,147.52V270.64c0,3.63,3,4.88,6.6,2.79L449,234.34l131.27-75.79c3.62-2.1,6.59-6.77,6.59-10.41V25c0-3.62-3-4.88-6.59-2.78L485.85,76.77,381.33,137.12C377.7,139.21,374.73,143.89,374.73,147.52Z" transform="translate(0.58 0.25)"/><path class="cls-86" d="M374.76,147.54V270.66c0,3.64,3,4.88,6.6,2.79l67.71-39.09,131.27-75.79c3.62-2.09,6.59-6.77,6.59-10.4V25.05c0-3.63-3-4.89-6.59-2.79L485.88,76.8,381.36,137.14C377.73,139.23,374.76,143.91,374.76,147.54Z" transform="translate(0.58 0.25)"/><path class="cls-87" d="M374.79,147.57V270.69c0,3.63,3,4.88,6.6,2.79l67.71-39.09L580.37,158.6c3.62-2.1,6.59-6.77,6.59-10.41V25.07c0-3.62-3-4.88-6.59-2.78L485.91,76.82,381.39,137.17C377.76,139.26,374.79,143.94,374.79,147.57Z" transform="translate(0.58 0.25)"/><polygon class="cls-88" points="381.35 148.5 381.35 267.22 582.63 150.14 582.72 32.12 381.35 148.5"/><path class="cls-6" d="M581.4,32.51c.79-.46,1.43-.1,1.43.81l.33,115.19a3.11,3.11,0,0,1-1.43,2.46L382,266.32c-.78.45-1.42.09-1.43-.82l-.32-115.19a3.1,3.1,0,0,1,1.42-2.46Z" transform="translate(0.58 0.25)"/><path class="cls-89" d="M479,86.42a3.9,3.9,0,0,1,1.88-3c1-.6,1.88-.24,1.88.8a3.9,3.9,0,0,1-1.88,3C479.84,87.82,479,87.46,479,86.42Z" transform="translate(0.58 0.25)"/><path class="cls-90" d="M479.22,86a2.18,2.18,0,0,1,1-1.66c.58-.34,1.05-.14,1.05.44a2.18,2.18,0,0,1-1.05,1.66C479.69,86.73,479.22,86.53,479.22,86Z" transform="translate(0.58 0.25)"/><path class="cls-10" d="M380,276.42v.38c.06,1.55,1.12,3.09,3.16,4.28l122.75,70.86a17,17,0,0,0,15.34,0L719.63,237.41c2-1.18,3.1-2.71,3.16-4.27v-.34c-.08-1.54-1.13-3.07-3.16-4.24L596.89,157.7a16.93,16.93,0,0,0-15.34,0L383.18,272.21C381.17,273.38,380.11,274.89,380,276.42Z" transform="translate(0.58 0.25)"/><path class="cls-5" d="M406.65,275.09a3.42,3.42,0,0,0,1.81,2.13l70.08,40.46a9.93,9.93,0,0,0,9,0L662.89,216.43a3.41,3.41,0,0,0,1.8-2.12c.25-1.09-.35-2.23-1.8-3.06l-70.08-40.46a9.89,9.89,0,0,0-9,0L408.46,272C407,272.87,406.41,274,406.65,275.09Z" transform="translate(0.58 0.25)"/><path class="cls-91" d="M547.1,286.45a1.64,1.64,0,0,0,.8.9l35.42,20.45a4.53,4.53,0,0,0,4.09,0L645,274.57a1.56,1.56,0,0,0,.79-.91c.16-.51-.11-1.06-.79-1.45l-35.42-20.45a4.53,4.53,0,0,0-4.09,0L547.9,285C547.22,285.39,547,285.93,547.1,286.45Z" transform="translate(0.58 0.25)"/><path class="cls-5" d="M547.1,286.45a1.64,1.64,0,0,0,.8.9l35.42,20.45a4.53,4.53,0,0,0,4.09,0L645,274.57a.91.91,0,0,0,0-1.81l-35.42-20.45a4.53,4.53,0,0,0-4.09,0L547.9,285.54A1.62,1.62,0,0,0,547.1,286.45Z" transform="translate(0.58 0.25)"/><g class="cls-92"><path class="cls-93" d="M431.65,287.25a2.22,2.22,0,0,1-2,0l-8.55-4.93a.61.61,0,0,1,0-1.16l10.49-6.06a2.22,2.22,0,0,1,2,0l8.55,4.94a.61.61,0,0,1,0,1.16Z" transform="translate(0.58 0.25)"/><path class="cls-93" d="M587.29,197.39a2.22,2.22,0,0,1-2,0l-8.54-4.93a.61.61,0,0,1,0-1.16l22.38-12.92a2.2,2.2,0,0,1,2,0l8.55,4.93a.61.61,0,0,1,0,1.16Z" transform="translate(0.58 0.25)"/><path class="cls-93" d="M604.86,200.75a2.22,2.22,0,0,1-2,0l-8.55-4.93a.61.61,0,0,1,0-1.16l16.51-9.53a2.2,2.2,0,0,1,2,0l8.55,4.93a.61.61,0,0,1,0,1.16Z" transform="translate(0.58 0.25)"/><path class="cls-93" d="M608.06,212.88a2.22,2.22,0,0,1-2,0L597.5,208a.61.61,0,0,1,0-1.16l25.42-14.67a2.2,2.2,0,0,1,2,0l8.55,4.93a.61.61,0,0,1,0,1.16Z" transform="translate(0.58 0.25)"/><path class="cls-93" d="M614.21,223.31a2.2,2.2,0,0,1-2,0l-8.55-4.93a.61.61,0,0,1,0-1.16L635,199.11a2.2,2.2,0,0,1,2,0l8.55,4.94a.61.61,0,0,1,0,1.15Z" transform="translate(0.58 0.25)"/><path class="cls-93" d="M443.34,294a2.22,2.22,0,0,1-2,0l-8.55-4.93a.61.61,0,0,1,0-1.16l16.47-9.51a2.22,2.22,0,0,1,2,0l8.55,4.93a.61.61,0,0,1,0,1.16Z" transform="translate(0.58 0.25)"/><path class="cls-93" d="M455,300.75a2.22,2.22,0,0,1-2,0l-8.55-4.93a.61.61,0,0,1,0-1.16l19.46-11.23a2.22,2.22,0,0,1,2,0l8.55,4.93a.61.61,0,0,1,0,1.16Z" transform="translate(0.58 0.25)"/><path class="cls-93" d="M466.72,307.5a2.22,2.22,0,0,1-2,0l-8.55-4.93a.61.61,0,0,1,0-1.16l25.3-14.6a2.22,2.22,0,0,1,2,0l8.54,4.93a.61.61,0,0,1,0,1.16Z" transform="translate(0.58 0.25)"/><path class="cls-93" d="M478.41,314.25a2.22,2.22,0,0,1-2,0l-8.54-4.93a.61.61,0,0,1,0-1.16l13.38-7.73a2.22,2.22,0,0,1,2,0l8.54,4.94a.61.61,0,0,1,0,1.16Z" transform="translate(0.58 0.25)"/><path class="cls-93" d="M530.17,284.37a2.22,2.22,0,0,1-2,0l-8.54-4.94a.6.6,0,0,1,0-1.15L575.52,246a2.2,2.2,0,0,1,2,0l8.55,4.94a.61.61,0,0,1,0,1.16Z" transform="translate(0.58 0.25)"/><path class="cls-93" d="M420,280.5a2.2,2.2,0,0,1-2,0l-6.43-3.7a.61.61,0,0,1,0-1.16l8-4.59a2.22,2.22,0,0,1,2,0l6.42,3.71a.61.61,0,0,1,0,1.15Z" transform="translate(0.58 0.25)"/><path class="cls-93" d="M431,274.1a2.22,2.22,0,0,1-2,0l-6.42-3.7a.61.61,0,0,1,0-1.16l7.95-4.59a2.2,2.2,0,0,1,2,0l6.43,3.71a.61.61,0,0,1,0,1.15Z" transform="translate(0.58 0.25)"/><path class="cls-93" d="M441.58,268a2.22,2.22,0,0,1-2,0l-6.42-3.71a.61.61,0,0,1,0-1.16l8-4.59a2.2,2.2,0,0,1,2,0l6.43,3.71a.61.61,0,0,1,0,1.16Z" transform="translate(0.58 0.25)"/><path class="cls-93" d="M452.12,261.93a2.22,2.22,0,0,1-2,0l-6.42-3.71a.61.61,0,0,1,0-1.15l7.95-4.59a2.22,2.22,0,0,1,2,0l6.42,3.7a.61.61,0,0,1,0,1.16Z" transform="translate(0.58 0.25)"/><path class="cls-93" d="M462.66,255.85a2.22,2.22,0,0,1-2,0l-6.42-3.71a.61.61,0,0,1,0-1.16l7.95-4.59a2.22,2.22,0,0,1,2,0l6.42,3.71a.61.61,0,0,1,0,1.16Z" transform="translate(0.58 0.25)"/><path class="cls-93" d="M473.2,249.76a2.22,2.22,0,0,1-2,0l-6.42-3.71a.61.61,0,0,1,0-1.16l8-4.59a2.29,2.29,0,0,1,2,0l6.42,3.71a.61.61,0,0,1,0,1.16Z" transform="translate(0.58 0.25)"/><path class="cls-93" d="M483.74,243.68a2.27,2.27,0,0,1-2,0L475.31,240a.61.61,0,0,1,0-1.16l7.95-4.59a2.22,2.22,0,0,1,2,0l6.42,3.71a.61.61,0,0,1,0,1.16Z" transform="translate(0.58 0.25)"/><path class="cls-93" d="M494.28,237.59a2.2,2.2,0,0,1-2,0l-6.43-3.71a.61.61,0,0,1,0-1.16l7.95-4.59a2.22,2.22,0,0,1,2,0l6.42,3.71a.61.61,0,0,1,0,1.16Z" transform="translate(0.58 0.25)"/><path class="cls-93" d="M504.82,231.5a2.2,2.2,0,0,1-2,0l-6.43-3.7a.61.61,0,0,1,0-1.16l7.95-4.59a2.22,2.22,0,0,1,2,0l6.42,3.71a.6.6,0,0,1,0,1.15Z" transform="translate(0.58 0.25)"/><path class="cls-93" d="M515.37,225.42a2.22,2.22,0,0,1-2,0l-6.43-3.71a.61.61,0,0,1,0-1.16l7.95-4.59a2.22,2.22,0,0,1,2,0l6.42,3.71a.61.61,0,0,1,0,1.16Z" transform="translate(0.58 0.25)"/><path class="cls-93" d="M525.91,219.33a2.22,2.22,0,0,1-2,0l-6.42-3.71a.61.61,0,0,1,0-1.16l7.94-4.58a2.22,2.22,0,0,1,2,0l6.42,3.7a.61.61,0,0,1,0,1.16Z" transform="translate(0.58 0.25)"/><path class="cls-93" d="M536.45,213.25a2.22,2.22,0,0,1-2,0L528,209.54a.61.61,0,0,1,0-1.16l7.94-4.59a2.22,2.22,0,0,1,2,0l6.43,3.71a.61.61,0,0,1,0,1.16Z" transform="translate(0.58 0.25)"/><path class="cls-93" d="M547,207.16a2.22,2.22,0,0,1-2,0l-6.42-3.71a.61.61,0,0,1,0-1.16l8-4.59a2.27,2.27,0,0,1,2,0l6.43,3.71a.61.61,0,0,1,0,1.16Z" transform="translate(0.58 0.25)"/><path class="cls-93" d="M558.41,200.57a2.22,2.22,0,0,1-2,0L550,196.86a.61.61,0,0,1,0-1.16l7.95-4.59a2.2,2.2,0,0,1,2,0l6.43,3.71a.61.61,0,0,1,0,1.16Z" transform="translate(0.58 0.25)"/><path class="cls-93" d="M569,194.48a2.22,2.22,0,0,1-2,0l-6.42-3.71a.61.61,0,0,1,0-1.16l8-4.58a2.2,2.2,0,0,1,2,0l6.43,3.7a.61.61,0,0,1,0,1.16Z" transform="translate(0.58 0.25)"/><path class="cls-93" d="M579.49,188.4a2.22,2.22,0,0,1-2,0l-6.42-3.71a.61.61,0,0,1,0-1.16l8-4.59a2.2,2.2,0,0,1,2,0l6.43,3.71a.61.61,0,0,1,0,1.16Z" transform="translate(0.58 0.25)"/><path class="cls-93" d="M590,182.31a2.22,2.22,0,0,1-2,0l-6.42-3.71a.61.61,0,0,1,0-1.16l7.95-4.59a2.29,2.29,0,0,1,2,0l6.42,3.71a.61.61,0,0,1,0,1.16Z" transform="translate(0.58 0.25)"/><path class="cls-93" d="M445.32,279.36a2.2,2.2,0,0,1-2,0l-8.55-4.94a.61.61,0,0,1,0-1.16l8.55-4.93a2.2,2.2,0,0,1,2,0l8.55,4.93a.61.61,0,0,1,0,1.16Z" transform="translate(0.58 0.25)"/><path class="cls-93" d="M469,265.66a2.22,2.22,0,0,1-2,0l-8.54-4.93a.61.61,0,0,1,0-1.16l8.54-4.93a2.22,2.22,0,0,1,2,0l8.55,4.93a.61.61,0,0,1,0,1.16Z" transform="translate(0.58 0.25)"/><path class="cls-93" d="M457.18,272.51a2.22,2.22,0,0,1-2,0l-8.54-4.93a.61.61,0,0,1,0-1.16l8.54-4.94a2.22,2.22,0,0,1,2,0l8.55,4.94a.61.61,0,0,1,0,1.16Z" transform="translate(0.58 0.25)"/><path class="cls-93" d="M480.9,258.82a2.22,2.22,0,0,1-2,0l-8.55-4.94a.61.61,0,0,1,0-1.16l8.55-4.93a2.22,2.22,0,0,1,2,0l8.54,4.93a.61.61,0,0,1,0,1.16Z" transform="translate(0.58 0.25)"/><path class="cls-93" d="M492.76,252a2.22,2.22,0,0,1-2,0L482.2,247a.61.61,0,0,1,0-1.16l8.55-4.94a2.22,2.22,0,0,1,2,0l8.54,4.94a.61.61,0,0,1,0,1.16Z" transform="translate(0.58 0.25)"/><path class="cls-93" d="M504.62,245.12a2.22,2.22,0,0,1-2,0l-8.55-4.93a.61.61,0,0,1,0-1.16l8.55-4.93a2.22,2.22,0,0,1,2,0l8.54,4.93a.61.61,0,0,1,0,1.16Z" transform="translate(0.58 0.25)"/><path class="cls-93" d="M516.47,238.28a2.2,2.2,0,0,1-2,0l-8.55-4.94a.61.61,0,0,1,0-1.16l8.55-4.93a2.2,2.2,0,0,1,2,0l8.55,4.93a.61.61,0,0,1,0,1.16Z" transform="translate(0.58 0.25)"/><path class="cls-93" d="M528.33,231.43a2.22,2.22,0,0,1-2,0l-8.54-4.93a.61.61,0,0,1,0-1.16l8.54-4.94a2.29,2.29,0,0,1,2,0l8.55,4.94a.61.61,0,0,1,0,1.16Z" transform="translate(0.58 0.25)"/><path class="cls-93" d="M540.19,224.59a2.29,2.29,0,0,1-2,0l-8.54-4.94a.61.61,0,0,1,0-1.16l8.54-4.93a2.22,2.22,0,0,1,2,0l8.55,4.93a.61.61,0,0,1,0,1.16Z" transform="translate(0.58 0.25)"/><path class="cls-93" d="M552.05,217.74a2.22,2.22,0,0,1-2,0l-8.54-4.94a.6.6,0,0,1,0-1.15l8.54-4.94a2.22,2.22,0,0,1,2,0l8.55,4.94a.61.61,0,0,1,0,1.15Z" transform="translate(0.58 0.25)"/><path class="cls-93" d="M563.91,210.89a2.22,2.22,0,0,1-2,0L553.35,206a.61.61,0,0,1,0-1.16l8.55-4.93a2.22,2.22,0,0,1,2,0l8.54,4.93a.61.61,0,0,1,0,1.16Z" transform="translate(0.58 0.25)"/><path class="cls-93" d="M575.77,204.05a2.29,2.29,0,0,1-2,0l-8.55-4.94a.61.61,0,0,1,0-1.16l8.55-4.93a2.22,2.22,0,0,1,2,0l8.54,4.93a.61.61,0,0,1,0,1.16Z" transform="translate(0.58 0.25)"/><path class="cls-93" d="M462.87,282.73a2.29,2.29,0,0,1-2,0l-8.54-4.94a.61.61,0,0,1,0-1.16l8.54-4.93a2.22,2.22,0,0,1,2,0l8.55,4.93a.61.61,0,0,1,0,1.16Z" transform="translate(0.58 0.25)"/><path class="cls-93" d="M474.73,275.88a2.22,2.22,0,0,1-2,0l-8.54-4.94a.6.6,0,0,1,0-1.15l8.54-4.94a2.22,2.22,0,0,1,2,0l8.54,4.94a.6.6,0,0,1,0,1.15Z" transform="translate(0.58 0.25)"/><path class="cls-93" d="M486.59,269a2.22,2.22,0,0,1-2,0L476,264.1a.61.61,0,0,1,0-1.16l8.55-4.93a2.22,2.22,0,0,1,2,0l8.54,4.93a.61.61,0,0,1,0,1.16Z" transform="translate(0.58 0.25)"/><path class="cls-93" d="M498.45,262.19a2.29,2.29,0,0,1-2,0l-8.55-4.94a.61.61,0,0,1,0-1.16l8.55-4.93a2.22,2.22,0,0,1,2,0l8.54,4.93a.61.61,0,0,1,0,1.16Z" transform="translate(0.58 0.25)"/><path class="cls-93" d="M510.3,255.34a2.2,2.2,0,0,1-2,0l-8.55-4.93a.61.61,0,0,1,0-1.16l8.55-4.94a2.2,2.2,0,0,1,2,0l8.55,4.94a.61.61,0,0,1,0,1.16Z" transform="translate(0.58 0.25)"/><path class="cls-93" d="M522.16,248.49a2.2,2.2,0,0,1-2,0l-8.55-4.93a.61.61,0,0,1,0-1.16l8.55-4.93a2.2,2.2,0,0,1,2,0l8.55,4.93a.61.61,0,0,1,0,1.16Z" transform="translate(0.58 0.25)"/><path class="cls-93" d="M534,241.65a2.22,2.22,0,0,1-2,0l-8.54-4.94a.61.61,0,0,1,0-1.16l8.54-4.93a2.22,2.22,0,0,1,2,0l8.55,4.93a.61.61,0,0,1,0,1.16Z" transform="translate(0.58 0.25)"/><path class="cls-93" d="M545.88,234.8a2.22,2.22,0,0,1-2,0l-8.54-4.93a.61.61,0,0,1,0-1.16l8.54-4.94a2.22,2.22,0,0,1,2,0l8.55,4.94a.61.61,0,0,1,0,1.16Z" transform="translate(0.58 0.25)"/><path class="cls-93" d="M557.74,228a2.22,2.22,0,0,1-2,0L547.18,223a.61.61,0,0,1,0-1.16l8.55-4.93a2.22,2.22,0,0,1,2,0l8.54,4.93a.61.61,0,0,1,0,1.16Z" transform="translate(0.58 0.25)"/><path class="cls-93" d="M569.6,221.11a2.22,2.22,0,0,1-2,0L559,216.17a.61.61,0,0,1,0-1.16l8.55-4.93a2.22,2.22,0,0,1,2,0l8.54,4.93a.61.61,0,0,1,0,1.16Z" transform="translate(0.58 0.25)"/><path class="cls-93" d="M581.46,214.26a2.22,2.22,0,0,1-2,0l-8.55-4.93a.61.61,0,0,1,0-1.16l8.55-4.94a2.29,2.29,0,0,1,2,0l8.54,4.94a.61.61,0,0,1,0,1.16Z" transform="translate(0.58 0.25)"/><path class="cls-93" d="M593.31,207.41a2.2,2.2,0,0,1-2,0l-8.55-4.93a.61.61,0,0,1,0-1.16l8.55-4.93a2.2,2.2,0,0,1,2,0l8.55,4.93a.61.61,0,0,1,0,1.16Z" transform="translate(0.58 0.25)"/><path class="cls-93" d="M477.49,288.27a2.22,2.22,0,0,1-2,0l-8.54-4.94a.61.61,0,0,1,0-1.16l8.54-4.93a2.22,2.22,0,0,1,2,0l8.55,4.93a.61.61,0,0,1,0,1.16Z" transform="translate(0.58 0.25)"/><path class="cls-93" d="M489.35,281.42a2.22,2.22,0,0,1-2,0l-8.55-4.93a.61.61,0,0,1,0-1.16l8.55-4.94a2.29,2.29,0,0,1,2,0l8.54,4.94a.61.61,0,0,1,0,1.16Z" transform="translate(0.58 0.25)"/><path class="cls-93" d="M501.21,274.57a2.22,2.22,0,0,1-2,0l-8.55-4.93a.61.61,0,0,1,0-1.16l8.55-4.93a2.22,2.22,0,0,1,2,0l8.54,4.93a.61.61,0,0,1,0,1.16Z" transform="translate(0.58 0.25)"/><path class="cls-93" d="M513.07,267.73a2.22,2.22,0,0,1-2,0l-8.55-4.94a.61.61,0,0,1,0-1.15l8.55-4.94a2.22,2.22,0,0,1,2,0l8.54,4.94a.61.61,0,0,1,0,1.15Z" transform="translate(0.58 0.25)"/><path class="cls-93" d="M524.92,260.88a2.2,2.2,0,0,1-2,0L514.37,256a.61.61,0,0,1,0-1.16l8.55-4.94a2.27,2.27,0,0,1,2,0l8.55,4.94a.61.61,0,0,1,0,1.16Z" transform="translate(0.58 0.25)"/><path class="cls-93" d="M536.78,254a2.29,2.29,0,0,1-2,0l-8.54-4.94a.61.61,0,0,1,0-1.16l8.54-4.93a2.22,2.22,0,0,1,2,0l8.55,4.93a.61.61,0,0,1,0,1.16Z" transform="translate(0.58 0.25)"/><path class="cls-93" d="M548.64,247.19a2.22,2.22,0,0,1-2,0l-8.54-4.93a.61.61,0,0,1,0-1.16l8.54-4.94a2.22,2.22,0,0,1,2,0l8.55,4.94a.61.61,0,0,1,0,1.16Z" transform="translate(0.58 0.25)"/><path class="cls-93" d="M560.5,240.34a2.22,2.22,0,0,1-2,0L550,235.41a.61.61,0,0,1,0-1.16l8.54-4.93a2.22,2.22,0,0,1,2,0l8.55,4.93a.61.61,0,0,1,0,1.16Z" transform="translate(0.58 0.25)"/><path class="cls-93" d="M572.36,233.5a2.29,2.29,0,0,1-2,0l-8.55-4.94a.61.61,0,0,1,0-1.16l8.55-4.93a2.22,2.22,0,0,1,2,0l8.54,4.93a.61.61,0,0,1,0,1.16Z" transform="translate(0.58 0.25)"/><path class="cls-93" d="M584.22,226.65a2.22,2.22,0,0,1-2,0l-8.55-4.93a.61.61,0,0,1,0-1.16l8.55-4.94a2.22,2.22,0,0,1,2,0l8.54,4.94a.61.61,0,0,1,0,1.16Z" transform="translate(0.58 0.25)"/><path class="cls-93" d="M596.07,219.8a2.2,2.2,0,0,1-2,0l-8.55-4.93a.61.61,0,0,1,0-1.16l8.55-4.93a2.2,2.2,0,0,1,2,0l8.55,4.93a.61.61,0,0,1,0,1.16Z" transform="translate(0.58 0.25)"/><path class="cls-93" d="M507.06,284.21a2.22,2.22,0,0,1-2,0l-8.54-4.93a.61.61,0,0,1,0-1.16l8.54-4.94a2.22,2.22,0,0,1,2,0l8.55,4.94a.61.61,0,0,1,0,1.16Z" transform="translate(0.58 0.25)"/><path class="cls-93" d="M518.92,277.36a2.22,2.22,0,0,1-2,0l-8.54-4.93a.61.61,0,0,1,0-1.16l8.54-4.93a2.22,2.22,0,0,1,2,0l8.55,4.93a.61.61,0,0,1,0,1.16Z" transform="translate(0.58 0.25)"/><path class="cls-93" d="M494.6,304.91a2.22,2.22,0,0,1-2,0L484,300a.61.61,0,0,1,0-1.16l8.55-4.93a2.22,2.22,0,0,1,2,0l8.54,4.93a.61.61,0,0,1,0,1.16Z" transform="translate(0.58 0.25)"/><path class="cls-93" d="M506.46,298.06a2.22,2.22,0,0,1-2,0l-8.55-4.93a.61.61,0,0,1,0-1.16l8.55-4.94a2.22,2.22,0,0,1,2,0L515,292a.61.61,0,0,1,0,1.16Z" transform="translate(0.58 0.25)"/><path class="cls-93" d="M518.31,291.21a2.2,2.2,0,0,1-2,0l-8.55-4.93a.61.61,0,0,1,0-1.16l8.55-4.93a2.2,2.2,0,0,1,2,0l8.55,4.93a.61.61,0,0,1,0,1.16Z" transform="translate(0.58 0.25)"/><path class="cls-93" d="M589.9,249.88a2.2,2.2,0,0,1-2,0L579.35,245a.61.61,0,0,1,0-1.16l8.55-4.94a2.27,2.27,0,0,1,2,0l8.55,4.94a.61.61,0,0,1,0,1.16Z" transform="translate(0.58 0.25)"/><path class="cls-93" d="M601.76,243a2.27,2.27,0,0,1-2,0l-8.55-4.94a.61.61,0,0,1,0-1.16l8.55-4.93a2.2,2.2,0,0,1,2,0l8.55,4.93a.61.61,0,0,1,0,1.16Z" transform="translate(0.58 0.25)"/><path class="cls-93" d="M613.62,236.19a2.22,2.22,0,0,1-2,0l-8.54-4.93a.61.61,0,0,1,0-1.16l8.54-4.94a2.22,2.22,0,0,1,2,0l8.55,4.94a.61.61,0,0,1,0,1.16Z" transform="translate(0.58 0.25)"/><path class="cls-93" d="M634.43,221.81a2.22,2.22,0,0,1-2,0l-6.49-3.75a.61.61,0,0,1,0-1.16l8.55-4.93a2.2,2.2,0,0,1,2,0l6.5,3.75a.61.61,0,0,1,0,1.15Z" transform="translate(0.58 0.25)"/><path class="cls-93" d="M642.23,226.31a2.22,2.22,0,0,1-2,0l-6.49-3.75a.61.61,0,0,1,0-1.16l8.55-4.93a2.2,2.2,0,0,1,2,0l6.5,3.75a.61.61,0,0,1,0,1.16Z" transform="translate(0.58 0.25)"/><path class="cls-93" d="M630.8,232.91a2.2,2.2,0,0,1-2,0l-6.5-3.75a.61.61,0,0,1,0-1.16l8.54-4.93a2.22,2.22,0,0,1,2,0l6.5,3.75a.61.61,0,0,1,0,1.16Z" transform="translate(0.58 0.25)"/><path class="cls-93" d="M653.64,219.73a2.22,2.22,0,0,1-2,0L645.14,216a.61.61,0,0,1,0-1.16l8.54-4.94a2.22,2.22,0,0,1,2,0l6.5,3.75a.61.61,0,0,1,0,1.16Z" transform="translate(0.58 0.25)"/><path class="cls-93" d="M530.78,270.52a2.22,2.22,0,0,1-2,0l-8.54-4.94a.61.61,0,0,1,0-1.16l8.54-4.93a2.22,2.22,0,0,1,2,0l8.55,4.93a.61.61,0,0,1,0,1.16Z" transform="translate(0.58 0.25)"/><path class="cls-93" d="M542.64,263.67a2.22,2.22,0,0,1-2,0l-8.55-4.93a.61.61,0,0,1,0-1.16l8.55-4.94a2.29,2.29,0,0,1,2,0l8.54,4.94a.61.61,0,0,1,0,1.16Z" transform="translate(0.58 0.25)"/><path class="cls-93" d="M554.5,256.82a2.22,2.22,0,0,1-2,0l-8.55-4.93a.61.61,0,0,1,0-1.16l8.55-4.93a2.22,2.22,0,0,1,2,0l8.54,4.93a.61.61,0,0,1,0,1.16Z" transform="translate(0.58 0.25)"/><path class="cls-93" d="M566.35,250a2.2,2.2,0,0,1-2,0L555.8,245a.61.61,0,0,1,0-1.15l8.55-4.94a2.2,2.2,0,0,1,2,0l8.55,4.94a.61.61,0,0,1,0,1.15Z" transform="translate(0.58 0.25)"/><path class="cls-93" d="M578.21,243.13a2.2,2.2,0,0,1-2,0l-8.55-4.93a.61.61,0,0,1,0-1.16l8.55-4.94a2.27,2.27,0,0,1,2,0l8.55,4.94a.61.61,0,0,1,0,1.16Z" transform="translate(0.58 0.25)"/><path class="cls-93" d="M590.07,236.29a2.29,2.29,0,0,1-2,0l-8.54-4.94a.61.61,0,0,1,0-1.16l8.54-4.93a2.22,2.22,0,0,1,2,0l8.55,4.93a.61.61,0,0,1,0,1.16Z" transform="translate(0.58 0.25)"/><path class="cls-93" d="M601.93,229.44a2.22,2.22,0,0,1-2,0l-8.54-4.93a.61.61,0,0,1,0-1.16l8.54-4.94a2.22,2.22,0,0,1,2,0l8.55,4.94a.61.61,0,0,1,0,1.16Z" transform="translate(0.58 0.25)"/><path class="cls-93" d="M495.2,291.06a2.2,2.2,0,0,1-2,0l-8.55-4.94a.61.61,0,0,1,0-1.16L493.2,280a2.2,2.2,0,0,1,2,0l8.55,4.93a.61.61,0,0,1,0,1.16Z" transform="translate(0.58 0.25)"/></g><path class="cls-6" d="M441.43,279.66a.61.61,0,0,1,0,1.16l-9.79,5.65a2.2,2.2,0,0,1-2,0l-7.85-4.53a.61.61,0,0,1,0-1.16l9.79-5.65a2.22,2.22,0,0,1,2,0Z" transform="translate(0.58 0.25)"/><path class="cls-6" d="M609,182.93a.61.61,0,0,1,0,1.16l-21.68,12.52a2.22,2.22,0,0,1-2,0l-7.84-4.53a.61.61,0,0,1,0-1.16l21.68-12.52a2.27,2.27,0,0,1,2,0Z" transform="translate(0.58 0.25)"/><path class="cls-6" d="M620.66,189.68a.61.61,0,0,1,0,1.16L604.86,200a2.22,2.22,0,0,1-2,0L595,195.44a.61.61,0,0,1,0-1.16l15.8-9.13a2.29,2.29,0,0,1,2,0Z" transform="translate(0.58 0.25)"/><path class="cls-6" d="M632.77,196.67a.61.61,0,0,1,0,1.16L608.06,212.1a2.22,2.22,0,0,1-2,0l-7.84-4.53a.61.61,0,0,1,0-1.16l24.71-14.27a2.27,2.27,0,0,1,2,0Z" transform="translate(0.58 0.25)"/><path class="cls-6" d="M644.88,203.66a.61.61,0,0,1,0,1.16l-30.67,17.71a2.2,2.2,0,0,1-2,0L604.36,218a.61.61,0,0,1,0-1.16L635,199.14a2.2,2.2,0,0,1,2,0Z" transform="translate(0.58 0.25)"/><path class="cls-6" d="M459.1,283a.61.61,0,0,1,0,1.16l-15.76,9.11a2.22,2.22,0,0,1-2,0l-7.84-4.53a.61.61,0,0,1,0-1.16l15.76-9.1a2.22,2.22,0,0,1,2,0Z" transform="translate(0.58 0.25)"/><path class="cls-6" d="M473.78,288a.61.61,0,0,1,0,1.16L455,300a2.22,2.22,0,0,1-2,0l-7.84-4.53a.61.61,0,0,1,0-1.16l18.75-10.83a2.22,2.22,0,0,1,2,0Z" transform="translate(0.58 0.25)"/><path class="cls-6" d="M491.31,291.36a.61.61,0,0,1,0,1.16l-24.59,14.2a2.22,2.22,0,0,1-2,0l-7.84-4.53a.61.61,0,0,1,0-1.16l24.59-14.2a2.22,2.22,0,0,1,2,0Z" transform="translate(0.58 0.25)"/><path class="cls-6" d="M491.09,305a.61.61,0,0,1,0,1.16l-12.68,7.32a2.22,2.22,0,0,1-2,0l-7.84-4.53a.61.61,0,0,1,0-1.16l12.68-7.32a2.22,2.22,0,0,1,2,0Z" transform="translate(0.58 0.25)"/><path class="cls-6" d="M585.37,250.56a.61.61,0,0,1,0,1.16l-55.2,31.86a2.22,2.22,0,0,1-2,0l-7.84-4.53a.61.61,0,0,1,0-1.15L575.52,246a2.2,2.2,0,0,1,2,0Z" transform="translate(0.58 0.25)"/><path class="cls-6" d="M427.2,274.37a.61.61,0,0,1,0,1.16L420,279.72a2.2,2.2,0,0,1-2,0l-5.72-3.31a.6.6,0,0,1,0-1.15l7.24-4.19a2.22,2.22,0,0,1,2,0Z" transform="translate(0.58 0.25)"/><path class="cls-6" d="M438.28,268a.6.6,0,0,1,0,1.15L431,273.32a2.22,2.22,0,0,1-2,0l-5.72-3.3a.61.61,0,0,1,0-1.16l7.25-4.19a2.2,2.2,0,0,1,2,0Z" transform="translate(0.58 0.25)"/><path class="cls-6" d="M448.83,261.89a.61.61,0,0,1,0,1.16l-7.25,4.18a2.22,2.22,0,0,1-2,0l-5.72-3.3a.61.61,0,0,1,0-1.16l7.25-4.18a2.22,2.22,0,0,1,2,0Z" transform="translate(0.58 0.25)"/><path class="cls-6" d="M459.37,255.8a.61.61,0,0,1,0,1.16l-7.25,4.19a2.22,2.22,0,0,1-2,0l-5.72-3.31a.61.61,0,0,1,0-1.16l7.25-4.18a2.22,2.22,0,0,1,2,0Z" transform="translate(0.58 0.25)"/><path class="cls-6" d="M469.91,249.72a.61.61,0,0,1,0,1.16l-7.25,4.18a2.22,2.22,0,0,1-2,0l-5.72-3.3a.61.61,0,0,1,0-1.16l7.25-4.18a2.22,2.22,0,0,1,2,0Z" transform="translate(0.58 0.25)"/><path class="cls-6" d="M480.45,243.63a.61.61,0,0,1,0,1.16L473.2,249a2.22,2.22,0,0,1-2,0l-5.72-3.3a.61.61,0,0,1,0-1.16l7.25-4.18a2.22,2.22,0,0,1,2,0Z" transform="translate(0.58 0.25)"/><path class="cls-6" d="M491,237.55a.61.61,0,0,1,0,1.16l-7.25,4.18a2.2,2.2,0,0,1-2,0l-5.72-3.3a.61.61,0,0,1,0-1.16l7.24-4.19a2.29,2.29,0,0,1,2,0Z" transform="translate(0.58 0.25)"/><path class="cls-6" d="M501.53,231.46a.61.61,0,0,1,0,1.16l-7.25,4.18a2.2,2.2,0,0,1-2,0l-5.72-3.3a.61.61,0,0,1,0-1.16l7.24-4.18a2.22,2.22,0,0,1,2,0Z" transform="translate(0.58 0.25)"/><path class="cls-6" d="M512.07,225.38a.61.61,0,0,1,0,1.15l-7.25,4.19a2.2,2.2,0,0,1-2,0l-5.72-3.3a.61.61,0,0,1,0-1.16l7.24-4.19a2.22,2.22,0,0,1,2,0Z" transform="translate(0.58 0.25)"/><path class="cls-6" d="M522.61,219.29a.61.61,0,0,1,0,1.16l-7.24,4.18a2.22,2.22,0,0,1-2,0l-5.72-3.3a.61.61,0,0,1,0-1.16l7.24-4.18a2.22,2.22,0,0,1,2,0Z" transform="translate(0.58 0.25)"/><path class="cls-6" d="M533.15,213.2a.61.61,0,0,1,0,1.16l-7.24,4.19a2.29,2.29,0,0,1-2,0l-5.72-3.31a.61.61,0,0,1,0-1.16l7.24-4.18a2.22,2.22,0,0,1,2,0Z" transform="translate(0.58 0.25)"/><path class="cls-6" d="M543.69,207.12a.61.61,0,0,1,0,1.16l-7.24,4.18a2.22,2.22,0,0,1-2,0l-5.72-3.3a.61.61,0,0,1,0-1.16l7.25-4.18a2.2,2.2,0,0,1,2,0Z" transform="translate(0.58 0.25)"/><path class="cls-6" d="M554.23,201a.61.61,0,0,1,0,1.16L547,206.37a2.22,2.22,0,0,1-2,0l-5.72-3.3a.61.61,0,0,1,0-1.16l7.25-4.18a2.2,2.2,0,0,1,2,0Z" transform="translate(0.58 0.25)"/><path class="cls-6" d="M565.65,194.44a.61.61,0,0,1,0,1.16l-7.24,4.18a2.22,2.22,0,0,1-2,0l-5.72-3.3a.61.61,0,0,1,0-1.16l7.25-4.18a2.2,2.2,0,0,1,2,0Z" transform="translate(0.58 0.25)"/><path class="cls-6" d="M576.19,188.35a.61.61,0,0,1,0,1.16L569,193.7a2.29,2.29,0,0,1-2,0l-5.72-3.31a.61.61,0,0,1,0-1.16l7.25-4.18a2.2,2.2,0,0,1,2,0Z" transform="translate(0.58 0.25)"/><path class="cls-6" d="M586.73,182.27a.61.61,0,0,1,0,1.16l-7.24,4.18a2.22,2.22,0,0,1-2,0l-5.72-3.3a.61.61,0,0,1,0-1.16L579,179a2.2,2.2,0,0,1,2,0Z" transform="translate(0.58 0.25)"/><path class="cls-6" d="M597.28,176.18a.61.61,0,0,1,0,1.16L590,181.52a2.22,2.22,0,0,1-2,0l-5.72-3.3a.61.61,0,0,1,0-1.16l7.25-4.18a2.22,2.22,0,0,1,2,0Z" transform="translate(0.58 0.25)"/><path class="cls-6" d="M453.17,272.88a.61.61,0,0,1,0,1.16l-7.85,4.53a2.2,2.2,0,0,1-2,0L435.47,274a.61.61,0,0,1,0-1.16l7.85-4.53a2.27,2.27,0,0,1,2,0Z" transform="translate(0.58 0.25)"/><path id="_Bana_" data-name="&lt;Bana&gt;" class="cls-6" d="M476.88,259.19a.61.61,0,0,1,0,1.16L469,264.88a2.22,2.22,0,0,1-2,0l-7.84-4.53a.61.61,0,0,1,0-1.16l7.84-4.53a2.22,2.22,0,0,1,2,0Z" transform="translate(0.58 0.25)"/><path id="_Bana_2" data-name="&lt;Bana&gt;" class="cls-6" d="M465,266a.61.61,0,0,1,0,1.16l-7.84,4.52a2.22,2.22,0,0,1-2,0l-7.84-4.52a.61.61,0,0,1,0-1.16l7.84-4.53a2.22,2.22,0,0,1,2,0Z" transform="translate(0.58 0.25)"/><path id="_Bana_3" data-name="&lt;Bana&gt;" class="cls-6" d="M488.74,252.34a.61.61,0,0,1,0,1.16L480.9,258a2.22,2.22,0,0,1-2,0l-7.84-4.53a.61.61,0,0,1,0-1.16l7.84-4.52a2.22,2.22,0,0,1,2,0Z" transform="translate(0.58 0.25)"/><path id="_Bana_4" data-name="&lt;Bana&gt;" class="cls-6" d="M500.6,245.5a.61.61,0,0,1,0,1.16l-7.84,4.52a2.22,2.22,0,0,1-2,0l-7.84-4.52a.61.61,0,0,1,0-1.16l7.84-4.53a2.22,2.22,0,0,1,2,0Z" transform="translate(0.58 0.25)"/><path id="_Bana_5" data-name="&lt;Bana&gt;" class="cls-6" d="M512.46,238.65a.61.61,0,0,1,0,1.16l-7.84,4.53a2.22,2.22,0,0,1-2,0l-7.85-4.53a.61.61,0,0,1,0-1.16l7.85-4.53a2.22,2.22,0,0,1,2,0Z" transform="translate(0.58 0.25)"/><path id="_Bana_6" data-name="&lt;Bana&gt;" class="cls-6" d="M524.32,231.8a.61.61,0,0,1,0,1.16l-7.85,4.53a2.2,2.2,0,0,1-2,0L506.62,233a.61.61,0,0,1,0-1.16l7.85-4.52a2.2,2.2,0,0,1,2,0Z" transform="translate(0.58 0.25)"/><path id="_Bana_7" data-name="&lt;Bana&gt;" class="cls-6" d="M536.18,225a.61.61,0,0,1,0,1.16l-7.85,4.53a2.29,2.29,0,0,1-2,0l-7.84-4.53a.61.61,0,0,1,0-1.16l7.84-4.53a2.22,2.22,0,0,1,2,0Z" transform="translate(0.58 0.25)"/><path id="_Bana_8" data-name="&lt;Bana&gt;" class="cls-6" d="M548,218.11a.61.61,0,0,1,0,1.16l-7.84,4.53a2.22,2.22,0,0,1-2,0l-7.84-4.53a.61.61,0,0,1,0-1.16l7.84-4.53a2.22,2.22,0,0,1,2,0Z" transform="translate(0.58 0.25)"/><path id="_Bana_9" data-name="&lt;Bana&gt;" class="cls-6" d="M559.89,211.27a.61.61,0,0,1,0,1.15L552.05,217a2.22,2.22,0,0,1-2,0l-7.84-4.53a.61.61,0,0,1,0-1.15l7.84-4.53a2.22,2.22,0,0,1,2,0Z" transform="translate(0.58 0.25)"/><path id="_Bana_10" data-name="&lt;Bana&gt;" class="cls-6" d="M571.75,204.42a.61.61,0,0,1,0,1.16l-7.84,4.53a2.29,2.29,0,0,1-2,0l-7.84-4.53a.61.61,0,0,1,0-1.16l7.84-4.53a2.22,2.22,0,0,1,2,0Z" transform="translate(0.58 0.25)"/><path id="_Bana_11" data-name="&lt;Bana&gt;" class="cls-6" d="M583.61,197.57a.61.61,0,0,1,0,1.16l-7.84,4.53a2.22,2.22,0,0,1-2,0l-7.84-4.53a.61.61,0,0,1,0-1.16l7.84-4.53a2.29,2.29,0,0,1,2,0Z" transform="translate(0.58 0.25)"/><path class="cls-6" d="M470.71,276.25a.61.61,0,0,1,0,1.16l-7.84,4.53a2.22,2.22,0,0,1-2,0L453,277.41a.61.61,0,0,1,0-1.16l7.84-4.53a2.29,2.29,0,0,1,2,0Z" transform="translate(0.58 0.25)"/><path id="_Bana_12" data-name="&lt;Bana&gt;" class="cls-6" d="M482.57,269.41a.61.61,0,0,1,0,1.15l-7.84,4.53a2.22,2.22,0,0,1-2,0l-7.84-4.53a.61.61,0,0,1,0-1.15l7.84-4.53a2.22,2.22,0,0,1,2,0Z" transform="translate(0.58 0.25)"/><path id="_Bana_13" data-name="&lt;Bana&gt;" class="cls-6" d="M494.43,262.56a.61.61,0,0,1,0,1.16l-7.84,4.53a2.22,2.22,0,0,1-2,0l-7.84-4.53a.61.61,0,0,1,0-1.16l7.84-4.53a2.22,2.22,0,0,1,2,0Z" transform="translate(0.58 0.25)"/><path id="_Bana_14" data-name="&lt;Bana&gt;" class="cls-6" d="M506.29,255.71a.61.61,0,0,1,0,1.16l-7.84,4.53a2.22,2.22,0,0,1-2,0l-7.85-4.53a.61.61,0,0,1,0-1.16l7.85-4.53a2.29,2.29,0,0,1,2,0Z" transform="translate(0.58 0.25)"/><path id="_Bana_15" data-name="&lt;Bana&gt;" class="cls-6" d="M518.15,248.87a.61.61,0,0,1,0,1.16l-7.85,4.52a2.2,2.2,0,0,1-2,0L500.45,250a.61.61,0,0,1,0-1.16l7.85-4.53a2.2,2.2,0,0,1,2,0Z" transform="translate(0.58 0.25)"/><path id="_Bana_16" data-name="&lt;Bana&gt;" class="cls-6" d="M530,242a.61.61,0,0,1,0,1.16l-7.85,4.53a2.22,2.22,0,0,1-2,0l-7.84-4.53a.61.61,0,0,1,0-1.16l7.84-4.53a2.22,2.22,0,0,1,2,0Z" transform="translate(0.58 0.25)"/><path id="_Bana_17" data-name="&lt;Bana&gt;" class="cls-6" d="M541.86,235.17a.61.61,0,0,1,0,1.16L534,240.86a2.22,2.22,0,0,1-2,0l-7.84-4.53a.61.61,0,0,1,0-1.16l7.84-4.52a2.22,2.22,0,0,1,2,0Z" transform="translate(0.58 0.25)"/><path id="_Bana_18" data-name="&lt;Bana&gt;" class="cls-6" d="M553.72,228.33a.61.61,0,0,1,0,1.16L545.88,234a2.22,2.22,0,0,1-2,0L536,229.49a.61.61,0,0,1,0-1.16l7.84-4.53a2.22,2.22,0,0,1,2,0Z" transform="translate(0.58 0.25)"/><path id="_Bana_19" data-name="&lt;Bana&gt;" class="cls-6" d="M565.58,221.48a.61.61,0,0,1,0,1.16l-7.84,4.53a2.22,2.22,0,0,1-2,0l-7.84-4.53a.61.61,0,0,1,0-1.16l7.84-4.53a2.22,2.22,0,0,1,2,0Z" transform="translate(0.58 0.25)"/><path id="_Bana_20" data-name="&lt;Bana&gt;" class="cls-6" d="M577.44,214.63a.61.61,0,0,1,0,1.16l-7.84,4.53a2.22,2.22,0,0,1-2,0l-7.84-4.53a.61.61,0,0,1,0-1.16l7.84-4.52a2.22,2.22,0,0,1,2,0Z" transform="translate(0.58 0.25)"/><path id="_Bana_21" data-name="&lt;Bana&gt;" class="cls-6" d="M589.3,207.79a.61.61,0,0,1,0,1.16l-7.84,4.52a2.22,2.22,0,0,1-2,0L571.6,209a.61.61,0,0,1,0-1.16l7.85-4.53a2.22,2.22,0,0,1,2,0Z" transform="translate(0.58 0.25)"/><path id="_Bana_22" data-name="&lt;Bana&gt;" class="cls-6" d="M601.16,200.94a.61.61,0,0,1,0,1.16l-7.85,4.53a2.2,2.2,0,0,1-2,0l-7.85-4.53a.61.61,0,0,1,0-1.16l7.85-4.53a2.2,2.2,0,0,1,2,0Z" transform="translate(0.58 0.25)"/><path class="cls-6" d="M485.33,281.79a.61.61,0,0,1,0,1.16l-7.84,4.53a2.22,2.22,0,0,1-2,0L467.64,283a.61.61,0,0,1,0-1.16l7.84-4.52a2.22,2.22,0,0,1,2,0Z" transform="translate(0.58 0.25)"/><path id="_Bana_23" data-name="&lt;Bana&gt;" class="cls-6" d="M497.19,275a.61.61,0,0,1,0,1.16l-7.84,4.52a2.22,2.22,0,0,1-2,0l-7.84-4.52a.61.61,0,0,1,0-1.16l7.84-4.53a2.22,2.22,0,0,1,2,0Z" transform="translate(0.58 0.25)"/><path id="_Bana_24" data-name="&lt;Bana&gt;" class="cls-6" d="M509.05,268.1a.61.61,0,0,1,0,1.16l-7.84,4.53a2.22,2.22,0,0,1-2,0l-7.84-4.53a.61.61,0,0,1,0-1.16l7.84-4.53a2.22,2.22,0,0,1,2,0Z" transform="translate(0.58 0.25)"/><path id="_Bana_25" data-name="&lt;Bana&gt;" class="cls-6" d="M520.91,261.25a.61.61,0,0,1,0,1.16l-7.85,4.53a2.2,2.2,0,0,1-2,0l-7.85-4.53a.61.61,0,0,1,0-1.16l7.85-4.52a2.2,2.2,0,0,1,2,0Z" transform="translate(0.58 0.25)"/><path id="_Bana_26" data-name="&lt;Bana&gt;" class="cls-6" d="M532.77,254.41a.61.61,0,0,1,0,1.16l-7.85,4.53a2.27,2.27,0,0,1-2,0l-7.85-4.53a.61.61,0,0,1,0-1.16l7.85-4.53a2.2,2.2,0,0,1,2,0Z" transform="translate(0.58 0.25)"/><path id="_Bana_27" data-name="&lt;Bana&gt;" class="cls-6" d="M544.62,247.56a.61.61,0,0,1,0,1.16l-7.84,4.53a2.22,2.22,0,0,1-2,0l-7.84-4.53a.61.61,0,0,1,0-1.16l7.84-4.53a2.29,2.29,0,0,1,2,0Z" transform="translate(0.58 0.25)"/><path id="_Bana_28" data-name="&lt;Bana&gt;" class="cls-6" d="M556.48,240.72a.6.6,0,0,1,0,1.15l-7.84,4.53a2.22,2.22,0,0,1-2,0l-7.84-4.53a.61.61,0,0,1,0-1.15l7.84-4.53a2.22,2.22,0,0,1,2,0Z" transform="translate(0.58 0.25)"/><path id="_Bana_29" data-name="&lt;Bana&gt;" class="cls-6" d="M568.34,233.87a.61.61,0,0,1,0,1.16l-7.84,4.53a2.22,2.22,0,0,1-2,0L550.65,235a.61.61,0,0,1,0-1.16l7.84-4.53a2.22,2.22,0,0,1,2,0Z" transform="translate(0.58 0.25)"/><path id="_Bana_30" data-name="&lt;Bana&gt;" class="cls-6" d="M580.2,227a.61.61,0,0,1,0,1.16l-7.84,4.53a2.22,2.22,0,0,1-2,0l-7.84-4.53a.61.61,0,0,1,0-1.16l7.84-4.53a2.29,2.29,0,0,1,2,0Z" transform="translate(0.58 0.25)"/><path id="_Bana_31" data-name="&lt;Bana&gt;" class="cls-6" d="M592.06,220.18a.61.61,0,0,1,0,1.16l-7.84,4.52a2.22,2.22,0,0,1-2,0l-7.84-4.52a.61.61,0,0,1,0-1.16l7.84-4.53a2.22,2.22,0,0,1,2,0Z" transform="translate(0.58 0.25)"/><path id="_Bana_32" data-name="&lt;Bana&gt;" class="cls-6" d="M603.92,213.33a.61.61,0,0,1,0,1.16L596.07,219a2.2,2.2,0,0,1-2,0l-7.85-4.53a.61.61,0,0,1,0-1.16l7.85-4.53a2.2,2.2,0,0,1,2,0Z" transform="translate(0.58 0.25)"/><path id="_Bana_33" data-name="&lt;Bana&gt;" class="cls-6" d="M514.91,277.74a.61.61,0,0,1,0,1.16l-7.85,4.52a2.22,2.22,0,0,1-2,0l-7.84-4.52a.61.61,0,0,1,0-1.16l7.84-4.53a2.22,2.22,0,0,1,2,0Z" transform="translate(0.58 0.25)"/><path id="_Bana_34" data-name="&lt;Bana&gt;" class="cls-6" d="M526.76,270.89a.61.61,0,0,1,0,1.16l-7.84,4.53a2.22,2.22,0,0,1-2,0l-7.84-4.53a.61.61,0,0,1,0-1.16l7.84-4.53a2.22,2.22,0,0,1,2,0Z" transform="translate(0.58 0.25)"/><path class="cls-6" d="M502.44,298.43a.61.61,0,0,1,0,1.16l-7.84,4.53a2.22,2.22,0,0,1-2,0l-7.84-4.53a.61.61,0,0,1,0-1.16l7.84-4.52a2.22,2.22,0,0,1,2,0Z" transform="translate(0.58 0.25)"/><path id="_Bana_35" data-name="&lt;Bana&gt;" class="cls-6" d="M514.3,291.59a.61.61,0,0,1,0,1.16l-7.84,4.52a2.22,2.22,0,0,1-2,0l-7.84-4.52a.61.61,0,0,1,0-1.16l7.84-4.53a2.22,2.22,0,0,1,2,0Z" transform="translate(0.58 0.25)"/><path id="_Bana_36" data-name="&lt;Bana&gt;" class="cls-6" d="M526.16,284.74a.61.61,0,0,1,0,1.16l-7.85,4.53a2.2,2.2,0,0,1-2,0l-7.85-4.53a.61.61,0,0,1,0-1.16l7.85-4.53a2.2,2.2,0,0,1,2,0Z" transform="translate(0.58 0.25)"/><path class="cls-6" d="M597.75,243.41a.61.61,0,0,1,0,1.16l-7.85,4.53a2.27,2.27,0,0,1-2,0l-7.85-4.53a.61.61,0,0,1,0-1.16l7.85-4.53a2.2,2.2,0,0,1,2,0Z" transform="translate(0.58 0.25)"/><path id="_Bana_37" data-name="&lt;Bana&gt;" class="cls-6" d="M609.61,236.56a.61.61,0,0,1,0,1.16l-7.85,4.53a2.2,2.2,0,0,1-2,0l-7.85-4.53a.61.61,0,0,1,0-1.16l7.85-4.53a2.2,2.2,0,0,1,2,0Z" transform="translate(0.58 0.25)"/><path id="_Bana_38" data-name="&lt;Bana&gt;" class="cls-6" d="M621.46,229.72a.6.6,0,0,1,0,1.15l-7.84,4.53a2.22,2.22,0,0,1-2,0l-7.84-4.53a.61.61,0,0,1,0-1.15l7.84-4.53a2.22,2.22,0,0,1,2,0Z" transform="translate(0.58 0.25)"/><path class="cls-6" d="M634.48,212a2.2,2.2,0,0,1,2,0l5.8,3.34a.61.61,0,0,1,0,1.16L634.43,221a2.22,2.22,0,0,1-2,0l-5.79-3.34a.61.61,0,0,1,0-1.16Z" transform="translate(0.58 0.25)"/><path class="cls-6" d="M642.28,216.49a2.27,2.27,0,0,1,2,0l5.8,3.35a.61.61,0,0,1,0,1.16l-7.85,4.53a2.22,2.22,0,0,1-2,0l-5.79-3.35a.61.61,0,0,1,0-1.16Z" transform="translate(0.58 0.25)"/><path id="_Bana_39" data-name="&lt;Bana&gt;" class="cls-6" d="M638.65,226.44a.61.61,0,0,1,0,1.16l-7.85,4.53a2.27,2.27,0,0,1-2,0l-5.8-3.35a.61.61,0,0,1,0-1.16l7.84-4.53a2.22,2.22,0,0,1,2,0Z" transform="translate(0.58 0.25)"/><path id="_Bana_40" data-name="&lt;Bana&gt;" class="cls-6" d="M661.49,213.25a.61.61,0,0,1,0,1.16l-7.85,4.53a2.22,2.22,0,0,1-2,0l-5.79-3.34a.61.61,0,0,1,0-1.16l7.84-4.53a2.22,2.22,0,0,1,2,0Z" transform="translate(0.58 0.25)"/><path id="_Bana_41" data-name="&lt;Bana&gt;" class="cls-6" d="M538.62,264a.61.61,0,0,1,0,1.16l-7.84,4.53a2.22,2.22,0,0,1-2,0l-7.84-4.53a.61.61,0,0,1,0-1.16l7.84-4.52a2.22,2.22,0,0,1,2,0Z" transform="translate(0.58 0.25)"/><path id="_Bana_42" data-name="&lt;Bana&gt;" class="cls-6" d="M550.48,257.2a.61.61,0,0,1,0,1.16l-7.84,4.52a2.22,2.22,0,0,1-2,0l-7.84-4.52a.61.61,0,0,1,0-1.16l7.84-4.53a2.22,2.22,0,0,1,2,0Z" transform="translate(0.58 0.25)"/><path id="_Bana_43" data-name="&lt;Bana&gt;" class="cls-6" d="M562.34,250.35a.61.61,0,0,1,0,1.16L554.5,256a2.22,2.22,0,0,1-2,0l-7.84-4.53a.61.61,0,0,1,0-1.16l7.84-4.53a2.22,2.22,0,0,1,2,0Z" transform="translate(0.58 0.25)"/><path id="_Bana_44" data-name="&lt;Bana&gt;" class="cls-6" d="M574.2,243.5a.61.61,0,0,1,0,1.16l-7.85,4.53a2.2,2.2,0,0,1-2,0l-7.85-4.53a.61.61,0,0,1,0-1.16l7.85-4.52a2.2,2.2,0,0,1,2,0Z" transform="translate(0.58 0.25)"/><path id="_Bana_45" data-name="&lt;Bana&gt;" class="cls-6" d="M586.06,236.66a.61.61,0,0,1,0,1.16l-7.85,4.53a2.27,2.27,0,0,1-2,0l-7.85-4.53a.61.61,0,0,1,0-1.16l7.85-4.53a2.2,2.2,0,0,1,2,0Z" transform="translate(0.58 0.25)"/><path id="_Bana_46" data-name="&lt;Bana&gt;" class="cls-6" d="M597.91,229.81a.61.61,0,0,1,0,1.16l-7.84,4.53a2.22,2.22,0,0,1-2,0L580.22,231a.61.61,0,0,1,0-1.16l7.84-4.53a2.29,2.29,0,0,1,2,0Z" transform="translate(0.58 0.25)"/><path id="_Bana_47" data-name="&lt;Bana&gt;" class="cls-6" d="M609.77,223a.6.6,0,0,1,0,1.15l-7.84,4.53a2.22,2.22,0,0,1-2,0l-7.84-4.53a.61.61,0,0,1,0-1.15l7.84-4.53a2.22,2.22,0,0,1,2,0Z" transform="translate(0.58 0.25)"/><path class="cls-6" d="M503.05,284.58a.61.61,0,0,1,0,1.16l-7.85,4.53a2.2,2.2,0,0,1-2,0l-7.85-4.53a.61.61,0,0,1,0-1.16l7.85-4.52a2.2,2.2,0,0,1,2,0Z" transform="translate(0.58 0.25)"/><path class="cls-94" d="M587.77,164.37c0,1.42-2,2.57-4.51,2.57s-4.51-1.15-4.51-2.57,2-2.57,4.51-2.57S587.77,163,587.77,164.37Z" transform="translate(0.58 0.25)"/><path class="cls-6" d="M587.12,164.35c0,1.22-1.72,2.2-3.85,2.2s-3.86-1-3.86-2.2,1.73-2.2,3.86-2.2S587.12,163.13,587.12,164.35Z" transform="translate(0.58 0.25)"/><path class="cls-9" d="M380,276.58v4.25c-.09,1.67,1,3.37,3.16,4.64l122.75,70.86a17,17,0,0,0,15.34,0L719.63,241.81a6.84,6.84,0,0,0,2.62-2.47c.26-.75.43-1.24.51-1.44v0l0-.09v-4.86c-.06,1.55-1.11,3.08-3.16,4.27L521.27,351.72a17,17,0,0,1-15.34,0L383.18,280.86C381.14,279.67,380.08,278.13,380,276.58Z" transform="translate(0.58 0.25)"/></g><g id="Woman"><path class="cls-95" d="M153.33,297c.1.54,3.31,3.45,6.49,1.57s3-7.11,4.67-8.71c2.1-1.94-.25-8.31-.25-8.31a8.11,8.11,0,0,0-2.8-.41,4.94,4.94,0,0,0-3.13,2.45s-1.07,4.49-2,7.89a6.88,6.88,0,0,1-1.84,2.75l.12.06-.12-.06C153.74,295,153.11,295.81,153.33,297Z" transform="translate(0.58 0.25)"/><path class="cls-96" d="M153.33,297c.1.54,3.31,3.45,6.49,1.57s3-7.12,4.67-8.71c2.1-1.94-.25-8.31-.25-8.31a3.3,3.3,0,0,0-4.24,2.71,77.61,77.61,0,0,1-2.67,7.51c-.68,1.6-1.33,2.81-1.74,2.81a2.69,2.69,0,0,1-1.09-.35C153.74,295,153.11,295.81,153.33,297Z" transform="translate(0.58 0.25)"/><path class="cls-97" d="M179.61,198.05s-.41,2.93-.41,3.51S178,206,178,206.61s5.45,2.61,5.69,2.37,2.45-1.72,2.45-1.72l.35-6.61Z" transform="translate(0.58 0.25)"/><path class="cls-98" d="M181,172.34c.38,12.16-.24,12.39-1.17,28.52,5.67,2.66,7.31.5,7.31.5s1-9.79,1.46-20.87c.29-7.1-.73-16.6-1.2-22.51-1.09-13.63-9.58-13.73-11.12-12.36C171.68,149.7,180.54,158.21,181,172.34Z" transform="translate(0.58 0.25)"/><path class="cls-99" d="M155.63,206.08l2.68,77.46s.81.91,2.78.42c3.14-.77,3.28-3,3.28-3s2.67-10.42.8-28.25c0,0,3.74-12.17,5.8-21.51l1.54,44.5s.81.9,2.78.42c3.14-.77,3.28-3,3.28-3s2.67-10.41.81-28.24c0,0,6.62-21.58,7.1-29.3a38.36,38.36,0,0,0-3.9-19.13Z" transform="translate(0.58 0.25)"/><path class="cls-98" d="M154,206.48s3.39-18.7,3.39-23.64c0-3.8-6.1-8.77-6.72-12.29-.55-3.1,1.92-11.75,1.92-11.75,10.77-9.53,24.73-13.69,24.73-13.69,3.48-.07,8.09,2.51,8.09,13.26,0,4.78-6.16,15.51-4.63,24.62a110.26,110.26,0,0,0,5.67,20.88C178.06,215.34,158.73,215.23,154,206.48Z" transform="translate(0.58 0.25)"/><path class="cls-100" d="M181.93,183.74c-1.54-9.12,4.63-19.85,4.63-24.63,0-7.64-2.33-11.15-4.94-12.52,2.12,1.74,3.82,5.25,3.82,11.78,0,3.42-3.16,9.9-4.39,16.65.08,3.76,0,6.27-.09,8.81a113.4,113.4,0,0,0,4.84,18.23,3.32,3.32,0,0,0,.76-.27A113.39,113.39,0,0,1,181.93,183.74Z" transform="translate(0.58 0.25)"/><path class="cls-97" d="M171.79,117.37c8.51,1.43,10.62,14.53,6.79,21.46s-17.65,8.27-20.37,6.21-2.37-12.3-2.37-12.3C155.24,122.43,161.86,115.7,171.79,117.37Z" transform="translate(0.58 0.25)"/><path class="cls-97" d="M164.33,142.63c.66,1.39,1.33,10.5,1.33,10.5,7,4.13,10.83-2.6,10.83-2.6l-2-10.42S163.68,141.25,164.33,142.63Z" transform="translate(0.58 0.25)"/><path class="cls-97" d="M150.32,214.15c-.5.18-.6,4.31-.62,4.57,0,.84-.53,4.36.06,4.79s4.63,3.21,5.28,3a9,9,0,0,0,2.37-1.59c.57-1.44-.15-1.93-.11-2.66s.19-6.36.19-6.36S150.82,214,150.32,214.15Z" transform="translate(0.58 0.25)"/><path class="cls-98" d="M151.07,186.28c0,11.14-1.6,29.34-1.6,29.34,3.78,5.8,8.93,2,8.93,2s3.32-47.07,1.15-54.46-6.43-5.61-7.59-3.84C149.76,162.64,151.07,175.14,151.07,186.28Z" transform="translate(0.58 0.25)"/><path class="cls-100" d="M158.84,210.89c.46.23.95.44,1.45.63.81-13,1.68-40.86,0-46.6a18.73,18.73,0,0,0-1.23-3.19c.17.43.34.9.49,1.42C161.21,168.8,159.66,197.61,158.84,210.89Z" transform="translate(0.58 0.25)"/><path class="cls-95" d="M167.53,289.13c.1.54,3.31,3.44,6.49,1.57s3-7.12,4.68-8.71c2.09-1.95-.25-8.32-.25-8.32a8.43,8.43,0,0,0-2.81-.41,5,5,0,0,0-3.13,2.46s-1.07,4.48-2,7.89a7,7,0,0,1-1.84,2.75l.13.06-.13-.06C167.94,287.19,167.31,288,167.53,289.13Z" transform="translate(0.58 0.25)"/><path class="cls-96" d="M167.53,289.13c.1.54,3.31,3.44,6.49,1.57s3-7.12,4.68-8.71c2.09-1.95-.25-8.32-.25-8.32a3.3,3.3,0,0,0-4.24,2.72,76.8,76.8,0,0,1-2.68,7.51c-.67,1.6-2.54,2.62-2.83,2.46C167.94,287.19,167.31,288,167.53,289.13Z" transform="translate(0.58 0.25)"/><path class="cls-96" d="M164,286.83v11.66h-.68s-.69-7.17-.69-10.83C162.62,286.46,164,286.83,164,286.83Z" transform="translate(0.58 0.25)"/><path class="cls-96" d="M179,279v11.66h-.67s-.7-7.17-.7-10.83C177.66,278.63,179,279,179,279Z" transform="translate(0.58 0.25)"/><path class="cls-101" d="M155.65,128.77c.18,1.7,1.41,6,2.45,10.17-.3,11-.15,28.87,1.11,33.57.55,2.1,6.06,8.8,18,6.27,5.24-1.11,7.95-5.9,8.75-12.13.3-2.34-2.09-27.65-4.16-36.45-1.67-7.14-5-14.52-16.22-14a10.85,10.85,0,0,0-7.46,3.73C156,122.22,155.34,125.62,155.65,128.77Z" transform="translate(0.58 0.25)"/></g><g id="ZelCorePlus"><path class="cls-14" d="M486.26,120.74c13.2-7.62,24-1.48,24,13.68s-10.65,33.69-23.85,41.31-24,1.48-24-13.68S473.07,128.36,486.26,120.74Zm2.85,33.71,0-9.27,6.88-8.57V133l-9.65-.88-9.59,12v3.62l6.9.61,0,9.28,2.72.25,2.74-3.41m-6.3,5.14,0-10.13-7.6-.68-7.59,9.45,0,10.13,7.62.67,7.57-9.44m14.77-3.46,7.57-9.44,0-10.12-7.6-.69-7.59,9.46,0,10.12,7.62.67" transform="translate(0.58 0.25)"/><polygon class="cls-2" points="475.77 149.03 483.37 149.71 483.4 159.84 475.82 169.28 468.21 168.61 468.18 158.48 475.77 149.03"/><polygon class="cls-14" points="499 140.89 499.01 144.72 502.34 142.8 502.35 144.85 499.02 146.78 499.03 150.6 497.24 151.63 497.23 147.81 493.9 149.73 493.89 147.68 497.23 145.75 497.22 141.92 499 140.89"/><polygon class="cls-2" points="486.88 132.36 496.53 133.24 496.54 136.86 489.67 145.43 489.69 154.7 486.95 158.11 484.23 157.85 484.21 148.58 477.31 147.97 477.3 144.35 486.88 132.36"/><path class="cls-2" d="M497.52,135.88l7.6.69,0,10.12-7.57,9.44-7.62-.67,0-10.12Zm4.24,8.73v-2.06l-3.33,1.92v-3.83l-1.79,1v3.83l-3.33,1.93v2l3.33-1.92v3.82l1.79-1v-3.82l3.32-1.92" transform="translate(0.58 0.25)"/><path class="cls-2" d="M486.26,118.3c14.37-8.3,26.09-1.62,26.14,14.9s-11.6,36.68-26,45-26.09,1.62-26.14-14.89S471.89,126.59,486.26,118.3Zm.16,57.43c13.2-7.62,23.89-26.15,23.85-41.31s-10.81-21.3-24-13.68-23.88,26.15-23.84,41.31,10.81,21.3,24,13.68" transform="translate(0.58 0.25)"/></g><g id="ZelCore-2" data-name="ZelCore"><polygon class="cls-14" points="250.38 403.6 248.62 407.49 253.6 410.37 252.9 411.91 250.25 412.31 245.26 409.44 238.56 410.47 236.61 409.34 239.04 403.91 248.43 402.48 250.38 403.6"/><polygon class="cls-14" points="264.26 405.11 262.32 409.39 254.93 410.53 249.48 407.38 251.43 403.1 258.81 401.96 264.26 405.11"/><polygon class="cls-14" points="250.54 413.09 248.6 417.36 241.21 418.51 235.75 415.36 237.71 411.07 245.09 409.94 250.54 413.09"/><path class="cls-14" d="M263.55,400c8.72,5,8.76,13.22.11,18.25s-22.8,5-31.51,0S223.38,405,232,400,254.84,394.92,263.55,400Zm-30.7,17.84c8.33,4.8,21.83,4.81,30.1,0s8.22-12.63-.1-17.43-21.83-4.81-30.1,0-8.22,12.62.1,17.43" transform="translate(0.58 0.25)"/><path class="cls-2" d="M262.85,400.37c8.32,4.8,8.37,12.62.1,17.43s-21.77,4.8-30.1,0-8.37-12.63-.1-17.43S254.52,395.56,262.85,400.37ZM236,409.09l1.95,1.13,6.7-1,5,2.88,2.66-.41.7-1.54-5-2.88,1.76-3.89-1.94-1.12-9.4,1.43L236,409.09m18.32,1.19,7.39-1.14,1.94-4.28-5.45-3.15-7.38,1.14-1.95,4.28,5.45,3.15m-13.73,8,7.4-1.15,1.94-4.27-5.46-3.15-7.37,1.13-2,4.29,5.45,3.15" transform="translate(0.58 0.25)"/></g><g id="ZelCore2"><polygon class="cls-14" points="578.94 434.14 577.01 438.42 569.61 439.56 564.16 436.42 566.11 432.13 573.49 431 578.94 434.14"/><path class="cls-2" d="M591.25,421.43c8.32,4.8,8.37,12.62.1,17.43s-21.78,4.8-30.1,0-8.37-12.63-.1-17.44S582.92,416.62,591.25,421.43Zm-26.83,8.72,2,1.13,6.7-1,5,2.88,2.65-.4.7-1.54-5-2.88,1.76-3.89-2-1.12-9.38,1.43-2.44,5.43m4.6,9.16,7.41-1.14,1.92-4.28-5.44-3.14-7.38,1.13-1.95,4.29,5.44,3.14m13.72-8,7.41-1.14,1.93-4.28-5.45-3.15-7.38,1.13-2,4.3,5.44,3.14" transform="translate(0.58 0.25)"/><polygon class="cls-14" points="578.78 424.66 577.02 428.55 582 431.43 581.3 432.97 578.65 433.37 573.67 430.5 566.96 431.53 565.01 430.4 567.44 424.97 576.82 423.54 578.78 424.66"/><polygon class="cls-14" points="592.66 426.17 590.73 430.45 583.33 431.59 577.88 428.44 579.83 424.15 587.21 423.02 592.66 426.17"/><path class="cls-14" d="M592,421c8.72,5,8.76,13.21.1,18.24s-22.79,5-31.5,0-8.76-13.22-.11-18.26S583.24,416,592,421Zm-30.7,17.84c8.32,4.8,21.82,4.8,30.1,0s8.22-12.63-.1-17.43-21.83-4.81-30.1,0-8.22,12.63.1,17.44" transform="translate(0.58 0.25)"/></g></g></svg>