<svg xmlns="http://www.w3.org/2000/svg" xmlns:xlink="http://www.w3.org/1999/xlink" viewBox="0 0 750 500"><defs><style>.cls-1{isolation:isolate;}.cls-2{fill:#36c9a5;}.cls-3{mix-blend-mode:overlay;}.cls-4,.cls-5{fill:none;stroke-linecap:round;stroke-linejoin:round;}.cls-4{stroke:#003047;stroke-width:2px;}.cls-5{stroke:#fff;stroke-width:2.03px;}.cls-6{fill:url(#linear-gradient);}.cls-7{fill:#5b8f8c;}.cls-8{fill:#d4c299;}.cls-13,.cls-14,.cls-8{opacity:0.7;}.cls-9{fill:#aed9cc;}.cls-10,.cls-9{opacity:0.9;}.cls-10{fill:#a7cec3;}.cls-11{fill:#248784;}.cls-11,.cls-12{opacity:0.75;}.cls-100,.cls-101,.cls-11,.cls-12{mix-blend-mode:multiply;}.cls-12{fill:#009695;}.cls-13{fill:#e7d2a5;}.cls-14{fill:#e2cea2;}.cls-15{mix-blend-mode:lighten;}.cls-105,.cls-16{fill:#fff;}.cls-17{fill:#4eb39a;}.cls-18{fill:#2ea08a;}.cls-19{fill:#1b564e;}.cls-20{fill:#1c3c4f;}.cls-21{fill:#a4d654;}.cls-106,.cls-22{mix-blend-mode:screen;}.cls-22{fill:url(#Namnlös_övertoning_70);}.cls-23{fill:#1b574f;}.cls-24{fill:#1c5850;}.cls-25{fill:#1c5950;}.cls-26{fill:#1c5a51;}.cls-27{fill:#1c5b52;}.cls-28{fill:#1d5c53;}.cls-29{fill:#1d5d54;}.cls-30{fill:#1d5e54;}.cls-31{fill:#1d5f55;}.cls-32{fill:#1e6056;}.cls-33{fill:#1e6157;}.cls-34{fill:#1e6258;}.cls-35{fill:#1e6358;}.cls-36{fill:#1f6459;}.cls-37{fill:#1f655a;}.cls-38{fill:#1f665b;}.cls-39{fill:#1f675c;}.cls-40{fill:#20685c;}.cls-41{fill:#20695d;}.cls-42{fill:#206a5e;}.cls-43{fill:#206b5f;}.cls-44{fill:#216c60;}.cls-45{fill:#216d60;}.cls-46{fill:#216e61;}.cls-47{fill:#216f62;}.cls-48{fill:#227063;}.cls-49{fill:#227164;}.cls-50{fill:#227264;}.cls-51{fill:#227365;}.cls-52{fill:#237466;}.cls-53{fill:#237567;}.cls-54{fill:#237668;}.cls-55{fill:#237768;}.cls-56{fill:#247869;}.cls-57{fill:#24796a;}.cls-58{fill:#247a6b;}.cls-59{fill:#247b6c;}.cls-60{fill:#257b6c;}.cls-61{fill:#257c6d;}.cls-62{fill:#257d6e;}.cls-63{fill:#257e6f;}.cls-64{fill:#267f70;}.cls-65{fill:#268070;}.cls-66{fill:#268171;}.cls-67{fill:#268272;}.cls-68{fill:#278373;}.cls-69{fill:#278474;}.cls-70{fill:#278574;}.cls-71{fill:#278675;}.cls-72{fill:#288776;}.cls-73{fill:#288877;}.cls-74{fill:#288978;}.cls-75{fill:#288a78;}.cls-76{fill:#298b79;}.cls-77{fill:#298c7a;}.cls-78{fill:#298d7b;}.cls-79{fill:#298e7c;}.cls-80{fill:#2a8f7c;}.cls-81{fill:#2a907d;}.cls-82{fill:#2a917e;}.cls-83{fill:#2a927f;}.cls-84{fill:#2b9380;}.cls-85{fill:#2b9480;}.cls-86{fill:#2b9581;}.cls-87{fill:#2b9682;}.cls-88{fill:#2c9783;}.cls-89{fill:#2c9884;}.cls-90{fill:#2c9984;}.cls-91{fill:#2c9a85;}.cls-92{fill:#2d9b86;}.cls-93{fill:#2d9c87;}.cls-94{fill:#2d9d88;}.cls-95{fill:#2d9e88;}.cls-96{fill:#2e9f89;}.cls-97{fill:#141414;}.cls-98{fill:url(#linear-gradient-2);}.cls-99{fill:#171415;}.cls-100{fill:url(#linear-gradient-3);}.cls-102{fill:#001611;}.cls-103{fill:#0c0816;opacity:0.38;}.cls-104{fill:#2a9581;}.cls-105{opacity:0.5;}.cls-106{opacity:0.3;fill:url(#linear-gradient-4);}.cls-107{fill:#232220;}</style><linearGradient id="linear-gradient" x1="380.4" y1="148.87" x2="407.52" y2="148.87" gradientUnits="userSpaceOnUse"><stop offset="0" stop-color="#13002a"/><stop offset="0.1" stop-color="#2a0055"/><stop offset="0.23" stop-color="#4d0094"/><stop offset="0.32" stop-color="#4c0597"/><stop offset="0.43" stop-color="#4715a0"/><stop offset="0.56" stop-color="#412eae"/><stop offset="0.6" stop-color="#3e39b4"/><stop offset="1" stop-color="#3c42b9"/></linearGradient><radialGradient id="Namnlös_övertoning_70" cx="506.96" cy="347.13" r="47.37" gradientTransform="matrix(0.91, 0, 0, 0.94, -306.46, 31.26)" gradientUnits="userSpaceOnUse"><stop offset="0.03" stop-color="#fffdff"/><stop offset="0.09" stop-color="#68ab41"/><stop offset="0.13" stop-color="#4b8d37"/><stop offset="0.18" stop-color="#296a2a"/><stop offset="0.22" stop-color="#155423"/><stop offset="0.24" stop-color="#0d4c20"/><stop offset="0.26" stop-color="#0c481e"/><stop offset="0.36" stop-color="#082e13"/><stop offset="0.47" stop-color="#04190b"/><stop offset="0.6" stop-color="#020b05"/><stop offset="0.75" stop-color="#000301"/><stop offset="1"/></radialGradient><linearGradient id="linear-gradient-2" x1="-690.49" y1="1989.29" x2="-692.33" y2="1987.44" gradientTransform="matrix(-1, 0.58, 0, 1, -214.64, -1435.53)" gradientUnits="userSpaceOnUse"><stop offset="0" stop-color="#616161"/><stop offset="0.58"/></linearGradient><linearGradient id="linear-gradient-3" x1="522.65" y1="288.43" x2="591.12" y2="288.43" gradientUnits="userSpaceOnUse"><stop offset="0"/><stop offset="0.13" stop-color="#050207"/><stop offset="0.32" stop-color="#13081b"/><stop offset="0.54" stop-color="#29123b"/><stop offset="0.79" stop-color="#482067"/><stop offset="1" stop-color="#662d91"/></linearGradient><linearGradient id="linear-gradient-4" x1="436.57" y1="185.16" x2="593.01" y2="185.16" gradientUnits="userSpaceOnUse"><stop offset="0.42" stop-color="#c0f0ff"/><stop offset="0.44" stop-color="#c5f1ff"/><stop offset="0.47" stop-color="#d5f5ff"/><stop offset="0.5" stop-color="#eefbff"/><stop offset="0.51" stop-color="#fff"/></linearGradient></defs><title>1098</title><g class="cls-1"><g id="Background"><rect class="cls-2" width="750" height="500"/></g><g id="Lines"><g class="cls-3"><line class="cls-4" x1="260.88" y1="256.83" x2="260.88" y2="210.39"/><line class="cls-4" x1="284.1" y1="241.59" x2="284.1" y2="196.56"/><path class="cls-4" d="M223.83,274.86V247.19a28,28,0,0,1,13.65-24l108.68-64c10.16-6,15.65-9.32,21.55-6.37l19.47,11.73"/></g><path class="cls-5" d="M294.26,378.76v22.05a10.78,10.78,0,0,1-4.94,9.07L187,475.69a4.1,4.1,0,0,1-6.32-3.45V447.82l-18-11.38v-19.8"/><path class="cls-5" d="M453.25,301.18l-1.44,31.63a13.51,13.51,0,0,1-6.28,10.82L354.76,401a26,26,0,0,1-28.56-.55l-90.36-62.06a27.65,27.65,0,0,1-12-22.8V301.07"/><path class="cls-5" d="M294.26,378.76l54.55-31.28a6.23,6.23,0,0,0,.24-10.67L294.23,302a17.38,17.38,0,0,1-8.07-14.68V264"/></g><g id="Staple"><polygon class="cls-6" points="380.39 148.87 393.96 142.08 407.52 148.87 393.96 155.65 380.39 148.87"/><polygon class="cls-7" points="380.39 114.96 393.96 108.18 407.52 114.96 393.96 121.74 380.39 114.96"/><polygon class="cls-8" points="380.39 60.71 393.96 53.93 407.52 60.71 393.96 67.49 380.39 60.71"/><polygon class="cls-9" points="380.39 148.87 380.39 114.96 393.96 121.74 393.96 155.65 380.39 148.87"/><polygon class="cls-10" points="393.96 155.65 393.96 121.74 407.52 114.96 407.52 148.87 393.96 155.65"/><polygon class="cls-11" points="380.39 169.21 393.96 162.43 407.52 169.21 393.96 175.99 380.39 169.21"/><polygon class="cls-12" points="380.39 169.21 380.39 148.87 393.96 155.65 393.96 175.99 380.39 169.21"/><polygon class="cls-12" points="393.96 175.99 393.96 155.65 407.52 148.87 407.52 169.21 393.96 175.99"/><polygon class="cls-13" points="393.96 67.49 393.96 121.74 380.39 114.96 380.39 60.71 393.96 67.49"/><polygon class="cls-14" points="393.96 67.49 407.52 60.71 407.52 114.96 393.96 121.74 393.96 67.49"/></g><g id="Cloud"><g class="cls-15"><path class="cls-16" d="M403.33,32.87c19.53,0,33.83,12.26,39.24,33.64a6.48,6.48,0,0,0,3.54,4.3,6.49,6.49,0,0,0,5.58,0A34.63,34.63,0,0,1,466.51,67a18.57,18.57,0,0,1,15,6.94c4,5,6.08,12.32,6.08,21.28,0,20.24-11.08,45.32-27.58,62.41l-.09.09-.08.09c-3.65,4.28-13.19,11-20.7,15.42L197.52,312.72a21.93,21.93,0,0,1-10.82,3.33c-9.51,0-15.65-9.58-15.65-24.42,0-22.26,14-49.13,30.52-58.68l4.53-2.62a9.51,9.51,0,0,0,4.65-6.88c2.83-19.78,11.2-41.23,23.58-60.39,12.5-19.35,28.36-35.19,44.66-44.6,8.48-4.9,16.7-7.88,24.44-8.88a9.51,9.51,0,0,0,7-4.7C325.83,78,346.31,56.31,368.14,43.71c12.29-7.1,24.45-10.84,35.19-10.84m0-4.06c-11.19,0-23.84,3.66-37.22,11.39C342.93,53.58,322,76.59,306.93,102.87a5.44,5.44,0,0,1-4,2.69c-8,1-16.79,4.1-26,9.39-35.1,20.26-64.27,66.18-70.22,107.93a5.47,5.47,0,0,1-2.66,3.94l-4.54,2.61c-17.9,10.34-32.55,38.33-32.55,62.2,0,17.8,8.15,28.48,19.71,28.48a25.87,25.87,0,0,0,12.84-3.87L441.17,176.73c7.81-4.59,17.74-11.58,21.77-16.3,16.82-17.43,28.72-43.16,28.72-65.22,0-20.47-10.23-32.28-25.15-32.28a38.63,38.63,0,0,0-16.57,4.2,2.45,2.45,0,0,1-3.44-1.62c-6-23.55-22-36.7-43.17-36.7Z"/></g></g><g id="Computer"><polygon class="cls-17" points="74.6 297.77 150.21 341.84 196.73 314.98 121.12 270.91 74.6 297.77"/><polygon class="cls-18" points="150.2 454.14 197.01 427.12 197.01 314.8 150.2 341.83 150.2 454.14"/><polygon class="cls-19" points="74.63 410.08 150.24 454.14 150.24 341.82 74.63 297.76 74.63 410.08"/><polygon class="cls-20" points="150.2 369.04 197.01 342.01 197.01 340.61 150.2 367.63 150.2 369.04"/><polygon class="cls-20" points="150.2 381.94 197.01 354.92 197.01 353.51 150.2 380.53 150.2 381.94"/><polygon class="cls-20" points="150.2 394.84 197.01 367.82 197.01 366.41 150.2 393.43 150.2 394.84"/><polygon class="cls-20" points="150.2 407.75 197.01 380.72 197.01 379.31 150.2 406.34 150.2 407.75"/><path class="cls-21" d="M153.77,358.2c0,1.54,1.09,2.16,2.43,1.38a5.33,5.33,0,0,0,2.43-4.18c0-1.54-1.09-2.16-2.43-1.39a5.37,5.37,0,0,0-2.43,4.19"/><g id="Lager_5" data-name="Lager 5"><path class="cls-19" d="M180,309.21a1.79,1.79,0,0,0,1.61,0c.45-.26.44-.67,0-.93a1.79,1.79,0,0,0-1.61,0c-.44.26-.44.67,0,.93"/><path class="cls-19" d="M176.5,311.2a1.76,1.76,0,0,0,1.61,0c.45-.25.44-.67,0-.93a1.82,1.82,0,0,0-1.61,0c-.45.26-.44.67,0,.93"/><path class="cls-19" d="M173.06,313.19a1.76,1.76,0,0,0,1.61,0,.49.49,0,0,0,0-.93,1.78,1.78,0,0,0-1.62,0c-.44.26-.44.67,0,.93"/><path class="cls-19" d="M169.61,315.18a1.78,1.78,0,0,0,1.62,0c.44-.25.44-.67,0-.93a1.76,1.76,0,0,0-1.61,0,.49.49,0,0,0,0,.93"/><path class="cls-19" d="M166.17,317.17a1.76,1.76,0,0,0,1.61,0c.45-.26.44-.67,0-.93a1.76,1.76,0,0,0-1.61,0c-.45.25-.45.67,0,.93"/><path class="cls-19" d="M162.72,319.15a1.81,1.81,0,0,0,1.62,0c.44-.26.44-.67,0-.93a1.76,1.76,0,0,0-1.61,0,.49.49,0,0,0,0,.92"/><path class="cls-19" d="M159.28,321.14a1.73,1.73,0,0,0,1.61,0c.45-.26.45-.67,0-.93a1.79,1.79,0,0,0-1.61,0c-.45.26-.45.68,0,.93"/><path class="cls-19" d="M155.84,323.13a1.73,1.73,0,0,0,1.61,0,.5.5,0,0,0,0-.94,1.82,1.82,0,0,0-1.61,0c-.44.26-.44.67,0,.93"/><path class="cls-19" d="M152.39,325.12a1.78,1.78,0,0,0,1.62,0c.44-.25.44-.67,0-.93a1.76,1.76,0,0,0-1.61,0c-.45.26-.45.67,0,.93"/><path class="cls-19" d="M149,327.11a1.79,1.79,0,0,0,1.61,0c.45-.27.44-.68,0-.94a1.76,1.76,0,0,0-1.61,0c-.44.25-.44.67,0,.93"/><path class="cls-19" d="M145.5,329.1a1.78,1.78,0,0,0,1.62,0c.44-.26.44-.67,0-.93a1.76,1.76,0,0,0-1.61,0,.49.49,0,0,0,0,.93"/><path class="cls-19" d="M142.06,331.09a1.76,1.76,0,0,0,1.61,0c.45-.26.44-.67,0-.93a1.76,1.76,0,0,0-1.61,0c-.45.25-.45.67,0,.93"/><path class="cls-19" d="M138.62,333.08a1.76,1.76,0,0,0,1.61,0,.49.49,0,0,0,0-.93,1.76,1.76,0,0,0-1.61,0c-.44.25-.44.67,0,.93"/><path class="cls-19" d="M183,311a1.76,1.76,0,0,0,1.61,0c.45-.26.45-.67,0-.93a1.76,1.76,0,0,0-1.61,0c-.45.25-.45.67,0,.93"/><path class="cls-19" d="M179.51,312.94a1.76,1.76,0,0,0,1.61,0c.44-.26.44-.67,0-.93a1.79,1.79,0,0,0-1.61,0,.5.5,0,0,0,0,.94"/><path class="cls-19" d="M176.06,314.93a1.82,1.82,0,0,0,1.61,0c.45-.26.45-.67,0-.93a1.76,1.76,0,0,0-1.61,0c-.45.25-.44.67,0,.93"/><path class="cls-19" d="M172.62,316.91a1.79,1.79,0,0,0,1.61,0,.49.49,0,0,0,0-.93,1.79,1.79,0,0,0-1.61,0,.49.49,0,0,0,0,.93"/><path class="cls-19" d="M169.17,318.9a1.78,1.78,0,0,0,1.62,0c.44-.25.44-.67,0-.93a1.82,1.82,0,0,0-1.61,0,.49.49,0,0,0,0,.93"/><path class="cls-19" d="M165.73,320.89a1.76,1.76,0,0,0,1.61,0c.45-.25.44-.67,0-.93a1.78,1.78,0,0,0-1.62,0c-.44.26-.44.67,0,.93"/><path class="cls-19" d="M162.28,322.88a1.78,1.78,0,0,0,1.62,0c.44-.25.44-.67,0-.93a1.76,1.76,0,0,0-1.61,0,.49.49,0,0,0,0,.93"/><path class="cls-19" d="M158.84,324.87a1.78,1.78,0,0,0,1.62,0c.44-.25.44-.67,0-.93a1.76,1.76,0,0,0-1.61,0c-.45.25-.45.67,0,.93"/><path class="cls-19" d="M155.4,326.85a1.73,1.73,0,0,0,1.61,0c.44-.26.44-.67,0-.93a1.76,1.76,0,0,0-1.61,0,.48.48,0,0,0,0,.92"/><path class="cls-19" d="M152,328.84a1.79,1.79,0,0,0,1.61,0c.45-.26.45-.67,0-.93a1.78,1.78,0,0,0-1.62,0c-.44.25-.43.67,0,.92"/><path class="cls-19" d="M148.51,330.83a1.76,1.76,0,0,0,1.61,0,.48.48,0,0,0,0-.92,1.79,1.79,0,0,0-1.61,0c-.44.26-.44.67,0,.93"/><path class="cls-19" d="M145.06,332.82a1.78,1.78,0,0,0,1.62,0c.44-.25.44-.67,0-.93a1.82,1.82,0,0,0-1.61,0,.49.49,0,0,0,0,.93"/><path class="cls-19" d="M141.62,334.81a1.76,1.76,0,0,0,1.61,0c.45-.25.44-.67,0-.93a1.76,1.76,0,0,0-1.61,0c-.45.26-.45.67,0,.93"/><path class="cls-19" d="M186,312.68a1.78,1.78,0,0,0,1.62,0c.44-.25.44-.67,0-.93a1.82,1.82,0,0,0-1.61,0,.49.49,0,0,0,0,.93"/><path class="cls-19" d="M182.51,314.67a1.76,1.76,0,0,0,1.61,0c.44-.26.44-.67,0-.92a1.75,1.75,0,0,0-1.62,0c-.44.26-.44.67,0,.93"/><path class="cls-19" d="M179.07,316.66a1.76,1.76,0,0,0,1.61,0c.44-.25.44-.67,0-.93a1.76,1.76,0,0,0-1.61,0c-.44.26-.44.67,0,.93"/><path class="cls-19" d="M175.62,318.65a1.76,1.76,0,0,0,1.61,0c.45-.25.45-.67,0-.93a1.76,1.76,0,0,0-1.61,0c-.45.25-.45.67,0,.93"/><path class="cls-19" d="M172.18,320.64a1.82,1.82,0,0,0,1.61,0c.45-.26.44-.67,0-.93a1.76,1.76,0,0,0-1.61,0c-.44.25-.44.67,0,.93"/><path class="cls-19" d="M168.73,322.63a1.82,1.82,0,0,0,1.61,0c.45-.26.45-.67,0-.93a1.76,1.76,0,0,0-1.61,0c-.45.25-.45.67,0,.93"/><path class="cls-19" d="M165.29,324.62a1.82,1.82,0,0,0,1.61,0,.49.49,0,0,0,0-.93,1.81,1.81,0,0,0-1.62,0,.5.5,0,0,0,0,.94"/><path class="cls-19" d="M161.84,326.6a1.78,1.78,0,0,0,1.62,0c.44-.25.44-.67,0-.93a1.82,1.82,0,0,0-1.61,0,.49.49,0,0,0,0,.93"/><path class="cls-19" d="M158.4,328.59a1.76,1.76,0,0,0,1.61,0c.45-.25.45-.67,0-.93a1.76,1.76,0,0,0-1.61,0c-.45.26-.44.67,0,.93"/><path class="cls-19" d="M155,330.58a1.76,1.76,0,0,0,1.61,0c.44-.26.44-.67,0-.93a1.76,1.76,0,0,0-1.61,0c-.44.26-.44.67,0,.93"/><path class="cls-19" d="M151.51,332.57a1.82,1.82,0,0,0,1.61,0c.45-.26.45-.67,0-.93a1.76,1.76,0,0,0-1.61,0c-.45.25-.45.67,0,.93"/><path class="cls-19" d="M148.07,334.56a1.82,1.82,0,0,0,1.61,0c.45-.26.44-.67,0-.93a1.76,1.76,0,0,0-1.61,0c-.44.25-.44.67,0,.93"/><path class="cls-19" d="M144.63,336.54a1.79,1.79,0,0,0,1.61,0c.44-.26.44-.67,0-.93a1.79,1.79,0,0,0-1.61,0c-.45.26-.45.68,0,.93"/><path class="cls-19" d="M189,314.41a1.73,1.73,0,0,0,1.61,0c.45-.26.44-.67,0-.93a1.76,1.76,0,0,0-1.61,0,.48.48,0,0,0,0,.92"/><path class="cls-19" d="M185.52,316.41a1.8,1.8,0,0,0,1.6,0c.45-.26.45-.67,0-.93a1.79,1.79,0,0,0-1.61,0c-.45.26-.44.68,0,.94"/><path class="cls-19" d="M182.07,318.4a1.82,1.82,0,0,0,1.61,0,.49.49,0,0,0,0-.93,1.81,1.81,0,0,0-1.62,0c-.44.26-.44.67,0,.94"/><path class="cls-19" d="M178.63,320.38a1.76,1.76,0,0,0,1.61,0c.44-.25.44-.67,0-.93a1.76,1.76,0,0,0-1.61,0,.49.49,0,0,0,0,.93"/><path class="cls-19" d="M175.18,322.37a1.76,1.76,0,0,0,1.61,0c.45-.25.44-.67,0-.93a1.78,1.78,0,0,0-1.62,0c-.44.26-.44.67,0,.93"/><path class="cls-19" d="M171.74,324.36a1.76,1.76,0,0,0,1.61,0c.45-.25.44-.67,0-.93a1.78,1.78,0,0,0-1.62,0c-.44.26-.44.67,0,.93"/><path class="cls-19" d="M168.29,326.35a1.78,1.78,0,0,0,1.62,0c.44-.26.44-.67,0-.93a1.76,1.76,0,0,0-1.61,0c-.45.25-.45.67,0,.93"/><path class="cls-19" d="M164.85,328.34a1.82,1.82,0,0,0,1.61,0c.45-.26.44-.67,0-.93a1.76,1.76,0,0,0-1.61,0c-.45.25-.45.67,0,.93"/><path class="cls-19" d="M161.4,330.32a1.73,1.73,0,0,0,1.61,0c.45-.26.45-.67,0-.93a1.79,1.79,0,0,0-1.61,0,.49.49,0,0,0,0,.93"/><path class="cls-19" d="M158,332.31a1.79,1.79,0,0,0,1.61,0,.5.5,0,0,0,0-.94,1.76,1.76,0,0,0-1.61,0c-.45.26-.45.67,0,.93"/><path class="cls-19" d="M154.52,334.3a1.79,1.79,0,0,0,1.61,0,.49.49,0,0,0,0-.93,1.79,1.79,0,0,0-1.61,0c-.44.26-.44.67,0,.93"/><path class="cls-19" d="M151.07,336.29a1.76,1.76,0,0,0,1.61,0c.45-.25.44-.67,0-.93a1.76,1.76,0,0,0-1.61,0c-.45.26-.44.67,0,.93"/><path class="cls-19" d="M147.63,338.28a1.76,1.76,0,0,0,1.61,0,.49.49,0,0,0,0-.93,1.84,1.84,0,0,0-1.62,0c-.44.26-.44.67,0,.93"/></g><ellipse class="cls-22" cx="156.2" cy="357.21" rx="35.81" ry="36.76" transform="translate(-226.05 280.52) rotate(-55.04)"/></g><g id="Laptop"><path class="cls-19" d="M401.8,195.59V281c0,2.52,2.06,3.38,4.57,1.93l46.94-27.1,91-52.55c2.51-1.45,4.57-4.69,4.57-7.21V110.66c0-2.51-2.06-3.38-4.57-1.93l-65.49,37.81-72.47,41.84C403.86,189.83,401.8,193.08,401.8,195.59Z"/><path class="cls-23" d="M401.82,195.61V281c0,2.52,2.05,3.39,4.57,1.94l46.94-27.11,91-52.54c2.52-1.46,4.58-4.7,4.58-7.22V110.68c0-2.51-2.06-3.39-4.58-1.93l-65.48,37.81L406.39,188.4C403.87,189.85,401.82,193.09,401.82,195.61Z"/><path class="cls-24" d="M401.83,195.62V281c0,2.52,2.06,3.38,4.58,1.93l46.94-27.1,91-52.55c2.52-1.45,4.58-4.69,4.58-7.21V110.69c0-2.51-2.06-3.38-4.58-1.93l-65.48,37.81-72.47,41.84C403.89,189.86,401.83,193.11,401.83,195.62Z"/><path class="cls-25" d="M401.85,195.64V281c0,2.52,2.06,3.39,4.58,1.94l46.94-27.1,91-52.55c2.52-1.46,4.58-4.7,4.58-7.22V110.71c0-2.51-2.06-3.38-4.58-1.93L478.9,146.59l-72.47,41.84C403.91,189.88,401.85,193.12,401.85,195.64Z"/><path class="cls-26" d="M401.87,195.65V281c0,2.52,2.06,3.38,4.58,1.93l46.94-27.1,91-52.55c2.52-1.45,4.57-4.69,4.57-7.21V110.73c0-2.52-2.05-3.39-4.57-1.93l-65.48,37.81-72.47,41.83C403.93,189.89,401.87,193.14,401.87,195.65Z"/><path class="cls-27" d="M401.89,195.67V281c0,2.52,2.06,3.39,4.57,1.94l47-27.1,91-52.55c2.51-1.45,4.57-4.7,4.57-7.21V110.74c0-2.51-2.06-3.38-4.57-1.93l-65.49,37.81-72.47,41.84C404,189.91,401.89,193.16,401.89,195.67Z"/><path class="cls-28" d="M401.91,195.69v85.36c0,2.52,2.06,3.38,4.57,1.94l46.95-27.11,91-52.54c2.51-1.46,4.57-4.7,4.57-7.22V110.76c0-2.52-2.06-3.39-4.57-1.93L479,146.64l-72.47,41.84C404,189.93,401.91,193.17,401.91,195.69Z"/><path class="cls-29" d="M401.93,195.7v85.37c0,2.51,2.06,3.38,4.57,1.93l46.95-27.1,91-52.55c2.51-1.45,4.57-4.69,4.57-7.21V110.77c0-2.51-2.06-3.38-4.57-1.93L479,146.65,406.5,188.49C404,189.94,401.93,193.19,401.93,195.7Z"/><path class="cls-30" d="M402,195.72v85.36c0,2.52,2.06,3.39,4.57,1.94l47-27.11,91-52.54c2.51-1.46,4.57-4.7,4.57-7.22V110.79c0-2.52-2.06-3.39-4.57-1.93L479,146.67l-72.47,41.84C404,190,402,193.2,402,195.72Z"/><path class="cls-31" d="M402,195.73V281.1c0,2.52,2.06,3.38,4.57,1.93l46.94-27.1,91-52.55c2.51-1.45,4.57-4.69,4.57-7.21V110.8c0-2.51-2.06-3.38-4.57-1.93L479,146.68l-72.47,41.84C404,190,402,193.22,402,195.73Z"/><path class="cls-32" d="M402,195.75v85.36c0,2.52,2.05,3.39,4.57,1.94l46.94-27.11,91-52.54c2.51-1.46,4.57-4.7,4.57-7.22V110.82c0-2.51-2.06-3.39-4.57-1.93L479,146.7l-72.47,41.84C404,190,402,193.23,402,195.75Z"/><path class="cls-33" d="M402,195.76v85.37c0,2.52,2.06,3.38,4.58,1.93L453.52,256l91-52.55c2.52-1.45,4.58-4.69,4.58-7.21V110.83c0-2.51-2.06-3.38-4.58-1.93l-65.48,37.81-72.47,41.84C404.06,190,402,193.25,402,195.76Z"/><path class="cls-34" d="M402,195.78v85.36c0,2.52,2.06,3.39,4.58,1.94L453.54,256l91-52.55c2.52-1.45,4.58-4.7,4.58-7.22V110.85c0-2.51-2.06-3.38-4.58-1.93l-65.48,37.81L406.6,188.57C404.08,190,402,193.27,402,195.78Z"/><path class="cls-35" d="M402,195.79v85.37c0,2.52,2.06,3.38,4.58,1.93L453.56,256l91-52.55c2.52-1.45,4.57-4.69,4.57-7.21V110.87c0-2.52-2-3.39-4.57-1.93l-65.48,37.81-72.47,41.84C404.1,190,402,193.28,402,195.79Z"/><path class="cls-36" d="M402.06,195.81v85.36c0,2.52,2.06,3.39,4.57,1.94L453.58,256l91-52.55c2.51-1.45,4.57-4.7,4.57-7.21V110.88c0-2.51-2.06-3.38-4.57-1.93L479.1,146.76,406.63,188.6C404.12,190.05,402.06,193.3,402.06,195.81Z"/><path class="cls-37" d="M402.08,195.83v85.36c0,2.52,2.06,3.38,4.57,1.94l47-27.11,91-52.54c2.51-1.46,4.57-4.7,4.57-7.22V110.9c0-2.52-2.06-3.39-4.57-1.93l-65.49,37.81-72.47,41.84C404.14,190.07,402.08,193.31,402.08,195.83Z"/><path class="cls-38" d="M402.1,195.84v85.37c0,2.51,2.06,3.38,4.57,1.93L453.62,256l91-52.55c2.51-1.45,4.57-4.69,4.57-7.21V110.91c0-2.51-2.06-3.38-4.57-1.93l-65.49,37.81-72.47,41.84C404.16,190.08,402.1,193.33,402.1,195.84Z"/><path class="cls-39" d="M402.12,195.86v85.36c0,2.52,2.06,3.39,4.57,1.94l46.95-27.11,91-52.54c2.51-1.46,4.57-4.7,4.57-7.22V110.93c0-2.52-2.06-3.39-4.57-1.93l-65.49,37.81-72.47,41.84C404.18,190.1,402.12,193.34,402.12,195.86Z"/><path class="cls-40" d="M402.14,195.87v85.37c0,2.52,2.06,3.38,4.57,1.93l46.94-27.1,91-52.55c2.51-1.45,4.57-4.69,4.57-7.21V110.94c0-2.51-2.06-3.38-4.57-1.93l-65.49,37.81-72.47,41.84C404.2,190.11,402.14,193.36,402.14,195.87Z"/><path class="cls-41" d="M402.16,195.89v85.36c0,2.52,2,3.39,4.57,1.94l46.94-27.11,91-52.54c2.51-1.46,4.57-4.7,4.57-7.22V111c0-2.51-2.06-3.39-4.57-1.93L479.2,146.84l-72.47,41.84C404.21,190.13,402.16,193.37,402.16,195.89Z"/><path class="cls-42" d="M402.18,195.9v85.37c0,2.52,2.05,3.38,4.57,1.93l46.94-27.1,91-52.55c2.52-1.45,4.58-4.69,4.58-7.21V111c0-2.52-2.06-3.39-4.58-1.94l-65.48,37.81-72.47,41.84C404.23,190.14,402.18,193.39,402.18,195.9Z"/><path class="cls-43" d="M402.19,195.92v85.36c0,2.52,2.06,3.39,4.58,1.94l46.94-27.1,91-52.55c2.52-1.45,4.58-4.7,4.58-7.22V111c0-2.51-2.06-3.38-4.58-1.93l-65.48,37.81-72.47,41.84C404.25,190.16,402.19,193.41,402.19,195.92Z"/><path class="cls-44" d="M402.21,195.93V281.3c0,2.52,2.06,3.38,4.58,1.93l46.94-27.1,91-52.54c2.52-1.46,4.57-4.7,4.57-7.22V111c0-2.52-2-3.39-4.57-1.93l-65.48,37.81-72.47,41.84C404.27,190.17,402.21,193.42,402.21,195.93Z"/><path class="cls-45" d="M402.23,196v85.36c0,2.52,2.06,3.39,4.57,1.94l46.95-27.1,91-52.55c2.52-1.45,4.57-4.69,4.57-7.21V111c0-2.51-2.05-3.38-4.57-1.93L479.27,146.9,406.8,188.74C404.29,190.19,402.23,193.44,402.23,196Z"/><path class="cls-46" d="M402.25,196v85.36c0,2.52,2.06,3.38,4.57,1.94l46.95-27.11,91-52.54c2.51-1.46,4.57-4.7,4.57-7.22V111c0-2.52-2.06-3.39-4.57-1.93l-65.49,37.81-72.47,41.84C404.31,190.21,402.25,193.45,402.25,196Z"/><path class="cls-47" d="M402.27,196v85.37c0,2.51,2.06,3.38,4.57,1.93l47-27.1,91-52.55c2.51-1.45,4.57-4.69,4.57-7.21V111.05c0-2.51-2.06-3.38-4.57-1.93l-65.49,37.81-72.47,41.84C404.33,190.22,402.27,193.47,402.27,196Z"/><path class="cls-48" d="M402.29,196v85.36c0,2.52,2.06,3.39,4.57,1.94l46.95-27.11,91-52.54c2.51-1.46,4.57-4.7,4.57-7.22V111.07c0-2.52-2.06-3.39-4.57-1.93L479.33,147l-72.47,41.84C404.35,190.24,402.29,193.48,402.29,196Z"/><path class="cls-49" d="M402.31,196v85.37c0,2.52,2.06,3.38,4.57,1.93l46.94-27.1,91-52.55c2.51-1.45,4.57-4.69,4.57-7.21V111.08c0-2.51-2.06-3.38-4.57-1.93L479.35,147,406.88,188.8C404.37,190.25,402.31,193.5,402.31,196Z"/><path class="cls-50" d="M402.33,196v85.36c0,2.52,2.05,3.39,4.57,1.94l46.94-27.1,91-52.55c2.51-1.46,4.57-4.7,4.57-7.22V111.1c0-2.51-2.06-3.38-4.57-1.93L479.37,147,406.9,188.82C404.38,190.27,402.33,193.51,402.33,196Z"/><path class="cls-51" d="M402.35,196v85.37c0,2.52,2,3.38,4.57,1.93l46.94-27.1,91-52.55c2.52-1.45,4.58-4.69,4.58-7.21V111.12c0-2.52-2.06-3.39-4.58-1.94L479.39,147l-72.47,41.84C404.4,190.28,402.35,193.53,402.35,196Z"/><path class="cls-52" d="M402.36,196.06v85.36c0,2.52,2.06,3.39,4.58,1.94l46.94-27.1,91-52.55c2.52-1.45,4.58-4.7,4.58-7.22V111.13c0-2.51-2.06-3.38-4.58-1.93L479.41,147l-72.47,41.84C404.42,190.3,402.36,193.55,402.36,196.06Z"/><path class="cls-53" d="M402.38,196.08v85.36c0,2.52,2.06,3.38,4.58,1.93l46.94-27.1,91-52.54c2.52-1.46,4.57-4.7,4.57-7.22V111.15c0-2.52-2.05-3.39-4.57-1.93L479.43,147,407,188.87C404.44,190.31,402.38,193.56,402.38,196.08Z"/><path class="cls-54" d="M402.4,196.09v85.36c0,2.52,2.06,3.39,4.57,1.94l46.95-27.1,91-52.55c2.52-1.45,4.57-4.69,4.57-7.21V111.16c0-2.51-2-3.38-4.57-1.93L479.44,147,407,188.88C404.46,190.33,402.4,193.58,402.4,196.09Z"/><path class="cls-55" d="M402.42,196.11v85.36c0,2.52,2.06,3.38,4.57,1.94l46.95-27.11,91-52.54c2.51-1.46,4.57-4.7,4.57-7.22V111.18c0-2.52-2.06-3.39-4.57-1.93l-65.49,37.81L407,188.9C404.48,190.35,402.42,193.59,402.42,196.11Z"/><path class="cls-56" d="M402.44,196.12v85.37c0,2.52,2.06,3.38,4.57,1.93L454,256.32l91-52.55c2.51-1.45,4.57-4.69,4.57-7.21V111.19c0-2.51-2.06-3.38-4.57-1.93l-65.49,37.81L407,188.91C404.5,190.36,402.44,193.61,402.44,196.12Z"/><path class="cls-57" d="M402.46,196.14V281.5c0,2.52,2.06,3.39,4.57,1.94l47-27.11,91-52.54c2.51-1.46,4.57-4.7,4.57-7.22V111.21c0-2.52-2.06-3.39-4.57-1.93L479.5,147.09,407,188.93C404.52,190.38,402.46,193.62,402.46,196.14Z"/><path class="cls-58" d="M402.48,196.15v85.37c0,2.52,2.06,3.38,4.57,1.93L454,256.35l91-52.55c2.51-1.45,4.57-4.69,4.57-7.21V111.22c0-2.51-2.06-3.38-4.57-1.93L479.52,147.1l-72.47,41.84C404.54,190.39,402.48,193.64,402.48,196.15Z"/><path class="cls-59" d="M402.5,196.17v85.36c0,2.52,2.05,3.39,4.57,1.94L454,256.37l91-52.55c2.51-1.46,4.57-4.7,4.57-7.22V111.24c0-2.51-2.06-3.38-4.57-1.93l-65.49,37.81L407.07,189C404.55,190.41,402.5,193.65,402.5,196.17Z"/><path class="cls-60" d="M402.52,196.18v85.37c0,2.52,2.05,3.38,4.57,1.93L454,256.38l91-52.55c2.52-1.45,4.58-4.69,4.58-7.21V111.26c0-2.52-2.06-3.39-4.58-1.93l-65.48,37.8L407.09,189C404.57,190.42,402.52,193.67,402.52,196.18Z"/><path class="cls-61" d="M402.53,196.2v85.36c0,2.52,2.06,3.39,4.58,1.94l46.94-27.1,91-52.55c2.52-1.45,4.58-4.7,4.58-7.22V111.27c0-2.51-2.06-3.38-4.58-1.93l-65.48,37.81L407.11,189C404.59,190.44,402.53,193.69,402.53,196.2Z"/><path class="cls-62" d="M402.55,196.22v85.36c0,2.52,2.06,3.38,4.58,1.93l46.94-27.1,91-52.54c2.52-1.46,4.58-4.7,4.58-7.22V111.29c0-2.52-2.06-3.39-4.58-1.93L479.6,147.17,407.13,189C404.61,190.45,402.55,193.7,402.55,196.22Z"/><path class="cls-63" d="M402.57,196.23v85.36c0,2.52,2.06,3.39,4.57,1.94l46.95-27.1,91-52.55c2.52-1.45,4.57-4.69,4.57-7.21V111.3c0-2.51-2-3.38-4.57-1.93l-65.48,37.81L407.14,189C404.63,190.47,402.57,193.72,402.57,196.23Z"/><path class="cls-64" d="M402.59,196.25v85.36c0,2.52,2.06,3.39,4.57,1.94l46.95-27.11,91-52.54c2.51-1.46,4.57-4.7,4.57-7.22V111.32c0-2.52-2.06-3.39-4.57-1.93L479.63,147.2,407.16,189C404.65,190.49,402.59,193.73,402.59,196.25Z"/><path class="cls-65" d="M402.61,196.26v85.37c0,2.52,2.06,3.38,4.57,1.93l46.95-27.1,91-52.55c2.51-1.45,4.57-4.69,4.57-7.21V111.33c0-2.51-2.06-3.38-4.57-1.93l-65.49,37.81-72.47,41.84C404.67,190.5,402.61,193.75,402.61,196.26Z"/><path class="cls-66" d="M402.63,196.28v85.36c0,2.52,2.06,3.39,4.57,1.94l46.95-27.11,91-52.54c2.51-1.46,4.57-4.7,4.57-7.22V111.35c0-2.52-2.06-3.39-4.57-1.93l-65.49,37.81L407.2,189.07C404.69,190.52,402.63,193.76,402.63,196.28Z"/><path class="cls-67" d="M402.65,196.29v85.37c0,2.52,2.06,3.38,4.57,1.93l46.95-27.1,91-52.55c2.51-1.45,4.57-4.69,4.57-7.21V111.36c0-2.51-2.06-3.38-4.57-1.93l-65.49,37.81-72.47,41.84C404.71,190.53,402.65,193.78,402.65,196.29Z"/><path class="cls-68" d="M402.67,196.31v85.36c0,2.52,2.05,3.39,4.57,1.94l46.94-27.1,91-52.55c2.51-1.46,4.57-4.7,4.57-7.22V111.38c0-2.51-2.06-3.38-4.57-1.93l-65.49,37.81L407.24,189.1C404.72,190.55,402.67,193.79,402.67,196.31Z"/><path class="cls-69" d="M402.69,196.32v85.37c0,2.52,2.05,3.38,4.57,1.93l46.94-27.1,91-52.55c2.52-1.45,4.58-4.69,4.58-7.21V111.4c0-2.52-2.06-3.39-4.58-1.93l-65.48,37.8-72.47,41.84C404.74,190.56,402.69,193.81,402.69,196.32Z"/><path class="cls-70" d="M402.7,196.34V281.7c0,2.52,2.06,3.39,4.58,1.94l46.94-27.1,91-52.55c2.52-1.45,4.58-4.7,4.58-7.21V111.41c0-2.51-2.06-3.38-4.58-1.93l-65.48,37.81-72.47,41.84C404.76,190.58,402.7,193.83,402.7,196.34Z"/><path class="cls-71" d="M402.72,196.36v85.36c0,2.52,2.06,3.38,4.58,1.93l46.94-27.1,91-52.54c2.52-1.46,4.58-4.7,4.58-7.22V111.43c0-2.52-2.06-3.39-4.58-1.93l-65.48,37.81L407.3,189.15C404.78,190.59,402.72,193.84,402.72,196.36Z"/><path class="cls-72" d="M402.74,196.37v85.36c0,2.52,2.06,3.39,4.57,1.94l46.95-27.1,91-52.55c2.52-1.45,4.57-4.69,4.57-7.21V111.44c0-2.51-2.05-3.38-4.57-1.93l-65.48,37.81-72.48,41.84C404.8,190.61,402.74,193.86,402.74,196.37Z"/><path class="cls-73" d="M402.76,196.39v85.36c0,2.52,2.06,3.39,4.57,1.94l46.95-27.11,91-52.54c2.51-1.46,4.57-4.7,4.57-7.22V111.46c0-2.52-2.06-3.39-4.57-1.93L479.8,147.34l-72.47,41.84C404.82,190.63,402.76,193.87,402.76,196.39Z"/><path class="cls-74" d="M402.78,196.4v85.37c0,2.52,2.06,3.38,4.57,1.93l46.95-27.1,91-52.55c2.51-1.45,4.57-4.69,4.57-7.21V111.47c0-2.51-2.06-3.38-4.57-1.93l-65.49,37.81-72.47,41.84C404.84,190.64,402.78,193.89,402.78,196.4Z"/><path class="cls-75" d="M402.8,196.42v85.36c0,2.52,2.06,3.39,4.57,1.94l46.95-27.11,91-52.54c2.51-1.46,4.57-4.7,4.57-7.22V111.49c0-2.52-2.06-3.39-4.57-1.93l-65.49,37.81-72.47,41.84C404.86,190.66,402.8,193.9,402.8,196.42Z"/><path class="cls-76" d="M402.82,196.43V281.8c0,2.52,2.06,3.38,4.57,1.93l46.95-27.1,91-52.55c2.51-1.45,4.57-4.69,4.57-7.21V111.5c0-2.51-2.06-3.38-4.57-1.93l-65.49,37.81-72.47,41.84C404.88,190.67,402.82,193.92,402.82,196.43Z"/><path class="cls-77" d="M402.84,196.45v85.36c0,2.52,2.06,3.39,4.57,1.94l46.94-27.1,91-52.55c2.51-1.46,4.57-4.7,4.57-7.22V111.52c0-2.51-2.06-3.38-4.57-1.93L479.88,147.4l-72.47,41.84C404.9,190.69,402.84,193.93,402.84,196.45Z"/><path class="cls-78" d="M402.86,196.46v85.37c0,2.52,2.05,3.38,4.57,1.93l46.94-27.1,91-52.55c2.52-1.45,4.58-4.69,4.58-7.21V111.54c0-2.52-2.06-3.39-4.58-1.93L479.9,147.42l-72.47,41.83C404.91,190.7,402.86,194,402.86,196.46Z"/><path class="cls-79" d="M402.87,196.48v85.36c0,2.52,2.06,3.39,4.58,1.94l46.94-27.1,91-52.55c2.52-1.45,4.58-4.7,4.58-7.21V111.55c0-2.51-2.06-3.38-4.58-1.93l-65.48,37.81-72.47,41.84C404.93,190.72,402.87,194,402.87,196.48Z"/><path class="cls-80" d="M402.89,196.5v85.36c0,2.52,2.06,3.38,4.58,1.94l46.94-27.11,91-52.54c2.52-1.46,4.58-4.7,4.58-7.22V111.57c0-2.52-2.06-3.39-4.58-1.93l-65.48,37.81-72.47,41.84C405,190.73,402.89,194,402.89,196.5Z"/><path class="cls-81" d="M402.91,196.51v85.37c0,2.51,2.06,3.38,4.57,1.93l46.95-27.1,91-52.55C548,202.71,550,199.47,550,197V111.58c0-2.51-2-3.38-4.57-1.93L480,147.46,407.48,189.3C405,190.75,402.91,194,402.91,196.51Z"/><path class="cls-82" d="M402.93,196.53v85.36c0,2.52,2.06,3.39,4.57,1.94l46.95-27.11,91-52.54c2.51-1.46,4.57-4.7,4.57-7.22V111.6c0-2.52-2.06-3.39-4.57-1.93L480,147.48,407.5,189.32C405,190.77,402.93,194,402.93,196.53Z"/><path class="cls-83" d="M403,196.54v85.37c0,2.52,2.06,3.38,4.57,1.93l47-27.1,91-52.55c2.51-1.45,4.57-4.69,4.57-7.21V111.61c0-2.51-2.06-3.38-4.57-1.93L480,147.49l-72.47,41.84C405,190.78,403,194,403,196.54Z"/><path class="cls-84" d="M403,196.56v85.36c0,2.52,2.06,3.39,4.57,1.94l46.95-27.11,91-52.54c2.51-1.46,4.57-4.7,4.57-7.22V111.63c0-2.52-2.06-3.39-4.57-1.93L480,147.51l-72.47,41.84C405,190.8,403,194,403,196.56Z"/><path class="cls-85" d="M403,196.57v85.37c0,2.52,2.06,3.38,4.57,1.93l46.95-27.1,91-52.55c2.51-1.45,4.57-4.69,4.57-7.21V111.64c0-2.51-2.06-3.38-4.57-1.93L480,147.52l-72.47,41.84C405.05,190.81,403,194.06,403,196.57Z"/><path class="cls-86" d="M403,196.59V282c0,2.52,2.06,3.39,4.57,1.94l46.94-27.1,91-52.55c2.51-1.46,4.57-4.7,4.57-7.22V111.66c0-2.51-2.06-3.38-4.57-1.93l-65.49,37.81-72.47,41.84C405.07,190.83,403,194.07,403,196.59Z"/><path class="cls-87" d="M403,196.6V282c0,2.52,2.05,3.38,4.57,1.93l46.94-27.1,91-52.55c2.51-1.45,4.57-4.69,4.57-7.21V111.68c0-2.52-2.06-3.39-4.57-1.93l-65.49,37.81L407.6,189.39C405.08,190.84,403,194.09,403,196.6Z"/><path class="cls-88" d="M403,196.62V282c0,2.52,2.06,3.39,4.58,1.94l46.94-27.1,91-52.55c2.52-1.45,4.58-4.7,4.58-7.21V111.69c0-2.51-2.06-3.38-4.58-1.93l-65.48,37.81-72.47,41.84C405.1,190.86,403,194.11,403,196.62Z"/><path class="cls-89" d="M403.06,196.64V282c0,2.52,2.06,3.38,4.58,1.94l46.94-27.11,91-52.54c2.52-1.46,4.58-4.7,4.58-7.22V111.71c0-2.52-2.06-3.39-4.58-1.93l-65.48,37.81-72.47,41.84C405.12,190.88,403.06,194.12,403.06,196.64Z"/><path class="cls-90" d="M403.08,196.65V282c0,2.51,2.06,3.38,4.58,1.93l46.94-27.1,91-52.55c2.52-1.45,4.57-4.69,4.57-7.21V111.72c0-2.51-2-3.38-4.57-1.93L480.13,147.6l-72.47,41.84C405.14,190.89,403.08,194.14,403.08,196.65Z"/><path class="cls-91" d="M403.1,196.67V282c0,2.52,2.06,3.39,4.57,1.94l46.95-27.11,91-52.54c2.51-1.46,4.57-4.7,4.57-7.22V111.74c0-2.52-2.06-3.39-4.57-1.93l-65.49,37.81-72.47,41.84C405.16,190.91,403.1,194.15,403.1,196.67Z"/><path class="cls-92" d="M403.12,196.68v85.37c0,2.52,2.06,3.38,4.57,1.93l46.95-27.1,91-52.55c2.51-1.45,4.57-4.69,4.57-7.21V111.75c0-2.51-2.06-3.38-4.57-1.93l-65.49,37.81-72.47,41.84C405.18,190.92,403.12,194.17,403.12,196.68Z"/><path class="cls-93" d="M403.14,196.7v85.36c0,2.52,2.06,3.39,4.57,1.94l47-27.11,91-52.54c2.51-1.46,4.57-4.7,4.57-7.22V111.77c0-2.51-2.06-3.39-4.57-1.93l-65.49,37.81-72.47,41.84C405.2,190.94,403.14,194.18,403.14,196.7Z"/><path class="cls-94" d="M403.16,196.71v85.37c0,2.52,2.06,3.38,4.57,1.93l46.95-27.1,91-52.55c2.51-1.45,4.57-4.69,4.57-7.21V111.78c0-2.51-2.06-3.38-4.57-1.93L480.2,147.66,407.73,189.5C405.22,191,403.16,194.2,403.16,196.71Z"/><path class="cls-95" d="M403.18,196.73v85.36c0,2.52,2.06,3.39,4.57,1.94l46.94-27.1,91-52.55c2.51-1.45,4.57-4.7,4.57-7.22V111.8c0-2.51-2.06-3.38-4.57-1.93l-65.49,37.81-72.47,41.84C405.24,191,403.18,194.22,403.18,196.73Z"/><path class="cls-96" d="M403.2,196.74v85.37c0,2.52,2.05,3.38,4.57,1.93l46.94-27.1,91-52.55c2.51-1.45,4.57-4.69,4.57-7.21V111.82c0-2.52-2.06-3.39-4.57-1.93L480.24,147.7l-72.47,41.83C405.25,191,403.2,194.23,403.2,196.74Z"/><path class="cls-18" d="M403.21,196.76v85.36c0,2.52,2.06,3.39,4.58,1.94L454.73,257l91-52.55c2.52-1.45,4.58-4.7,4.58-7.21V111.83c0-2.51-2.06-3.38-4.58-1.93l-65.48,37.81-72.47,41.84C405.27,191,403.21,194.25,403.21,196.76Z"/><polygon class="cls-97" points="407.35 197.24 407.35 279.55 546.91 198.37 546.97 116.55 407.35 197.24"/><path class="cls-19" d="M546.46,117c.55-.31,1-.06,1,.57l.22,79.87a2.18,2.18,0,0,1-1,1.7l-138.53,80c-.54.31-1,.06-1-.57L407,198.66a2.18,2.18,0,0,1,1-1.7Z"/><path class="cls-98" d="M475.46,154.37a2.73,2.73,0,0,1,1.31-2.06c.72-.41,1.3-.16,1.3.56a2.71,2.71,0,0,1-1.3,2C476.05,155.33,475.46,155.09,475.46,154.37Z"/><path class="cls-99" d="M475.62,154a1.49,1.49,0,0,1,.73-1.15c.4-.23.72-.1.72.31a1.52,1.52,0,0,1-.72,1.15C475.94,154.58,475.62,154.44,475.62,154Z"/><path class="cls-18" d="M406.84,286.1v.26a3.79,3.79,0,0,0,2.19,3l85.1,49.13a11.8,11.8,0,0,0,10.64,0L642.3,259.05a3.76,3.76,0,0,0,2.19-3v-.24a3.8,3.8,0,0,0-2.19-2.94l-85.1-49.13a11.8,11.8,0,0,0-10.64,0L409,283.18A3.81,3.81,0,0,0,406.84,286.1Z"/><path class="cls-2" d="M425.3,285.18a2.44,2.44,0,0,0,1.25,1.48l48.6,28a6.88,6.88,0,0,0,6.22,0L603,244.51a2.38,2.38,0,0,0,1.25-1.48,2,2,0,0,0-1.25-2.12l-48.59-28a6.91,6.91,0,0,0-6.23,0l-121.59,70.2A2,2,0,0,0,425.3,285.18Z"/><path class="cls-100" d="M522.68,293.05a1.14,1.14,0,0,0,.56.63l24.55,14.18a3.16,3.16,0,0,0,2.84,0l39.91-23.05a1.08,1.08,0,0,0,.55-.63c.11-.35-.08-.73-.55-1L566,269a3.14,3.14,0,0,0-2.83,0l-39.91,23C522.76,292.32,522.58,292.69,522.68,293.05Z"/><path class="cls-2" d="M522.68,293.05a1.14,1.14,0,0,0,.56.63l24.55,14.18a3.16,3.16,0,0,0,2.84,0l39.91-23.05a1.08,1.08,0,0,0,.55-.63,1.1,1.1,0,0,0-.55-.62L566,269.38a3.14,3.14,0,0,0-2.83,0l-39.91,23A1.1,1.1,0,0,0,522.68,293.05Z"/><g class="cls-101"><path class="cls-102" d="M442.63,293.61a1.55,1.55,0,0,1-1.39,0l-5.93-3.42a.42.42,0,0,1,0-.8l7.28-4.2a1.49,1.49,0,0,1,1.39,0l5.93,3.42a.42.42,0,0,1,0,.8Z"/><path class="cls-102" d="M550.54,231.31a1.55,1.55,0,0,1-1.39,0l-5.92-3.42a.43.43,0,0,1,0-.81l15.51-9a1.57,1.57,0,0,1,1.4,0l5.92,3.42a.43.43,0,0,1,0,.81Z"/><path class="cls-102" d="M562.73,233.63a1.57,1.57,0,0,1-1.4,0l-5.92-3.42a.42.42,0,0,1,0-.8l11.44-6.61a1.55,1.55,0,0,1,1.39,0l5.93,3.42a.43.43,0,0,1,0,.81Z"/><path class="cls-102" d="M564.94,242.05a1.55,1.55,0,0,1-1.39,0l-5.92-3.42a.43.43,0,0,1,0-.81l17.62-10.17a1.55,1.55,0,0,1,1.39,0l5.92,3.42c.39.22.39.58,0,.81Z"/><path class="cls-102" d="M569.21,249.28a1.55,1.55,0,0,1-1.39,0l-5.92-3.42a.43.43,0,0,1,0-.81l21.74-12.55a1.55,1.55,0,0,1,1.39,0l5.93,3.42a.42.42,0,0,1,0,.8Z"/><path class="cls-102" d="M450.74,298.29a1.55,1.55,0,0,1-1.39,0l-5.93-3.42a.43.43,0,0,1,0-.81l11.42-6.59a1.55,1.55,0,0,1,1.39,0l5.93,3.42a.43.43,0,0,1,0,.81Z"/><path class="cls-102" d="M458.84,303a1.55,1.55,0,0,1-1.39,0l-5.92-3.42c-.39-.22-.39-.58,0-.81L465,291a1.49,1.49,0,0,1,1.39,0l5.92,3.42a.42.42,0,0,1,0,.8Z"/><path class="cls-102" d="M467,307.65a1.55,1.55,0,0,1-1.39,0l-5.93-3.42a.43.43,0,0,1,0-.81l17.54-10.12a1.55,1.55,0,0,1,1.39,0l5.93,3.42a.42.42,0,0,1,0,.8Z"/><path class="cls-102" d="M475.05,312.33a1.55,1.55,0,0,1-1.39,0l-5.92-3.42a.43.43,0,0,1,0-.81l9.28-5.35a1.55,1.55,0,0,1,1.39,0l5.92,3.42a.42.42,0,0,1,0,.8Z"/><path class="cls-102" d="M510.94,291.61a1.55,1.55,0,0,1-1.39,0l-5.92-3.42a.42.42,0,0,1,0-.8L542.38,265a1.55,1.55,0,0,1,1.39,0l5.93,3.42a.42.42,0,0,1,0,.8Z"/><path class="cls-102" d="M434.53,288.93a1.57,1.57,0,0,1-1.4,0l-4.45-2.57a.42.42,0,0,1,0-.8l5.51-3.19a1.55,1.55,0,0,1,1.39,0l4.46,2.57a.43.43,0,0,1,0,.81Z"/><path class="cls-102" d="M442.21,284.49a1.55,1.55,0,0,1-1.39,0l-4.45-2.57a.42.42,0,0,1,0-.8l5.51-3.18a1.55,1.55,0,0,1,1.39,0l4.45,2.57a.42.42,0,0,1,0,.8Z"/><path class="cls-102" d="M449.52,280.27a1.55,1.55,0,0,1-1.39,0l-4.46-2.57a.42.42,0,0,1,0-.8l5.52-3.18a1.55,1.55,0,0,1,1.39,0l4.45,2.57a.42.42,0,0,1,0,.8Z"/><path class="cls-102" d="M456.83,276.05a1.55,1.55,0,0,1-1.39,0L451,273.48a.42.42,0,0,1,0-.8l5.51-3.18a1.57,1.57,0,0,1,1.4,0l4.45,2.57a.42.42,0,0,1,0,.8Z"/><path class="cls-102" d="M464.14,271.83a1.51,1.51,0,0,1-1.4,0l-4.45-2.57a.42.42,0,0,1,0-.8l5.51-3.18a1.55,1.55,0,0,1,1.39,0l4.46,2.57a.42.42,0,0,1,0,.8Z"/><path class="cls-102" d="M471.44,267.62a1.55,1.55,0,0,1-1.39,0L465.6,265a.42.42,0,0,1,0-.8l5.51-3.18a1.55,1.55,0,0,1,1.39,0l4.46,2.57a.42.42,0,0,1,0,.8Z"/><path class="cls-102" d="M478.75,263.4a1.55,1.55,0,0,1-1.39,0l-4.45-2.58a.42.42,0,0,1,0-.8l5.51-3.18a1.55,1.55,0,0,1,1.39,0l4.45,2.57a.42.42,0,0,1,0,.8Z"/><path class="cls-102" d="M486.06,259.18a1.55,1.55,0,0,1-1.39,0l-4.45-2.57c-.39-.23-.39-.59,0-.81l5.51-3.18a1.55,1.55,0,0,1,1.39,0l4.45,2.57a.42.42,0,0,1,0,.8Z"/><path class="cls-102" d="M493.37,255a1.55,1.55,0,0,1-1.39,0l-4.46-2.57a.43.43,0,0,1,0-.81L493,248.4a1.57,1.57,0,0,1,1.4,0l4.45,2.57a.43.43,0,0,1,0,.81Z"/><path class="cls-102" d="M500.68,250.74a1.55,1.55,0,0,1-1.39,0l-4.46-2.57a.43.43,0,0,1,0-.81l5.51-3.18a1.57,1.57,0,0,1,1.4,0l4.45,2.57a.43.43,0,0,1,0,.81Z"/><path class="cls-102" d="M508,246.52a1.57,1.57,0,0,1-1.4,0L502.14,244a.43.43,0,0,1,0-.81l5.51-3.18a1.55,1.55,0,0,1,1.39,0l4.46,2.57a.43.43,0,0,1,0,.81Z"/><path class="cls-102" d="M515.29,242.3a1.55,1.55,0,0,1-1.39,0l-4.45-2.57a.43.43,0,0,1,0-.81l5.51-3.18a1.55,1.55,0,0,1,1.39,0l4.46,2.57a.43.43,0,0,1,0,.81Z"/><path class="cls-102" d="M522.6,238.08a1.55,1.55,0,0,1-1.39,0l-4.45-2.57c-.39-.22-.39-.58,0-.81l5.51-3.18a1.55,1.55,0,0,1,1.39,0l4.45,2.57a.43.43,0,0,1,0,.81Z"/><path class="cls-102" d="M530.52,233.51a1.55,1.55,0,0,1-1.39,0l-4.46-2.57a.43.43,0,0,1,0-.81l5.52-3.18a1.55,1.55,0,0,1,1.39,0l4.45,2.57a.43.43,0,0,1,0,.81Z"/><path class="cls-102" d="M537.83,229.29a1.55,1.55,0,0,1-1.39,0L532,226.72a.43.43,0,0,1,0-.81l5.51-3.18a1.57,1.57,0,0,1,1.4,0l4.45,2.57a.43.43,0,0,1,0,.81Z"/><path class="cls-102" d="M545.14,225.07a1.57,1.57,0,0,1-1.4,0l-4.45-2.57a.43.43,0,0,1,0-.81l5.51-3.18a1.55,1.55,0,0,1,1.39,0l4.46,2.57a.43.43,0,0,1,0,.81Z"/><path class="cls-102" d="M552.44,220.85a1.55,1.55,0,0,1-1.39,0l-4.45-2.57a.42.42,0,0,1,0-.8l5.51-3.19a1.55,1.55,0,0,1,1.39,0l4.46,2.57a.43.43,0,0,1,0,.81Z"/><path class="cls-102" d="M452.11,288.13a1.49,1.49,0,0,1-1.39,0l-5.92-3.42a.42.42,0,0,1,0-.8l5.92-3.42a1.55,1.55,0,0,1,1.39,0l5.93,3.42a.42.42,0,0,1,0,.8Z"/><path class="cls-102" d="M468.56,278.64a1.55,1.55,0,0,1-1.39,0l-5.93-3.42a.42.42,0,0,1,0-.8l5.93-3.42a1.49,1.49,0,0,1,1.39,0l5.92,3.42a.42.42,0,0,1,0,.8Z"/><path class="cls-102" d="M460.34,283.39a1.57,1.57,0,0,1-1.4,0L453,280a.43.43,0,0,1,0-.81l5.92-3.42a1.57,1.57,0,0,1,1.4,0l5.92,3.42a.43.43,0,0,1,0,.81Z"/><path class="cls-102" d="M476.78,273.89a1.55,1.55,0,0,1-1.39,0l-5.93-3.42a.42.42,0,0,1,0-.8l5.93-3.42a1.55,1.55,0,0,1,1.39,0l5.93,3.42a.42.42,0,0,1,0,.8Z"/><path class="cls-102" d="M485,269.15a1.55,1.55,0,0,1-1.39,0l-5.93-3.42a.43.43,0,0,1,0-.81l5.93-3.42a1.55,1.55,0,0,1,1.39,0l5.93,3.42a.43.43,0,0,1,0,.81Z"/><path class="cls-102" d="M493.22,264.4a1.55,1.55,0,0,1-1.39,0L485.91,261a.42.42,0,0,1,0-.8l5.92-3.43a1.55,1.55,0,0,1,1.39,0l5.93,3.43a.42.42,0,0,1,0,.8Z"/><path class="cls-102" d="M501.45,259.65a1.57,1.57,0,0,1-1.4,0l-5.92-3.42a.42.42,0,0,1,0-.8l5.92-3.42a1.57,1.57,0,0,1,1.4,0l5.92,3.42a.42.42,0,0,1,0,.8Z"/><path class="cls-102" d="M509.67,254.91a1.55,1.55,0,0,1-1.39,0l-5.93-3.42a.43.43,0,0,1,0-.81l5.93-3.42a1.55,1.55,0,0,1,1.39,0l5.92,3.42c.39.22.39.58,0,.81Z"/><path class="cls-102" d="M517.89,250.16a1.55,1.55,0,0,1-1.39,0l-5.93-3.42a.42.42,0,0,1,0-.8l5.93-3.43a1.55,1.55,0,0,1,1.39,0l5.92,3.43a.42.42,0,0,1,0,.8Z"/><path class="cls-102" d="M526.11,245.41a1.55,1.55,0,0,1-1.39,0L518.79,242a.42.42,0,0,1,0-.8l5.93-3.42a1.55,1.55,0,0,1,1.39,0l5.93,3.42a.42.42,0,0,1,0,.8Z"/><path class="cls-102" d="M534.33,240.67a1.55,1.55,0,0,1-1.39,0L527,237.25c-.39-.23-.39-.59,0-.81l5.92-3.42a1.55,1.55,0,0,1,1.39,0l5.93,3.42a.43.43,0,0,1,0,.81Z"/><path class="cls-102" d="M542.55,235.92a1.55,1.55,0,0,1-1.39,0l-5.92-3.42a.43.43,0,0,1,0-.81l5.92-3.42a1.55,1.55,0,0,1,1.39,0l5.93,3.42a.43.43,0,0,1,0,.81Z"/><path class="cls-102" d="M464.28,290.47a1.55,1.55,0,0,1-1.39,0L457,287.05a.42.42,0,0,1,0-.8l5.93-3.43a1.55,1.55,0,0,1,1.39,0l5.93,3.43a.42.42,0,0,1,0,.8Z"/><path class="cls-102" d="M472.5,285.72a1.55,1.55,0,0,1-1.39,0l-5.92-3.42a.42.42,0,0,1,0-.8l5.92-3.42a1.55,1.55,0,0,1,1.39,0l5.93,3.42a.42.42,0,0,1,0,.8Z"/><path class="cls-102" d="M480.72,281a1.55,1.55,0,0,1-1.39,0l-5.92-3.42c-.39-.23-.39-.59,0-.81l5.92-3.42a1.55,1.55,0,0,1,1.39,0l5.93,3.42a.43.43,0,0,1,0,.81Z"/><path class="cls-102" d="M489,276.23a1.57,1.57,0,0,1-1.4,0l-5.92-3.42a.42.42,0,0,1,0-.8l5.92-3.43a1.57,1.57,0,0,1,1.4,0l5.92,3.43a.42.42,0,0,1,0,.8Z"/><path class="cls-102" d="M497.17,271.48a1.55,1.55,0,0,1-1.39,0l-5.93-3.42a.42.42,0,0,1,0-.8l5.93-3.42a1.55,1.55,0,0,1,1.39,0l5.92,3.42a.42.42,0,0,1,0,.8Z"/><path class="cls-102" d="M505.39,266.74a1.55,1.55,0,0,1-1.39,0l-5.93-3.42a.43.43,0,0,1,0-.81l5.93-3.42a1.55,1.55,0,0,1,1.39,0l5.93,3.42a.43.43,0,0,1,0,.81Z"/><path class="cls-102" d="M513.61,262a1.55,1.55,0,0,1-1.39,0l-5.93-3.42a.43.43,0,0,1,0-.81l5.93-3.42a1.55,1.55,0,0,1,1.39,0l5.93,3.42a.43.43,0,0,1,0,.81Z"/><path class="cls-102" d="M521.83,257.24a1.55,1.55,0,0,1-1.39,0l-5.92-3.42a.42.42,0,0,1,0-.8l5.92-3.42a1.55,1.55,0,0,1,1.39,0l5.93,3.42a.42.42,0,0,1,0,.8Z"/><path class="cls-102" d="M530.06,252.5a1.57,1.57,0,0,1-1.4,0l-5.92-3.43a.42.42,0,0,1,0-.8l5.92-3.42a1.57,1.57,0,0,1,1.4,0l5.92,3.42a.42.42,0,0,1,0,.8Z"/><path class="cls-102" d="M538.28,247.75a1.55,1.55,0,0,1-1.39,0L531,244.33a.43.43,0,0,1,0-.81l5.93-3.42a1.55,1.55,0,0,1,1.39,0l5.92,3.42c.39.23.39.59,0,.81Z"/><path class="cls-102" d="M546.5,243a1.55,1.55,0,0,1-1.39,0l-5.93-3.42a.42.42,0,0,1,0-.8l5.93-3.42a1.55,1.55,0,0,1,1.39,0l5.92,3.42a.42.42,0,0,1,0,.8Z"/><path class="cls-102" d="M554.72,238.25a1.49,1.49,0,0,1-1.39,0l-5.93-3.42a.42.42,0,0,1,0-.8l5.93-3.42a1.55,1.55,0,0,1,1.39,0l5.93,3.42a.42.42,0,0,1,0,.8Z"/><path class="cls-102" d="M474.42,294.31a1.55,1.55,0,0,1-1.39,0l-5.93-3.42a.42.42,0,0,1,0-.8l5.93-3.42a1.55,1.55,0,0,1,1.39,0l5.92,3.42a.42.42,0,0,1,0,.8Z"/><path class="cls-102" d="M482.64,289.57a1.55,1.55,0,0,1-1.39,0l-5.93-3.42a.43.43,0,0,1,0-.81l5.93-3.42a1.55,1.55,0,0,1,1.39,0l5.92,3.42c.39.22.39.58,0,.81Z"/><path class="cls-102" d="M490.86,284.82a1.55,1.55,0,0,1-1.39,0l-5.93-3.42a.43.43,0,0,1,0-.81l5.93-3.42a1.55,1.55,0,0,1,1.39,0l5.93,3.42a.43.43,0,0,1,0,.81Z"/><path class="cls-102" d="M499.08,280.07a1.55,1.55,0,0,1-1.39,0l-5.92-3.42a.42.42,0,0,1,0-.8l5.92-3.42a1.55,1.55,0,0,1,1.39,0l5.93,3.42a.42.42,0,0,1,0,.8Z"/><path class="cls-102" d="M507.3,275.33a1.55,1.55,0,0,1-1.39,0L500,271.9a.42.42,0,0,1,0-.8l5.92-3.42a1.55,1.55,0,0,1,1.39,0l5.93,3.42a.42.42,0,0,1,0,.8Z"/><path class="cls-102" d="M515.53,270.58a1.57,1.57,0,0,1-1.4,0l-5.92-3.42a.43.43,0,0,1,0-.81l5.92-3.42a1.57,1.57,0,0,1,1.4,0l5.92,3.42a.43.43,0,0,1,0,.81Z"/><path class="cls-102" d="M523.75,265.83a1.55,1.55,0,0,1-1.39,0l-5.93-3.42a.42.42,0,0,1,0-.8l5.93-3.42a1.55,1.55,0,0,1,1.39,0l5.92,3.42a.42.42,0,0,1,0,.8Z"/><path class="cls-102" d="M532,261.09a1.55,1.55,0,0,1-1.39,0l-5.93-3.43a.42.42,0,0,1,0-.8l5.93-3.42a1.55,1.55,0,0,1,1.39,0l5.92,3.42a.42.42,0,0,1,0,.8Z"/><path class="cls-102" d="M540.19,256.34a1.55,1.55,0,0,1-1.39,0l-5.93-3.42a.43.43,0,0,1,0-.81l5.93-3.42a1.55,1.55,0,0,1,1.39,0l5.93,3.42a.43.43,0,0,1,0,.81Z"/><path class="cls-102" d="M548.41,251.59a1.55,1.55,0,0,1-1.39,0l-5.92-3.42a.42.42,0,0,1,0-.8L547,244a1.55,1.55,0,0,1,1.39,0l5.93,3.42a.42.42,0,0,1,0,.8Z"/><path class="cls-102" d="M556.64,246.84a1.51,1.51,0,0,1-1.4,0l-5.92-3.42a.42.42,0,0,1,0-.8l5.92-3.42a1.57,1.57,0,0,1,1.4,0l5.92,3.42a.42.42,0,0,1,0,.8Z"/><path class="cls-102" d="M494.92,291.5a1.55,1.55,0,0,1-1.39,0l-5.93-3.42a.42.42,0,0,1,0-.8l5.93-3.43a1.55,1.55,0,0,1,1.39,0l5.93,3.43a.42.42,0,0,1,0,.8Z"/><path class="cls-102" d="M503.14,286.75a1.55,1.55,0,0,1-1.39,0l-5.92-3.42a.42.42,0,0,1,0-.8l5.92-3.42a1.55,1.55,0,0,1,1.39,0l5.93,3.42a.42.42,0,0,1,0,.8Z"/><path class="cls-102" d="M486.28,305.85a1.55,1.55,0,0,1-1.39,0L479,302.43a.43.43,0,0,1,0-.81l5.93-3.42a1.55,1.55,0,0,1,1.39,0l5.92,3.42c.39.23.39.59,0,.81Z"/><path class="cls-102" d="M494.5,301.1a1.55,1.55,0,0,1-1.39,0l-5.93-3.42a.42.42,0,0,1,0-.8l5.93-3.42a1.55,1.55,0,0,1,1.39,0l5.93,3.42a.42.42,0,0,1,0,.8Z"/><path class="cls-102" d="M502.72,296.36a1.55,1.55,0,0,1-1.39,0l-5.93-3.43a.42.42,0,0,1,0-.8l5.93-3.42a1.55,1.55,0,0,1,1.39,0l5.93,3.42a.42.42,0,0,1,0,.8Z"/><path class="cls-102" d="M552.36,267.7a1.55,1.55,0,0,1-1.39,0L545,264.28a.43.43,0,0,1,0-.81l5.93-3.42a1.55,1.55,0,0,1,1.39,0l5.92,3.42c.39.23.39.59,0,.81Z"/><path class="cls-102" d="M560.58,263a1.55,1.55,0,0,1-1.39,0l-5.93-3.42a.42.42,0,0,1,0-.8l5.93-3.42a1.55,1.55,0,0,1,1.39,0l5.92,3.42a.42.42,0,0,1,0,.8Z"/><path class="cls-102" d="M568.8,258.21a1.55,1.55,0,0,1-1.39,0l-5.93-3.43a.42.42,0,0,1,0-.8l5.93-3.42a1.55,1.55,0,0,1,1.39,0l5.93,3.42a.42.42,0,0,1,0,.8Z"/><path class="cls-102" d="M583.23,248.24a1.55,1.55,0,0,1-1.39,0l-4.51-2.6a.43.43,0,0,1,0-.81l5.93-3.42a1.55,1.55,0,0,1,1.39,0l4.5,2.6a.42.42,0,0,1,0,.8Z"/><path class="cls-102" d="M588.64,251.36a1.57,1.57,0,0,1-1.4,0l-4.5-2.6a.43.43,0,0,1,0-.81l5.93-3.42a1.55,1.55,0,0,1,1.39,0l4.5,2.6a.43.43,0,0,1,0,.81Z"/><path class="cls-102" d="M580.71,255.93a1.55,1.55,0,0,1-1.39,0l-4.5-2.6a.42.42,0,0,1,0-.8l5.92-3.42a1.55,1.55,0,0,1,1.39,0l4.51,2.6a.42.42,0,0,1,0,.8Z"/><path class="cls-102" d="M596.55,246.79a1.55,1.55,0,0,1-1.39,0l-4.51-2.6a.42.42,0,0,1,0-.8l5.93-3.42a1.55,1.55,0,0,1,1.39,0l4.5,2.6a.42.42,0,0,1,0,.8Z"/><path class="cls-102" d="M511.36,282a1.55,1.55,0,0,1-1.39,0l-5.92-3.42c-.39-.23-.39-.59,0-.81l5.92-3.42a1.55,1.55,0,0,1,1.39,0l5.93,3.42a.43.43,0,0,1,0,.81Z"/><path class="cls-102" d="M519.59,277.26a1.57,1.57,0,0,1-1.4,0l-5.92-3.42a.43.43,0,0,1,0-.81l5.92-3.42a1.57,1.57,0,0,1,1.4,0l5.92,3.42a.43.43,0,0,1,0,.81Z"/><path class="cls-102" d="M527.81,272.51a1.55,1.55,0,0,1-1.39,0l-5.93-3.42a.42.42,0,0,1,0-.8l5.93-3.42a1.55,1.55,0,0,1,1.39,0l5.92,3.42a.42.42,0,0,1,0,.8Z"/><path class="cls-102" d="M536,267.77a1.55,1.55,0,0,1-1.39,0l-5.93-3.43a.42.42,0,0,1,0-.8l5.93-3.42a1.55,1.55,0,0,1,1.39,0l5.92,3.42a.42.42,0,0,1,0,.8Z"/><path class="cls-102" d="M544.25,263a1.55,1.55,0,0,1-1.39,0l-5.93-3.42a.43.43,0,0,1,0-.81l5.93-3.42a1.55,1.55,0,0,1,1.39,0l5.93,3.42a.43.43,0,0,1,0,.81Z"/><path class="cls-102" d="M552.47,258.27a1.55,1.55,0,0,1-1.39,0l-5.92-3.42a.42.42,0,0,1,0-.8l5.92-3.42a1.55,1.55,0,0,1,1.39,0l5.93,3.42a.42.42,0,0,1,0,.8Z"/><path class="cls-102" d="M560.7,253.53a1.57,1.57,0,0,1-1.4,0l-5.92-3.43a.42.42,0,0,1,0-.8l5.92-3.42a1.57,1.57,0,0,1,1.4,0l5.92,3.42a.42.42,0,0,1,0,.8Z"/><path class="cls-102" d="M486.7,296.25a1.55,1.55,0,0,1-1.39,0l-5.93-3.42a.43.43,0,0,1,0-.81l5.93-3.42a1.55,1.55,0,0,1,1.39,0l5.92,3.42c.39.22.39.58,0,.81Z"/></g><path class="cls-19" d="M449.42,288.34a.43.43,0,0,1,0,.81l-6.79,3.91a1.49,1.49,0,0,1-1.39,0l-5.44-3.13a.43.43,0,0,1,0-.81l6.79-3.92a1.55,1.55,0,0,1,1.39,0Z"/><path class="cls-19" d="M565.57,221.28a.42.42,0,0,1,0,.8l-15,8.68a1.55,1.55,0,0,1-1.39,0l-5.44-3.14a.42.42,0,0,1,0-.8l15-8.68a1.57,1.57,0,0,1,1.4,0Z"/><path class="cls-19" d="M573.68,226a.42.42,0,0,1,0,.8l-10.95,6.33a1.57,1.57,0,0,1-1.4,0L555.9,230a.42.42,0,0,1,0-.8l11-6.33a1.55,1.55,0,0,1,1.39,0Z"/><path class="cls-19" d="M582.08,230.81a.42.42,0,0,1,0,.8l-17.14,9.89a1.55,1.55,0,0,1-1.39,0l-5.44-3.14a.42.42,0,0,1,0-.8l17.14-9.89a1.55,1.55,0,0,1,1.39,0Z"/><path class="cls-19" d="M590.47,235.66a.42.42,0,0,1,0,.8l-21.26,12.27a1.55,1.55,0,0,1-1.39,0l-5.44-3.14a.42.42,0,0,1,0-.8l21.26-12.27a1.49,1.49,0,0,1,1.39,0Z"/><path class="cls-19" d="M461.67,290.63a.42.42,0,0,1,0,.8l-10.93,6.31a1.49,1.49,0,0,1-1.39,0l-5.44-3.14a.42.42,0,0,1,0-.8l10.93-6.31a1.55,1.55,0,0,1,1.39,0Z"/><path class="cls-19" d="M471.85,294.11a.43.43,0,0,1,0,.81l-13,7.5a1.49,1.49,0,0,1-1.39,0L452,299.28a.42.42,0,0,1,0-.8L465,291a1.55,1.55,0,0,1,1.39,0Z"/><path class="cls-19" d="M484,296.46a.42.42,0,0,1,0,.8L467,307.1a1.49,1.49,0,0,1-1.39,0L460.12,304a.42.42,0,0,1,0-.8l17.05-9.84a1.55,1.55,0,0,1,1.39,0Z"/><path class="cls-19" d="M483.85,305.9a.43.43,0,0,1,0,.81l-8.8,5.07a1.55,1.55,0,0,1-1.39,0l-5.44-3.14a.42.42,0,0,1,0-.8l8.8-5.07a1.49,1.49,0,0,1,1.39,0Z"/><path class="cls-19" d="M549.21,268.17a.42.42,0,0,1,0,.8l-38.27,22.09a1.49,1.49,0,0,1-1.39,0l-5.44-3.13a.43.43,0,0,1,0-.81L542.38,265a1.55,1.55,0,0,1,1.39,0Z"/><path class="cls-19" d="M439.55,284.68a.42.42,0,0,1,0,.8l-5,2.9a1.51,1.51,0,0,1-1.4,0l-4-2.28a.43.43,0,0,1,0-.81l5-2.9a1.55,1.55,0,0,1,1.39,0Z"/><path class="cls-19" d="M447.23,280.24a.43.43,0,0,1,0,.81l-5,2.9a1.55,1.55,0,0,1-1.39,0l-4-2.29a.43.43,0,0,1,0-.81l5-2.9a1.55,1.55,0,0,1,1.39,0Z"/><path class="cls-19" d="M454.54,276a.43.43,0,0,1,0,.81l-5,2.9a1.55,1.55,0,0,1-1.39,0l-4-2.29a.43.43,0,0,1,0-.81l5-2.9a1.55,1.55,0,0,1,1.39,0Z"/><path class="cls-19" d="M461.85,271.8a.43.43,0,0,1,0,.81l-5,2.9a1.55,1.55,0,0,1-1.39,0l-4-2.29a.42.42,0,0,1,0-.8l5-2.91a1.57,1.57,0,0,1,1.4,0Z"/><path class="cls-19" d="M469.16,267.59a.42.42,0,0,1,0,.8l-5,2.9a1.57,1.57,0,0,1-1.4,0l-4-2.29a.42.42,0,0,1,0-.8l5-2.9a1.49,1.49,0,0,1,1.39,0Z"/><path class="cls-19" d="M476.47,263.37a.42.42,0,0,1,0,.8l-5,2.9a1.55,1.55,0,0,1-1.39,0l-4-2.29a.42.42,0,0,1,0-.8l5-2.9a1.55,1.55,0,0,1,1.39,0Z"/><path class="cls-19" d="M483.78,259.15a.42.42,0,0,1,0,.8l-5,2.9a1.55,1.55,0,0,1-1.39,0l-4-2.29a.42.42,0,0,1,0-.8l5-2.9a1.55,1.55,0,0,1,1.39,0Z"/><path class="cls-19" d="M491.08,254.93a.42.42,0,0,1,0,.8l-5,2.9a1.55,1.55,0,0,1-1.39,0l-4-2.29a.42.42,0,0,1,0-.8l5-2.9a1.55,1.55,0,0,1,1.39,0Z"/><path class="cls-19" d="M498.39,250.71a.42.42,0,0,1,0,.8l-5,2.9a1.55,1.55,0,0,1-1.39,0l-4-2.29a.42.42,0,0,1,0-.8l5-2.9a1.57,1.57,0,0,1,1.4,0Z"/><path class="cls-19" d="M505.7,246.49a.42.42,0,0,1,0,.8l-5,2.9a1.55,1.55,0,0,1-1.39,0l-4-2.29a.42.42,0,0,1,0-.8l5-2.9a1.57,1.57,0,0,1,1.4,0Z"/><path class="cls-19" d="M513,242.27a.42.42,0,0,1,0,.8l-5,2.9a1.57,1.57,0,0,1-1.4,0l-4-2.29a.42.42,0,0,1,0-.8l5-2.9a1.55,1.55,0,0,1,1.39,0Z"/><path class="cls-19" d="M520.32,238.05a.42.42,0,0,1,0,.8l-5,2.9a1.55,1.55,0,0,1-1.39,0l-4-2.29a.42.42,0,0,1,0-.8l5-2.9a1.55,1.55,0,0,1,1.39,0Z"/><path class="cls-19" d="M527.63,233.83a.42.42,0,0,1,0,.8l-5,2.9a1.49,1.49,0,0,1-1.39,0l-4-2.29a.42.42,0,0,1,0-.8l5-2.9a1.55,1.55,0,0,1,1.39,0Z"/><path class="cls-19" d="M535.54,229.26a.42.42,0,0,1,0,.8l-5,2.9a1.55,1.55,0,0,1-1.39,0l-4-2.29a.42.42,0,0,1,0-.8l5-2.9a1.55,1.55,0,0,1,1.39,0Z"/><path class="cls-19" d="M542.85,225a.42.42,0,0,1,0,.8l-5,2.9a1.55,1.55,0,0,1-1.39,0l-4-2.29a.42.42,0,0,1,0-.8l5-2.9a1.57,1.57,0,0,1,1.4,0Z"/><path class="cls-19" d="M550.16,220.82a.42.42,0,0,1,0,.8l-5,2.9a1.51,1.51,0,0,1-1.4,0l-4-2.29a.42.42,0,0,1,0-.8l5-2.9a1.55,1.55,0,0,1,1.39,0Z"/><path class="cls-19" d="M557.47,216.6a.42.42,0,0,1,0,.8l-5,2.9a1.49,1.49,0,0,1-1.39,0l-4-2.28c-.39-.23-.39-.59,0-.81l5-2.9a1.55,1.55,0,0,1,1.39,0Z"/><path class="cls-19" d="M457.55,283.65a.42.42,0,0,1,0,.8l-5.44,3.14a1.55,1.55,0,0,1-1.39,0l-5.43-3.14a.42.42,0,0,1,0-.8l5.43-3.14a1.55,1.55,0,0,1,1.39,0Z"/><path id="_Bana_" data-name="&lt;Bana&gt;" class="cls-19" d="M474,274.15a.43.43,0,0,1,0,.81l-5.44,3.14a1.55,1.55,0,0,1-1.39,0L461.73,275a.43.43,0,0,1,0-.81l5.44-3.14a1.55,1.55,0,0,1,1.39,0Z"/><path id="_Bana_2" data-name="&lt;Bana&gt;" class="cls-19" d="M465.77,278.9a.42.42,0,0,1,0,.8l-5.43,3.14a1.57,1.57,0,0,1-1.4,0l-5.43-3.14a.42.42,0,0,1,0-.8l5.43-3.14a1.57,1.57,0,0,1,1.4,0Z"/><path id="_Bana_3" data-name="&lt;Bana&gt;" class="cls-19" d="M482.22,269.41a.42.42,0,0,1,0,.8l-5.44,3.14a1.55,1.55,0,0,1-1.39,0L470,270.21a.42.42,0,0,1,0-.8l5.44-3.14a1.55,1.55,0,0,1,1.39,0Z"/><path id="_Bana_4" data-name="&lt;Bana&gt;" class="cls-19" d="M490.44,264.66a.42.42,0,0,1,0,.8L485,268.6a1.55,1.55,0,0,1-1.39,0l-5.44-3.14a.42.42,0,0,1,0-.8l5.44-3.14a1.55,1.55,0,0,1,1.39,0Z"/><path id="_Bana_5" data-name="&lt;Bana&gt;" class="cls-19" d="M498.66,259.91a.43.43,0,0,1,0,.81l-5.44,3.14a1.55,1.55,0,0,1-1.39,0l-5.44-3.14a.43.43,0,0,1,0-.81l5.44-3.14a1.55,1.55,0,0,1,1.39,0Z"/><path id="_Bana_6" data-name="&lt;Bana&gt;" class="cls-19" d="M506.88,255.17a.42.42,0,0,1,0,.8l-5.43,3.14a1.57,1.57,0,0,1-1.4,0L494.62,256a.42.42,0,0,1,0-.8l5.43-3.14a1.51,1.51,0,0,1,1.4,0Z"/><path id="_Bana_7" data-name="&lt;Bana&gt;" class="cls-19" d="M515.11,250.42a.42.42,0,0,1,0,.8l-5.44,3.14a1.55,1.55,0,0,1-1.39,0l-5.44-3.14a.42.42,0,0,1,0-.8l5.44-3.14a1.55,1.55,0,0,1,1.39,0Z"/><path id="_Bana_8" data-name="&lt;Bana&gt;" class="cls-19" d="M523.33,245.67a.43.43,0,0,1,0,.81l-5.44,3.13a1.49,1.49,0,0,1-1.39,0l-5.44-3.13a.43.43,0,0,1,0-.81l5.44-3.14a1.55,1.55,0,0,1,1.39,0Z"/><path id="_Bana_9" data-name="&lt;Bana&gt;" class="cls-19" d="M531.55,240.92a.43.43,0,0,1,0,.81l-5.44,3.14a1.55,1.55,0,0,1-1.39,0l-5.44-3.14a.43.43,0,0,1,0-.81l5.44-3.13a1.49,1.49,0,0,1,1.39,0Z"/><path id="_Bana_10" data-name="&lt;Bana&gt;" class="cls-19" d="M539.77,236.18a.42.42,0,0,1,0,.8l-5.44,3.14a1.55,1.55,0,0,1-1.39,0L527.5,237a.42.42,0,0,1,0-.8l5.44-3.14a1.55,1.55,0,0,1,1.39,0Z"/><path id="_Bana_11" data-name="&lt;Bana&gt;" class="cls-19" d="M548,231.43a.42.42,0,0,1,0,.8l-5.44,3.14a1.49,1.49,0,0,1-1.39,0l-5.43-3.14a.42.42,0,0,1,0-.8l5.43-3.14a1.55,1.55,0,0,1,1.39,0Z"/><path class="cls-19" d="M469.72,286a.43.43,0,0,1,0,.81l-5.44,3.14a1.55,1.55,0,0,1-1.39,0l-5.44-3.14a.43.43,0,0,1,0-.81l5.44-3.14a1.55,1.55,0,0,1,1.39,0Z"/><path id="_Bana_12" data-name="&lt;Bana&gt;" class="cls-19" d="M477.94,281.23a.43.43,0,0,1,0,.81l-5.44,3.14a1.55,1.55,0,0,1-1.39,0L465.67,282a.43.43,0,0,1,0-.81l5.44-3.13a1.49,1.49,0,0,1,1.39,0Z"/><path id="_Bana_13" data-name="&lt;Bana&gt;" class="cls-19" d="M486.16,276.49a.42.42,0,0,1,0,.8l-5.44,3.14a1.55,1.55,0,0,1-1.39,0l-5.44-3.14a.42.42,0,0,1,0-.8l5.44-3.14a1.55,1.55,0,0,1,1.39,0Z"/><path id="_Bana_14" data-name="&lt;Bana&gt;" class="cls-19" d="M494.38,271.74c.39.22.39.58,0,.81L489,275.68a1.51,1.51,0,0,1-1.4,0l-5.43-3.13c-.39-.23-.39-.59,0-.81l5.43-3.14a1.57,1.57,0,0,1,1.4,0Z"/><path id="_Bana_15" data-name="&lt;Bana&gt;" class="cls-19" d="M502.61,267a.43.43,0,0,1,0,.81l-5.44,3.14a1.55,1.55,0,0,1-1.39,0l-5.44-3.14a.43.43,0,0,1,0-.81l5.44-3.13a1.49,1.49,0,0,1,1.39,0Z"/><path id="_Bana_16" data-name="&lt;Bana&gt;" class="cls-19" d="M510.83,262.25a.42.42,0,0,1,0,.8l-5.44,3.14a1.55,1.55,0,0,1-1.39,0l-5.44-3.14a.42.42,0,0,1,0-.8l5.44-3.14a1.55,1.55,0,0,1,1.39,0Z"/><path id="_Bana_17" data-name="&lt;Bana&gt;" class="cls-19" d="M519.05,257.5a.42.42,0,0,1,0,.8l-5.44,3.14a1.49,1.49,0,0,1-1.39,0l-5.44-3.14a.42.42,0,0,1,0-.8l5.44-3.14a1.55,1.55,0,0,1,1.39,0Z"/><path id="_Bana_18" data-name="&lt;Bana&gt;" class="cls-19" d="M527.27,252.75a.43.43,0,0,1,0,.81l-5.44,3.14a1.55,1.55,0,0,1-1.39,0L515,253.56a.43.43,0,0,1,0-.81l5.44-3.14a1.55,1.55,0,0,1,1.39,0Z"/><path id="_Bana_19" data-name="&lt;Bana&gt;" class="cls-19" d="M535.49,248a.42.42,0,0,1,0,.8L530.06,252a1.57,1.57,0,0,1-1.4,0l-5.43-3.14a.42.42,0,0,1,0-.8l5.43-3.14a1.57,1.57,0,0,1,1.4,0Z"/><path id="_Bana_20" data-name="&lt;Bana&gt;" class="cls-19" d="M543.71,243.26a.42.42,0,0,1,0,.8l-5.43,3.14a1.55,1.55,0,0,1-1.39,0l-5.44-3.14a.42.42,0,0,1,0-.8l5.44-3.14a1.55,1.55,0,0,1,1.39,0Z"/><path id="_Bana_21" data-name="&lt;Bana&gt;" class="cls-19" d="M551.94,238.51a.43.43,0,0,1,0,.81l-5.44,3.14a1.55,1.55,0,0,1-1.39,0l-5.44-3.14a.43.43,0,0,1,0-.81l5.44-3.14a1.55,1.55,0,0,1,1.39,0Z"/><path id="_Bana_22" data-name="&lt;Bana&gt;" class="cls-19" d="M560.16,233.77a.42.42,0,0,1,0,.8l-5.44,3.14a1.55,1.55,0,0,1-1.39,0l-5.44-3.14a.42.42,0,0,1,0-.8l5.44-3.14a1.55,1.55,0,0,1,1.39,0Z"/><path class="cls-19" d="M479.85,289.82c.39.23.39.59,0,.81l-5.43,3.14a1.57,1.57,0,0,1-1.4,0l-5.43-3.14c-.39-.22-.39-.58,0-.81l5.43-3.13a1.51,1.51,0,0,1,1.4,0Z"/><path id="_Bana_23" data-name="&lt;Bana&gt;" class="cls-19" d="M488.08,285.08a.42.42,0,0,1,0,.8L482.64,289a1.55,1.55,0,0,1-1.39,0l-5.44-3.14a.42.42,0,0,1,0-.8l5.44-3.14a1.55,1.55,0,0,1,1.39,0Z"/><path id="_Bana_24" data-name="&lt;Bana&gt;" class="cls-19" d="M496.3,280.33a.42.42,0,0,1,0,.8l-5.44,3.14a1.49,1.49,0,0,1-1.39,0L484,281.13a.42.42,0,0,1,0-.8l5.44-3.14a1.55,1.55,0,0,1,1.39,0Z"/><path id="_Bana_25" data-name="&lt;Bana&gt;" class="cls-19" d="M504.52,275.58a.43.43,0,0,1,0,.81l-5.44,3.14a1.55,1.55,0,0,1-1.39,0l-5.44-3.14a.43.43,0,0,1,0-.81l5.44-3.14a1.55,1.55,0,0,1,1.39,0Z"/><path id="_Bana_26" data-name="&lt;Bana&gt;" class="cls-19" d="M512.74,270.84a.42.42,0,0,1,0,.8l-5.44,3.14a1.55,1.55,0,0,1-1.39,0l-5.44-3.14a.42.42,0,0,1,0-.8l5.44-3.14a1.55,1.55,0,0,1,1.39,0Z"/><path id="_Bana_27" data-name="&lt;Bana&gt;" class="cls-19" d="M521,266.09a.42.42,0,0,1,0,.8L515.53,270a1.57,1.57,0,0,1-1.4,0l-5.43-3.14a.42.42,0,0,1,0-.8l5.43-3.14a1.57,1.57,0,0,1,1.4,0Z"/><path id="_Bana_28" data-name="&lt;Bana&gt;" class="cls-19" d="M529.19,261.34a.43.43,0,0,1,0,.81l-5.44,3.14a1.55,1.55,0,0,1-1.39,0l-5.44-3.14a.43.43,0,0,1,0-.81l5.44-3.14a1.55,1.55,0,0,1,1.39,0Z"/><path id="_Bana_29" data-name="&lt;Bana&gt;" class="cls-19" d="M537.41,256.6a.42.42,0,0,1,0,.8L532,260.54a1.55,1.55,0,0,1-1.39,0l-5.44-3.14a.42.42,0,0,1,0-.8l5.44-3.14a1.55,1.55,0,0,1,1.39,0Z"/><path id="_Bana_30" data-name="&lt;Bana&gt;" class="cls-19" d="M545.63,251.85a.42.42,0,0,1,0,.8l-5.44,3.14a1.55,1.55,0,0,1-1.39,0l-5.44-3.14a.42.42,0,0,1,0-.8l5.44-3.14a1.55,1.55,0,0,1,1.39,0Z"/><path id="_Bana_31" data-name="&lt;Bana&gt;" class="cls-19" d="M553.85,247.1a.43.43,0,0,1,0,.81l-5.44,3.14a1.55,1.55,0,0,1-1.39,0l-5.44-3.14a.43.43,0,0,1,0-.81L547,244a1.55,1.55,0,0,1,1.39,0Z"/><path id="_Bana_32" data-name="&lt;Bana&gt;" class="cls-19" d="M562.07,242.36a.42.42,0,0,1,0,.8l-5.43,3.14a1.57,1.57,0,0,1-1.4,0l-5.43-3.14a.42.42,0,0,1,0-.8l5.43-3.14a1.57,1.57,0,0,1,1.4,0Z"/><path id="_Bana_33" data-name="&lt;Bana&gt;" class="cls-19" d="M500.36,287a.43.43,0,0,1,0,.81L494.92,291a1.49,1.49,0,0,1-1.39,0l-5.44-3.13a.43.43,0,0,1,0-.81l5.44-3.14a1.55,1.55,0,0,1,1.39,0Z"/><path id="_Bana_34" data-name="&lt;Bana&gt;" class="cls-19" d="M508.58,282.26a.43.43,0,0,1,0,.81l-5.44,3.14a1.55,1.55,0,0,1-1.39,0l-5.44-3.14a.43.43,0,0,1,0-.81l5.44-3.13a1.49,1.49,0,0,1,1.39,0Z"/><path class="cls-19" d="M491.72,301.36a.42.42,0,0,1,0,.8l-5.44,3.14a1.49,1.49,0,0,1-1.39,0l-5.44-3.14a.42.42,0,0,1,0-.8l5.44-3.14a1.55,1.55,0,0,1,1.39,0Z"/><path id="_Bana_35" data-name="&lt;Bana&gt;" class="cls-19" d="M499.94,296.61a.43.43,0,0,1,0,.81l-5.44,3.14a1.55,1.55,0,0,1-1.39,0l-5.44-3.14a.43.43,0,0,1,0-.81l5.44-3.14a1.55,1.55,0,0,1,1.39,0Z"/><path id="_Bana_36" data-name="&lt;Bana&gt;" class="cls-19" d="M508.16,291.87a.42.42,0,0,1,0,.8l-5.44,3.14a1.55,1.55,0,0,1-1.39,0l-5.44-3.14a.42.42,0,0,1,0-.8l5.44-3.14a1.55,1.55,0,0,1,1.39,0Z"/><path class="cls-19" d="M557.8,263.21a.42.42,0,0,1,0,.8l-5.44,3.14a1.55,1.55,0,0,1-1.39,0L545.53,264a.42.42,0,0,1,0-.8l5.44-3.14a1.55,1.55,0,0,1,1.39,0Z"/><path id="_Bana_37" data-name="&lt;Bana&gt;" class="cls-19" d="M566,258.46a.43.43,0,0,1,0,.81l-5.44,3.14a1.55,1.55,0,0,1-1.39,0l-5.44-3.14a.43.43,0,0,1,0-.81l5.44-3.14a1.55,1.55,0,0,1,1.39,0Z"/><path id="_Bana_38" data-name="&lt;Bana&gt;" class="cls-19" d="M574.24,253.72a.42.42,0,0,1,0,.8l-5.44,3.14a1.55,1.55,0,0,1-1.39,0L562,254.52a.42.42,0,0,1,0-.8l5.44-3.14a1.55,1.55,0,0,1,1.39,0Z"/><path class="cls-19" d="M583.26,241.43a1.55,1.55,0,0,1,1.39,0l4,2.32a.42.42,0,0,1,0,.8l-5.44,3.14a1.55,1.55,0,0,1-1.39,0l-4-2.32a.42.42,0,0,1,0-.8Z"/><path class="cls-19" d="M588.67,244.55a1.55,1.55,0,0,1,1.39,0l4,2.32a.42.42,0,0,1,0,.8l-5.44,3.14a1.57,1.57,0,0,1-1.4,0l-4-2.32a.42.42,0,0,1,0-.8Z"/><path id="_Bana_39" data-name="&lt;Bana&gt;" class="cls-19" d="M586.15,251.45a.42.42,0,0,1,0,.8l-5.44,3.14a1.55,1.55,0,0,1-1.39,0l-4-2.32a.42.42,0,0,1,0-.8l5.44-3.14a1.49,1.49,0,0,1,1.39,0Z"/><path id="_Bana_40" data-name="&lt;Bana&gt;" class="cls-19" d="M602,242.3a.43.43,0,0,1,0,.81l-5.44,3.14a1.55,1.55,0,0,1-1.39,0l-4-2.32a.43.43,0,0,1,0-.81l5.44-3.14a1.55,1.55,0,0,1,1.39,0Z"/><path id="_Bana_41" data-name="&lt;Bana&gt;" class="cls-19" d="M516.8,277.52a.42.42,0,0,1,0,.8l-5.44,3.14a1.55,1.55,0,0,1-1.39,0l-5.44-3.14a.42.42,0,0,1,0-.8l5.44-3.14a1.55,1.55,0,0,1,1.39,0Z"/><path id="_Bana_42" data-name="&lt;Bana&gt;" class="cls-19" d="M525,272.77a.42.42,0,0,1,0,.8l-5.43,3.14a1.51,1.51,0,0,1-1.4,0l-5.43-3.14a.42.42,0,0,1,0-.8l5.43-3.14a1.57,1.57,0,0,1,1.4,0Z"/><path id="_Bana_43" data-name="&lt;Bana&gt;" class="cls-19" d="M533.25,268a.43.43,0,0,1,0,.81L527.81,272a1.55,1.55,0,0,1-1.39,0L521,268.83a.43.43,0,0,1,0-.81l5.44-3.14a1.55,1.55,0,0,1,1.39,0Z"/><path id="_Bana_44" data-name="&lt;Bana&gt;" class="cls-19" d="M541.47,263.28a.42.42,0,0,1,0,.8L536,267.22a1.55,1.55,0,0,1-1.39,0l-5.44-3.14a.42.42,0,0,1,0-.8l5.44-3.14a1.55,1.55,0,0,1,1.39,0Z"/><path id="_Bana_45" data-name="&lt;Bana&gt;" class="cls-19" d="M549.69,258.53a.42.42,0,0,1,0,.8l-5.44,3.14a1.55,1.55,0,0,1-1.39,0l-5.44-3.14a.42.42,0,0,1,0-.8l5.44-3.14a1.55,1.55,0,0,1,1.39,0Z"/><path id="_Bana_46" data-name="&lt;Bana&gt;" class="cls-19" d="M557.91,253.78a.43.43,0,0,1,0,.81l-5.44,3.14a1.55,1.55,0,0,1-1.39,0l-5.44-3.14a.43.43,0,0,1,0-.81l5.44-3.14a1.55,1.55,0,0,1,1.39,0Z"/><path id="_Bana_47" data-name="&lt;Bana&gt;" class="cls-19" d="M566.13,249a.42.42,0,0,1,0,.8L560.7,253a1.57,1.57,0,0,1-1.4,0l-5.43-3.14a.42.42,0,0,1,0-.8l5.43-3.14a1.57,1.57,0,0,1,1.4,0Z"/><path class="cls-19" d="M492.14,291.76a.42.42,0,0,1,0,.8l-5.44,3.14a1.55,1.55,0,0,1-1.39,0l-5.44-3.14a.42.42,0,0,1,0-.8l5.44-3.14a1.55,1.55,0,0,1,1.39,0Z"/><path class="cls-103" d="M550.88,208.41c0,1-1.4,1.78-3.13,1.78s-3.13-.8-3.13-1.78,1.4-1.78,3.13-1.78S550.88,207.42,550.88,208.41Z"/><path class="cls-104" d="M550.43,208.4c0,.84-1.2,1.52-2.68,1.52s-2.67-.68-2.67-1.52,1.2-1.53,2.67-1.53S550.43,207.55,550.43,208.4Z"/><path class="cls-19" d="M406.84,286.21v2.94c-.07,1.17.67,2.34,2.19,3.22l85.1,49.13a11.74,11.74,0,0,0,10.64,0L642.3,262.1a4.66,4.66,0,0,0,1.82-1.71l.35-1h0a.31.31,0,0,1,0-.07v-3.37a3.76,3.76,0,0,1-2.19,3L504.77,338.31a11.8,11.8,0,0,1-10.64,0L409,289.18A3.79,3.79,0,0,1,406.84,286.21Z"/><path class="cls-105" d="M436.81,184.34,592.35,94.6s-1.53-1.16-2.32-.76l-155,89.43a.47.47,0,0,0-.22.4v90.1c0,.67,1.73,1.64,1.73,1.64V184.73A.45.45,0,0,1,436.81,184.34Z"/><path class="cls-106" d="M436.57,184.75v90.51a.45.45,0,0,0,.68.39l155.53-89.9a.45.45,0,0,0,.23-.39l-.12-90.3a.45.45,0,0,0-.68-.39L436.8,184.36A.45.45,0,0,0,436.57,184.75Z"/><g id="Nodes"><g class="cls-1"><path class="cls-2" d="M464.21,224.68c.15-.08.26,0,.26.15a.56.56,0,0,1-.26.46l-1.16.67-6.31,3.64-1.05.61c-.14.08-.26,0-.27-.16a.6.6,0,0,1,.27-.45l1.05-.61,6.31-3.64Z"/><path class="cls-2" d="M458.48,224.2a.18.18,0,0,1,.22,0,.43.43,0,0,1-.07.47l-1.17,1.58-.73,1v-.15l-.4,0,.62-.85,1.38-1.87A.48.48,0,0,1,458.48,224.2Z"/><path class="cls-107" d="M459.89,218.17l.28,0,2.84.25v4l-1.54,0a.23.23,0,0,0-.11,0,.57.57,0,0,0-.24.32c-.07.18,0,.33.12.33l1.33,0-2.66,3.32-2.46-.22,1.17-1.58a.43.43,0,0,0,.07-.47.18.18,0,0,0-.22,0,.48.48,0,0,0-.15.14L457,226.21l-.15,0,0-4.14,2.86-3.57Z"/><path class="cls-107" d="M454.33,226.88l2,.18.4,0V229l-1.05.61a.6.6,0,0,0-.27.45c0,.17.13.24.27.16l1.05-.61v.69l-2.39,3-2.4-.22v-3.19Z"/><path class="cls-2" d="M459.9,216c.15-.09.27,0,.27.15v2l-.28,0-.25.31v-2A.56.56,0,0,1,459.9,216Z"/><path class="cls-16" d="M459.84,207c7.17-4.14,13-.82,13,7.42s-5.77,18.27-12.94,22.41-13,.81-13-7.42S452.67,211.18,459.84,207Zm8,16.84v-3.19l-2.4-.21-1.58,2H463v-4l-2.84-.25v-1.06l1.6-2v-2.53l-1.9-.18L458,214.8v2.53l1.67.15v1l-2.86,3.57,0,4.14.15,0-.62.85-2-.18-2.38,3v3.19l2.4.22,2.39-3v-.69l6.31-3.64v.68l2.4.22,2.39-3"/><polygon class="cls-16" points="459.92 226.47 462.58 223.15 463.3 223.14 463.04 223.45 463.05 225.35 456.74 229 456.73 227.24 457.46 226.25 459.92 226.47"/></g><path class="cls-107" d="M459.86,212.43l1.9.18v2.53l-1.6,2v-1c0-.17-.12-.24-.27-.15a.56.56,0,0,0-.26.46v1l-1.67-.15V214.8Z"/><path class="cls-107" d="M465.43,220.48l2.4.21v3.19l-2.39,3-2.4-.22V226l1.16-.67a.56.56,0,0,0,.26-.46c0-.17-.11-.23-.26-.15l-1.16.67v-1.9l.25-.31.56-.69Z"/><path class="cls-2" d="M461.37,222.53a.23.23,0,0,1,.11,0l1.54,0h.83l-.56.69h-.71l-1.33,0c-.13,0-.19-.15-.12-.33A.57.57,0,0,1,461.37,222.53Z"/><path class="cls-2" d="M579.72,154.75a3.62,3.62,0,0,1,.39,1.9,6,6,0,0,1-.52,2.53,10.14,10.14,0,0,1-1.34,2.18,11.24,11.24,0,0,1-1.81,1.78,15.77,15.77,0,0,1-2,1.34l-.07,0a8,8,0,0,1-2.21.9,3,3,0,0,1-1.84-.06,2.33,2.33,0,0,1-1.24-1.14,4.94,4.94,0,0,1-.49-2.27l1.07-.62a4,4,0,0,0,.45,1.79,2.19,2.19,0,0,0,2.5,1,5.94,5.94,0,0,0,1.77-.69l.06,0a14.74,14.74,0,0,0,1.5-1,9.51,9.51,0,0,0,1.48-1.38,7.23,7.23,0,0,0,1.13-1.74,4.66,4.66,0,0,0,.45-2c0-.91-.25-1.48-.74-1.67a3.06,3.06,0,0,0-1.83,0,16,16,0,0,0-2.39.75,10,10,0,0,1-2.39.64,2.65,2.65,0,0,1-1.84-.3c-.49-.31-.73-1-.73-2.18a5.6,5.6,0,0,1,.47-2.32,8.31,8.31,0,0,1,1.22-2,10.77,10.77,0,0,1,1.66-1.65,14,14,0,0,1,1.85-1.28,9.27,9.27,0,0,1,2.1-.92,2.92,2.92,0,0,1,1.7,0,2,2,0,0,1,1.13,1,4.82,4.82,0,0,1,.41,2.19l-1.07.62a3.76,3.76,0,0,0-.32-1.75,1.49,1.49,0,0,0-.9-.79,2.68,2.68,0,0,0-1.37,0,7.58,7.58,0,0,0-1.68.73,12,12,0,0,0-1.47,1,9.2,9.2,0,0,0-1.33,1.32,7.11,7.11,0,0,0-1,1.56,4.08,4.08,0,0,0-.38,1.7,1.78,1.78,0,0,0,.43,1.37,1.56,1.56,0,0,0,1.11.34,6.82,6.82,0,0,0,1.54-.29l1.73-.55a18.62,18.62,0,0,1,2-.62,3.84,3.84,0,0,1,1.63-.11A1.64,1.64,0,0,1,579.72,154.75Z"/><path class="cls-2" d="M566.38,154.21a4,4,0,0,1,1.19,1.89A9.36,9.36,0,0,1,568,159c0,.11,0,.24,0,.39a2.25,2.25,0,0,0,0,.34l-11.66,6.73v.2a8.64,8.64,0,0,0,.35,2.57,3.78,3.78,0,0,0,1,1.75,2.37,2.37,0,0,0,1.66.62,4.76,4.76,0,0,0,2.32-.76,9.59,9.59,0,0,0,3.43-3.29,13,13,0,0,0,1.73-4.63l1.07-.61a14.23,14.23,0,0,1-2.05,5.63,12,12,0,0,1-4.19,4,6.15,6.15,0,0,1-2.79,1,2.85,2.85,0,0,1-2-.66,4.1,4.1,0,0,1-1.19-2,11,11,0,0,1-.41-3.14,16.12,16.12,0,0,1,.4-3.56,15.56,15.56,0,0,1,1.21-3.51,14.24,14.24,0,0,1,2-3.11,10.82,10.82,0,0,1,2.87-2.38,5.87,5.87,0,0,1,2.68-.91A2.9,2.9,0,0,1,566.38,154.21Zm-10.06,11.18,10.58-6.11a8.78,8.78,0,0,0-.41-2.33,3.17,3.17,0,0,0-1-1.55,2.43,2.43,0,0,0-1.61-.54,4.41,4.41,0,0,0-2.07.64l-.08.05-.08,0a9,9,0,0,0-2.2,1.83,12.38,12.38,0,0,0-1.65,2.43,13,13,0,0,0-1,2.75,15.6,15.6,0,0,0-.45,2.78"/><path class="cls-2" d="M552.7,163.8l0-10.15,1.07-.61.06,23-1.07.62v-3.54l-.05,0a15.57,15.57,0,0,1-2.24,4.24,10.76,10.76,0,0,1-3.27,2.88,5.55,5.55,0,0,1-2.81.91,2.71,2.71,0,0,1-1.94-.79,4.53,4.53,0,0,1-1.13-2.1,15.83,15.83,0,0,1,1.19-10.16,13.46,13.46,0,0,1,2-3,11.18,11.18,0,0,1,2.83-2.32,6.43,6.43,0,0,1,1.71-.7,3.85,3.85,0,0,1,1.56-.12,2.54,2.54,0,0,1,2.07,1.84Zm-.33,7.59a14.92,14.92,0,0,0,.31-3,9.86,9.86,0,0,0-.33-2.63,4.42,4.42,0,0,0-1-1.89,2.32,2.32,0,0,0-1.67-.76,4.57,4.57,0,0,0-2.39.73,9.18,9.18,0,0,0-2.44,2,11.8,11.8,0,0,0-1.67,2.66,13.13,13.13,0,0,0-.94,3,16.23,16.23,0,0,0-.29,3,10.37,10.37,0,0,0,.33,2.64,4.2,4.2,0,0,0,1,1.87,2.38,2.38,0,0,0,1.67.72,4.53,4.53,0,0,0,2.42-.76,8.46,8.46,0,0,0,2.36-2,12,12,0,0,0,1.65-2.66,14.27,14.27,0,0,0,1-3"/><path class="cls-2" d="M538.62,170.41a4.35,4.35,0,0,1,1.28,2,9.57,9.57,0,0,1,.44,3.09,15.43,15.43,0,0,1-.42,3.59,16.24,16.24,0,0,1-1.27,3.5,15,15,0,0,1-2.07,3.07,11.28,11.28,0,0,1-2.83,2.32,6.18,6.18,0,0,1-2.83.95,3.18,3.18,0,0,1-2.08-.68,4.15,4.15,0,0,1-1.28-2,9.89,9.89,0,0,1-.45-3.09,15,15,0,0,1,.43-3.6,16.58,16.58,0,0,1,1.26-3.48,14.32,14.32,0,0,1,2.07-3.08,11.2,11.2,0,0,1,2.84-2.34,6,6,0,0,1,2.83-.93A3,3,0,0,1,538.62,170.41Zm.3,8.78a11.28,11.28,0,0,0,0-5.7,4.12,4.12,0,0,0-1.08-1.82,2.55,2.55,0,0,0-1.74-.69,5.18,5.18,0,0,0-2.39.75,9.65,9.65,0,0,0-2.38,2,12.49,12.49,0,0,0-1.73,2.69,14.56,14.56,0,0,0-1.06,3,11.27,11.27,0,0,0,0,5.7,4.16,4.16,0,0,0,1.07,1.82,2.57,2.57,0,0,0,1.74.68,5,5,0,0,0,2.39-.74,9.65,9.65,0,0,0,2.38-2,12,12,0,0,0,1.73-2.69,14.19,14.19,0,0,0,1.06-3.05"/><polygon class="cls-2" points="524.5 191.05 524.44 169.95 525.67 169.24 525.73 192.24 524.27 193.08 511.49 179.17 511.43 179.2 511.49 200.46 510.26 201.18 510.19 178.18 511.73 177.29 524.44 191.08 524.5 191.05"/><polygon class="cls-2" points="504.76 204.35 504.69 181.35 507.89 179.5 507.96 202.5 504.76 204.35"/><path class="cls-2" d="M501.94,191.84a4.82,4.82,0,0,1,1.32,2.36,10,10,0,0,1,.22,3.51l-10.65,6.14a5.83,5.83,0,0,0,.24,1.73,2.39,2.39,0,0,0,.72,1.17,1.73,1.73,0,0,0,1.21.38,3.81,3.81,0,0,0,1.65-.54l.08-.05a7,7,0,0,0,2.26-2,8,8,0,0,0,1.27-2.81l3-1.75a13.78,13.78,0,0,1-2.34,5.57,14,14,0,0,1-1.95,2.21,12.24,12.24,0,0,1-2.26,1.68,7.39,7.39,0,0,1-3,1.1,3.28,3.28,0,0,1-2.23-.51,3.77,3.77,0,0,1-1.38-2,10.15,10.15,0,0,1-.48-3.28,14.24,14.24,0,0,1,.49-3.65,16.87,16.87,0,0,1,1.39-3.61,13.79,13.79,0,0,1,5-5.51l.13-.07.08,0a6,6,0,0,1,3-.9A3.33,3.33,0,0,1,501.94,191.84Zm-9.12,9.59,7.46-4.3a4.8,4.8,0,0,0-.33-1.49,2.19,2.19,0,0,0-.74-1,1.83,1.83,0,0,0-1.12-.32,3,3,0,0,0-1.4.44l-.07,0-.09.05a6.67,6.67,0,0,0-1.44,1.17,8.54,8.54,0,0,0-1.18,1.62,9.85,9.85,0,0,0-.78,1.85,7.52,7.52,0,0,0-.31,1.92"/><polygon class="cls-2" points="488.82 199.45 480.55 215.42 489.28 210.39 489.28 213.28 476.53 220.65 476.52 218.07 484.51 202.26 477.05 206.57 477.04 203.67 488.81 196.87 488.82 199.45"/></g></g></g></svg>