<?xml version="1.0" encoding="utf-8"?>
<!-- Generator: Adobe Illustrator 22.0.0, SVG Export Plug-In . SVG Version: 6.00 Build 0)  -->
<svg version="1.1" id="Lager_1" xmlns="http://www.w3.org/2000/svg" xmlns:xlink="http://www.w3.org/1999/xlink" x="0px" y="0px"
	 viewBox="0 0 750 500" style="enable-background:new 0 0 750 500;" xml:space="preserve">
<style type="text/css">
	.st0{fill:none;stroke:#C8C8C8;stroke-width:2;stroke-linecap:round;stroke-linejoin:round;}
	.st1{fill:none;stroke:#1D1D1B;stroke-width:2.03;stroke-linecap:round;stroke-linejoin:round;}
	.st2{fill:none;stroke:#000000;stroke-width:2.03;stroke-linecap:round;stroke-linejoin:round;}
	.st3{fill:url(#SVGID_1_);}
	.st4{fill:#5B8F8C;}
	.st5{opacity:0.7;fill:#D4C299;enable-background:new    ;}
	.st6{opacity:0.9;fill:#AED9CC;enable-background:new    ;}
	.st7{opacity:0.9;fill:#A7CEC3;enable-background:new    ;}
	.st8{opacity:0.75;fill:#248784;enable-background:new    ;}
	.st9{opacity:0.75;fill:#009695;enable-background:new    ;}
	.st10{opacity:0.7;fill:#E7D2A5;enable-background:new    ;}
	.st11{opacity:0.7;fill:#E2CEA2;enable-background:new    ;}
	.st12{fill:#D4D4D4;}
	.st13{fill:#4EB39A;}
	.st14{fill:#2EA08A;}
	.st15{fill:#1B564E;}
	.st16{fill:#1C3C4F;}
	.st17{fill:#A4D654;}
	.st18{fill:url(#SVGID_2_);}
	.st19{fill:#1B574F;}
	.st20{fill:#1C5850;}
	.st21{fill:#1C5950;}
	.st22{fill:#1C5A51;}
	.st23{fill:#1C5B52;}
	.st24{fill:#1D5C53;}
	.st25{fill:#1D5D54;}
	.st26{fill:#1D5E54;}
	.st27{fill:#1D5F55;}
	.st28{fill:#1E6056;}
	.st29{fill:#1E6157;}
	.st30{fill:#1E6258;}
	.st31{fill:#1E6358;}
	.st32{fill:#1F6459;}
	.st33{fill:#1F655A;}
	.st34{fill:#1F665B;}
	.st35{fill:#1F675C;}
	.st36{fill:#20685C;}
	.st37{fill:#20695D;}
	.st38{fill:#206A5E;}
	.st39{fill:#206B5F;}
	.st40{fill:#216C60;}
	.st41{fill:#216D60;}
	.st42{fill:#216E61;}
	.st43{fill:#216F62;}
	.st44{fill:#227063;}
	.st45{fill:#227164;}
	.st46{fill:#227264;}
	.st47{fill:#227365;}
	.st48{fill:#237466;}
	.st49{fill:#237567;}
	.st50{fill:#237668;}
	.st51{fill:#237768;}
	.st52{fill:#247869;}
	.st53{fill:#24796A;}
	.st54{fill:#247A6B;}
	.st55{fill:#247B6C;}
	.st56{fill:#257B6C;}
	.st57{fill:#257C6D;}
	.st58{fill:#257D6E;}
	.st59{fill:#257E6F;}
	.st60{fill:#267F70;}
	.st61{fill:#268070;}
	.st62{fill:#268171;}
	.st63{fill:#268272;}
	.st64{fill:#278373;}
	.st65{fill:#278474;}
	.st66{fill:#278574;}
	.st67{fill:#278675;}
	.st68{fill:#288776;}
	.st69{fill:#288877;}
	.st70{fill:#288978;}
	.st71{fill:#288A78;}
	.st72{fill:#298B79;}
	.st73{fill:#298C7A;}
	.st74{fill:#298D7B;}
	.st75{fill:#298E7C;}
	.st76{fill:#2A8F7C;}
	.st77{fill:#2A907D;}
	.st78{fill:#2A917E;}
	.st79{fill:#2A927F;}
	.st80{fill:#2B9380;}
	.st81{fill:#2B9480;}
	.st82{fill:#2B9581;}
	.st83{fill:#2B9682;}
	.st84{fill:#2C9783;}
	.st85{fill:#2C9884;}
	.st86{fill:#2C9984;}
	.st87{fill:#2C9A85;}
	.st88{fill:#2D9B86;}
	.st89{fill:#2D9C87;}
	.st90{fill:#2D9D88;}
	.st91{fill:#2D9E88;}
	.st92{fill:#2E9F89;}
	.st93{fill:#141414;}
	.st94{fill:url(#SVGID_3_);}
	.st95{fill:#171415;}
	.st96{fill:#36C9A5;}
	.st97{fill:url(#SVGID_4_);}
	.st98{fill:#001611;}
	.st99{opacity:0.38;fill:#0C0816;enable-background:new    ;}
	.st100{fill:#2A9581;}
	.st101{opacity:0.5;fill:#FFFFFF;enable-background:new    ;}
	.st102{opacity:0.3;fill:url(#SVGID_5_);enable-background:new    ;}
	.st103{fill:#232220;}
	.st104{fill:#FFFFFF;}
</style>
<title>1098</title>
<g>
	<g id="Lines">
		<g>
			<line class="st0" x1="260.9" y1="256.8" x2="260.9" y2="210.4"/>
			<line class="st0" x1="284.1" y1="241.6" x2="284.1" y2="196.6"/>
			<path class="st0" d="M223.8,274.9v-27.7c0-9.8,5.2-19,13.6-24l108.7-64c10.2-6,15.6-9.3,21.5-6.4l19.5,11.7"/>
		</g>
		<path class="st1" d="M294.3,378.8v22c0,3.7-1.9,7.1-4.9,9.1L187,475.7c-1.9,1.2-4.4,0.7-5.7-1.2c-0.4-0.7-0.7-1.4-0.7-2.2v-24.4
			l-18-11.4v-19.8"/>
		<path class="st1" d="M453.2,301.2l-1.4,31.6c-0.2,4.4-2.5,8.5-6.3,10.8L354.8,401c-8.8,5.5-20,5.3-28.6-0.5l-90.4-62.1
			c-7.5-5.2-12-13.7-12-22.8v-14.5"/>
		<path class="st2" d="M294.3,378.8l54.5-31.3c3-1.7,4-5.5,2.3-8.5c-0.5-0.9-1.2-1.6-2.1-2.2L294.2,302c-5-3.2-8.1-8.7-8.1-14.7V264
			"/>
	</g>
	<g id="Staple">

			<linearGradient id="SVGID_1_" gradientUnits="userSpaceOnUse" x1="380.39" y1="353.135" x2="407.52" y2="353.135" gradientTransform="matrix(1 0 0 -1 0 502)">
			<stop  offset="0" style="stop-color:#13002A"/>
			<stop  offset="0.1" style="stop-color:#2A0055"/>
			<stop  offset="0.23" style="stop-color:#4D0094"/>
			<stop  offset="0.32" style="stop-color:#4C0597"/>
			<stop  offset="0.43" style="stop-color:#4715A0"/>
			<stop  offset="0.56" style="stop-color:#412EAE"/>
			<stop  offset="0.6" style="stop-color:#3E39B4"/>
			<stop  offset="1" style="stop-color:#3C42B9"/>
		</linearGradient>
		<polygon class="st3" points="380.4,148.9 394,142.1 407.5,148.9 394,155.6 		"/>
		<polygon class="st4" points="380.4,115 394,108.2 407.5,115 394,121.7 		"/>
		<polygon class="st5" points="380.4,60.7 394,53.9 407.5,60.7 394,67.5 		"/>
		<polygon class="st6" points="380.4,148.9 380.4,115 394,121.7 394,155.6 		"/>
		<polygon class="st7" points="394,155.6 394,121.7 407.5,115 407.5,148.9 		"/>
		<polygon class="st8" points="380.4,169.2 394,162.4 407.5,169.2 394,176 		"/>
		<polygon class="st9" points="380.4,169.2 380.4,148.9 394,155.6 394,176 		"/>
		<polygon class="st9" points="394,176 394,155.6 407.5,148.9 407.5,169.2 		"/>
		<polygon class="st10" points="394,67.5 394,121.7 380.4,115 380.4,60.7 		"/>
		<polygon class="st11" points="394,67.5 407.5,60.7 407.5,115 394,121.7 		"/>
	</g>
	<g id="Cloud">
		<g>
			<path class="st12" d="M403.3,32.9c19.5,0,33.8,12.3,39.2,33.6c0.5,1.9,1.8,3.5,3.5,4.3c1.8,0.8,3.8,0.8,5.6,0
				c4.6-2.4,9.7-3.7,14.8-3.8c5.8-0.2,11.4,2.4,15,6.9c4,5,6.1,12.3,6.1,21.3c0,20.2-11.1,45.3-27.6,62.4l-0.1,0.1l-0.1,0.1
				c-3.6,4.3-13.2,11-20.7,15.4L197.5,312.7c-3.3,2-7,3.2-10.8,3.3c-9.5,0-15.6-9.6-15.6-24.4c0-22.3,14-49.1,30.5-58.7l4.5-2.6
				c2.5-1.5,4.2-4,4.6-6.9c2.8-19.8,11.2-41.2,23.6-60.4c12.5-19.4,28.4-35.2,44.7-44.6c8.5-4.9,16.7-7.9,24.4-8.9
				c2.9-0.4,5.5-2.1,7-4.7c15.4-26.9,35.9-48.6,57.7-61.2C380.4,36.6,392.6,32.9,403.3,32.9 M403.3,28.8c-11.2,0-23.8,3.7-37.2,11.4
				c-23.2,13.4-44.1,36.4-59.2,62.7c-0.8,1.5-2.3,2.5-4,2.7c-8,1-16.8,4.1-26,9.4c-35.1,20.3-64.3,66.2-70.2,107.9
				c-0.2,1.7-1.2,3.1-2.7,3.9l-4.5,2.6c-17.9,10.3-32.6,38.3-32.6,62.2c0,17.8,8.1,28.5,19.7,28.5c4.5-0.1,9-1.5,12.8-3.9
				l241.7-139.5c7.8-4.6,17.7-11.6,21.8-16.3c16.8-17.4,28.7-43.2,28.7-65.2c0-20.5-10.2-32.3-25.1-32.3c-5.8,0.1-11.4,1.6-16.6,4.2
				c-1.2,0.6-2.7,0.1-3.3-1.1c-0.1-0.2-0.1-0.3-0.2-0.5C440.5,42,424.5,28.8,403.3,28.8L403.3,28.8z"/>
		</g>
	</g>
	<g id="Computer">
		<polygon class="st13" points="74.6,297.8 150.2,341.8 196.7,315 121.1,270.9 		"/>
		<polygon class="st14" points="150.2,454.1 197,427.1 197,314.8 150.2,341.8 		"/>
		<polygon class="st15" points="74.6,410.1 150.2,454.1 150.2,341.8 74.6,297.8 		"/>
		<polygon class="st16" points="150.2,369 197,342 197,340.6 150.2,367.6 		"/>
		<polygon class="st16" points="150.2,381.9 197,354.9 197,353.5 150.2,380.5 		"/>
		<polygon class="st16" points="150.2,394.8 197,367.8 197,366.4 150.2,393.4 		"/>
		<polygon class="st16" points="150.2,407.8 197,380.7 197,379.3 150.2,406.3 		"/>
		<path class="st17" d="M153.8,358.2c0,1.5,1.1,2.2,2.4,1.4c1.4-0.9,2.3-2.5,2.4-4.2c0-1.5-1.1-2.2-2.4-1.4
			C154.8,354.9,153.9,356.5,153.8,358.2"/>
		<g id="Lager_5">
			<path class="st15" d="M180,309.2c0.5,0.3,1.1,0.3,1.6,0c0.4-0.3,0.4-0.7,0-0.9c-0.5-0.3-1.1-0.3-1.6,0
				C179.6,308.5,179.6,309,180,309.2"/>
			<path class="st15" d="M176.5,311.2c0.5,0.3,1.1,0.3,1.6,0c0.4-0.2,0.4-0.7,0-0.9c-0.5-0.3-1.1-0.3-1.6,0
				C176.1,310.5,176.1,310.9,176.5,311.2"/>
			<path class="st15" d="M173.1,313.2c0.5,0.3,1.1,0.3,1.6,0c0.3-0.1,0.4-0.4,0.3-0.6c0-0.1-0.2-0.3-0.3-0.3c-0.5-0.3-1.1-0.3-1.6,0
				C172.6,312.5,172.6,312.9,173.1,313.2"/>
			<path class="st15" d="M169.6,315.2c0.5,0.3,1.1,0.3,1.6,0c0.4-0.2,0.4-0.7,0-0.9c-0.5-0.3-1.1-0.3-1.6,0
				c-0.3,0.1-0.4,0.4-0.3,0.6C169.4,315,169.5,315.1,169.6,315.2"/>
			<path class="st15" d="M166.2,317.2c0.5,0.3,1.1,0.3,1.6,0c0.4-0.3,0.4-0.7,0-0.9c-0.5-0.3-1.1-0.3-1.6,0
				C165.7,316.5,165.7,316.9,166.2,317.2"/>
			<path class="st15" d="M162.7,319.1c0.5,0.3,1.1,0.3,1.6,0c0.4-0.3,0.4-0.7,0-0.9c-0.5-0.3-1.1-0.3-1.6,0
				c-0.3,0.1-0.4,0.4-0.3,0.6C162.5,319,162.6,319.1,162.7,319.1"/>
			<path class="st15" d="M159.3,321.1c0.5,0.3,1.1,0.3,1.6,0c0.4-0.3,0.4-0.7,0-0.9c-0.5-0.3-1.1-0.3-1.6,0
				C158.8,320.5,158.8,320.9,159.3,321.1"/>
			<path class="st15" d="M155.8,323.1c0.5,0.3,1.1,0.3,1.6,0c0.3-0.1,0.4-0.4,0.3-0.6c-0.1-0.1-0.2-0.2-0.3-0.3
				c-0.5-0.3-1.1-0.3-1.6,0C155.4,322.5,155.4,322.9,155.8,323.1"/>
			<path class="st15" d="M152.4,325.1c0.5,0.3,1.1,0.3,1.6,0c0.4-0.2,0.4-0.7,0-0.9c-0.5-0.3-1.1-0.3-1.6,0
				C151.9,324.5,151.9,324.9,152.4,325.1"/>
			<path class="st15" d="M149,327.1c0.5,0.3,1.1,0.3,1.6,0c0.4-0.3,0.4-0.7,0-0.9c-0.5-0.3-1.1-0.3-1.6,0
				C148.6,326.4,148.6,326.8,149,327.1"/>
			<path class="st15" d="M145.5,329.1c0.5,0.3,1.1,0.3,1.6,0c0.4-0.3,0.4-0.7,0-0.9c-0.5-0.3-1.1-0.3-1.6,0
				c-0.3,0.1-0.4,0.4-0.3,0.6C145.2,328.9,145.4,329.1,145.5,329.1"/>
			<path class="st15" d="M142.1,331.1c0.5,0.3,1.1,0.3,1.6,0c0.4-0.3,0.4-0.7,0-0.9c-0.5-0.3-1.1-0.3-1.6,0
				C141.6,330.4,141.6,330.8,142.1,331.1"/>
			<path class="st15" d="M138.6,333.1c0.5,0.3,1.1,0.3,1.6,0c0.3-0.1,0.4-0.4,0.3-0.6c0-0.1-0.2-0.3-0.3-0.3c-0.5-0.3-1.1-0.3-1.6,0
				C138.2,332.4,138.2,332.8,138.6,333.1"/>
			<path class="st15" d="M183,311c0.5,0.3,1.1,0.3,1.6,0c0.4-0.3,0.4-0.7,0-0.9c-0.5-0.3-1.1-0.3-1.6,0
				C182.6,310.3,182.6,310.7,183,311"/>
			<path class="st15" d="M179.5,312.9c0.5,0.3,1.1,0.3,1.6,0c0.4-0.3,0.4-0.7,0-0.9c-0.5-0.3-1.1-0.3-1.6,0
				c-0.3,0.1-0.4,0.4-0.3,0.6C179.3,312.8,179.4,312.9,179.5,312.9"/>
			<path class="st15" d="M176.1,314.9c0.5,0.3,1.1,0.3,1.6,0c0.4-0.3,0.4-0.7,0-0.9c-0.5-0.3-1.1-0.3-1.6,0
				C175.6,314.2,175.6,314.7,176.1,314.9"/>
			<path class="st15" d="M172.6,316.9c0.5,0.3,1.1,0.3,1.6,0c0.3-0.1,0.4-0.4,0.3-0.6c0-0.1-0.2-0.3-0.3-0.3c-0.5-0.3-1.1-0.3-1.6,0
				c-0.3,0.1-0.4,0.4-0.3,0.6C172.4,316.7,172.5,316.9,172.6,316.9"/>
			<path class="st15" d="M169.2,318.9c0.5,0.3,1.1,0.3,1.6,0c0.4-0.2,0.4-0.7,0-0.9c-0.5-0.3-1.1-0.3-1.6,0
				c-0.3,0.1-0.4,0.4-0.3,0.6C168.9,318.7,169,318.9,169.2,318.9"/>
			<path class="st15" d="M165.7,320.9c0.5,0.3,1.1,0.3,1.6,0c0.4-0.2,0.4-0.7,0-0.9c-0.5-0.3-1.1-0.3-1.6,0
				C165.3,320.2,165.3,320.6,165.7,320.9"/>
			<path class="st15" d="M162.3,322.9c0.5,0.3,1.1,0.3,1.6,0c0.4-0.2,0.4-0.7,0-0.9c-0.5-0.3-1.1-0.3-1.6,0
				c-0.3,0.1-0.4,0.4-0.3,0.6C162,322.7,162.1,322.8,162.3,322.9"/>
			<path class="st15" d="M158.8,324.9c0.5,0.3,1.1,0.3,1.6,0c0.4-0.2,0.4-0.7,0-0.9c-0.5-0.3-1.1-0.3-1.6,0
				C158.4,324.2,158.4,324.6,158.8,324.9"/>
			<path class="st15" d="M155.4,326.9c0.5,0.3,1.1,0.3,1.6,0c0.4-0.3,0.4-0.7,0-0.9c-0.5-0.3-1.1-0.3-1.6,0
				c-0.3,0.1-0.4,0.3-0.3,0.6C155.1,326.7,155.2,326.8,155.4,326.9"/>
			<path class="st15" d="M152,328.8c0.5,0.3,1.1,0.3,1.6,0c0.4-0.3,0.4-0.7,0-0.9c-0.5-0.3-1.1-0.3-1.6,0
				C151.6,328.2,151.6,328.6,152,328.8"/>
			<path class="st15" d="M148.5,330.8c0.5,0.3,1.1,0.3,1.6,0c0.3-0.1,0.4-0.3,0.3-0.6c0-0.2-0.2-0.3-0.3-0.3c-0.5-0.3-1.1-0.3-1.6,0
				C148.1,330.2,148.1,330.6,148.5,330.8"/>
			<path class="st15" d="M145.1,332.8c0.5,0.3,1.1,0.3,1.6,0c0.4-0.2,0.4-0.7,0-0.9c-0.5-0.3-1.1-0.3-1.6,0
				c-0.3,0.1-0.4,0.4-0.3,0.6C144.8,332.7,144.9,332.8,145.1,332.8"/>
			<path class="st15" d="M141.6,334.8c0.5,0.3,1.1,0.3,1.6,0c0.4-0.2,0.4-0.7,0-0.9c-0.5-0.3-1.1-0.3-1.6,0
				C141.2,334.1,141.2,334.6,141.6,334.8"/>
			<path class="st15" d="M186,312.7c0.5,0.3,1.1,0.3,1.6,0c0.4-0.2,0.4-0.7,0-0.9c-0.5-0.3-1.1-0.3-1.6,0c-0.3,0.1-0.4,0.4-0.3,0.6
				C185.7,312.5,185.9,312.6,186,312.7"/>
			<path class="st15" d="M182.5,314.7c0.5,0.3,1.1,0.3,1.6,0c0.4-0.3,0.4-0.7,0-0.9c-0.5-0.3-1.1-0.3-1.6,0
				C182.1,314,182.1,314.4,182.5,314.7"/>
			<path class="st15" d="M179.1,316.7c0.5,0.3,1.1,0.3,1.6,0c0.4-0.2,0.4-0.7,0-0.9c-0.5-0.3-1.1-0.3-1.6,0
				C178.6,316,178.6,316.4,179.1,316.7"/>
			<path class="st15" d="M175.6,318.6c0.5,0.3,1.1,0.3,1.6,0c0.4-0.2,0.4-0.7,0-0.9c-0.5-0.3-1.1-0.3-1.6,0
				C175.2,318,175.2,318.4,175.6,318.6"/>
			<path class="st15" d="M172.2,320.6c0.5,0.3,1.1,0.3,1.6,0c0.4-0.3,0.4-0.7,0-0.9c-0.5-0.3-1.1-0.3-1.6,0
				C171.7,320,171.7,320.4,172.2,320.6"/>
			<path class="st15" d="M168.7,322.6c0.5,0.3,1.1,0.3,1.6,0c0.4-0.3,0.4-0.7,0-0.9c-0.5-0.3-1.1-0.3-1.6,0
				C168.3,322,168.3,322.4,168.7,322.6"/>
			<path class="st15" d="M165.3,324.6c0.5,0.3,1.1,0.3,1.6,0c0.3-0.1,0.4-0.4,0.3-0.6c0-0.1-0.2-0.3-0.3-0.3c-0.5-0.3-1.1-0.3-1.6,0
				c-0.3,0.1-0.4,0.4-0.3,0.6C165,324.5,165.1,324.6,165.3,324.6"/>
			<path class="st15" d="M161.8,326.6c0.5,0.3,1.1,0.3,1.6,0c0.4-0.2,0.4-0.7,0-0.9c-0.5-0.3-1.1-0.3-1.6,0
				c-0.3,0.1-0.4,0.4-0.3,0.6C161.6,326.4,161.7,326.6,161.8,326.6"/>
			<path class="st15" d="M158.4,328.6c0.5,0.3,1.1,0.3,1.6,0c0.4-0.2,0.4-0.7,0-0.9c-0.5-0.3-1.1-0.3-1.6,0
				C157.9,327.9,158,328.3,158.4,328.6"/>
			<path class="st15" d="M155,330.6c0.5,0.3,1.1,0.3,1.6,0c0.4-0.3,0.4-0.7,0-0.9c-0.5-0.3-1.1-0.3-1.6,0
				C154.6,329.9,154.6,330.3,155,330.6"/>
			<path class="st15" d="M151.5,332.6c0.5,0.3,1.1,0.3,1.6,0c0.4-0.3,0.4-0.7,0-0.9c-0.5-0.3-1.1-0.3-1.6,0
				C151.1,331.9,151.1,332.3,151.5,332.6"/>
			<path class="st15" d="M148.1,334.6c0.5,0.3,1.1,0.3,1.6,0c0.4-0.3,0.4-0.7,0-0.9c-0.5-0.3-1.1-0.3-1.6,0
				C147.6,333.9,147.6,334.3,148.1,334.6"/>
			<path class="st15" d="M144.6,336.5c0.5,0.3,1.1,0.3,1.6,0c0.4-0.3,0.4-0.7,0-0.9c-0.5-0.3-1.1-0.3-1.6,0
				C144.2,335.9,144.2,336.3,144.6,336.5"/>
			<path class="st15" d="M189,314.4c0.5,0.3,1.1,0.3,1.6,0c0.4-0.3,0.4-0.7,0-0.9c-0.5-0.3-1.1-0.3-1.6,0c-0.3,0.1-0.4,0.3-0.3,0.6
				C188.7,314.2,188.8,314.4,189,314.4"/>
			<path class="st15" d="M185.5,316.4c0.5,0.3,1.1,0.3,1.6,0c0.4-0.3,0.4-0.7,0-0.9c-0.5-0.3-1.1-0.3-1.6,0
				C185.1,315.7,185.1,316.2,185.5,316.4"/>
			<path class="st15" d="M182.1,318.4c0.5,0.3,1.1,0.3,1.6,0c0.3-0.1,0.4-0.4,0.3-0.6c0-0.1-0.2-0.3-0.3-0.3c-0.5-0.3-1.1-0.3-1.6,0
				C181.6,317.7,181.6,318.1,182.1,318.4"/>
			<path class="st15" d="M178.6,320.4c0.5,0.3,1.1,0.3,1.6,0c0.4-0.2,0.4-0.7,0-0.9c-0.5-0.3-1.1-0.3-1.6,0
				c-0.3,0.1-0.4,0.4-0.3,0.6C178.4,320.2,178.5,320.3,178.6,320.4"/>
			<path class="st15" d="M175.2,322.4c0.5,0.3,1.1,0.3,1.6,0c0.4-0.2,0.4-0.7,0-0.9c-0.5-0.3-1.1-0.3-1.6,0
				C174.7,321.7,174.7,322.1,175.2,322.4"/>
			<path class="st15" d="M171.7,324.4c0.5,0.3,1.1,0.3,1.6,0c0.4-0.2,0.4-0.7,0-0.9c-0.5-0.3-1.1-0.3-1.6,0
				C171.3,323.7,171.3,324.1,171.7,324.4"/>
			<path class="st15" d="M168.3,326.4c0.5,0.3,1.1,0.3,1.6,0c0.4-0.3,0.4-0.7,0-0.9c-0.5-0.3-1.1-0.3-1.6,0
				C167.8,325.7,167.8,326.1,168.3,326.4"/>
			<path class="st15" d="M164.9,328.3c0.5,0.3,1.1,0.3,1.6,0c0.4-0.3,0.4-0.7,0-0.9c-0.5-0.3-1.1-0.3-1.6,0
				C164.4,327.7,164.4,328.1,164.9,328.3"/>
			<path class="st15" d="M161.4,330.3c0.5,0.3,1.1,0.3,1.6,0c0.4-0.3,0.4-0.7,0-0.9c-0.5-0.3-1.1-0.3-1.6,0
				c-0.3,0.1-0.4,0.4-0.3,0.6C161.1,330.2,161.3,330.3,161.4,330.3"/>
			<path class="st15" d="M158,332.3c0.5,0.3,1.1,0.3,1.6,0c0.3-0.1,0.4-0.4,0.3-0.6c-0.1-0.1-0.2-0.2-0.3-0.3
				c-0.5-0.3-1.1-0.3-1.6,0C157.6,331.6,157.6,332,158,332.3"/>
			<path class="st15" d="M154.5,334.3c0.5,0.3,1.1,0.3,1.6,0c0.3-0.1,0.4-0.4,0.3-0.6c0-0.1-0.2-0.3-0.3-0.3c-0.5-0.3-1.1-0.3-1.6,0
				C154.1,333.6,154.1,334,154.5,334.3"/>
			<path class="st15" d="M151.1,336.3c0.5,0.3,1.1,0.3,1.6,0c0.4-0.2,0.4-0.7,0-0.9c-0.5-0.3-1.1-0.3-1.6,0
				C150.6,335.6,150.6,336,151.1,336.3"/>
			<path class="st15" d="M147.6,338.3c0.5,0.3,1.1,0.3,1.6,0c0.3-0.1,0.4-0.4,0.3-0.6c0-0.1-0.2-0.3-0.3-0.3c-0.5-0.3-1.1-0.3-1.6,0
				C147.2,337.6,147.2,338,147.6,338.3"/>
		</g>

			<radialGradient id="SVGID_2_" cx="-397.147" cy="-97.0103" r="47.37" gradientTransform="matrix(0.5214 -0.7458 -0.7704 -0.5386 289.0854 9.0363)" gradientUnits="userSpaceOnUse">
			<stop  offset="0" style="stop-color:#FFFDFF"/>
			<stop  offset="3.184480e-02" style="stop-color:#EBF2E3;stop-opacity:0.87"/>
			<stop  offset="8.282600e-02" style="stop-color:#A7CE83;stop-opacity:0.56"/>
			<stop  offset="0.2892" style="stop-color:#B2D5A0;stop-opacity:0.18"/>
			<stop  offset="0.65" style="stop-color:#C5DABF;stop-opacity:0"/>
			<stop  offset="1" style="stop-color:#FFFFFF;stop-opacity:0"/>
		</radialGradient>
		<path class="st18" d="M127.1,335.1c11.3-16.2,34-19.9,50.6-8.3s20.9,34.2,9.6,50.4c-11.3,16.2-34,19.9-50.6,8.3
			S115.7,351.3,127.1,335.1z"/>
	</g>
	<g id="Laptop">
		<path class="st15" d="M401.8,195.6V281c0,2.5,2.1,3.4,4.6,1.9l46.9-27.1l91-52.6c2.5-1.4,4.6-4.7,4.6-7.2v-85.4
			c0-2.5-2.1-3.4-4.6-1.9l-65.5,37.8l-72.5,41.8C403.9,189.8,401.8,193.1,401.8,195.6z"/>
		<path class="st19" d="M401.8,195.6V281c0,2.5,2,3.4,4.6,1.9l46.9-27.1l91-52.5c2.5-1.5,4.6-4.7,4.6-7.2v-85.4
			c0-2.5-2.1-3.4-4.6-1.9l-65.5,37.8l-72.5,41.8C403.9,189.9,401.8,193.1,401.8,195.6z"/>
		<path class="st20" d="M401.8,195.6V281c0,2.5,2.1,3.4,4.6,1.9l46.9-27.1l91-52.6c2.5-1.4,4.6-4.7,4.6-7.2v-85.4
			c0-2.5-2.1-3.4-4.6-1.9l-65.5,37.8l-72.5,41.8C403.9,189.9,401.8,193.1,401.8,195.6z"/>
		<path class="st21" d="M401.9,195.6V281c0,2.5,2.1,3.4,4.6,1.9l46.9-27.1l91-52.6c2.5-1.5,4.6-4.7,4.6-7.2v-85.4
			c0-2.5-2.1-3.4-4.6-1.9l-65.5,37.8l-72.5,41.8C403.9,189.9,401.9,193.1,401.9,195.6z"/>
		<path class="st22" d="M401.9,195.6V281c0,2.5,2.1,3.4,4.6,1.9l46.9-27.1l91-52.6c2.5-1.4,4.6-4.7,4.6-7.2v-85.3
			c0-2.5-2-3.4-4.6-1.9l-65.5,37.8l-72.5,41.8C403.9,189.9,401.9,193.1,401.9,195.6z"/>
		<path class="st23" d="M401.9,195.7V281c0,2.5,2.1,3.4,4.6,1.9l47-27.1l91-52.6c2.5-1.4,4.6-4.7,4.6-7.2v-85.3
			c0-2.5-2.1-3.4-4.6-1.9L479,146.6l-72.5,41.8C404,189.9,401.9,193.2,401.9,195.7z"/>
		<path class="st24" d="M401.9,195.7V281c0,2.5,2.1,3.4,4.6,1.9l47-27.1l91-52.5c2.5-1.5,4.6-4.7,4.6-7.2v-85.4
			c0-2.5-2.1-3.4-4.6-1.9L479,146.6l-72.5,41.8C404,189.9,401.9,193.2,401.9,195.7z"/>
		<path class="st25" d="M401.9,195.7v85.4c0,2.5,2.1,3.4,4.6,1.9l47-27.1l91-52.6c2.5-1.4,4.6-4.7,4.6-7.2v-85.4
			c0-2.5-2.1-3.4-4.6-1.9L479,146.6l-72.5,41.8C404,189.9,401.9,193.2,401.9,195.7z"/>
		<path class="st26" d="M402,195.7v85.4c0,2.5,2.1,3.4,4.6,1.9l47-27.1l91-52.5c2.5-1.5,4.6-4.7,4.6-7.2v-85.4
			c0-2.5-2.1-3.4-4.6-1.9L479,146.7l-72.5,41.8C404,190,402,193.2,402,195.7z"/>
		<path class="st27" d="M402,195.7v85.4c0,2.5,2.1,3.4,4.6,1.9l46.9-27.1l91-52.6c2.5-1.4,4.6-4.7,4.6-7.2v-85.4
			c0-2.5-2.1-3.4-4.6-1.9L479,146.7l-72.5,41.8C404,190,402,193.2,402,195.7z"/>
		<path class="st28" d="M402,195.8v85.4c0,2.5,2,3.4,4.6,1.9l46.9-27.1l91-52.5c2.5-1.5,4.6-4.7,4.6-7.2v-85.4
			c0-2.5-2.1-3.4-4.6-1.9L479,146.7l-72.5,41.8C404,190,402,193.2,402,195.8z"/>
		<path class="st29" d="M402,195.8v85.4c0,2.5,2.1,3.4,4.6,1.9l46.9-27.1l91-52.6c2.5-1.4,4.6-4.7,4.6-7.2v-85.4
			c0-2.5-2.1-3.4-4.6-1.9L479,146.7l-72.5,41.8C404.1,190,402,193.2,402,195.8z"/>
		<path class="st30" d="M402,195.8v85.4c0,2.5,2.1,3.4,4.6,1.9l47-27.1l91-52.6c2.5-1.4,4.6-4.7,4.6-7.2v-85.4
			c0-2.5-2.1-3.4-4.6-1.9l-65.5,37.8l-72.5,41.8C404.1,190,402,193.3,402,195.8z"/>
		<path class="st31" d="M402,195.8v85.4c0,2.5,2.1,3.4,4.6,1.9l47-27.1l91-52.6c2.5-1.4,4.6-4.7,4.6-7.2v-85.4c0-2.5-2-3.4-4.6-1.9
			l-65.5,37.8l-72.5,41.8C404.1,190,402,193.3,402,195.8z"/>
		<path class="st32" d="M402.1,195.8v85.4c0,2.5,2.1,3.4,4.6,1.9l46.9-27.1l91-52.6c2.5-1.4,4.6-4.7,4.6-7.2v-85.4
			c0-2.5-2.1-3.4-4.6-1.9l-65.5,37.8l-72.5,41.8C404.1,190.1,402.1,193.3,402.1,195.8z"/>
		<path class="st33" d="M402.1,195.8v85.4c0,2.5,2.1,3.4,4.6,1.9l47-27.1l91-52.5c2.5-1.5,4.6-4.7,4.6-7.2v-85.4
			c0-2.5-2.1-3.4-4.6-1.9l-65.5,37.8l-72.5,41.8C404.1,190.1,402.1,193.3,402.1,195.8z"/>
		<path class="st34" d="M402.1,195.8v85.4c0,2.5,2.1,3.4,4.6,1.9l46.9-27.1l91-52.6c2.5-1.4,4.6-4.7,4.6-7.2v-85.3
			c0-2.5-2.1-3.4-4.6-1.9l-65.5,37.8l-72.5,41.8C404.2,190.1,402.1,193.3,402.1,195.8z"/>
		<path class="st35" d="M402.1,195.9v85.4c0,2.5,2.1,3.4,4.6,1.9l47-27.1l91-52.5c2.5-1.5,4.6-4.7,4.6-7.2v-85.4
			c0-2.5-2.1-3.4-4.6-1.9l-65.5,37.8l-72.5,41.8C404.2,190.1,402.1,193.3,402.1,195.9z"/>
		<path class="st36" d="M402.1,195.9v85.4c0,2.5,2.1,3.4,4.6,1.9l46.9-27.1l91-52.6c2.5-1.4,4.6-4.7,4.6-7.2v-85.4
			c0-2.5-2.1-3.4-4.6-1.9l-65.5,37.8l-72.5,41.8C404.2,190.1,402.1,193.4,402.1,195.9z"/>
		<path class="st37" d="M402.2,195.9v85.4c0,2.5,2,3.4,4.6,1.9l46.9-27.1l91-52.5c2.5-1.5,4.6-4.7,4.6-7.2V111
			c0-2.5-2.1-3.4-4.6-1.9l-65.5,37.8l-72.5,41.8C404.2,190.1,402.2,193.4,402.2,195.9z"/>
		<path class="st38" d="M402.2,195.9v85.4c0,2.5,2,3.4,4.6,1.9l46.9-27.1l91-52.6c2.5-1.4,4.6-4.7,4.6-7.2V111
			c0-2.5-2.1-3.4-4.6-1.9l-65.5,37.8l-72.5,41.8C404.2,190.1,402.2,193.4,402.2,195.9z"/>
		<path class="st39" d="M402.2,195.9v85.4c0,2.5,2.1,3.4,4.6,1.9l46.9-27.1l91-52.6c2.5-1.4,4.6-4.7,4.6-7.2V111
			c0-2.5-2.1-3.4-4.6-1.9l-65.5,37.8l-72.5,41.8C404.2,190.2,402.2,193.4,402.2,195.9z"/>
		<path class="st40" d="M402.2,195.9v85.4c0,2.5,2.1,3.4,4.6,1.9l46.9-27.1l91-52.5c2.5-1.5,4.6-4.7,4.6-7.2V111
			c0-2.5-2-3.4-4.6-1.9l-65.5,37.8l-72.5,41.8C404.3,190.2,402.2,193.4,402.2,195.9z"/>
		<path class="st41" d="M402.2,196v85.4c0,2.5,2.1,3.4,4.6,1.9l47-27.1l91-52.6c2.5-1.4,4.6-4.7,4.6-7.2V111c0-2.5-2-3.4-4.6-1.9
			l-65.5,37.8l-72.5,41.8C404.3,190.2,402.2,193.4,402.2,196z"/>
		<path class="st42" d="M402.2,196v85.4c0,2.5,2.1,3.4,4.6,1.9l47-27.1l91-52.5c2.5-1.5,4.6-4.7,4.6-7.2V111c0-2.5-2.1-3.4-4.6-1.9
			l-65.5,37.8l-72.5,41.8C404.3,190.2,402.2,193.4,402.2,196z"/>
		<path class="st43" d="M402.3,196v85.4c0,2.5,2.1,3.4,4.6,1.9l47-27.1l91-52.6c2.5-1.4,4.6-4.7,4.6-7.2v-85.4
			c0-2.5-2.1-3.4-4.6-1.9l-65.5,37.8l-72.5,41.8C404.3,190.2,402.3,193.5,402.3,196z"/>
		<path class="st44" d="M402.3,196v85.4c0,2.5,2.1,3.4,4.6,1.9l47-27.1l91-52.5c2.5-1.5,4.6-4.7,4.6-7.2v-85.4
			c0-2.5-2.1-3.4-4.6-1.9L479.3,147l-72.5,41.8C404.4,190.2,402.3,193.5,402.3,196z"/>
		<path class="st45" d="M402.3,196v85.4c0,2.5,2.1,3.4,4.6,1.9l46.9-27.1l91-52.6c2.5-1.4,4.6-4.7,4.6-7.2v-85.4
			c0-2.5-2.1-3.4-4.6-1.9L479.4,147l-72.5,41.8C404.4,190.2,402.3,193.5,402.3,196z"/>
		<path class="st46" d="M402.3,196v85.4c0,2.5,2,3.4,4.6,1.9l46.9-27.1l91-52.6c2.5-1.5,4.6-4.7,4.6-7.2v-85.3
			c0-2.5-2.1-3.4-4.6-1.9L479.4,147l-72.5,41.8C404.4,190.3,402.3,193.5,402.3,196z"/>
		<path class="st47" d="M402.4,196v85.4c0,2.5,2,3.4,4.6,1.9l46.9-27.1l91-52.6c2.5-1.4,4.6-4.7,4.6-7.2v-85.3
			c0-2.5-2.1-3.4-4.6-1.9L479.4,147l-72.5,41.8C404.4,190.3,402.4,193.5,402.4,196z"/>
		<path class="st48" d="M402.4,196.1v85.4c0,2.5,2.1,3.4,4.6,1.9l46.9-27.1l91-52.6c2.5-1.4,4.6-4.7,4.6-7.2v-85.4
			c0-2.5-2.1-3.4-4.6-1.9L479.4,147l-72.5,41.8C404.4,190.3,402.4,193.6,402.4,196.1z"/>
		<path class="st49" d="M402.4,196.1v85.4c0,2.5,2.1,3.4,4.6,1.9l46.9-27.1l91-52.5c2.5-1.5,4.6-4.7,4.6-7.2v-85.4
			c0-2.5-2-3.4-4.6-1.9L479.4,147L407,188.9C404.4,190.3,402.4,193.6,402.4,196.1z"/>
		<path class="st50" d="M402.4,196.1v85.4c0,2.5,2.1,3.4,4.6,1.9l47-27.1l91-52.6c2.5-1.4,4.6-4.7,4.6-7.2v-85.4
			c0-2.5-2-3.4-4.6-1.9L479.4,147L407,188.9C404.5,190.3,402.4,193.6,402.4,196.1z"/>
		<path class="st51" d="M402.4,196.1v85.4c0,2.5,2.1,3.4,4.6,1.9l47-27.1l91-52.5c2.5-1.5,4.6-4.7,4.6-7.2v-85.4
			c0-2.5-2.1-3.4-4.6-1.9l-65.5,37.8L407,188.9C404.5,190.4,402.4,193.6,402.4,196.1z"/>
		<path class="st52" d="M402.4,196.1v85.4c0,2.5,2.1,3.4,4.6,1.9l47-27.1l91-52.6c2.5-1.4,4.6-4.7,4.6-7.2v-85.4
			c0-2.5-2.1-3.4-4.6-1.9l-65.5,37.8L407,188.9C404.5,190.4,402.4,193.6,402.4,196.1z"/>
		<path class="st53" d="M402.5,196.1v85.4c0,2.5,2.1,3.4,4.6,1.9l47-27.1l91-52.5c2.5-1.5,4.6-4.7,4.6-7.2v-85.4
			c0-2.5-2.1-3.4-4.6-1.9l-65.5,37.8L407,188.9C404.5,190.4,402.5,193.6,402.5,196.1z"/>
		<path class="st54" d="M402.5,196.1v85.4c0,2.5,2.1,3.4,4.6,1.9l46.9-27.1l91-52.6c2.5-1.4,4.6-4.7,4.6-7.2v-85.4
			c0-2.5-2.1-3.4-4.6-1.9l-65.5,37.8L407,188.9C404.5,190.4,402.5,193.6,402.5,196.1z"/>
		<path class="st55" d="M402.5,196.2v85.4c0,2.5,2,3.4,4.6,1.9l46.9-27.1l91-52.6c2.5-1.5,4.6-4.7,4.6-7.2v-85.4
			c0-2.5-2.1-3.4-4.6-1.9l-65.5,37.8L407.1,189C404.5,190.4,402.5,193.6,402.5,196.2z"/>
		<path class="st56" d="M402.5,196.2v85.4c0,2.5,2,3.4,4.6,1.9l46.9-27.1l91-52.6c2.5-1.4,4.6-4.7,4.6-7.2v-85.4
			c0-2.5-2.1-3.4-4.6-1.9l-65.5,37.8L407.1,189C404.6,190.4,402.5,193.7,402.5,196.2z"/>
		<path class="st57" d="M402.5,196.2v85.4c0,2.5,2.1,3.4,4.6,1.9l46.9-27.1l91-52.6c2.5-1.4,4.6-4.7,4.6-7.2v-85.4
			c0-2.5-2.1-3.4-4.6-1.9l-65.5,37.8L407.1,189C404.6,190.4,402.5,193.7,402.5,196.2z"/>
		<path class="st58" d="M402.5,196.2v85.4c0,2.5,2.1,3.4,4.6,1.9l46.9-27.1l91-52.5c2.5-1.5,4.6-4.7,4.6-7.2v-85.4
			c0-2.5-2.1-3.4-4.6-1.9l-65.5,37.8L407.1,189C404.6,190.4,402.5,193.7,402.5,196.2z"/>
		<path class="st59" d="M402.6,196.2v85.4c0,2.5,2.1,3.4,4.6,1.9l47-27.1l91-52.6c2.5-1.4,4.6-4.7,4.6-7.2v-85.4
			c0-2.5-2-3.4-4.6-1.9l-65.5,37.8L407.1,189C404.6,190.5,402.6,193.7,402.6,196.2z"/>
		<path class="st60" d="M402.6,196.2v85.4c0,2.5,2.1,3.4,4.6,1.9l47-27.1l91-52.5c2.5-1.5,4.6-4.7,4.6-7.2v-85.4
			c0-2.5-2.1-3.4-4.6-1.9l-65.5,37.8L407.2,189C404.6,190.5,402.6,193.7,402.6,196.2z"/>
		<path class="st61" d="M402.6,196.3v85.4c0,2.5,2.1,3.4,4.6,1.9l47-27.1l91-52.6c2.5-1.4,4.6-4.7,4.6-7.2v-85.4
			c0-2.5-2.1-3.4-4.6-1.9l-65.5,37.8l-72.5,41.8C404.7,190.5,402.6,193.8,402.6,196.3z"/>
		<path class="st62" d="M402.6,196.3v85.4c0,2.5,2.1,3.4,4.6,1.9l47-27.1l91-52.5c2.5-1.5,4.6-4.7,4.6-7.2v-85.4
			c0-2.5-2.1-3.4-4.6-1.9l-65.5,37.8l-72.5,41.8C404.7,190.5,402.6,193.8,402.6,196.3z"/>
		<path class="st63" d="M402.6,196.3v85.4c0,2.5,2.1,3.4,4.6,1.9l47-27.1l91-52.6c2.5-1.4,4.6-4.7,4.6-7.2v-85.4
			c0-2.5-2.1-3.4-4.6-1.9l-65.5,37.8l-72.5,41.8C404.7,190.5,402.6,193.8,402.6,196.3z"/>
		<path class="st64" d="M402.7,196.3v85.4c0,2.5,2,3.4,4.6,1.9l46.9-27.1l91-52.6c2.5-1.5,4.6-4.7,4.6-7.2v-85.4
			c0-2.5-2.1-3.4-4.6-1.9l-65.5,37.8l-72.5,41.8C404.7,190.6,402.7,193.8,402.7,196.3z"/>
		<path class="st65" d="M402.7,196.3v85.4c0,2.5,2,3.4,4.6,1.9l46.9-27.1l91-52.6c2.5-1.4,4.6-4.7,4.6-7.2v-85.4
			c0-2.5-2.1-3.4-4.6-1.9l-65.5,37.8l-72.5,41.8C404.7,190.6,402.7,193.8,402.7,196.3z"/>
		<path class="st66" d="M402.7,196.3v85.4c0,2.5,2.1,3.4,4.6,1.9l46.9-27.1l91-52.6c2.5-1.4,4.6-4.7,4.6-7.2v-85.4
			c0-2.5-2.1-3.4-4.6-1.9l-65.5,37.8l-72.5,41.8C404.8,190.6,402.7,193.8,402.7,196.3z"/>
		<path class="st67" d="M402.7,196.4v85.4c0,2.5,2.1,3.4,4.6,1.9l46.9-27.1l91-52.5c2.5-1.5,4.6-4.7,4.6-7.2v-85.4
			c0-2.5-2.1-3.4-4.6-1.9l-65.5,37.8l-72.5,41.8C404.8,190.6,402.7,193.8,402.7,196.4z"/>
		<path class="st68" d="M402.7,196.4v85.4c0,2.5,2.1,3.4,4.6,1.9l47-27.1l91-52.6c2.5-1.4,4.6-4.7,4.6-7.2v-85.4
			c0-2.5-2-3.4-4.6-1.9l-65.5,37.8l-72.5,41.8C404.8,190.6,402.7,193.9,402.7,196.4z"/>
		<path class="st69" d="M402.8,196.4v85.4c0,2.5,2.1,3.4,4.6,1.9l47-27.1l91-52.5c2.5-1.5,4.6-4.7,4.6-7.2v-85.4
			c0-2.5-2.1-3.4-4.6-1.9l-65.5,37.8l-72.5,41.8C404.8,190.6,402.8,193.9,402.8,196.4z"/>
		<path class="st70" d="M402.8,196.4v85.4c0,2.5,2.1,3.4,4.6,1.9l47-27.1l91-52.6c2.5-1.4,4.6-4.7,4.6-7.2v-85.4
			c0-2.5-2.1-3.4-4.6-1.9l-65.5,37.8l-72.5,41.8C404.8,190.6,402.8,193.9,402.8,196.4z"/>
		<path class="st71" d="M402.8,196.4v85.4c0,2.5,2.1,3.4,4.6,1.9l47-27.1l91-52.5c2.5-1.5,4.6-4.7,4.6-7.2v-85.4
			c0-2.5-2.1-3.4-4.6-1.9l-65.5,37.8l-72.5,41.8C404.9,190.7,402.8,193.9,402.8,196.4z"/>
		<path class="st72" d="M402.8,196.4v85.4c0,2.5,2.1,3.4,4.6,1.9l47-27.1l91-52.6c2.5-1.4,4.6-4.7,4.6-7.2v-85.4
			c0-2.5-2.1-3.4-4.6-1.9l-65.5,37.8l-72.5,41.8C404.9,190.7,402.8,193.9,402.8,196.4z"/>
		<path class="st73" d="M402.8,196.4v85.4c0,2.5,2.1,3.4,4.6,1.9l46.9-27.1l91-52.6c2.5-1.5,4.6-4.7,4.6-7.2v-85.4
			c0-2.5-2.1-3.4-4.6-1.9l-65.5,37.8l-72.5,41.8C404.9,190.7,402.8,193.9,402.8,196.4z"/>
		<path class="st74" d="M402.9,196.5v85.4c0,2.5,2,3.4,4.6,1.9l46.9-27.1l91-52.6c2.5-1.4,4.6-4.7,4.6-7.2v-85.4
			c0-2.5-2.1-3.4-4.6-1.9l-65.5,37.8l-72.5,41.8C404.9,190.7,402.9,194,402.9,196.5z"/>
		<path class="st75" d="M402.9,196.5v85.4c0,2.5,2.1,3.4,4.6,1.9l46.9-27.1l91-52.6c2.5-1.4,4.6-4.7,4.6-7.2v-85.4
			c0-2.5-2.1-3.4-4.6-1.9l-65.5,37.8l-72.5,41.8C404.9,190.7,402.9,194,402.9,196.5z"/>
		<path class="st76" d="M402.9,196.5v85.4c0,2.5,2.1,3.4,4.6,1.9l46.9-27.1l91-52.5c2.5-1.5,4.6-4.7,4.6-7.2v-85.4
			c0-2.5-2.1-3.4-4.6-1.9l-65.5,37.8l-72.5,41.8C405,190.7,402.9,194,402.9,196.5z"/>
		<path class="st77" d="M402.9,196.5v85.4c0,2.5,2.1,3.4,4.6,1.9l47-27.1l91-52.6c2.6-1.4,4.6-4.7,4.6-7.2v-85.4
			c0-2.5-2-3.4-4.6-1.9L480,147.5l-72.5,41.8C405,190.8,402.9,194,402.9,196.5z"/>
		<path class="st78" d="M402.9,196.5v85.4c0,2.5,2.1,3.4,4.6,1.9l47-27.1l91-52.5c2.5-1.5,4.6-4.7,4.6-7.2v-85.4
			c0-2.5-2.1-3.4-4.6-1.9L480,147.5l-72.5,41.8C405,190.8,402.9,194,402.9,196.5z"/>
		<path class="st79" d="M403,196.5v85.4c0,2.5,2.1,3.4,4.6,1.9l47-27.1l91-52.6c2.5-1.4,4.6-4.7,4.6-7.2v-85.4
			c0-2.5-2.1-3.4-4.6-1.9L480,147.5l-72.5,41.8C405,190.8,403,194,403,196.5z"/>
		<path class="st80" d="M403,196.6v85.4c0,2.5,2.1,3.4,4.6,1.9l47-27.1l91-52.5c2.5-1.5,4.6-4.7,4.6-7.2v-85.4
			c0-2.5-2.1-3.4-4.6-1.9L480,147.5l-72.5,41.8C405,190.8,403,194,403,196.6z"/>
		<path class="st81" d="M403,196.6v85.4c0,2.5,2.1,3.4,4.6,1.9l47-27.1l91-52.6c2.5-1.4,4.6-4.7,4.6-7.2v-85.4
			c0-2.5-2.1-3.4-4.6-1.9L480,147.5l-72.5,41.8C405,190.8,403,194.1,403,196.6z"/>
		<path class="st82" d="M403,196.6V282c0,2.5,2.1,3.4,4.6,1.9l46.9-27.1l91-52.6c2.5-1.5,4.6-4.7,4.6-7.2v-85.4
			c0-2.5-2.1-3.4-4.6-1.9L480,147.5l-72.5,41.8C405.1,190.8,403,194.1,403,196.6z"/>
		<path class="st83" d="M403,196.6V282c0,2.5,2,3.4,4.6,1.9l46.9-27.1l91-52.6c2.5-1.4,4.6-4.7,4.6-7.2v-85.4c0-2.5-2.1-3.4-4.6-1.9
			L480,147.6l-72.4,41.8C405.1,190.8,403,194.1,403,196.6z"/>
		<path class="st84" d="M403,196.6V282c0,2.5,2.1,3.4,4.6,1.9l46.9-27.1l91-52.6c2.5-1.4,4.6-4.7,4.6-7.2v-85.4
			c0-2.5-2.1-3.4-4.6-1.9L480,147.6l-72.5,41.8C405.1,190.9,403,194.1,403,196.6z"/>
		<path class="st85" d="M403.1,196.6V282c0,2.5,2.1,3.4,4.6,1.9l46.9-27.1l91-52.5c2.5-1.5,4.6-4.7,4.6-7.2v-85.4
			c0-2.5-2.1-3.4-4.6-1.9l-65.5,37.8l-72.5,41.8C405.1,190.9,403.1,194.1,403.1,196.6z"/>
		<path class="st86" d="M403.1,196.6V282c0,2.5,2.1,3.4,4.6,1.9l46.9-27.1l91-52.6c2.5-1.4,4.6-4.7,4.6-7.2v-85.3
			c0-2.5-2-3.4-4.6-1.9l-65.5,37.8l-72.5,41.8C405.1,190.9,403.1,194.1,403.1,196.6z"/>
		<path class="st87" d="M403.1,196.7V282c0,2.5,2.1,3.4,4.6,1.9l47-27.1l91-52.5c2.5-1.5,4.6-4.7,4.6-7.2v-85.3
			c0-2.5-2.1-3.4-4.6-1.9l-65.5,37.8l-72.5,41.8C405.2,190.9,403.1,194.1,403.1,196.7z"/>
		<path class="st88" d="M403.1,196.7V282c0,2.5,2.1,3.4,4.6,1.9l47-27.1l91-52.6c2.5-1.4,4.6-4.7,4.6-7.2v-85.4
			c0-2.5-2.1-3.4-4.6-1.9l-65.5,37.8l-72.5,41.8C405.2,190.9,403.1,194.2,403.1,196.7z"/>
		<path class="st89" d="M403.1,196.7v85.4c0,2.5,2.1,3.4,4.6,1.9l47-27.1l91-52.5c2.5-1.5,4.6-4.7,4.6-7.2v-85.4
			c0-2.5-2.1-3.4-4.6-1.9l-65.5,37.8l-72.5,41.8C405.2,190.9,403.1,194.2,403.1,196.7z"/>
		<path class="st90" d="M403.2,196.7v85.4c0,2.5,2.1,3.4,4.6,1.9l47-27.1l91-52.6c2.5-1.4,4.6-4.7,4.6-7.2v-85.4
			c0-2.5-2.1-3.4-4.6-1.9l-65.5,37.8l-72.5,41.8C405.2,191,403.2,194.2,403.2,196.7z"/>
		<path class="st91" d="M403.2,196.7v85.4c0,2.5,2.1,3.4,4.6,1.9l46.9-27.1l91-52.6c2.5-1.4,4.6-4.7,4.6-7.2v-85.4
			c0-2.5-2.1-3.4-4.6-1.9l-65.5,37.8l-72.5,41.8C405.2,191,403.2,194.2,403.2,196.7z"/>
		<path class="st92" d="M403.2,196.7v85.4c0,2.5,2,3.4,4.6,1.9l46.9-27.1l91-52.6c2.5-1.4,4.6-4.7,4.6-7.2v-85.4
			c0-2.5-2.1-3.4-4.6-1.9l-65.5,37.8l-72.5,41.8C405.2,191,403.2,194.2,403.2,196.7z"/>
		<path class="st14" d="M403.2,196.8v85.4c0,2.5,2.1,3.4,4.6,1.9l46.9-27.1l91-52.6c2.5-1.4,4.6-4.7,4.6-7.2v-85.4
			c0-2.5-2.1-3.4-4.6-1.9l-65.5,37.8l-72.5,41.8C405.3,191,403.2,194.2,403.2,196.8z"/>
		<polygon class="st93" points="407.4,197.2 407.4,279.5 546.9,198.4 547,116.6 		"/>
		<path class="st15" d="M546.5,117c0.5-0.3,1-0.1,1,0.6l0.2,79.9c0,0.7-0.4,1.3-1,1.7l-138.5,80c-0.5,0.3-1,0.1-1-0.6l-0.1-79.9
			c0-0.7,0.4-1.3,1-1.7L546.5,117z"/>

			<linearGradient id="SVGID_3_" gradientUnits="userSpaceOnUse" x1="-1939.3766" y1="-1850.0918" x2="-1941.2167" y2="-1848.2417" gradientTransform="matrix(-1 0.58 0 -1 -1462.64 -571.61)">
			<stop  offset="0" style="stop-color:#616161"/>
			<stop  offset="0.58" style="stop-color:#000000"/>
		</linearGradient>
		<path class="st94" d="M475.5,154.4c0.1-0.9,0.6-1.6,1.3-2.1c0.7-0.4,1.3-0.2,1.3,0.6c-0.1,0.8-0.6,1.6-1.3,2
			C476,155.3,475.5,155.1,475.5,154.4z"/>
		<path class="st95" d="M475.6,154c0-0.5,0.3-0.9,0.7-1.1c0.4-0.2,0.7-0.1,0.7,0.3c0,0.5-0.3,0.9-0.7,1.1
			C475.9,154.6,475.6,154.4,475.6,154z"/>
		<path class="st14" d="M406.8,286.1v0.3c0.2,1.3,1,2.5,2.2,3l85.1,49.1c3.3,1.7,7.3,1.7,10.6,0L642.3,259c1.2-0.5,2-1.7,2.2-3v-0.2
			c-0.2-1.3-1-2.4-2.2-2.9l-85.1-49.1c-3.3-1.7-7.3-1.7-10.6,0L409,283.2C407.8,283.7,407,284.8,406.8,286.1z"/>
		<path class="st96" d="M425.3,285.2c0.2,0.6,0.6,1.2,1.2,1.5l48.6,28c2,1,4.3,1,6.2,0L603,244.5c0.6-0.3,1.1-0.8,1.2-1.5
			c0.1-0.9-0.4-1.8-1.2-2.1l-48.6-28c-2-1-4.3-1-6.2,0l-121.6,70.2C425.7,283.4,425.2,284.3,425.3,285.2z"/>

			<linearGradient id="SVGID_4_" gradientUnits="userSpaceOnUse" x1="522.6534" y1="213.5699" x2="591.1204" y2="213.5699" gradientTransform="matrix(1 0 0 -1 0 502)">
			<stop  offset="0" style="stop-color:#000000"/>
			<stop  offset="0.13" style="stop-color:#050207"/>
			<stop  offset="0.32" style="stop-color:#13081B"/>
			<stop  offset="0.54" style="stop-color:#29123B"/>
			<stop  offset="0.79" style="stop-color:#482067"/>
			<stop  offset="1" style="stop-color:#662D91"/>
		</linearGradient>
		<path class="st97" d="M522.7,293c0.1,0.3,0.3,0.5,0.6,0.6l24.5,14.2c0.9,0.4,1.9,0.4,2.8,0l39.9-23c0.3-0.1,0.5-0.4,0.5-0.6
			c0.1-0.4-0.1-0.7-0.5-1L566,269c-0.9-0.4-1.9-0.4-2.8,0l-39.9,23C522.8,292.3,522.6,292.7,522.7,293z"/>
		<path class="st96" d="M522.7,293c0.1,0.3,0.3,0.5,0.6,0.6l24.5,14.2c0.9,0.4,1.9,0.4,2.8,0l39.9-23c0.3-0.1,0.5-0.4,0.5-0.6
			c-0.1-0.3-0.3-0.5-0.5-0.6L566,269.4c-0.9-0.4-1.9-0.4-2.8,0l-39.9,23C523,292.5,522.8,292.8,522.7,293z"/>
		<g>
			<path class="st98" d="M442.6,293.6c-0.4,0.2-1,0.2-1.4,0l-5.9-3.4c-0.2-0.1-0.3-0.3-0.3-0.5c0-0.1,0.1-0.2,0.3-0.3l7.3-4.2
				c0.4-0.2,1-0.2,1.4,0l5.9,3.4c0.2,0.1,0.3,0.3,0.3,0.5c0,0.1-0.1,0.2-0.3,0.3L442.6,293.6z"/>
			<path class="st98" d="M550.5,231.3c-0.4,0.2-1,0.2-1.4,0l-5.9-3.4c-0.2-0.1-0.3-0.3-0.3-0.5c0-0.1,0.1-0.2,0.3-0.3l15.5-9
				c0.4-0.2,1-0.2,1.4,0l5.9,3.4c0.2,0.1,0.3,0.3,0.3,0.5c0,0.1-0.1,0.2-0.3,0.3L550.5,231.3z"/>
			<path class="st98" d="M562.7,233.6c-0.4,0.2-1,0.2-1.4,0l-5.9-3.4c-0.2-0.1-0.3-0.3-0.3-0.5c0-0.1,0.1-0.2,0.3-0.3l11.4-6.6
				c0.4-0.2,1-0.2,1.4,0l5.9,3.4c0.2,0.1,0.3,0.3,0.3,0.5c0,0.1-0.1,0.2-0.3,0.3L562.7,233.6z"/>
			<path class="st98" d="M564.9,242.1c-0.4,0.2-1,0.2-1.4,0l-5.9-3.4c-0.2-0.1-0.3-0.3-0.3-0.5c0-0.1,0.1-0.2,0.3-0.3l17.6-10.2
				c0.4-0.2,1-0.2,1.4,0l5.9,3.4c0.4,0.2,0.4,0.6,0,0.8L564.9,242.1z"/>
			<path class="st98" d="M569.2,249.3c-0.4,0.2-1,0.2-1.4,0l-5.9-3.4c-0.2-0.1-0.3-0.3-0.3-0.5c0-0.1,0.1-0.2,0.3-0.3l21.7-12.6
				c0.4-0.2,1-0.2,1.4,0l5.9,3.4c0.2,0.1,0.3,0.3,0.3,0.5c0,0.1-0.1,0.2-0.3,0.3L569.2,249.3z"/>
			<path class="st98" d="M450.7,298.3c-0.4,0.2-1,0.2-1.4,0l-5.9-3.4c-0.2-0.1-0.3-0.3-0.3-0.5c0-0.1,0.1-0.2,0.3-0.3l11.4-6.6
				c0.4-0.2,1-0.2,1.4,0l5.9,3.4c0.2,0.1,0.3,0.3,0.3,0.5c0,0.1-0.1,0.2-0.3,0.3L450.7,298.3z"/>
			<path class="st98" d="M458.8,303c-0.4,0.2-1,0.2-1.4,0l-5.9-3.4c-0.4-0.2-0.4-0.6,0-0.8L465,291c0.4-0.2,1-0.2,1.4,0l5.9,3.4
				c0.2,0.1,0.3,0.3,0.3,0.5c0,0.1-0.1,0.2-0.3,0.3L458.8,303z"/>
			<path class="st98" d="M467,307.6c-0.4,0.2-1,0.2-1.4,0l-5.9-3.4c-0.2-0.1-0.3-0.3-0.3-0.5c0-0.1,0.1-0.2,0.3-0.3l17.5-10.1
				c0.4-0.2,1-0.2,1.4,0l5.9,3.4c0.2,0.1,0.3,0.3,0.3,0.5c0,0.1-0.1,0.2-0.3,0.3L467,307.6z"/>
			<path class="st98" d="M475,312.3c-0.4,0.2-1,0.2-1.4,0l-5.9-3.4c-0.2-0.1-0.3-0.3-0.3-0.5c0-0.1,0.1-0.2,0.3-0.3l9.3-5.4
				c0.4-0.2,1-0.2,1.4,0l5.9,3.4c0.2,0.1,0.3,0.3,0.3,0.5c0,0.1-0.1,0.2-0.3,0.3L475,312.3z"/>
			<path class="st98" d="M510.9,291.6c-0.4,0.2-1,0.2-1.4,0l-5.9-3.4c-0.2-0.1-0.3-0.3-0.3-0.5c0-0.1,0.1-0.2,0.3-0.3l38.8-22.4
				c0.4-0.2,1-0.2,1.4,0l5.9,3.4c0.2,0.1,0.3,0.3,0.3,0.5c0,0.1-0.1,0.2-0.3,0.3L510.9,291.6z"/>
			<path class="st98" d="M434.5,288.9c-0.4,0.2-1,0.2-1.4,0l-4.5-2.6c-0.2-0.1-0.3-0.3-0.3-0.5c0-0.1,0.1-0.2,0.3-0.3l5.5-3.2
				c0.4-0.2,1-0.2,1.4,0l4.5,2.6c0.2,0.1,0.3,0.3,0.3,0.5c0,0.1-0.1,0.2-0.3,0.3L434.5,288.9z"/>
			<path class="st98" d="M442.2,284.5c-0.4,0.2-1,0.2-1.4,0l-4.5-2.6c-0.2-0.1-0.3-0.3-0.3-0.5c0-0.1,0.1-0.2,0.3-0.3l5.5-3.2
				c0.4-0.2,1-0.2,1.4,0l4.5,2.6c0.2,0.1,0.3,0.3,0.3,0.5c0,0.1-0.1,0.2-0.3,0.3L442.2,284.5z"/>
			<path class="st98" d="M449.5,280.3c-0.4,0.2-1,0.2-1.4,0l-4.5-2.6c-0.2-0.1-0.3-0.3-0.3-0.5c0-0.1,0.1-0.2,0.3-0.3l5.5-3.2
				c0.4-0.2,1-0.2,1.4,0l4.5,2.6c0.2,0.1,0.3,0.3,0.3,0.5c0,0.1-0.1,0.2-0.3,0.3L449.5,280.3z"/>
			<path class="st98" d="M456.8,276c-0.4,0.2-1,0.2-1.4,0l-4.4-2.6c-0.2-0.1-0.3-0.3-0.3-0.5c0-0.1,0.1-0.2,0.3-0.3l5.5-3.2
				c0.4-0.2,1-0.2,1.4,0l4.5,2.6c0.2,0.1,0.3,0.3,0.3,0.5c0,0.1-0.1,0.2-0.3,0.3L456.8,276z"/>
			<path class="st98" d="M464.1,271.8c-0.4,0.2-1,0.2-1.4,0l-4.5-2.6c-0.2-0.1-0.3-0.3-0.3-0.5c0-0.1,0.1-0.2,0.3-0.3l5.5-3.2
				c0.4-0.2,1-0.2,1.4,0l4.5,2.6c0.2,0.1,0.3,0.3,0.3,0.5c0,0.1-0.1,0.2-0.3,0.3L464.1,271.8z"/>
			<path class="st98" d="M471.4,267.6c-0.4,0.2-1,0.2-1.4,0l-4.4-2.6c-0.2-0.1-0.3-0.3-0.3-0.5c0-0.1,0.1-0.2,0.3-0.3l5.5-3.2
				c0.4-0.2,1-0.2,1.4,0l4.5,2.6c0.2,0.1,0.3,0.3,0.3,0.5c0,0.1-0.1,0.2-0.3,0.3L471.4,267.6z"/>
			<path class="st98" d="M478.8,263.4c-0.4,0.2-1,0.2-1.4,0l-4.5-2.6c-0.2-0.1-0.3-0.3-0.3-0.5c0-0.1,0.1-0.2,0.3-0.3l5.5-3.2
				c0.4-0.2,1-0.2,1.4,0l4.5,2.6c0.2,0.1,0.3,0.3,0.3,0.5c0,0.1-0.1,0.2-0.3,0.3L478.8,263.4z"/>
			<path class="st98" d="M486.1,259.2c-0.4,0.2-1,0.2-1.4,0l-4.5-2.6c-0.4-0.2-0.4-0.6,0-0.8l5.5-3.2c0.4-0.2,1-0.2,1.4,0l4.5,2.6
				c0.2,0.1,0.3,0.3,0.3,0.5c0,0.1-0.1,0.2-0.3,0.3L486.1,259.2z"/>
			<path class="st98" d="M493.4,255c-0.4,0.2-1,0.2-1.4,0l-4.5-2.6c-0.2-0.1-0.3-0.3-0.3-0.5c0-0.1,0.1-0.2,0.3-0.3l5.5-3.2
				c0.4-0.2,1-0.2,1.4,0l4.5,2.6c0.2,0.1,0.3,0.3,0.3,0.5c0,0.1-0.1,0.2-0.3,0.3L493.4,255z"/>
			<path class="st98" d="M500.7,250.7c-0.4,0.2-1,0.2-1.4,0l-4.5-2.6c-0.2-0.1-0.3-0.3-0.3-0.5c0-0.1,0.1-0.2,0.3-0.3l5.5-3.2
				c0.4-0.2,1-0.2,1.4,0l4.5,2.6c0.2,0.1,0.3,0.3,0.3,0.5c0,0.1-0.1,0.2-0.3,0.3L500.7,250.7z"/>
			<path class="st98" d="M508,246.5c-0.4,0.2-1,0.2-1.4,0l-4.5-2.5c-0.2-0.1-0.3-0.3-0.3-0.5c0-0.1,0.1-0.2,0.3-0.3l5.5-3.2
				c0.4-0.2,1-0.2,1.4,0l4.5,2.6c0.2,0.1,0.3,0.3,0.3,0.5c0,0.1-0.1,0.2-0.3,0.3L508,246.5z"/>
			<path class="st98" d="M515.3,242.3c-0.4,0.2-1,0.2-1.4,0l-4.5-2.6c-0.2-0.1-0.3-0.3-0.3-0.5c0-0.1,0.1-0.2,0.3-0.3l5.5-3.2
				c0.4-0.2,1-0.2,1.4,0l4.5,2.6c0.2,0.1,0.3,0.3,0.3,0.5c0,0.1-0.1,0.2-0.3,0.3L515.3,242.3z"/>
			<path class="st98" d="M522.6,238.1c-0.4,0.2-1,0.2-1.4,0l-4.5-2.6c-0.4-0.2-0.4-0.6,0-0.8l5.5-3.2c0.4-0.2,1-0.2,1.4,0l4.5,2.6
				c0.2,0.1,0.3,0.3,0.3,0.5c0,0.1-0.1,0.2-0.3,0.3L522.6,238.1z"/>
			<path class="st98" d="M530.5,233.5c-0.4,0.2-1,0.2-1.4,0l-4.5-2.6c-0.2-0.1-0.3-0.3-0.3-0.5c0-0.1,0.1-0.2,0.3-0.3l5.5-3.2
				c0.4-0.2,1-0.2,1.4,0l4.5,2.6c0.2,0.1,0.3,0.3,0.3,0.5c0,0.1-0.1,0.2-0.3,0.3L530.5,233.5z"/>
			<path class="st98" d="M537.8,229.3c-0.4,0.2-1,0.2-1.4,0l-4.4-2.6c-0.2-0.1-0.3-0.3-0.3-0.5c0-0.1,0.1-0.2,0.3-0.3l5.5-3.2
				c0.4-0.2,1-0.2,1.4,0l4.5,2.6c0.2,0.1,0.3,0.3,0.3,0.5c0,0.1-0.1,0.2-0.3,0.3L537.8,229.3z"/>
			<path class="st98" d="M545.1,225.1c-0.4,0.2-1,0.2-1.4,0l-4.5-2.6c-0.2-0.1-0.3-0.3-0.3-0.5c0-0.1,0.1-0.2,0.3-0.3l5.5-3.2
				c0.4-0.2,1-0.2,1.4,0l4.5,2.6c0.2,0.1,0.3,0.3,0.3,0.5c0,0.1-0.1,0.2-0.3,0.3L545.1,225.1z"/>
			<path class="st98" d="M552.4,220.9c-0.4,0.2-1,0.2-1.4,0l-4.5-2.6c-0.2-0.1-0.3-0.3-0.3-0.5c0-0.1,0.1-0.2,0.3-0.3l5.5-3.2
				c0.4-0.2,1-0.2,1.4,0l4.5,2.6c0.2,0.1,0.3,0.3,0.3,0.5c0,0.1-0.1,0.2-0.3,0.3L552.4,220.9z"/>
			<path class="st98" d="M452.1,288.1c-0.4,0.2-1,0.2-1.4,0l-5.9-3.4c-0.2-0.1-0.3-0.3-0.3-0.5c0-0.1,0.1-0.2,0.3-0.3l5.9-3.4
				c0.4-0.2,1-0.2,1.4,0l5.9,3.4c0.2,0.1,0.3,0.3,0.3,0.5c0,0.1-0.1,0.2-0.3,0.3L452.1,288.1z"/>
			<path class="st98" d="M468.6,278.6c-0.4,0.2-1,0.2-1.4,0l-5.9-3.4c-0.2-0.1-0.3-0.3-0.3-0.5c0-0.1,0.1-0.2,0.3-0.3l5.9-3.4
				c0.4-0.2,1-0.2,1.4,0l5.9,3.4c0.2,0.1,0.3,0.3,0.3,0.5c0,0.1-0.1,0.2-0.3,0.3L468.6,278.6z"/>
			<path class="st98" d="M460.3,283.4c-0.4,0.2-1,0.2-1.4,0L453,280c-0.2-0.1-0.3-0.3-0.3-0.5c0-0.1,0.1-0.2,0.3-0.3l5.9-3.4
				c0.4-0.2,1-0.2,1.4,0l5.9,3.4c0.2,0.1,0.3,0.3,0.3,0.5c0,0.1-0.1,0.2-0.3,0.3L460.3,283.4z"/>
			<path class="st98" d="M476.8,273.9c-0.4,0.2-1,0.2-1.4,0l-5.9-3.4c-0.2-0.1-0.3-0.3-0.3-0.5c0-0.1,0.1-0.2,0.3-0.3l5.9-3.4
				c0.4-0.2,1-0.2,1.4,0l5.9,3.4c0.2,0.1,0.3,0.3,0.3,0.5c0,0.1-0.1,0.2-0.3,0.3L476.8,273.9z"/>
			<path class="st98" d="M485,269.1c-0.4,0.2-1,0.2-1.4,0l-5.9-3.4c-0.2-0.1-0.3-0.3-0.3-0.5c0-0.1,0.1-0.2,0.3-0.3l5.9-3.4
				c0.4-0.2,1-0.2,1.4,0l5.9,3.4c0.2,0.1,0.3,0.3,0.3,0.5c0,0.1-0.1,0.2-0.3,0.3L485,269.1z"/>
			<path class="st98" d="M493.2,264.4c-0.4,0.2-1,0.2-1.4,0l-5.9-3.4c-0.2-0.1-0.3-0.3-0.3-0.5c0-0.1,0.1-0.2,0.3-0.3l5.9-3.4
				c0.4-0.2,1-0.2,1.4,0l5.9,3.4c0.2,0.1,0.3,0.3,0.3,0.5c0,0.1-0.1,0.2-0.3,0.3L493.2,264.4z"/>
			<path class="st98" d="M501.5,259.6c-0.4,0.2-1,0.2-1.4,0l-5.9-3.4c-0.2-0.1-0.3-0.3-0.3-0.5c0-0.1,0.1-0.2,0.3-0.3l5.9-3.4
				c0.4-0.2,1-0.2,1.4,0l5.9,3.4c0.2,0.1,0.3,0.3,0.3,0.5c0,0.1-0.1,0.2-0.3,0.3L501.5,259.6z"/>
			<path class="st98" d="M509.7,254.9c-0.4,0.2-1,0.2-1.4,0l-5.9-3.4c-0.2-0.1-0.3-0.3-0.3-0.5c0-0.1,0.1-0.2,0.3-0.3l5.9-3.4
				c0.4-0.2,1-0.2,1.4,0l5.9,3.4c0.4,0.2,0.4,0.6,0,0.8L509.7,254.9z"/>
			<path class="st98" d="M517.9,250.2c-0.4,0.2-1,0.2-1.4,0l-5.9-3.4c-0.2-0.1-0.3-0.3-0.3-0.5c0-0.1,0.1-0.2,0.3-0.3l5.9-3.4
				c0.4-0.2,1-0.2,1.4,0l5.9,3.4c0.2,0.1,0.3,0.3,0.3,0.5c0,0.1-0.1,0.2-0.3,0.3L517.9,250.2z"/>
			<path class="st98" d="M526.1,245.4c-0.4,0.2-1,0.2-1.4,0l-5.9-3.4c-0.2-0.1-0.3-0.3-0.3-0.5c0-0.1,0.1-0.2,0.3-0.3l5.9-3.4
				c0.4-0.2,1-0.2,1.4,0l5.9,3.4c0.2,0.1,0.3,0.3,0.3,0.5c0,0.1-0.1,0.2-0.3,0.3L526.1,245.4z"/>
			<path class="st98" d="M534.3,240.7c-0.4,0.2-1,0.2-1.4,0l-5.9-3.4c-0.4-0.2-0.4-0.6,0-0.8l5.9-3.4c0.4-0.2,1-0.2,1.4,0l5.9,3.4
				c0.2,0.1,0.3,0.3,0.3,0.5c0,0.1-0.1,0.2-0.3,0.3L534.3,240.7z"/>
			<path class="st98" d="M542.5,235.9c-0.4,0.2-1,0.2-1.4,0l-5.9-3.4c-0.2-0.1-0.3-0.3-0.3-0.5c0-0.1,0.1-0.2,0.3-0.3l5.9-3.4
				c0.4-0.2,1-0.2,1.4,0l5.9,3.4c0.2,0.1,0.3,0.3,0.3,0.5c0,0.1-0.1,0.2-0.3,0.3L542.5,235.9z"/>
			<path class="st98" d="M464.3,290.5c-0.4,0.2-1,0.2-1.4,0L457,287c-0.2-0.1-0.3-0.3-0.3-0.5c0-0.1,0.1-0.2,0.3-0.3l5.9-3.4
				c0.4-0.2,1-0.2,1.4,0l5.9,3.4c0.2,0.1,0.3,0.3,0.3,0.5c0,0.1-0.1,0.2-0.3,0.3L464.3,290.5z"/>
			<path class="st98" d="M472.5,285.7c-0.4,0.2-1,0.2-1.4,0l-5.9-3.4c-0.2-0.1-0.3-0.3-0.3-0.5c0-0.1,0.1-0.2,0.3-0.3l5.9-3.4
				c0.4-0.2,1-0.2,1.4,0l5.9,3.4c0.2,0.1,0.3,0.3,0.3,0.5c0,0.1-0.1,0.2-0.3,0.3L472.5,285.7z"/>
			<path class="st98" d="M480.7,281c-0.4,0.2-1,0.2-1.4,0l-5.9-3.4c-0.4-0.2-0.4-0.6,0-0.8l5.9-3.4c0.4-0.2,1-0.2,1.4,0l5.9,3.4
				c0.2,0.1,0.3,0.3,0.3,0.5c0,0.1-0.1,0.2-0.3,0.3L480.7,281z"/>
			<path class="st98" d="M489,276.2c-0.4,0.2-1,0.2-1.4,0l-5.9-3.4c-0.2-0.1-0.3-0.3-0.3-0.5c0-0.1,0.1-0.2,0.3-0.3l5.9-3.4
				c0.4-0.2,1-0.2,1.4,0l5.9,3.4c0.2,0.1,0.3,0.3,0.3,0.5c0,0.1-0.1,0.2-0.3,0.3L489,276.2z"/>
			<path class="st98" d="M497.2,271.5c-0.4,0.2-1,0.2-1.4,0l-5.9-3.4c-0.2-0.1-0.3-0.3-0.3-0.5c0-0.1,0.1-0.2,0.3-0.3l5.9-3.4
				c0.4-0.2,1-0.2,1.4,0l5.9,3.4c0.2,0.1,0.3,0.3,0.3,0.5c0,0.1-0.1,0.2-0.3,0.3L497.2,271.5z"/>
			<path class="st98" d="M505.4,266.7c-0.4,0.2-1,0.2-1.4,0l-5.9-3.4c-0.2-0.1-0.3-0.3-0.3-0.5c0-0.1,0.1-0.2,0.3-0.3l5.9-3.4
				c0.4-0.2,1-0.2,1.4,0l5.9,3.4c0.2,0.1,0.3,0.3,0.3,0.5c0,0.1-0.1,0.2-0.3,0.3L505.4,266.7z"/>
			<path class="st98" d="M513.6,262c-0.4,0.2-1,0.2-1.4,0l-5.9-3.4c-0.2-0.1-0.3-0.3-0.3-0.5c0-0.1,0.1-0.2,0.3-0.3l5.9-3.4
				c0.4-0.2,1-0.2,1.4,0l5.9,3.4c0.2,0.1,0.3,0.3,0.3,0.5c0,0.1-0.1,0.2-0.3,0.3L513.6,262z"/>
			<path class="st98" d="M521.8,257.2c-0.4,0.2-1,0.2-1.4,0l-5.9-3.4c-0.2-0.1-0.3-0.3-0.3-0.5c0-0.1,0.1-0.2,0.3-0.3l5.9-3.4
				c0.4-0.2,1-0.2,1.4,0l5.9,3.4c0.2,0.1,0.3,0.3,0.3,0.5c0,0.1-0.1,0.2-0.3,0.3L521.8,257.2z"/>
			<path class="st98" d="M530.1,252.5c-0.4,0.2-1,0.2-1.4,0l-5.9-3.4c-0.2-0.1-0.3-0.3-0.3-0.5c0-0.1,0.1-0.2,0.3-0.3l5.9-3.4
				c0.4-0.2,1-0.2,1.4,0l5.9,3.4c0.2,0.1,0.3,0.3,0.3,0.5c0,0.1-0.1,0.2-0.3,0.3L530.1,252.5z"/>
			<path class="st98" d="M538.3,247.8c-0.4,0.2-1,0.2-1.4,0l-5.9-3.4c-0.2-0.1-0.3-0.3-0.3-0.5c0-0.1,0.1-0.2,0.3-0.3l5.9-3.4
				c0.4-0.2,1-0.2,1.4,0l5.9,3.4c0.4,0.2,0.4,0.6,0,0.8L538.3,247.8z"/>
			<path class="st98" d="M546.5,243c-0.4,0.2-1,0.2-1.4,0l-5.9-3.4c-0.2-0.1-0.3-0.3-0.3-0.5c0-0.1,0.1-0.2,0.3-0.3l5.9-3.4
				c0.4-0.2,1-0.2,1.4,0l5.9,3.4c0.2,0.1,0.3,0.3,0.3,0.5c0,0.1-0.1,0.2-0.3,0.3L546.5,243z"/>
			<path class="st98" d="M554.7,238.2c-0.4,0.2-1,0.2-1.4,0l-5.9-3.4c-0.2-0.1-0.3-0.3-0.3-0.5c0-0.1,0.1-0.2,0.3-0.3l5.9-3.4
				c0.4-0.2,1-0.2,1.4,0l5.9,3.4c0.2,0.1,0.3,0.3,0.3,0.5c0,0.1-0.1,0.2-0.3,0.3L554.7,238.2z"/>
			<path class="st98" d="M474.4,294.3c-0.4,0.2-1,0.2-1.4,0l-5.9-3.4c-0.2-0.1-0.3-0.3-0.3-0.5c0-0.1,0.1-0.2,0.3-0.3l5.9-3.4
				c0.4-0.2,1-0.2,1.4,0l5.9,3.4c0.2,0.1,0.3,0.3,0.3,0.5c0,0.1-0.1,0.2-0.3,0.3L474.4,294.3z"/>
			<path class="st98" d="M482.6,289.6c-0.4,0.2-1,0.2-1.4,0l-5.9-3.4c-0.2-0.1-0.3-0.3-0.3-0.5c0-0.1,0.1-0.2,0.3-0.3l5.9-3.4
				c0.4-0.2,1-0.2,1.4,0l5.9,3.4c0.4,0.2,0.4,0.6,0,0.8L482.6,289.6z"/>
			<path class="st98" d="M490.9,284.8c-0.4,0.2-1,0.2-1.4,0l-5.9-3.4c-0.2-0.1-0.3-0.3-0.3-0.5c0-0.1,0.1-0.2,0.3-0.3l5.9-3.4
				c0.4-0.2,1-0.2,1.4,0l5.9,3.4c0.2,0.1,0.3,0.3,0.3,0.5c0,0.1-0.1,0.2-0.3,0.3L490.9,284.8z"/>
			<path class="st98" d="M499.1,280.1c-0.4,0.2-1,0.2-1.4,0l-5.9-3.4c-0.2-0.1-0.3-0.3-0.3-0.5c0-0.1,0.1-0.2,0.3-0.3l5.9-3.4
				c0.4-0.2,1-0.2,1.4,0l5.9,3.4c0.2,0.1,0.3,0.3,0.3,0.5c0,0.1-0.1,0.2-0.3,0.3L499.1,280.1z"/>
			<path class="st98" d="M507.3,275.3c-0.4,0.2-1,0.2-1.4,0l-5.9-3.4c-0.2-0.1-0.3-0.3-0.3-0.5c0-0.1,0.1-0.2,0.3-0.3l5.9-3.4
				c0.4-0.2,1-0.2,1.4,0l5.9,3.4c0.2,0.1,0.3,0.3,0.3,0.5c0,0.1-0.1,0.2-0.3,0.3L507.3,275.3z"/>
			<path class="st98" d="M515.5,270.6c-0.4,0.2-1,0.2-1.4,0l-5.9-3.4c-0.2-0.1-0.3-0.3-0.3-0.5c0-0.1,0.1-0.2,0.3-0.3l5.9-3.4
				c0.4-0.2,1-0.2,1.4,0l5.9,3.4c0.2,0.1,0.3,0.3,0.3,0.5c0,0.1-0.1,0.2-0.3,0.3L515.5,270.6z"/>
			<path class="st98" d="M523.8,265.8c-0.4,0.2-1,0.2-1.4,0l-5.9-3.4c-0.2-0.1-0.3-0.3-0.3-0.5c0-0.1,0.1-0.2,0.3-0.3l5.9-3.4
				c0.4-0.2,1-0.2,1.4,0l5.9,3.4c0.2,0.1,0.3,0.3,0.3,0.5c0,0.1-0.1,0.2-0.3,0.3L523.8,265.8z"/>
			<path class="st98" d="M532,261.1c-0.4,0.2-1,0.2-1.4,0l-5.9-3.4c-0.2-0.1-0.3-0.3-0.3-0.5c0-0.1,0.1-0.2,0.3-0.3l5.9-3.4
				c0.4-0.2,1-0.2,1.4,0l5.9,3.4c0.2,0.1,0.3,0.3,0.3,0.5c0,0.1-0.1,0.2-0.3,0.3L532,261.1z"/>
			<path class="st98" d="M540.2,256.3c-0.4,0.2-1,0.2-1.4,0l-5.9-3.4c-0.2-0.1-0.3-0.3-0.3-0.5c0-0.1,0.1-0.2,0.3-0.3l5.9-3.4
				c0.4-0.2,1-0.2,1.4,0l5.9,3.4c0.2,0.1,0.3,0.3,0.3,0.5c0,0.1-0.1,0.2-0.3,0.3L540.2,256.3z"/>
			<path class="st98" d="M548.4,251.6c-0.4,0.2-1,0.2-1.4,0l-5.9-3.4c-0.2-0.1-0.3-0.3-0.3-0.5c0-0.1,0.1-0.2,0.3-0.3l5.9-3.4
				c0.4-0.2,1-0.2,1.4,0l5.9,3.4c0.2,0.1,0.3,0.3,0.3,0.5c0,0.1-0.1,0.2-0.3,0.3L548.4,251.6z"/>
			<path class="st98" d="M556.6,246.8c-0.4,0.2-1,0.2-1.4,0l-5.9-3.4c-0.2-0.1-0.3-0.3-0.3-0.5c0-0.1,0.1-0.2,0.3-0.3l5.9-3.4
				c0.4-0.2,1-0.2,1.4,0l5.9,3.4c0.2,0.1,0.3,0.3,0.3,0.5c0,0.1-0.1,0.2-0.3,0.3L556.6,246.8z"/>
			<path class="st98" d="M494.9,291.5c-0.4,0.2-1,0.2-1.4,0l-5.9-3.4c-0.2-0.1-0.3-0.3-0.3-0.5c0-0.1,0.1-0.2,0.3-0.3l5.9-3.4
				c0.4-0.2,1-0.2,1.4,0l5.9,3.4c0.2,0.1,0.3,0.3,0.3,0.5c0,0.1-0.1,0.2-0.3,0.3L494.9,291.5z"/>
			<path class="st98" d="M503.1,286.8c-0.4,0.2-1,0.2-1.4,0l-5.9-3.4c-0.2-0.1-0.3-0.3-0.3-0.5c0-0.1,0.1-0.2,0.3-0.3l5.9-3.4
				c0.4-0.2,1-0.2,1.4,0l5.9,3.4c0.2,0.1,0.3,0.3,0.3,0.5c0,0.1-0.1,0.2-0.3,0.3L503.1,286.8z"/>
			<path class="st98" d="M486.3,305.9c-0.4,0.2-1,0.2-1.4,0l-5.9-3.4c-0.2-0.1-0.3-0.3-0.3-0.5c0-0.1,0.1-0.2,0.3-0.3l5.9-3.4
				c0.4-0.2,1-0.2,1.4,0l5.9,3.4c0.4,0.2,0.4,0.6,0,0.8L486.3,305.9z"/>
			<path class="st98" d="M494.5,301.1c-0.4,0.2-1,0.2-1.4,0l-5.9-3.4c-0.2-0.1-0.3-0.3-0.3-0.5c0-0.1,0.1-0.2,0.3-0.3l5.9-3.4
				c0.4-0.2,1-0.2,1.4,0l5.9,3.4c0.2,0.1,0.3,0.3,0.3,0.5c0,0.1-0.1,0.2-0.3,0.3L494.5,301.1z"/>
			<path class="st98" d="M502.7,296.4c-0.4,0.2-1,0.2-1.4,0l-5.9-3.4c-0.2-0.1-0.3-0.3-0.3-0.5c0-0.1,0.1-0.2,0.3-0.3l5.9-3.4
				c0.4-0.2,1-0.2,1.4,0l5.9,3.4c0.2,0.1,0.3,0.3,0.3,0.5c0,0.1-0.1,0.2-0.3,0.3L502.7,296.4z"/>
			<path class="st98" d="M552.4,267.7c-0.4,0.2-1,0.2-1.4,0l-6-3.4c-0.2-0.1-0.3-0.3-0.3-0.5c0-0.1,0.1-0.2,0.3-0.3l5.9-3.4
				c0.4-0.2,1-0.2,1.4,0l5.9,3.4c0.4,0.2,0.4,0.6,0,0.8L552.4,267.7z"/>
			<path class="st98" d="M560.6,263c-0.4,0.2-1,0.2-1.4,0l-5.9-3.4c-0.2-0.1-0.3-0.3-0.3-0.5c0-0.1,0.1-0.2,0.3-0.3l5.9-3.4
				c0.4-0.2,1-0.2,1.4,0l5.9,3.4c0.2,0.1,0.3,0.3,0.3,0.5c0,0.1-0.1,0.2-0.3,0.3L560.6,263z"/>
			<path class="st98" d="M568.8,258.2c-0.4,0.2-1,0.2-1.4,0l-5.9-3.4c-0.2-0.1-0.3-0.3-0.3-0.5c0-0.1,0.1-0.2,0.3-0.3l5.9-3.4
				c0.4-0.2,1-0.2,1.4,0l5.9,3.4c0.2,0.1,0.3,0.3,0.3,0.5c0,0.1-0.1,0.2-0.3,0.3L568.8,258.2z"/>
			<path class="st98" d="M583.2,248.2c-0.4,0.2-1,0.2-1.4,0l-4.5-2.6c-0.2-0.1-0.3-0.3-0.3-0.5c0-0.1,0.1-0.2,0.3-0.3l5.9-3.4
				c0.4-0.2,1-0.2,1.4,0l4.5,2.6c0.2,0.1,0.3,0.3,0.3,0.5c0,0.1-0.1,0.2-0.3,0.3L583.2,248.2z"/>
			<path class="st98" d="M588.6,251.4c-0.4,0.2-1,0.2-1.4,0l-4.5-2.6c-0.2-0.1-0.3-0.3-0.3-0.5c0-0.1,0.1-0.2,0.3-0.3l5.9-3.4
				c0.4-0.2,1-0.2,1.4,0l4.5,2.6c0.2,0.1,0.3,0.3,0.3,0.5c0,0.1-0.1,0.2-0.3,0.3L588.6,251.4z"/>
			<path class="st98" d="M580.7,255.9c-0.4,0.2-1,0.2-1.4,0l-4.5-2.6c-0.2-0.1-0.3-0.3-0.3-0.5c0-0.1,0.1-0.2,0.3-0.3l5.9-3.4
				c0.4-0.2,1-0.2,1.4,0l4.5,2.6c0.2,0.1,0.3,0.3,0.3,0.5c0,0.1-0.1,0.2-0.3,0.3L580.7,255.9z"/>
			<path class="st98" d="M596.5,246.8c-0.4,0.2-1,0.2-1.4,0l-4.5-2.6c-0.2-0.1-0.3-0.3-0.3-0.5c0-0.1,0.1-0.2,0.3-0.3l5.9-3.4
				c0.4-0.2,1-0.2,1.4,0l4.5,2.6c0.2,0.1,0.3,0.3,0.3,0.5c0,0.1-0.1,0.2-0.3,0.3L596.5,246.8z"/>
			<path class="st98" d="M511.4,282c-0.4,0.2-1,0.2-1.4,0l-5.9-3.4c-0.4-0.2-0.4-0.6,0-0.8l5.9-3.4c0.4-0.2,1-0.2,1.4,0l5.9,3.4
				c0.2,0.1,0.3,0.3,0.3,0.5c0,0.1-0.1,0.2-0.3,0.3L511.4,282z"/>
			<path class="st98" d="M519.6,277.3c-0.4,0.2-1,0.2-1.4,0l-5.9-3.4c-0.2-0.1-0.3-0.3-0.3-0.5c0-0.1,0.1-0.2,0.3-0.3l5.9-3.4
				c0.4-0.2,1-0.2,1.4,0l5.9,3.4c0.2,0.1,0.3,0.3,0.3,0.5c0,0.1-0.1,0.2-0.3,0.3L519.6,277.3z"/>
			<path class="st98" d="M527.8,272.5c-0.4,0.2-1,0.2-1.4,0l-5.9-3.4c-0.2-0.1-0.3-0.3-0.3-0.5c0-0.1,0.1-0.2,0.3-0.3l5.9-3.4
				c0.4-0.2,1-0.2,1.4,0l5.9,3.4c0.2,0.1,0.3,0.3,0.3,0.5c0,0.1-0.1,0.2-0.3,0.3L527.8,272.5z"/>
			<path class="st98" d="M536,267.8c-0.4,0.2-1,0.2-1.4,0l-5.9-3.4c-0.2-0.1-0.3-0.3-0.3-0.5c0-0.1,0.1-0.2,0.3-0.3l5.9-3.4
				c0.4-0.2,1-0.2,1.4,0l5.9,3.4c0.2,0.1,0.3,0.3,0.3,0.5c0,0.1-0.1,0.2-0.3,0.3L536,267.8z"/>
			<path class="st98" d="M544.2,263c-0.4,0.2-1,0.2-1.4,0l-5.9-3.4c-0.2-0.1-0.3-0.3-0.3-0.5c0-0.1,0.1-0.2,0.3-0.3l5.9-3.4
				c0.4-0.2,1-0.2,1.4,0l5.9,3.4c0.2,0.1,0.3,0.3,0.3,0.5c0,0.1-0.1,0.2-0.3,0.3L544.2,263z"/>
			<path class="st98" d="M552.5,258.3c-0.4,0.2-1,0.2-1.4,0l-5.9-3.4c-0.2-0.1-0.3-0.3-0.3-0.5c0-0.1,0.1-0.2,0.3-0.3l5.9-3.4
				c0.4-0.2,1-0.2,1.4,0l5.9,3.4c0.2,0.1,0.3,0.3,0.3,0.5c0,0.1-0.1,0.2-0.3,0.3L552.5,258.3z"/>
			<path class="st98" d="M560.7,253.5c-0.4,0.2-1,0.2-1.4,0l-5.9-3.4c-0.2-0.1-0.3-0.3-0.3-0.5c0-0.1,0.1-0.2,0.3-0.3l5.9-3.4
				c0.4-0.2,1-0.2,1.4,0l5.9,3.4c0.2,0.1,0.3,0.3,0.3,0.5c0,0.1-0.1,0.2-0.3,0.3L560.7,253.5z"/>
			<path class="st98" d="M486.7,296.2c-0.4,0.2-1,0.2-1.4,0l-5.9-3.4c-0.2-0.1-0.3-0.3-0.3-0.5c0-0.1,0.1-0.2,0.3-0.3l5.9-3.4
				c0.4-0.2,1-0.2,1.4,0l5.9,3.4c0.4,0.2,0.4,0.6,0,0.8L486.7,296.2z"/>
		</g>
		<path class="st15" d="M449.4,288.3c0.2,0.1,0.3,0.3,0.3,0.5c0,0.1-0.1,0.2-0.3,0.3l-6.8,3.9c-0.4,0.2-1,0.2-1.4,0l-5.4-3.1
			c-0.2-0.1-0.3-0.3-0.3-0.5c0-0.1,0.1-0.2,0.3-0.3l6.8-3.9c0.4-0.2,1-0.2,1.4,0L449.4,288.3z"/>
		<path class="st15" d="M565.6,221.3c0.2,0.1,0.3,0.3,0.3,0.5c0,0.1-0.1,0.2-0.3,0.3l-15,8.7c-0.4,0.2-1,0.2-1.4,0l-5.4-3.1
			c-0.2-0.1-0.3-0.3-0.3-0.5c0-0.1,0.1-0.2,0.3-0.3l15-8.7c0.4-0.2,1-0.2,1.4,0L565.6,221.3z"/>
		<path class="st15" d="M573.7,226c0.2,0.1,0.3,0.3,0.3,0.5c0,0.1-0.1,0.2-0.3,0.3l-11,6.3c-0.4,0.2-1,0.2-1.4,0l-5.4-3.1
			c-0.2-0.1-0.3-0.3-0.3-0.5c0-0.1,0.1-0.2,0.3-0.3l11-6.3c0.4-0.2,1-0.2,1.4,0L573.7,226z"/>
		<path class="st15" d="M582.1,230.8c0.2,0.1,0.3,0.3,0.3,0.5c0,0.1-0.1,0.2-0.3,0.3l-17.1,9.9c-0.4,0.2-1,0.2-1.4,0l-5.4-3.1
			c-0.2-0.1-0.3-0.3-0.3-0.5c0-0.1,0.1-0.2,0.3-0.3l17.1-9.9c0.4-0.2,1-0.2,1.4,0L582.1,230.8z"/>
		<path class="st15" d="M590.5,235.7c0.2,0.1,0.3,0.3,0.3,0.5c0,0.1-0.1,0.2-0.3,0.3l-21.3,12.3c-0.4,0.2-1,0.2-1.4,0l-5.4-3.1
			c-0.2-0.1-0.3-0.3-0.3-0.5c0-0.1,0.1-0.2,0.3-0.3l21.3-12.3c0.4-0.2,1-0.2,1.4,0L590.5,235.7z"/>
		<path class="st15" d="M461.7,290.6c0.2,0.1,0.3,0.3,0.3,0.5c0,0.1-0.1,0.2-0.3,0.3l-10.9,6.3c-0.4,0.2-1,0.2-1.4,0l-5.4-3.1
			c-0.2-0.1-0.3-0.3-0.3-0.5c0-0.1,0.1-0.2,0.3-0.3l10.9-6.3c0.4-0.2,1-0.2,1.4,0L461.7,290.6z"/>
		<path class="st15" d="M471.9,294.1c0.2,0.1,0.3,0.3,0.3,0.5c0,0.1-0.1,0.2-0.3,0.3l-13,7.5c-0.4,0.2-1,0.2-1.4,0l-5.5-3.1
			c-0.2-0.1-0.3-0.3-0.3-0.5c0-0.1,0.1-0.2,0.3-0.3l13-7.5c0.4-0.2,1-0.2,1.4,0L471.9,294.1z"/>
		<path class="st15" d="M484,296.5c0.2,0.1,0.3,0.3,0.3,0.5c0,0.1-0.1,0.2-0.3,0.3l-17,9.8c-0.4,0.2-1,0.2-1.4,0l-5.5-3.1
			c-0.2-0.1-0.3-0.3-0.3-0.5c0-0.1,0.1-0.2,0.3-0.3l17-9.8c0.4-0.2,1-0.2,1.4,0L484,296.5z"/>
		<path class="st15" d="M483.9,305.9c0.2,0.1,0.3,0.3,0.3,0.5c0,0.1-0.1,0.2-0.3,0.3l-8.8,5.1c-0.4,0.2-1,0.2-1.4,0l-5.4-3.1
			c-0.2-0.1-0.3-0.3-0.3-0.5c0-0.1,0.1-0.2,0.3-0.3l8.8-5.1c0.4-0.2,1-0.2,1.4,0L483.9,305.9z"/>
		<path class="st15" d="M549.2,268.2c0.2,0.1,0.3,0.3,0.3,0.5c0,0.1-0.1,0.2-0.3,0.3l-38.3,22.1c-0.4,0.2-1,0.2-1.4,0l-5.4-3.1
			c-0.2-0.1-0.3-0.3-0.3-0.5c0-0.1,0.1-0.2,0.3-0.3l38.3-22.1c0.4-0.2,1-0.2,1.4,0L549.2,268.2z"/>
		<path class="st15" d="M439.5,284.7c0.2,0.1,0.3,0.3,0.3,0.5c0,0.1-0.1,0.2-0.3,0.3l-5,2.9c-0.4,0.2-1,0.2-1.4,0l-4-2.3
			c-0.2-0.1-0.3-0.3-0.3-0.5c0-0.1,0.1-0.2,0.3-0.3l5-2.9c0.4-0.2,1-0.2,1.4,0L439.5,284.7z"/>
		<path class="st15" d="M447.2,280.2c0.2,0.1,0.3,0.3,0.3,0.5c0,0.1-0.1,0.2-0.3,0.3l-5,2.9c-0.4,0.2-1,0.2-1.4,0l-4-2.3
			c-0.2-0.1-0.3-0.3-0.3-0.5c0-0.1,0.1-0.2,0.3-0.3l5-2.9c0.4-0.2,1-0.2,1.4,0L447.2,280.2z"/>
		<path class="st15" d="M454.5,276c0.2,0.1,0.3,0.3,0.3,0.5c0,0.1-0.1,0.2-0.3,0.3l-5,2.9c-0.4,0.2-1,0.2-1.4,0l-4-2.3
			c-0.2-0.1-0.3-0.3-0.3-0.5c0-0.1,0.1-0.2,0.3-0.3l5-2.9c0.4-0.2,1-0.2,1.4,0L454.5,276z"/>
		<path class="st15" d="M461.9,271.8c0.2,0.1,0.3,0.3,0.3,0.5c0,0.1-0.1,0.2-0.3,0.3l-5,2.9c-0.4,0.2-1,0.2-1.4,0l-4-2.3
			c-0.2-0.1-0.3-0.3-0.3-0.5c0-0.1,0.1-0.2,0.3-0.3l5-2.9c0.4-0.2,1-0.2,1.4,0L461.9,271.8z"/>
		<path class="st15" d="M469.2,267.6c0.2,0.1,0.3,0.3,0.3,0.5c0,0.1-0.1,0.2-0.3,0.3l-5,2.9c-0.4,0.2-1,0.2-1.4,0l-4-2.3
			c-0.2-0.1-0.3-0.3-0.3-0.5c0-0.1,0.1-0.2,0.3-0.3l5-2.9c0.4-0.2,1-0.2,1.4,0L469.2,267.6z"/>
		<path class="st15" d="M476.5,263.4c0.2,0.1,0.3,0.3,0.3,0.5c0,0.1-0.1,0.2-0.3,0.3l-5,2.9c-0.4,0.2-1,0.2-1.4,0l-4-2.3
			c-0.2-0.1-0.3-0.3-0.3-0.5c0-0.1,0.1-0.2,0.3-0.3l5-2.9c0.4-0.2,1-0.2,1.4,0L476.5,263.4z"/>
		<path class="st15" d="M483.8,259.1c0.2,0.1,0.3,0.3,0.3,0.5c0,0.1-0.1,0.2-0.3,0.3l-5,2.9c-0.4,0.2-1,0.2-1.4,0l-4-2.3
			c-0.2-0.1-0.3-0.3-0.3-0.5c0-0.1,0.1-0.2,0.3-0.3l5-2.9c0.4-0.2,1-0.2,1.4,0L483.8,259.1z"/>
		<path class="st15" d="M491.1,254.9c0.2,0.1,0.3,0.3,0.3,0.5c0,0.1-0.1,0.2-0.3,0.3l-5,2.9c-0.4,0.2-1,0.2-1.4,0l-4-2.3
			c-0.2-0.1-0.3-0.3-0.3-0.5c0-0.1,0.1-0.2,0.3-0.3l5-2.9c0.4-0.2,1-0.2,1.4,0L491.1,254.9z"/>
		<path class="st15" d="M498.4,250.7c0.2,0.1,0.3,0.3,0.3,0.5c0,0.1-0.1,0.2-0.3,0.3l-5,2.9c-0.4,0.2-1,0.2-1.4,0l-4-2.3
			c-0.2-0.1-0.3-0.3-0.3-0.5c0-0.1,0.1-0.2,0.3-0.3l5-2.9c0.4-0.2,1-0.2,1.4,0L498.4,250.7z"/>
		<path class="st15" d="M505.7,246.5c0.2,0.1,0.3,0.3,0.3,0.5c0,0.1-0.1,0.2-0.3,0.3l-5,2.9c-0.4,0.2-1,0.2-1.4,0l-4-2.3
			c-0.2-0.1-0.3-0.3-0.3-0.5c0-0.1,0.1-0.2,0.3-0.3l5-2.9c0.4-0.2,1-0.2,1.4,0L505.7,246.5z"/>
		<path class="st15" d="M513,242.3c0.2,0.1,0.3,0.3,0.3,0.5c0,0.1-0.1,0.2-0.3,0.3l-5,2.9c-0.4,0.2-1,0.2-1.4,0l-4-2.3
			c-0.2-0.1-0.3-0.3-0.3-0.5c0-0.1,0.1-0.2,0.3-0.3l5-2.9c0.4-0.2,1-0.2,1.4,0L513,242.3z"/>
		<path class="st15" d="M520.3,238.1c0.2,0.1,0.3,0.3,0.3,0.5c0,0.1-0.1,0.2-0.3,0.3l-5,2.9c-0.4,0.2-1,0.2-1.4,0l-4-2.3
			c-0.2-0.1-0.3-0.3-0.3-0.5c0-0.1,0.1-0.2,0.3-0.3l5-2.9c0.4-0.2,1-0.2,1.4,0L520.3,238.1z"/>
		<path class="st15" d="M527.6,233.8c0.2,0.1,0.3,0.3,0.3,0.5c0,0.1-0.1,0.2-0.3,0.3l-5,2.9c-0.4,0.2-1,0.2-1.4,0l-4-2.3
			c-0.2-0.1-0.3-0.3-0.3-0.5c0-0.1,0.1-0.2,0.3-0.3l5-2.9c0.4-0.2,1-0.2,1.4,0L527.6,233.8z"/>
		<path class="st15" d="M535.5,229.3c0.2,0.1,0.3,0.3,0.3,0.5c0,0.1-0.1,0.2-0.3,0.3l-5,2.9c-0.4,0.2-1,0.2-1.4,0l-4-2.3
			c-0.2-0.1-0.3-0.3-0.3-0.5c0-0.1,0.1-0.2,0.3-0.3l5-2.9c0.4-0.2,1-0.2,1.4,0L535.5,229.3z"/>
		<path class="st15" d="M542.8,225c0.2,0.1,0.3,0.3,0.3,0.5c0,0.1-0.1,0.2-0.3,0.3l-5,2.9c-0.4,0.2-1,0.2-1.4,0l-4-2.3
			c-0.2-0.1-0.3-0.3-0.3-0.5c0-0.1,0.1-0.2,0.3-0.3l5-2.9c0.4-0.2,1-0.2,1.4,0L542.8,225z"/>
		<path class="st15" d="M550.2,220.8c0.2,0.1,0.3,0.3,0.3,0.5c0,0.1-0.1,0.2-0.3,0.3l-5,2.9c-0.4,0.2-1,0.2-1.4,0l-4-2.3
			c-0.2-0.1-0.3-0.3-0.3-0.5c0-0.1,0.1-0.2,0.3-0.3l5-2.9c0.4-0.2,1-0.2,1.4,0L550.2,220.8z"/>
		<path class="st15" d="M557.5,216.6c0.2,0.1,0.3,0.3,0.3,0.5c0,0.1-0.1,0.2-0.3,0.3l-5,2.9c-0.4,0.2-1,0.2-1.4,0l-4-2.3
			c-0.4-0.2-0.4-0.6,0-0.8l5-2.9c0.4-0.2,1-0.2,1.4,0L557.5,216.6z"/>
		<path class="st15" d="M457.5,283.6c0.2,0.1,0.3,0.3,0.3,0.5c0,0.1-0.1,0.2-0.3,0.3l-5.4,3.1c-0.4,0.2-1,0.2-1.4,0l-5.4-3.1
			c-0.2-0.1-0.3-0.3-0.3-0.5c0-0.1,0.1-0.2,0.3-0.3l5.4-3.1c0.4-0.2,1-0.2,1.4,0L457.5,283.6z"/>
		<path id="_Bana_" class="st15" d="M474,274.1c0.2,0.1,0.3,0.3,0.3,0.5c0,0.1-0.1,0.2-0.3,0.3l-5.4,3.1c-0.4,0.2-1,0.2-1.4,0
			l-5.4-3.1c-0.2-0.1-0.3-0.3-0.3-0.5c0-0.1,0.1-0.2,0.3-0.3l5.4-3.1c0.4-0.2,1-0.2,1.4,0L474,274.1z"/>
		<path id="_Bana_2" class="st15" d="M465.8,278.9c0.2,0.1,0.3,0.3,0.3,0.5c0,0.1-0.1,0.2-0.3,0.3l-5.4,3.1c-0.4,0.2-1,0.2-1.4,0
			l-5.4-3.1c-0.2-0.1-0.3-0.3-0.3-0.5c0-0.1,0.1-0.2,0.3-0.3l5.4-3.1c0.4-0.2,1-0.2,1.4,0L465.8,278.9z"/>
		<path id="_Bana_3" class="st15" d="M482.2,269.4c0.2,0.1,0.3,0.3,0.3,0.5c0,0.1-0.1,0.2-0.3,0.3l-5.4,3.1c-0.4,0.2-1,0.2-1.4,0
			l-5.4-3.1c-0.2-0.1-0.3-0.3-0.3-0.5c0-0.1,0.1-0.2,0.3-0.3l5.4-3.1c0.4-0.2,1-0.2,1.4,0L482.2,269.4z"/>
		<path id="_Bana_4" class="st15" d="M490.4,264.7c0.2,0.1,0.3,0.3,0.3,0.5c0,0.1-0.1,0.2-0.3,0.3l-5.4,3.1c-0.4,0.2-1,0.2-1.4,0
			l-5.4-3.1c-0.2-0.1-0.3-0.3-0.3-0.5c0-0.1,0.1-0.2,0.3-0.3l5.4-3.1c0.4-0.2,1-0.2,1.4,0L490.4,264.7z"/>
		<path id="_Bana_5" class="st15" d="M498.7,259.9c0.2,0.1,0.3,0.3,0.3,0.5c0,0.1-0.1,0.2-0.3,0.3l-5.4,3.1c-0.4,0.2-1,0.2-1.4,0
			l-5.4-3.1c-0.2-0.1-0.3-0.3-0.3-0.5c0-0.1,0.1-0.2,0.3-0.3l5.4-3.1c0.4-0.2,1-0.2,1.4,0L498.7,259.9z"/>
		<path id="_Bana_6" class="st15" d="M506.9,255.2c0.2,0.1,0.3,0.3,0.3,0.5c0,0.1-0.1,0.2-0.3,0.3l-5.4,3.1c-0.4,0.2-1,0.2-1.4,0
			l-5.4-3.1c-0.2-0.1-0.3-0.3-0.3-0.5c0-0.1,0.1-0.2,0.3-0.3l5.4-3.1c0.4-0.2,1-0.2,1.4,0L506.9,255.2z"/>
		<path id="_Bana_7" class="st15" d="M515.1,250.4c0.2,0.1,0.3,0.3,0.3,0.5c0,0.1-0.1,0.2-0.3,0.3l-5.4,3.1c-0.4,0.2-1,0.2-1.4,0
			l-5.4-3.1c-0.2-0.1-0.3-0.3-0.3-0.5c0-0.1,0.1-0.2,0.3-0.3l5.4-3.1c0.4-0.2,1-0.2,1.4,0L515.1,250.4z"/>
		<path id="_Bana_8" class="st15" d="M523.3,245.7c0.2,0.1,0.3,0.3,0.3,0.5c0,0.1-0.1,0.2-0.3,0.3l-5.4,3.1c-0.4,0.2-1,0.2-1.4,0
			l-5.4-3.1c-0.2-0.1-0.3-0.3-0.3-0.5c0-0.1,0.1-0.2,0.3-0.3l5.4-3.1c0.4-0.2,1-0.2,1.4,0L523.3,245.7z"/>
		<path id="_Bana_9" class="st15" d="M531.5,240.9c0.2,0.1,0.3,0.3,0.3,0.5c0,0.1-0.1,0.2-0.3,0.3l-5.4,3.1c-0.4,0.2-1,0.2-1.4,0
			l-5.4-3.1c-0.2-0.1-0.3-0.3-0.3-0.5c0-0.1,0.1-0.2,0.3-0.3l5.4-3.1c0.4-0.2,1-0.2,1.4,0L531.5,240.9z"/>
		<path id="_Bana_10" class="st15" d="M539.8,236.2c0.2,0.1,0.3,0.3,0.3,0.5c0,0.1-0.1,0.2-0.3,0.3l-5.4,3.1c-0.4,0.2-1,0.2-1.4,0
			l-5.4-3.1c-0.2-0.1-0.3-0.3-0.3-0.5c0-0.1,0.1-0.2,0.3-0.3l5.4-3.1c0.4-0.2,1-0.2,1.4,0L539.8,236.2z"/>
		<path id="_Bana_11" class="st15" d="M548,231.4c0.2,0.1,0.3,0.3,0.3,0.5c0,0.1-0.1,0.2-0.3,0.3l-5.4,3.1c-0.4,0.2-1,0.2-1.4,0
			l-5.4-3.1c-0.2-0.1-0.3-0.3-0.3-0.5c0-0.1,0.1-0.2,0.3-0.3l5.4-3.1c0.4-0.2,1-0.2,1.4,0L548,231.4z"/>
		<path class="st15" d="M469.7,286c0.2,0.1,0.3,0.3,0.3,0.5c0,0.1-0.1,0.2-0.3,0.3l-5.4,3.1c-0.4,0.2-1,0.2-1.4,0l-5.4-3.1
			c-0.2-0.1-0.3-0.3-0.3-0.5c0-0.1,0.1-0.2,0.3-0.3l5.4-3.1c0.4-0.2,1-0.2,1.4,0L469.7,286z"/>
		<path id="_Bana_12" class="st15" d="M477.9,281.2c0.2,0.1,0.3,0.3,0.3,0.5c0,0.1-0.1,0.2-0.3,0.3l-5.4,3.1c-0.4,0.2-1,0.2-1.4,0
			l-5.4-3.2c-0.2-0.1-0.3-0.3-0.3-0.5c0-0.1,0.1-0.2,0.3-0.3l5.4-3.1c0.4-0.2,1-0.2,1.4,0L477.9,281.2z"/>
		<path id="_Bana_13" class="st15" d="M486.2,276.5c0.2,0.1,0.3,0.3,0.3,0.5c0,0.1-0.1,0.2-0.3,0.3l-5.4,3.1c-0.4,0.2-1,0.2-1.4,0
			l-5.4-3.1c-0.2-0.1-0.3-0.3-0.3-0.5c0-0.1,0.1-0.2,0.3-0.3l5.4-3.1c0.4-0.2,1-0.2,1.4,0L486.2,276.5z"/>
		<path id="_Bana_14" class="st15" d="M494.4,271.7c0.4,0.2,0.4,0.6,0,0.8l-5.4,3.1c-0.4,0.2-1,0.2-1.4,0l-5.4-3.1
			c-0.4-0.2-0.4-0.6,0-0.8l5.4-3.1c0.4-0.2,1-0.2,1.4,0L494.4,271.7z"/>
		<path id="_Bana_15" class="st15" d="M502.6,267c0.2,0.1,0.3,0.3,0.3,0.5c0,0.1-0.1,0.2-0.3,0.3l-5.4,3.1c-0.4,0.2-1,0.2-1.4,0
			l-5.4-3.1c-0.2-0.1-0.3-0.3-0.3-0.5c0-0.1,0.1-0.2,0.3-0.3l5.4-3.1c0.4-0.2,1-0.2,1.4,0L502.6,267z"/>
		<path id="_Bana_16" class="st15" d="M510.8,262.2c0.2,0.1,0.3,0.3,0.3,0.5c0,0.1-0.1,0.2-0.3,0.3l-5.4,3.1c-0.4,0.2-1,0.2-1.4,0
			l-5.4-3.1c-0.2-0.1-0.3-0.3-0.3-0.5c0-0.1,0.1-0.2,0.3-0.3l5.4-3.1c0.4-0.2,1-0.2,1.4,0L510.8,262.2z"/>
		<path id="_Bana_17" class="st15" d="M519,257.5c0.2,0.1,0.3,0.3,0.3,0.5c0,0.1-0.1,0.2-0.3,0.3l-5.4,3.1c-0.4,0.2-1,0.2-1.4,0
			l-5.4-3.1c-0.2-0.1-0.3-0.3-0.3-0.5c0-0.1,0.1-0.2,0.3-0.3l5.4-3.1c0.4-0.2,1-0.2,1.4,0L519,257.5z"/>
		<path id="_Bana_18" class="st15" d="M527.3,252.8c0.2,0.1,0.3,0.3,0.3,0.5c0,0.1-0.1,0.2-0.3,0.3l-5.4,3.1c-0.4,0.2-1,0.2-1.4,0
			l-5.4-3.1c-0.2-0.1-0.3-0.3-0.3-0.5c0-0.1,0.1-0.2,0.3-0.3l5.4-3.1c0.4-0.2,1-0.2,1.4,0L527.3,252.8z"/>
		<path id="_Bana_19" class="st15" d="M535.5,248c0.2,0.1,0.3,0.3,0.3,0.5c0,0.1-0.1,0.2-0.3,0.3l-5.4,3.2c-0.4,0.2-1,0.2-1.4,0
			l-5.4-3.1c-0.2-0.1-0.3-0.3-0.3-0.5c0-0.1,0.1-0.2,0.3-0.3l5.4-3.1c0.4-0.2,1-0.2,1.4,0L535.5,248z"/>
		<path id="_Bana_20" class="st15" d="M543.7,243.3c0.2,0.1,0.3,0.3,0.3,0.5c0,0.1-0.1,0.2-0.3,0.3l-5.4,3.1c-0.4,0.2-1,0.2-1.4,0
			l-5.4-3.1c-0.2-0.1-0.3-0.3-0.3-0.5c0-0.1,0.1-0.2,0.3-0.3l5.4-3.1c0.4-0.2,1-0.2,1.4,0L543.7,243.3z"/>
		<path id="_Bana_21" class="st15" d="M551.9,238.5c0.2,0.1,0.3,0.3,0.3,0.5c0,0.1-0.1,0.2-0.3,0.3l-5.4,3.1c-0.4,0.2-1,0.2-1.4,0
			l-5.4-3.1c-0.2-0.1-0.3-0.3-0.3-0.5c0-0.1,0.1-0.2,0.3-0.3l5.4-3.1c0.4-0.2,1-0.2,1.4,0L551.9,238.5z"/>
		<path id="_Bana_22" class="st15" d="M560.2,233.8c0.2,0.1,0.3,0.3,0.3,0.5c0,0.1-0.1,0.2-0.3,0.3l-5.4,3.1c-0.4,0.2-1,0.2-1.4,0
			l-5.4-3.1c-0.2-0.1-0.3-0.3-0.3-0.5c0-0.1,0.1-0.2,0.3-0.3l5.4-3.1c0.4-0.2,1-0.2,1.4,0L560.2,233.8z"/>
		<path class="st15" d="M479.9,289.8c0.4,0.2,0.4,0.6,0,0.8l-5.4,3.1c-0.4,0.2-1,0.2-1.4,0l-5.4-3.1c-0.4-0.2-0.4-0.6,0-0.8l5.4-3.1
			c0.4-0.2,1-0.2,1.4,0L479.9,289.8z"/>
		<path id="_Bana_23" class="st15" d="M488.1,285.1c0.2,0.1,0.3,0.3,0.3,0.5c0,0.1-0.1,0.2-0.3,0.3l-5.4,3.1c-0.4,0.2-1,0.2-1.4,0
			l-5.4-3.1c-0.2-0.1-0.3-0.3-0.3-0.5c0-0.1,0.1-0.2,0.3-0.3l5.4-3.1c0.4-0.2,1-0.2,1.4,0L488.1,285.1z"/>
		<path id="_Bana_24" class="st15" d="M496.3,280.3c0.2,0.1,0.3,0.3,0.3,0.5c0,0.1-0.1,0.2-0.3,0.3l-5.4,3.1c-0.4,0.2-1,0.2-1.4,0
			l-5.5-3.1c-0.2-0.1-0.3-0.3-0.3-0.5c0-0.1,0.1-0.2,0.3-0.3l5.4-3.1c0.4-0.2,1-0.2,1.4,0L496.3,280.3z"/>
		<path id="_Bana_25" class="st15" d="M504.5,275.6c0.2,0.1,0.3,0.3,0.3,0.5c0,0.1-0.1,0.2-0.3,0.3l-5.4,3.1c-0.4,0.2-1,0.2-1.4,0
			l-5.4-3.1c-0.2-0.1-0.3-0.3-0.3-0.5c0-0.1,0.1-0.2,0.3-0.3l5.4-3.1c0.4-0.2,1-0.2,1.4,0L504.5,275.6z"/>
		<path id="_Bana_26" class="st15" d="M512.7,270.8c0.2,0.1,0.3,0.3,0.3,0.5c0,0.1-0.1,0.2-0.3,0.3l-5.4,3.1c-0.4,0.2-1,0.2-1.4,0
			l-5.4-3.1c-0.2-0.1-0.3-0.3-0.3-0.5c0-0.1,0.1-0.2,0.3-0.3l5.4-3.1c0.4-0.2,1-0.2,1.4,0L512.7,270.8z"/>
		<path id="_Bana_27" class="st15" d="M521,266.1c0.2,0.1,0.3,0.3,0.3,0.5c0,0.1-0.1,0.2-0.3,0.3l-5.5,3.1c-0.4,0.2-1,0.2-1.4,0
			l-5.4-3.1c-0.2-0.1-0.3-0.3-0.3-0.5c0-0.1,0.1-0.2,0.3-0.3l5.4-3.1c0.4-0.2,1-0.2,1.4,0L521,266.1z"/>
		<path id="_Bana_28" class="st15" d="M529.2,261.3c0.2,0.1,0.3,0.3,0.3,0.5c0,0.1-0.1,0.2-0.3,0.3l-5.4,3.1c-0.4,0.2-1,0.2-1.4,0
			l-5.4-3.1c-0.2-0.1-0.3-0.3-0.3-0.5c0-0.1,0.1-0.2,0.3-0.3l5.4-3.1c0.4-0.2,1-0.2,1.4,0L529.2,261.3z"/>
		<path id="_Bana_29" class="st15" d="M537.4,256.6c0.2,0.1,0.3,0.3,0.3,0.5c0,0.1-0.1,0.2-0.3,0.3l-5.4,3.1c-0.4,0.2-1,0.2-1.4,0
			l-5.4-3.1c-0.2-0.1-0.3-0.3-0.3-0.5c0-0.1,0.1-0.2,0.3-0.3l5.4-3.1c0.4-0.2,1-0.2,1.4,0L537.4,256.6z"/>
		<path id="_Bana_30" class="st15" d="M545.6,251.9c0.2,0.1,0.3,0.3,0.3,0.5c0,0.1-0.1,0.2-0.3,0.3l-5.4,3.1c-0.4,0.2-1,0.2-1.4,0
			l-5.4-3.1c-0.2-0.1-0.3-0.3-0.3-0.5c0-0.1,0.1-0.2,0.3-0.3l5.4-3.1c0.4-0.2,1-0.2,1.4,0L545.6,251.9z"/>
		<path id="_Bana_31" class="st15" d="M553.8,247.1c0.2,0.1,0.3,0.3,0.3,0.5c0,0.1-0.1,0.2-0.3,0.3l-5.4,3.1c-0.4,0.2-1,0.2-1.4,0
			l-5.4-3.1c-0.2-0.1-0.3-0.3-0.3-0.5c0-0.1,0.1-0.2,0.3-0.3l5.4-3.1c0.4-0.2,1-0.2,1.4,0L553.8,247.1z"/>
		<path id="_Bana_32" class="st15" d="M562.1,242.4c0.2,0.1,0.3,0.3,0.3,0.5c0,0.1-0.1,0.2-0.3,0.3l-5.4,3.1c-0.4,0.2-1,0.2-1.4,0
			l-5.4-3.1c-0.2-0.1-0.3-0.3-0.3-0.5c0-0.1,0.1-0.2,0.3-0.3l5.4-3.1c0.4-0.2,1-0.2,1.4,0L562.1,242.4z"/>
		<path id="_Bana_33" class="st15" d="M500.4,287c0.2,0.1,0.3,0.3,0.3,0.5c0,0.1-0.1,0.2-0.3,0.3l-5.4,3.2c-0.4,0.2-1,0.2-1.4,0
			l-5.4-3.1c-0.2-0.1-0.3-0.3-0.3-0.5c0-0.1,0.1-0.2,0.3-0.3l5.4-3.1c0.4-0.2,1-0.2,1.4,0L500.4,287z"/>
		<path id="_Bana_34" class="st15" d="M508.6,282.3c0.2,0.1,0.3,0.3,0.3,0.5c0,0.1-0.1,0.2-0.3,0.3l-5.4,3.1c-0.4,0.2-1,0.2-1.4,0
			l-5.4-3.1c-0.2-0.1-0.3-0.3-0.3-0.5c0-0.1,0.1-0.2,0.3-0.3l5.4-3.1c0.4-0.2,1-0.2,1.4,0L508.6,282.3z"/>
		<path class="st15" d="M491.7,301.4c0.2,0.1,0.3,0.3,0.3,0.5c0,0.1-0.1,0.2-0.3,0.3l-5.4,3.1c-0.4,0.2-1,0.2-1.4,0l-5.4-3.1
			c-0.2-0.1-0.3-0.3-0.3-0.5c0-0.1,0.1-0.2,0.3-0.3l5.4-3.1c0.4-0.2,1-0.2,1.4,0L491.7,301.4z"/>
		<path id="_Bana_35" class="st15" d="M499.9,296.6c0.2,0.1,0.3,0.3,0.3,0.5c0,0.1-0.1,0.2-0.3,0.3l-5.4,3.1c-0.4,0.2-1,0.2-1.4,0
			l-5.4-3.1c-0.2-0.1-0.3-0.3-0.3-0.5c0-0.1,0.1-0.2,0.3-0.3l5.4-3.1c0.4-0.2,1-0.2,1.4,0L499.9,296.6z"/>
		<path id="_Bana_36" class="st15" d="M508.2,291.9c0.2,0.1,0.3,0.3,0.3,0.5c0,0.1-0.1,0.2-0.3,0.3l-5.4,3.1c-0.4,0.2-1,0.2-1.4,0
			l-5.4-3.1c-0.2-0.1-0.3-0.3-0.3-0.5c0-0.1,0.1-0.2,0.3-0.3l5.4-3.1c0.4-0.2,1-0.2,1.4,0L508.2,291.9z"/>
		<path class="st15" d="M557.8,263.2c0.2,0.1,0.3,0.3,0.3,0.5c0,0.1-0.1,0.2-0.3,0.3l-5.4,3.1c-0.4,0.2-1,0.2-1.4,0l-5.4-3.1
			c-0.2-0.1-0.3-0.3-0.3-0.5c0-0.1,0.1-0.2,0.3-0.3l5.4-3.1c0.4-0.2,1-0.2,1.4,0L557.8,263.2z"/>
		<path id="_Bana_37" class="st15" d="M566,258.5c0.2,0.1,0.3,0.3,0.3,0.5c0,0.1-0.1,0.2-0.3,0.3l-5.4,3.1c-0.4,0.2-1,0.2-1.4,0
			l-5.4-3.1c-0.2-0.1-0.3-0.3-0.3-0.5c0-0.1,0.1-0.2,0.3-0.3l5.4-3.1c0.4-0.2,1-0.2,1.4,0L566,258.5z"/>
		<path id="_Bana_38" class="st15" d="M574.2,253.7c0.2,0.1,0.3,0.3,0.3,0.5c0,0.1-0.1,0.2-0.3,0.3l-5.4,3.1c-0.4,0.2-1,0.2-1.4,0
			l-5.4-3.1c-0.2-0.1-0.3-0.3-0.3-0.5c0-0.1,0.1-0.2,0.3-0.3l5.4-3.1c0.4-0.2,1-0.2,1.4,0L574.2,253.7z"/>
		<path class="st15" d="M583.3,241.4c0.4-0.2,1-0.2,1.4,0l4,2.3c0.2,0.1,0.3,0.3,0.3,0.5c0,0.1-0.1,0.2-0.3,0.3l-5.4,3.1
			c-0.4,0.2-1,0.2-1.4,0l-4-2.3c-0.2-0.1-0.3-0.3-0.3-0.5c0-0.1,0.1-0.2,0.3-0.3L583.3,241.4z"/>
		<path class="st15" d="M588.7,244.6c0.4-0.2,1-0.2,1.4,0l4,2.3c0.2,0.1,0.3,0.3,0.3,0.5c0,0.1-0.1,0.2-0.3,0.3l-5.4,3.1
			c-0.4,0.2-1,0.2-1.4,0l-4-2.3c-0.2-0.1-0.3-0.3-0.3-0.5c0-0.1,0.1-0.2,0.3-0.3L588.7,244.6z"/>
		<path id="_Bana_39" class="st15" d="M586.2,251.4c0.2,0.1,0.3,0.3,0.3,0.5c0,0.1-0.1,0.2-0.3,0.3l-5.4,3.1c-0.4,0.2-1,0.2-1.4,0
			l-4-2.3c-0.2-0.1-0.3-0.3-0.3-0.5c0-0.1,0.1-0.2,0.3-0.3l5.4-3.1c0.4-0.2,1-0.2,1.4,0L586.2,251.4z"/>
		<path id="_Bana_40" class="st15" d="M602,242.3c0.2,0.1,0.3,0.3,0.3,0.5c0,0.1-0.1,0.2-0.3,0.3l-5.4,3.1c-0.4,0.2-1,0.2-1.4,0
			l-4-2.3c-0.2-0.1-0.3-0.3-0.3-0.5c0-0.1,0.1-0.2,0.3-0.3l5.4-3.1c0.4-0.2,1-0.2,1.4,0L602,242.3z"/>
		<path id="_Bana_41" class="st15" d="M516.8,277.5c0.2,0.1,0.3,0.3,0.3,0.5c0,0.1-0.1,0.2-0.3,0.3l-5.4,3.1c-0.4,0.2-1,0.2-1.4,0
			l-5.4-3.1c-0.2-0.1-0.3-0.3-0.3-0.5c0-0.1,0.1-0.2,0.3-0.3l5.4-3.1c0.4-0.2,1-0.2,1.4,0L516.8,277.5z"/>
		<path id="_Bana_42" class="st15" d="M525,272.8c0.2,0.1,0.3,0.3,0.3,0.5c0,0.1-0.1,0.2-0.3,0.3l-5.4,3.1c-0.4,0.2-1,0.2-1.4,0
			l-5.4-3.1c-0.2-0.1-0.3-0.3-0.3-0.5c0-0.1,0.1-0.2,0.3-0.3l5.4-3.1c0.4-0.2,1-0.2,1.4,0L525,272.8z"/>
		<path id="_Bana_43" class="st15" d="M533.2,268c0.2,0.1,0.3,0.3,0.3,0.5c0,0.1-0.1,0.2-0.3,0.3l-5.4,3.2c-0.4,0.2-1,0.2-1.4,0
			l-5.4-3.2c-0.2-0.1-0.3-0.3-0.3-0.5c0-0.1,0.1-0.2,0.3-0.3l5.4-3.1c0.4-0.2,1-0.2,1.4,0L533.2,268z"/>
		<path id="_Bana_44" class="st15" d="M541.5,263.3c0.2,0.1,0.3,0.3,0.3,0.5c0,0.1-0.1,0.2-0.3,0.3l-5.5,3.1c-0.4,0.2-1,0.2-1.4,0
			l-5.4-3.1c-0.2-0.1-0.3-0.3-0.3-0.5c0-0.1,0.1-0.2,0.3-0.3l5.4-3.1c0.4-0.2,1-0.2,1.4,0L541.5,263.3z"/>
		<path id="_Bana_45" class="st15" d="M549.7,258.5c0.2,0.1,0.3,0.3,0.3,0.5c0,0.1-0.1,0.2-0.3,0.3l-5.4,3.1c-0.4,0.2-1,0.2-1.4,0
			l-5.4-3.1c-0.2-0.1-0.3-0.3-0.3-0.5c0-0.1,0.1-0.2,0.3-0.3l5.4-3.1c0.4-0.2,1-0.2,1.4,0L549.7,258.5z"/>
		<path id="_Bana_46" class="st15" d="M557.9,253.8c0.2,0.1,0.3,0.3,0.3,0.5c0,0.1-0.1,0.2-0.3,0.3l-5.4,3.1c-0.4,0.2-1,0.2-1.4,0
			l-5.4-3.1c-0.2-0.1-0.3-0.3-0.3-0.5c0-0.1,0.1-0.2,0.3-0.3l5.4-3.1c0.4-0.2,1-0.2,1.4,0L557.9,253.8z"/>
		<path id="_Bana_47" class="st15" d="M566.1,249c0.2,0.1,0.3,0.3,0.3,0.5c0,0.1-0.1,0.2-0.3,0.3l-5.4,3.2c-0.4,0.2-1,0.2-1.4,0
			l-5.4-3.1c-0.2-0.1-0.3-0.3-0.3-0.5c0-0.1,0.1-0.2,0.3-0.3l5.4-3.1c0.4-0.2,1-0.2,1.4,0L566.1,249z"/>
		<path class="st15" d="M492.1,291.8c0.2,0.1,0.3,0.3,0.3,0.5c0,0.1-0.1,0.2-0.3,0.3l-5.4,3.1c-0.4,0.2-1,0.2-1.4,0l-5.4-3.1
			c-0.2-0.1-0.3-0.3-0.3-0.5c0-0.1,0.1-0.2,0.3-0.3l5.4-3.1c0.4-0.2,1-0.2,1.4,0L492.1,291.8z"/>
		<path class="st99" d="M550.9,208.4c0,1-1.4,1.8-3.1,1.8s-3.1-0.8-3.1-1.8s1.4-1.8,3.1-1.8S550.9,207.4,550.9,208.4z"/>
		<path class="st100" d="M550.4,208.4c0,0.8-1.2,1.5-2.7,1.5s-2.7-0.7-2.7-1.5s1.2-1.5,2.7-1.5S550.4,207.6,550.4,208.4z"/>
		<path class="st15" d="M406.8,286.2v2.9c-0.1,1.2,0.7,2.3,2.2,3.2l85.1,49.1c3.3,1.7,7.3,1.7,10.6,0l137.5-79.4
			c0.8-0.4,1.4-1,1.8-1.7l0.3-1l0,0c0,0,0,0,0-0.1V256c-0.2,1.3-1,2.5-2.2,3l-137.5,79.4c-3.3,1.7-7.3,1.7-10.6,0L409,289.2
			C407.8,288.6,407,287.5,406.8,286.2z"/>
		<path class="st101" d="M436.8,184.3l155.5-89.7c0,0-1.5-1.2-2.3-0.8l-155,89.4c-0.1,0.1-0.2,0.2-0.2,0.4v90.1
			c0,0.7,1.7,1.6,1.7,1.6v-90.7C436.5,184.6,436.7,184.4,436.8,184.3z"/>

			<linearGradient id="SVGID_5_" gradientUnits="userSpaceOnUse" x1="436.57" y1="316.84" x2="593.01" y2="316.84" gradientTransform="matrix(1 0 0 -1 0 502)">
			<stop  offset="0.42" style="stop-color:#C0F0FF"/>
			<stop  offset="0.44" style="stop-color:#C5F1FF"/>
			<stop  offset="0.47" style="stop-color:#D5F5FF"/>
			<stop  offset="0.5" style="stop-color:#EEFBFF"/>
			<stop  offset="0.51" style="stop-color:#FFFFFF"/>
		</linearGradient>
		<path class="st102" d="M436.6,184.8v90.5c0,0.2,0.2,0.5,0.4,0.5c0.1,0,0.2,0,0.2-0.1l155.5-89.9c0.1-0.1,0.2-0.2,0.2-0.4
			l-0.1-90.3c0-0.2-0.2-0.5-0.4-0.5c-0.1,0-0.2,0-0.2,0.1l-155.4,89.7C436.7,184.4,436.6,184.6,436.6,184.8z"/>
		<g id="Nodes">
			<g>
				<path class="st96" d="M464.2,224.7c0.1-0.1,0.3,0,0.3,0.1c0,0.2-0.1,0.4-0.3,0.5L463,226l-6.3,3.6l-1,0.6
					c-0.1,0.1-0.3,0-0.3-0.2c0-0.2,0.1-0.3,0.3-0.4l1-0.6l6.3-3.6L464.2,224.7z"/>
				<path class="st96" d="M458.5,224.2c0.1-0.1,0.2-0.1,0.2,0c0.1,0.2,0,0.3-0.1,0.5l-1.2,1.6l-0.7,1v-0.1h-0.4l0.6-0.9l1.4-1.9
					C458.4,224.3,458.4,224.2,458.5,224.2z"/>
				<path class="st103" d="M459.9,218.2h0.3l2.8,0.2v4h-1.5c0,0-0.1,0-0.1,0c-0.1,0.1-0.2,0.2-0.2,0.3c-0.1,0.2,0,0.3,0.1,0.3h1.3
					l-2.7,3.3l-2.5-0.2l1.2-1.6c0.1-0.1,0.1-0.3,0.1-0.5c-0.1-0.1-0.2-0.1-0.2,0c-0.1,0-0.1,0.1-0.1,0.1l-1.3,1.9h-0.1v-4.1l2.9-3.6
					L459.9,218.2z"/>
				<path class="st103" d="M454.3,226.9l2,0.2h0.4v1.9l-1,0.6c-0.2,0.1-0.3,0.3-0.3,0.4c0,0.2,0.1,0.2,0.3,0.2l1-0.6v0.7l-2.4,3
					l-2.4-0.2v-3.2L454.3,226.9z"/>
				<path class="st96" d="M459.9,216c0.1-0.1,0.3,0,0.3,0.1v2h-0.3l-0.2,0.3v-2C459.6,216.3,459.7,216.1,459.9,216z"/>
				<path class="st104" d="M459.8,207c7.2-4.1,13-0.8,13,7.4s-5.8,18.3-12.9,22.4s-13,0.8-13-7.4S452.7,211.2,459.8,207z
					 M467.8,223.8v-3.2l-2.4-0.2l-1.6,2H463v-4l-2.8-0.2v-1.1l1.6-2v-2.5l-1.9-0.2l-1.9,2.4v2.5l1.7,0.1v1l-2.9,3.6v4.1h0.1
					l-0.6,0.9l-2-0.2l-2.4,3v3.2l2.4,0.2l2.4-3v-0.7l6.3-3.6v0.7l2.4,0.2L467.8,223.8"/>
				<polygon class="st104" points="459.9,226.5 462.6,223.1 463.3,223.1 463,223.4 463,225.4 456.7,229 456.7,227.2 457.5,226.2
									"/>
			</g>
			<path class="st103" d="M459.9,212.4l1.9,0.2v2.5l-1.6,2v-1c0-0.2-0.1-0.2-0.3-0.1c-0.2,0.1-0.3,0.3-0.3,0.5v1l-1.7-0.1v-2.5
				L459.9,212.4z"/>
			<path class="st103" d="M465.4,220.5l2.4,0.2v3.2l-2.4,3l-2.4-0.2V226l1.2-0.7c0.2-0.1,0.3-0.3,0.3-0.5c0-0.2-0.1-0.2-0.3-0.1
				l-1.2,0.7v-1.9l0.2-0.3l0.6-0.7L465.4,220.5z"/>
			<path class="st96" d="M461.4,222.5c0,0,0.1,0,0.1,0h1.5h0.8l-0.6,0.7h-0.7h-1.3c-0.1,0-0.2-0.1-0.1-0.3
				C461.2,222.7,461.2,222.6,461.4,222.5z"/>
			<path class="st96" d="M579.7,154.8c0.3,0.6,0.4,1.2,0.4,1.9c0,0.9-0.2,1.7-0.5,2.5c-0.4,0.8-0.8,1.5-1.3,2.2
				c-0.5,0.7-1.1,1.3-1.8,1.8c-0.6,0.5-1.3,0.9-2,1.3h-0.1c-0.7,0.4-1.4,0.7-2.2,0.9c-0.6,0.2-1.2,0.2-1.8-0.1
				c-0.5-0.2-1-0.6-1.2-1.1c-0.3-0.7-0.5-1.5-0.5-2.3l1.1-0.6c0,0.6,0.2,1.2,0.5,1.8c0.5,0.9,1.5,1.3,2.5,1c0.6-0.1,1.2-0.4,1.8-0.7
				h0.1c0.5-0.3,1-0.6,1.5-1c0.5-0.4,1-0.9,1.5-1.4c0.5-0.5,0.8-1.1,1.1-1.7c0.3-0.6,0.5-1.3,0.5-2c0-0.9-0.2-1.5-0.7-1.7
				c-0.6-0.2-1.2-0.2-1.8,0c-0.8,0.2-1.6,0.4-2.4,0.8c-0.8,0.3-1.6,0.5-2.4,0.6c-0.6,0.1-1.3,0-1.8-0.3c-0.5-0.3-0.7-1-0.7-2.2
				c0-0.8,0.1-1.6,0.5-2.3c0.3-0.7,0.7-1.4,1.2-2c0.5-0.6,1-1.2,1.7-1.6c0.6-0.5,1.2-0.9,1.8-1.3c0.7-0.4,1.4-0.7,2.1-0.9
				c0.6-0.2,1.1-0.2,1.7,0c0.5,0.2,0.9,0.5,1.1,1c0.3,0.7,0.4,1.4,0.4,2.2l-1.1,0.6c0-0.6-0.1-1.2-0.3-1.8c-0.2-0.4-0.5-0.7-0.9-0.8
				c-0.4-0.1-0.9-0.1-1.4,0c-0.6,0.2-1.2,0.4-1.7,0.7c-0.5,0.3-1,0.6-1.5,1c-0.5,0.4-0.9,0.8-1.3,1.3c-0.4,0.5-0.7,1-1,1.6
				c-0.2,0.5-0.4,1.1-0.4,1.7c-0.1,0.5,0.1,1,0.4,1.4c0.3,0.3,0.7,0.4,1.1,0.3c0.5,0,1-0.1,1.5-0.3l1.7-0.6c0.7-0.2,1.3-0.5,2-0.6
				c0.5-0.2,1.1-0.2,1.6-0.1C579,154.1,579.4,154.4,579.7,154.8z"/>
			<path class="st96" d="M566.4,154.2c0.6,0.5,1,1.2,1.2,1.9c0.3,0.9,0.4,1.9,0.4,2.9c0,0.1,0,0.2,0,0.4c0,0.1,0,0.2,0,0.3
				l-11.7,6.7v0.2c0,0.9,0.1,1.7,0.3,2.6c0.2,0.7,0.5,1.3,1,1.8c0.5,0.4,1,0.6,1.7,0.6c0.8,0,1.6-0.3,2.3-0.8
				c1.4-0.8,2.6-1.9,3.4-3.3c0.9-1.4,1.5-3,1.7-4.6l1.1-0.6c-0.3,2-1,3.9-2,5.6c-1,1.7-2.5,3-4.2,4c-0.8,0.6-1.8,0.9-2.8,1
				c-0.7,0-1.4-0.2-2-0.7c-0.6-0.5-1-1.2-1.2-2c-0.3-1-0.4-2.1-0.4-3.1c0-1.2,0.1-2.4,0.4-3.6c0.3-1.2,0.7-2.4,1.2-3.5
				c0.5-1.1,1.2-2.2,2-3.1c0.8-1,1.8-1.8,2.9-2.4c0.8-0.5,1.7-0.8,2.7-0.9C565.1,153.6,565.8,153.8,566.4,154.2z M556.3,165.4
				l10.6-6.1c0-0.8-0.2-1.6-0.4-2.3c-0.2-0.6-0.5-1.1-1-1.6c-0.5-0.4-1-0.6-1.6-0.5c-0.7,0-1.4,0.3-2.1,0.6l-0.1,0.1h-0.1
				c-0.8,0.5-1.6,1.1-2.2,1.8c-0.6,0.7-1.2,1.6-1.7,2.4c-0.4,0.9-0.8,1.8-1,2.8C556.6,163.5,556.4,164.4,556.3,165.4"/>
			<path class="st96" d="M552.7,163.8v-10.1l1.1-0.6l0.1,23l-1.1,0.6v-3.5h0c-0.5,1.5-1.3,3-2.2,4.2c-0.9,1.2-2,2.2-3.3,2.9
				c-0.8,0.6-1.8,0.9-2.8,0.9c-0.7,0-1.4-0.3-1.9-0.8c-0.6-0.6-0.9-1.3-1.1-2.1c-0.7-3.4-0.3-7,1.2-10.2c0.5-1.1,1.2-2.1,2-3
				c0.8-0.9,1.8-1.7,2.8-2.3c0.5-0.3,1.1-0.6,1.7-0.7c0.5-0.1,1-0.2,1.6-0.1C551.6,162.1,552.4,162.8,552.7,163.8L552.7,163.8z
				 M552.4,171.4c0.2-1,0.3-2,0.3-3c0-0.9-0.1-1.8-0.3-2.6c-0.2-0.7-0.5-1.4-1-1.9c-0.4-0.5-1-0.7-1.7-0.8c-0.8,0-1.7,0.3-2.4,0.7
				c-0.9,0.5-1.7,1.2-2.4,2c-0.7,0.8-1.2,1.7-1.7,2.7c-0.4,1-0.7,2-0.9,3c-0.2,1-0.3,2-0.3,3c0,0.9,0.1,1.8,0.3,2.6
				c0.2,0.7,0.5,1.3,1,1.9c0.4,0.5,1,0.7,1.7,0.7c0.9,0,1.7-0.3,2.4-0.8c0.9-0.5,1.7-1.2,2.4-2c0.7-0.8,1.2-1.7,1.7-2.7
				C551.8,173.4,552.2,172.3,552.4,171.4"/>
			<path class="st96" d="M538.6,170.4c0.6,0.5,1,1.2,1.3,2c0.3,1,0.5,2,0.4,3.1c0,1.2-0.1,2.4-0.4,3.6c-0.3,1.2-0.7,2.4-1.3,3.5
				c-0.6,1.1-1.3,2.1-2.1,3.1c-0.8,0.9-1.8,1.7-2.8,2.3c-0.9,0.5-1.8,0.9-2.8,0.9c-0.8,0-1.5-0.2-2.1-0.7c-0.6-0.5-1.1-1.2-1.3-2
				c-0.3-1-0.5-2-0.5-3.1c0-1.2,0.1-2.4,0.4-3.6c0.3-1.2,0.7-2.4,1.3-3.5c0.6-1.1,1.2-2.1,2.1-3.1c0.8-0.9,1.8-1.7,2.8-2.3
				c0.9-0.5,1.8-0.9,2.8-0.9C537.3,169.7,538,169.9,538.6,170.4z M538.9,179.2c0.5-1.9,0.5-3.8,0-5.7c-0.2-0.7-0.6-1.3-1.1-1.8
				c-0.5-0.4-1.1-0.7-1.7-0.7c-0.8,0.1-1.7,0.3-2.4,0.8c-0.9,0.5-1.7,1.2-2.4,2c-0.7,0.8-1.3,1.7-1.7,2.7c-0.5,1-0.8,2-1.1,3
				c-0.5,1.9-0.5,3.8,0,5.7c0.2,0.7,0.6,1.3,1.1,1.8c0.5,0.4,1.1,0.7,1.7,0.7c0.8,0,1.7-0.3,2.4-0.7c0.9-0.5,1.7-1.2,2.4-2
				c0.7-0.8,1.3-1.7,1.7-2.7C538.3,181.2,538.7,180.2,538.9,179.2"/>
			<polygon class="st96" points="524.5,191.1 524.4,169.9 525.7,169.2 525.7,192.2 524.3,193.1 511.5,179.2 511.4,179.2
				511.5,200.5 510.3,201.2 510.2,178.2 511.7,177.3 524.4,191.1 			"/>
			<polygon class="st96" points="504.8,204.4 504.7,181.4 507.9,179.5 508,202.5 			"/>
			<path class="st96" d="M501.9,191.8c0.7,0.6,1.1,1.5,1.3,2.4c0.3,1.1,0.4,2.3,0.2,3.5l-10.6,6.1c0,0.6,0.1,1.2,0.2,1.7
				c0.1,0.5,0.4,0.9,0.7,1.2c0.3,0.3,0.8,0.4,1.2,0.4c0.6-0.1,1.1-0.2,1.6-0.5l0.1-0.1c0.9-0.5,1.7-1.2,2.3-2c0.6-0.8,1-1.8,1.3-2.8
				l3-1.8c-0.4,2-1.2,3.9-2.3,5.6c-0.6,0.8-1.2,1.5-2,2.2c-0.7,0.6-1.4,1.2-2.3,1.7c-0.9,0.6-1.9,1-3,1.1c-0.8,0.1-1.6-0.1-2.2-0.5
				c-0.7-0.5-1.2-1.2-1.4-2c-0.3-1.1-0.5-2.2-0.5-3.3c0-1.2,0.2-2.5,0.5-3.6c0.3-1.3,0.8-2.5,1.4-3.6c1.1-2.3,2.9-4.2,5-5.5l0.1-0.1
				h0.1c0.9-0.6,1.9-0.9,3-0.9C500.5,191,501.3,191.3,501.9,191.8z M492.8,201.4l7.5-4.3c0-0.5-0.1-1-0.3-1.5
				c-0.1-0.4-0.4-0.7-0.7-1c-0.3-0.2-0.7-0.3-1.1-0.3c-0.5,0-1,0.2-1.4,0.4h-0.1l-0.1,0.1c-0.5,0.3-1,0.7-1.4,1.2
				c-0.5,0.5-0.9,1-1.2,1.6c-0.3,0.6-0.6,1.2-0.8,1.9C492.9,200.1,492.8,200.7,492.8,201.4"/>
			<polygon class="st96" points="488.8,199.4 480.5,215.4 489.3,210.4 489.3,213.3 476.5,220.6 476.5,218.1 484.5,202.3 477,206.6
				477,203.7 488.8,196.9 			"/>
		</g>
	</g>
</g>
</svg>
