<?xml version="1.0" encoding="iso-8859-1"?>
<!-- Generator: Adobe Illustrator 19.0.0, SVG Export Plug-In . SVG Version: 6.00 Build 0)  -->
<svg version="1.1" id="Layer_1" xmlns="http://www.w3.org/2000/svg" xmlns:xlink="http://www.w3.org/1999/xlink" x="0px" y="0px"
	 viewBox="0 0 512 512" style="enable-background:new 0 0 512 512;" xml:space="preserve">
<circle style="fill:#142a59;" cx="256" cy="256" r="256"/>
<path style="fill:#0c2e76;" d="M512,256c0-1.822-0.031-3.636-0.069-5.449l-87.395-87.395l-16.281,22.264h-85.597l-75.724,50.6
	l59.74,59.74l-6.322,6.322l-31.358-30.815l-95.166,19.211l-12.067,4.598l-30.456,12.355l-29.055,62.347l142.129,141.948
	C248.232,511.898,252.104,512,256,512C397.384,512,512,397.384,512,256z"/>
<path style="fill:#ffffff;" d="M386.148,253.306c-3.222-4.48-9.082-6.242-14.248-4.301c-0.074,0.028-0.148,0.055-0.222,0.079
	l-87.442,29.112c0.019,0.702,0.005,1.41-0.041,2.122c-0.731,11.167-9.366,20.137-20.463,21.263l-52.698,5.473
	c-3.334,0.348-6.315-2.074-6.661-5.406c-0.348-3.334,2.074-6.392,5.406-6.661l52.698-5.473c5.201-0.565,9.264-4.742,9.607-9.987
	c0.186-2.862-0.753-5.627-2.644-7.782c-1.893-2.157-4.511-3.448-7.373-3.634l-69.968-4.561c-7.858-0.51-15.66,1.224-22.559,5.023
	l-92.277,50.816l24.988,50.39l23.18-20.221c9.845-8.587,22.885-12.288,35.778-10.143l77.481,12.876
	c14.198,1.888,28.432-1.653,40.089-9.969l105.493-72.651C388.984,265.545,389.822,258.41,386.148,253.306z"/>
<g>
	<path style="fill:#dbe4f8;" d="M262.477,289.511c5.201-0.565,9.264-4.742,9.607-9.987c0.186-2.862-0.753-5.627-2.644-7.782
		c-1.893-2.157-4.511-3.448-7.373-3.634l-29.217-1.905v26.383L262.477,289.511z"/>
	<path style="fill:#dbe4f8;" d="M386.148,253.306c-3.224-4.48-9.082-6.242-14.248-4.301c-0.074,0.028-0.148,0.055-0.222,0.079
		l-87.442,29.112c0.019,0.702,0.005,1.41-0.041,2.122c-0.731,11.167-9.366,20.137-20.463,21.263l-30.882,3.208v46.532l5.839,0.971
		c14.198,1.888,28.432-1.653,40.089-9.969l105.493-72.651C388.984,265.545,389.822,258.41,386.148,253.306z"/>
</g>
<path style="fill:#ffffff;" d="M246.934,236.02c2.017,2.803,5.682,3.905,8.913,2.691c0.047-0.017,0.093-0.034,0.14-0.05
	l54.703-18.211c-0.012-0.44-0.003-0.883,0.026-1.327c0.457-6.985,5.86-12.597,12.802-13.302l32.968-3.424
	c2.086-0.217,3.951,1.298,4.167,3.382c0.217,2.086-1.296,3.998-3.382,4.167l-32.968,3.424c-3.253,0.353-5.796,2.967-6.011,6.247
	c-0.117,1.791,0.471,3.52,1.655,4.868c1.184,1.35,2.822,2.157,4.613,2.274l43.772,2.853c4.917,0.319,9.797-0.765,14.112-3.143
	l57.728-31.789l-15.634-31.523l-14.501,12.65c-6.16,5.372-14.317,7.687-22.381,6.346l-48.471-8.056
	c-8.882-1.181-17.787,1.034-25.079,6.237l-65.995,45.449C245.16,228.362,244.636,232.826,246.934,236.02z"/>
<g>
	<path style="fill:#dbe4f8;" d="M324.301,213.37c-3.253,0.353-5.796,2.967-6.011,6.247c-0.117,1.791,0.471,3.52,1.655,4.868
		c1.184,1.35,2.822,2.157,4.613,2.274l18.277,1.191v-16.505L324.301,213.37z"/>
	<path style="fill:#dbe4f8;" d="M246.934,236.02c2.017,2.803,5.682,3.905,8.913,2.691c0.047-0.017,0.093-0.034,0.14-0.05
		l54.703-18.211c-0.012-0.44-0.003-0.883,0.026-1.327c0.457-6.985,5.858-12.597,12.802-13.302l19.32-2.007v-29.11l-3.653-0.607
		c-8.882-1.181-17.787,1.034-25.079,6.237l-65.995,45.449C245.16,228.362,244.636,232.826,246.934,236.02z"/>
</g>
<g>
</g>
<g>
</g>
<g>
</g>
<g>
</g>
<g>
</g>
<g>
</g>
<g>
</g>
<g>
</g>
<g>
</g>
<g>
</g>
<g>
</g>
<g>
</g>
<g>
</g>
<g>
</g>
<g>
</g>
</svg>
