<svg xmlns="http://www.w3.org/2000/svg" width="800" height="800" viewBox="0 0 812 812">
<defs>
    <style>
      .cls-4 {
        fill: #fff;
        fill-rule: evenodd;
      }
    </style>
    <linearGradient id="d2fagrad" x2="0" y2="1">
    	<stop offset="0%" stop-color="#d83f87" />
    	<stop offset="100%" stop-color="#44318d" />
  	</linearGradient>
  	<linearGradient id="d2fagrad2" x2="0" y2="1">
    	<stop offset="0%" stop-color="#f24697" />
    	<stop offset="100%" stop-color="#503aa6" />
  	</linearGradient>
  	<linearGradient id="roundgrad" x2="0" y2="1">
    	<stop offset="0%" stop-color="#fff" />
    	<stop offset="100%" stop-color="#e5e5e5" />
  	</linearGradient>
  </defs>
  <circle id="Round" fill="url(#roundgrad)" cx="406" cy="406" r="406"/>
  <path id="Shield_left" data-name="Shield left" fill="url(#d2fagrad)" d="M406.77,115.639S357.466,249.761,155.3,249.761c0,284.2,251.467,446.6,251.467,446.6"/>
  <path id="Shield_right" data-name="Shield right" fill="url(#d2fagrad2)" d="M404.608,115.567s49.37,134.155,251.8,134.155c0,284.27-251.8,446.711-251.8,446.711"/>
  <path id="d2FA_small" data-name="d2FA small" class="cls-4" d="M345.244,299.7H333.126v28.062h-0.212a15.069,15.069,0,0,0-3.455-3.88,20.165,20.165,0,0,0-4.517-2.71,23.029,23.029,0,0,0-5.1-1.542,29.371,29.371,0,0,0-5.209-.478,24.358,24.358,0,0,0-8.769,1.648,20.75,20.75,0,0,0-7.653,5.155,25.735,25.735,0,0,0-5.368,8.929,36.838,36.838,0,0,0-2.02,12.861,40.311,40.311,0,0,0,1.595,11.533,26.6,26.6,0,0,0,4.783,9.3,22.566,22.566,0,0,0,8.025,6.218,26.248,26.248,0,0,0,11.32,2.285A24.133,24.133,0,0,0,326.43,375a14.391,14.391,0,0,0,7.121-6.856h0.213v7.441h11.48V299.7Zm-41.508,41.721a19,19,0,0,1,2.657-6.378,14.747,14.747,0,0,1,4.784-4.571,13.712,13.712,0,0,1,7.174-1.754,13.483,13.483,0,0,1,11.108,5.1q4.09,5.1,4.092,14.243a27.86,27.86,0,0,1-.9,7.068,20.219,20.219,0,0,1-2.764,6.219,14.425,14.425,0,0,1-4.783,4.464,13.61,13.61,0,0,1-6.962,1.7,13.79,13.79,0,0,1-6.8-1.6,13.97,13.97,0,0,1-4.73-4.251,18.9,18.9,0,0,1-2.764-6.059,26.77,26.77,0,0,1-.9-6.909A33.261,33.261,0,0,1,303.736,341.416Zm47.885,34.173h48.9V371.55H356.723a14.375,14.375,0,0,1,3.773-8.344,50.8,50.8,0,0,1,8.078-7.228q4.729-3.453,10.1-6.962a89.868,89.868,0,0,0,9.992-7.547,38.865,38.865,0,0,0,7.653-8.982,21.419,21.419,0,0,0,3.03-11.427,20.361,20.361,0,0,0-1.807-8.875,17.914,17.914,0,0,0-4.89-6.272,20.626,20.626,0,0,0-7.228-3.72,31.082,31.082,0,0,0-8.822-1.222q-10.95,0-16.742,6.324t-6.43,19.718h4.039a30.891,30.891,0,0,1,1.222-8.876,20.543,20.543,0,0,1,3.667-7.121,17.231,17.231,0,0,1,6.165-4.784,21.68,21.68,0,0,1,15.572-.584,17.89,17.89,0,0,1,5.74,3.348,16.515,16.515,0,0,1,3.986,5.208,15.106,15.106,0,0,1,1.488,6.75A18.626,18.626,0,0,1,393.5,329.3a26,26,0,0,1-4.836,6.75,50.471,50.471,0,0,1-6.856,5.793q-3.827,2.711-7.759,5.368-4.041,2.658-7.919,5.527a51.581,51.581,0,0,0-7.016,6.218,30.683,30.683,0,0,0-5.155,7.441,23.916,23.916,0,0,0-2.338,9.194h0Zm55.591,0h4.677V338.174H450.58v-4.04H411.889v-30.4h42.943V299.7h-47.62v75.894Zm35.609,0h5l9.673-24.341h36.352l9.567,24.341h5L478.43,299.7h-5.1Zm16.157-28.38,16.9-42.943h0.212l16.263,42.943H458.978Z"/>
</svg>
