<svg id="EXCHANGES" xmlns="http://www.w3.org/2000/svg" width="1000" height="1000" viewBox="0 0 1000 1000">
<defs>
    <style>
      .cls-1, .cls-5, .cls-6 {
        fill: none;
        stroke-linecap: round;
      }

      .cls-1, .cls-5 {
        stroke: #183c87;
      }

      .cls-1 {
        stroke-width: 75px;
      }

      .cls-2, .cls-3 {
        fill: #183c87;
      }

      .cls-2, .cls-5, .cls-6 {
        fill-rule: evenodd;
      }

      .cls-4 {
        fill: #fff;
      }

      .cls-5 {
        stroke-width: 101px;
      }

      .cls-6 {
        stroke: #fff;
        stroke-width: 56px;
      }
    </style>
  </defs>
  <g id="Graviex">
    <circle id="Round" class="cls-1" cx="500" cy="500" r="428"/>
    <path id="Stripes" class="cls-2" d="M237,332L586,202s-98.34-32.07-197,6S237,332,237,332Zm-38,94L679,247s46.059,35.145,53,50c-46.133,17.977-513.223,192.086-544,203C187.121,459.969,199,426,199,426Zm1,152c14.961-6.145,553.742-208.488,576-216,7.6,4.246,24,61,24,61L222,639S203.008,596.91,200,578Zm64,123c16.422-4.773,524.043-192.5,546-202,0.52,17.012-9,74-9,74L318,753S261.785,702.648,264,701Zm149,97L760,666s-45.6,78.562-147,122S413,798,413,798Z"/>
    <circle id="Dot_Blue" data-name="Dot Blue" class="cls-3" cx="372" cy="722" r="52"/>
    <circle id="Dot" class="cls-4" cx="372" cy="722" r="29"/>
    <path id="G_Blue" data-name="G Blue" class="cls-5" d="M533,533s-18.582,6.535-37,6c-219-15.562-175.98-291.84,0-285,130.531,10.617,139,128,139,128V600C609.414,718.828,494,723,494,723"/>
    <path id="G" class="cls-6" d="M533,533s-18.582,6.535-37,6c-219-15.562-175.98-291.84,0-285,130.531,10.617,139,128,139,128V600C609.414,718.828,494,723,494,723"/>
  </g>
</svg>
