<svg id="Box_Left" data-name="Box Left" xmlns="http://www.w3.org/2000/svg" width="492.951" height="362.297" viewBox="0 0 1479 1087">
<defs>
    <style>
      .cls-1 {
        fill: #0c2e76;
      }

      .cls-1, .cls-2, .cls-3, .cls-4, .cls-5, .cls-6 {
        fill-rule: evenodd;
      }

      .cls-2 {
        fill: #182237;
      }

      .cls-3 {
        fill: #142a59;
      }

      .cls-4 {
        fill: none;
        stroke: #fff;
        stroke-width: 25px;
      }

      .cls-5 {
        fill: #466bb8;
      }

      .cls-6 {
        fill: #183c87;
      }
    </style>
  </defs>
  <path id="Box_Left-2" data-name="Box Left" class="cls-1" d="M7,548L304,376,600,548V892L304,1064,7,892V548Z"/>
  <path id="Box_Left_left" data-name="Box Left left" class="cls-2" d="M7,892l297,172V721L7,548V892Z"/>
  <path id="Box_Left_top" data-name="Box Left top" class="cls-3" d="M304,376L7,548,304,721,600,548Z"/>
  <path id="Stroke" class="cls-4" d="M14,552L304,385,592,552V886L304,1054,14,886V552Z"/>
  <path id="Box_Left-3" data-name="Box Left" class="cls-5" d="M879,548l297-172,296,172V892l-296,172L879,892V548Z"/>
  <path id="Box_Right_left" data-name="Box Right left" class="cls-3" d="M879,892l297,172V721L879,548V892Z"/>
  <path id="Box_Right_top" data-name="Box Right top" class="cls-6" d="M1176,376L879,548l297,173,296-173Z"/>
  <path id="Stroke-2" data-name="Stroke" class="cls-4" d="M886,552l290-167,288,167V886l-288,168L886,886V552Z"/>
  <path id="Box_Main-2" data-name="Box Main" class="cls-1" d="M364,247L739,28l376,219V370L846,526V841L739,903,633,841V526L364,370V247Z"/>
  <path id="Box_Main_left" data-name="Box Main left" class="cls-3" d="M364,247V370L633,526V841l106,62V465Z"/>
  <path id="Box_Main_top" data-name="Box Main top" class="cls-6" d="M739,26L364,247,739,465l376-218Z"/>
  <path id="Box_Main_stroke" data-name="Box Main stroke" class="cls-4" d="M372,252L739,38.38,1105,252V365L838,520V836l-99,57-99-57V520L372,365V252Z"/>
</svg>
