<svg id="Cube_Light" data-name="Cube Light" xmlns="http://www.w3.org/2000/svg" width="1023.769" height="200.109" viewBox="0 0 6083 1189">
<defs>
    <style>
      .cls-1 {
        fill: #f7f7f7;
        fill-rule: evenodd;
      }
    </style>
  </defs>
  <g id="Box_Left" data-name="Box Left">
    <path id="Box_Left-2" data-name="Box Left" class="cls-1" d="M73,662L370,490,666,662v344L370,1178,73,1006V662Z"/>
  </g>
  <g id="Box_Right" data-name="Box Right">
    <path id="Box_Left-3" data-name="Box Left" class="cls-1" d="M945,662l297-172,296,172v344l-296,172L945,1006V662Z"/>
  </g>
  <g id="Box_Main" data-name="Box Main">
    <path id="Box_Main-2" data-name="Box Main" class="cls-1" d="M430,361L805,142l376,219V484L912,640V955l-107,62L699,955V640L430,484V361Z"/>
  </g>
  <path id="zelcore_light" data-name="zelcore light" class="cls-1" d="M1979.14,428.135h387.83l-417,506.281V1051.13h663.44v-131H2159.97l432-506.282V297.135H1979.14v131Zm812.08,180q1.455-42.328,16.76-78.829,15.33-36.492,40.85-63.5a181.833,181.833,0,0,1,61.26-42.343q35.73-15.329,79.5-15.328,42.285,0,76.58,16.8a187.93,187.93,0,0,1,58.35,43.8q24.06,27,37.92,63.5a268.931,268.931,0,0,1,16.78,75.907h-388Zm554,109q10.2-84.493-10.94-163.907t-67.76-140.593q-46.65-61.2-117.33-98.344-70.7-37.149-159.6-37.156-84.54,0-151.57,32.062-67.065,32.063-114.43,86.688t-72.87,126.734q-25.5,72.117-25.5,152.25,0,87.421,24.05,160.25t71.43,125.3q47.4,52.453,115.91,81.574,68.535,29.145,157.45,29.14a407.787,407.787,0,0,0,117.36-16.78q56.13-16.77,101.33-49.65a315,315,0,0,0,77.27-81.05q32.055-48.187,45.2-109.515h-157q-21.915,63-66.45,94.5t-117.55,31.5q-52.59,0-90.55-18.219t-62.8-48.828q-24.84-30.61-37.24-71.422a288.315,288.315,0,0,1-12.41-84.531h554Zm58.92,334h166v-1041h-166v1041Zm887.53-518q-5.835-62.6-32.06-109.938-26.25-47.321-67.78-77.906-41.55-30.562-94.75-45.86-53.2-15.28-114.42-15.3-83.085,0-147.22,30.64-64.125,30.657-107.86,83.172-43.74,52.547-66.31,122.563-22.605,70.031-22.6,148.828t19.67,151.031Q3678,892.6,3719.53,948.041q41.535,55.453,106.36,88.269t156.63,32.82a340.058,340.058,0,0,0,113.64-18.98,302.983,302.983,0,0,0,96.15-54.8q42.24-35.788,69.94-88.39,27.675-52.594,36.42-119.828h-55q-7.305,51.188-29.18,94.328-21.9,43.148-56.16,73.859a259.644,259.644,0,0,1-78.78,48.268q-44.505,17.55-97.02,17.54-72.93,0-126.92-26.261a251.145,251.145,0,0,1-90.45-73.719q-36.48-47.437-53.99-111.672-17.505-64.218-17.5-140.14a415.2,415.2,0,0,1,18.97-124.813q18.99-60.562,55.47-108.015a273.857,273.857,0,0,1,90.5-75.907q54-28.452,124.08-28.468,51.09,0,95.61,13.109,44.505,13.125,78.09,37.875a194.642,194.642,0,0,1,54.74,62.625q21.165,37.875,25.54,87.391h55Zm52.52,295.25q22.545,71.507,66.22,124.765t107.7,84.63q64.035,31.335,147.02,31.35,82.965,0,147-31.35,64.02-31.365,107.7-84.63,43.665-53.25,66.23-124.765,22.56-71.485,22.57-151.75t-22.57-151.016q-22.56-70.758-66.23-124.75t-107.7-85.359q-64.035-31.36-147-31.375-82.98,0-147.02,31.375-64.035,31.359-107.7,85.359t-66.22,124.75q-22.575,70.78-22.56,151.016T4344.19,828.385Zm51.37-280.938q18.945-62.038,55.38-110.2a269.816,269.816,0,0,1,90.33-76.641q53.91-28.452,123.86-28.468,69.93,0,123.84,28.468a269.85,269.85,0,0,1,90.34,76.641q36.435,48.164,55.36,110.2a449.6,449.6,0,0,1,0,258.375q-18.93,62.063-55.36,110.219a269.621,269.621,0,0,1-90.34,76.625q-53.91,28.476-123.84,28.464-69.945,0-123.86-28.464a269.587,269.587,0,0,1-90.33-76.625q-36.42-48.165-55.38-110.219A450.284,450.284,0,0,1,4395.56,547.447Zm726.26-245.312h-55v749h55V641.322q1.455-42.28,7.29-72.922a285.474,285.474,0,0,1,16.03-55.422,205.885,205.885,0,0,1,25.52-45.2,518.215,518.215,0,0,1,35.72-42.3q51.03-49.593,107.16-64.172t99.89-8.75V297.135A347.812,347.812,0,0,0,5315,308.072q-47.385,12.4-86.01,35.734-38.655,23.345-65.63,55.422t-37.17,68.547h-4.37V302.135Zm886.01,382c0-3.891.15-9,.5-15.329,0.32-6.312.5-11.906,0.5-16.781q0-75.913-21.1-142.344T5925.89,392.9q-40.74-50.367-101.13-79.562t-138.93-29.2q-85.86,0-149.14,32.828T5431.2,404.51q-42.18,54.726-63.28,126.953t-21.09,151.015q0,81.7,20.37,152.469,20.37,70.782,61.86,122.563,41.49,51.8,103.34,81.72,61.86,29.88,144.83,29.9,135.375,0,217.61-70.183,82.215-70.2,106.99-201.812h-55q-24.75,105.422-90.27,164.7-65.505,59.3-177.59,59.292-68.445,0-120.11-26.245a245.492,245.492,0,0,1-85.89-71.485q-34.23-45.234-51.67-105.047-17.49-59.812-17.47-125.468v-8.75h604Zm-603-48a456.766,456.766,0,0,1,23.31-114q18.93-55.524,53.92-97.188,34.965-41.649,86-67.234,51-25.571,118.05-25.578,62.67,0,111.5,24.843a257.816,257.816,0,0,1,83.08,66.5q34.23,41.673,51.73,96.469t20.41,116.188h-548Z"/>
</svg>
