<svg xmlns="http://www.w3.org/2000/svg" width="680.628" height="171.776" viewBox="0 0 4204 1061">
<defs>
    <style>
      .cls-1 {
        fill: #883f78;
      }

      .cls-1, .cls-3, .cls-4 {
        fill-rule: evenodd;
      }

      .cls-3 {
        fill: #fff;
      }

      .cls-4 {
        fill: #8a3f79;
      }
    </style>
    <linearGradient id="zelidgrad" x2="0" y2="1">
    	<stop offset="0%" stop-color="#8a3f79" />
    	<stop offset="100%" stop-color="#663b5d" />
  	</linearGradient>
  	<linearGradient id="roundgrad" x2="0" y2="1">
    	<stop offset="0%" stop-color="#fff" />
    	<stop offset="100%" stop-color="#e5e5e5" />
  	</linearGradient>
  </defs>
  <path id="zelID" fill="url(#zelidgrad)" d="M1503.14,418.135h387.83l-417,506.281V1041.13h663.44v-131H1683.97l432-506.282V287.135H1503.14v131Zm812.08,180q1.455-42.328,16.76-78.829,15.33-36.492,40.85-63.5a181.833,181.833,0,0,1,61.26-42.343q35.73-15.329,79.5-15.328,42.285,0,76.58,16.8a187.93,187.93,0,0,1,58.35,43.8q24.06,27,37.92,63.5a268.931,268.931,0,0,1,16.78,75.907h-388Zm554,109q10.2-84.493-10.94-163.907t-67.76-140.593q-46.65-61.2-117.33-98.344-70.7-37.149-159.6-37.156-84.54,0-151.57,32.062-67.065,32.063-114.43,86.688t-72.87,126.734q-25.5,72.117-25.5,152.25,0,87.421,24.05,160.25t71.43,125.3q47.4,52.453,115.91,81.574,68.535,29.145,157.45,29.14a407.787,407.787,0,0,0,117.36-16.78q56.13-16.77,101.33-49.653a314.767,314.767,0,0,0,77.27-81.047q32.055-48.187,45.2-109.515h-157q-21.915,63-66.45,94.5t-117.55,31.5q-52.59,0-90.55-18.219t-62.79-48.828q-24.855-30.61-37.26-71.422a288.641,288.641,0,0,1-12.4-84.531h554Zm58.92,334h166V0.135h-166v1041Zm278.53,0h64V0.135h-64v1041Zm175,0H3719.8q125.34,0,216.43-40.09t150.85-110.077q59.73-69.985,88.17-165.485,28.41-95.484,28.42-206.3a815.1,815.1,0,0,0-22.59-192.453q-22.6-93.3-77.99-166.2T3955.17,43.885Q3862.62,0.15,3722.72.135H3381.67v1041Zm64-55v-931h266.81q37.905,0,85.28,5.109A443.414,443.414,0,0,1,3892.53,81.4q47.385,16.055,91.86,45.969t78.73,81.719q34.275,51.8,55.41,127.687t21.14,182.406q0,135.7-37.19,225.454-37.17,89.742-96.95,143-59.76,53.273-133.41,75.89-73.635,22.617-146.51,22.61H3445.67Z"/>
  <circle id="Round" fill="url(#roundgrad)" cx="530.5" cy="530.5" r="530.5"/>
  <path id="Fingerprint_White" data-name="Fingerprint White" class="cls-3" d="M587.926,611.677V544.226a48.246,48.246,0,0,0-96.491,0v60.9a296.055,296.055,0,0,1-76.153,198.4l-66.4,73.907a15.4,15.4,0,0,0,22.891,20.6l66.4-73.906A326.8,326.8,0,0,0,522.23,605.125v-60.9a17.451,17.451,0,0,1,34.9,0v67.451A361.462,361.462,0,0,1,462.9,855.353l-66,72.582a15.395,15.395,0,0,0,22.785,20.709l66-72.582A392.175,392.175,0,0,0,587.926,611.677Zm65.695-67.451a113.941,113.941,0,0,0-227.881,0v60.9a230.5,230.5,0,0,1-59.289,154.461L310.474,820.9a15.4,15.4,0,0,0,22.892,20.6l55.975-61.312a261.221,261.221,0,0,0,67.195-175.056v-60.9a83.147,83.147,0,0,1,166.293,0v67.451A427,427,0,0,1,511.51,899.532l-55.688,61.242a15.394,15.394,0,0,0,22.784,20.708L534.3,920.24A457.714,457.714,0,0,0,653.621,611.677V544.226Zm65.7,0c0-99.025-80.585-179.586-179.637-179.586S360.043,445.2,360.043,544.226v60.9a164.929,164.929,0,0,1-42.425,110.524l-45.956,50.759A15.4,15.4,0,0,0,294.553,787l45.956-50.759a195.66,195.66,0,0,0,50.329-131.12v-60.9c0-82.049,66.77-148.8,148.843-148.8s148.842,66.751,148.842,148.8v67.451a492.513,492.513,0,0,1-128.4,332.032l-27.171,30.016a15.4,15.4,0,0,0,22.786,20.709L582.9,964.418A523.24,523.24,0,0,0,719.315,611.677V544.226h0Zm-424.97,0a15.4,15.4,0,0,0,30.795,0A214.853,214.853,0,0,1,509.019,331.933a15.393,15.393,0,1,0-4.379-30.473A245.646,245.646,0,0,0,294.348,544.226Zm30.795,60.9a15.4,15.4,0,0,0-30.795,0,99.362,99.362,0,0,1-25.558,66.586l-38.553,42.828a15.4,15.4,0,0,0,22.891,20.594l38.553-42.826A130.1,130.1,0,0,0,325.143,605.125ZM754.791,742.536a15.408,15.408,0,0,0-18.8,11,558.69,558.69,0,0,1-21.023,64.154,15.4,15.4,0,0,0,28.631,11.34,589.822,589.822,0,0,0,22.184-67.7A15.4,15.4,0,0,0,754.791,742.536Zm-51.25-380.7a15.4,15.4,0,1,0-20.59,22.893,214.824,214.824,0,0,1,71.266,159.5v67.451a563.583,563.583,0,0,1-5.25,76.676,15.4,15.4,0,0,0,30.5,4.2,594.5,594.5,0,0,0,5.54-80.877V544.226A245.644,245.644,0,0,0,703.541,361.832Zm-71.983-11.4a15.394,15.394,0,1,0,13.24-27.8,243.373,243.373,0,0,0-70.081-21.174,15.392,15.392,0,1,0-4.379,30.471A212.671,212.671,0,0,1,631.558,350.429ZM539.681,233.286c-5.761,0-11.588.16-17.321,0.475a15.392,15.392,0,1,0,1.695,30.737c5.171-.285,10.428-0.428,15.624-0.428,154.52,0,280.233,125.675,280.233,280.153v67.452a15.4,15.4,0,0,0,30.795,0V544.226C850.709,372.774,711.181,233.286,539.681,233.286ZM371.327,316.8a15.34,15.34,0,0,0,8.776-2.756,278.654,278.654,0,0,1,83.624-39.526,15.394,15.394,0,1,0-8.355-29.632,309.391,309.391,0,0,0-92.849,43.878A15.4,15.4,0,0,0,371.327,316.8ZM259.447,605.125v-60.9a278.9,278.9,0,0,1,76.381-192.034,15.4,15.4,0,1,0-22.406-21.119,309.565,309.565,0,0,0-84.77,213.153v60.9a33.793,33.793,0,0,1-8.693,22.648l-18.985,21.089a15.4,15.4,0,0,0,22.89,20.6l18.986-21.089A64.546,64.546,0,0,0,259.447,605.125Zm637.4-180.752a374.506,374.506,0,0,0-79.771-134.724,15.4,15.4,0,1,0-22.677,20.83A343.91,343.91,0,0,1,867.665,434.19,15.4,15.4,0,0,0,896.85,424.373ZM661.364,187.767a15.392,15.392,0,1,0-9.969,29.126,344.97,344.97,0,0,1,94.745,50.015,15.4,15.4,0,0,0,18.42-24.674A375.78,375.78,0,0,0,661.364,187.767Zm-360.927,106.9a344.248,344.248,0,0,1,239.244-96.275,349.235,349.235,0,0,1,49.673,3.553,15.393,15.393,0,1,0,4.4-30.47,380.2,380.2,0,0,0-54.076-3.869,374.9,374.9,0,0,0-260.556,104.84c-70.311,67.4-111.431,157.84-115.783,254.671a15.392,15.392,0,0,0,14.689,16.068c0.236,0.013.471,0.017,0.7,0.017a15.4,15.4,0,0,0,15.371-14.7C198.1,439.608,235.862,356.566,300.437,294.669ZM539.681,101.931A443.2,443.2,0,0,0,437.7,113.79a15.392,15.392,0,1,0,7.1,29.955,412.569,412.569,0,0,1,94.884-11.028c112.906,0,218.3,44.971,296.76,126.624a15.395,15.395,0,1,0,22.209-21.325A441.283,441.283,0,0,0,539.681,101.931Zm-345.867,191.7a15.4,15.4,0,0,0,21.616-2.629A414.294,414.294,0,0,1,382.5,163.9a15.394,15.394,0,1,0-11.8-28.438A445.155,445.155,0,0,0,191.184,272.023,15.392,15.392,0,0,0,193.814,293.634Z"/>
  <path id="Fingerprint_Purple" data-name="Fingerprint Purple" class="cls-4" d="M587.926,611.677V544.226a48.246,48.246,0,0,0-96.491,0v60.9a296.055,296.055,0,0,1-76.153,198.4l-66.4,73.907a15.4,15.4,0,0,0,22.891,20.6l66.4-73.906A326.8,326.8,0,0,0,522.23,605.125v-60.9a17.451,17.451,0,0,1,34.9,0v67.451A361.462,361.462,0,0,1,462.9,855.353l-66,72.582a15.395,15.395,0,0,0,22.785,20.709l66-72.582A392.175,392.175,0,0,0,587.926,611.677Zm65.695-67.451a113.941,113.941,0,0,0-227.881,0v60.9a230.5,230.5,0,0,1-59.289,154.461L310.474,820.9a15.4,15.4,0,0,0,22.892,20.6l55.975-61.312a261.221,261.221,0,0,0,67.195-175.056v-60.9a83.147,83.147,0,0,1,166.293,0v67.451A427,427,0,0,1,511.51,899.532l-55.688,61.242a15.394,15.394,0,0,0,22.784,20.708L534.3,920.24A457.714,457.714,0,0,0,653.621,611.677V544.226Zm65.7,0c0-99.025-80.585-179.586-179.637-179.586S360.043,445.2,360.043,544.226v60.9a164.929,164.929,0,0,1-42.425,110.524l-45.956,50.759A15.4,15.4,0,0,0,294.553,787l45.956-50.759a195.66,195.66,0,0,0,50.329-131.12v-60.9c0-82.049,66.77-148.8,148.843-148.8s148.842,66.751,148.842,148.8v67.451a492.513,492.513,0,0,1-128.4,332.032l-27.171,30.016a15.4,15.4,0,0,0,22.786,20.709L582.9,964.418A523.24,523.24,0,0,0,719.315,611.677V544.226h0Zm-394.175,60.9a15.4,15.4,0,0,0-30.795,0,99.362,99.362,0,0,1-25.558,66.586l-38.553,42.828a15.4,15.4,0,0,0,22.891,20.594l38.553-42.826A130.1,130.1,0,0,0,325.143,605.125ZM754.791,742.536a15.408,15.408,0,0,0-18.8,11,558.69,558.69,0,0,1-21.023,64.154,15.4,15.4,0,0,0,28.631,11.34,589.822,589.822,0,0,0,22.184-67.7A15.4,15.4,0,0,0,754.791,742.536Zm-51.25-380.7a15.4,15.4,0,1,0-20.59,22.893,214.824,214.824,0,0,1,71.266,159.5v67.451a563.583,563.583,0,0,1-5.25,76.676,15.4,15.4,0,0,0,30.5,4.2,594.5,594.5,0,0,0,5.54-80.877V544.226A245.644,245.644,0,0,0,703.541,361.832ZM259.447,605.125v-60.9a278.9,278.9,0,0,1,76.381-192.034,15.4,15.4,0,1,0-22.406-21.119,309.565,309.565,0,0,0-84.77,213.153v60.9a33.793,33.793,0,0,1-8.693,22.648l-18.985,21.089a15.4,15.4,0,0,0,22.89,20.6l18.986-21.089A64.546,64.546,0,0,0,259.447,605.125Zm637.4-180.752a374.506,374.506,0,0,0-79.771-134.724,15.4,15.4,0,1,0-22.677,20.83A343.91,343.91,0,0,1,867.665,434.19,15.4,15.4,0,0,0,896.85,424.373ZM661.364,187.767a15.392,15.392,0,1,0-9.969,29.126,344.97,344.97,0,0,1,94.745,50.015,15.4,15.4,0,0,0,18.42-24.674A375.78,375.78,0,0,0,661.364,187.767Zm-360.927,106.9a344.248,344.248,0,0,1,239.244-96.275,349.235,349.235,0,0,1,49.673,3.553,15.393,15.393,0,1,0,4.4-30.47,380.2,380.2,0,0,0-54.076-3.869,374.9,374.9,0,0,0-260.556,104.84c-70.311,67.4-111.431,157.84-115.783,254.671a15.392,15.392,0,0,0,14.689,16.068c0.236,0.013.471,0.017,0.7,0.017a15.4,15.4,0,0,0,15.371-14.7C198.1,439.608,235.862,356.566,300.437,294.669ZM539.681,101.931A443.2,443.2,0,0,0,437.7,113.79a15.392,15.392,0,1,0,7.1,29.955,412.569,412.569,0,0,1,94.884-11.028c112.906,0,218.3,44.971,296.76,126.624a15.395,15.395,0,1,0,22.209-21.325A441.283,441.283,0,0,0,539.681,101.931Zm-345.867,191.7a15.4,15.4,0,0,0,21.616-2.629A414.294,414.294,0,0,1,382.5,163.9a15.394,15.394,0,1,0-11.8-28.438A445.155,445.155,0,0,0,191.184,272.023,15.392,15.392,0,0,0,193.814,293.634Zm127.549,259.4a15.337,15.337,0,0,0,3.088-8.664c1.225-31.176,8.874-61.641,20.154-90.555a15.394,15.394,0,1,0-28.684-11.188c-12.528,32.111-20.877,65.937-22.237,100.539A15.4,15.4,0,0,0,321.363,553.034ZM850.491,606V545.007a311.013,311.013,0,0,0-84.407-213.478,15.273,15.273,0,0,0-21.673-.641,15.478,15.478,0,0,0-.638,21.793,280.2,280.2,0,0,1,76.055,192.326V606c-0.165,17.167,7.523,20.78,15.122,21.193C847.543,627.059,850.491,616.732,850.491,606Z"/>
  <path id="zelID2" data-name="zelID2" class="cls-1" d="M381.586,279.963h41.708L378.45,334.372v12.544h71.343V332.8H401.029L447.441,278.4V265.851H381.586v14.112Zm89.688,19.286a23.779,23.779,0,0,1,1.8-8.467,22.53,22.53,0,0,1,4.391-6.821,19.536,19.536,0,0,1,6.585-4.547,21.492,21.492,0,0,1,8.546-1.646,18.5,18.5,0,0,1,8.232,1.8,20.235,20.235,0,0,1,6.272,4.7,21.785,21.785,0,0,1,4.076,6.821,28.9,28.9,0,0,1,1.8,8.153H471.274Zm59.584,11.76a46.457,46.457,0,0,0-1.176-17.64,42.883,42.883,0,0,0-7.292-15.131,37.7,37.7,0,0,0-12.622-10.584,36.341,36.341,0,0,0-17.169-4,36.777,36.777,0,0,0-28.616,12.779,41.91,41.91,0,0,0-7.84,13.641,48.788,48.788,0,0,0-2.744,16.386,54.771,54.771,0,0,0,2.588,17.248,37.223,37.223,0,0,0,7.683,13.484,34.962,34.962,0,0,0,12.465,8.781,42.927,42.927,0,0,0,16.934,3.136,43.938,43.938,0,0,0,12.622-1.8,35.871,35.871,0,0,0,10.9-5.332,33.612,33.612,0,0,0,13.171-20.462H512.826a19.926,19.926,0,0,1-7.135,10.114Q500.908,335,493.069,335a22.223,22.223,0,0,1-9.721-1.96,19.249,19.249,0,0,1-6.743-5.253,22.354,22.354,0,0,1-4-7.683,31.107,31.107,0,0,1-1.333-9.094h59.584Zm8.623,35.907h17.875V234.962H539.481V346.916Zm32.3,0h6.9V234.962h-6.9V346.916Zm21.168,0h36.377q13.484,0,23.285-4.312a44.588,44.588,0,0,0,16.228-11.839,48.176,48.176,0,0,0,9.486-17.8,77.4,77.4,0,0,0,3.058-22.187,87.688,87.688,0,0,0-2.43-20.7,47.816,47.816,0,0,0-8.389-17.875,42.188,42.188,0,0,0-15.915-12.544q-9.96-4.7-25.009-4.7H592.949V346.916Zm6.9-5.959V240.92h28.694a86.744,86.744,0,0,1,9.173.549,47.815,47.815,0,0,1,10.192,2.274,41.739,41.739,0,0,1,9.878,4.939,31.013,31.013,0,0,1,8.467,8.78,48.318,48.318,0,0,1,5.958,13.72,73.787,73.787,0,0,1,2.274,19.6q0,14.582-4,24.225a41.347,41.347,0,0,1-10.427,15.366,38.26,38.26,0,0,1-14.347,8.154,53.418,53.418,0,0,1-15.758,2.43H599.848Z"/>
</svg>
