<svg id="Cube" xmlns="http://www.w3.org/2000/svg" width="511.856" height="512.112" viewBox="0 0 2001 2002">
<defs>
    <style>
      .cls-1, .cls-7 {
        fill: #183c87;
      }

      .cls-1, .cls-5 {
        stroke: #fff;
      }

      .cls-1 {
        stroke-width: 50px;
      }

      .cls-2 {
        fill: #0c2e76;
      }

      .cls-2, .cls-3, .cls-4, .cls-5, .cls-6, .cls-7 {
        fill-rule: evenodd;
      }

      .cls-3 {
        fill: #182237;
      }

      .cls-4 {
        fill: #142a59;
      }

      .cls-5 {
        fill: none;
        stroke-width: 25px;
      }

      .cls-6 {
        fill: #466bb8;
      }
    </style>
  </defs>
  <circle class="cls-1" cx="1000.997" cy="1001.997" r="975.622"/>
  <g id="Box_Left" data-name="Box Left">
    <path id="Box_Left-2" data-name="Box Left" class="cls-2" d="M269,974L566,802,862,974v344L566,1490,269,1318V974Z"/>
    <path id="Box_Left_left" data-name="Box Left left" class="cls-3" d="M269,1318l297,172V1147L269,974v344Z"/>
    <path id="Box_Left_top" data-name="Box Left top" class="cls-4" d="M566,802L269,974l297,173L862,974Z"/>
    <path id="Stroke" class="cls-5" d="M276,978L566,811,854,978v334L566,1480,276,1312V978Z"/>
  </g>
  <g id="Box_Right" data-name="Box Right">
    <path id="Box_Left-3" data-name="Box Left" class="cls-6" d="M1141,974l297-172,296,172v344l-296,172-297-172V974Z"/>
    <path id="Box_Right_left" data-name="Box Right left" class="cls-4" d="M1141,1318l297,172V1147L1141,974v344Z"/>
    <path id="Box_Right_top" data-name="Box Right top" class="cls-7" d="M1438,802L1141,974l297,173,296-173Z"/>
    <path id="Stroke-2" data-name="Stroke" class="cls-5" d="M1148,978l290-167,288,167v334l-288,168-290-168V978Z"/>
  </g>
  <g id="Box_Main" data-name="Box Main">
    <path id="Box_Main-2" data-name="Box Main" class="cls-2" d="M626,673l375-219,376,219V796L1108,952v315l-107,62-106-62V952L626,796V673Z"/>
    <path id="Box_Main_left" data-name="Box Main left" class="cls-4" d="M626,673V796L895,952v315l106,62V891Z"/>
    <path id="Box_Main_top" data-name="Box Main top" class="cls-7" d="M1001,452L626,673l375,218,376-218Z"/>
    <path id="Box_Main_stroke" data-name="Box Main stroke" class="cls-5" d="M634,678l367-213.62L1367,678V791L1100,946v316l-99,57-99-57V946L634,791V678Z"/>
  </g>
</svg>
