<svg class="w-80" xmlns="http://www.w3.org/2000/svg" viewBox="0 0 400 38">
  <title>Zeltrez Logo</title>
  <g fill="#232220" fill-rule="evenodd">
    <path d="M113.7 28.6v7.9H83.1V29l18.5-19.4H83.4V1.8h29.8v7.5L94.7 28.6h19zm49-.2v8h-28.8V1.9h28v8h-17.2v5.7h13.8v7.4h-13.8v5.5h18zm47.3 0v8h-27.2V1.9h10.7v26.6H210zm46.3-24.2h-12.7v32.3H241V4.2h-12.7V1.8h28v2.4zm45.4 32.3l-10-15h-10.4v15h-2.6V1.8h12.9c3.4 0 6.2.9 8.3 2.6a9 9 0 0 1 3 7.2c0 2.5-.7 4.6-2.2 6.3a10.4 10.4 0 0 1-6 3.2l10 15.4h-3zM281.3 19h10.2c2.8 0 5-.7 6.5-2 1.5-1.2 2.2-3 2.2-5.4 0-2.4-.7-4.2-2.2-5.5-1.5-1.3-3.7-1.9-6.5-1.9h-10.2V19zm71.4 15v2.5h-24.6V1.8H352v2.4h-21.1v13.4h16.7v2.5h-16.7v14h22zm47 0v2.5H373v-2.3l23-30h-22.5V1.8h25.5V4l-22.9 30h23.8zM10.2 14.3L0 20.3v12l10.2 6 10.1-6v-12zM45 14.3l-10.3 6v12l10.2 6 10.1-6v-12z"></path>
    <path d="M14.3 7.8V12l9.7 5.6V29l3.5 2 3.6-2V17.7l9.6-5.6V7.8L27.5 0z"></path>
  </g>
</svg>
