<svg id="Box_Left" data-name="Box Left" xmlns="http://www.w3.org/2000/svg" width="1855.481" height="396.294" viewBox="0 0 5567 1189">
<defs>
    <style>
      .cls-1 {
        fill: #232220;
        fill-rule: evenodd;
      }
    </style>
  </defs>
  <path id="Box_Left-2" data-name="Box Left" class="cls-1" d="M73,596L370,424,666,596V940L370,1112,73,940V596Z"/>
  <path id="Box_Left-3" data-name="Box Left" class="cls-1" d="M945,596l297-172,296,172V940l-296,172L945,940V596Z"/>
  <path id="Box_Main-2" data-name="Box Main" class="cls-1" d="M430,295L805,76l376,219V418L912,574V889L805,951,699,889V574L430,418V295Z"/>
  <path id="zeltrez_copy" data-name="zeltrez  copy" class="cls-1" d="M1979.14,492.135h387.83l-417,506.281V1115.13h663.44v-131H2159.97l432-506.282V361.135H1979.14v131Zm812.08,180q1.455-42.328,16.76-78.829,15.33-36.492,40.85-63.5a181.833,181.833,0,0,1,61.26-42.343q35.73-15.329,79.5-15.328,42.285,0,76.58,16.8a187.93,187.93,0,0,1,58.35,43.8q24.06,27,37.92,63.5a268.931,268.931,0,0,1,16.78,75.907h-388Zm554,109q10.2-84.493-10.94-163.907t-67.76-140.593q-46.65-61.2-117.33-98.344-70.7-37.149-159.6-37.156-84.54,0-151.57,32.062-67.065,32.063-114.43,86.688t-72.87,126.734q-25.5,72.117-25.5,152.25,0,87.421,24.05,160.25t71.43,125.3q47.4,52.44,115.91,81.57,68.535,29.145,157.45,29.14a407.787,407.787,0,0,0,117.36-16.78q56.13-16.77,101.33-49.65a314.764,314.764,0,0,0,77.27-81.05q32.055-48.187,45.2-109.515h-157q-21.915,63-66.45,94.5t-117.55,31.5q-52.59,0-90.55-18.214t-62.79-48.828q-24.855-30.61-37.26-71.422a288.641,288.641,0,0,1-12.4-84.531h554Zm58.92,334h166v-1041h-166v1041Zm543.83-749h-163.3v-234h-55v234H3591.16v48h138.51v523.2q-2.925,64.125,15.19,100.562,18.09,36.42,48.64,54.64,30.54,18.24,70.64,21.88a518.129,518.129,0,0,0,82.38.71v-48q-39.375,1.455-69.25-1.45-29.91-2.91-51.03-16.76-21.15-13.83-31.36-40.08-10.23-26.253-10.21-71.424V414.135h163.3v-48Zm84.48,0h-55v749h55V705.322q1.44-42.28,7.29-72.922a285.474,285.474,0,0,1,16.03-55.422,205.885,205.885,0,0,1,25.52-45.2,518.215,518.215,0,0,1,35.72-42.3q51.015-49.593,107.15-64.172t99.9-8.75V361.135a347.771,347.771,0,0,0-98.43,10.937q-47.385,12.4-86.01,35.734-38.655,23.345-65.63,55.422t-37.17,68.547h-4.37V366.135Zm886.01,382c0-3.891.15-9,.5-15.329,0.32-6.312.5-11.906,0.5-16.781q0-75.913-21.1-142.344T4836.52,456.9q-40.74-50.367-101.13-79.562t-138.93-29.2q-85.86,0-149.15,32.828-63.27,32.835-105.48,87.547-42.18,54.726-63.28,126.953t-21.09,151.015q0,81.7,20.37,152.469,20.37,70.782,61.86,122.563t103.34,81.72q61.86,29.88,144.83,29.9,135.375,0,217.61-70.18,82.215-70.2,106.99-201.815h-55q-24.75,105.422-90.27,164.7-65.5,59.295-177.59,59.29-68.445,0-120.11-26.25a245.436,245.436,0,0,1-85.89-71.48q-34.23-45.234-51.68-105.047-17.475-59.812-17.46-125.468v-8.75h604Zm-603-48a456.766,456.766,0,0,1,23.31-114q18.93-55.524,53.92-97.188,34.965-41.649,86-67.234,51-25.571,118.05-25.578,62.67,0,111.5,24.843a257.671,257.671,0,0,1,83.07,66.5q34.245,41.673,51.74,96.469t20.41,116.188h-548Zm650.39,367L5470.32,418.6V366.135H4938.15v48h463.64l-503,648.535v52.46h594.86v-48h-527.8Z"/>
</svg>
