<svg id="SVG" xmlns="http://www.w3.org/2000/svg" width="8633" height="1100" viewBox="0 0 8633 1100">
<defs>
    <linearGradient id="Grad" x1="0%" y1="0%" x2="0%" y2="100%">
      <stop offset="0%" style="stop-color:rgb(0,150,255);stop-opacity:1" />
      <stop offset="100%" style="stop-color:rgb(0,95,162);stop-opacity:1" />
    </linearGradient>
  </defs>
  <g id="zeltech">
    <path id="Left" fill="url(#Grad)" d="M0,262L290,95,578,262V596L290,764,0,596V262Z"/>
    <path id="Right" fill="url(#Grad)" d="M872,262L1162,95l288,167V596L1162,764,872,596V262Z"/>
    <path id="Front" fill="url(#Grad)" d="M436,516L726,349l288,167V850L726,1018,436,850V516Z"/>
  </g>
  <path id="zeltechnologies" fill="url(#Grad)" d="M1641.17,347.142H1962.5l-345,419.328v96.672h549.69v-109H1791.5l357-419.328V238.142H1641.17v109Zm673.08,149a182.313,182.313,0,0,1,13.87-65.031,172.734,172.734,0,0,1,33.79-52.391,150.553,150.553,0,0,1,50.68-34.922q29.58-12.656,65.78-12.656,34.98,0,63.35,13.859a155.6,155.6,0,0,1,48.26,36.125,167.074,167.074,0,0,1,31.4,52.391,221.227,221.227,0,0,1,13.87,62.625h-321Zm459,91q8.43-70.079-9.08-135.969-17.535-65.859-56.19-116.625-38.67-50.766-97.28-81.578t-132.33-30.828q-70.1,0-125.68,26.562-55.59,26.579-94.88,71.844-39.27,45.282-60.42,105.031-21.135,59.766-21.14,126.172,0,72.446,19.92,132.813t59.16,103.828q39.225,43.453,95.98,67.609,56.745,24.117,130.41,24.141a337.581,337.581,0,0,0,97.2-13.906,275.909,275.909,0,0,0,83.91-41.157,261.106,261.106,0,0,0,64-67.172q26.55-39.937,37.42-90.765h-130q-18.12,52.008-54.95,78-36.855,26.016-97.21,26-43.47,0-74.87-15.031t-51.92-40.282q-20.535-25.264-30.78-58.937a237.542,237.542,0,0,1-10.27-69.75h459Zm48.42,276h138v-863h-138v863Zm451.08-621h-135.3v-193h-46v193H2976.69v40h114.76v433.64q-2.43,53.157,12.71,83.344t40.53,45.3q25.38,15.094,58.61,18.125a429.619,429.619,0,0,0,68.25.594v-40q-32.625,1.218-57.38-1.2t-42.28-13.891q-17.535-11.461-25.98-33.2-8.46-21.75-8.46-59.172V282.142h135.3v-40Zm526.32,317q0-4.829.5-12.672t0.5-13.906q0-62.812-17.5-117.782-17.475-54.96-51.28-96.64t-83.86-65.828q-50.055-24.165-115.22-24.172-71.19,0-123.68,27.187t-87.49,72.5q-34.995,45.3-52.48,105.11a443.193,443.193,0,0,0-17.49,125.031q0,67.663,16.89,126.266t51.29,101.484q34.38,42.891,85.67,67.656,51.285,24.75,120.06,24.766,112.215,0,180.41-58.063,68.145-58.054,88.68-166.937h-46q-20.52,87.07-74.81,136.031-54.285,48.984-147.17,48.969-56.715,0-99.53-21.735a203.584,203.584,0,0,1-71.19-59.187q-28.365-37.429-42.83-86.953a368.4,368.4,0,0,1-14.47-103.875v-7.25h501Zm-500-40a376.13,376.13,0,0,1,19.32-94.125q15.705-45.844,44.67-80.25,28.965-34.383,71.25-55.5,42.255-21.117,97.8-21.125,51.9,0,92.37,20.515a213.435,213.435,0,0,1,68.83,54.907q28.35,34.405,42.86,79.64a372.146,372.146,0,0,1,16.9,95.938h-454Zm1060.71-85q-4.83-51.8-26.56-90.953-21.75-39.141-56.16-64.453-34.425-25.29-78.5-37.938t-94.8-12.656q-68.835,0-121.97,25.375t-89.35,68.875q-36.24,43.5-54.94,101.484-18.735,57.984-18.72,123.219a473.023,473.023,0,0,0,16.3,125.062q16.3,59.813,50.71,105.7,34.41,45.914,88.16,73.093,53.715,27.188,129.8,27.188a281.67,281.67,0,0,0,94.19-15.75,250.8,250.8,0,0,0,79.68-45.469q35.025-29.718,57.97-73.359,22.92-43.641,30.19-99.422h-46a250.084,250.084,0,0,1-24.14,78.2,206.66,206.66,0,0,1-46.47,61.234A214.545,214.545,0,0,1,4184,823.6q-36.825,14.554-80.25,14.547-60.36,0-105-21.735a207.613,207.613,0,0,1-74.83-60.984q-30.2-39.234-44.66-92.375t-14.48-115.937a343.234,343.234,0,0,1,15.69-103.25q15.675-50.11,45.86-89.375a226.432,226.432,0,0,1,74.84-62.8q44.64-23.532,102.59-23.547,42.24,0,79.07,10.828,36.8,10.828,64.56,31.281a160.971,160.971,0,0,1,45.26,51.719q17.49,31.266,21.13,72.172h46Zm53.7-434v863h46V527.626q0-56.718,15.07-104.39t44-82.079a203.718,203.718,0,0,1,69.92-53.7q40.965-19.312,94.01-19.312,62.67,0,98.25,22.937t53.03,54.907a176.211,176.211,0,0,1,21.1,66.984q3.615,35.016,3.62,57.937V863.142h46V479.251q0-19.312-1.22-45.281a324.821,324.821,0,0,0-7.23-53.719,226.606,226.606,0,0,0-19.92-54.922,168.9,168.9,0,0,0-38.02-48.89q-24.135-21.728-62.17-35.016-38.01-13.266-92.33-13.281a267.926,267.926,0,0,0-71.23,9.625,228.551,228.551,0,0,0-116.47,75.14,198.051,198.051,0,0,0-34.41,61.922h-2V0.142h-46Zm566.71,863h46V527.626q0-56.718,15.06-104.39,15.075-47.673,44-82.079a203.718,203.718,0,0,1,69.92-53.7q40.98-19.312,94.02-19.312,62.67,0,98.25,22.937,35.55,22.923,53.03,54.907a176.02,176.02,0,0,1,21.09,66.984q3.615,35.016,3.63,57.937V863.142h46V479.251q0-19.312-1.22-45.281a325.888,325.888,0,0,0-7.23-53.719,227.063,227.063,0,0,0-19.93-54.922,169.037,169.037,0,0,0-38.01-48.89q-24.15-21.728-62.17-35.016-38.025-13.266-92.33-13.281a266.773,266.773,0,0,0-71.24,9.656,228.653,228.653,0,0,0-116.47,75.453,199.112,199.112,0,0,0-34.4,62.172h-2V242.142h-46v621ZM5536.61,678.8q18.705,59.2,54.94,103.3,36.24,44.109,89.37,70.078,53.145,25.946,121.97,25.969,68.82,0,121.97-25.969,53.13-25.968,89.36-70.078t54.96-103.3q18.69-59.2,18.71-125.656,0-66.446-18.71-125.047-18.735-58.595-54.96-103.3t-89.36-70.672q-53.145-25.968-121.97-25.984-68.835,0-121.97,25.984T5591.55,324.8q-36.24,44.719-54.94,103.3-18.72,58.593-18.72,125.047T5536.61,678.8Zm42.97-232.531q15.7-51.329,45.88-91.172a223.274,223.274,0,0,1,74.82-63.406q44.685-23.532,102.61-23.547,57.945,0,102.6,23.547a223.441,223.441,0,0,1,74.84,63.406q30.165,39.843,45.86,91.172a371.616,371.616,0,0,1,0,213.75q-15.7,51.328-45.86,91.187a223.226,223.226,0,0,1-74.84,63.391q-44.67,23.554-102.6,23.547T5700.28,814.6a223.06,223.06,0,0,1-74.82-63.391q-30.2-39.843-45.88-91.187A371.843,371.843,0,0,1,5579.58,446.267ZM6145.34,0.142v863h46v-863h-46ZM6267.64,678.8q18.7,59.2,54.94,103.3,36.225,44.109,89.37,70.078,53.13,25.946,121.97,25.969,68.805,0,121.97-25.969,53.13-25.968,89.36-70.078t54.95-103.3q18.705-59.2,18.72-125.656T6800.2,428.1q-18.72-58.595-54.95-103.3t-89.36-70.672q-53.16-25.968-121.97-25.984-68.835,0-121.97,25.984-53.16,25.97-89.37,70.672-36.24,44.719-54.94,103.3-18.735,58.593-18.72,125.047Q6248.92,619.61,6267.64,678.8Zm42.97-232.531q15.705-51.329,45.87-91.172a223.309,223.309,0,0,1,74.83-63.406q44.67-23.532,102.61-23.547t102.59,23.547a223.572,223.572,0,0,1,74.85,63.406q30.165,39.843,45.86,91.172a371.616,371.616,0,0,1,0,213.75q-15.705,51.328-45.86,91.187a223.358,223.358,0,0,1-74.85,63.391q-44.67,23.554-102.59,23.547-57.945,0-102.61-23.547a223.1,223.1,0,0,1-74.83-63.391q-30.18-39.843-45.87-91.187A371.843,371.843,0,0,1,6310.61,446.267ZM7333.36,242.142V371.861h-2.42q-26.55-68.836-88.73-106.282-62.19-37.43-135.82-37.437-65.205,0-115.31,24.75t-83.9,66.39q-33.81,41.649-51.32,97.172t-17.5,117.078q0,65.2,16.3,120.719,16.305,55.547,49.51,97.172,33.225,41.649,83.33,65.188t118.96,23.531q79.68,0,135.84-36.141t88.77-104.828l2.29-.031V841.611A311.566,311.566,0,0,1,7323.1,920.7a180.888,180.888,0,0,1-35.63,70.016q-25.35,30.78-68.22,50.11-42.87,19.29-106.86,19.31a298.657,298.657,0,0,1-72.45-8.45,186.567,186.567,0,0,1-60.98-27.19,147.332,147.332,0,0,1-44.07-47.7q-16.92-29.016-20.53-70.078h-46q2.415,54.351,22.35,91.2,19.92,36.851,52.54,59.237,32.625,22.35,76.11,32.68,43.5,10.29,93.03,10.3,79.71,0,131.66-22.36,51.93-22.35,81.55-59.81,29.595-37.476,41.68-86.406a419.7,419.7,0,0,0,12.08-100.907V242.142h-46Zm-127.79,47.719a208.061,208.061,0,0,1,70.64,58.5q28.35,36.8,42.26,85.062a360.52,360.52,0,0,1,13.89,100.109q0,53.087-13.89,100.735-13.89,47.671-42.26,85.062a205.215,205.215,0,0,1-70.64,59.11q-42.285,21.7-99.02,21.7-54.345,0-96-21.11a205.994,205.994,0,0,1-70.03-57.3q-28.38-36.187-42.27-85.047t-13.89-103.157a345.185,345.185,0,0,1,13.89-97.093q13.875-47.649,41.05-85.047a207.321,207.321,0,0,1,68.83-60.328q41.67-22.923,98.42-22.922T7205.57,289.861Zm305.24-164.719v-125h-46v125h46Zm0,738v-621h-46v621h46Zm605.58-304c0-3.219.15-7.438,0.5-12.672q0.495-7.851.5-13.906,0-62.812-17.5-117.782t-51.28-96.64q-33.795-41.671-83.86-65.828t-115.22-24.172q-71.2,0-123.69,27.187t-87.48,72.5q-34.995,45.3-52.49,105.11a443.55,443.55,0,0,0-17.48,125.031q0,67.663,16.89,126.266t51.28,101.484q34.38,42.891,85.67,67.656,51.285,24.75,120.06,24.766,112.23,0,180.41-58.063,68.16-58.054,88.69-166.937h-46q-20.535,87.07-74.81,136.031-54.285,48.984-147.18,48.969-56.715,0-99.53-21.735a203.584,203.584,0,0,1-71.19-59.187q-28.35-37.429-42.82-86.953a368.035,368.035,0,0,1-14.47-103.875v-7.25h501Zm-500-40a375.67,375.67,0,0,1,19.31-94.125q15.705-45.844,44.67-80.25,28.965-34.383,71.25-55.5,42.255-21.117,97.8-21.125,51.915,0,92.37,20.515a213.435,213.435,0,0,1,68.83,54.907q28.365,34.405,42.86,79.64a372.15,372.15,0,0,1,16.91,95.938h-454Zm522.7,137q1.2,54.609,20.53,95.844a202.078,202.078,0,0,0,53.14,69.75q33.825,28.5,79.11,42.453t98.46,13.953a466.845,466.845,0,0,0,83.93-7.844q42.87-7.875,77.91-27.781a176.977,176.977,0,0,0,57.97-52.547q22.95-32.625,22.95-83.359,0-48.306-16.9-79.719a142.338,142.338,0,0,0-46.46-51.328q-29.58-19.923-70-31.407t-86.28-19.937q-37.41-8.437-74.22-16.906-36.795-8.437-66.37-22.344-29.58-13.875-47.67-36.844-18.1-22.945-18.1-60.406,0-32.6,16.28-55.563a128.487,128.487,0,0,1,41.64-37.437q25.35-14.484,57.32-20.531a340.2,340.2,0,0,1,63.36-6.047,278.991,278.991,0,0,1,72.39,9.047q33.765,9.046,58.51,27.75t38.63,48.843q13.875,30.141,13.87,72.36h46q0-53.109-17.51-90.547-17.5-37.407-48.3-61.563-30.8-24.139-73.05-35.015t-90.56-10.875A411.4,411.4,0,0,0,8305.98,236q-39.84,7.852-71.84,25.969a152.809,152.809,0,0,0-52.53,48.922q-20.535,30.8-20.52,76.7,0,64.03,31.38,97.234,31.35,33.235,79.04,51.344a531.281,531.281,0,0,0,102.58,27.172,800.942,800.942,0,0,1,102.58,23.547q47.67,14.508,79.05,41.078,31.35,26.578,31.37,78.516,0,39.867-19.31,65.828a132.712,132.712,0,0,1-48.89,40.468,224.161,224.161,0,0,1-63.98,19.922,415,415,0,0,1-64.6,5.438q-42.255,0-78.47-12.125-36.21-12.141-63.37-35.8a186.4,186.4,0,0,1-44.06-57.031q-16.905-33.353-19.32-77.047h-46Z"/>
</svg>
