<svg id="Box_Left" data-name="Box Left" xmlns="http://www.w3.org/2000/svg" width="1000" height="1000" viewBox="0 0 2000 2000">
<defs>
    <style>
      .cls-1, .cls-6 {
        fill: #466bb8;
      }

      .cls-1, .cls-5 {
        stroke: #fff;
      }

      .cls-1 {
        stroke-width: 50px;
      }

      .cls-2 {
        fill: #0c2e76;
      }

      .cls-2, .cls-3, .cls-4, .cls-5, .cls-6, .cls-7 {
        fill-rule: evenodd;
      }

      .cls-3 {
        fill: #182237;
      }

      .cls-4 {
        fill: #142a59;
      }

      .cls-5 {
        fill: none;
        stroke-width: 25px;
      }

      .cls-7 {
        fill: #183c87;
      }
    </style>
  </defs>
  <circle class="cls-1" cx="999.997" cy="999.997" r="975.622"/>
  <path id="Box_Left-2" data-name="Box Left" class="cls-2" d="M263,991L565,816,865,990v347L564,1511,263,1337V991Z"/>
  <path id="Box_Left_left" data-name="Box Left left" class="cls-3" d="M263,1337l302,174V1165L263,991v346Z"/>
  <path id="Box_Left_top" data-name="Box Left top" class="cls-4" d="M565.006,816L263,991l302,174L864,990Z"/>
  <path id="Stroke" class="cls-5" d="M275.407,997.526L565.46,829.639,853.593,996.567V1329.46L564.5,1497.39,275.407,1330.46V997.526Z"/>
  <path id="Box_Right-2" data-name="Box Right" class="cls-6" d="M1138,991l302-175,300,174v347l-301,174-301-174V991Z"/>
  <path id="Box_Right_left" data-name="Box Right left" class="cls-4" d="M1137,1337l302,174V1165L1137,991v346Z"/>
  <path id="Box_Right_top" data-name="Box Right top" class="cls-7" d="M1439.01,816L1137,991l302,174,299-175Z"/>
  <path id="Box_Right_stroke" data-name="Box Right stroke" class="cls-5" d="M1149.41,997.526l290.05-167.887,288.13,166.928V1330.46L1438.5,1497.39l-289.09-166.93V997.526Z"/>
  <path id="Box_Main-2" data-name="Box Main" class="cls-2" d="M622,689l379-220,379,221V812L1104,971v320l-103,60-103-60V970L622,811V689Z"/>
  <path id="Box_Main_left" data-name="Box Main left" class="cls-4" d="M622,689V811L898,970v321l103.02,60V909Z"/>
  <path id="Box_Main_top" data-name="Box Main top" class="cls-7" d="M1001,469L622,689l379,220,379-219Z"/>
  <path id="Box_Main_stroke" data-name="Box Main stroke" class="cls-5" d="M634,695l367-212.62L1367,696V811L1099.92,964.6V1279.99L1001,1337.62l-98.923-57.63V963.636L634,809V695Z"/>
</svg>
