<svg id="Cube" xmlns="http://www.w3.org/2000/svg" width="1023.532" height="192.499" viewBox="0 0 6322 1189">
<defs>
    <style>
      .cls-1 {
        fill: #0c2e76;
      }

      .cls-1, .cls-2, .cls-3, .cls-4, .cls-5, .cls-6, .cls-7 {
        fill-rule: evenodd;
      }

      .cls-2 {
        fill: #182237;
      }

      .cls-3 {
        fill: #142a59;
      }

      .cls-4 {
        fill: none;
        stroke: #fff;
        stroke-width: 25px;
      }

      .cls-5 {
        fill: #466bb8;
      }

      .cls-6 {
        fill: #183c87;
      }

      .cls-7 {
        fill: #fff;
      }
    </style>
  </defs>
  <g id="Box_Left" data-name="Box Left">
    <path id="Box_Left-2" data-name="Box Left" class="cls-1" d="M73,658L370,486,666,658v344L370,1174,73,1002V658Z"/>
    <path id="Box_Left_left" data-name="Box Left left" class="cls-2" d="M73,1002l297,172V831L73,658v344Z"/>
    <path id="Box_Left_top" data-name="Box Left top" class="cls-3" d="M370,486L73,658,370,831,666,658Z"/>
    <path id="Stroke" class="cls-4" d="M80,662L370,495,658,662V996L370,1164,80,996V662Z"/>
  </g>
  <g id="Box_Right" data-name="Box Right">
    <path id="Box_Left-3" data-name="Box Left" class="cls-5" d="M945,658l297-172,296,172v344l-296,172L945,1002V658Z"/>
    <path id="Box_Right_left" data-name="Box Right left" class="cls-3" d="M945,1002l297,172V831L945,658v344Z"/>
    <path id="Box_Right_top" data-name="Box Right top" class="cls-6" d="M1242,486L945,658l297,173,296-173Z"/>
    <path id="Stroke-2" data-name="Stroke" class="cls-4" d="M952,662l290-167,288,167V996l-288,168L952,996V662Z"/>
  </g>
  <g id="Box_Main" data-name="Box Main">
    <path id="Box_Main-2" data-name="Box Main" class="cls-1" d="M430,357L805,138l376,219V480L912,636V951l-107,62L699,951V636L430,480V357Z"/>
    <path id="Box_Main_left" data-name="Box Main left" class="cls-3" d="M430,357V480L699,636V951l106,62V575Z"/>
    <path id="Box_Main_top" data-name="Box Main top" class="cls-6" d="M805,136L430,357,805,575l376-218Z"/>
    <path id="Box_Main_stroke" data-name="Box Main stroke" class="cls-4" d="M438,362L805,148.38,1171,362V475L904,630V946l-99,57-99-57V630L438,475V362Z"/>
  </g>
  <path id="zelcash_white" data-name="zelcash white" class="cls-7" d="M1979.14,427.135h387.83l-417,506.281V1050.13h663.44v-131H2159.97l432-506.282V296.135H1979.14v131Zm812.08,180q1.455-42.328,16.76-78.829,15.33-36.492,40.85-63.5a181.833,181.833,0,0,1,61.26-42.343q35.73-15.329,79.5-15.328,42.285,0,76.58,16.8a187.93,187.93,0,0,1,58.35,43.8q24.06,27,37.92,63.5a268.931,268.931,0,0,1,16.78,75.907h-388Zm554,109q10.2-84.493-10.94-163.907t-67.76-140.593q-46.65-61.2-117.33-98.344-70.7-37.149-159.6-37.156-84.54,0-151.57,32.062-67.065,32.063-114.43,86.688t-72.87,126.734q-25.5,72.117-25.5,152.25,0,87.421,24.05,160.25t71.43,125.3q47.4,52.453,115.91,81.574,68.535,29.145,157.45,29.14a407.787,407.787,0,0,0,117.36-16.78q56.13-16.77,101.33-49.65a315,315,0,0,0,77.27-81.05q32.055-48.187,45.2-109.515h-157q-21.915,63-66.45,94.5t-117.55,31.5q-52.59,0-90.55-18.219t-62.79-48.828q-24.855-30.61-37.26-71.422a288.641,288.641,0,0,1-12.4-84.531h554Zm58.92,334h166V9.135h-166v1041Zm887.53-518q-5.835-62.6-32.06-109.938-26.25-47.321-67.78-77.906-41.55-30.562-94.75-45.86-53.2-15.28-114.42-15.3-83.085,0-147.22,30.64-64.125,30.657-107.86,83.172-43.74,52.547-66.31,122.563-22.605,70.031-22.6,148.828t19.67,151.031Q3678,891.6,3719.53,947.041q41.535,55.453,106.36,88.269t156.63,32.82a340.058,340.058,0,0,0,113.64-18.98,302.983,302.983,0,0,0,96.15-54.8q42.24-35.788,69.94-88.39,27.675-52.594,36.42-119.828h-55q-7.305,51.188-29.18,94.328-21.9,43.148-56.16,73.859a259.644,259.644,0,0,1-78.78,48.268q-44.505,17.55-97.02,17.54-72.93,0-126.92-26.261a251.145,251.145,0,0,1-90.45-73.719q-36.48-47.437-53.99-111.672-17.505-64.218-17.5-140.14a415.2,415.2,0,0,1,18.97-124.813q18.99-60.562,55.47-108.015a273.857,273.857,0,0,1,90.5-75.907q54-28.452,124.08-28.468,51.09,0,95.61,13.109,44.505,13.125,78.09,37.875a194.642,194.642,0,0,1,54.74,62.625q21.165,37.875,25.54,87.391h55Zm561.96,408.437a239.3,239.3,0,0,0,3.61,43.094q3.6,19.734,13.75,34.324,10.125,14.625,29.72,23.38,19.56,8.76,53.1,8.76a170.265,170.265,0,0,0,45.21-6v-46q-26.25,4.012-40.83,4-18.96,0-29.16-8.058a43.943,43.943,0,0,1-14.58-21.281,108.46,108.46,0,0,1-5.1-29.36q-0.735-16.148-.72-32.3V475.463q0-85.97-61.96-139.141-61.935-53.179-197.47-53.187-135.555,0-209.15,62t-79.42,186h55q5.8-100.735,67.81-150.36,61.965-49.641,162.62-49.64,56.865,0,96.25,11.671t64.19,32.11q24.8,20.438,36.46,46.7a138.61,138.61,0,0,1,11.67,56.922q0,39.4-4.38,65.672-4.35,26.273-21.84,43.047t-51.7,26.265q-34.23,9.492-93.93,13.875l-85.92,7.3a868.261,868.261,0,0,0-93.94,14.594q-48.8,10.218-88.82,34.3-40.065,24.093-66.27,65.672-26.2,41.6-26.2,107.265,0,108,65.58,159.8,65.565,51.795,185.12,51.81,53.91,0,99.09-13.12,45.195-13.125,80.89-36.48,35.73-23.355,60.5-53.255a231.442,231.442,0,0,0,37.9-63.484l2.92-.656v39.437Zm0-175.875q0,14.6-8.03,56.2t-37.19,86.11q-29.19,44.531-84.61,78.828t-150.25,34.292q-91.905,0-144.41-40.136T4376.63,856.65q0-52.546,20.42-85.375a150.908,150.908,0,0,1,53.23-51.812q32.82-18.985,73.68-27.016,40.815-8.016,81.68-12.406l93.36-8.766q51.045-4.359,92.63-13.125t62-33.578V764.7Zm130.25,36.438q1.455,65.672,24.76,115.265,23.325,49.617,64.13,83.89,40.785,34.29,95.44,51.06,54.645,16.785,118.76,16.78a562.272,562.272,0,0,0,101.28-9.48q51.735-9.5,93.99-33.56a213.665,213.665,0,0,0,69.95-63.487q27.675-39.4,27.69-100.7,0-58.359-20.43-96.312a172.151,172.151,0,0,0-56.17-62.032q-35.76-24.069-84.62-37.937t-104.31-24.094q-45.24-10.218-89.72-20.422-44.52-10.218-80.25-27-35.745-16.78-57.63-44.515t-21.87-72.969q0-39.4,19.7-67.125a155.777,155.777,0,0,1,50.37-45.25q30.66-17.508,69.35-24.813a413.385,413.385,0,0,1,76.66-7.3q46.71,0,87.59,10.937t70.81,33.531q29.925,22.594,46.72,59.047,16.785,36.47,16.8,87.485h55q0-64.125-21.14-109.3t-58.3-74.313q-37.17-29.155-88.17-42.265-51-13.125-109.31-13.125a496.774,496.774,0,0,0-96.19,9.484q-48.09,9.492-86.72,31.375a184.519,184.519,0,0,0-63.41,59.109q-24.765,37.219-24.76,92.672,0,77.345,37.92,117.485,37.92,40.125,95.56,62.031,57.63,21.891,124.02,32.844a969.087,969.087,0,0,1,124,28.453q57.63,17.508,95.56,49.609t37.94,94.859q0,48.165-23.36,79.547a160.519,160.519,0,0,1-59.11,48.891,270.674,270.674,0,0,1-77.35,24.076,501.793,501.793,0,0,1-78.07,6.56q-51.1,0-94.88-14.59t-76.62-43.077a224.549,224.549,0,0,1-53.27-68.61q-20.43-40.147-23.34-92.718h-55Zm657.52-792v1041h55V644.7q0-68.53,18.23-126.156,18.24-57.609,53.27-99.172a246.547,246.547,0,0,1,84.63-64.891q49.605-23.343,113.82-23.343,75.87,0,118.93,27.718,43.02,27.7,64.2,66.36a212.925,212.925,0,0,1,25.55,80.937q4.35,42.282,4.37,70v473.98h55v-463.7q0-23.319-1.47-54.671a390.85,390.85,0,0,0-8.75-64.891,272.89,272.89,0,0,0-24.05-66.344,204.077,204.077,0,0,0-45.9-59.062q-29.16-26.25-75.08-42.282t-111.52-16.046a321.814,321.814,0,0,0-86.01,11.671,276.115,276.115,0,0,0-140.67,91.172A240.774,240.774,0,0,0,5699.4,461.1h-3V9.135h-55Z"/>
</svg>
