<svg width="1010px" height="943px" viewBox="0 0 1010 943" version="1.1" xmlns="http://www.w3.org/2000/svg" xmlns:xlink="http://www.w3.org/1999/xlink">
    <g id="Page-1" stroke="none" stroke-width="1" fill="none" fill-rule="evenodd">
        <g id="SafeTrade" transform="translate(52.000000, 13.000000)" fill="#183C87">
            <path d="M283,877.202923 L283,842.662079 C335.567512,866.02026 393.767945,879 455,879 C537.373196,879 614.259972,855.510154 679.327295,814.863493 L710.600987,832.919361 C637.819089,882.209476 550.021785,911 455.5,911 C394.450167,911 336.205535,898.989676 282.999994,877.202921 Z M257.999979,866.072298 C123.898145,801.446677 26.307902,673.055932 4.564937,520.235754 L33.7317929,503.396268 C49.9077287,645.75872 136.585301,766.732468 257.999958,830.552962 L258,866.072308 Z M283,829.207851 L283,586.043909 L667.689924,808.144657 C605.731393,845.505914 533.12578,867 455.5,867 C393.901641,867 335.464427,853.465403 283,829.207851 Z M258,816.594895 C141.749072,752.876517 59.6196926,634.653993 45.9985782,496.314039 L258,373.915007 L258,816.594895 Z M283,359.481256 L453.23558,261.195735 L620,357.477181 L620,559.020442 L453.097305,655.381722 L283,557.176033 L283,359.481256 Z M732.819641,816.879427 L702.447436,799.344033 C809.377088,722.36832 879,596.81492 879,455 C879,449.486407 878.894761,443.997395 878.686181,438.534862 L909.685742,420.637239 C910.556633,432.144041 911,443.770243 911,455.5 C911,602.710656 841.16643,733.610581 732.819628,816.879437 Z M691.201931,792.851439 L478.096762,669.815159 L866.877333,445.352677 C866.958955,448.725222 867,452.107818 867,455.5 C867,595.091505 797.493566,718.449061 691.20191,792.851454 Z M906.806659,393.432603 L876.724004,410.800825 C861.507361,263.891899 771.279749,139.255441 645.000038,75.8503241 L645,41.1680267 C783.999677,104.844871 885.413218,236.411054 906.806659,393.432603 Z M865.261339,417.418795 L645,544.586691 L645,90.134446 C766.247183,153.148654 852.169599,274.745414 865.261339,417.418795 Z M620,30.6097727 L620,64.3030484 C569.284029,42.8581955 513.526848,31 455,31 C369.589072,31 290.076679,56.254293 223.522651,99.7030494 L193.871866,82.5842046 C267.904865,30.548695 358.134868,0 455.5,0 C513.504292,0 568.976285,10.8419154 620.000005,30.6097745 Z M620,78.1967775 L620,328.609305 L453.781566,232.643083 L453.509,232.171 L453.236446,232.328359 L236.381633,107.127221 C299.827651,67.1371674 374.961862,44 455.5,44 C513.985207,44 569.620719,56.2011027 620.000012,78.1967826 Z M172.095346,98.8794057 L200.925528,115.524513 C97.7552798,192.864397 31,316.136328 31,455 C31,461.97958 31.1686425,468.919771 31.5020749,475.81672 L1.53132806,493.120333 C0.517094869,480.714302 0,468.167539 0,455.5 C0,311.063928 67.2259712,182.329542 172.095357,98.8793973 Z M213.393783,122.72306 L428.236123,246.762297 L44.200983,468.485005 C44.0673231,464.173052 44,459.844388 44,455.5 C44,318.731942 110.723126,197.547765 213.393783,122.72306 Z M334.967,385 L455,315 L574.59,385 L574.59,535 L455,605 L334.967,535 L334.967,385 Z M420.077,545 L489.928,545 C489.928,545 475,457.209 475,455 C484.372,446.379 495,435 495,415 C495,395 475,375 455,375 C435,375 415,395 415,415 C415,435 422.51,442.78 435,455 C435,457.343 420.077,545 420.077,545 Z" id="SafeTrade_Shape"></path>
        </g>
    </g>
</svg>