<svg id="Tokok" xmlns="http://www.w3.org/2000/svg" width="1000" height="1000" viewBox="0 0 1000 1000">
<defs>
    <style>
      .cls-1 {
        fill: #183c87;
        fill-rule: evenodd;
      }
    </style>
  </defs>
  <g id="Tokok">
    <path id="Tokok-2" data-name="Tokok" class="cls-1" d="M157.658,205.31s152.7-62.7,342.342-62.7,342.271,62.7,342.271,62.7H157.658Zm-0.047,71.455H424.76L500,865.619,367.088,318.17Zm417.629,0L500,865.619l130.386-546.2,211.885-42.659H575.24ZM842.271,293.09L955.22,509.982s-10.067,67.766-116.64,67.766-130.309-67.766-130.309-67.766l89-164.321L731.99,509.982H930.122Zm-684.66,0L44.881,509.982s10.563,67.766,116.539,67.766S291.8,509.982,291.8,509.982L204.073,345.661,268.01,509.982H68.624Z"/>
  </g>
</svg>
