<svg id="EXCHANGES" xmlns="http://www.w3.org/2000/svg" width="1000" height="1000" viewBox="0 0 1000 1000">
<defs>
    <style>
      .cls-1 {
        fill: #183c87;
        fill-rule: evenodd;
      }
    </style>
  </defs>
  <g id="TradeSatoshi">
    <path id="Bottom" class="cls-1" d="M792,507s74.847-69.042,151.042-149.038A464.237,464.237,0,0,1,965,499.5C965,756.036,757.036,964,500.5,964c-162.91,0-306.232-83.866-389.147-210.779C194.7,676.558,576,295,576,295Z"/>
    <path id="Top" class="cls-1" d="M500.5,35c186.69,0,347.655,110.136,421.468,268.979C846.633,374.927,791,426,791,426L578,219S157.9,634.392,84.508,706.4A462.583,462.583,0,0,1,36,499.5C36,242.964,243.964,35,500.5,35Z"/>
  </g>
</svg>
