<svg id="EXCHANGES" xmlns="http://www.w3.org/2000/svg" width="1000" height="1000" viewBox="0 0 1000 1000">
<defs>
    <style>
      .cls-1 {
        fill: #222;
      }

      .cls-1, .cls-2 {
        fill-rule: evenodd;
      }

      .cls-2 {
        fill: #183c87;
      }
    </style>
  </defs>
  <g id="TradeOgre">
    <path id="Ogre_Shadow" data-name="Ogre Shadow" class="cls-1" d="M314.805,686.415a77.949,77.949,0,0,1-16.8,24.6,80.983,80.983,0,0,1-24.75,16.65,75.514,75.514,0,0,1-59.7,0,78.9,78.9,0,0,1-41.25-41.1,73.141,73.141,0,0,1-6.15-29.85,74.216,74.216,0,0,1,6.15-30,80.983,80.983,0,0,1,16.65-24.75,78.468,78.468,0,0,1,24.45-16.8,73.207,73.207,0,0,1,29.85-6.15,74.283,74.283,0,0,1,30,6.15,81.126,81.126,0,0,1,24.75,16.65,78.039,78.039,0,0,1,16.8,24.6A76.246,76.246,0,0,1,314.805,686.415Zm30.6-72.9a113.189,113.189,0,0,0-58.95-58.95,108.039,108.039,0,0,0-85.65,0,112.355,112.355,0,0,0-59.1,59.1,107.677,107.677,0,0,0,0,85.5,112.355,112.355,0,0,0,59.1,59.1,107.315,107.315,0,0,0,85.35,0,114.294,114.294,0,0,0,59.25-59.25A107.676,107.676,0,0,0,345.405,613.515Zm213.749,49.2h-80.7v33.3h46.8v7.8a76.477,76.477,0,0,1-26.25,21.9,77.267,77.267,0,0,1-64.65,1.95,78.483,78.483,0,0,1-41.25-41.25,74.188,74.188,0,0,1-6.15-30,75.04,75.04,0,0,1,6-29.7,77.63,77.63,0,0,1,16.65-24.75,79.276,79.276,0,0,1,24.9-16.8,77.552,77.552,0,0,1,31.05-6.15,75.724,75.724,0,0,1,15,1.65q8.1,1.651,19.5,7.05l18-27.6a84.864,84.864,0,0,0-25.8-10.95,116.061,116.061,0,0,0-27.6-3.45,105.65,105.65,0,0,0-42.75,8.85,115.573,115.573,0,0,0-35.4,23.85,112.379,112.379,0,0,0-24,35.25,107.677,107.677,0,0,0,0,85.5,112.334,112.334,0,0,0,24,35.25,115.938,115.938,0,0,0,35.25,23.85,106.785,106.785,0,0,0,74.7,3.9,122.5,122.5,0,0,0,28.8-13.65v56.7h33.9v-142.5Zm3,100.5h33.6v-67.2h45.6l61.8,109.2h37.2l-63.3-109.5q65.7-5.7,65.7-73.5,0-72.9-78-72.9H562.15v213.9Zm106.8-100.5h-73.2v-80.1h73.2q41.4,0,41.4,39.9,0,40.2-41.4,40.2h0Zm115.5-10.2h81.6v-33.3h-81.6v-36.6h81.6v-33.3h-115.2v213.9h131.1v-33.3h-97.5v-77.4Z"/>
    <path id="Trade_Shadow" data-name="Trade Shadow" class="cls-1" d="M260.955,285.615v-33.3h-130.8v-32.7h-33.6v32.7h-57v33.3h57v180.6h33.6v-180.6h130.8Zm2.4,180.6h33.6v-67.2h45.6l61.8,109.2h37.2l-63.3-109.5q65.7-5.7,65.7-73.5,0-72.9-78-72.9h-102.6v213.9Zm106.8-100.5h-73.2v-80.1h73.2q41.4,0,41.4,39.9,0,40.2-41.4,40.2h0Zm169.2-130.2-114.9,230.7h38.1l16.2-33.6h123.3l38.7,75.6h38.1Zm1.2,67.5,45.6,96h-91.5Zm112.5,163.2h77.4q52.5,0,78.6-27.6t26.1-81.3q0-53.1-25.95-79.05t-79.35-25.95h-76.8v213.9Zm132.6-52.8q-15.6,19.2-46.5,19.2h-52.8v-147h52.8q31.5,0,46.8,17.55t15.3,53.85Q801.251,394.217,785.651,413.415Zm90.3-57.9h81.6v-33.3h-81.6v-36.6h81.6v-33.3H842.35v213.9h131.1v-33.3h-97.5v-77.4Z"/>
    <path id="Ogre" class="cls-2" d="M307.805,674.415a77.949,77.949,0,0,1-16.8,24.6,80.983,80.983,0,0,1-24.75,16.65,75.514,75.514,0,0,1-59.7,0,78.9,78.9,0,0,1-41.25-41.1,73.141,73.141,0,0,1-6.15-29.85,74.216,74.216,0,0,1,6.15-30,80.983,80.983,0,0,1,16.65-24.75,78.468,78.468,0,0,1,24.45-16.8,73.207,73.207,0,0,1,29.85-6.15,74.283,74.283,0,0,1,30,6.15,81.126,81.126,0,0,1,24.75,16.65,78.039,78.039,0,0,1,16.8,24.6A76.246,76.246,0,0,1,307.805,674.415Zm30.6-72.9a113.189,113.189,0,0,0-58.95-58.95,108.039,108.039,0,0,0-85.65,0,112.355,112.355,0,0,0-59.1,59.1,107.677,107.677,0,0,0,0,85.5,112.355,112.355,0,0,0,59.1,59.1,107.315,107.315,0,0,0,85.35,0,114.294,114.294,0,0,0,59.25-59.25A107.676,107.676,0,0,0,338.405,601.515Zm213.749,49.2h-80.7v33.3h46.8v7.8a76.477,76.477,0,0,1-26.25,21.9,77.267,77.267,0,0,1-64.65,1.95,78.483,78.483,0,0,1-41.25-41.25,74.188,74.188,0,0,1-6.15-30,75.04,75.04,0,0,1,6-29.7,77.63,77.63,0,0,1,16.65-24.75,79.276,79.276,0,0,1,24.9-16.8,77.552,77.552,0,0,1,31.05-6.15,75.724,75.724,0,0,1,15,1.65q8.1,1.651,19.5,7.05l18-27.6a84.864,84.864,0,0,0-25.8-10.95,116.061,116.061,0,0,0-27.6-3.45,105.65,105.65,0,0,0-42.75,8.85,115.573,115.573,0,0,0-35.4,23.85,112.379,112.379,0,0,0-24,35.25,107.677,107.677,0,0,0,0,85.5,112.334,112.334,0,0,0,24,35.25,115.938,115.938,0,0,0,35.25,23.85,106.785,106.785,0,0,0,74.7,3.9,122.5,122.5,0,0,0,28.8-13.65v56.7h33.9v-142.5Zm3,100.5h33.6v-67.2h45.6l61.8,109.2h37.2l-63.3-109.5q65.7-5.7,65.7-73.5,0-72.9-78-72.9H555.15v213.9Zm106.8-100.5h-73.2v-80.1h73.2q41.4,0,41.4,39.9,0,40.2-41.4,40.2h0Zm115.5-10.2h81.6v-33.3h-81.6v-36.6h81.6v-33.3h-115.2v213.9h131.1v-33.3h-97.5v-77.4Z"/>
    <path id="Trade" class="cls-2" d="M253.955,273.615v-33.3h-130.8v-32.7h-33.6v32.7h-57v33.3h57v180.6h33.6v-180.6h130.8Zm2.4,180.6h33.6v-67.2h45.6l61.8,109.2h37.2l-63.3-109.5q65.7-5.7,65.7-73.5,0-72.9-78-72.9h-102.6v213.9Zm106.8-100.5h-73.2v-80.1h73.2q41.4,0,41.4,39.9,0,40.2-41.4,40.2h0Zm169.2-130.2-114.9,230.7h38.1l16.2-33.6h123.3l38.7,75.6h38.1Zm1.2,67.5,45.6,96h-91.5Zm112.5,163.2h77.4q52.5,0,78.6-27.6t26.1-81.3q0-53.1-25.95-79.05t-79.35-25.95h-76.8v213.9Zm132.6-52.8q-15.6,19.2-46.5,19.2h-52.8v-147h52.8q31.5,0,46.8,17.55t15.3,53.85Q794.251,382.217,778.651,401.415Zm90.3-57.9h81.6v-33.3h-81.6v-36.6h81.6v-33.3H835.35v213.9h131.1v-33.3h-97.5v-77.4Z"/>
  </g>
</svg>
