<?xml version="1.0" encoding="UTF-8" standalone="yes"?><svg xmlns="http://www.w3.org/2000/svg" viewBox="0 0 426.29 211.16" style="zoom: 1;"><path d="M41.704,14.143 c0.040001,-0.016 0.060001,-0.030999 0.060001,-0.042 c0,-0.07 -0.028,-0.031 -0.060001,0.042 m101.38,118.38 s-1.91,-0.398 -1.993,-0.63699 c-0.078995,-0.23801 -3.346,-3.106 -3.421,-3.026 c-0.084991,0.078003 -1.359,-1.28 -1.519,-0.877 c-0.15599,0.398 -2.628,0.398 -2.628,0.398 l-2.629,-0.642 s-1.112,0.802 -0.875,0.479 c0.239,-0.318 0.078995,-2.229 0,-1.908 c-0.07901,0.315 -3.985,-1.675 -3.985,-1.675 l-1.357,1.195 v-1.514 l-2.066,-1.273 l0.241,-1.674 l-0.963,-0.797 s-0.15501,0.238 -0.235,0.080002 c-0.079002,-0.158 -0.638,-3.345 -0.638,-3.345 l-3.03,-2.471 l-3.661,-0.16 l-3.348,-1.837 l-0.717,-1.67 s-1.913,-0.873 -1.913,-1.113 c0,-0.238 -0.552,-0.077995 -0.716,-0.161 c-0.155,-0.077003 -0.074997,-0.872 -0.074997,-0.872 l-0.883,-0.722 l-0.315,-0.214 l-0.779,-0.236 l-0.477,-0.666 s1.733,-0.77399 1.554,-0.712 c-0.175,0.056 -3.881,0.593 -3.881,0.593 l-0.358,0.715 l-1.734,-0.894 l-2.927,-0.181 s-2.095,-0.834 -2.035,-1.072 c0.062996,-0.24 -0.65601,-1.136 -0.65601,-1.136 s-0.478,1.136 -0.598,1.255 c-0.118,0.119 -1.61,1.374 -1.61,1.374 l0.115,1.915 l-1.014,-1.08 l0.719,-1.016 v-1.432 c0,-0.183 0.896,-0.598 0.896,-0.598 l-0.359,-0.774 s-1.073,0.298 -1.073,0.478 c0,0.178 -1.434,1.014 -1.434,1.014 l-1.735,0.656 h-0.776 s-0.775,1.252 -0.96,1.315 c-0.177,0.060997 -0.11301,1.198 -0.11301,1.198 s-1.917,2.146 -2.037,1.908 c-0.119,-0.238 -2.146,-1.908 -2.146,-1.908 l-2.395,0.294 l-1.372,0.72 l-1.674,-1.136 l-1.313,-2.031 l0.123,-2.389 l0.715,-2.633 l0.298,-1.729 l-1.793,-1.318 s-3.644,0.299 -3.644,0.12 c0,-0.176 -1.975,0.062996 -1.913,-0.12 c0.056999,-0.177 0.717,-1.312 0.717,-1.494 c0,-0.18 0.48,-1.552 0.48,-1.552 l0.777,-1.552 l1.015,-2.982 l0.595,-1.021 l-2.985,-0.178 l-1.794,0.716 l-1.015,2.99 l-5.08,1.373 l-1.254,-0.955 s-0.12,0.538 -0.056,0.239 c0.056,-0.298 -1.555,-2.393 -1.555,-2.393 l-0.778,-2.924 s2.034,-6.039 1.97,-5.916 c-0.059002,0.117 0.063999,-2.215 0.063999,-2.215 l6.392,-4.18 l2.447,0.358 l0.597,0.597 l1.497,-0.243 l1.493,-1.491 l1.909,0.24 l1.85,-0.357 l1.138,1.256 l1.669,-0.656 l0.897,0.958 l0.542,0.593 v1.019 l-0.418,0.954 l0.418,2.152 l1.194,1.675 l0.776,0.297 l0.956,-2.628 l-0.181,-2.45 l-0.417,-1.977 v-1.433 l2.452,-2.981 l3.163,-2.274 l2.51,-1.434 l2.211,-2.389 l-0.119,-2.271 l0.961,-0.177 l0.947,-2.03 l0.957,0.112 l1.856,-2.328 l3.103,-1.072 l1.916,-0.357 l0.598,-0.657 l-0.717,-0.597 l1.492,-2.215 l4.722,-1.852 l2.87,-0.836 l-2.334,1.495 l0.478,1.133 l1.733,-0.477 l1.256,-0.775 l3.285,-0.895 s0.781,-1.317 0.658,-1.018 c-0.115,0.298 1.675,-0.299 1.675,-0.299 l-0.357,-0.719 l0.119,-0.955 l-0.954,0.359 l-1.441,1.553 l-2.327,-0.114 l-1.073,-1.617 l1.015,-1.374 s1.014,-2.032 0.95499,-1.909 c-0.060997,0.116 -1.611,-0.48 -1.611,-0.48 l-2.332,0.833 c-0.23801,0 -2.449,1.316 -2.391,1.138 c0.061005,-0.179 -1.136,0.657 -1.136,0.657 l3.046,-2.446 l1.257,-0.182 l1.435,-1.317 h6.871 l2.331,-0.479 l3.105,-1.671 l0.243,0.3 l-1.316,1.252 l-1.614,1.674 l-1.557,1.67 l-0.775,1.018 l2.45,0.119 s1.91,0.048 2.092,0 c0.239,-0.060001 0.298,0.835 0.298,0.835 l1.014,-0.716 l0.541,1.374 l1.794,-1.374 l-0.541,-1.554 l0.481,-1.437 l-2.092,0.064 v-0.778 s-0.775,-0.896 -0.836,-0.778 c-0.061996,0.121 1.194,-1.013 1.133,-0.894 c-0.059006,0.12 -0.54,-0.596 -0.54,-0.596 l1.439,-1.798 l-0.716,-2.028 l-0.243,-1.013 l-1.853,-0.897 l-0.656,-0.898 l-0.839,-0.656 l0.66,-1.555 l-0.3,-1.134 s-0.535,-3.706 -0.595,-3.588 c-0.062996,0.121 -2.514,2.034 -2.514,2.034 l-2.505,1.257 l-1.319,-1.136 l0.124,-1.498 l1.135,-1.074 l-1.856,-0.597 l-0.119,-0.478 s-1.672,-1.673 -1.79,-1.555 c-0.12,0.124 -0.53799,0.542 -0.53799,0.542 l-3.945,-0.364 l-1.373,2.392 l-0.298,1.254 s-2.161,2.162 -2.425,2.329 c0.158,-0.045998 1.169,0.96 1.169,0.96 l-0.899,2.147 l-3.405,1.972 l-1.67,0.242 s-1.018,3.707 -0.958,3.944 c0.058998,0.241 -1.373,0.894 -1.373,0.894 l-1.016,0.718 l-0.42,-1.312 s-0.458,-1.004 -0.64,-1.258 c0.267,0.11 1.237,0.239 1.237,0.239 l0.182,-0.839 l-0.958,0.062 l0.42,-1.375 l0.896,-1.491 l-3.109,-0.24 l-0.71,-0.838 l-1.558,-0.24 l-0.123,-0.659 l-1.075,-0.655 l-1.316,-0.597 l-1.431,0.179 l-0.061,-1.252 l0.357,-1.195 l-1.431,-0.238 s2.51,-2.572 2.45,-2.452 c-0.064003,0.119 7.047,-3.529 7.047,-3.529 l0.839,-0.892 l1.372,-0.123 l2.987,-1.371 l2.271,-1.553 l0.239,0.12 l-1.729,1.612 l-0.478,0.594 l-1.375,0.659 l1.256,0.178 l-0.183,0.72 l1.377,-0.24 l1.372,-1.136 l1.08,0.362 l0.479,0.533 l1.491,-0.06 l-0.06,-1.134 l-2.327,-1.671 l-0.544,-0.537 l-0.236,-0.599 l1.012,0.124 l0.843,0.716 l0.894,-0.9 l1.792,-0.235 l1.792,-1.26 l-0.116,-0.775 l1.372,-1.313 l-0.899,-0.954 l2.392,-0.06 l2.087,0.06 s1.019,-0.477 1.199,-0.179 s1.732,1.431 1.732,1.431 l-0.597,0.538 l-2.453,0.302 l-0.597,1.191 l1.797,0.242 l1.371,-1.433 l1.492,-0.121 l0.24,1.431 s-1.671,0.958 -1.909,1.017 c-0.239,0.064001 -1.257,0.537 -1.257,0.537 l-0.06,1.079 l-1.613,0.177 l-1.672,-0.296 l-0.775,0.058 l-1.257,1.014 l1.016,0.896 s1.495,-0.597 1.733,-0.775 s1.015,-0.539 1.193,-0.238 c0.179,0.298 1.192,1.134 1.192,1.134 l0.843,1.618 l0.776,0.237 l2.387,0.776 s1.675,0.419 1.675,0.536 c0,0.12 -0.175,-1.014 -0.175,-1.014 l-1.263,-1.495 s-0.055,-0.418 0.35799,-0.302 c0.423,0.119 1.44,1.013 1.44,1.013 c0.176,0.060001 1.373,0.783 1.373,0.783 l0.477,-1.316 l1.074,-0.658 l-0.415,-0.777 l-0.599,-0.655 l-0.656,-0.777 l0.058,-0.895 s0.18,-0.124 0.35899,-0.239 c0.178,-0.118 0.716,-0.537 0.83701,-0.302 c0.117,0.239 1.317,1.794 1.317,1.794 l1.13,0.237 l0.541,-0.894 s1.491,-0.181 1.491,-0.12 c0,0.059999 0.12,-0.716 0.12,-0.716 l1.376,-0.357 l-1.972,-1.738 l-1.074,-0.539 l-0.84,0.24 l-0.771,-0.896 l0.834,-0.774 l0.361,-1.078 l-0.957,-0.955 l-1.494,-0.298 l-0.362,-0.78 s-1.252,-0.178 -1.432,-0.061 c-0.181,0.124 -1.076,-1.073 -1.076,-1.073 l-0.777,-1.014 c-0.121,-0.061 -0.538,-0.482 -0.776,-0.419 c-0.243,0.06 -2.749,0.119 -2.749,0.119 l-0.597,0.18 l-0.775,-0.6 l-3.11,0.779 l-1.611,1.255 s-0.118,-0.718 0,-0.896 c0.116,-0.179 1.252,-0.836 1.432,-0.955 c0.179,-0.119 -1.373,-0.182 -1.373,-0.182 s-2.87,0.958 -2.989,1.137 c-0.119,0.178 -2.331,1.91 -2.331,1.91 l0.064,1.435 l2.029,0.301 l0.776,0.175 l-0.538,0.481 l-0.417,0.895 l-1.313,0.717 l-1.617,1.193 l-1.374,0.537 l-0.237,-0.954 l1.194,-0.717 s-0.239,-1.491 -0.359,-1.373 c-0.119,0.12 -1.372,-0.059 -1.433,0.12 c-0.057999,0.18 0.060997,-1.133 0.060997,-1.133 l-0.061,-1.257 l-0.298,-0.959 s1.017,-0.835 1.193,-0.894 c0.17999,-0.059999 2.092,-0.18 2.092,-0.18 l3.048,-1.732 l-2.511,-0.117 s-2.327,0.057 -2.449,0.299 c-0.12,0.239 -1.67,1.85 -1.67,1.85 l-0.957,0.717 l-3.167,1.975 l-0.121,1.372 l-1.313,-0.238 l-0.954,-0.18 l-2.387,0.955 v1.314 l-4.369,0.242 s-2.088,-0.302 -2.088,-0.597 c0,-0.302 -0.776,-0.898 -1.014,-0.898 c-0.243,0 -2.931,0.836 -2.931,0.836 l-0.119,0.835 l-3.107,-0.176 s-2.568,0.474 -2.508,0.238 c0.059998,-0.238 -1.376,-0.121 -1.376,-0.121 l2.151,-0.956 l-1.491,-0.717 l-2.693,-0.417 l-1.91,-0.597 l-2.147,0.299 l-0.239,-0.895 l-1.916,0.774 l-0.538,-1.255 l-1.313,0.599 s-4.899,1.015 -5.139,1.074 c-0.237,0.061001 -1.431,-0.478 -1.431,-0.478 l-1.499,0.716 l-2.864,0.179 l-1.138,-0.835 l-2.329,-0.477 l-2.57,0.119 l-4.783,-0.779 s-2.746,-0.418 -2.567,-0.481 c0.179,-0.06 -1.491,-0.478 -1.491,-0.478 s0.066998,-0.199 0.119,-0.315 c-0.586,0.248 -5.258,1.031 -5.258,1.031 l-6.272,2.035 l-4.124,0.835 s0.119,1.075 0.177,1.253 c0.061001,0.183 0.419,1.375 0.419,1.375 l-1.134,0.239 h-1.2 l0.603,-0.835 l-6.101,1.672 l0.125,0.657 l-0.421,0.777 l1.912,0.179 l1.615,0.179 s0.896,-0.536 0.896,-0.357 s-0.478,1.55 -0.478,1.55 l-1.851,0.12 c-0.119,-0.179 -1.077,0.063 -1.077,0.063 s-1.257,0.771 -1.316,0.597 c-0.059999,-0.179 -2.506,0.418 -2.506,0.418 l-2.812,1.614 l-1.073,1.612 l-0.119,1.193 l2.091,-0.355 l-1.197,1.615 l1.375,-0.063 s1.615,0 1.734,0.243 c0.121,0.239 0.835,0.12 0.835,0.239 c0,0.121 -14.22,5.616 -14.341,5.438 c-0.11999,-0.183 -2.209,0.954 -2.209,0.954 s2.745,-0.477 2.928,-0.477 c0.178,0 4.239,-0.958 4.239,-0.958 l1.913,-0.538 s4.124,-1.194 4.179,-1.374 c0.061,-0.181 2.931,-1.674 3.11,-1.674 c0.18,0 1.135,-0.417 1.197,-0.177 c0.056999,0.238 4.122,-1.073 4.122,-1.073 s1.432,-1.019 1.316,-1.198 c-0.124,-0.179 -0.958,-0.657 -0.719,-0.715 c0.238,-0.061001 2.386,-0.362 2.386,-0.362 s3.229,-1.312 3.17,-1.135 c-0.059999,0.181 -3.286,2.334 -3.286,2.334 l4.602,-0.898 l1.854,-0.779 s1.552,-0.716 1.433,-0.536 c-0.12,0.179 1.793,0.715 1.793,0.894 s4.001,0.779 4.001,0.779 l1.196,1.793 l-0.242,2.328 l-0.118,2.931 l2.15,-0.24 l-0.535,1.911 l0.123,3.169 s0.115,1.134 0.115,1.313 s-1.673,-0.357 -1.673,-0.357 s-0.24,1.373 -0.061001,1.551 c0.186,0.179 2.155,2.151 2.155,2.151 l-0.658,0.838 l-1.497,3.704 l-3.525,4.061 l-0.595,2.216 l-1.734,1.909 l0.299,1.375 s-0.478,0.958 -0.354,1.076 c0.115,0.118 0.834,6.632 0.834,6.632 l2.511,1.552 l0.655,1.196 l0.359,4.899 l1.073,2.21 l-1.193,0.837 l1.373,1.908 l0.539,0.063 l1.079,1.252 l-0.421,1.675 l1.133,0.895 l1.078,1.674 l0.18,0.835 l1.017,-1.014 l-1.017,-2.091 s-0.717,-1.557 -0.657,-1.911 c0.060001,-0.36 -0.954,-3.049 -0.954,-3.049 s-0.961,-2.033 -0.838,-2.211 c0.116,-0.181 -0.721,-1.372 -0.721,-1.372 l0.421,-2.449 l1.733,0.358 s0.299,2.266 0.299,2.509 c0,0.23801 0.419,1.673 0.419,1.673 l2.269,3.162 l-0.356,1.616 l4.359,5.197 l-0.06,2.093 l-0.658,1.013 l0.358,1.437 l3.647,2.688 l0.596,-0.118 l1.074,1.076 l3.942,1.973 l1.973,0.479 l2.334,-0.719 l1.492,0.719 l2.271,2.628 l2.33,0.595 l2.387,0.84 h1.141 l0.299,1.371 s1.075,1.376 1.314,1.555 c0.237,0.179 0.059998,1.734 0.059998,1.734 l1.014,0.534 l1.196,1.257 l0.776,0.72 l0.839,0.954 l0.536,-0.358 l1.076,0.297 l1.55,1.437 l1.016,-0.601 l-0.292,-1.133 l0.948,-0.955 h0.839 l0.898,0.715 l-0.061,0.837 l1.075,1.732 l0.061,4.84 l-0.956,1.556 l-1.317,0.896 l-0.056,1.43 l-1.377,0.537 l-0.537,1.913 l-0.838,1.674 l0.179,1.432 l1.197,1.076 l-1.078,1.141 l-0.774,1.132 l0.711,2.266 s0.357,1.138 0.357,1.017 c0,-0.119 1.141,0.78101 1.141,0.78101 l2.09,4.177 l2.028,2.933 s2.951,5.947 3.011,5.994 c0.891,0.65501 7.393,5.338 7.393,5.338 l1.109,5.815 l0.324,12.267 l0.954,3.51 l-0.402,7.091 l-0.315,1.432 s1.273,2.23 1.273,2.552 c0,0.31801 0.238,3.103 0.238,3.103 l0.875,3.028 l1.035,-0.078 l-0.637,-1.752 l0.799,0.08 l0.553,2.786 l0.079,1.113 l-0.632,-0.557 l-0.56,0.557 l-0.399,0.48 l0.797,0.72 l-0.397,1.108 l-0.158,1.438 l1.115,0.16 l0.796,0.636 l-0.796,1.354 s4.936,8.684 9.08,9.717 c4.144,1.04 5.338,1.356 5.338,1.356 l1.756,-0.957 l0.551,-0.715 l-3.661,-1.274 l-2.788,-3.032 l-0.56,-1.59 l0.876,-0.635 l-0.157,-1.198 s0,-0.875 0.314,-1.113 c0.322,-0.23799 0.958,-1.434 0.958,-1.434 l-0.958,-0.479 l-1.591,-1.591 l0.159,-1.837 l0.958,-0.553 s0.077003,-1.039 -0.080002,-1.277 c-0.16299,-0.23599 0.23901,-1.435 0.478,-1.513 c0.241,-0.081985 0.872,-1.039 0.872,-1.039 h-1.11 l-0.636,-0.236 l-0.8,-1.271 v-0.96001 l1.354,0.398 l1.279,-0.24 l0.716,-1.035 s-0.239,-0.636 -0.318,-0.87399 c-0.079994,-0.23801 0.159,-1.276 0.397,-1.356 c0.238,-0.074997 1.671,0.080002 1.671,0.080002 l2.71,-0.715 s1.037,-1.835 0.958,-2.153 c-0.079994,-0.31801 -0.079994,-1.354 -0.079994,-1.354 s0,-0.715 -0.636,-0.8 c-0.641,-0.076996 -0.641,-0.312 -0.8,-0.957 c-0.162,-0.635 -0.641,-1.352 -0.641,-1.352 l-0.794,0.16 l0.719,-0.715 l1.593,1.191 l2.388,0.403 l1.834,-1.835 l1.276,-3.108 l0.556,-2.311 h1.193 l1.273,-2.31 l0.481,-2.15 l-0.398,-2.632 l0.557,-0.951 l4.141,-2.789 l3.11,-1.037 l1.04,-0.8 s1.588,-2.148 1.588,-2.387 s0.63901,-3.348 0.63901,-3.348 s0.715,-3.66 0.633,-3.898 c-0.076996,-0.243 0.162,-3.428 0,-3.508 c-0.16,-0.078003 0.082001,-0.95801 0.082001,-0.95801 l3.028,-4.3 l1.434,-3.27 s1.04,-1.671 0.87901,-1.989 c-0.162,-0.319 -1.036,-3.027 -1.036,-3.027 m31.506,-116.63 s0.48099,-2.393 0.12299,-2.632 c-0.36299,-0.238 1.434,-1.672 1.434,-1.672 s2.625,-1.196 2.745,-1.551 c0.119,-0.361 -0.71599,-0.246 -0.71599,-0.246 l0.237,-1.79 l1.676,-0.597 s-0.954,-1.436 -1.197,-2.154 c-0.23599,-0.71 2.87,-1.072 2.87,-1.072 l5.497,-2.509 l-6.57,0.716 l-0.243,-0.834 l-6.933,-1.555 l-13.857,0.481 l-1.551,0.836 h-4.787 l-6.689,0.598 s-6.333,0.834 -6.692,1.072 c-0.356,0.241 0.71799,0.599 0.71799,0.599 l-0.119,0.837 l-7.771,0.958 l-0.475,0.836 s0.83499,0.835 0.954,0.955 c0.117,0.119 3.346,0.835 3.346,0.835 l3.825,0.478 s2.152,0.957 2.506,1.312 c0.362,0.358 0.246,1.439 0.12399,2.036 c-0.12399,0.598 -0.478,0.716 -0.95499,1.433 c-0.48001,0.719 0.95499,0.358 0.95499,0.358 l1.674,0.835 s-0.47801,0 -1.198,0.124 c-0.72,0.119 -1.674,0.354 -1.674,0.354 l-0.119,1.319 l2.394,-0.477 l-0.246,0.834 l-1.67,0.358 l-1.67,2.029 l-0.121,3.824 l0.357,3.226 l0.956,2.63 l1.555,0.239 l1.793,1.076 l2.393,-0.122 l2.386,-3.225 l2.508,-2.39 l0.718,-1.314 l1.198,-0.716 l2.625,-0.596 l3.348,-0.72 s3.103,-2.032 3.466,-2.271 c0.355,-0.238 8.959,-2.863 8.959,-2.863 l1.913,0.118 m2.394,8.72 l3.346,-1.074 l0.713,-1.313 l-1.31,-1.074 l-6.098,0.716 l-1.792,-1.078 l-2.148,1.197 s1.074,0.478 1.432,0.716 c0.358,0.239 1.075,-0.238 1.075,-0.238 v1.075 s1.912,1.074 1.67,1.435 c-0.237,0.357 3.112,-0.362 3.112,-0.362 m5.893,16.29 l-0.677,0.442 l-0.2,0.759 l0.598,0.357 l0.957,0.199 l0.992,-0.239 l0.842,-0.478 l0.236,-0.238 l1.395,-0.086 l0.159,-0.591 l0.322,-0.6 v-1.713 l0.756,-0.439 l-0.243,-1.112 l-1.192,-0.278 l-0.955,-0.16 l-0.636,0.198 l-0.365,0.517 s-0.59,0.638 -0.47299,0.515 c0.123,-0.115 0.437,-0.115 0.362,0.083 c-0.082993,0.198 -0.405,0.397 -0.405,0.397 h-0.47 l-0.407,-0.239 l-0.594,0.079 l-0.201,0.359 l0.244,0.558 l-0.403,0.4 l0.478,0.399 l0.476,0.115 l-0.074,0.56 l-0.522,0.236 m4.738,-4.697 c0.28,0.116 0.397,0.279 0.358,0.396 c-0.035004,0.124 0.59799,0.202 0.59799,0.202 l0.52,-0.118 l-0.358,0.557 s0.078003,0.359 0.196,0.519 c0.123,0.159 0.522,0 0.522,0 s0.957,-0.16 1.077,-0.12 c0.11601,0.037998 -0.042999,0.398 -0.042999,0.398 l0.362,0.556 s0.19501,0.798 0.235,1.035 c0.042999,0.243 -0.319,0.158 -0.319,0.158 s-0.75,0.119 -0.91699,0.084 c-0.159,-0.040001 -0.474,0.275 -0.752,0.592 c-0.28101,0.325 0.039993,0.202 0.039993,0.202 h0.592 s0.047012,0.396 0.084,0.561 c0.036011,0.159 -0.47899,0.315 -0.635,0.275 c-0.159,-0.038002 -0.87799,0.321 -0.87799,0.321 l0.037,0.598 l0.879,0.079 l0.878,0.12 l0.159,0.278 s-0.564,0.12 -0.72,0 c-0.159,-0.119 -0.63699,0.637 -0.63699,0.637 l-0.437,0.478 l-0.92,0.716 l0.517,0.24 l0.32,-0.4 l0.801,0.04 l0.87,-0.119 s0.523,-0.637 0.643,-0.637 c0.116,0 1.353,-0.037998 1.353,-0.037998 s0.996,-0.2 1.115,-0.12 s0.91701,0.241 1.041,0.279 c0.117,0.038998 1.67,-0.438 1.67,-0.438 s0.317,-0.517 0.39601,-0.676 c0.082993,-0.159 -0.435,-0.318 -0.554,-0.438 s0.396,-0.278 0.63699,-0.397 c0.237,-0.119 0.317,-0.559 0.438,-0.756 c0.115,-0.197 -0.161,-0.601 -0.201,-0.717 c-0.037994,-0.123 -0.597,-0.085999 -0.75499,-0.123 c-0.15901,-0.041 -0.83601,0.037003 -0.83601,0.037003 l0.036,-0.796 s-1.872,-2.548 -1.832,-2.667 c0.039993,-0.116 -0.438,-0.876 -0.63701,-0.913 c-0.19899,-0.040001 -0.439,-0.205 -0.67799,-0.523 c-0.237,-0.316 0.319,-0.717 0.319,-0.717 s0.675,-0.716 0.756,-0.874 c0.080002,-0.16 -0.082001,-0.637 -0.19899,-0.677 c-0.121,-0.039001 -1.511,0.039997 -1.511,0.039997 s-0.397,-0.318 -0.36,-0.437 c0.041,-0.125 0.439,-0.162 0.56,-0.162 c0.11299,0 0.83499,-1.391 0.994,-1.431 c0.15799,-0.042999 -0.121,-0.398 -0.121,-0.398 l-0.555,0.232 l-0.518,0.762 s-0.48201,0.119 -0.677,0 c-0.19701,-0.12 -0.599,0 -0.75801,-0.040001 c-0.159,-0.045 -0.523,0.478 -0.523,0.478 s-0.552,0.597 -0.713,0.636 c-0.159,0.039997 -0.717,0.677 -0.677,0.716 c0.042999,0.039997 0.078995,0.56 0.078995,0.56 s-0.11899,0.196 -0.31799,0.236 c-0.198,0.039001 0.158,0.716 0.158,0.716 l0.482,0.242 s-0.283,0.276 -0.44099,0.239 c-0.162,-0.044003 -0.52,0.4 -0.242,0.517 m187.37,-8.642 c0,-0.032999 -0.018005,-0.032999 -0.052002,-0.012999 c0.035004,0.025999 0.052002,0.035 0.052002,0.012999 m-48.91,70.304 c0.080017,-0.119 1.193,-0.677 1.232,-0.959 c0.041992,-0.273 0.83701,2.594 0.83701,2.594 l0.562,1.99 s0.43399,1.432 0.59399,1.712 c0.16,0.281 0.39499,2.112 0.39499,2.272 c0,0.158 0.52402,1.23 0.28302,1.352 c-0.24402,0.119 -0.63702,0.039001 -0.561,0.2 c0.083984,0.157 0.27698,1.035 0.27698,1.2 c0,0.157 -0.11697,1.229 -0.19299,1.429 c-0.083984,0.2 -0.11899,0.718 -0.11899,0.953 c0,0.241 0.15201,0.683 0.15201,0.798 c0,0.12199 0.12299,0.32 0.12299,0.32 s0.16199,0.082001 0.23801,-0.12 c0.082001,-0.2 0.67801,-0.278 0.76099,-0.2 c0.076996,0.082001 0.992,1.153 1.074,1.476 c0.078003,0.316 1.074,1.873 1.191,2.031 c0.121,0.16 0.64099,0.679 0.31598,1.115 c-0.31598,0.438 -0.31598,0.51701 -0.27298,0.755 c0.039001,0.238 0.16,1.113 0.55499,1.597 c0.40302,0.475 1.234,1.391 1.234,1.391 s1.039,0.722 1.199,0.921 c0.15598,0.197 1.312,0.316 1.435,0.793 c0.11398,0.477 0.435,0.959 0.435,0.959 s0.914,0.276 0.914,0.399 c0,-0.098999 -0.006012,-1.49 -0.116,-1.68 c-0.117,-0.194 -1.072,-2.148 -1.196,-2.266 c-0.116,-0.121 -0.315,-0.398 -0.19598,-0.911 c0.11899,-0.52399 -0.081024,-1.879 -0.081024,-1.879 l-1.872,-2.232 s-1.634,-1.594 -1.673,-1.512 c-0.039001,0.077995 -1.277,-0.479 -1.229,-0.957 c0.032013,-0.477 -0.129,-1.67 -0.48599,-1.95 c-0.354,-0.277 -0.673,-0.719 -0.952,-0.877 c-0.27701,-0.163 -0.078003,-1.675 0,-1.874 c0.076996,-0.199 0.715,-1.949 0.67798,-2.066 c-0.044006,-0.119 0.15802,-1.752 0.15802,-1.752 s0.51599,-0.684 0.63498,-0.443 c0.12302,0.23801 0.67801,0 0.518,0.717 c-0.15799,0.722 -0.075989,1.16 -0.075989,1.16 l1.43,-0.282 l0.999,1.038 l0.719,0.953 l0.915,0.559 s0.23801,1.077 0.357,1.152 c0.12201,0.083 0.71802,-0.238 0.71802,-0.238 l0.916,0.642 s-0.51999,0.953 -0.396,1.196 c0.117,0.238 0.233,1.072 0.233,1.072 l0.88,-0.718 l1.118,-0.836 l0.557,-0.797 l0.199,-0.596 l1.59,-0.681 l1.515,-1.393 l-0.037,-2.949 l-0.479,-1.83 l-1.354,-1.913 l-2.632,-2.627 l-1.031,-1.274 s-0.71899,-0.916 -0.68198,-1.153 c0.040985,-0.243 0.19598,-1.514 0.19598,-1.514 l0.722,-0.679 l1.396,-1.394 s0.95499,-0.637 1.115,-0.479 c0.15799,0.16 1.432,0.12 1.473,0.238 c0.037018,0.12 0.20401,0.082001 0.117,0.318 c-0.079987,0.238 0.039001,1.316 0.15802,1.436 c0.12299,0.12 0.40298,0.236 0.52197,0.278 c0.112,0.037994 0.51602,-0.121 0.55701,-0.359 c0.041016,-0.237 -0.040985,-1.075 0,-1.275 c0.041016,-0.198 0.11902,-0.198 0.24002,-0.238 c0.11899,-0.040001 0.71298,0 0.71298,0 l0.641,-0.637 l1.113,0.398 l1.195,-1.038 s0.63901,-0.116 0.71899,-0.038002 c0.078003,0.083 1.118,-0.795 1.118,-0.795 l1.074,-0.24 l0.953,-0.399 s0.39798,-0.917 0.39798,-0.799 c0,0.121 2.313,-2.307 2.313,-2.307 l0.756,-1.873 l0.914,-2.668 l0.557,-3.31 l0.042,-0.954 s-0.87799,0.715 -0.995,0.758 c-0.121,0.037003 -0.836,-0.158 -0.836,-0.158 l0.555,-0.998 s0.32001,-0.716 0.16,-0.756 c-0.16,-0.041 -0.957,-0.278 -0.957,-0.278 s0.34302,-0.784 0.39401,-0.835 c-0.072998,0 -1.386,-1.356 -1.386,-1.356 s-1.755,-2.509 -1.835,-2.312 c-0.079987,0.2 -1.432,-0.954 -1.556,-0.954 c-0.11401,0 -0.19601,0.039001 -0.27399,-0.198 c-0.080017,-0.24 1.195,-1.913 1.234,-2.037 c0.039001,-0.115 1.152,-1.353 1.356,-1.312 c0.194,0.040001 0.87299,0.079002 0.87299,0.079002 s-0.16299,-0.79501 -0.28,-0.835 c-0.116,-0.039001 -2.824,-0.278 -2.824,-0.278 s-1.074,0.637 -1.115,0.796 c-0.04599,0.159 -0.914,0.081001 -0.914,0.081001 l-0.122,-0.917 l-1.081,-0.517 l-1.231,-0.438 l0.042,-0.837 s0.75299,-0.277 0.87399,-0.363 c0.11902,-0.080002 1.074,-0.553 1.152,-0.955 c0.079987,-0.399 0.71899,-1.035 0.801,-1.155 c0.078003,-0.119 0.59399,-0.557 0.711,-0.477 c0.12302,0.079002 0.884,0.637 0.79901,0.677 c-0.075012,0.038998 -0.59302,0.878 -0.479,1.113 c0.12399,0.243 0.681,0.961 0.603,1.078 c-0.078003,0.122 -0.32001,0.56 -0.32001,0.56 l0.598,-0.08 s0.75601,-0.597 0.71503,-0.676 c-0.039001,-0.085999 0.59799,-0.758 0.71698,-0.758 s1.437,-0.283 1.471,-0.164 c0.042999,0.121 1.358,0.438 1.358,0.438 l0.24,2.394 s3.187,0.756 3.187,0.956 c0,0.198 -0.36002,0.515 -0.36002,0.515 s-0.039978,0.638 0.12003,0.72 c0.15799,0.075996 0.67499,0.515 0.797,0.677 c0.12399,0.159 0.35998,1.237 0.35998,1.237 s-0.436,0.954 -0.35998,1.074 c0.078003,0.121 0.87598,0.836 0.87598,0.836 l2.272,-0.876 s1.232,-0.955 1.232,-1.074 c0,-0.122 -1.312,-3.308 -1.312,-3.308 l-3.03,-2.076 l-1.31,-1.074 l1.83,-1.79 l-0.16,-1.552 s0.39801,-1.519 0.478,-1.519 c0.084015,0 1.196,-0.794 1.196,-0.794 l1.273,0.881 l1.913,-1.198 l1.076,-3.86 l0.039,-5.023 l-1.713,-3.066 s-0.79498,-1.872 -0.91898,-1.872 c-0.11902,0 -1.271,-1.796 -1.271,-1.796 l-2.669,-1.192 l-1.158,-0.04 l-0.714,1.193 l-0.754,-0.915 l-1.036,-1.83 l0.117,1.114 s0.16,0.716 0.112,0.875 c-0.029999,0.159 -0.79199,-0.996 -0.79199,-0.996 s-1.274,-0.237 -1.353,-0.237 c-0.076996,0 -0.71701,-0.362 -0.71701,-0.362 s1.879,-2.185 1.716,-2.107 c-0.15799,0.077999 0.31799,-2.788 0.31799,-2.788 s0.676,-1.357 0.715,-1.277 c0.041016,0.080999 2.625,-0.278 2.625,-0.278 s4.741,-0.077002 4.702,0 c-0.039001,0.083 2.313,-0.156 2.313,-0.156 s0.075989,0.677 0.28201,0.757 c0.194,0.077999 2.105,-0.043001 2.105,-0.043001 l1.395,-0.317 l0.674,-0.082 s-0.83398,-0.835 -0.95499,-0.835 c-0.11902,0 -0.914,-0.361 -0.992,-0.401 c-0.083008,-0.039999 0.59601,-1.55 0.55499,-1.79 c-0.036987,-0.24 -0.117,-1.075 0.199,-0.995 c0.31799,0.081001 2.474,0.081001 2.474,0.081001 s0.87201,0.833 0.87201,1.073 c0,0.238 1.395,1.074 1.395,1.074 s0.759,-0.836 0.836,-0.994 c0.067017,-0.127 0.47,-0.576 0.62399,-0.65 c-0.19199,-0.157 -0.81799,-0.982 -0.81799,-0.982 s0.67401,-0.759 1.031,-0.361 c0.36301,0.399 1.156,2.111 1.156,2.111 s-0.71899,1.791 -0.71899,1.953 c0,0.156 -0.27701,1.794 -0.27701,1.915 c0,0.118 -0.798,0.834 -0.798,0.834 s-0.39401,0 -0.39401,0.199 c0,0.198 0.552,1.272 0.552,1.272 s0.20599,1.237 0.31799,1.312 c0.12201,0.087002 4.107,3.547 4.107,3.547 l2.587,2.554 l1.677,1.391 l0.475,-0.118 s0.401,-1.95 0.241,-1.875 c-0.16098,0.083 -0.79898,-0.594 -0.716,-0.711 c0.077026,-0.127 0.23602,-0.685 0.43301,-0.644 c0.203,0.042999 0.79901,0.158 0.79901,0.158 l-1.195,-1.512 l0.396,-0.834 l0.92,0.278 l-1.236,-1.313 l-0.637,-1.277 s0.677,0.158 0.72202,0.276 c0.034973,0.127 0.75497,-0.511 0.51498,-0.554 c-0.241,-0.043999 -1.674,-0.56 -1.674,-0.68 c0,-0.118 -0.83398,-0.317 -0.87997,-0.478 c-0.036011,-0.158 0.16098,-0.795 0.04599,-0.795 c-0.11899,0 -1.354,-0.557 -1.354,-0.557 l-0.802,0.115 l-0.438,-0.871 l0.238,-0.677 s-0.763,-1.084 -0.832,-1.153 c0.060974,0.055 1.702,-0.572 1.858,-0.639 c-0.007996,0.026001 0.776,-0.065001 0.845,0.234 c0.083008,0.321 0.43802,0.64 0.43802,0.64 l0.841,-0.796 s0.59598,-0.52 0.83499,-0.402 c0.23901,0.119 1.394,0.363 1.557,0.519 c0.142,0.146 0.867,0.352 0.979,0.483 c-0.011017,-0.167 0.013977,-0.684 0.013977,-0.684 l0.034,-0.437 l1.123,-1.512 s0.43301,-0.636 0.836,-0.72 c0.39801,-0.076 1.232,-0.793 1.391,-0.672 c0.16,0.117 1.481,0.08 1.64,0.438 c0.15601,0.357 0.87299,-0.12 0.87299,-0.12 s-0.681,-0.835 -0.71698,-0.758 c-0.037018,0.079 -2.233,-0.879 -2.351,-0.835 c-0.121,0.035999 -1.59,-0.878 -1.59,-0.878 s-0.76102,-0.279 -0.797,-0.279 c-0.039001,0 0.59299,-0.319 0.83099,-0.399 c0.241,-0.078001 0.79999,-0.835 0.79999,-0.835 s-0.27698,-0.517 -0.439,-0.677 c-0.16098,-0.158 0.87701,-0.039 1.234,0.12 s2.155,0.238 2.112,0.358 c-0.044006,0.118 1.195,0.118 1.154,0.438 c-0.040985,0.319 0.43802,0.396 0.59802,0.557 c0.15997,0.16 1.673,0.398 1.755,0.438 c0.072998,0.039 1.587,-0.119 1.587,0.118 c0,0.24 0.48001,-0.038 0.48001,-0.038 s-0.23801,-1.154 -0.517,-1.075 c-0.28201,0.079 -0.802,-0.319 -0.44,-0.397 c0.35998,-0.079 1.037,-0.478 0.83899,-0.558 c-0.202,-0.077999 -0.51898,-0.478 -0.99698,-0.679 c-0.47601,-0.199 -2.389,-0.633 -2.588,-0.558 c-0.19699,0.083 -3.188,-0.639 -3.381,-0.639 c-0.20398,0 -1.239,-0.275 -1.239,-0.275 l-10.197,-2.749 s-6.333,-0.676 -6.296,-0.799 c0.042999,-0.116 -3.663,-0.437 -3.663,-0.437 l2.194,1.833 l-2.194,-0.317 s-2.706,-0.438 -2.786,-0.558 c-0.082001,-0.118 -7.572,-0.159 -7.572,-0.159 l-1.113,-1.2 s-3.587,-0.592 -3.706,-0.632 c-0.11899,-0.044 -4.582,0 -4.582,0 l-3.737,-0.558 s-2.513,-1.078 -3.071,-0.957 c-0.55701,0.12 -6.054,-0.358 -6.374,-0.519 c-0.31598,-0.16 -2.504,0.16 -2.504,0.16 l1.783,1.355 l-2.942,-0.082 l-2.948,-0.041 l-1.118,-0.556 l0.046,1.634 s-0.83902,0.155 -0.83902,-0.043 c0,-0.199 -2.591,-1.113 -2.591,-1.113 s-2.154,-1.91 -2.19,-1.79 c-0.041016,0.118 -3.498,-0.678 -3.498,-0.678 l-2.158,-0.396 s-0.63699,0.277 -0.55902,0.437 c0.080017,0.159 0.91602,0.716 0.79703,0.835 c-0.11902,0.118 -1.43,-0.119 -1.43,-0.119 l-3.387,-0.119 l-0.602,-0.637 l-4.461,0.04 s-1.672,-1.316 -1.714,-1.24 c-0.03598,0.08 -1.273,0.286 -1.273,0.286 l-0.957,1.033 l-2.706,0.2 l2.912,-1.555 l1.035,-0.755 c0.074982,-0.204 -0.724,-1.396 -0.87799,-1.238 c-0.15701,0.161 -2.433,-0.557 -2.552,-0.557 s-3.545,-0.08 -3.545,-0.08 c-0.242,-0.039 -1.314,0 -1.314,0 s-0.39801,-1.113 -0.59799,-1.074 c-0.19702,0.04 -2.79,-0.04 -2.79,-0.04 s-2.308,0.478 -2.395,0.716 c-0.071014,0.241 0.444,0.478 0.444,0.478 s-1.234,0.916 -1.355,0.836 c-0.117,-0.08 -3.706,-0.08 -3.706,-0.08 s-4.978,1.074 -4.978,0.954 c0,-0.102 -1.49,0.534 -1.837,0.687 c0.293,0.257 1.338,0.852 1.2,0.992 c-0.15799,0.158 -3.507,0.318 -3.626,0.078 c-0.10702,-0.219 -1.431,0.286 -1.641,0.318 c0.241,0.099999 1.809,1.326 1.918,1.513 c0.11902,0.198 0.40701,0.478 0.797,0.318 c0.39801,-0.159 0.75601,-0.318 0.83801,-0.159 c0.079987,0.159 0,0.517 0,0.517 s-0.99799,0.2 -1.113,0.2 c-0.11398,0 -1.316,-0.678 -1.436,-0.717 c-0.11697,-0.04 -1.711,-0.398 -1.912,-0.398 c-0.20401,0 -1.079,0.119 -1.079,0.119 s-0.676,0.598 -0.518,0.678 c0.16501,0.079 0.56201,0.835 0.68301,0.758 c0.117,-0.083 0.836,-0.401 0.87299,-0.040999 c0.041016,0.354 -0.83398,0.638 -0.83398,0.638 s-1.2,-0.482 -1.239,-0.598 c-0.039001,-0.124 -0.59799,-0.798 -0.59799,-1.157 s-0.715,-1.632 -0.914,-1.434 c-0.19699,0.2 -0.914,0.279 -0.914,0.279 l0.877,0.796 s0.754,0.635 0.55499,0.677 c-0.19699,0.04 -0.75601,0.357 -0.793,0.478 c-0.040985,0.119 -0.479,0.794 0.036987,0.794 c0.518,0 1.355,0.8 1.355,0.8 s0.039001,1.077 0.117,1.236 c0.079987,0.159 1.312,0.994 1.312,0.994 s0.763,-0.478 0.875,-0.596 c0.12598,-0.12 1.162,-0.318 1.4,-0.080002 c0.23898,0.238 -0.48001,0.835 -0.677,0.717 c-0.20102,-0.121 -0.63699,-0.24 -0.836,-0.161 l-0.203,0.078999 s-0.27701,0.598 0,0.717 c0.28101,0.121 0.64398,0.519 0.60199,0.717 c-0.042999,0.198 -0.797,1.554 -0.797,1.554 l-1.118,0.238 c-0.39798,-0.078999 -1.033,-0.358 -1.033,-0.358 l1.194,-0.914 l0.16,-1.237 s0.040985,-0.079 -0.27701,-0.358 c-0.32498,-0.277 -1.437,-1.272 -1.437,-1.272 s-0.67602,-1.117 -0.67602,-1.236 c0,-0.125 -0.31799,-0.72 -0.31799,-0.72 s-0.758,-0.517 -0.918,-0.553 c-0.15601,-0.041 -0.15601,-0.481 -0.035004,-0.719 c0.117,-0.24 -0.121,-1.313 -0.16199,-1.155 c-0.04599,0.16 -1.397,-0.039 -1.558,-0.079 c-0.16,-0.039001 -0.51599,-0.478 -0.51599,-0.478 s-0.19699,-0.674 -0.521,-0.397 c-0.315,0.278 -0.87201,0.397 -0.87201,0.397 l-0.557,1.472 l0.158,0.598 l-1.115,0.759 s0.94098,0.809 1.028,0.871 c-0.067993,-0.033 0.049988,0.803 0.087006,1.001 c0.03598,0.199 1.711,0.638 1.711,0.638 s0.87698,0.357 0.95499,0.715 c0.082001,0.358 -0.23999,0.797 -0.23999,0.797 l-1.709,-0.797 l-3.788,-1.193 s-3.66,-0.238 -3.583,-0.357 c0.082977,-0.119 -1.396,-0.958 -1.396,-0.958 l-0.837,0.437 s0.795,0.561 0.91901,0.596 c0.119,0.044001 1.314,0.482 1.314,0.482 s0.35998,0.199 0.43799,0.518 c0.083008,0.317 -0.676,0.715 -0.676,0.715 s-0.51602,-0.557 -0.51602,-0.675 c0,-0.12 -0.12299,-0.598 -0.28098,-0.519 c-0.16,0.08 -1.633,0.837 -1.633,0.837 s-1.673,0.039 -1.874,0.198 c-0.199,0.159 -1.274,0.918 -1.354,0.717 c-0.082001,-0.199 0.158,-1.035 0.12199,-1.194 c-0.041992,-0.159 -1.675,0.28 -1.675,0.28 s-2.108,0.675 -2.191,0.873 c-0.078003,0.202 -1.033,0.399 -1.197,0.439 c-0.15799,0.039999 -0.355,0.039999 -0.355,0.039999 s-0.834,0.52 -0.67799,0.795 c0.16,0.28 -1.155,0.437 -1.155,0.437 s-0.834,-0.516 -0.873,-0.632 c-0.03801,-0.109 0.905,-0.743 0.995,-0.797 c-0.12199,0.079 -0.995,-1.036 -1.116,-1.076 c-0.105,-0.032001 -2.27,0.024 -2.656,0.007999 c0.252,0.091999 1.023,0.838 1.023,0.948 c0,0.12 0.12099,1.276 0.12099,1.276 s0.632,0.401 0.75401,0.354 c0.11899,-0.035999 -0.12201,0.68 -0.12201,0.68 l-1.069,-0.119 s-0.444,-0.641 -0.802,-0.279 c-0.35899,0.362 -1.551,1.277 -1.629,1.158 c-0.082001,-0.12 -0.758,0.119 -0.718,0.358 c0.041,0.24 0.558,0.755 0.558,0.755 s-0.75499,0.637 -0.681,0.4 c0.083008,-0.242 -2.067,-0.797 -2.228,-0.757 c-0.16499,0.039999 -1.079,0.319 -1.079,0.319 l0.396,0.676 s1.198,0.079 1.355,0.318 c0.16501,0.238 -0.27399,0.716 -0.39999,0.716 c-0.112,0 -2.902,-1.314 -2.902,-1.314 s-0.918,-0.954 -0.64201,-1.232 c0.28601,-0.279 0.522,-0.716 0,-0.716 c-0.515,0 -1.072,-0.401 -1.108,-0.56 c-0.042007,-0.159 3.141,0.322 3.141,0.322 l1.837,0.196 s-0.23801,0.242 0.479,0 c0.71399,-0.239 1.91,-0.839 2.07,-0.873 c0.16,-0.046999 0.355,-0.802 0.355,-0.802 l-0.238,-0.676 l-6.847,-1.632 s-2.274,-0.677 -2.313,-0.796 s-2.032,-0.321 -2.032,-0.321 l-0.958,0.123 l0.802,-0.998 s-3.112,-0.919 -3.188,-0.8 c-0.084,0.119 -1.356,0.724 -1.356,0.724 l-2.389,-0.401 l-3.07,0.716 l-3.108,0.759 l-4.498,1.91 l1.673,0.159 l-0.721,1.233 l-1.992,1.479 l-1.111,1.829 l-0.16,0.996 l-1.074,1.153 s-0.756,-0.397 -0.91499,-0.554 c-0.158,-0.163 -2.791,0.752 -2.791,0.752 l-1.591,1.515 s-0.398,0.759 -0.478,0.958 c-0.082993,0.201 0.119,2.312 0.119,2.312 s0.95599,0 0.676,0.278 c-0.28,0.277 -0.23999,1.555 -0.23999,1.555 l1.117,0.752 s1.472,0.482 1.677,0.44 c0.19099,-0.039001 0.91299,-0.517 1.035,-0.597 c0.11099,-0.077999 0.993,-0.954 1.271,-0.918 c0.278,0.043999 0.994,-0.758 1.077,-0.474 c0.078003,0.279 0.23901,1.274 0.39601,1.513 c0.159,0.239 0.71599,0.677 0.954,1.232 c0.237,0.559 0.564,1.119 0.48,1.233 c-0.082993,0.124 -0.63899,0.677 -0.63899,0.677 s-1.191,0.159 -1.353,0.324 c-0.158,0.157 -0.35701,0.236 -0.477,0.157 c-0.123,-0.079998 0.397,-0.64 0.517,-0.793 c0.121,-0.163 -0.278,-0.801 -0.438,-0.762 c-0.162,0.042 -0.317,-0.358 -0.162,-0.477 c0.162,-0.12 0.12201,-0.876 0.12201,-0.876 s-0.239,-0.121 -0.35701,-0.078999 c-0.12,0.040001 -1.514,0.596 -1.514,0.596 s-0.756,0.797 -0.796,0.955 c-0.042999,0.164 -0.362,0.998 -0.15799,1.593 c0.198,0.601 0.67499,1.557 0.67499,1.557 s0.513,0.356 0.31801,0.517 c-0.196,0.158 -0.60001,0.756 -0.60001,0.756 l-0.951,0.039 s-1.713,0.203 -1.875,0.279 c-0.15701,0.082001 -1.828,0.596 -1.753,0.758 c0.084,0.159 -0.36,1.874 -0.36,1.874 c-0.076996,0.040001 -1.751,1.234 -1.949,1.234 c-0.19899,0 -1.433,0.317 -1.433,0.317 s-0.558,1.474 -0.59599,1.393 c-0.040009,-0.081001 -1.877,0.876 -1.877,0.876 s-1.392,-0.399 -1.432,-0.56 c-0.039993,-0.158 -0.519,-0.516 -0.55699,-0.396 c-0.042007,0.121 0.476,1.36 0.476,1.599 c0,0.233 0.080994,0.712 -0.07901,0.556 c-0.15999,-0.163 -0.95599,-0.397 -1.114,-0.478 c-0.16299,-0.077999 -1.515,-0.042 -1.515,-0.042 h-0.558 s-0.679,0.6 -0.71899,0.479 c-0.037003,-0.121 -0.077011,0.52 -0.077011,0.52 l0.396,0.396 l1.438,0.597 l1.353,0.837 l0.518,1.273 l0.596,1.195 s-0.399,2.469 -0.47301,2.592 c-0.087997,0.117 -0.92099,0.678 -0.92099,0.678 l-2.591,-0.044 s-1.275,-0.277 -1.394,-0.317 c-0.119,-0.042 -1.913,0.238 -1.948,0.078999 c-0.040009,-0.161 -0.60001,-0.121 -0.60001,-0.121 l-0.282,-0.317 h-0.716 l-0.597,0.675 l-0.876,0.044 v0.713 s0.358,1.637 0.31801,1.518 c-0.040009,-0.123 -0.158,1.909 -0.158,1.909 s-0.86099,1.731 -0.948,1.863 c0.018997,0.051998 -0.046997,1.165 -0.046997,1.165 l0.519,0.838 l0.079,0.993 s-0.39899,0.915 -0.239,0.836 c0.16101,-0.080994 1.437,0.039001 1.472,-0.119 c0.040009,-0.158 0.79901,-0.517 0.91501,-0.24 c0.118,0.278 0.56,0 0.68399,0.482 c0.11101,0.477 0.55301,1.153 0.59601,1.271 c0.039001,0.124 0.357,0.239 0.357,0.239 l0.119,0.322 l-0.242,0.2 l-0.99,2.227 l-2.196,1.555 l-1.312,0.834 l-0.359,0.999 l-0.556,0.637 l-0.16,1.234 s0.16,1.551 0.076996,1.633 c-0.076996,0.079002 -2.986,2.828 -2.986,2.828 l-1.593,0.358 l-0.88,1.515 s-1.194,1.112 -1.271,1.316 c-0.082993,0.196 -0.679,0.956 -0.679,0.956 s0.040009,1.59 0,1.353 c-0.041,-0.23901 -1.711,1.312 -1.711,1.312 s-0.31799,1.833 -0.397,1.915 c-0.078995,0.075996 -0.875,1.472 -0.998,1.432 c-0.11899,-0.041 -0.23799,0.955 -0.23799,1.115 c0,0.158 0.396,0.635 0.396,0.635 s0.562,1.08 0.60001,0.96 c0.037994,-0.123 0.037994,0.36 0.037994,0.36 l-0.555,0.554 s0.59799,0.919 0.59799,1.038 v2.466 l-0.64,1.357 l-0.318,1.754 l-0.959,0.755 l0.04,0.479 l0.838,0.675 l0.123,0.755 l-0.243,0.839 v0.84 l0.601,1.394 s0.597,0.477 0.716,0.357 s1.31,0.756 1.472,1.033 c0.16,0.279 1.631,2.032 1.631,2.114 c0,0.077995 0.24,0.477 0.24,0.477 l0.716,2.43 s3.466,2.866 3.546,2.748 c0.080002,-0.116 3.705,2.587 3.705,2.587 s2.912,-1.43 2.873,-1.309 c-0.042999,0.117 2.465,-0.121 2.465,-0.121 l1.516,0.238 l1.111,0.518 l4.067,-1.869 l0.797,-0.604 l3.144,-0.115 l1.516,0.591 s0.995,1.479 0.995,1.718 s0.59801,1.312 0.679,1.152 c0.077011,-0.155 3.545,-0.315 3.667,-0.277 c0.11499,0.039001 1.63,1.517 1.63,1.517 l-0.079,1.396 l-0.241,2.466 l-0.479,1.196 l-0.473,1.077 l-0.119,0.757 s3.579,5.258 3.579,5.297 s0.91701,2.188 0.91701,2.188 l1.08,2.752 l0.638,1.55 l-0.638,0.876 l1.036,2.674 l-0.36,2.625 l-1.554,3.389 l-0.676,2.508 l0.199,3.346 l1.866,3.864 l1.955,4.422 l0.199,4.862 l1.557,2.904 l1.118,2.348 l1.074,2.553 l0.555,0.757 s0.083008,1.275 -0.042999,1.275 c-0.117,0 -0.71201,0.042999 -0.552,0.27701 c0.158,0.23799 1.072,1.833 1.072,1.833 l0.039,0.719 l1.273,0.713 l1.123,-0.516 s1.113,-0.19699 1.234,-0.15799 c0.117,0.038986 1.668,-0.52 1.668,-0.52 l2.391,0.359 l1.674,-0.875 l1.833,-0.119 s3.146,-3.069 3.146,-2.989 s2.902,-3.742 2.902,-3.742 l1.481,-1.278 l0.833,-2.508 l-0.118,-1.629 s0.28001,-0.843 0.556,-1.001 c0.28201,-0.158 2.987,-1.751 2.987,-1.751 l0.563,-2.631 l-0.522,-2.591 s-0.39999,-0.991 -0.39999,-1.152 c0,-0.15701 0.27901,-0.87901 0.27901,-0.87901 l2.632,-2.349 s0.59601,-0.75699 0.875,-1.035 c0.28,-0.278 2.745,-1.352 2.745,-1.352 l1.677,-1.63 l0.279,-6.018 s-0.59799,-2.236 -0.63699,-2.431 c-0.039001,-0.20401 -1.194,-3.983 -1.194,-4.145 c0,-0.157 -0.39801,-2.47 -0.44301,-2.672 c-0.031998,-0.192 0.914,-2.863 0.914,-2.863 l1.319,-2.593 l5.38,-6.173 l3.03,-2.426 l4.579,-7.493 l1.475,-3.467 l0.315,-3.501 l-0.953,-0.16 s-0.47998,0.557 -0.599,0.635 c-0.12,0.081993 -2.868,0.242 -2.868,0.242 l-3.347,0.992 l-1.633,0.598 l-1.593,-1.67 l0.238,-1.194 l-2.148,-2.553 l-3.029,-3.022 s-1.519,-1.158 -1.437,-1.274 c0.082001,-0.123 -0.839,-2.911 -0.839,-2.831 s-1.512,-1.392 -1.512,-1.392 l-0.039,-2.672 l-1.633,-2.665 l-1.789,-3.27 s-1.517,-3.746 -1.677,-3.945 c-0.15601,-0.198 -0.754,-1.192 -0.55701,-1.153 c0.199,0.041 1.633,-0.159 1.633,-0.159 s2.667,3.149 2.667,3.308 s1.597,2.825 1.597,2.825 s1.193,1.675 1.193,1.552 c0,-0.113 0.27901,1.554 0.23801,1.677 c-0.039001,0.12 0.717,1.953 0.717,1.953 l2.272,2.033 l0.477,1.471 l2.071,2.27 l0.401,1.436 l-1.397,-1.279 s-0.438,0.71899 -0.27901,0.842 c0.158,0.116 1.553,1.591 1.553,1.591 l0.683,2.029 l0.518,1.915 l0.754,0.637 l2.233,-0.437 l0.395,-0.88 h2.192 l0.955,-0.715 l1.191,-0.16 s0.918,-0.917 0.99698,-0.957 c0.082001,-0.040001 3.627,-1.59 3.627,-1.59 s0.076996,-1.16 0.23801,-1.16 c0.16,0 3.708,-1.115 3.708,-1.115 l0.357,-1.353 l1.271,-0.08 l0.359,-0.914 l1.235,-0.756 l0.155,-1.993 l0.919,0.276 l0.281,-0.678 l-0.318,-0.433 l1.395,-2.031 l0.039,-0.721 l-1.355,-1.234 l-0.635,-0.676 s-2.153,-0.242 -2.235,-0.401 c-0.078003,-0.16 -0.914,-2.073 -0.914,-2.073 c0,-0.594 0.039001,-1.673 -0.082001,-1.591 c-0.11499,0.079002 -0.793,0.835 -0.793,0.835 l-2.465,2.272 l-2.156,0.557 s-0.71399,-0.199 -0.75601,-0.317 c-0.038971,-0.12 -0.11899,-1.954 -0.11899,-1.954 s-0.91998,-1.075 -0.95599,-1.233 c-0.039001,-0.16 -0.71899,1.396 -0.71899,1.396 s-1.036,-1.396 -0.91901,-1.44 c0.11899,-0.037003 -0.47699,-1.392 -0.47699,-1.392 l-2.068,-2.387 l-0.119,-1.237 s0.996,-1.078 1.154,-1.118 c0.15802,-0.039001 1.592,-0.237 1.753,0.283 c0.15997,0.513 1.355,2.272 1.355,2.51 s1.829,1.83 2.031,1.79 c0.19598,-0.039001 0.91101,0.358 1.154,0.518 c0.23801,0.159 0.71301,0.438 0.914,0.64 c0.199,0.195 0.71701,0.079002 0.71701,0.079002 l1.315,-0.201 s1.074,-1.036 1.117,-0.836 c0.034973,0.203 1.271,0.282 1.113,0.557 c-0.15997,0.28001 0.044006,1.079 0.15802,1.317 c0.12399,0.241 5.497,1.077 5.497,1.077 l2.474,0.318 s2.623,-0.241 2.783,-0.241 c0.15799,0 1.837,0.163 1.995,0.117 c0.15601,-0.035004 2.547,2.591 2.547,2.591 l2.231,1.12 l0.515,-0.042 l-1.268,0.559 s0.43201,0.996 0.43201,1.114 c0,0.12 2.233,1.714 2.233,1.714 s0.79498,-0.521 0.914,-0.521 c0.12201,0 0.67899,-0.198 0.72,-0.477 c0.039001,-0.278 -0.12201,-1.073 0.078003,-1.153 c0.203,-0.080002 0.47598,-0.321 0.52298,0.040001 c0.035004,0.356 0.521,3.782 0.43802,3.819 c-0.087006,0.046997 0.676,2.592 0.676,2.711 c0,0.12 0.996,3.229 1.033,3.348 c0.041016,0.118 1.672,3.623 1.791,3.743 c0.117,0.12 1.714,4.26 1.714,4.26 s0.918,1.714 0.87701,1.995 c-0.039001,0.279 0.31998,1.632 0.56,1.792 c0.23801,0.159 1.311,0.558 1.311,0.558 s0.59598,-0.521 0.63998,-0.677 c0.036011,-0.158 0.47699,-0.875 0.63199,-1.113 c0.16101,-0.243 0.88501,-0.318 0.92102,-0.161 c0.036987,0.161 0.87799,0.558 0.87799,0.558 l-0.087,1.95 s0.164,1.271 0.28101,1.757 c0.12601,0.477 1.118,0.875 1.118,0.875 l1.195,-1.075 l0.516,-1.837 l-1.191,-1.789 s-0.914,-0.995 -1.035,-1.118 c-0.121,-0.115 -0.884,-0.234 -0.884,-0.234 s0.087006,0.399 0.164,0.555 c0.083008,0.16 -0.164,0.202 -0.164,0.202 l-0.914,-0.357 l0.16,-1.045 s0.685,-0.117 0.802,-0.117 c0.116,0 -0.048004,-1.592 -0.048004,-1.592 s0.24701,-2.825 0.327,-2.905 c0.080017,-0.083 -0.121,-2.868 -0.44,-2.986 c-0.31497,-0.12 0,-1.035 0.16101,-1.076 c0.15799,-0.042 1.711,-0.597 1.711,-0.597 l0.873,-1.713 s1.558,-1.078 1.677,-1.158 c0.11697,-0.080002 1.908,-1.988 1.908,-2.231 c0,-0.235 0.20401,-0.833 0.67899,-0.918 c0.479,-0.074997 1.358,-0.713 1.358,-0.713 v-1.316 s0.15802,-0.637 0.51602,-0.795 c0.35498,-0.16 1.273,-0.281 1.273,-0.281 s0.202,0.519 0.080017,0.597 c-0.121,0.082001 2.03,-0.597 2.03,-0.597 s0.95499,0 1.115,-0.038002 c0.16299,-0.042 0.64002,-0.755 0.64002,-0.755 s-0.20401,-0.64101 0.072998,-0.483 c0.284,0.165 0.96201,0.88 0.884,1 c-0.085022,0.114 0.39499,0.913 0.27899,1.231 c-0.12302,0.318 1.831,2.474 1.831,2.474 s0.952,-0.441 0.875,-0.122 c-0.083008,0.318 -0.27701,1.317 -0.27701,1.317 s0.59802,0.396 0.83402,0.437 c0.23999,0.039001 0.91699,1.353 0.91699,1.353 s-0.16,1.192 -0.16,1.352 s0.085999,1.317 0.039001,1.517 c-0.039001,0.198 1.633,0.562 1.633,0.562 s1.322,-1.084 1.402,-1.206 m-118.11,-59.191 l1.317,-1.116 l0.281,-1.077 s1.232,0.201 1.269,0.36 c0.039001,0.157 0.323,-0.36 0.636,-0.078999 c0.32201,0.278 0.72099,0.235 0.76199,0.476 c0.035004,0.24 0.27701,0.519 0.31601,0.359 c0.039001,-0.16 0.039001,-0.677 0.039001,-0.677 s-0.35501,-0.198 -0.55701,-0.322 c-0.201,-0.118 -0.159,-0.477 0.041,-0.592 c0.196,-0.119 0.754,-0.444 0.91499,-0.322 c0.16,0.116 0.87801,-0.159 0.87801,-0.159 s0.119,-0.243 0.19701,-0.357 c0.082993,-0.124 0.481,-1.197 0.481,-1.197 s-0.28401,-0.119 -0.36202,-0.479 c-0.079987,-0.356 0.44,-1.393 0.56201,-1.431 c0.114,-0.041 1.674,-0.959 1.674,-0.959 s0.59599,-0.639 0.357,-0.835 c-0.241,-0.202 -2.032,-1.077 -2.032,-1.276 s-0.19899,-1.235 -0.082993,-1.631 c0.121,-0.397 0.84,-1.157 0.95799,-1.317 c0.121,-0.155 0.99701,-1.232 1.157,-1.196 c0.16,0.042999 0.75601,-0.08 0.912,-0.156 c0.16301,-0.083 1.553,-0.719 1.315,-0.758 c-0.23801,-0.039999 0.080994,-0.756 -0.041,-0.717 c-0.119,0.039 0.12199,-0.915 0.401,-0.994 c0.27699,-0.079 0.754,-0.438 0.879,-0.438 c0.112,0 1.075,0.039999 1.313,0.078999 c0.23799,0.040001 1.074,-0.357 1.193,0 c0.119,0.358 0.435,0.438 0.16,0.557 c-0.27899,0.12 -0.916,0.678 -1.315,1.034 c-0.396,0.357 -1.594,1.159 -1.754,1.195 c-0.15601,0.042 -0.243,0.119 -0.55901,0.321 c-0.31799,0.195 -0.31799,-0.278 -0.394,0.476 c-0.082993,0.758 -0.19899,1.593 -0.042999,1.875 c0.16,0.278 0.27701,0.716 0.119,0.916 s-0.041,0.319 0,0.677 s0.52699,0.516 0.561,0.676 c0.037003,0.159 0.674,0.477 0.674,0.477 c0.31799,-0.035999 0.685,-0.077 0.758,0.083 c0.083008,0.159 0.24301,0.08 0.24301,0.08 l0.671,-0.163 s0.681,-0.398 0.921,-0.358 c0.23799,0.039999 0.55499,-0.079 0.834,0 c0.27899,0.08 1.472,-0.318 1.636,-0.279 c0.15799,0.043999 1.27,-0.437 1.353,-0.277 c0.080002,0.159 0.67799,0.119 0.67799,0.119 l0.479,0.358 c0,0.238 -0.479,0.795 -0.59599,0.878 c-0.121,0.077999 -0.518,0.401 -0.757,0.318 c-0.23801,-0.077002 -0.40201,0.039999 -0.72,-0.077002 c-0.319,-0.122 -0.91701,-0.284 -1.078,-0.284 c-0.159,0 -2.027,0.444 -2.027,0.444 l-0.953,0.276 l-0.165,0.56 l0.121,0.119 l0.956,0.596 c0,0.201 0.401,0.080002 0.31799,0.558 c-0.078003,0.477 -0.119,0.676 -0.23799,0.914 c-0.12201,0.24 -0.59801,0.678 -0.71701,0.398 c-0.11899,-0.278 -0.71399,-0.796 -0.875,-0.915 c-0.15599,-0.119 -0.634,-0.040001 -0.92,-0.040001 c-0.27699,0 -0.836,0.399 -0.836,0.837 c0,0.437 -0.27699,1 -0.16,1.431 c0.121,0.444 0.64101,1.002 0.403,1.279 c-0.243,0.28 -0.797,0.479 -1.035,0.597 c-0.23801,0.12 -0.8,0.518 -0.99701,0.597 c-0.19899,0.078999 -0.797,0.318 -0.918,0.039997 c-0.117,-0.28 -0.357,-0.717 -0.357,-0.717 s-0.199,-0.396 -0.282,-0.277 c-0.070999,0.115 -0.51601,0.16 -0.51601,0.16 l-1.031,0.397 s-0.562,0.397 -0.679,0.477 c-0.12299,0.078999 -0.71899,0.078999 -0.95799,0.198 c-0.23801,0.121 -0.95599,0.718 -1.153,0.439 c-0.202,-0.277 -0.317,0.199 -0.563,-0.239 c-0.233,-0.437 -0.157,-0.916 -0.438,-0.834 c-0.27499,0.080002 -0.91699,0.238 -0.99199,0.397 c-0.083008,0.159 -0.162,0.159 -0.31601,0.318 c-0.15999,0.158 -1.317,0.278 -1.317,0.278 v-0.078999 h-0.003998 m33.004,29.496 c-0.29799,0.778 -0.29799,1.792 -0.71899,2.57 c-0.42,0.773 -0.599,1.191 -0.896,1.675 c-0.3,0.472 -0.3,1.132 -0.776,1.43 c-0.477,0.301 -1.193,0.718 -1.612,0.42001 c-0.41501,-0.3 -2.09,-0.23901 -2.274,-0.179 c-0.177,0.059998 -2.206,-0.060005 -2.447,0.355 c-0.23799,0.42 -1.786,0.122 -2.033,0 c-0.23801,-0.118 -3.164,-1.315 -3.402,-1.372 c-0.23799,-0.058998 -1.738,-0.715 -1.979,-0.894 c-0.23799,-0.181 -1.729,-0.363 -1.787,-0.541 c-0.061005,-0.18 0.11899,-0.418 -0.12401,-0.358 c-0.23399,0.055 -1.97,0.597 -2.208,0.772 c-0.24301,0.186 -0.77301,0.663 -0.77301,0.663 s-0.72299,0.716 -0.66299,1.253 c0.063995,0.538 0.71899,0.956 0.481,1.254 s-1.074,0.656 -1.074,0.656 s-0.90199,-0.835 -1.196,-0.954 c-0.299,-0.12 -3.104,-0.537 -3.104,-0.537 l-1.136,-1.314 s-1.792,-1.196 -1.972,-1.256 c-0.181,-0.058998 -2.152,0 -2.454,-0.238 c-0.3,-0.243 -1.255,-1.495 -1.731,-1.434 c-0.47899,0.058998 -0.29799,-0.717 -0.11899,-0.83601 c0.17799,-0.119 0.71599,-1.135 0.657,-1.314 c-0.062012,-0.181 0.29799,-1.193 -0.298,-1.491 c-0.597,-0.306 -0.181,-1.321 -0.181,-1.321 s0.599,-0.119 0.36,-0.119 s-1.135,0.059998 -1.376,-0.238 c-0.235,-0.299 -0.302,-0.417 -0.534,-0.299 c-0.244,0.121 -1.738,0.359 -1.915,0.299 c-0.181,-0.059006 -1.612,0.119 -1.851,0.119 c-0.23801,0 0.059998,0.061005 -0.23801,0 c-0.30299,-0.059998 -1.499,0.481 -1.557,0.716 c-0.054993,0.239 -1.251,-0.055 -1.432,0 c-0.18201,0.059998 -1.913,0.059998 -1.913,0.059998 l-2.87,0.478 s-1.911,0.96201 -1.97,1.26 c-0.059998,0.299 -0.65799,0.777 -0.836,0.893 c-0.177,0.121 -1.252,0 -1.318,-0.17799 c-0.056,-0.179 -1.971,0.061996 -1.971,0.061996 s-0.77499,-0.421 -1.014,-0.24 c-0.23801,0.179 -0.23801,-0.779 -0.23801,-0.779 l0.298,-0.711 l1.074,-0.719 l2.573,-0.482 l1.255,-0.833 l0.773,-0.299 l0.476,-1.253 s0.897,-0.179 0.83701,-0.361 c-0.059006,-0.179 -0.29401,-1.016 -0.29401,-1.016 l1.729,-2.687 l2.449,-1.196 l0.419,-0.837 s-0.235,-1.074 -0.059006,-1.256 c0.17801,-0.18 1.792,-0.539 1.792,-0.539 l2.033,0.658 s1.074,-0.715 1.312,-0.835 c0.23799,-0.121 1.376,-0.776 1.376,-0.776 s0.116,-0.537 0.356,-0.478 c0.239,0.059002 1.255,-0.179 1.377,0.299 c0.119,0.478 1.015,1.973 1.015,1.973 l1.373,1.435 l1.317,1.016 l1.614,0.595 s0.954,0.837 1.132,0.897 c0.179,0.058002 1.074,1.077 1.074,1.077 l0.477,0.833 s-0.297,0.66 -0.536,0.96 c-0.23801,0.295 -0.955,1.075 -1.135,1.011 c-0.18001,-0.055 -1.557,-0.294 -1.557,-0.294 l-1.492,0.178 s-0.235,0.359 0.18201,0.657 c0.418,0.298 0.895,0.24 1.311,0.478 c0.42499,0.23801 1.499,0.719 1.499,0.719 s0.71899,0.116 0.71899,0.294 c0,0.18 0.23601,-0.478 0.17601,-0.895 c-0.059006,-0.417 -0.121,-0.953 0.29799,-1.074 c0.421,-0.119 1.075,0 1.075,-0.181 c0,-0.178 0.183,-0.42 0.183,-0.42 l0.537,-0.652 l-0.06,-0.417 l0.541,-0.425 s-0.29799,-0.351 -0.541,-0.654 c-0.23599,-0.3 -0.47699,-0.479 -0.304,-0.778 c0.18301,-0.297 0.778,-0.717 1.083,-0.477 c0.297,0.238 1.191,0.357 1.131,0.658 c-0.056992,0.296 0,0.713 0.12201,0.478 c0.11499,-0.241 0.059998,-1.197 0.059998,-1.197 s-0.479,-0.655 -0.89801,-0.715 c-0.414,-0.062 -1.498,-0.598 -1.794,-0.717 c-0.297,-0.12 -0.83301,-0.417 -0.83301,-0.417 s0.23601,-0.657 -0.11699,-0.597 c-0.362,0.058998 -1.436,-0.123 -1.436,-0.299 c0,-0.183 -1.077,-1.021 -1.132,-1.196 c-0.059998,-0.183 -1.019,-1.496 -1.019,-1.496 s-0.541,-0.537 -0.59801,-0.716 c-0.061996,-0.18 -0.11899,-0.479 -0.239,-0.955 c-0.123,-0.478 1.193,-1.673 1.134,-1.495 c-0.061005,0.176 0.3,0.418 0.54201,0.955 c0.235,0.54 1.192,1.435 1.312,1.793 c0.118,0.357 1.436,1.376 1.73,1.492 c0.304,0.118 0.477,0.48 1.077,0.718 c0.60001,0.24 0.54201,0.355 1.317,0.716 c0.77301,0.359 0.895,0.482 1.01,0.657 c0.12399,0.182 0.59799,0.123 0.78099,0.421 c0.17801,0.297 0.41701,0.358 0.41701,0.656 c0,0.297 0.243,0.297 0.117,0.895 c-0.117,0.597 -0.29501,0.776 -0.23401,0.895 c0.059998,0.122 1.136,2.334 1.555,2.334 c0.41699,0 1.67,0.478 1.491,1.192 c-0.17801,0.716 0.77499,1.673 0.77499,1.673 s0.799,0.051003 1.351,0.143 c0.02301,-0.417 -0.064987,-1.086 0.388,-1.339 c0.532,-0.299 1.31,-0.6 1.189,-0.895 c-0.12201,-0.298 -0.24101,-0.838 -0.71701,-1.194 c-0.472,-0.357 -0.95599,-0.543 -1.075,-1.134 c-0.117,-0.599 -0.299,-1.379 0.23801,-1.138 c0.537,0.237 1.016,1.378 1.26,0.596 c0.235,-0.775 0.83099,-1.314 1.248,-1.134 c0.423,0.179 1.2,0.477 1.14,0.716 c-0.061005,0.239 0.537,2.154 0.537,2.154 s0.23799,0.181 0.357,1.075 s0.895,1.134 0.778,1.433 c-0.121,0.296 -0.481,0.47501 0.479,0.597 c0.951,0.12 1.852,0.297 1.852,0.536 c0,0.24 0.776,0.364 0.896,0.54 c0.117,0.18 0.834,0.537 0.955,0.18 c0.119,-0.355 0.35899,-1.078 0.53799,-0.958 c0.179,0.124 1.672,0.124 1.793,0.604 c0.12401,0.471 1.137,0.471 1.137,0.598 c0,0.115 0.896,-0.299 0.896,-0.299 s1.253,-0.958 1.612,-0.779 c0.357,0.179 1.37,-0.661 1.251,0.116 c-0.11699,0.777 0.662,1.496 0.362,2.271 m5.973,-10.516 c-0.176,0.181 -1.315,1.314 -1.315,1.314 l-2.271,-0.3 h-1.552 l-1.314,-0.476 s-0.89801,-0.298 -1.076,-0.479 c-0.18201,-0.179 -1.313,-0.599 -1.313,-0.599 l-2.392,0.539 l-1.854,0.539 l-0.653,0.595 l-2.212,-0.536 l-1.313,-0.656 l-0.721,-0.779 h0.658 l-0.234,-0.955 l0.115,-0.656 l0.595,-0.361 l0.421,-1.731 l0.719,-0.299 l0.177,-0.894 s0.599,-0.541 0.78,-0.72 c0.179,-0.177 0.776,-1.017 0.776,-1.017 l1.43,0.599 s1.494,0.181 1.256,0.242 c-0.243,0.058002 -0.95801,0.897 -0.95801,0.897 s0.53801,0.294 0.785,0.477 c0.233,0.179 0.774,0.475 0.653,0.836 c-0.121,0.357 0.896,0.298 0.896,0.298 l0.359,-0.597 l1.67,-0.417 l0.598,-0.302 l-0.957,-0.294 s-0.83601,-0.302 -0.71501,-0.482 c0.121,-0.181 0.89601,-1.375 0.89601,-1.375 s1.973,-0.595 2.15,-0.595 c0.175,0 1.378,-0.239 1.378,-0.239 s-0.95601,0.955 -1.079,1.136 c-0.12399,0.181 0.062012,0.774 -0.23799,1.016 c-0.296,0.238 -0.72,0.48 -0.89601,0.541 c-0.183,0.055 -0.062988,0.655 0.117,0.716 c0.18401,0.061001 0.77901,0.298 0.77901,0.298 l2.63,1.372 l1.612,1.612 l1.259,1.021 c-9.92e-4,-0.004002 0.533,0.533 0.354,0.711 m15.18,7.884 l-1.5,0.179 s-1.312,-0.538 -1.368,-0.775 c-0.065002,-0.238 -0.362,-0.776 -0.54202,-0.657 c-0.17798,0.121 -0.77499,0.18 -0.953,0.121 c-0.17798,-0.061005 -0.84097,-0.598 -0.84097,-0.837 c0,-0.237 -0.18201,-0.774 0.11899,-1.016 c0.302,-0.238 0.89899,-0.654 0.77798,-0.838 c-0.11499,-0.177 -0.181,-0.948 -0.181,-1.074 c0,-0.12 0,-0.237 0.362,-0.298 c0.35702,-0.061001 0.35702,-0.061001 0.35702,-0.061001 s0.11899,-0.356 -0.061005,-0.536 c-0.17801,-0.18 -1.257,-0.957 -1.376,-1.135 c-0.112,-0.178 -1.434,-1.432 -1.612,-1.617 c-0.177,-0.175 -0.955,-0.712 -0.955,-0.712 l-0.418,-0.899 l0.357,-1.134 l-1.072,-0.239 l-0.238,-0.774 v-0.181 l1.131,-1.312 s0.78001,-0.417 0.957,-0.303 c0.179,0.124 0.595,-0.357 0.664,-0.536 c0.053009,-0.183 1.187,-0.959 1.43,-1.078 c0.237,-0.118 0.65402,-0.656 0.89603,-0.357 c0.23599,0.297 1.729,0.778 1.729,0.778 s0.54202,0.118 0.47702,0.354 c-0.058014,0.243 -0.53702,1.797 -0.53702,1.797 s-1.072,-0.299 -1.191,-0.239 c-0.116,0.056999 -0.953,0.359 -0.77502,0.836 c0.17801,0.478 -0.65598,0.179 -0.59799,0.418 c0.057007,0.237 0.17801,0.596 0.35901,0.716 c0.17999,0.119 1.191,0.656 1.312,1.015 c0.11697,0.361 1.789,1.436 1.789,1.436 s0.181,0.118 0.121,0.361 c-0.056,0.238 -0.17899,1.492 0,1.492 s0.595,-0.061001 0.595,-0.061001 s0.543,-1.133 0.72302,-1.013 c0.17798,0.118 0.896,0.655 1.075,1.073 c0.17502,0.418 0.53702,0.834 0.357,0.954 c-0.18298,0.118 -1.017,0.060001 -1.255,0.060001 c-0.23502,0 -0.65802,-0.299 -0.77701,-0.18 c-0.12302,0.12 -0.357,0.418 -0.17999,0.775 c0.17999,0.362 0.54098,0.898 0.72198,1.021 c0.176,0.117 0.353,0.054001 0.89499,0.538 c0.53702,0.478 0.71503,0.714 0.53702,1.253 c-0.17999,0.537 -0.061005,1.016 0,1.193 c0.05899,0.179 0.17801,0.597 0.29999,0.776 c0.116,0.18 0.116,0.417 0.116,0.417 l-1.728,0.299 m-21.561,-47.771 c-0.020996,-0.008001 -0.044006,-0.008001 -0.052002,-0.008001 c-0.018997,0.008001 0.003998,0.008001 0.052002,0.008001 m145.18,12.382 c0.005005,-0.009001 -0.003998,-0.025002 -0.014008,-0.037001 c0.005005,0.041 0.005005,0.061001 0.014008,0.037001 m-107.75,-20.16 s0.024994,-6e-3 0.072998,-0.029 c-0.040985,-0.037 -0.069,-0.065 -0.072998,-0.082999 c-0.039001,-0.163 0,0.112 0,0.112 m-16.929,133.44 s-1.278,1.438 -1.354,1.68 c-0.084015,0.235 -1.115,1.51 -1.28,1.907 c-0.16,0.39801 -1.43,1.273 -1.43,1.273 l-2.311,0.957 s-0.795,0.080002 -0.558,0.403 c0,0 -0.15999,0.633 -0.71399,1.352 c-0.56001,0.71501 0,1.67 0,1.67 l0.315,1.593 v1.516 s-0.47899,1.673 -0.717,1.751 c-0.23599,0.082001 -0.635,0.55901 -0.873,1.357 c-0.242,0.795 -0.16,1.353 -0.16,1.353 s0.16,1.195 -0.082001,1.436 c-0.243,0.23799 0.39801,1.431 0.64101,1.834 c0.23801,0.39499 0.87601,0.633 0.87601,0.633 s0.554,0.48 0.795,0.63699 c0.23799,0.16 1.432,-0.312 1.432,-0.312 s0.879,-0.398 1.115,-0.56099 c0.24002,-0.16301 0.401,-0.23801 0.875,-1.035 c0.48102,-0.797 0.16302,-0.55901 0.23801,-0.797 c0.085022,-0.23801 0.55701,-1.277 0.80002,-2.63 c0.23798,-1.355 0.31998,-1.275 0.63699,-2.469 c0.31601,-1.196 0.715,-1.517 0.79498,-2.468 c0.080017,-0.957 0.15802,-1.358 0.23602,-1.679 c0.082001,-0.31601 0.88199,-1.51 0.95798,-2.309 c0.078003,-0.793 0.078003,-1.194 -0.075989,-1.51 c-0.15799,-0.323 0.95599,-0.085007 1.112,-0.56201 c0.16299,-0.47899 0,0 0.082001,-0.23498 c0.080994,-0.24301 0.16299,-1.754 0.16299,-2.629 c0,-0.87599 -0.87698,-2.236 -0.965,-2.47 c-0.072998,-0.23999 -0.54999,0.31401 -0.54999,0.31401 m79.584,-11.549 c0.24301,-0.63701 0,-0.71701 -0.15698,-1.035 c-0.15802,-0.31801 0.315,-1.75 0.95499,-2.31 c0.63699,-0.55901 -0.31799,-0.64101 -0.31799,-0.64101 l-0.956,0.16 l-0.877,-1.673 s-1.514,-1.191 -1.99,-1.512 c-0.479,-0.316 0.71201,-0.957 0.71201,-0.957 s-2.702,-2.549 -3.022,-2.549 c-0.31802,0 -1.915,-1.273 -2.153,-1.356 c-0.23801,-0.076996 -1.512,-2.23 -1.512,-2.23 l-5.42,-2.707 s-0.715,0.64 -0.715,0.95499 c0,0.319 0.957,0.478 0.957,0.478 s0.31601,0.238 0.63501,0.399 c0.31799,0.16 1.273,0.95499 1.354,1.516 c0.076996,0.555 0.23999,0.875 0.797,1.35 c0.561,0.479 1.512,0.722 1.512,0.722 s0.40302,1.352 0.72202,1.512 c0.31598,0.16 0.55698,0.874 0.71198,1.275 c0.16101,0.398 1.677,2.867 1.591,3.743 c-0.075989,0.877 1.122,2.95 1.122,2.95 s2.709,2.148 2.789,2.469 c0.078003,0.31601 2.063,0.87601 2.063,0.87601 s0.961,-0.79901 1.199,-1.435 m18.484,-16.333 c0,-0.318 -0.87701,-1.033 -1.118,-1.354 c-0.23798,-0.32101 -1.67,-1.595 -1.988,-1.833 c-0.31601,-0.23801 0,0 -0.47702,0.88 c-0.47699,0.875 -1.037,1.91 -1.278,1.988 c-0.24002,0.080002 -1.988,1.194 -2.469,1.751 c-0.47699,0.557 -1.43,1.993 -1.748,1.76 c-0.31799,-0.243 -1.679,1.028 -1.679,1.028 l-0.715,1.753 l-2.232,-0.475 l0.158,0.719 s-0.71301,1.11 -0.55301,1.354 c0.16,0.239 0,1.117 0.23801,1.59 c0.23599,0.482 0.47699,0.799 0.875,1.117 s0.47699,1.354 0.23798,2.151 s0.32101,0.955 0.63702,1.278 c0.31799,0.31599 1.034,0.398 1.354,0.155 c0.31799,-0.24 0.957,-0.315 1.36,-0.076996 c0.39002,0.23799 1.432,0.23799 1.748,0.63699 c0.31802,0.39801 1.594,0.158 1.83,0.39801 c0.24301,0.23799 1.517,-0.24 1.833,-0.563 c0.315,-0.312 0,-0.948 0,-1.988 c0,-1.035 0.16,-0.95499 0.72098,-1.354 c0.55701,-0.398 0.95502,-0.717 1.033,-1.271 c0.082977,-0.561 0.241,-1.516 0.241,-1.995 s1.275,-0.397 1.511,-0.558 c0.246,-0.16 -0.16,-0.477 -0.16,-0.715 c0,-0.242 -1.035,-1.355 -1.271,-1.754 c-0.23801,-0.401 0.396,-2.392 0.79202,-2.71 c0.40399,-0.319 1.119,-1.593 1.119,-1.912 m-11.153,21.43 c0.237,0.080002 0.79401,0.080002 1.985,0.39801 c1.202,0.31799 2.317,0.39999 2.474,0.717 c0.16,0.31601 1.191,0 1.675,-0.078003 c0.47702,-0.082001 1.596,-1.118 2.311,-0.31999 c0.71802,0.797 2.149,0.23799 2.389,0.398 c0.23801,0.155 0.961,-0.398 1.832,-0.31599 c0.87799,0.075989 0.95801,0.31599 1.196,0.31599 s1.035,0.24 1.434,0.155 c0.39899,-0.076996 0.875,-0.554 1.593,-0.472 c0.72101,0.076004 2.627,-0.562 2.627,-0.562 s0,0.080994 -0.47202,0.399 c-0.48099,0.31799 -2.075,1.511 -2.075,1.511 s-0.24002,-0.157 -0.32101,0.323 c-0.076996,0.477 -0.55399,1.435 -0.076996,1.032 c0.48001,-0.393 2.153,-1.829 2.552,-2.147 c0.39398,-0.31799 0.55399,-0.48 0.953,-0.71899 c0.39798,-0.23801 1.273,-0.479 1.273,-0.479 l0.561,-0.398 s-0.47998,-0.31601 -0.72098,-0.23801 c-0.23401,0.083008 -0.63702,-0.31599 -1.191,-0.078003 c-0.56,0.23801 -2.071,0.477 -2.071,0.477 s-0.957,0.161 -1.514,-0.076996 s-1.198,-0.638 -1.435,-0.321 c-0.23801,0.321 -1.592,0.717 -1.835,0.717 c-0.23498,0 -1.113,-0.080002 -1.75,-0.237 c-0.638,-0.158 -0.798,-0.158 -1.116,-0.158 s-0.31799,-0.23799 -1.194,-0.321 c-0.879,-0.078003 -1.122,-0.31599 -1.352,-0.23799 c-0.24701,0.082993 -0.63699,0.15999 -0.95502,0.321 c-0.32199,0.155 -1.282,0.155 -1.514,-0.083008 c-0.24301,-0.23799 -2.635,-0.715 -2.635,-0.715 s-0.31601,-0.398 0.40298,-0.63699 c0.71503,-0.23801 0.55902,-0.23801 0.47501,-0.55501 c-0.078003,-0.324 -1.276,-0.324 -1.59,-0.23799 c-0.31799,0.07399 -1.12,0.23799 -1.438,-0.086014 c-0.31601,-0.312 -1.273,-1.118 -1.589,-0.63798 c-0.32098,0.47899 -0.15997,1.118 -0.48099,1.04 c-0.31601,-0.078003 -2.472,0.158 -2.472,-0.078003 c0,-0.23799 -0.55698,-0.879 -0.797,-0.96199 c-0.23798,-0.077011 -0.15799,-0.315 -0.55499,-0.48001 c-0.39999,-0.151 -1.195,0.082001 -1.195,0.082001 l-0.795,0.083 l-0.958,1.113 s2.231,0.242 2.47,0.55901 c0.23801,0.31999 1.434,1.273 1.434,1.273 s1.59,0.39801 1.991,0.477 c0.39902,0.082001 2.232,0.159 2.47,0.23999 m-2.626,-44.691 c-0.24701,-0.158 -0.879,-0.158 -0.879,-0.158 l-0.798,0.317 l-0.398,-0.159 l-0.879,1.197 s0.23999,1.352 0.479,1.352 s1.115,0 1.115,0 l0.88,-0.636 l0.48,-1.193 s0.233,-0.56 0,-0.72 m12.902,-3.186 l0.479,-0.958 s0.24002,-0.956 0.31702,-1.194 c0.080994,-0.243 0.396,-0.958 0.16299,-1.356 c-0.23999,-0.398 -0.082001,-0.954 -0.23999,-1.273 c-0.16101,-0.316 -0.24002,-0.796 -0.24002,-0.796 l-0.797,0.317 c-0.31799,0.318 -0.79498,1.752 -0.79498,1.752 s-0.319,1.439 -0.081024,1.75 c0.23801,0.325 0.87601,1.198 0.87601,1.198 l0.318,0.56 m10.037,23.977 c0.71698,0.241 0.957,0.084999 0.875,-0.242 c-0.078003,-0.318 -0.31799,-1.988 -0.47702,-2.623 c-0.15997,-0.637 0.95502,-1.118 -0.23798,-2.071 c-1.193,-0.96 -1.113,-0.875 -1.193,-0.96 c-0.080994,-0.080002 -0.080994,-0.875 -0.080994,-0.875 s0.23801,-0.79501 0.080994,-1.033 c-0.15799,-0.238 -0.319,-0.717 -0.47897,-0.95499 c-0.16,-0.24 -0.16,-0.318 -0.63901,-0.318 c-0.47702,0 -0.47702,-0.55901 -0.79501,-0.482 c-0.31598,0.080002 -1.115,0.716 -0.55899,-0.234 c0.55899,-0.962 0.242,-1.12 0.242,-1.28 c0,-0.158 -0.40302,-0.396 -0.79901,-0.475 c-0.396,-0.082001 -0.71799,-0.55901 -1.274,-0.4 c-0.55701,0.164 -0.79501,-0.236 -1.115,-0.236 c-0.31799,0 -0.47699,-0.401 -0.55499,-0.875 c-0.082001,-0.479 0.078003,-1.436 0.078003,-1.673 c0,-0.242 0.47699,-0.95799 0.47699,-0.95799 s0.16,-0.32201 0,-0.87701 c-0.15799,-0.556 -0.47699,-1.513 -0.47699,-1.91 c0,-0.398 -0.88,-0.797 -0.88,-0.797 l-1.037,0.398 l-0.396,3.506 s-0.716,0.236 -0.634,0.55399 c0.074982,0.32101 0.074982,1.835 0.47598,2.153 c0.396,0.315 1.037,0.715 1.037,0.715 c0.15601,0.4 -0.23599,1.193 -0.23599,1.193 s0.95099,1.12 1.036,1.44 c0.076019,0.31599 0.55701,0.155 0.55701,0.155 s-0.23801,-2.15 0.23599,-1.754 c0.479,0.4 1.752,0.325 1.83,0.799 c0.082977,0.479 0.95798,0.955 1.113,1.436 c0.16,0.478 1.198,0.638 1.122,1.032 c-0.082001,0.39999 -0.72101,0.39999 -1.122,0.479 c-0.39398,0.080002 -1.67,-0.873 -1.67,-0.873 s-0.31799,-0.080002 -0.396,0.395 c-0.078003,0.479 0.15799,1.672 0.47699,2.07 c0.31601,0.401 0.63699,0 0.798,0.238 c0.16,0.243 0,0.8 0.23999,1.12 c0.23502,0.318 0.87302,0.396 1.115,0.236 c0.23798,-0.156 1.035,-0.557 1.035,-0.557 s-0.083984,-0.95499 -0.39999,-1.118 c-0.31799,-0.158 -0.797,-0.637 -0.55499,-0.872 c0.23599,-0.241 0.71301,-0.718 0.95499,-0.64 c0.23401,0.080002 0.798,1.116 0.71503,1.354 c-0.077026,0.238 0,0.321 0.32098,1.194 c0.315,0.882 0.47699,0.721 0.076996,0.882 c-0.39798,0.155 -0.79498,0.637 -1.037,0.795 c-0.053009,0.037003 -0.061005,0.060005 -0.053009,0.075005 c-0.057983,-0.019005 -0.211,-0.047005 -0.582,-0.075005 c-1.04,-0.080002 -0.79898,-0.557 -1.04,-0.080002 c-0.23498,0.477 -0.47699,0.875 -0.47699,0.875 l-0.554,0.238 s-0.401,1.273 -0.32101,1.67 l0.078003,0.405 s0.797,-1.517 1.038,-1.517 c0.23502,0 0.23502,0.398 0.55701,0.158 c0.32199,-0.238 0.64099,-0.075996 0.64099,-0.075996 s0.47702,-0.242 0.39502,0.393 c-0.072998,0.637 -0.072998,0.717 0.15799,1.362 c0.245,0.633 0.88199,0.953 1.12,1.191 s0.55402,0.398 0.715,0.557 c0.16,0.158 0.23801,-0.717 0.16,-1.354 c-0.083008,-0.63699 -0.39899,-1.12 0.31601,-0.878 m-5.574,9.64 c0.88199,0.479 1.432,0.72 2.149,0.958 c0.72101,0.238 1.432,-0.479 1.594,-0.317 c0.15799,0.157 0.87799,-0.56 0.87799,-0.56 s0.55399,-0.797 0.47699,-1.033 c-0.079987,-0.244 -0.16098,-0.959 -0.32098,-0.719 c-0.155,0.236 -1.672,1.115 -1.988,1.192 c-0.31601,0.080002 -1.115,-0.237 -1.832,-0.237 c-0.71799,0 -2.47,-0.55901 -2.713,-0.32 c-0.23099,0.242 -0.953,1.194 -0.875,1.596 c0.082001,0.398 0,0.63699 0,0.879 c0,0.238 -0.23798,1.352 -0.23798,1.035 l-1.114,2.942 s0.87399,2.235 0.798,2.634 c-0.084015,0.396 -0.242,2.63 0,2.387 c0.242,-0.24199 1.43,-0.398 1.43,-0.398 s0.40302,-1.434 0.32501,-2.07 c-0.082001,-0.63701 -0.802,-2.63 -0.16501,-2.47 c0.642,0.15999 1.278,0.95499 1.278,0.95499 s-0.48001,0.483 -0.32001,0.8 s0.71698,0.71501 0.63898,1.432 c-0.079987,0.717 0.23801,1.037 0.23801,0.795 c0,-0.23801 0.798,0.16 0.87802,0.31999 c0.067993,0.143 0.82199,-0.52399 0.939,-0.51799 c0.009003,-0.23801 0.12799,-1.215 -0.06601,-1.473 c-0.241,-0.31799 -0.241,-0.795 -0.793,-1.432 c-0.56201,-0.644 0.15799,-0.798 -0.401,-1.521 c-0.55701,-0.712 -0.79501,-0.474 -0.55701,-0.712 c0.23602,-0.241 0.71802,-0.399 1.116,-0.638 c0.39401,-0.24 0.715,-0.875 0.715,-0.875 c0.080017,-0.238 0.242,-0.158 -0.396,-0.318 c-0.63699,-0.16 -1.198,-0.322 -1.595,0.16 c-0.396,0.47501 -0.79498,0.555 -0.79498,0.555 s0,0 -0.31799,0.080002 s-0.24002,-0.477 -0.479,-0.557 c-0.24301,-0.078003 -0.24301,-0.158 -0.39801,-0.715 c-0.16101,-0.55901 0,-1.436 0.242,-1.599 c0.23599,-0.157 0.79098,-0.717 1.668,-0.238 m2.069,9.321 c0.009003,-0.026993 0,-0.037003 -0.014008,-0.039001 c-0.003998,0.054001 0,0.085007 0.014008,0.039001 m31.228,0 c-0.075989,-0.479 -0.16,-1.035 -0.392,-1.432 c-0.245,-0.39801 -5.425,-3.111 -6.062,-3.349 c-0.63699,-0.238 -3.975,-1.274 -3.975,-1.274 s-1.599,0.637 -1.599,0.87801 c0,0.238 -0.798,1.115 -1.118,1.436 c-0.315,0.31599 -0.237,0.635 -0.71399,0.55701 c-0.48001,-0.080002 -0.55502,0 -0.802,-0.24 c-0.23102,-0.23801 -0.474,-1.04 -0.79202,-1.275 c-0.32098,-0.238 -0.95599,-0.557 -0.802,-1.194 c0.164,-0.637 0.39801,-1.512 -0.077972,-1.512 s-1.191,0.321 -1.352,0.076004 c-0.16,-0.234 -1.113,-0.154 -1.113,-0.154 l-1.989,0.557 l-0.247,0.08 s0.88,1.671 1.441,1.51 c0.55701,-0.157 1.59,1.116 1.59,1.116 s-0.31601,0.719 -0.15799,0.95699 s0.797,1.435 0.797,1.435 l1.273,-0.08 l1.274,0.557 l3.428,1.115 l0.96,1.111 l0.557,2.396 s-1.438,0.953 -1.356,1.352 c0.078003,0.399 1.833,-0.076996 1.833,-0.076996 l1.432,0.715 l1.748,0.875 l1.997,0.077 l1.191,-1.352 s1.75,-1.512 1.75,-1.193 s1.597,0.955 1.837,1.673 c0.24301,0.717 1.674,1.995 1.674,1.995 s1.988,0.63701 2.229,0.71701 c0.23599,0.07399 0.798,0.15799 1.358,0.31599 c0.55701,0.159 -0.561,-1.437 -0.561,-1.437 s-1.755,-1.035 -1.833,-1.434 c-0.078003,-0.399 -1.512,-1.59 -1.432,-1.989 c0.078003,-0.398 -0.642,-0.875 -0.319,-0.875 c0.319,0 1.591,-0.158 1.433,-0.40199 c-0.15799,-0.23401 -1.035,-1.751 -1.433,-1.751 c-0.39697,-0.003006 -1.591,-0.003006 -1.675,-0.481 m2.711,26.926 s-0.875,-0.395 -0.95499,-0.23601 c-0.07901,0.16 -0.401,-1.514 -0.401,-1.514 l0.16,-0.875 s-2.393,-3.031 -2.466,-2.788 c-0.087006,0.23801 -0.88,-2.47 -0.88,-2.47 l-0.237,-2.947 l-0.558,-1.754 l-1.432,0.16 l-0.32,-2.87 l-0.802,-2.708 l-0.394,-0.158 l-0.798,1.83 s-0.39798,2.552 -0.55899,3.428 c-0.16,0.875 -0.23801,2.152 -0.715,2.949 c-0.479,0.797 -1.595,2.705 -1.595,2.705 s-1.275,0 -1.436,-0.23801 c-0.15799,-0.23801 -1.59,-0.957 -1.59,-0.957 l-0.88,-1.353 l-1.429,-1.113 s-0.96402,-1.198 -1.04,-1.118 c-0.076996,0.078995 0.72198,-1.113 0.953,-1.274 c0.24701,-0.15799 0.32098,-0.953 0.32098,-0.953 l1.275,-1.039 s0.23898,-0.39899 0,-0.635 c-0.24002,-0.241 -0.24002,-0.64 -0.55701,-0.722 c-0.32001,-0.078003 -2.153,0.802 -2.153,0.802 l-1.512,-0.72 s-1.118,-0.55901 -1.352,-0.957 c-0.24002,-0.396 -0.88,-0.635 -1.038,-0.477 c-0.16,0.16 0,0.955 0,0.955 s0.327,0.70201 0.44199,0.921 c-0.146,-0.12399 -0.681,0.27699 -0.681,0.27699 l-1.514,0.155 l-0.958,0.876 l-0.717,1.357 l-0.476,0.956 s0.396,0.63699 0.23801,0.556 c-0.16,-0.078995 -2.312,0.55899 -2.312,0.55899 s-0.56097,-1.194 -0.79898,-1.433 c-0.23801,-0.241 -0.953,-0.638 -1.273,-0.638 c-0.31601,0 -1.114,0.718 -1.114,0.718 l-0.315,1.671 l-1.198,-0.318 l-1.038,1.752 l-1.026,0.401 l-0.565,1.193 l-0.316,-1.271 l-1.195,1.113 l-0.401,1.828 s-1.514,1.437 -1.674,1.755 c-0.15802,0.31599 -3.509,1.517 -3.509,1.517 l-2.145,0.715 s-1.115,0.23801 -1.355,0.23801 c-0.23801,0 -2.313,1.516 -2.313,1.516 l-0.711,0.715 l-0.24,-0.637 l-0.877,0.955 v1.993 l-0.877,1.192 l0.479,1.831 l-0.717,0.242 l-0.637,0.481 l0.718,1.434 l0.238,2.623 s0.397,0.79999 0.319,1.28 c-0.07901,0.47299 -0.39999,0.95299 -0.39999,1.271 s0.23999,1.512 0.23999,1.83 c0,0.31999 -0.72,2.396 -0.72,2.396 l-0.872,1.432 l-0.715,0.08 s0.15402,1.515 0.39502,1.515 c0.23798,0 0.95798,0.31499 1.592,0.55899 c0.64002,0.233 1.674,-0.16 1.914,-0.243 c0.23801,-0.080002 1.993,-1.035 1.993,-1.035 s1.035,-0.715 1.352,-0.63699 c0.31799,0.080002 1.757,-0.158 1.991,0 c0.24002,0.15999 2.072,0.080002 2.072,0.080002 l1.113,-1.193 l3.03,-1.356 l1.516,-0.16 l3.659,-1.034 l3.108,0.317 s2.632,1.915 2.632,1.755 c0,-0.158 0.55701,1.037 0.55701,1.037 l-0.158,1.51 s0.87399,0.717 0.952,0.479 c0.082001,-0.24 0.95999,-1.195 1.2,-1.434 c0.233,-0.23799 0.957,-0.55499 1.515,-0.953 c0.55399,-0.39999 0.71201,-0.63899 0.71201,-0.63899 s-0.55502,1.592 -0.797,1.592 c-0.23801,0 -0.72,0.477 -0.95801,0.797 c-0.23801,0.31601 -0.63202,0.56001 -0.63202,0.72 c0,0.155 0.47702,0.155 0.71002,0 c0.24298,-0.15999 0.642,-0.642 0.965,-0.802 c0.315,-0.15799 0.479,-0.077988 0.39398,0.32001 c-0.077972,0.398 -0.077972,0.793 -0.39398,0.953 c-0.323,0.16 -0.72202,0.398 -1.281,0.72 c-0.552,0.31999 -0.952,0.076996 -1.193,0.31999 c-0.23999,0.24 0.15799,0.481 0.31799,0.63701 c0.16,0.15999 0.56201,0.64 0.875,0.082001 c0.31601,-0.55901 0.724,-0.96201 0.95801,-1.117 c0.23801,-0.15601 0.71698,-0.642 0.71698,-0.243 s0.24301,0.802 0.31802,1.123 c0.082977,0.31499 -0.55502,0.952 -0.479,1.11 c0.082001,0.15999 0.88199,1.913 0.88199,1.913 s0.47702,0.633 1.031,0.633 c0.55899,0 1.75,0.40201 1.992,0.485 c0.23401,0.074997 1.356,0 1.517,-0.321 c0.16,-0.31999 1.113,-0.957 1.035,-0.71899 c-0.082001,0.23999 0.078003,0.71899 0.31598,0.957 s0.63702,0.87999 0.63702,0.87999 l2.949,-2.315 s2.229,-0.479 2.308,-0.23801 c0.082001,0.23801 1.512,-1.59 1.512,-1.59 l4.54,-5.576 l1.76,-1.198 l1.272,-1.833 l1.75,-3.191 l0.957,-3.576 l0.718,-2.71 l-1.753,-2.633 l-0.713,-2.233 m-17.688,29.718 s-1.113,-0.717 -1.277,-0.955 v-0.23999 l-0.793,2.467 l-0.715,2.633 s1.43,0.16 1.59,0.23801 c0.16,0.076996 2.552,-1.353 2.634,-1.673 c0.078003,-0.31999 1.672,-2.948 1.672,-2.948 s-2.547,0.55701 -3.111,0.478 m43.182,-4.619 l-0.798,-0.802 s0.082977,-1.113 -0.16,-1.113 c-0.23502,0 -0.63699,0.080002 -0.63699,0.080002 l0.401,-2.792 l-1.441,-0.873 l-0.314,4.302 l-1.038,2.395 l-2.066,0.797 s0.875,0.873 1.193,0.873 c0.31601,0 -0.23999,0.95601 -0.23999,0.95601 l-1.354,1.196 s-0.47501,-0.241 -0.47501,-0.87801 c0,-0.63899 -1.278,0.63701 -1.278,0.63701 l-0.875,-0.559 l-2.392,2.068 l-3.265,1.677 l-7.646,4.703 l1.033,0.557 s0.95599,0.398 1.036,0.55899 c0.076996,0.15601 2.389,-1.037 2.389,-1.037 l2.631,-1.915 l1.27,-1.113 s2.315,-0.63699 2.233,-0.31799 c-0.075989,0.31799 0.71701,-1.513 0.71701,-1.513 l2.231,-1.195 l1.356,-1.352 l1.113,0.313 l1.594,-0.557 l2.709,-1.751 l0.477,-1.437 l0.88,0.085 l1.668,-1.198 l1.115,-1.912 l-2.067,1.117 m-321.06,-174.71 c0.637,0.234 1.034,0.317 2.391,0.397 c1.355,0.076 1.515,-0.08 2.151,0.157 c0.632,0.236 1.192,0.643 1.433,0.077 c0.238,-0.554 0.557,-0.554 0.795,-0.874 c0.23801,-0.318 0,-0.637 0.397,-0.796 c0.398,-0.158 1.117,0.639 1.117,0.639 s-0.878,0.558 -0.48,0.634 c0.397,0.083 1.513,0.32 2.074,0.397 c0.558,0.083 0.080002,0.239 1.036,0.327 c0.954,0.075001 1.353,-0.087999 2.546,-0.087999 c1.196,0 1.917,-0.553 2.314,-0.397 c0.397,0.158 1.75,0.158 2.147,0.081 c0.398,-0.081 1.359,-0.954 0.958,-0.954 s-1.913,-0.401 -2.549,-0.479 c-0.636,-0.079 -2.633,-0.159 -3.105,0.079 c-0.482,0.24 -1.039,0.401 -1.357,0.24 c-0.318,-0.159 1.357,-1.432 2.47,-1.274 c1.117,0.159 2.788,-0.158 3.345,-0.079 s1.916,0.318 1.916,0.318 s0.315,-0.159 0.394,-0.397 c0.080994,-0.239 0.161,-0.478 0.161,-0.478 l0.798,0.716 s5.255,-2.149 5.497,-2.55 c0.239,-0.402 3.58,-1.435 4.065,-1.352 c0.477,0.076 3.74,-1.356 4.302,-1.118 c0.55,0.239 3.501,-0.713 3.501,-0.713 s2.154,-0.48 2.632,-0.48 c0.479,0 0.716,-0.556 0,-0.477 c-0.71899,0.079 -6.696,0.079 -8.126,0 c-1.438,-0.079 -4.941,-3e-3 -5.498,0.079 c-0.558,0.08 -3.748,0.956 -5.1,0.878 c-1.356,-0.081 -5.735,0.554 -5.973,0.475 c-0.242,-0.08 -1.99,-0.159 -1.83,-0.159 c0.15501,0 -2.315,1.992 -2.713,1.432 c-0.397,-0.557 0,-0.955 -0.397,-0.557 s-0.31899,2.232 -0.31899,2.232 c0.477,0.32 1.513,1.434 2.232,0.957 c0.713,-0.479 1.113,-0.239 1.352,-0.162 c0.236,0.081 -1.113,1.117 -1.913,1.117 c-0.796,0 -3.347,0.956 -3.347,0.956 s-1.116,-1.036 -1.355,-1.115 c-0.238,-0.08 -1.59,-0.159 -1.829,-0.159 c-0.23801,0 -0.55801,-0.238 -0.637,0.478 c-0.079002,0.716 0.078995,1.83 -0.716,1.671 c-0.798,-0.16 -1.035,0.158 -1.435,-0.078 c-0.398,-0.24 0.56,-1.435 -0.561,-1.514 c-1.115,-0.079 -1.751,-0.875 -2.388,0.397 c-0.638,1.273 -1.031,1.273 -0.396,1.516 m-28.838,4.935 c-0.242,0.402 2.067,0.56 2.225,0.243 c0.167,-0.322 1.598,-0.083 1.915,-0.558 c0.318,-0.479 1.909,-1.436 2.148,-1.277 c0.23901,0.161 -0.477,0.956 -0.716,1.037 c-0.239,0.079 0.801,0.157 -0.239,0.958 c-1.033,0.795 -0.79401,1.514 -0.79401,1.514 s-0.876,0.397 -0.239,0.557 s1.831,0.716 1.831,0.716 s0.079002,0.557 0.079002,0.717 c0,0.159 0.401,0.637 1.273,0.08 c0.882,-0.558 2.632,-1.193 2.871,-0.955 c0.238,0.238 0.798,-0.08 1.597,-0.16 c0.793,-0.077999 1.433,-0.318 1.433,-0.318 l1.034,0.16 c0.479,0.238 0.879,-0.318 1.679,0.158 c0.792,0.478 1.905,0.478 1.905,0.478 s1.118,-0.875 1.355,-0.954 c0.24,-0.08 0.717,-0.159 0.478,-0.717 c-0.238,-0.559 -1.114,-1.434 -0.875,-1.598 c0.238,-0.158 0.795,-0.318 0.716,-1.83 c-0.078995,-1.512 0.159,-1.271 -0.239,-1.193 c-0.397,0.08 -1.355,0.558 -1.355,0.558 l-0.316,-0.08 c-0.158,0.477 -0.877,0.796 -1.041,1.274 c-0.158,0.477 -0.628,0.716 -0.628,0.318 s-0.56,-0.479 -0.645,-0.797 c-0.073997,-0.319 -0.795,-0.238 -1.192,-0.159 c-0.39899,0.079 -1.516,-0.717 -1.915,-0.398 c-0.394,0.319 -0.797,-0.158 -1.115,-0.875 c-0.315,-0.716 -0.716,-1.277 -1.194,-1.2 c-0.478,0.083 -3.425,0 -3.425,0 l-1.753,0.159 s-0.954,0.243 -0.954,0.723 c0,0.478 -0.16,0.797 -0.637,0.955 c-0.481,0.159 -3.985,1.433 -3.985,1.433 s0.957,0.632 0.718,1.031 m25.014,-1.909 l-0.876,-0.16 s-0.079002,-0.637 -0.317,-0.637 c-0.247,0 -0.958,0.876 -0.958,0.876 s1.038,0.398 1.197,0.717 s0.556,0.715 0.556,0.957 c0,0.235 2.628,-0.798 2.628,-0.798 l1.438,-0.717 s0.073997,0.159 0.159,-0.238 c0.080002,-0.398 -0.159,-0.716 0,-0.797 c0.157,-0.079 0.795,-1.113 0.157,-0.954 c-0.638,0.156 -1.994,0 -2.63,0.238 c-0.637,0.239 -1.431,-0.316 -1.352,0.318 c0.076996,0.637 -0.001999,1.195 -0.001999,1.195 m-12.748,-3.666 s0.318,1.355 0.958,0.958 c0.636,-0.402 2.466,0.958 2.466,1.113 c0,0.164 0.636,0.083 0.636,0.083 l2.792,-0.959 l1.558,-0.237 s1.47,-0.083 1.707,0.08 c0.236,0.157 1.437,-0.397 1.437,-0.397 l0.476,-0.801 l-1.037,-0.318 l0.242,-0.796 s-0.321,-0.478 -1.035,0.079 c-0.722,0.558 -2.711,1.671 -2.553,1.435 c0.16,-0.24 -0.794,0.078 -1.193,-0.401 c-0.401,-0.476 -0.956,-0.557 -0.956,-0.557 s-1.12,-0.397 -1.514,-0.238 c-0.4,0.159 0.716,-0.796 0.716,-0.796 s0.239,-0.877 -0.243,-0.796 c-0.473,0.081 -4.379,0.956 -4.379,0.956 s-1.673,0.955 -1.99,0.715 c-0.318,-0.238 -1.512,0.159 -1.512,0.159 l0.796,0.478 c0.238,-0.239 2.628,0.24 2.628,0.24 m17.766,-3.265 c0.238,0.077 2.152,0.635 2.391,0.716 c0.238,0.081 0.958,0.239 1.271,0.16 c0.318,-0.079 1.594,-0.715 1.119,-0.955 c-0.479,-0.238 -1.993,-0.563 -2.312,-0.724 c-0.318,-0.158 -1.515,-0.233 -1.515,-0.233 l-0.717,0.155 c-0.157,0.239 -0.475,0.803 -0.237,0.881 m-7.649,1.354 c0.324,-0.158 1.437,-0.637 1.437,-0.637 l0.951,-0.795 l0.322,-0.403 s-0.716,-0.633 -1.035,-0.399 c-0.318,0.239 -1.996,0.958 -1.996,0.958 l-0.079,0.558 l-1.307,0.56 s1.386,0.317 1.707,0.158 m14.343,-0.238 c0.314,0.08 1.271,0.08 1.351,-0.16 c0.079002,-0.239 -0.078995,-1.916 -0.078995,-1.916 s-0.32201,-0.474 -0.718,-0.395 c-0.398,0.079 -1.671,0.713 -1.671,0.713 c-0.081001,0.242 0.795,1.678 1.117,1.758 m-20.121,84.9 c-0.055,-0.177 -0.954,-0.47 -1.431,-0.47 c-0.478,0 -2.212,-1.678 -2.328,-2.037 c-0.124,-0.359 -4.004,-1.312 -4.004,-1.312 s-4.243,-0.24 -4.243,-0.357 c0,-0.125 -2.033,1.612 -2.033,1.612 v0.17799 s0.175,0.83501 0.243,1.015 c0.056,0.178 1.372,-0.95799 1.491,-1.434 s1.074,-0.599 1.312,-0.719 c0.243,-0.116 0.358,0.483 0.598,0.483 c0.242,0 1.317,0.356 1.317,0.356 l2.151,0.717 l0.836,0.775 s0.357,1.908 0.357,2.151 c0,0.241 1.614,0.116 1.614,0.116 l3.166,-0.292 c-0.001007,-0.001007 1.018,-0.602 0.954,-0.782 m-0.115,4.005 c0.295,0.119 0.772,-0.059006 1.014,-0.059006 s1.018,-0.179 1.018,-0.179 s0.238,0.538 0.238,0.718 c0,0.176 1.253,-0.061996 1.253,-0.242 s0.299,-0.65601 0.299,-0.65601 l1.491,-0.298 s2.035,0.059998 2.213,0.059998 c0.18,0 0.3,-0.35799 -0.062004,-1.015 c-0.355,-0.659 -1.375,-0.782 -1.614,-1.261 c-0.239,-0.474 -1.372,-0.171 -1.672,0 c-0.298,0.181 -1.968,-0.412 -2.449,-0.412 c-0.474,0 0,0.537 0,0.537 l-0.18,1.732 h-1.97 l-0.061,0.178 s-0.539,0.18 -0.539,0.539 c0.002007,0.358 0.719,0.239 1.021,0.358  z " fill="#232220"></path></svg>