<svg id="Cube" xmlns="http://www.w3.org/2000/svg" width="1857.445" height="799.984" viewBox="0 0 1955 842">
  <defs>
    <style>
      .cls-1, .cls-2 {
        fill: #183c87;
      }

      .cls-1, .cls-3 {
        fill-rule: evenodd;
      }

      .cls-3 {
        fill: #fff;
      }
    </style>
  </defs>
  <path id="zel_svg" data-name="zel svg" class="cls-1" d="M960.12,269.091h239.4l-257.4,312.3v72h409.5v-81h-279.9l266.4-312.3v-72h-378v81Zm501.3,110.7a136.4,136.4,0,0,1,10.35-48.6,129.307,129.307,0,0,1,25.2-39.15,112.035,112.035,0,0,1,37.8-26.1q22.05-9.45,49.05-9.45,26.1,0,47.25,10.35a116.117,116.117,0,0,1,36,27,125.09,125.09,0,0,1,23.4,39.15,165.826,165.826,0,0,1,10.35,46.8h-239.4Zm342,67.5a266.647,266.647,0,0,0-6.75-101.25q-13.05-49.044-41.85-86.85-28.815-37.8-72.45-60.75-43.665-22.95-98.55-22.95-52.2,0-93.6,19.8a215.153,215.153,0,0,0-70.65,53.55q-29.25,33.75-45,78.3a280.109,280.109,0,0,0-15.75,94.05q0,54,14.85,99t44.1,77.4q29.235,32.4,71.55,50.4t97.2,18a252.137,252.137,0,0,0,72.45-10.35,205.794,205.794,0,0,0,62.55-30.6,194.292,194.292,0,0,0,47.7-49.95q19.785-29.7,27.9-67.5h-97.2q-13.5,38.706-40.95,58.05-27.465,19.364-72.45,19.35-32.4,0-55.8-11.25a110.477,110.477,0,0,1-38.7-30.15,128.249,128.249,0,0,1-22.95-44.1,178.661,178.661,0,0,1-7.65-52.2h342Zm36,206.1h102.6V10.791h-102.6v642.6Z"/>
  <circle id="Round" class="cls-2" cx="415" cy="421" r="412"/>
  <g id="Box_Left" data-name="Box Left">
    <path id="Box_Left-2" data-name="Box Left" class="cls-3" d="M112.873,409.443l122.584-70.991,122.172,70.991V551.426L235.457,622.418,112.873,551.426V409.443Z"/>
  </g>
  <g id="Box_Right" data-name="Box Right">
    <path id="Box_Left-3" data-name="Box Left" class="cls-3" d="M472.784,409.443l122.584-70.991L717.54,409.443V551.426L595.368,622.418,472.784,551.426V409.443Z"/>
  </g>
  <g id="Box_Main" data-name="Box Main">
    <path id="Box_Main-2" data-name="Box Main" class="cls-3" d="M260.222,285.208L415,194.817l155.191,90.391v50.767L459.163,400.363V530.377L415,555.967l-43.751-25.59V400.363L260.222,335.975V285.208Z"/>
  </g>
</svg>
