<svg id="Cube" xmlns="http://www.w3.org/2000/svg" width="3734.843" height="799.984" viewBox="0 0 3931 842">
  <defs>
    <style>
      .cls-1 {
        fill: #232220;
      }

      .cls-1, .cls-3 {
        fill-rule: evenodd;
      }

      .cls-2, .cls-3 {
        fill: #fff;
      }

      .cls-2 {
        stroke: #232220;
        stroke-width: 20px;
      }
    </style>
  </defs>
  <path id="zelcore_" data-name="zelcore+" class="cls-1" d="M960.12,269.091h239.4l-257.4,312.3v72h409.5v-81h-279.9l266.4-312.3v-72h-378v81Zm501.3,110.7a136.4,136.4,0,0,1,10.35-48.6,129.307,129.307,0,0,1,25.2-39.15,112.035,112.035,0,0,1,37.8-26.1q22.05-9.45,49.05-9.45,26.1,0,47.25,10.35a116.117,116.117,0,0,1,36,27,125.09,125.09,0,0,1,23.4,39.15,165.826,165.826,0,0,1,10.35,46.8h-239.4Zm342,67.5a266.647,266.647,0,0,0-6.75-101.25q-13.05-49.044-41.85-86.85-28.815-37.8-72.45-60.75-43.665-22.95-98.55-22.95-52.2,0-93.6,19.8a215.153,215.153,0,0,0-70.65,53.55q-29.25,33.75-45,78.3a280.109,280.109,0,0,0-15.75,94.05q0,54,14.85,99t44.1,77.4q29.235,32.4,71.55,50.4t97.2,18a252.137,252.137,0,0,0,72.45-10.35,205.794,205.794,0,0,0,62.55-30.6,194.292,194.292,0,0,0,47.7-49.95q19.785-29.7,27.9-67.5h-97.2q-13.5,38.706-40.95,58.05-27.465,19.364-72.45,19.35-32.4,0-55.8-11.25a110.477,110.477,0,0,1-38.7-30.15,128.249,128.249,0,0,1-22.95-44.1,178.661,178.661,0,0,1-7.65-52.2h342Zm36,206.1h102.6V10.791h-102.6v642.6Zm548.1-319.5q-3.615-38.686-19.8-67.95a147.975,147.975,0,0,0-41.85-48.15,182.965,182.965,0,0,0-58.5-28.35q-32.865-9.45-70.65-9.45-51.3,0-90.9,18.9a194.4,194.4,0,0,0-66.6,51.3q-27,32.4-40.95,75.6t-13.95,91.8a352.479,352.479,0,0,0,12.15,93.15q12.15,44.55,37.8,78.75t65.7,54.45q40.035,20.25,96.75,20.25a210.559,210.559,0,0,0,70.2-11.7,187.3,187.3,0,0,0,59.4-33.75q26.085-22.044,43.2-54.45,17.085-32.4,22.5-73.8h-34.2a184.866,184.866,0,0,1-18,58.05,153.756,153.756,0,0,1-34.65,45.45,160.575,160.575,0,0,1-48.6,29.7q-27.465,10.8-59.85,10.8-45.015,0-78.3-16.2a154.791,154.791,0,0,1-55.8-45.45q-22.515-29.236-33.3-68.85-10.8-39.594-10.8-86.4a255.643,255.643,0,0,1,11.7-76.95,211.942,211.942,0,0,1,34.2-66.6,168.631,168.631,0,0,1,55.8-46.8q33.285-17.55,76.5-17.55a207.484,207.484,0,0,1,58.95,8.1q27.435,8.1,48.15,23.4a120.637,120.637,0,0,1,33.75,38.7q13.035,23.413,15.75,54h34.2Zm31.95,181.8q13.935,44.106,40.95,76.95a196.527,196.527,0,0,0,66.6,52.2q39.585,19.342,90.9,19.35,51.3,0,90.89-19.35a196.624,196.624,0,0,0,66.6-52.2q27.015-32.844,40.96-76.95,13.935-44.086,13.94-93.6,0-49.486-13.94-93.15-13.965-43.644-40.96-76.95a194.58,194.58,0,0,0-66.6-52.65q-39.6-19.344-90.89-19.35t-90.9,19.35a194.486,194.486,0,0,0-66.6,52.65q-27,33.306-40.95,76.95-13.965,43.664-13.95,93.15Q2405.52,471.6,2419.47,515.691Zm31.94-173.25q11.7-38.244,34.21-67.95a166.32,166.32,0,0,1,55.8-47.25q33.285-17.55,76.5-17.55,43.185,0,76.49,17.55a166.646,166.646,0,0,1,55.81,47.25q22.485,29.7,34.2,67.95a276.966,276.966,0,0,1,0,159.3q-11.715,38.264-34.2,67.95a166.646,166.646,0,0,1-55.81,47.25q-33.3,17.55-76.49,17.55t-76.5-17.55a166.32,166.32,0,0,1-55.8-47.25q-22.515-29.7-34.21-67.95A277.193,277.193,0,0,1,2451.41,342.441Zm448.19-151.65h-34.2v462.6h34.2v-252.9q0.885-26.094,4.5-45a176.01,176.01,0,0,1,9.9-34.2,126.473,126.473,0,0,1,15.75-27.9,318.161,318.161,0,0,1,22.05-26.1q31.5-30.586,66.15-39.6,34.635-8.987,61.65-5.4v-34.2a215.228,215.228,0,0,0-60.75,6.75,200.273,200.273,0,0,0-53.1,22.05,161.489,161.489,0,0,0-40.5,34.2q-16.665,19.806-22.95,42.3h-2.7v-102.6Zm547.21,235.8c0-2.391.14-5.541,0.45-9.45,0.29-3.9.45-7.341,0.45-10.35q0-46.786-13.05-87.75-13.05-40.944-38.25-72a180.311,180.311,0,0,0-62.55-49.05q-37.365-17.994-85.95-18-53.115,0-92.25,20.25a193.922,193.922,0,0,0-65.25,54q-26.115,33.75-39.15,78.3a329.305,329.305,0,0,0-13.05,93.15q0,50.414,12.6,94.05,12.6,43.664,38.25,75.6a182,182,0,0,0,63.9,50.4q38.25,18.435,89.55,18.45,83.7,0,134.55-43.2,50.835-43.2,66.15-124.2h-34.2q-15.36,64.8-55.96,101.25t-110.09,36.45q-42.42,0-74.45-16.2a151.967,151.967,0,0,1-53.24-44.1q-21.21-27.887-32.03-64.8a273.067,273.067,0,0,1-10.83-77.4v-5.4h374.4Zm-373.5-29.7a280.249,280.249,0,0,1,14.44-70.2q11.73-34.194,33.39-59.85a164.931,164.931,0,0,1,53.24-41.4q31.575-15.737,73.09-15.75,38.79,0,69.04,15.3a159.57,159.57,0,0,1,51.44,40.95,177.354,177.354,0,0,1,32.03,59.4,276.589,276.589,0,0,1,12.63,71.55h-339.3Zm582.3-17.1h-180.9v91.8h180.9v181.8h91.8v-181.8h180.9v-91.8h-180.9v-181.8h-91.8v181.8Z"/>
  <circle id="Round" class="cls-2" cx="414.75" cy="420.813" r="402.562"/>
  <g id="Box_Left" data-name="Box Left">
    <path id="Box_Left-2" data-name="Box Left" class="cls-1" d="M112.7,409.25l122.55-70.972L357.39,409.25V551.193L235.253,622.165,112.7,551.193V409.25Z"/>
  </g>
  <g id="Box_Right" data-name="Box Right">
    <path id="Box_Left-3" data-name="Box Left" class="cls-1" d="M472.513,409.25l122.55-70.972L717.2,409.25V551.193L595.063,622.165l-122.55-70.972V409.25Z"/>
  </g>
  <g id="Box_Main" data-name="Box Main">
    <path id="Box_Main-2" data-name="Box Main" class="cls-1" d="M260.011,285.05l154.734-90.365L569.893,285.05V335.8l-111,64.369V530.149l-44.151,25.583-43.738-25.583V400.172l-111-64.369V285.05Z"/>
  </g>
  <path id="_svg" data-name="+ svg" class="cls-3" d="M662.885,465.758v28.82h-53.6v53.6H580.463v-53.6h-53.6v-28.82h53.6v-53.6h28.821v53.6h53.6Z"/>
</svg>
