<svg id="Cube" xmlns="http://www.w3.org/2000/svg" width="2001" height="2002" viewBox="0 0 2001 2002">
  <defs>
    <style>
      .cls-1 {
        fill: #232220;
        stroke-width: 50px;
      }

      .cls-1, .cls-3 {
        stroke: #fff;
      }

      .cls-2 {
        fill: #fff;
      }

      .cls-2, .cls-3 {
        fill-rule: evenodd;
      }

      .cls-3 {
        fill: none;
        stroke-width: 25px;
      }
    </style>
  </defs>
  <circle class="cls-1" cx="1000.997" cy="1001.997" r="975.622"/>
  <g id="Box_Left" data-name="Box Left">
    <path id="Box_Left-2" data-name="Box Left" class="cls-2" d="M269,974L566,802,862,974v344L566,1490,269,1318V974Z"/>
    <path id="Stroke" class="cls-3" d="M276,978L566,811,854,978v334L566,1480,276,1312V978Z"/>
  </g>
  <g id="Box_Right" data-name="Box Right">
    <path id="Box_Left-3" data-name="Box Left" class="cls-2" d="M1141,974l297-172,296,172v344l-296,172-297-172V974Z"/>
    <path id="Stroke-2" data-name="Stroke" class="cls-3" d="M1148,978l290-167,288,167v334l-288,168-290-168V978Z"/>
  </g>
  <g id="Box_Main" data-name="Box Main">
    <path id="Box_Main-2" data-name="Box Main" class="cls-2" d="M626,673l375-219,376,219V796L1108,952v315l-107,62-106-62V952L626,796V673Z"/>
    <path id="Box_Main_stroke" data-name="Box Main stroke" class="cls-3" d="M634,678l367-213.62L1367,678V791L1100,946v316l-99,57-99-57V946L634,791V678Z"/>
  </g>
</svg>
