<svg id="SVG" xmlns="http://www.w3.org/2000/svg" width="679.962" height="216.974" viewBox="0 0 3325 1061">
  <defs>
    <style>
      .cls-1 {
        fill: #bb3c88;
      }

      .cls-1, .cls-3 {
        fill-rule: evenodd;
      }

      .cls-2, .cls-3 {
        fill: #fff;
      }
    </style>
	<linearGradient id="zelidgrad" x2="0" y2="1">
    	<stop offset="0%" stop-color="#d83f87" />
    	<stop offset="100%" stop-color="#44318d" />
  	</linearGradient>
  	<linearGradient id="roundgrad" x2="0" y2="1">
    	<stop offset="0%" stop-color="#fff" />
    	<stop offset="100%" stop-color="#e5e5e5" />
  	</linearGradient>
  </defs>
  <path id="zelID_svg" data-name="zelID svg" fill="url(#zelidgrad)" d="M1217.86,338.135h301.11l-324,392.515v90.485h515.06v-102H1357.97l335-392.516V236.135H1217.86v102Zm630.48,139a171.587,171.587,0,0,1,13-61.094,162.572,162.572,0,0,1,31.69-49.2,141.113,141.113,0,0,1,47.53-32.813q27.735-11.883,61.67-11.89,32.82,0,59.41,13.015a145.933,145.933,0,0,1,45.27,33.938,157.467,157.467,0,0,1,29.42,49.218,208.615,208.615,0,0,1,13.01,58.829h-301Zm430,85q7.935-65.673-8.48-127.407-16.41-61.71-52.63-109.281-36.21-47.554-91.09-76.437t-123.91-28.875q-65.625,0-117.68,24.906a270.567,270.567,0,0,0-88.83,67.359q-36.78,42.47-56.58,98.5t-19.8,118.3q0,67.946,18.68,124.547,18.645,56.6,55.43,97.359,36.75,40.758,89.94,63.391,53.175,22.641,122.2,22.641a317.216,317.216,0,0,0,91.08-13A258.479,258.479,0,0,0,2175.3,785.7a244.474,244.474,0,0,0,59.97-62.766q24.885-37.312,35.07-84.8h-122q-16.98,48.515-51.51,72.75-34.53,24.257-91.13,24.25-40.755,0-70.18-14.125-29.445-14.133-48.69-37.891-19.245-23.742-28.86-55.406a223.969,223.969,0,0,1-9.63-65.578h430Zm44.77,259h129v-808h-129v808Zm216.2,0h50v-808h-50v808Zm135.83,0h262.84q97.425,0,168.25-31.11,70.8-31.125,117.27-85.437,46.455-54.328,68.54-128.453t22.1-160.125a631.519,631.519,0,0,0-17.57-149.375q-17.565-72.423-60.62-129.016T3120.97,47.088q-71.955-33.938-180.72-33.953H2675.14v808Zm50-43v-722h207.22a624.9,624.9,0,0,1,66.23,3.969A344.392,344.392,0,0,1,3072.2,76.51a300.4,300.4,0,0,1,71.34,35.641q34.53,23.2,61.14,63.375t43.04,99.016q16.4,58.851,16.42,141.469,0,105.234-28.88,174.843T3159.95,701.76q-46.425,41.3-103.61,58.843t-113.8,17.532h-217.4Z"/>
  <circle id="Round" fill="url(#roundgrad)" cx="530" cy="530" r="520"/>
  <path id="Fingerprint_White" data-name="Fingerprint White" class="cls-3" d="M586.289,609.57V543.454a47.291,47.291,0,0,0-94.581,0v59.694a290.2,290.2,0,0,1-74.646,194.47l-65.089,72.443a15.092,15.092,0,0,0,22.438,20.188L439.5,817.806a320.341,320.341,0,0,0,82.393-214.658V543.454a17.106,17.106,0,0,1,34.211,0V609.57a354.312,354.312,0,0,1-92.369,238.854l-64.7,71.145a15.091,15.091,0,0,0,22.335,20.3l64.694-71.146A384.41,384.41,0,0,0,586.289,609.57Zm64.395-66.116a111.686,111.686,0,0,0-223.371,0v59.694a225.933,225.933,0,0,1-58.115,151.4l-54.869,60.1a15.092,15.092,0,0,0,22.438,20.189l54.868-60.1A256.054,256.054,0,0,0,457.5,603.148V543.454a81.5,81.5,0,0,1,163,0V609.57A418.542,418.542,0,0,1,511.385,891.728L456.8,951.757a15.09,15.09,0,0,0,22.333,20.3l54.588-60.03A448.656,448.656,0,0,0,650.684,609.57V543.454Zm64.4,0c0-97.065-78.989-176.031-176.081-176.031S362.917,446.389,362.917,543.454v59.694a161.669,161.669,0,0,1-41.585,108.337l-45.047,49.754a15.092,15.092,0,1,0,22.438,20.188l45.047-49.754A191.791,191.791,0,0,0,393.1,603.148V543.454C393.1,463.029,458.551,397.6,539,397.6s145.9,65.429,145.9,145.854V609.57A482.762,482.762,0,0,1,559.032,935.03L532.4,964.453a15.091,15.091,0,0,0,22.336,20.3l26.631-29.421A512.887,512.887,0,0,0,715.078,609.57V543.454h0Zm-416.558,0a15.093,15.093,0,0,0,30.185,0A210.6,210.6,0,0,1,508.945,335.363a15.088,15.088,0,1,0-4.293-29.869A240.782,240.782,0,0,0,298.522,543.454Zm30.185,59.694a15.093,15.093,0,0,0-30.185,0,97.393,97.393,0,0,1-25.052,65.268L235.68,710.4a15.091,15.091,0,0,0,22.438,20.186L295.907,688.6A127.522,127.522,0,0,0,328.707,603.148ZM749.851,737.839a15.1,15.1,0,0,0-18.422,10.778A547.8,547.8,0,0,1,710.822,811.5a15.092,15.092,0,0,0,28.064,11.115,578.41,578.41,0,0,0,21.745-66.36A15.091,15.091,0,0,0,749.851,737.839ZM699.616,364.67a15.091,15.091,0,1,0-20.183,22.44,210.573,210.573,0,0,1,69.856,156.344V609.57a552.586,552.586,0,0,1-5.146,75.158,15.088,15.088,0,0,0,12.891,17.006,15.263,15.263,0,0,0,2.079.143,15.094,15.094,0,0,0,14.931-13.033,582.77,582.77,0,0,0,5.43-79.276V543.454A240.785,240.785,0,0,0,699.616,364.67Zm-70.559-11.177a15.09,15.09,0,1,0,12.979-27.246,238.558,238.558,0,0,0-68.694-20.755,15.088,15.088,0,1,0-4.293,29.869A208.445,208.445,0,0,1,629.057,353.493ZM539,238.668c-5.647,0-11.359.157-16.978,0.467a15.087,15.087,0,1,0,1.661,30.128c5.07-.279,10.222-0.42,15.315-0.42,151.462,0,274.687,123.188,274.687,274.609v66.116a15.093,15.093,0,0,0,30.185,0V543.454C843.871,375.4,707.105,238.668,539,238.668ZM373.977,320.534a15.033,15.033,0,0,0,8.6-2.7,273.128,273.128,0,0,1,81.969-38.743,15.089,15.089,0,1,0-8.19-29.046,303.242,303.242,0,0,0-91.011,43.01A15.092,15.092,0,0,0,373.977,320.534ZM264.312,603.148V543.454a273.377,273.377,0,0,1,74.87-188.233,15.091,15.091,0,0,0-21.963-20.7,303.438,303.438,0,0,0-83.093,208.934v59.694a33.125,33.125,0,0,1-8.52,22.2L207,646.019a15.092,15.092,0,0,0,22.438,20.19l18.61-20.671A63.27,63.27,0,0,0,264.312,603.148ZM889.1,425.974a367.1,367.1,0,0,0-78.192-132.058,15.091,15.091,0,1,0-22.228,20.418A337.11,337.11,0,0,1,860.491,435.6,15.091,15.091,0,0,0,889.1,425.974ZM658.274,194.051A15.088,15.088,0,1,0,648.5,222.6a338.145,338.145,0,0,1,92.87,49.025,15.091,15.091,0,1,0,18.055-24.186A368.352,368.352,0,0,0,658.274,194.051ZM304.491,298.837A337.429,337.429,0,0,1,539,204.467a342.262,342.262,0,0,1,48.691,3.483,15.089,15.089,0,1,0,4.315-29.867A372.712,372.712,0,0,0,539,174.291,367.485,367.485,0,0,0,283.6,277.055c-68.919,66.063-109.225,154.716-113.491,249.631a15.088,15.088,0,0,0,14.4,15.75c0.232,0.013.461,0.016,0.691,0.016a15.092,15.092,0,0,0,15.066-14.411C204.179,440.907,241.194,359.508,304.491,298.837ZM539,109.913a434.374,434.374,0,0,0-99.962,11.625,15.087,15.087,0,1,0,6.956,29.361A404.418,404.418,0,0,1,539,140.09c110.672,0,213.978,44.081,290.886,124.118a15.09,15.09,0,1,0,21.77-20.9A432.549,432.549,0,0,0,539,109.913ZM199.978,297.823a15.1,15.1,0,0,0,21.188-2.578,406.1,406.1,0,0,1,163.76-124.594,15.089,15.089,0,1,0-11.563-27.875A436.345,436.345,0,0,0,197.4,276.638,15.089,15.089,0,0,0,199.978,297.823Z"/>
  <path id="Fingerprint_Purple" data-name="Fingerprint Purple" fill="url(#zelidgrad)" d="M586.289,609.57V543.454a47.291,47.291,0,0,0-94.581,0v59.694a290.2,290.2,0,0,1-74.646,194.47l-65.089,72.443a15.092,15.092,0,0,0,22.438,20.188L439.5,817.806a320.341,320.341,0,0,0,82.393-214.658V543.454a17.106,17.106,0,0,1,34.211,0V609.57a354.312,354.312,0,0,1-92.369,238.854l-64.7,71.145a15.091,15.091,0,0,0,22.335,20.3l64.694-71.146A384.41,384.41,0,0,0,586.289,609.57Zm64.395-66.116a111.686,111.686,0,0,0-223.371,0v59.694a225.933,225.933,0,0,1-58.115,151.4l-54.869,60.1a15.092,15.092,0,0,0,22.438,20.189l54.868-60.1A256.054,256.054,0,0,0,457.5,603.148V543.454a81.5,81.5,0,0,1,163,0V609.57A418.542,418.542,0,0,1,511.385,891.728L456.8,951.757a15.09,15.09,0,0,0,22.333,20.3l54.588-60.03A448.656,448.656,0,0,0,650.684,609.57V543.454Zm64.4,0c0-97.065-78.989-176.031-176.081-176.031S362.917,446.389,362.917,543.454v59.694a161.669,161.669,0,0,1-41.585,108.337l-45.047,49.754a15.092,15.092,0,1,0,22.438,20.188l45.047-49.754A191.791,191.791,0,0,0,393.1,603.148V543.454C393.1,463.029,458.551,397.6,539,397.6s145.9,65.429,145.9,145.854V609.57A482.762,482.762,0,0,1,559.032,935.03L532.4,964.453a15.091,15.091,0,0,0,22.336,20.3l26.631-29.421A512.887,512.887,0,0,0,715.078,609.57V543.454h0ZM328.707,603.148a15.093,15.093,0,0,0-30.185,0,97.393,97.393,0,0,1-25.052,65.268L235.68,710.4a15.091,15.091,0,0,0,22.438,20.186L295.907,688.6A127.522,127.522,0,0,0,328.707,603.148ZM749.851,737.839a15.1,15.1,0,0,0-18.422,10.778A547.8,547.8,0,0,1,710.822,811.5a15.092,15.092,0,0,0,28.064,11.115,578.41,578.41,0,0,0,21.745-66.36A15.091,15.091,0,0,0,749.851,737.839ZM699.616,364.67a15.091,15.091,0,1,0-20.183,22.44,210.573,210.573,0,0,1,69.856,156.344V609.57a552.586,552.586,0,0,1-5.146,75.158,15.088,15.088,0,0,0,12.891,17.006,15.263,15.263,0,0,0,2.079.143,15.094,15.094,0,0,0,14.931-13.033,582.77,582.77,0,0,0,5.43-79.276V543.454A240.785,240.785,0,0,0,699.616,364.67Zm-435.3,238.478V543.454a273.377,273.377,0,0,1,74.87-188.233,15.091,15.091,0,0,0-21.963-20.7,303.438,303.438,0,0,0-83.093,208.934v59.694a33.125,33.125,0,0,1-8.52,22.2L207,646.019a15.092,15.092,0,0,0,22.438,20.19l18.61-20.671A63.27,63.27,0,0,0,264.312,603.148ZM889.1,425.974a367.1,367.1,0,0,0-78.192-132.058,15.091,15.091,0,1,0-22.228,20.418A337.11,337.11,0,0,1,860.491,435.6,15.091,15.091,0,0,0,889.1,425.974ZM658.274,194.051A15.088,15.088,0,1,0,648.5,222.6a338.145,338.145,0,0,1,92.87,49.025,15.091,15.091,0,1,0,18.055-24.186A368.352,368.352,0,0,0,658.274,194.051ZM304.491,298.837A337.429,337.429,0,0,1,539,204.467a342.262,342.262,0,0,1,48.691,3.483,15.089,15.089,0,1,0,4.315-29.867A372.712,372.712,0,0,0,539,174.291,367.485,367.485,0,0,0,283.6,277.055c-68.919,66.063-109.225,154.716-113.491,249.631a15.088,15.088,0,0,0,14.4,15.75c0.232,0.013.461,0.016,0.691,0.016a15.092,15.092,0,0,0,15.066-14.411C204.179,440.907,241.194,359.508,304.491,298.837ZM539,109.913a434.374,434.374,0,0,0-99.962,11.625,15.087,15.087,0,1,0,6.956,29.361A404.418,404.418,0,0,1,539,140.09c110.672,0,213.978,44.081,290.886,124.118a15.09,15.09,0,1,0,21.77-20.9A432.549,432.549,0,0,0,539,109.913ZM199.978,297.823a15.1,15.1,0,0,0,21.188-2.578,406.1,406.1,0,0,1,163.76-124.594,15.089,15.089,0,1,0-11.563-27.875A436.345,436.345,0,0,0,197.4,276.638,15.089,15.089,0,0,0,199.978,297.823ZM325,552.088a15.039,15.039,0,0,0,3.028-8.493c1.2-30.559,8.7-60.42,19.754-88.762a15.09,15.09,0,1,0-28.116-10.967c-12.28,31.476-20.464,64.633-21.8,98.549A15.092,15.092,0,0,0,325,552.088Zm518.656,51.917V544.22a304.863,304.863,0,0,0-82.737-209.253,14.971,14.971,0,0,0-21.244-.628,15.171,15.171,0,0,0-.625,21.361A274.657,274.657,0,0,1,813.6,544.22v59.785c-0.161,16.827,7.374,20.369,14.823,20.773C840.767,624.648,843.658,614.525,843.658,604.005Z"/>
  <path id="zelID_inside" data-name="zelID inside" class="cls-1" d="M384.033,284.422h40.883l-43.957,53.332v12.295H450.89V336.217h-47.8l45.493-53.332v-12.3H384.033v13.833Zm87.913,18.9a23.3,23.3,0,0,1,1.768-8.3,22.086,22.086,0,0,1,4.3-6.686,19.142,19.142,0,0,1,6.456-4.457,21.045,21.045,0,0,1,8.376-1.614,18.148,18.148,0,0,1,8.069,1.767,19.866,19.866,0,0,1,6.148,4.611,21.354,21.354,0,0,1,4,6.686,28.345,28.345,0,0,1,1.767,7.992H471.946Zm58.4,11.527a45.543,45.543,0,0,0-1.153-17.29,42.042,42.042,0,0,0-7.147-14.832,36.942,36.942,0,0,0-12.373-10.374,35.611,35.611,0,0,0-16.829-3.92A36.055,36.055,0,0,0,464.8,280.964a41.071,41.071,0,0,0-7.685,13.371,47.812,47.812,0,0,0-2.689,16.061,53.7,53.7,0,0,0,2.535,16.906,36.495,36.495,0,0,0,7.531,13.218,34.276,34.276,0,0,0,12.219,8.607,42.072,42.072,0,0,0,16.6,3.074,43.052,43.052,0,0,0,12.373-1.768,35.138,35.138,0,0,0,10.681-5.225,32.948,32.948,0,0,0,12.911-20.057h-16.6a19.535,19.535,0,0,1-6.993,9.913q-4.691,3.307-12.373,3.3a21.77,21.77,0,0,1-9.529-1.921,18.862,18.862,0,0,1-6.609-5.148,21.911,21.911,0,0,1-3.919-7.532,30.47,30.47,0,0,1-1.307-8.914h58.4Zm8.453,35.2h17.521V240.311H538.8V350.049Zm31.661,0h6.762V240.311h-6.762V350.049Zm20.748,0H626.87q13.217,0,22.824-4.226a43.707,43.707,0,0,0,15.907-11.6,47.257,47.257,0,0,0,9.3-17.445,75.916,75.916,0,0,0,3-21.747,85.9,85.9,0,0,0-2.383-20.288,46.876,46.876,0,0,0-8.222-17.521,41.36,41.36,0,0,0-15.6-12.3q-9.762-4.611-24.515-4.611H591.213V350.049Zm6.762-5.84V246.152H626.1a84.967,84.967,0,0,1,8.992.538,46.883,46.883,0,0,1,9.99,2.228,40.946,40.946,0,0,1,9.682,4.842,30.394,30.394,0,0,1,8.3,8.606,47.405,47.405,0,0,1,5.841,13.449,72.324,72.324,0,0,1,2.228,19.212q0,14.293-3.919,23.745a40.555,40.555,0,0,1-10.221,15.063,37.524,37.524,0,0,1-14.063,7.992,52.4,52.4,0,0,1-15.446,2.382h-29.51Z"/>
</svg>
