<svg id="Grupp_1" data-name="Grupp 1" xmlns="http://www.w3.org/2000/svg" width="3624" height="842" viewBox="0 0 3624 842">
<defs>
    <style>
      .cls-1, .cls-2 {
        fill: #ff7952;
      }

      .cls-1, .cls-3 {
        fill-rule: evenodd;
      }

      .cls-3 {
        fill: #fff;
      }
    </style>
  </defs>
  <path id="zelLabs_svg" data-name="zelLabs svg" class="cls-1" d="M960.12,269.091h239.4l-257.4,312.3v72h409.5v-81h-279.9l266.4-312.3v-72h-378v81Zm501.3,110.7a136.4,136.4,0,0,1,10.35-48.6,129.307,129.307,0,0,1,25.2-39.15,112.035,112.035,0,0,1,37.8-26.1q22.05-9.45,49.05-9.45,26.1,0,47.25,10.35a116.117,116.117,0,0,1,36,27,125.09,125.09,0,0,1,23.4,39.15,165.826,165.826,0,0,1,10.35,46.8h-239.4Zm342,67.5a266.647,266.647,0,0,0-6.75-101.25q-13.05-49.044-41.85-86.85-28.815-37.8-72.45-60.75-43.665-22.95-98.55-22.95-52.2,0-93.6,19.8a215.153,215.153,0,0,0-70.65,53.55q-29.25,33.75-45,78.3a280.109,280.109,0,0,0-15.75,94.05q0,54,14.85,99t44.1,77.4q29.235,32.4,71.55,50.4t97.2,18a252.137,252.137,0,0,0,72.45-10.35,205.794,205.794,0,0,0,62.55-30.6,194.292,194.292,0,0,0,47.7-49.95q19.785-29.7,27.9-67.5h-97.2q-13.5,38.706-40.95,58.05-27.465,19.364-72.45,19.35-32.4,0-55.8-11.25a110.477,110.477,0,0,1-38.7-30.15,128.249,128.249,0,0,1-22.95-44.1,178.661,178.661,0,0,1-7.65-52.2h342Zm36,206.1h102.6V10.791h-102.6v642.6Zm171.9,0h404.1v-34.2h-364.5V10.791h-39.6v642.6Zm705.6-67.5a145.135,145.135,0,0,0,2.25,26.55,52.948,52.948,0,0,0,8.55,21.15q6.285,9.006,18.45,14.4,12.15,5.4,32.85,5.4a107.7,107.7,0,0,0,27.9-3.6v-28.8q-16.2,2.7-25.2,2.7-11.715,0-18-4.95a26.92,26.92,0,0,1-9-13.05,65.86,65.86,0,0,1-3.15-18q-0.465-9.894-.45-19.8v-269.1q0-53.094-38.25-85.95t-121.95-32.85q-83.7,0-129.15,38.25t-49.05,114.75h34.2q3.585-62.1,41.85-92.7,38.235-30.586,100.35-30.6,35.1,0,59.4,7.2t39.6,19.8q15.285,12.613,22.5,28.8a85.6,85.6,0,0,1,7.2,35.1q0,24.3-2.7,40.5t-13.5,26.55q-10.8,10.356-31.95,16.2-21.165,5.863-58.05,8.55l-53.1,4.5a538.616,538.616,0,0,0-58.05,9,175.568,175.568,0,0,0-54.9,21.15,122.742,122.742,0,0,0-40.95,40.5q-16.2,25.65-16.2,66.15,0,66.613,40.5,98.55t114.3,31.95q33.285,0,61.2-8.1a185.259,185.259,0,0,0,49.95-22.5,165.924,165.924,0,0,0,37.35-32.85,142.661,142.661,0,0,0,23.4-39.15h1.8v24.3Zm0-108.9q0,9.006-4.95,34.65t-22.95,53.1q-18.015,27.463-52.2,48.6-34.215,21.156-92.7,21.15-56.7,0-89.1-24.75t-32.4-76.05q0-32.4,12.6-52.65a92.979,92.979,0,0,1,32.85-31.95,146.847,146.847,0,0,1,45.45-16.65q25.185-4.936,50.4-7.65l57.6-5.4a476.433,476.433,0,0,0,57.15-8.1q25.65-5.4,38.25-20.7v86.4Zm106.2,176.4h33.34v-103.5h1.76q2.7,9.006,13.53,27.9t31.57,38.25q20.745,19.364,52.77,33.75t78.05,14.4q24.345,0,58.64-8.55,34.275-8.544,65.85-35.1,31.56-26.537,54.13-76.5,22.545-49.95,22.56-132.75,0-48.6-12.18-90.45t-37.45-73.35a178.414,178.414,0,0,0-62.69-49.5q-37.44-17.994-88.86-18a230.283,230.283,0,0,0-55.94,6.75,186.593,186.593,0,0,0-50.51,20.7,175.149,175.149,0,0,0-41.5,34.2,145.561,145.561,0,0,0-27.97,47.25h-1.8V10.791h-33.3v642.6Zm129.85-37.8a161.34,161.34,0,0,1-54.59-49.95q-21.225-31.05-31.13-71.55a345.871,345.871,0,0,1-9.93-82.8q0-43.2,10.83-80.1t32.48-63.9q21.645-27,55.04-42.3t78.51-15.3q41.52,0,72.63,17.1a162.181,162.181,0,0,1,52.35,45.45,198.11,198.11,0,0,1,31.58,64.35,268.345,268.345,0,0,1,10.38,74.7,361.073,361.073,0,0,1-9.03,79.65q-9.03,40.056-28.87,72a159.84,159.84,0,0,1-51.44,51.75q-31.605,19.806-77.6,19.8Q2986.345,634.491,2952.97,615.591Zm299.45-116.1q0.885,40.5,15.3,71.1a149.683,149.683,0,0,0,39.6,51.75q25.185,21.156,58.95,31.5t73.35,10.35a347.528,347.528,0,0,0,62.55-5.85,183.528,183.528,0,0,0,58.05-20.7,132.1,132.1,0,0,0,43.2-39.15q17.085-24.3,17.1-62.1,0-35.986-12.6-59.4a106.314,106.314,0,0,0-34.65-38.25q-22.065-14.85-52.2-23.4-30.165-8.544-64.35-14.85-27.915-6.286-55.35-12.6a244.4,244.4,0,0,1-49.5-16.65q-22.065-10.336-35.55-27.45-13.5-17.087-13.5-45,0-24.3,12.15-41.4a95.969,95.969,0,0,1,31.05-27.9,136.623,136.623,0,0,1,42.75-15.3,254.576,254.576,0,0,1,47.25-4.5,208.138,208.138,0,0,1,54,6.75q25.185,6.75,43.65,20.7,18.435,13.963,28.8,36.45,10.335,22.506,10.35,54h34.2q0-39.594-13.05-67.5-13.065-27.887-36-45.9-22.95-17.994-54.45-26.1a270.4,270.4,0,0,0-67.5-8.1,307,307,0,0,0-59.4,5.85q-29.7,5.863-53.55,19.35a113.69,113.69,0,0,0-39.15,36.45q-15.315,22.95-15.3,57.15,0,47.714,23.4,72.45,23.385,24.764,58.95,38.25a396.4,396.4,0,0,0,76.5,20.25,598.481,598.481,0,0,1,76.5,17.55q35.535,10.8,58.95,30.6,23.385,19.806,23.4,58.5,0,29.7-14.4,49.05a99.1,99.1,0,0,1-36.45,30.15,167.06,167.06,0,0,1-47.7,14.85,309.688,309.688,0,0,1-48.15,4.05q-31.515,0-58.5-9a136.083,136.083,0,0,1-80.1-68.85q-12.615-24.744-14.4-57.15h-34.2Z"/>
  <circle id="Round" class="cls-2" cx="415" cy="421" r="412"/>
  <path id="川_svg" data-name="川 svg" class="cls-3" d="M584.844,191.778H543.975v472.5h40.869v-472.5ZM289.532,193.36H248.4V400.079q0,79.632-3.955,111.269T220.054,574.1q-20.436,31.116-67.1,60.908l29.531,35.6q55.631-36.652,81.343-84.243t25.708-120.894V193.36Zm145.283,12.92H393.682V620.508h41.133V206.28Z"/>
</svg>
